<?xml version="1.0" encoding="utf-8" standalone="no"?>
<!DOCTYPE svg PUBLIC "-//W3C//DTD SVG 1.1//EN"
  "http://www.w3.org/Graphics/SVG/1.1/DTD/svg11.dtd">
<!-- Created with matplotlib (https://matplotlib.org/) -->
<svg height="346.666667pt" version="1.1" viewBox="0 0 658.666667 346.666667" width="658.666667pt" xmlns="http://www.w3.org/2000/svg" xmlns:xlink="http://www.w3.org/1999/xlink">
 <metadata>
  <rdf:RDF xmlns:cc="http://creativecommons.org/ns#" xmlns:dc="http://purl.org/dc/elements/1.1/" xmlns:rdf="http://www.w3.org/1999/02/22-rdf-syntax-ns#">
   <cc:Work>
    <dc:type rdf:resource="http://purl.org/dc/dcmitype/StillImage"/>
    <dc:date>2021-05-19T11:42:31.413744</dc:date>
    <dc:format>image/svg+xml</dc:format>
    <dc:creator>
     <cc:Agent>
      <dc:title>Matplotlib v3.3.4, https://matplotlib.org/</dc:title>
     </cc:Agent>
    </dc:creator>
   </cc:Work>
  </rdf:RDF>
 </metadata>
 <defs>
  <style type="text/css">*{stroke-linecap:butt;stroke-linejoin:round;}</style>
 </defs>
 <g id="figure_1">
  <g id="patch_1">
   <path d="M 0 346.666667 
L 658.666667 346.666667 
L 658.666667 0 
L 0 0 
z
" style="fill:#ffffff;"/>
  </g>
  <g id="axes_1">
   <g id="LineCollection_1">
    <path clip-path="url(#p3bde2c17d7)" d="M 297.255411 15.757576 
L 79.838384 319.529287 
" style="fill:none;stroke:#000000;"/>
    <path clip-path="url(#p3bde2c17d7)" d="M 297.255411 15.757576 
L 254.484848 308.149483 
" style="fill:none;stroke:#000000;"/>
    <path clip-path="url(#p3bde2c17d7)" d="M 297.255411 15.757576 
L 479.030303 308.149483 
" style="fill:none;stroke:#000000;"/>
    <path clip-path="url(#p3bde2c17d7)" d="M 297.255411 15.757576 
L 578.828283 319.529287 
" style="fill:none;stroke:#000000;"/>
    <path clip-path="url(#p3bde2c17d7)" d="M 297.255411 15.757576 
L 628.727273 319.529287 
" style="fill:none;stroke:#000000;"/>
    <path clip-path="url(#p3bde2c17d7)" d="M 297.255411 15.757576 
L 29.939394 36.856892 
" style="fill:none;stroke:#000000;"/>
    <path clip-path="url(#p3bde2c17d7)" d="M 297.255411 15.757576 
L 29.939394 319.529287 
" style="fill:none;stroke:#000000;stroke-dasharray:3.7,1.6;stroke-dashoffset:0;"/>
    <path clip-path="url(#p3bde2c17d7)" d="M 79.838384 319.529287 
L 79.838384 330.909091 
" style="fill:none;stroke:#000000;"/>
    <path clip-path="url(#p3bde2c17d7)" d="M 254.484848 308.149483 
L 129.737374 319.529287 
" style="fill:none;stroke:#000000;"/>
    <path clip-path="url(#p3bde2c17d7)" d="M 254.484848 308.149483 
L 179.636364 319.529287 
" style="fill:none;stroke:#000000;"/>
    <path clip-path="url(#p3bde2c17d7)" d="M 254.484848 308.149483 
L 229.535354 319.529287 
" style="fill:none;stroke:#000000;"/>
    <path clip-path="url(#p3bde2c17d7)" d="M 254.484848 308.149483 
L 279.434343 319.529287 
" style="fill:none;stroke:#000000;"/>
    <path clip-path="url(#p3bde2c17d7)" d="M 254.484848 308.149483 
L 329.333333 319.529287 
" style="fill:none;stroke:#000000;"/>
    <path clip-path="url(#p3bde2c17d7)" d="M 254.484848 308.149483 
L 379.232323 319.529287 
" style="fill:none;stroke:#000000;"/>
    <path clip-path="url(#p3bde2c17d7)" d="M 479.030303 308.149483 
L 429.131313 319.529287 
" style="fill:none;stroke:#000000;"/>
    <path clip-path="url(#p3bde2c17d7)" d="M 479.030303 308.149483 
L 479.030303 319.529287 
" style="fill:none;stroke:#000000;"/>
    <path clip-path="url(#p3bde2c17d7)" d="M 479.030303 308.149483 
L 528.929293 319.529287 
" style="fill:none;stroke:#000000;"/>
    <path clip-path="url(#p3bde2c17d7)" d="M 578.828283 319.529287 
L 578.828283 330.909091 
" style="fill:none;stroke:#000000;"/>
    <path clip-path="url(#p3bde2c17d7)" d="M 628.727273 319.529287 
L 628.727273 330.909091 
" style="fill:none;stroke:#000000;"/>
    <path clip-path="url(#p3bde2c17d7)" d="M 29.939394 36.856892 
L 29.939394 57.086014 
" style="fill:none;stroke:#000000;"/>
    <path clip-path="url(#p3bde2c17d7)" d="M 129.737374 319.529287 
L 129.737374 330.909091 
" style="fill:none;stroke:#000000;"/>
    <path clip-path="url(#p3bde2c17d7)" d="M 179.636364 319.529287 
L 179.636364 330.909091 
" style="fill:none;stroke:#000000;"/>
    <path clip-path="url(#p3bde2c17d7)" d="M 229.535354 319.529287 
L 229.535354 330.909091 
" style="fill:none;stroke:#000000;"/>
    <path clip-path="url(#p3bde2c17d7)" d="M 279.434343 319.529287 
L 279.434343 330.909091 
" style="fill:none;stroke:#000000;"/>
    <path clip-path="url(#p3bde2c17d7)" d="M 329.333333 319.529287 
L 329.333333 330.909091 
" style="fill:none;stroke:#000000;"/>
    <path clip-path="url(#p3bde2c17d7)" d="M 379.232323 319.529287 
L 379.232323 330.909091 
" style="fill:none;stroke:#000000;"/>
    <path clip-path="url(#p3bde2c17d7)" d="M 429.131313 319.529287 
L 429.131313 330.909091 
" style="fill:none;stroke:#000000;"/>
    <path clip-path="url(#p3bde2c17d7)" d="M 479.030303 319.529287 
L 479.030303 330.909091 
" style="fill:none;stroke:#000000;"/>
    <path clip-path="url(#p3bde2c17d7)" d="M 528.929293 319.529287 
L 528.929293 330.909091 
" style="fill:none;stroke:#000000;"/>
    <path clip-path="url(#p3bde2c17d7)" d="M 29.939394 57.086014 
L 29.939394 76.494872 
" style="fill:none;stroke:#000000;"/>
    <path clip-path="url(#p3bde2c17d7)" d="M 29.939394 76.494872 
L 29.939394 95.130655 
" style="fill:none;stroke:#000000;"/>
    <path clip-path="url(#p3bde2c17d7)" d="M 29.939394 95.130655 
L 29.939394 113.038025 
" style="fill:none;stroke:#000000;"/>
    <path clip-path="url(#p3bde2c17d7)" d="M 29.939394 113.038025 
L 29.939394 130.259333 
" style="fill:none;stroke:#000000;"/>
    <path clip-path="url(#p3bde2c17d7)" d="M 29.939394 130.259333 
L 29.939394 146.834818 
" style="fill:none;stroke:#000000;"/>
    <path clip-path="url(#p3bde2c17d7)" d="M 29.939394 146.834818 
L 29.939394 162.802811 
" style="fill:none;stroke:#000000;"/>
    <path clip-path="url(#p3bde2c17d7)" d="M 29.939394 162.802811 
L 29.939394 178.199939 
" style="fill:none;stroke:#000000;"/>
    <path clip-path="url(#p3bde2c17d7)" d="M 29.939394 178.199939 
L 29.939394 193.061333 
" style="fill:none;stroke:#000000;"/>
    <path clip-path="url(#p3bde2c17d7)" d="M 29.939394 193.061333 
L 29.939394 207.420855 
" style="fill:none;stroke:#000000;"/>
    <path clip-path="url(#p3bde2c17d7)" d="M 29.939394 207.420855 
L 29.939394 221.311348 
" style="fill:none;stroke:#000000;"/>
    <path clip-path="url(#p3bde2c17d7)" d="M 29.939394 221.311348 
L 29.939394 234.764925 
" style="fill:none;stroke:#000000;"/>
    <path clip-path="url(#p3bde2c17d7)" d="M 29.939394 234.764925 
L 29.939394 247.813332 
" style="fill:none;stroke:#000000;"/>
    <path clip-path="url(#p3bde2c17d7)" d="M 29.939394 247.813332 
L 29.939394 260.488424 
" style="fill:none;stroke:#000000;"/>
    <path clip-path="url(#p3bde2c17d7)" d="M 29.939394 260.488424 
L 29.939394 272.822845 
" style="fill:none;stroke:#000000;"/>
    <path clip-path="url(#p3bde2c17d7)" d="M 29.939394 272.822845 
L 29.939394 284.85109 
" style="fill:none;stroke:#000000;"/>
    <path clip-path="url(#p3bde2c17d7)" d="M 29.939394 284.85109 
L 29.939394 296.611374 
" style="fill:none;stroke:#000000;"/>
    <path clip-path="url(#p3bde2c17d7)" d="M 29.939394 296.611374 
L 29.939394 308.149483 
" style="fill:none;stroke:#000000;"/>
    <path clip-path="url(#p3bde2c17d7)" d="M 29.939394 308.149483 
L 29.939394 319.529287 
" style="fill:none;stroke:#000000;"/>
    <path clip-path="url(#p3bde2c17d7)" d="M 29.939394 319.529287 
L 29.939394 330.909091 
" style="fill:none;stroke:#000000;"/>
   </g>
   <g id="text_1">
    <g id="patch_2">
     <path clip-path="url(#p3bde2c17d7)" d="M 192.307556 173.164201 
L 194.985543 169.422559 
Q 196.382374 167.470928 194.430743 166.074097 
L 188.134701 161.567862 
Q 186.18307 160.171031 184.786239 162.122662 
L 182.108252 165.864304 
Q 180.711421 167.815935 182.663052 169.212766 
L 188.959094 173.719001 
Q 190.910725 175.115832 192.307556 173.164201 
z
" style="fill:#ffffff;stroke:#ffffff;stroke-linejoin:miter;"/>
    </g>
    <g clip-path="url(#p3bde2c17d7)">
     <!-- F -->
     <g transform="translate(189.002998 170.799046)rotate(-54.407752)scale(0.08 -0.08)">
      <defs>
       <path d="M 9.8125 72.90625 
L 51.703125 72.90625 
L 51.703125 64.59375 
L 19.671875 64.59375 
L 19.671875 43.109375 
L 48.578125 43.109375 
L 48.578125 34.8125 
L 19.671875 34.8125 
L 19.671875 0 
L 9.8125 0 
z
" id="DejaVuSans-70"/>
      </defs>
      <use xlink:href="#DejaVuSans-70"/>
     </g>
    </g>
   </g>
   <g id="text_2">
    <g id="patch_3">
     <path clip-path="url(#p3bde2c17d7)" d="M 281.679305 165.568655 
L 282.471383 160.15378 
Q 282.818754 157.779052 280.444026 157.431681 
L 272.783054 156.311048 
Q 270.408326 155.963677 270.060955 158.338405 
L 269.268877 163.753279 
Q 268.921506 166.128008 271.296234 166.475378 
L 278.957206 167.596012 
Q 281.331934 167.943383 281.679305 165.568655 
z
" style="fill:#ffffff;stroke:#ffffff;stroke-linejoin:miter;"/>
    </g>
    <g clip-path="url(#p3bde2c17d7)">
     <!-- A -->
     <g transform="translate(277.658346 164.980476)rotate(-81.677898)scale(0.08 -0.08)">
      <defs>
       <path d="M 34.1875 63.1875 
L 20.796875 26.90625 
L 47.609375 26.90625 
z
M 28.609375 72.90625 
L 39.796875 72.90625 
L 67.578125 0 
L 57.328125 0 
L 50.6875 18.703125 
L 17.828125 18.703125 
L 11.1875 0 
L 0.78125 0 
z
" id="DejaVuSans-65"/>
      </defs>
      <use xlink:href="#DejaVuSans-65"/>
     </g>
    </g>
   </g>
   <g id="text_3">
    <g id="patch_4">
     <path clip-path="url(#p3bde2c17d7)" d="M 381.37226 162.940776 
L 384.261583 167.588363 
Q 385.528714 169.626593 387.566944 168.359462 
L 394.142356 164.271644 
Q 396.180585 163.004512 394.913454 160.966283 
L 392.024131 156.318696 
Q 390.757 154.280466 388.718771 155.547598 
L 382.143358 159.635416 
Q 380.105129 160.902547 381.37226 162.940776 
z
" style="fill:#ffffff;stroke:#ffffff;stroke-linejoin:miter;"/>
    </g>
    <g clip-path="url(#p3bde2c17d7)">
     <!-- A -->
     <g transform="translate(384.823449 160.795233)rotate(-301.868488)scale(0.08 -0.08)">
      <use xlink:href="#DejaVuSans-65"/>
     </g>
    </g>
   </g>
   <g id="text_4">
    <g id="patch_5">
     <path clip-path="url(#p3bde2c17d7)" d="M 431.452417 169.759619 
L 435.432655 174.053654 
Q 437.064179 175.813805 438.82433 174.182281 
L 444.502649 168.918918 
Q 446.2628 167.287394 444.631277 165.527244 
L 440.651039 161.233209 
Q 439.019515 159.473058 437.259364 161.104582 
L 431.581045 166.367945 
Q 429.820894 167.999469 431.452417 169.759619 
z
" style="fill:#ffffff;stroke:#ffffff;stroke-linejoin:miter;"/>
    </g>
    <g clip-path="url(#p3bde2c17d7)">
     <!-- U -->
     <g transform="translate(434.432756 166.997076)rotate(-312.828133)scale(0.08 -0.08)">
      <defs>
       <path d="M 8.6875 72.90625 
L 18.609375 72.90625 
L 18.609375 28.609375 
Q 18.609375 16.890625 22.84375 11.734375 
Q 27.09375 6.59375 36.625 6.59375 
Q 46.09375 6.59375 50.34375 11.734375 
Q 54.59375 16.890625 54.59375 28.609375 
L 54.59375 72.90625 
L 64.5 72.90625 
L 64.5 27.390625 
Q 64.5 13.140625 57.4375 5.859375 
Q 50.390625 -1.421875 36.625 -1.421875 
Q 22.796875 -1.421875 15.734375 5.859375 
Q 8.6875 13.140625 8.6875 27.390625 
z
" id="DejaVuSans-85"/>
      </defs>
      <use xlink:href="#DejaVuSans-85"/>
     </g>
    </g>
   </g>
   <g id="text_5">
    <g id="patch_6">
     <path clip-path="url(#p3bde2c17d7)" d="M 456.596021 170.288938 
L 460.912561 174.244757 
Q 462.681937 175.866272 464.303452 174.096896 
L 469.534524 168.388815 
Q 471.156039 166.619439 469.386663 164.997925 
L 465.070123 161.042106 
Q 463.300747 159.420591 461.679232 161.189967 
L 456.44816 166.898048 
Q 454.826645 168.667424 456.596021 170.288938 
z
" style="fill:#ffffff;stroke:#ffffff;stroke-linejoin:miter;"/>
    </g>
    <g clip-path="url(#p3bde2c17d7)">
     <!-- U -->
     <g transform="translate(459.341617 167.292979)rotate(-317.496833)scale(0.08 -0.08)">
      <use xlink:href="#DejaVuSans-85"/>
     </g>
    </g>
   </g>
   <g id="text_6">
    <g id="patch_7">
     <path clip-path="url(#p3bde2c17d7)" d="M 161.686462 32.748819 
L 166.495256 32.36926 
Q 168.887815 32.180415 168.69897 29.787856 
L 168.089747 22.069362 
Q 167.900902 19.676803 165.508343 19.865648 
L 160.699549 20.245208 
Q 158.30699 20.434053 158.495836 22.826612 
L 159.105058 30.545106 
Q 159.293903 32.937665 161.686462 32.748819 
z
" style="fill:#ffffff;stroke:#ffffff;stroke-linejoin:miter;"/>
    </g>
    <g clip-path="url(#p3bde2c17d7)">
     <!-- P -->
     <g transform="translate(161.366704 28.697669)rotate(-4.513013)scale(0.08 -0.08)">
      <defs>
       <path d="M 19.671875 64.796875 
L 19.671875 37.40625 
L 32.078125 37.40625 
Q 38.96875 37.40625 42.71875 40.96875 
Q 46.484375 44.53125 46.484375 51.125 
Q 46.484375 57.671875 42.71875 61.234375 
Q 38.96875 64.796875 32.078125 64.796875 
z
M 9.8125 72.90625 
L 32.078125 72.90625 
Q 44.34375 72.90625 50.609375 67.359375 
Q 56.890625 61.8125 56.890625 51.125 
Q 56.890625 40.328125 50.609375 34.8125 
Q 44.34375 29.296875 32.078125 29.296875 
L 19.671875 29.296875 
L 19.671875 0 
L 9.8125 0 
z
" id="DejaVuSans-80"/>
      </defs>
      <use xlink:href="#DejaVuSans-80"/>
     </g>
    </g>
   </g>
   <g id="text_7">
    <g id="patch_8">
     <path clip-path="url(#p3bde2c17d7)" d="M 166.497707 173.840517 
L 170.11297 169.732217 
Q 171.698466 167.930495 169.896745 166.344999 
L 164.084316 161.230121 
Q 162.282595 159.644624 160.697098 161.446346 
L 157.081835 165.554646 
Q 155.496339 167.356368 157.29806 168.941864 
L 163.110489 174.056742 
Q 164.912211 175.642239 166.497707 173.840517 
z
" style="fill:#ffffff;stroke:#ffffff;stroke-linejoin:miter;"/>
    </g>
    <g clip-path="url(#p3bde2c17d7)">
     <!-- A -->
     <g transform="translate(163.44698 171.155908)rotate(-48.652551)scale(0.08 -0.08)">
      <use xlink:href="#DejaVuSans-65"/>
     </g>
    </g>
   </g>
   <g id="text_8">
    <g id="patch_9">
     <path clip-path="url(#p3bde2c17d7)" d="M 73.567134 308.315439 
L 73.567134 342.122939 
Q 73.567134 344.522939 75.967134 344.522939 
L 83.709634 344.522939 
Q 86.109634 344.522939 86.109634 342.122939 
L 86.109634 308.315439 
Q 86.109634 305.915439 83.709634 305.915439 
L 75.967134 305.915439 
Q 73.567134 305.915439 73.567134 308.315439 
z
" style="fill:#ffffff;stroke:#ffffff;stroke-linejoin:miter;"/>
    </g>
    <g clip-path="url(#p3bde2c17d7)">
     <!-- Terminal -->
     <g transform="translate(77.630884 308.315439)rotate(-270)scale(0.08 -0.08)">
      <defs>
       <path d="M -0.296875 72.90625 
L 61.375 72.90625 
L 61.375 64.59375 
L 35.5 64.59375 
L 35.5 0 
L 25.59375 0 
L 25.59375 64.59375 
L -0.296875 64.59375 
z
" id="DejaVuSans-84"/>
       <path d="M 56.203125 29.59375 
L 56.203125 25.203125 
L 14.890625 25.203125 
Q 15.484375 15.921875 20.484375 11.0625 
Q 25.484375 6.203125 34.421875 6.203125 
Q 39.59375 6.203125 44.453125 7.46875 
Q 49.3125 8.734375 54.109375 11.28125 
L 54.109375 2.78125 
Q 49.265625 0.734375 44.1875 -0.34375 
Q 39.109375 -1.421875 33.890625 -1.421875 
Q 20.796875 -1.421875 13.15625 6.1875 
Q 5.515625 13.8125 5.515625 26.8125 
Q 5.515625 40.234375 12.765625 48.109375 
Q 20.015625 56 32.328125 56 
Q 43.359375 56 49.78125 48.890625 
Q 56.203125 41.796875 56.203125 29.59375 
z
M 47.21875 32.234375 
Q 47.125 39.59375 43.09375 43.984375 
Q 39.0625 48.390625 32.421875 48.390625 
Q 24.90625 48.390625 20.390625 44.140625 
Q 15.875 39.890625 15.1875 32.171875 
z
" id="DejaVuSans-101"/>
       <path d="M 41.109375 46.296875 
Q 39.59375 47.171875 37.8125 47.578125 
Q 36.03125 48 33.890625 48 
Q 26.265625 48 22.1875 43.046875 
Q 18.109375 38.09375 18.109375 28.8125 
L 18.109375 0 
L 9.078125 0 
L 9.078125 54.6875 
L 18.109375 54.6875 
L 18.109375 46.1875 
Q 20.953125 51.171875 25.484375 53.578125 
Q 30.03125 56 36.53125 56 
Q 37.453125 56 38.578125 55.875 
Q 39.703125 55.765625 41.0625 55.515625 
z
" id="DejaVuSans-114"/>
       <path d="M 52 44.1875 
Q 55.375 50.25 60.0625 53.125 
Q 64.75 56 71.09375 56 
Q 79.640625 56 84.28125 50.015625 
Q 88.921875 44.046875 88.921875 33.015625 
L 88.921875 0 
L 79.890625 0 
L 79.890625 32.71875 
Q 79.890625 40.578125 77.09375 44.375 
Q 74.3125 48.1875 68.609375 48.1875 
Q 61.625 48.1875 57.5625 43.546875 
Q 53.515625 38.921875 53.515625 30.90625 
L 53.515625 0 
L 44.484375 0 
L 44.484375 32.71875 
Q 44.484375 40.625 41.703125 44.40625 
Q 38.921875 48.1875 33.109375 48.1875 
Q 26.21875 48.1875 22.15625 43.53125 
Q 18.109375 38.875 18.109375 30.90625 
L 18.109375 0 
L 9.078125 0 
L 9.078125 54.6875 
L 18.109375 54.6875 
L 18.109375 46.1875 
Q 21.1875 51.21875 25.484375 53.609375 
Q 29.78125 56 35.6875 56 
Q 41.65625 56 45.828125 52.96875 
Q 50 49.953125 52 44.1875 
z
" id="DejaVuSans-109"/>
       <path d="M 9.421875 54.6875 
L 18.40625 54.6875 
L 18.40625 0 
L 9.421875 0 
z
M 9.421875 75.984375 
L 18.40625 75.984375 
L 18.40625 64.59375 
L 9.421875 64.59375 
z
" id="DejaVuSans-105"/>
       <path d="M 54.890625 33.015625 
L 54.890625 0 
L 45.90625 0 
L 45.90625 32.71875 
Q 45.90625 40.484375 42.875 44.328125 
Q 39.84375 48.1875 33.796875 48.1875 
Q 26.515625 48.1875 22.3125 43.546875 
Q 18.109375 38.921875 18.109375 30.90625 
L 18.109375 0 
L 9.078125 0 
L 9.078125 54.6875 
L 18.109375 54.6875 
L 18.109375 46.1875 
Q 21.34375 51.125 25.703125 53.5625 
Q 30.078125 56 35.796875 56 
Q 45.21875 56 50.046875 50.171875 
Q 54.890625 44.34375 54.890625 33.015625 
z
" id="DejaVuSans-110"/>
       <path d="M 34.28125 27.484375 
Q 23.390625 27.484375 19.1875 25 
Q 14.984375 22.515625 14.984375 16.5 
Q 14.984375 11.71875 18.140625 8.90625 
Q 21.296875 6.109375 26.703125 6.109375 
Q 34.1875 6.109375 38.703125 11.40625 
Q 43.21875 16.703125 43.21875 25.484375 
L 43.21875 27.484375 
z
M 52.203125 31.203125 
L 52.203125 0 
L 43.21875 0 
L 43.21875 8.296875 
Q 40.140625 3.328125 35.546875 0.953125 
Q 30.953125 -1.421875 24.3125 -1.421875 
Q 15.921875 -1.421875 10.953125 3.296875 
Q 6 8.015625 6 15.921875 
Q 6 25.140625 12.171875 29.828125 
Q 18.359375 34.515625 30.609375 34.515625 
L 43.21875 34.515625 
L 43.21875 35.40625 
Q 43.21875 41.609375 39.140625 45 
Q 35.0625 48.390625 27.6875 48.390625 
Q 23 48.390625 18.546875 47.265625 
Q 14.109375 46.140625 10.015625 43.890625 
L 10.015625 52.203125 
Q 14.9375 54.109375 19.578125 55.046875 
Q 24.21875 56 28.609375 56 
Q 40.484375 56 46.34375 49.84375 
Q 52.203125 43.703125 52.203125 31.203125 
z
" id="DejaVuSans-97"/>
       <path d="M 9.421875 75.984375 
L 18.40625 75.984375 
L 18.40625 0 
L 9.421875 0 
z
" id="DejaVuSans-108"/>
      </defs>
      <use xlink:href="#DejaVuSans-84"/>
      <use x="44.083984" xlink:href="#DejaVuSans-101"/>
      <use x="105.607422" xlink:href="#DejaVuSans-114"/>
      <use x="144.970703" xlink:href="#DejaVuSans-109"/>
      <use x="242.382812" xlink:href="#DejaVuSans-105"/>
      <use x="270.166016" xlink:href="#DejaVuSans-110"/>
      <use x="333.544922" xlink:href="#DejaVuSans-97"/>
      <use x="394.824219" xlink:href="#DejaVuSans-108"/>
     </g>
    </g>
   </g>
   <g id="text_9">
    <g id="patch_10">
     <path clip-path="url(#p3bde2c17d7)" d="M 190.163777 320.314316 
L 195.197875 319.855092 
Q 197.587951 319.637062 197.369922 317.246986 
L 196.66655 309.536502 
Q 196.448521 307.146426 194.058445 307.364455 
L 189.024347 307.823679 
Q 186.634271 308.041708 186.852301 310.431784 
L 187.555672 318.142269 
Q 187.773701 320.532345 190.163777 320.314316 
z
" style="fill:#ffffff;stroke:#ffffff;stroke-linejoin:miter;"/>
    </g>
    <g clip-path="url(#p3bde2c17d7)">
     <!-- E -->
     <g transform="translate(189.794604 316.267369)rotate(-5.212251)scale(0.08 -0.08)">
      <defs>
       <path d="M 9.8125 72.90625 
L 55.90625 72.90625 
L 55.90625 64.59375 
L 19.671875 64.59375 
L 19.671875 43.015625 
L 54.390625 43.015625 
L 54.390625 34.71875 
L 19.671875 34.71875 
L 19.671875 8.296875 
L 56.78125 8.296875 
L 56.78125 0 
L 9.8125 0 
z
" id="DejaVuSans-69"/>
      </defs>
      <use xlink:href="#DejaVuSans-69"/>
     </g>
    </g>
   </g>
   <g id="text_10">
    <g id="patch_11">
     <path clip-path="url(#p3bde2c17d7)" d="M 215.504456 320.419296 
L 220.502026 319.659477 
Q 222.874759 319.298731 222.514014 316.925998 
L 221.350234 309.271462 
Q 220.989489 306.898729 218.616756 307.259474 
L 213.619186 308.019294 
Q 211.246453 308.380039 211.607199 310.752772 
L 212.770978 318.407309 
Q 213.131723 320.780042 215.504456 320.419296 
z
" style="fill:#ffffff;stroke:#ffffff;stroke-linejoin:miter;"/>
    </g>
    <g clip-path="url(#p3bde2c17d7)">
     <!-- E -->
     <g transform="translate(214.893632 316.401715)rotate(-8.644923)scale(0.08 -0.08)">
      <use xlink:href="#DejaVuSans-69"/>
     </g>
    </g>
   </g>
   <g id="text_11">
    <g id="patch_12">
     <path clip-path="url(#p3bde2c17d7)" d="M 242.071312 320.704251 
L 247.15384 318.386041 
Q 249.337428 317.390077 248.341464 315.206489 
L 245.128442 308.162144 
Q 244.132478 305.978556 241.94889 306.97452 
L 236.866362 309.29273 
Q 234.682774 310.288694 235.678738 312.472282 
L 238.89176 319.516627 
Q 239.887724 321.700215 242.071312 320.704251 
z
" style="fill:#ffffff;stroke:#ffffff;stroke-linejoin:miter;"/>
    </g>
    <g clip-path="url(#p3bde2c17d7)">
     <!-- C -->
     <g transform="translate(240.384916 317.006936)rotate(-24.518373)scale(0.08 -0.08)">
      <defs>
       <path d="M 64.40625 67.28125 
L 64.40625 56.890625 
Q 59.421875 61.53125 53.78125 63.8125 
Q 48.140625 66.109375 41.796875 66.109375 
Q 29.296875 66.109375 22.65625 58.46875 
Q 16.015625 50.828125 16.015625 36.375 
Q 16.015625 21.96875 22.65625 14.328125 
Q 29.296875 6.6875 41.796875 6.6875 
Q 48.140625 6.6875 53.78125 8.984375 
Q 59.421875 11.28125 64.40625 15.921875 
L 64.40625 5.609375 
Q 59.234375 2.09375 53.4375 0.328125 
Q 47.65625 -1.421875 41.21875 -1.421875 
Q 24.65625 -1.421875 15.125 8.703125 
Q 5.609375 18.84375 5.609375 36.375 
Q 5.609375 53.953125 15.125 64.078125 
Q 24.65625 74.21875 41.21875 74.21875 
Q 47.75 74.21875 53.53125 72.484375 
Q 59.328125 70.75 64.40625 67.28125 
z
" id="DejaVuSans-67"/>
      </defs>
      <use xlink:href="#DejaVuSans-67"/>
     </g>
    </g>
   </g>
   <g id="text_12">
    <g id="patch_13">
     <path clip-path="url(#p3bde2c17d7)" d="M 261.815857 318.386041 
L 266.898385 320.704251 
Q 269.081973 321.700215 270.077937 319.516627 
L 273.290959 312.472282 
Q 274.286923 310.288694 272.103335 309.29273 
L 267.020807 306.97452 
Q 264.837219 305.978556 263.841255 308.162144 
L 260.628233 315.206489 
Q 259.632269 317.390077 261.815857 318.386041 
z
" style="fill:#ffffff;stroke:#ffffff;stroke-linejoin:miter;"/>
    </g>
    <g clip-path="url(#p3bde2c17d7)">
     <!-- C -->
     <g transform="translate(263.502253 314.688726)rotate(-335.481627)scale(0.08 -0.08)">
      <use xlink:href="#DejaVuSans-67"/>
     </g>
    </g>
   </g>
   <g id="text_13">
    <g id="patch_14">
     <path clip-path="url(#p3bde2c17d7)" d="M 288.467671 319.659477 
L 293.465241 320.419296 
Q 295.837974 320.780042 296.198719 318.407309 
L 297.362498 310.752772 
Q 297.723244 308.380039 295.350511 308.019294 
L 290.352941 307.259474 
Q 287.980208 306.898729 287.619463 309.271462 
L 286.455683 316.925998 
Q 286.094938 319.298731 288.467671 319.659477 
z
" style="fill:#ffffff;stroke:#ffffff;stroke-linejoin:miter;"/>
    </g>
    <g clip-path="url(#p3bde2c17d7)">
     <!-- E -->
     <g transform="translate(289.078496 315.641896)rotate(-351.355077)scale(0.08 -0.08)">
      <use xlink:href="#DejaVuSans-69"/>
     </g>
    </g>
   </g>
   <g id="text_14">
    <g id="patch_15">
     <path clip-path="url(#p3bde2c17d7)" d="M 313.507296 319.830961 
L 319.070446 320.338447 
Q 321.460522 320.556476 321.678552 318.1664 
L 322.381923 310.455915 
Q 322.599952 308.065839 320.209876 307.84781 
L 314.646725 307.340324 
Q 312.256649 307.122295 312.03862 309.512371 
L 311.335249 317.222856 
Q 311.11722 319.612932 313.507296 319.830961 
z
" style="fill:#ffffff;stroke:#ffffff;stroke-linejoin:miter;"/>
    </g>
    <g clip-path="url(#p3bde2c17d7)">
     <!-- C -->
     <g transform="translate(313.876469 315.784014)rotate(-354.787749)scale(0.08 -0.08)">
      <use xlink:href="#DejaVuSans-67"/>
     </g>
    </g>
   </g>
   <g id="text_15">
    <g id="patch_16">
     <path clip-path="url(#p3bde2c17d7)" d="M 452.765408 320.571638 
L 458.185008 319.335661 
Q 460.524929 318.802026 459.991294 316.462104 
L 458.269765 308.91342 
Q 457.73613 306.573498 455.396209 307.107133 
L 449.976609 308.343109 
Q 447.636687 308.876744 448.170322 311.216666 
L 449.891851 318.765351 
Q 450.425486 321.105273 452.765408 320.571638 
z
" style="fill:#ffffff;stroke:#ffffff;stroke-linejoin:miter;"/>
    </g>
    <g clip-path="url(#p3bde2c17d7)">
     <!-- R -->
     <g transform="translate(451.861841 316.609614)rotate(-12.846976)scale(0.08 -0.08)">
      <defs>
       <path d="M 44.390625 34.1875 
Q 47.5625 33.109375 50.5625 29.59375 
Q 53.5625 26.078125 56.59375 19.921875 
L 66.609375 0 
L 56 0 
L 46.6875 18.703125 
Q 43.0625 26.03125 39.671875 28.421875 
Q 36.28125 30.8125 30.421875 30.8125 
L 19.671875 30.8125 
L 19.671875 0 
L 9.8125 0 
L 9.8125 72.90625 
L 32.078125 72.90625 
Q 44.578125 72.90625 50.734375 67.671875 
Q 56.890625 62.453125 56.890625 51.90625 
Q 56.890625 45.015625 53.6875 40.46875 
Q 50.484375 35.9375 44.390625 34.1875 
z
M 19.671875 64.796875 
L 19.671875 38.921875 
L 32.078125 38.921875 
Q 39.203125 38.921875 42.84375 42.21875 
Q 46.484375 45.515625 46.484375 51.90625 
Q 46.484375 58.296875 42.84375 61.546875 
Q 39.203125 64.796875 32.078125 64.796875 
z
" id="DejaVuSans-82"/>
      </defs>
      <use xlink:href="#DejaVuSans-82"/>
     </g>
    </g>
   </g>
   <g id="text_16">
    <g id="patch_17">
     <path clip-path="url(#p3bde2c17d7)" d="M 472.759053 311.311885 
L 472.759053 316.366885 
Q 472.759053 318.766885 475.159053 318.766885 
L 482.901553 318.766885 
Q 485.301553 318.766885 485.301553 316.366885 
L 485.301553 311.311885 
Q 485.301553 308.911885 482.901553 308.911885 
L 475.159053 308.911885 
Q 472.759053 308.911885 472.759053 311.311885 
z
" style="fill:#ffffff;stroke:#ffffff;stroke-linejoin:miter;"/>
    </g>
    <g clip-path="url(#p3bde2c17d7)">
     <!-- E -->
     <g transform="translate(476.822803 311.311885)rotate(-270)scale(0.08 -0.08)">
      <use xlink:href="#DejaVuSans-69"/>
     </g>
    </g>
   </g>
   <g id="text_17">
    <g id="patch_18">
     <path clip-path="url(#p3bde2c17d7)" d="M 500.121168 319.391665 
L 505.049629 320.515634 
Q 507.38955 321.049269 507.923185 318.709347 
L 509.644714 311.160662 
Q 510.178349 308.820741 507.838428 308.287106 
L 502.909967 307.163137 
Q 500.570046 306.629502 500.036411 308.969423 
L 498.314882 316.518108 
Q 497.781247 318.85803 500.121168 319.391665 
z
" style="fill:#ffffff;stroke:#ffffff;stroke-linejoin:miter;"/>
    </g>
    <g clip-path="url(#p3bde2c17d7)">
     <!-- E -->
     <g transform="translate(501.024735 315.429641)rotate(-347.153024)scale(0.08 -0.08)">
      <use xlink:href="#DejaVuSans-69"/>
     </g>
    </g>
   </g>
   <g id="text_18">
    <g id="patch_19">
     <path clip-path="url(#p3bde2c17d7)" d="M 572.557033 308.315439 
L 572.557033 342.122939 
Q 572.557033 344.522939 574.957033 344.522939 
L 582.699533 344.522939 
Q 585.099533 344.522939 585.099533 342.122939 
L 585.099533 308.315439 
Q 585.099533 305.915439 582.699533 305.915439 
L 574.957033 305.915439 
Q 572.557033 305.915439 572.557033 308.315439 
z
" style="fill:#ffffff;stroke:#ffffff;stroke-linejoin:miter;"/>
    </g>
    <g clip-path="url(#p3bde2c17d7)">
     <!-- Terminal -->
     <g transform="translate(576.620783 308.315439)rotate(-270)scale(0.08 -0.08)">
      <use xlink:href="#DejaVuSans-84"/>
      <use x="44.083984" xlink:href="#DejaVuSans-101"/>
      <use x="105.607422" xlink:href="#DejaVuSans-114"/>
      <use x="144.970703" xlink:href="#DejaVuSans-109"/>
      <use x="242.382812" xlink:href="#DejaVuSans-105"/>
      <use x="270.166016" xlink:href="#DejaVuSans-110"/>
      <use x="333.544922" xlink:href="#DejaVuSans-97"/>
      <use x="394.824219" xlink:href="#DejaVuSans-108"/>
     </g>
    </g>
   </g>
   <g id="text_19">
    <g id="patch_20">
     <path clip-path="url(#p3bde2c17d7)" d="M 622.456023 308.315439 
L 622.456023 342.122939 
Q 622.456023 344.522939 624.856023 344.522939 
L 632.598523 344.522939 
Q 634.998523 344.522939 634.998523 342.122939 
L 634.998523 308.315439 
Q 634.998523 305.915439 632.598523 305.915439 
L 624.856023 305.915439 
Q 622.456023 305.915439 622.456023 308.315439 
z
" style="fill:#ffffff;stroke:#ffffff;stroke-linejoin:miter;"/>
    </g>
    <g clip-path="url(#p3bde2c17d7)">
     <!-- Terminal -->
     <g transform="translate(626.519773 308.315439)rotate(-270)scale(0.08 -0.08)">
      <use xlink:href="#DejaVuSans-84"/>
      <use x="44.083984" xlink:href="#DejaVuSans-101"/>
      <use x="105.607422" xlink:href="#DejaVuSans-114"/>
      <use x="144.970703" xlink:href="#DejaVuSans-109"/>
      <use x="242.382812" xlink:href="#DejaVuSans-105"/>
      <use x="270.166016" xlink:href="#DejaVuSans-110"/>
      <use x="333.544922" xlink:href="#DejaVuSans-97"/>
      <use x="394.824219" xlink:href="#DejaVuSans-108"/>
     </g>
    </g>
   </g>
   <g id="text_20">
    <g id="patch_21">
     <path clip-path="url(#p3bde2c17d7)" d="M 23.668144 44.559578 
L 23.668144 49.383328 
Q 23.668144 51.783328 26.068144 51.783328 
L 33.810644 51.783328 
Q 36.210644 51.783328 36.210644 49.383328 
L 36.210644 44.559578 
Q 36.210644 42.159578 33.810644 42.159578 
L 26.068144 42.159578 
Q 23.668144 42.159578 23.668144 44.559578 
z
" style="fill:#ffffff;stroke:#ffffff;stroke-linejoin:miter;"/>
    </g>
    <g clip-path="url(#p3bde2c17d7)">
     <!-- P -->
     <g transform="translate(27.731894 44.559578)rotate(-270)scale(0.08 -0.08)">
      <use xlink:href="#DejaVuSans-80"/>
     </g>
    </g>
   </g>
   <g id="text_21">
    <g id="patch_22">
     <path clip-path="url(#p3bde2c17d7)" d="M 123.466124 308.315439 
L 123.466124 342.122939 
Q 123.466124 344.522939 125.866124 344.522939 
L 133.608624 344.522939 
Q 136.008624 344.522939 136.008624 342.122939 
L 136.008624 308.315439 
Q 136.008624 305.915439 133.608624 305.915439 
L 125.866124 305.915439 
Q 123.466124 305.915439 123.466124 308.315439 
z
" style="fill:#ffffff;stroke:#ffffff;stroke-linejoin:miter;"/>
    </g>
    <g clip-path="url(#p3bde2c17d7)">
     <!-- Terminal -->
     <g transform="translate(127.529874 308.315439)rotate(-270)scale(0.08 -0.08)">
      <use xlink:href="#DejaVuSans-84"/>
      <use x="44.083984" xlink:href="#DejaVuSans-101"/>
      <use x="105.607422" xlink:href="#DejaVuSans-114"/>
      <use x="144.970703" xlink:href="#DejaVuSans-109"/>
      <use x="242.382812" xlink:href="#DejaVuSans-105"/>
      <use x="270.166016" xlink:href="#DejaVuSans-110"/>
      <use x="333.544922" xlink:href="#DejaVuSans-97"/>
      <use x="394.824219" xlink:href="#DejaVuSans-108"/>
     </g>
    </g>
   </g>
   <g id="text_22">
    <g id="patch_23">
     <path clip-path="url(#p3bde2c17d7)" d="M 173.365114 308.315439 
L 173.365114 342.122939 
Q 173.365114 344.522939 175.765114 344.522939 
L 183.507614 344.522939 
Q 185.907614 344.522939 185.907614 342.122939 
L 185.907614 308.315439 
Q 185.907614 305.915439 183.507614 305.915439 
L 175.765114 305.915439 
Q 173.365114 305.915439 173.365114 308.315439 
z
" style="fill:#ffffff;stroke:#ffffff;stroke-linejoin:miter;"/>
    </g>
    <g clip-path="url(#p3bde2c17d7)">
     <!-- Terminal -->
     <g transform="translate(177.428864 308.315439)rotate(-270)scale(0.08 -0.08)">
      <use xlink:href="#DejaVuSans-84"/>
      <use x="44.083984" xlink:href="#DejaVuSans-101"/>
      <use x="105.607422" xlink:href="#DejaVuSans-114"/>
      <use x="144.970703" xlink:href="#DejaVuSans-109"/>
      <use x="242.382812" xlink:href="#DejaVuSans-105"/>
      <use x="270.166016" xlink:href="#DejaVuSans-110"/>
      <use x="333.544922" xlink:href="#DejaVuSans-97"/>
      <use x="394.824219" xlink:href="#DejaVuSans-108"/>
     </g>
    </g>
   </g>
   <g id="text_23">
    <g id="patch_24">
     <path clip-path="url(#p3bde2c17d7)" d="M 223.264104 308.315439 
L 223.264104 342.122939 
Q 223.264104 344.522939 225.664104 344.522939 
L 233.406604 344.522939 
Q 235.806604 344.522939 235.806604 342.122939 
L 235.806604 308.315439 
Q 235.806604 305.915439 233.406604 305.915439 
L 225.664104 305.915439 
Q 223.264104 305.915439 223.264104 308.315439 
z
" style="fill:#ffffff;stroke:#ffffff;stroke-linejoin:miter;"/>
    </g>
    <g clip-path="url(#p3bde2c17d7)">
     <!-- Terminal -->
     <g transform="translate(227.327854 308.315439)rotate(-270)scale(0.08 -0.08)">
      <use xlink:href="#DejaVuSans-84"/>
      <use x="44.083984" xlink:href="#DejaVuSans-101"/>
      <use x="105.607422" xlink:href="#DejaVuSans-114"/>
      <use x="144.970703" xlink:href="#DejaVuSans-109"/>
      <use x="242.382812" xlink:href="#DejaVuSans-105"/>
      <use x="270.166016" xlink:href="#DejaVuSans-110"/>
      <use x="333.544922" xlink:href="#DejaVuSans-97"/>
      <use x="394.824219" xlink:href="#DejaVuSans-108"/>
     </g>
    </g>
   </g>
   <g id="text_24">
    <g id="patch_25">
     <path clip-path="url(#p3bde2c17d7)" d="M 273.163093 308.315439 
L 273.163093 342.122939 
Q 273.163093 344.522939 275.563093 344.522939 
L 283.305593 344.522939 
Q 285.705593 344.522939 285.705593 342.122939 
L 285.705593 308.315439 
Q 285.705593 305.915439 283.305593 305.915439 
L 275.563093 305.915439 
Q 273.163093 305.915439 273.163093 308.315439 
z
" style="fill:#ffffff;stroke:#ffffff;stroke-linejoin:miter;"/>
    </g>
    <g clip-path="url(#p3bde2c17d7)">
     <!-- Terminal -->
     <g transform="translate(277.226843 308.315439)rotate(-270)scale(0.08 -0.08)">
      <use xlink:href="#DejaVuSans-84"/>
      <use x="44.083984" xlink:href="#DejaVuSans-101"/>
      <use x="105.607422" xlink:href="#DejaVuSans-114"/>
      <use x="144.970703" xlink:href="#DejaVuSans-109"/>
      <use x="242.382812" xlink:href="#DejaVuSans-105"/>
      <use x="270.166016" xlink:href="#DejaVuSans-110"/>
      <use x="333.544922" xlink:href="#DejaVuSans-97"/>
      <use x="394.824219" xlink:href="#DejaVuSans-108"/>
     </g>
    </g>
   </g>
   <g id="text_25">
    <g id="patch_26">
     <path clip-path="url(#p3bde2c17d7)" d="M 323.062083 308.315439 
L 323.062083 342.122939 
Q 323.062083 344.522939 325.462083 344.522939 
L 333.204583 344.522939 
Q 335.604583 344.522939 335.604583 342.122939 
L 335.604583 308.315439 
Q 335.604583 305.915439 333.204583 305.915439 
L 325.462083 305.915439 
Q 323.062083 305.915439 323.062083 308.315439 
z
" style="fill:#ffffff;stroke:#ffffff;stroke-linejoin:miter;"/>
    </g>
    <g clip-path="url(#p3bde2c17d7)">
     <!-- Terminal -->
     <g transform="translate(327.125833 308.315439)rotate(-270)scale(0.08 -0.08)">
      <use xlink:href="#DejaVuSans-84"/>
      <use x="44.083984" xlink:href="#DejaVuSans-101"/>
      <use x="105.607422" xlink:href="#DejaVuSans-114"/>
      <use x="144.970703" xlink:href="#DejaVuSans-109"/>
      <use x="242.382812" xlink:href="#DejaVuSans-105"/>
      <use x="270.166016" xlink:href="#DejaVuSans-110"/>
      <use x="333.544922" xlink:href="#DejaVuSans-97"/>
      <use x="394.824219" xlink:href="#DejaVuSans-108"/>
     </g>
    </g>
   </g>
   <g id="text_26">
    <g id="patch_27">
     <path clip-path="url(#p3bde2c17d7)" d="M 372.961073 308.315439 
L 372.961073 342.122939 
Q 372.961073 344.522939 375.361073 344.522939 
L 383.103573 344.522939 
Q 385.503573 344.522939 385.503573 342.122939 
L 385.503573 308.315439 
Q 385.503573 305.915439 383.103573 305.915439 
L 375.361073 305.915439 
Q 372.961073 305.915439 372.961073 308.315439 
z
" style="fill:#ffffff;stroke:#ffffff;stroke-linejoin:miter;"/>
    </g>
    <g clip-path="url(#p3bde2c17d7)">
     <!-- Terminal -->
     <g transform="translate(377.024823 308.315439)rotate(-270)scale(0.08 -0.08)">
      <use xlink:href="#DejaVuSans-84"/>
      <use x="44.083984" xlink:href="#DejaVuSans-101"/>
      <use x="105.607422" xlink:href="#DejaVuSans-114"/>
      <use x="144.970703" xlink:href="#DejaVuSans-109"/>
      <use x="242.382812" xlink:href="#DejaVuSans-105"/>
      <use x="270.166016" xlink:href="#DejaVuSans-110"/>
      <use x="333.544922" xlink:href="#DejaVuSans-97"/>
      <use x="394.824219" xlink:href="#DejaVuSans-108"/>
     </g>
    </g>
   </g>
   <g id="text_27">
    <g id="patch_28">
     <path clip-path="url(#p3bde2c17d7)" d="M 422.860063 308.315439 
L 422.860063 342.122939 
Q 422.860063 344.522939 425.260063 344.522939 
L 433.002563 344.522939 
Q 435.402563 344.522939 435.402563 342.122939 
L 435.402563 308.315439 
Q 435.402563 305.915439 433.002563 305.915439 
L 425.260063 305.915439 
Q 422.860063 305.915439 422.860063 308.315439 
z
" style="fill:#ffffff;stroke:#ffffff;stroke-linejoin:miter;"/>
    </g>
    <g clip-path="url(#p3bde2c17d7)">
     <!-- Terminal -->
     <g transform="translate(426.923813 308.315439)rotate(-270)scale(0.08 -0.08)">
      <use xlink:href="#DejaVuSans-84"/>
      <use x="44.083984" xlink:href="#DejaVuSans-101"/>
      <use x="105.607422" xlink:href="#DejaVuSans-114"/>
      <use x="144.970703" xlink:href="#DejaVuSans-109"/>
      <use x="242.382812" xlink:href="#DejaVuSans-105"/>
      <use x="270.166016" xlink:href="#DejaVuSans-110"/>
      <use x="333.544922" xlink:href="#DejaVuSans-97"/>
      <use x="394.824219" xlink:href="#DejaVuSans-108"/>
     </g>
    </g>
   </g>
   <g id="text_28">
    <g id="patch_29">
     <path clip-path="url(#p3bde2c17d7)" d="M 472.759053 308.315439 
L 472.759053 342.122939 
Q 472.759053 344.522939 475.159053 344.522939 
L 482.901553 344.522939 
Q 485.301553 344.522939 485.301553 342.122939 
L 485.301553 308.315439 
Q 485.301553 305.915439 482.901553 305.915439 
L 475.159053 305.915439 
Q 472.759053 305.915439 472.759053 308.315439 
z
" style="fill:#ffffff;stroke:#ffffff;stroke-linejoin:miter;"/>
    </g>
    <g clip-path="url(#p3bde2c17d7)">
     <!-- Terminal -->
     <g transform="translate(476.822803 308.315439)rotate(-270)scale(0.08 -0.08)">
      <use xlink:href="#DejaVuSans-84"/>
      <use x="44.083984" xlink:href="#DejaVuSans-101"/>
      <use x="105.607422" xlink:href="#DejaVuSans-114"/>
      <use x="144.970703" xlink:href="#DejaVuSans-109"/>
      <use x="242.382812" xlink:href="#DejaVuSans-105"/>
      <use x="270.166016" xlink:href="#DejaVuSans-110"/>
      <use x="333.544922" xlink:href="#DejaVuSans-97"/>
      <use x="394.824219" xlink:href="#DejaVuSans-108"/>
     </g>
    </g>
   </g>
   <g id="text_29">
    <g id="patch_30">
     <path clip-path="url(#p3bde2c17d7)" d="M 522.658043 308.315439 
L 522.658043 342.122939 
Q 522.658043 344.522939 525.058043 344.522939 
L 532.800543 344.522939 
Q 535.200543 344.522939 535.200543 342.122939 
L 535.200543 308.315439 
Q 535.200543 305.915439 532.800543 305.915439 
L 525.058043 305.915439 
Q 522.658043 305.915439 522.658043 308.315439 
z
" style="fill:#ffffff;stroke:#ffffff;stroke-linejoin:miter;"/>
    </g>
    <g clip-path="url(#p3bde2c17d7)">
     <!-- Terminal -->
     <g transform="translate(526.721793 308.315439)rotate(-270)scale(0.08 -0.08)">
      <use xlink:href="#DejaVuSans-84"/>
      <use x="44.083984" xlink:href="#DejaVuSans-101"/>
      <use x="105.607422" xlink:href="#DejaVuSans-114"/>
      <use x="144.970703" xlink:href="#DejaVuSans-109"/>
      <use x="242.382812" xlink:href="#DejaVuSans-105"/>
      <use x="270.166016" xlink:href="#DejaVuSans-110"/>
      <use x="333.544922" xlink:href="#DejaVuSans-97"/>
      <use x="394.824219" xlink:href="#DejaVuSans-108"/>
     </g>
    </g>
   </g>
   <g id="text_30">
    <g id="patch_31">
     <path clip-path="url(#p3bde2c17d7)" d="M 23.668144 64.378568 
L 23.668144 69.202318 
Q 23.668144 71.602318 26.068144 71.602318 
L 33.810644 71.602318 
Q 36.210644 71.602318 36.210644 69.202318 
L 36.210644 64.378568 
Q 36.210644 61.978568 33.810644 61.978568 
L 26.068144 61.978568 
Q 23.668144 61.978568 23.668144 64.378568 
z
" style="fill:#ffffff;stroke:#ffffff;stroke-linejoin:miter;"/>
    </g>
    <g clip-path="url(#p3bde2c17d7)">
     <!-- P -->
     <g transform="translate(27.731894 64.378568)rotate(-270)scale(0.08 -0.08)">
      <use xlink:href="#DejaVuSans-80"/>
     </g>
    </g>
   </g>
   <g id="text_31">
    <g id="patch_32">
     <path clip-path="url(#p3bde2c17d7)" d="M 23.668144 83.400888 
L 23.668144 88.224638 
Q 23.668144 90.624638 26.068144 90.624638 
L 33.810644 90.624638 
Q 36.210644 90.624638 36.210644 88.224638 
L 36.210644 83.400888 
Q 36.210644 81.000888 33.810644 81.000888 
L 26.068144 81.000888 
Q 23.668144 81.000888 23.668144 83.400888 
z
" style="fill:#ffffff;stroke:#ffffff;stroke-linejoin:miter;"/>
    </g>
    <g clip-path="url(#p3bde2c17d7)">
     <!-- P -->
     <g transform="translate(27.731894 83.400888)rotate(-270)scale(0.08 -0.08)">
      <use xlink:href="#DejaVuSans-80"/>
     </g>
    </g>
   </g>
   <g id="text_32">
    <g id="patch_33">
     <path clip-path="url(#p3bde2c17d7)" d="M 23.668144 101.672465 
L 23.668144 106.496215 
Q 23.668144 108.896215 26.068144 108.896215 
L 33.810644 108.896215 
Q 36.210644 108.896215 36.210644 106.496215 
L 36.210644 101.672465 
Q 36.210644 99.272465 33.810644 99.272465 
L 26.068144 99.272465 
Q 23.668144 99.272465 23.668144 101.672465 
z
" style="fill:#ffffff;stroke:#ffffff;stroke-linejoin:miter;"/>
    </g>
    <g clip-path="url(#p3bde2c17d7)">
     <!-- P -->
     <g transform="translate(27.731894 101.672465)rotate(-270)scale(0.08 -0.08)">
      <use xlink:href="#DejaVuSans-80"/>
     </g>
    </g>
   </g>
   <g id="text_33">
    <g id="patch_34">
     <path clip-path="url(#p3bde2c17d7)" d="M 23.668144 119.236804 
L 23.668144 124.060554 
Q 23.668144 126.460554 26.068144 126.460554 
L 33.810644 126.460554 
Q 36.210644 126.460554 36.210644 124.060554 
L 36.210644 119.236804 
Q 36.210644 116.836804 33.810644 116.836804 
L 26.068144 116.836804 
Q 23.668144 116.836804 23.668144 119.236804 
z
" style="fill:#ffffff;stroke:#ffffff;stroke-linejoin:miter;"/>
    </g>
    <g clip-path="url(#p3bde2c17d7)">
     <!-- P -->
     <g transform="translate(27.731894 119.236804)rotate(-270)scale(0.08 -0.08)">
      <use xlink:href="#DejaVuSans-80"/>
     </g>
    </g>
   </g>
   <g id="text_34">
    <g id="patch_35">
     <path clip-path="url(#p3bde2c17d7)" d="M 23.668144 136.1352 
L 23.668144 140.95895 
Q 23.668144 143.35895 26.068144 143.35895 
L 33.810644 143.35895 
Q 36.210644 143.35895 36.210644 140.95895 
L 36.210644 136.1352 
Q 36.210644 133.7352 33.810644 133.7352 
L 26.068144 133.7352 
Q 23.668144 133.7352 23.668144 136.1352 
z
" style="fill:#ffffff;stroke:#ffffff;stroke-linejoin:miter;"/>
    </g>
    <g clip-path="url(#p3bde2c17d7)">
     <!-- P -->
     <g transform="translate(27.731894 136.1352)rotate(-270)scale(0.08 -0.08)">
      <use xlink:href="#DejaVuSans-80"/>
     </g>
    </g>
   </g>
   <g id="text_35">
    <g id="patch_36">
     <path clip-path="url(#p3bde2c17d7)" d="M 23.668144 152.406939 
L 23.668144 157.230689 
Q 23.668144 159.630689 26.068144 159.630689 
L 33.810644 159.630689 
Q 36.210644 159.630689 36.210644 157.230689 
L 36.210644 152.406939 
Q 36.210644 150.006939 33.810644 150.006939 
L 26.068144 150.006939 
Q 23.668144 150.006939 23.668144 152.406939 
z
" style="fill:#ffffff;stroke:#ffffff;stroke-linejoin:miter;"/>
    </g>
    <g clip-path="url(#p3bde2c17d7)">
     <!-- P -->
     <g transform="translate(27.731894 152.406939)rotate(-270)scale(0.08 -0.08)">
      <use xlink:href="#DejaVuSans-80"/>
     </g>
    </g>
   </g>
   <g id="text_36">
    <g id="patch_37">
     <path clip-path="url(#p3bde2c17d7)" d="M 23.668144 168.0895 
L 23.668144 172.91325 
Q 23.668144 175.31325 26.068144 175.31325 
L 33.810644 175.31325 
Q 36.210644 175.31325 36.210644 172.91325 
L 36.210644 168.0895 
Q 36.210644 165.6895 33.810644 165.6895 
L 26.068144 165.6895 
Q 23.668144 165.6895 23.668144 168.0895 
z
" style="fill:#ffffff;stroke:#ffffff;stroke-linejoin:miter;"/>
    </g>
    <g clip-path="url(#p3bde2c17d7)">
     <!-- P -->
     <g transform="translate(27.731894 168.0895)rotate(-270)scale(0.08 -0.08)">
      <use xlink:href="#DejaVuSans-80"/>
     </g>
    </g>
   </g>
   <g id="text_37">
    <g id="patch_38">
     <path clip-path="url(#p3bde2c17d7)" d="M 23.668144 183.218761 
L 23.668144 188.042511 
Q 23.668144 190.442511 26.068144 190.442511 
L 33.810644 190.442511 
Q 36.210644 190.442511 36.210644 188.042511 
L 36.210644 183.218761 
Q 36.210644 180.818761 33.810644 180.818761 
L 26.068144 180.818761 
Q 23.668144 180.818761 23.668144 183.218761 
z
" style="fill:#ffffff;stroke:#ffffff;stroke-linejoin:miter;"/>
    </g>
    <g clip-path="url(#p3bde2c17d7)">
     <!-- P -->
     <g transform="translate(27.731894 183.218761)rotate(-270)scale(0.08 -0.08)">
      <use xlink:href="#DejaVuSans-80"/>
     </g>
    </g>
   </g>
   <g id="text_38">
    <g id="patch_39">
     <path clip-path="url(#p3bde2c17d7)" d="M 23.668144 197.829219 
L 23.668144 202.652969 
Q 23.668144 205.052969 26.068144 205.052969 
L 33.810644 205.052969 
Q 36.210644 205.052969 36.210644 202.652969 
L 36.210644 197.829219 
Q 36.210644 195.429219 33.810644 195.429219 
L 26.068144 195.429219 
Q 23.668144 195.429219 23.668144 197.829219 
z
" style="fill:#ffffff;stroke:#ffffff;stroke-linejoin:miter;"/>
    </g>
    <g clip-path="url(#p3bde2c17d7)">
     <!-- P -->
     <g transform="translate(27.731894 197.829219)rotate(-270)scale(0.08 -0.08)">
      <use xlink:href="#DejaVuSans-80"/>
     </g>
    </g>
   </g>
   <g id="text_39">
    <g id="patch_40">
     <path clip-path="url(#p3bde2c17d7)" d="M 23.668144 211.954227 
L 23.668144 216.777977 
Q 23.668144 219.177977 26.068144 219.177977 
L 33.810644 219.177977 
Q 36.210644 219.177977 36.210644 216.777977 
L 36.210644 211.954227 
Q 36.210644 209.554227 33.810644 209.554227 
L 26.068144 209.554227 
Q 23.668144 209.554227 23.668144 211.954227 
z
" style="fill:#ffffff;stroke:#ffffff;stroke-linejoin:miter;"/>
    </g>
    <g clip-path="url(#p3bde2c17d7)">
     <!-- P -->
     <g transform="translate(27.731894 211.954227)rotate(-270)scale(0.08 -0.08)">
      <use xlink:href="#DejaVuSans-80"/>
     </g>
    </g>
   </g>
   <g id="text_40">
    <g id="patch_41">
     <path clip-path="url(#p3bde2c17d7)" d="M 23.668144 225.626262 
L 23.668144 230.450012 
Q 23.668144 232.850012 26.068144 232.850012 
L 33.810644 232.850012 
Q 36.210644 232.850012 36.210644 230.450012 
L 36.210644 225.626262 
Q 36.210644 223.226262 33.810644 223.226262 
L 26.068144 223.226262 
Q 23.668144 223.226262 23.668144 225.626262 
z
" style="fill:#ffffff;stroke:#ffffff;stroke-linejoin:miter;"/>
    </g>
    <g clip-path="url(#p3bde2c17d7)">
     <!-- P -->
     <g transform="translate(27.731894 225.626262)rotate(-270)scale(0.08 -0.08)">
      <use xlink:href="#DejaVuSans-80"/>
     </g>
    </g>
   </g>
   <g id="text_41">
    <g id="patch_42">
     <path clip-path="url(#p3bde2c17d7)" d="M 23.668144 238.877254 
L 23.668144 243.701004 
Q 23.668144 246.101004 26.068144 246.101004 
L 33.810644 246.101004 
Q 36.210644 246.101004 36.210644 243.701004 
L 36.210644 238.877254 
Q 36.210644 236.477254 33.810644 236.477254 
L 26.068144 236.477254 
Q 23.668144 236.477254 23.668144 238.877254 
z
" style="fill:#ffffff;stroke:#ffffff;stroke-linejoin:miter;"/>
    </g>
    <g clip-path="url(#p3bde2c17d7)">
     <!-- P -->
     <g transform="translate(27.731894 238.877254)rotate(-270)scale(0.08 -0.08)">
      <use xlink:href="#DejaVuSans-80"/>
     </g>
    </g>
   </g>
   <g id="text_42">
    <g id="patch_43">
     <path clip-path="url(#p3bde2c17d7)" d="M 23.668144 251.739003 
L 23.668144 256.562753 
Q 23.668144 258.962753 26.068144 258.962753 
L 33.810644 258.962753 
Q 36.210644 258.962753 36.210644 256.562753 
L 36.210644 251.739003 
Q 36.210644 249.339003 33.810644 249.339003 
L 26.068144 249.339003 
Q 23.668144 249.339003 23.668144 251.739003 
z
" style="fill:#ffffff;stroke:#ffffff;stroke-linejoin:miter;"/>
    </g>
    <g clip-path="url(#p3bde2c17d7)">
     <!-- P -->
     <g transform="translate(27.731894 251.739003)rotate(-270)scale(0.08 -0.08)">
      <use xlink:href="#DejaVuSans-80"/>
     </g>
    </g>
   </g>
   <g id="text_43">
    <g id="patch_44">
     <path clip-path="url(#p3bde2c17d7)" d="M 23.668144 264.24376 
L 23.668144 269.06751 
Q 23.668144 271.46751 26.068144 271.46751 
L 33.810644 271.46751 
Q 36.210644 271.46751 36.210644 269.06751 
L 36.210644 264.24376 
Q 36.210644 261.84376 33.810644 261.84376 
L 26.068144 261.84376 
Q 23.668144 261.84376 23.668144 264.24376 
z
" style="fill:#ffffff;stroke:#ffffff;stroke-linejoin:miter;"/>
    </g>
    <g clip-path="url(#p3bde2c17d7)">
     <!-- P -->
     <g transform="translate(27.731894 264.24376)rotate(-270)scale(0.08 -0.08)">
      <use xlink:href="#DejaVuSans-80"/>
     </g>
    </g>
   </g>
   <g id="text_44">
    <g id="patch_45">
     <path clip-path="url(#p3bde2c17d7)" d="M 23.668144 276.425092 
L 23.668144 281.248842 
Q 23.668144 283.648842 26.068144 283.648842 
L 33.810644 283.648842 
Q 36.210644 283.648842 36.210644 281.248842 
L 36.210644 276.425092 
Q 36.210644 274.025092 33.810644 274.025092 
L 26.068144 274.025092 
Q 23.668144 274.025092 23.668144 276.425092 
z
" style="fill:#ffffff;stroke:#ffffff;stroke-linejoin:miter;"/>
    </g>
    <g clip-path="url(#p3bde2c17d7)">
     <!-- P -->
     <g transform="translate(27.731894 276.425092)rotate(-270)scale(0.08 -0.08)">
      <use xlink:href="#DejaVuSans-80"/>
     </g>
    </g>
   </g>
   <g id="text_45">
    <g id="patch_46">
     <path clip-path="url(#p3bde2c17d7)" d="M 23.668144 288.319357 
L 23.668144 293.143107 
Q 23.668144 295.543107 26.068144 295.543107 
L 33.810644 295.543107 
Q 36.210644 295.543107 36.210644 293.143107 
L 36.210644 288.319357 
Q 36.210644 285.919357 33.810644 285.919357 
L 26.068144 285.919357 
Q 23.668144 285.919357 23.668144 288.319357 
z
" style="fill:#ffffff;stroke:#ffffff;stroke-linejoin:miter;"/>
    </g>
    <g clip-path="url(#p3bde2c17d7)">
     <!-- P -->
     <g transform="translate(27.731894 288.319357)rotate(-270)scale(0.08 -0.08)">
      <use xlink:href="#DejaVuSans-80"/>
     </g>
    </g>
   </g>
   <g id="text_46">
    <g id="patch_47">
     <path clip-path="url(#p3bde2c17d7)" d="M 23.668144 299.968554 
L 23.668144 304.792304 
Q 23.668144 307.192304 26.068144 307.192304 
L 33.810644 307.192304 
Q 36.210644 307.192304 36.210644 304.792304 
L 36.210644 299.968554 
Q 36.210644 297.568554 33.810644 297.568554 
L 26.068144 297.568554 
Q 23.668144 297.568554 23.668144 299.968554 
z
" style="fill:#ffffff;stroke:#ffffff;stroke-linejoin:miter;"/>
    </g>
    <g clip-path="url(#p3bde2c17d7)">
     <!-- P -->
     <g transform="translate(27.731894 299.968554)rotate(-270)scale(0.08 -0.08)">
      <use xlink:href="#DejaVuSans-80"/>
     </g>
    </g>
   </g>
   <g id="text_47">
    <g id="patch_48">
     <path clip-path="url(#p3bde2c17d7)" d="M 23.668144 311.42751 
L 23.668144 316.25126 
Q 23.668144 318.65126 26.068144 318.65126 
L 33.810644 318.65126 
Q 36.210644 318.65126 36.210644 316.25126 
L 36.210644 311.42751 
Q 36.210644 309.02751 33.810644 309.02751 
L 26.068144 309.02751 
Q 23.668144 309.02751 23.668144 311.42751 
z
" style="fill:#ffffff;stroke:#ffffff;stroke-linejoin:miter;"/>
    </g>
    <g clip-path="url(#p3bde2c17d7)">
     <!-- P -->
     <g transform="translate(27.731894 311.42751)rotate(-270)scale(0.08 -0.08)">
      <use xlink:href="#DejaVuSans-80"/>
     </g>
    </g>
   </g>
   <g id="text_48">
    <g id="patch_49">
     <path clip-path="url(#p3bde2c17d7)" d="M 23.668144 308.315439 
L 23.668144 342.122939 
Q 23.668144 344.522939 26.068144 344.522939 
L 33.810644 344.522939 
Q 36.210644 344.522939 36.210644 342.122939 
L 36.210644 308.315439 
Q 36.210644 305.915439 33.810644 305.915439 
L 26.068144 305.915439 
Q 23.668144 305.915439 23.668144 308.315439 
z
" style="fill:#ffffff;stroke:#ffffff;stroke-linejoin:miter;"/>
    </g>
    <g clip-path="url(#p3bde2c17d7)">
     <!-- Terminal -->
     <g transform="translate(27.731894 308.315439)rotate(-270)scale(0.08 -0.08)">
      <use xlink:href="#DejaVuSans-84"/>
      <use x="44.083984" xlink:href="#DejaVuSans-101"/>
      <use x="105.607422" xlink:href="#DejaVuSans-114"/>
      <use x="144.970703" xlink:href="#DejaVuSans-109"/>
      <use x="242.382812" xlink:href="#DejaVuSans-105"/>
      <use x="270.166016" xlink:href="#DejaVuSans-110"/>
      <use x="333.544922" xlink:href="#DejaVuSans-97"/>
      <use x="394.824219" xlink:href="#DejaVuSans-108"/>
     </g>
    </g>
   </g>
   <g id="PathCollection_1">
    <defs>
     <path d="M 0 8.660254 
C 2.296726 8.660254 4.499694 7.747755 6.123724 6.123724 
C 7.747755 4.499694 8.660254 2.296726 8.660254 -0 
C 8.660254 -2.296726 7.747755 -4.499694 6.123724 -6.123724 
C 4.499694 -7.747755 2.296726 -8.660254 0 -8.660254 
C -2.296726 -8.660254 -4.499694 -7.747755 -6.123724 -6.123724 
C -7.747755 -4.499694 -8.660254 -2.296726 -8.660254 0 
C -8.660254 2.296726 -7.747755 4.499694 -6.123724 6.123724 
C -4.499694 7.747755 -2.296726 8.660254 0 8.660254 
z
" id="C0_0_9712fbf205"/>
    </defs>
    <g clip-path="url(#p3bde2c17d7)">
     <use style="fill:#ffffff;stroke:#ffffff;" x="29.939394" xlink:href="#C0_0_9712fbf205" y="330.909091"/>
    </g>
    <g clip-path="url(#p3bde2c17d7)">
     <use style="fill:#ffffff;stroke:#ffffff;" x="79.838384" xlink:href="#C0_0_9712fbf205" y="330.909091"/>
    </g>
    <g clip-path="url(#p3bde2c17d7)">
     <use style="fill:#ffffff;stroke:#ffffff;" x="129.737374" xlink:href="#C0_0_9712fbf205" y="330.909091"/>
    </g>
    <g clip-path="url(#p3bde2c17d7)">
     <use style="fill:#ffffff;stroke:#ffffff;" x="179.636364" xlink:href="#C0_0_9712fbf205" y="330.909091"/>
    </g>
    <g clip-path="url(#p3bde2c17d7)">
     <use style="fill:#ffffff;stroke:#ffffff;" x="229.535354" xlink:href="#C0_0_9712fbf205" y="330.909091"/>
    </g>
    <g clip-path="url(#p3bde2c17d7)">
     <use style="fill:#ffffff;stroke:#ffffff;" x="279.434343" xlink:href="#C0_0_9712fbf205" y="330.909091"/>
    </g>
    <g clip-path="url(#p3bde2c17d7)">
     <use style="fill:#ffffff;stroke:#ffffff;" x="329.333333" xlink:href="#C0_0_9712fbf205" y="330.909091"/>
    </g>
    <g clip-path="url(#p3bde2c17d7)">
     <use style="fill:#ffffff;stroke:#ffffff;" x="379.232323" xlink:href="#C0_0_9712fbf205" y="330.909091"/>
    </g>
    <g clip-path="url(#p3bde2c17d7)">
     <use style="fill:#ffffff;stroke:#ffffff;" x="429.131313" xlink:href="#C0_0_9712fbf205" y="330.909091"/>
    </g>
    <g clip-path="url(#p3bde2c17d7)">
     <use style="fill:#ffffff;stroke:#ffffff;" x="479.030303" xlink:href="#C0_0_9712fbf205" y="330.909091"/>
    </g>
    <g clip-path="url(#p3bde2c17d7)">
     <use style="fill:#ffffff;stroke:#ffffff;" x="528.929293" xlink:href="#C0_0_9712fbf205" y="330.909091"/>
    </g>
    <g clip-path="url(#p3bde2c17d7)">
     <use style="fill:#ffffff;stroke:#ffffff;" x="578.828283" xlink:href="#C0_0_9712fbf205" y="330.909091"/>
    </g>
    <g clip-path="url(#p3bde2c17d7)">
     <use style="fill:#ffffff;stroke:#ffffff;" x="628.727273" xlink:href="#C0_0_9712fbf205" y="330.909091"/>
    </g>
    <g clip-path="url(#p3bde2c17d7)">
     <use style="stroke:#000000;" x="297.255411" xlink:href="#C0_0_9712fbf205" y="15.757576"/>
    </g>
    <g clip-path="url(#p3bde2c17d7)">
     <use style="stroke:#000000;" x="79.838384" xlink:href="#C0_0_9712fbf205" y="319.529287"/>
    </g>
    <g clip-path="url(#p3bde2c17d7)">
     <use style="stroke:#000000;" x="254.484848" xlink:href="#C0_0_9712fbf205" y="308.149483"/>
    </g>
    <g clip-path="url(#p3bde2c17d7)">
     <use style="stroke:#000000;" x="479.030303" xlink:href="#C0_0_9712fbf205" y="308.149483"/>
    </g>
    <g clip-path="url(#p3bde2c17d7)">
     <use style="stroke:#000000;" x="578.828283" xlink:href="#C0_0_9712fbf205" y="319.529287"/>
    </g>
    <g clip-path="url(#p3bde2c17d7)">
     <use style="stroke:#000000;" x="628.727273" xlink:href="#C0_0_9712fbf205" y="319.529287"/>
    </g>
    <g clip-path="url(#p3bde2c17d7)">
     <use style="stroke:#000000;" x="29.939394" xlink:href="#C0_0_9712fbf205" y="36.856892"/>
    </g>
    <g clip-path="url(#p3bde2c17d7)">
     <use style="stroke:#000000;" x="129.737374" xlink:href="#C0_0_9712fbf205" y="319.529287"/>
    </g>
    <g clip-path="url(#p3bde2c17d7)">
     <use style="stroke:#000000;" x="179.636364" xlink:href="#C0_0_9712fbf205" y="319.529287"/>
    </g>
    <g clip-path="url(#p3bde2c17d7)">
     <use style="stroke:#000000;" x="229.535354" xlink:href="#C0_0_9712fbf205" y="319.529287"/>
    </g>
    <g clip-path="url(#p3bde2c17d7)">
     <use style="stroke:#000000;" x="279.434343" xlink:href="#C0_0_9712fbf205" y="319.529287"/>
    </g>
    <g clip-path="url(#p3bde2c17d7)">
     <use style="stroke:#000000;" x="329.333333" xlink:href="#C0_0_9712fbf205" y="319.529287"/>
    </g>
    <g clip-path="url(#p3bde2c17d7)">
     <use style="stroke:#000000;" x="379.232323" xlink:href="#C0_0_9712fbf205" y="319.529287"/>
    </g>
    <g clip-path="url(#p3bde2c17d7)">
     <use style="stroke:#000000;" x="429.131313" xlink:href="#C0_0_9712fbf205" y="319.529287"/>
    </g>
    <g clip-path="url(#p3bde2c17d7)">
     <use style="stroke:#000000;" x="479.030303" xlink:href="#C0_0_9712fbf205" y="319.529287"/>
    </g>
    <g clip-path="url(#p3bde2c17d7)">
     <use style="stroke:#000000;" x="528.929293" xlink:href="#C0_0_9712fbf205" y="319.529287"/>
    </g>
    <g clip-path="url(#p3bde2c17d7)">
     <use style="stroke:#000000;" x="29.939394" xlink:href="#C0_0_9712fbf205" y="57.086014"/>
    </g>
    <g clip-path="url(#p3bde2c17d7)">
     <use style="stroke:#000000;" x="29.939394" xlink:href="#C0_0_9712fbf205" y="76.494872"/>
    </g>
    <g clip-path="url(#p3bde2c17d7)">
     <use style="stroke:#000000;" x="29.939394" xlink:href="#C0_0_9712fbf205" y="95.130655"/>
    </g>
    <g clip-path="url(#p3bde2c17d7)">
     <use style="stroke:#000000;" x="29.939394" xlink:href="#C0_0_9712fbf205" y="113.038025"/>
    </g>
    <g clip-path="url(#p3bde2c17d7)">
     <use style="stroke:#000000;" x="29.939394" xlink:href="#C0_0_9712fbf205" y="130.259333"/>
    </g>
    <g clip-path="url(#p3bde2c17d7)">
     <use style="stroke:#000000;" x="29.939394" xlink:href="#C0_0_9712fbf205" y="146.834818"/>
    </g>
    <g clip-path="url(#p3bde2c17d7)">
     <use style="stroke:#000000;" x="29.939394" xlink:href="#C0_0_9712fbf205" y="162.802811"/>
    </g>
    <g clip-path="url(#p3bde2c17d7)">
     <use style="stroke:#000000;" x="29.939394" xlink:href="#C0_0_9712fbf205" y="178.199939"/>
    </g>
    <g clip-path="url(#p3bde2c17d7)">
     <use style="stroke:#000000;" x="29.939394" xlink:href="#C0_0_9712fbf205" y="193.061333"/>
    </g>
    <g clip-path="url(#p3bde2c17d7)">
     <use style="stroke:#000000;" x="29.939394" xlink:href="#C0_0_9712fbf205" y="207.420855"/>
    </g>
    <g clip-path="url(#p3bde2c17d7)">
     <use style="stroke:#000000;" x="29.939394" xlink:href="#C0_0_9712fbf205" y="221.311348"/>
    </g>
    <g clip-path="url(#p3bde2c17d7)">
     <use style="stroke:#000000;" x="29.939394" xlink:href="#C0_0_9712fbf205" y="234.764925"/>
    </g>
    <g clip-path="url(#p3bde2c17d7)">
     <use style="stroke:#000000;" x="29.939394" xlink:href="#C0_0_9712fbf205" y="247.813332"/>
    </g>
    <g clip-path="url(#p3bde2c17d7)">
     <use style="stroke:#000000;" x="29.939394" xlink:href="#C0_0_9712fbf205" y="260.488424"/>
    </g>
    <g clip-path="url(#p3bde2c17d7)">
     <use style="stroke:#000000;" x="29.939394" xlink:href="#C0_0_9712fbf205" y="272.822845"/>
    </g>
    <g clip-path="url(#p3bde2c17d7)">
     <use style="stroke:#000000;" x="29.939394" xlink:href="#C0_0_9712fbf205" y="284.85109"/>
    </g>
    <g clip-path="url(#p3bde2c17d7)">
     <use style="stroke:#000000;" x="29.939394" xlink:href="#C0_0_9712fbf205" y="296.611374"/>
    </g>
    <g clip-path="url(#p3bde2c17d7)">
     <use style="stroke:#000000;" x="29.939394" xlink:href="#C0_0_9712fbf205" y="308.149483"/>
    </g>
    <g clip-path="url(#p3bde2c17d7)">
     <use style="stroke:#000000;" x="29.939394" xlink:href="#C0_0_9712fbf205" y="319.529287"/>
    </g>
   </g>
   <g id="text_49">
    <g clip-path="url(#p3bde2c17d7)">
     <!-- A -->
     <g transform="translate(26.519081 333.668466)scale(0.1 -0.1)">
      <use xlink:href="#DejaVuSans-65"/>
     </g>
    </g>
   </g>
   <g id="text_50">
    <g clip-path="url(#p3bde2c17d7)">
     <!-- planet -->
     <g transform="translate(64.005571 333.668466)scale(0.1 -0.1)">
      <defs>
       <path d="M 18.109375 8.203125 
L 18.109375 -20.796875 
L 9.078125 -20.796875 
L 9.078125 54.6875 
L 18.109375 54.6875 
L 18.109375 46.390625 
Q 20.953125 51.265625 25.265625 53.625 
Q 29.59375 56 35.59375 56 
Q 45.5625 56 51.78125 48.09375 
Q 58.015625 40.1875 58.015625 27.296875 
Q 58.015625 14.40625 51.78125 6.484375 
Q 45.5625 -1.421875 35.59375 -1.421875 
Q 29.59375 -1.421875 25.265625 0.953125 
Q 20.953125 3.328125 18.109375 8.203125 
z
M 48.6875 27.296875 
Q 48.6875 37.203125 44.609375 42.84375 
Q 40.53125 48.484375 33.40625 48.484375 
Q 26.265625 48.484375 22.1875 42.84375 
Q 18.109375 37.203125 18.109375 27.296875 
Q 18.109375 17.390625 22.1875 11.75 
Q 26.265625 6.109375 33.40625 6.109375 
Q 40.53125 6.109375 44.609375 11.75 
Q 48.6875 17.390625 48.6875 27.296875 
z
" id="DejaVuSans-112"/>
       <path d="M 18.3125 70.21875 
L 18.3125 54.6875 
L 36.8125 54.6875 
L 36.8125 47.703125 
L 18.3125 47.703125 
L 18.3125 18.015625 
Q 18.3125 11.328125 20.140625 9.421875 
Q 21.96875 7.515625 27.59375 7.515625 
L 36.8125 7.515625 
L 36.8125 0 
L 27.59375 0 
Q 17.1875 0 13.234375 3.875 
Q 9.28125 7.765625 9.28125 18.015625 
L 9.28125 47.703125 
L 2.6875 47.703125 
L 2.6875 54.6875 
L 9.28125 54.6875 
L 9.28125 70.21875 
z
" id="DejaVuSans-116"/>
      </defs>
      <use xlink:href="#DejaVuSans-112"/>
      <use x="63.476562" xlink:href="#DejaVuSans-108"/>
      <use x="91.259766" xlink:href="#DejaVuSans-97"/>
      <use x="152.539062" xlink:href="#DejaVuSans-110"/>
      <use x="215.917969" xlink:href="#DejaVuSans-101"/>
      <use x="277.441406" xlink:href="#DejaVuSans-116"/>
     </g>
    </g>
   </g>
   <g id="text_51">
    <g clip-path="url(#p3bde2c17d7)">
     <!-- rotating -->
     <g transform="translate(110.018624 333.668466)scale(0.1 -0.1)">
      <defs>
       <path d="M 30.609375 48.390625 
Q 23.390625 48.390625 19.1875 42.75 
Q 14.984375 37.109375 14.984375 27.296875 
Q 14.984375 17.484375 19.15625 11.84375 
Q 23.34375 6.203125 30.609375 6.203125 
Q 37.796875 6.203125 41.984375 11.859375 
Q 46.1875 17.53125 46.1875 27.296875 
Q 46.1875 37.015625 41.984375 42.703125 
Q 37.796875 48.390625 30.609375 48.390625 
z
M 30.609375 56 
Q 42.328125 56 49.015625 48.375 
Q 55.71875 40.765625 55.71875 27.296875 
Q 55.71875 13.875 49.015625 6.21875 
Q 42.328125 -1.421875 30.609375 -1.421875 
Q 18.84375 -1.421875 12.171875 6.21875 
Q 5.515625 13.875 5.515625 27.296875 
Q 5.515625 40.765625 12.171875 48.375 
Q 18.84375 56 30.609375 56 
z
" id="DejaVuSans-111"/>
       <path d="M 45.40625 27.984375 
Q 45.40625 37.75 41.375 43.109375 
Q 37.359375 48.484375 30.078125 48.484375 
Q 22.859375 48.484375 18.828125 43.109375 
Q 14.796875 37.75 14.796875 27.984375 
Q 14.796875 18.265625 18.828125 12.890625 
Q 22.859375 7.515625 30.078125 7.515625 
Q 37.359375 7.515625 41.375 12.890625 
Q 45.40625 18.265625 45.40625 27.984375 
z
M 54.390625 6.78125 
Q 54.390625 -7.171875 48.1875 -13.984375 
Q 42 -20.796875 29.203125 -20.796875 
Q 24.46875 -20.796875 20.265625 -20.09375 
Q 16.0625 -19.390625 12.109375 -17.921875 
L 12.109375 -9.1875 
Q 16.0625 -11.328125 19.921875 -12.34375 
Q 23.78125 -13.375 27.78125 -13.375 
Q 36.625 -13.375 41.015625 -8.765625 
Q 45.40625 -4.15625 45.40625 5.171875 
L 45.40625 9.625 
Q 42.625 4.78125 38.28125 2.390625 
Q 33.9375 0 27.875 0 
Q 17.828125 0 11.671875 7.65625 
Q 5.515625 15.328125 5.515625 27.984375 
Q 5.515625 40.671875 11.671875 48.328125 
Q 17.828125 56 27.875 56 
Q 33.9375 56 38.28125 53.609375 
Q 42.625 51.21875 45.40625 46.390625 
L 45.40625 54.6875 
L 54.390625 54.6875 
z
" id="DejaVuSans-103"/>
      </defs>
      <use xlink:href="#DejaVuSans-114"/>
      <use x="38.863281" xlink:href="#DejaVuSans-111"/>
      <use x="100.044922" xlink:href="#DejaVuSans-116"/>
      <use x="139.253906" xlink:href="#DejaVuSans-97"/>
      <use x="200.533203" xlink:href="#DejaVuSans-116"/>
      <use x="239.742188" xlink:href="#DejaVuSans-105"/>
      <use x="267.525391" xlink:href="#DejaVuSans-110"/>
      <use x="330.904297" xlink:href="#DejaVuSans-103"/>
     </g>
    </g>
   </g>
   <g id="text_52">
    <g clip-path="url(#p3bde2c17d7)">
     <!-- causes -->
     <g transform="translate(162.368395 333.668466)scale(0.1 -0.1)">
      <defs>
       <path d="M 48.78125 52.59375 
L 48.78125 44.1875 
Q 44.96875 46.296875 41.140625 47.34375 
Q 37.3125 48.390625 33.40625 48.390625 
Q 24.65625 48.390625 19.8125 42.84375 
Q 14.984375 37.3125 14.984375 27.296875 
Q 14.984375 17.28125 19.8125 11.734375 
Q 24.65625 6.203125 33.40625 6.203125 
Q 37.3125 6.203125 41.140625 7.25 
Q 44.96875 8.296875 48.78125 10.40625 
L 48.78125 2.09375 
Q 45.015625 0.34375 40.984375 -0.53125 
Q 36.96875 -1.421875 32.421875 -1.421875 
Q 20.0625 -1.421875 12.78125 6.34375 
Q 5.515625 14.109375 5.515625 27.296875 
Q 5.515625 40.671875 12.859375 48.328125 
Q 20.21875 56 33.015625 56 
Q 37.15625 56 41.109375 55.140625 
Q 45.0625 54.296875 48.78125 52.59375 
z
" id="DejaVuSans-99"/>
       <path d="M 8.5 21.578125 
L 8.5 54.6875 
L 17.484375 54.6875 
L 17.484375 21.921875 
Q 17.484375 14.15625 20.5 10.265625 
Q 23.53125 6.390625 29.59375 6.390625 
Q 36.859375 6.390625 41.078125 11.03125 
Q 45.3125 15.671875 45.3125 23.6875 
L 45.3125 54.6875 
L 54.296875 54.6875 
L 54.296875 0 
L 45.3125 0 
L 45.3125 8.40625 
Q 42.046875 3.421875 37.71875 1 
Q 33.40625 -1.421875 27.6875 -1.421875 
Q 18.265625 -1.421875 13.375 4.4375 
Q 8.5 10.296875 8.5 21.578125 
z
M 31.109375 56 
z
" id="DejaVuSans-117"/>
       <path d="M 44.28125 53.078125 
L 44.28125 44.578125 
Q 40.484375 46.53125 36.375 47.5 
Q 32.28125 48.484375 27.875 48.484375 
Q 21.1875 48.484375 17.84375 46.4375 
Q 14.5 44.390625 14.5 40.28125 
Q 14.5 37.15625 16.890625 35.375 
Q 19.28125 33.59375 26.515625 31.984375 
L 29.59375 31.296875 
Q 39.15625 29.25 43.1875 25.515625 
Q 47.21875 21.78125 47.21875 15.09375 
Q 47.21875 7.46875 41.1875 3.015625 
Q 35.15625 -1.421875 24.609375 -1.421875 
Q 20.21875 -1.421875 15.453125 -0.5625 
Q 10.6875 0.296875 5.421875 2 
L 5.421875 11.28125 
Q 10.40625 8.6875 15.234375 7.390625 
Q 20.0625 6.109375 24.8125 6.109375 
Q 31.15625 6.109375 34.5625 8.28125 
Q 37.984375 10.453125 37.984375 14.40625 
Q 37.984375 18.0625 35.515625 20.015625 
Q 33.0625 21.96875 24.703125 23.78125 
L 21.578125 24.515625 
Q 13.234375 26.265625 9.515625 29.90625 
Q 5.8125 33.546875 5.8125 39.890625 
Q 5.8125 47.609375 11.28125 51.796875 
Q 16.75 56 26.8125 56 
Q 31.78125 56 36.171875 55.265625 
Q 40.578125 54.546875 44.28125 53.078125 
z
" id="DejaVuSans-115"/>
      </defs>
      <use xlink:href="#DejaVuSans-99"/>
      <use x="54.980469" xlink:href="#DejaVuSans-97"/>
      <use x="116.259766" xlink:href="#DejaVuSans-117"/>
      <use x="179.638672" xlink:href="#DejaVuSans-115"/>
      <use x="231.738281" xlink:href="#DejaVuSans-101"/>
      <use x="293.261719" xlink:href="#DejaVuSans-115"/>
     </g>
    </g>
   </g>
   <g id="text_53">
    <g clip-path="url(#p3bde2c17d7)">
     <!-- cycles -->
     <g transform="translate(214.007229 333.668466)scale(0.1 -0.1)">
      <defs>
       <path d="M 32.171875 -5.078125 
Q 28.375 -14.84375 24.75 -17.8125 
Q 21.140625 -20.796875 15.09375 -20.796875 
L 7.90625 -20.796875 
L 7.90625 -13.28125 
L 13.1875 -13.28125 
Q 16.890625 -13.28125 18.9375 -11.515625 
Q 21 -9.765625 23.484375 -3.21875 
L 25.09375 0.875 
L 2.984375 54.6875 
L 12.5 54.6875 
L 29.59375 11.921875 
L 46.6875 54.6875 
L 56.203125 54.6875 
z
" id="DejaVuSans-121"/>
      </defs>
      <use xlink:href="#DejaVuSans-99"/>
      <use x="54.980469" xlink:href="#DejaVuSans-121"/>
      <use x="114.160156" xlink:href="#DejaVuSans-99"/>
      <use x="169.140625" xlink:href="#DejaVuSans-108"/>
      <use x="196.923828" xlink:href="#DejaVuSans-101"/>
      <use x="258.447266" xlink:href="#DejaVuSans-115"/>
     </g>
    </g>
   </g>
   <g id="text_54">
    <g clip-path="url(#p3bde2c17d7)">
     <!-- of -->
     <g transform="translate(274.614812 333.668466)scale(0.1 -0.1)">
      <defs>
       <path d="M 37.109375 75.984375 
L 37.109375 68.5 
L 28.515625 68.5 
Q 23.6875 68.5 21.796875 66.546875 
Q 19.921875 64.59375 19.921875 59.515625 
L 19.921875 54.6875 
L 34.71875 54.6875 
L 34.71875 47.703125 
L 19.921875 47.703125 
L 19.921875 0 
L 10.890625 0 
L 10.890625 47.703125 
L 2.296875 47.703125 
L 2.296875 54.6875 
L 10.890625 54.6875 
L 10.890625 58.5 
Q 10.890625 67.625 15.140625 71.796875 
Q 19.390625 75.984375 28.609375 75.984375 
z
" id="DejaVuSans-102"/>
      </defs>
      <use xlink:href="#DejaVuSans-111"/>
      <use x="61.181641" xlink:href="#DejaVuSans-102"/>
     </g>
    </g>
   </g>
   <g id="text_55">
    <g clip-path="url(#p3bde2c17d7)">
     <!-- day -->
     <g transform="translate(320.135677 333.668466)scale(0.1 -0.1)">
      <defs>
       <path d="M 45.40625 46.390625 
L 45.40625 75.984375 
L 54.390625 75.984375 
L 54.390625 0 
L 45.40625 0 
L 45.40625 8.203125 
Q 42.578125 3.328125 38.25 0.953125 
Q 33.9375 -1.421875 27.875 -1.421875 
Q 17.96875 -1.421875 11.734375 6.484375 
Q 5.515625 14.40625 5.515625 27.296875 
Q 5.515625 40.1875 11.734375 48.09375 
Q 17.96875 56 27.875 56 
Q 33.9375 56 38.25 53.625 
Q 42.578125 51.265625 45.40625 46.390625 
z
M 14.796875 27.296875 
Q 14.796875 17.390625 18.875 11.75 
Q 22.953125 6.109375 30.078125 6.109375 
Q 37.203125 6.109375 41.296875 11.75 
Q 45.40625 17.390625 45.40625 27.296875 
Q 45.40625 37.203125 41.296875 42.84375 
Q 37.203125 48.484375 30.078125 48.484375 
Q 22.953125 48.484375 18.875 42.84375 
Q 14.796875 37.203125 14.796875 27.296875 
z
" id="DejaVuSans-100"/>
      </defs>
      <use xlink:href="#DejaVuSans-100"/>
      <use x="63.476562" xlink:href="#DejaVuSans-97"/>
      <use x="124.755859" xlink:href="#DejaVuSans-121"/>
     </g>
    </g>
   </g>
   <g id="text_56">
    <g clip-path="url(#p3bde2c17d7)">
     <!-- and -->
     <g transform="translate(369.825292 333.668466)scale(0.1 -0.1)">
      <use xlink:href="#DejaVuSans-97"/>
      <use x="61.279297" xlink:href="#DejaVuSans-110"/>
      <use x="124.658203" xlink:href="#DejaVuSans-100"/>
     </g>
    </g>
   </g>
   <g id="text_57">
    <g clip-path="url(#p3bde2c17d7)">
     <!-- night -->
     <g transform="translate(416.270376 333.668466)scale(0.1 -0.1)">
      <defs>
       <path d="M 54.890625 33.015625 
L 54.890625 0 
L 45.90625 0 
L 45.90625 32.71875 
Q 45.90625 40.484375 42.875 44.328125 
Q 39.84375 48.1875 33.796875 48.1875 
Q 26.515625 48.1875 22.3125 43.546875 
Q 18.109375 38.921875 18.109375 30.90625 
L 18.109375 0 
L 9.078125 0 
L 9.078125 75.984375 
L 18.109375 75.984375 
L 18.109375 46.1875 
Q 21.34375 51.125 25.703125 53.5625 
Q 30.078125 56 35.796875 56 
Q 45.21875 56 50.046875 50.171875 
Q 54.890625 44.34375 54.890625 33.015625 
z
" id="DejaVuSans-104"/>
      </defs>
      <use xlink:href="#DejaVuSans-110"/>
      <use x="63.378906" xlink:href="#DejaVuSans-105"/>
      <use x="91.162109" xlink:href="#DejaVuSans-103"/>
      <use x="154.638672" xlink:href="#DejaVuSans-104"/>
      <use x="218.017578" xlink:href="#DejaVuSans-116"/>
     </g>
    </g>
   </g>
   <g id="text_58">
    <g clip-path="url(#p3bde2c17d7)">
     <!-- on -->
     <g transform="translate(472.802178 333.668466)scale(0.1 -0.1)">
      <use xlink:href="#DejaVuSans-111"/>
      <use x="61.181641" xlink:href="#DejaVuSans-110"/>
     </g>
    </g>
   </g>
   <g id="text_59">
    <g clip-path="url(#p3bde2c17d7)">
     <!-- that -->
     <g transform="translate(518.776168 333.668466)scale(0.1 -0.1)">
      <use xlink:href="#DejaVuSans-116"/>
      <use x="39.208984" xlink:href="#DejaVuSans-104"/>
      <use x="102.587891" xlink:href="#DejaVuSans-97"/>
      <use x="163.867188" xlink:href="#DejaVuSans-116"/>
     </g>
    </g>
   </g>
   <g id="text_60">
    <g clip-path="url(#p3bde2c17d7)">
     <!-- planet -->
     <g transform="translate(562.99547 333.668466)scale(0.1 -0.1)">
      <use xlink:href="#DejaVuSans-112"/>
      <use x="63.476562" xlink:href="#DejaVuSans-108"/>
      <use x="91.259766" xlink:href="#DejaVuSans-97"/>
      <use x="152.539062" xlink:href="#DejaVuSans-110"/>
      <use x="215.917969" xlink:href="#DejaVuSans-101"/>
      <use x="277.441406" xlink:href="#DejaVuSans-116"/>
     </g>
    </g>
   </g>
   <g id="text_61">
    <g clip-path="url(#p3bde2c17d7)">
     <!-- . -->
     <g transform="translate(627.13821 333.668466)scale(0.1 -0.1)">
      <defs>
       <path d="M 10.6875 12.40625 
L 21 12.40625 
L 21 0 
L 10.6875 0 
z
" id="DejaVuSans-46"/>
      </defs>
      <use xlink:href="#DejaVuSans-46"/>
     </g>
    </g>
   </g>
  </g>
 </g>
 <defs>
  <clipPath id="p3bde2c17d7">
   <rect height="346.666667" width="658.666667" x="0" y="0"/>
  </clipPath>
 </defs>
</svg>
