<?xml version="1.0" encoding="utf-8" standalone="no"?>
<!DOCTYPE svg PUBLIC "-//W3C//DTD SVG 1.1//EN"
  "http://www.w3.org/Graphics/SVG/1.1/DTD/svg11.dtd">
<!-- Created with matplotlib (https://matplotlib.org/) -->
<svg height="106.666667pt" version="1.1" viewBox="0 0 202.666667 106.666667" width="202.666667pt" xmlns="http://www.w3.org/2000/svg" xmlns:xlink="http://www.w3.org/1999/xlink">
 <metadata>
  <rdf:RDF xmlns:cc="http://creativecommons.org/ns#" xmlns:dc="http://purl.org/dc/elements/1.1/" xmlns:rdf="http://www.w3.org/1999/02/22-rdf-syntax-ns#">
   <cc:Work>
    <dc:type rdf:resource="http://purl.org/dc/dcmitype/StillImage"/>
    <dc:date>2021-05-19T11:41:51.236205</dc:date>
    <dc:format>image/svg+xml</dc:format>
    <dc:creator>
     <cc:Agent>
      <dc:title>Matplotlib v3.3.4, https://matplotlib.org/</dc:title>
     </cc:Agent>
    </dc:creator>
   </cc:Work>
  </rdf:RDF>
 </metadata>
 <defs>
  <style type="text/css">*{stroke-linecap:butt;stroke-linejoin:round;}</style>
 </defs>
 <g id="figure_1">
  <g id="patch_1">
   <path d="M 0 106.666667 
L 202.666667 106.666667 
L 202.666667 0 
L 0 0 
z
" style="fill:#ffffff;"/>
  </g>
  <g id="axes_1">
   <g id="LineCollection_1">
    <path clip-path="url(#p59eb5475ae)" d="M 62.949495 4.848485 
L 70.626263 98.316704 
" style="fill:none;stroke:#000000;"/>
    <path clip-path="url(#p59eb5475ae)" d="M 62.949495 4.848485 
L 162.747475 94.815226 
" style="fill:none;stroke:#000000;"/>
    <path clip-path="url(#p59eb5475ae)" d="M 62.949495 4.848485 
L 9.212121 11.340582 
" style="fill:none;stroke:#000000;"/>
    <path clip-path="url(#p59eb5475ae)" d="M 62.949495 4.848485 
L 9.212121 98.316704 
" style="fill:none;stroke:#000000;stroke-dasharray:3.7,1.6;stroke-dashoffset:0;"/>
    <path clip-path="url(#p59eb5475ae)" d="M 70.626263 98.316704 
L 70.626263 101.818182 
" style="fill:none;stroke:#000000;"/>
    <path clip-path="url(#p59eb5475ae)" d="M 162.747475 94.815226 
L 132.040404 98.316704 
" style="fill:none;stroke:#000000;"/>
    <path clip-path="url(#p59eb5475ae)" d="M 162.747475 94.815226 
L 193.454545 98.316704 
" style="fill:none;stroke:#000000;"/>
    <path clip-path="url(#p59eb5475ae)" d="M 9.212121 11.340582 
L 9.212121 17.564927 
" style="fill:none;stroke:#000000;"/>
    <path clip-path="url(#p59eb5475ae)" d="M 132.040404 98.316704 
L 132.040404 101.818182 
" style="fill:none;stroke:#000000;"/>
    <path clip-path="url(#p59eb5475ae)" d="M 193.454545 98.316704 
L 193.454545 101.818182 
" style="fill:none;stroke:#000000;"/>
    <path clip-path="url(#p59eb5475ae)" d="M 9.212121 17.564927 
L 9.212121 23.536884 
" style="fill:none;stroke:#000000;"/>
    <path clip-path="url(#p59eb5475ae)" d="M 9.212121 23.536884 
L 9.212121 29.270971 
" style="fill:none;stroke:#000000;"/>
    <path clip-path="url(#p59eb5475ae)" d="M 9.212121 29.270971 
L 9.212121 34.780931 
" style="fill:none;stroke:#000000;"/>
    <path clip-path="url(#p59eb5475ae)" d="M 9.212121 34.780931 
L 9.212121 40.079795 
" style="fill:none;stroke:#000000;"/>
    <path clip-path="url(#p59eb5475ae)" d="M 9.212121 40.079795 
L 9.212121 45.179944 
" style="fill:none;stroke:#000000;"/>
    <path clip-path="url(#p59eb5475ae)" d="M 9.212121 45.179944 
L 9.212121 50.093173 
" style="fill:none;stroke:#000000;"/>
    <path clip-path="url(#p59eb5475ae)" d="M 9.212121 50.093173 
L 9.212121 54.83075 
" style="fill:none;stroke:#000000;"/>
    <path clip-path="url(#p59eb5475ae)" d="M 9.212121 54.83075 
L 9.212121 59.403487 
" style="fill:none;stroke:#000000;"/>
    <path clip-path="url(#p59eb5475ae)" d="M 9.212121 59.403487 
L 9.212121 63.821802 
" style="fill:none;stroke:#000000;"/>
    <path clip-path="url(#p59eb5475ae)" d="M 9.212121 63.821802 
L 9.212121 68.095799 
" style="fill:none;stroke:#000000;"/>
    <path clip-path="url(#p59eb5475ae)" d="M 9.212121 68.095799 
L 9.212121 72.235362 
" style="fill:none;stroke:#000000;"/>
    <path clip-path="url(#p59eb5475ae)" d="M 9.212121 72.235362 
L 9.212121 76.250256 
" style="fill:none;stroke:#000000;"/>
    <path clip-path="url(#p59eb5475ae)" d="M 9.212121 76.250256 
L 9.212121 80.150284 
" style="fill:none;stroke:#000000;"/>
    <path clip-path="url(#p59eb5475ae)" d="M 9.212121 80.150284 
L 9.212121 83.945491 
" style="fill:none;stroke:#000000;"/>
    <path clip-path="url(#p59eb5475ae)" d="M 9.212121 83.945491 
L 9.212121 87.646489 
" style="fill:none;stroke:#000000;"/>
    <path clip-path="url(#p59eb5475ae)" d="M 9.212121 87.646489 
L 9.212121 91.265038 
" style="fill:none;stroke:#000000;"/>
    <path clip-path="url(#p59eb5475ae)" d="M 9.212121 91.265038 
L 9.212121 94.815226 
" style="fill:none;stroke:#000000;"/>
    <path clip-path="url(#p59eb5475ae)" d="M 9.212121 94.815226 
L 9.212121 98.316704 
" style="fill:none;stroke:#000000;"/>
    <path clip-path="url(#p59eb5475ae)" d="M 9.212121 98.316704 
L 9.212121 101.818182 
" style="fill:none;stroke:#000000;"/>
   </g>
   <g id="text_1">
    <g id="patch_2">
     <path clip-path="url(#p59eb5475ae)" d="M 60.349353 49.803034 
L 60.725996 54.388843 
Q 60.922452 56.780789 63.314398 56.584332 
L 71.030915 55.950557 
Q 73.422861 55.7541 73.226405 53.362154 
L 72.849761 48.776346 
Q 72.653305 46.3844 70.261359 46.580856 
L 62.544842 47.214632 
Q 60.152897 47.411088 60.349353 49.803034 
z
" style="fill:#ffffff;stroke:#ffffff;stroke-linejoin:miter;"/>
    </g>
    <g clip-path="url(#p59eb5475ae)">
     <!-- F -->
     <g transform="translate(64.399465 49.470389)rotate(-274.6953)scale(0.08 -0.08)">
      <defs>
       <path d="M 9.8125 72.90625 
L 51.703125 72.90625 
L 51.703125 64.59375 
L 19.671875 64.59375 
L 19.671875 43.109375 
L 48.578125 43.109375 
L 48.578125 34.8125 
L 19.671875 34.8125 
L 19.671875 0 
L 9.8125 0 
z
" id="DejaVuSans-70"/>
      </defs>
      <use xlink:href="#DejaVuSans-70"/>
     </g>
    </g>
   </g>
   <g id="text_2">
    <g id="patch_3">
     <path clip-path="url(#p59eb5475ae)" d="M 106.763305 52.789486 
L 110.535516 56.190092 
Q 112.318102 57.797073 113.925083 56.014487 
L 119.10927 50.263791 
Q 120.716251 48.481205 118.933665 46.874224 
L 115.161453 43.473618 
Q 113.378868 41.866637 111.771887 43.649223 
L 106.587699 49.39992 
Q 104.980719 51.182506 106.763305 52.789486 
z
" style="fill:#ffffff;stroke:#ffffff;stroke-linejoin:miter;"/>
    </g>
    <g clip-path="url(#p59eb5475ae)">
     <!-- S -->
     <g transform="translate(109.484291 49.77116)rotate(-317.965701)scale(0.08 -0.08)">
      <defs>
       <path d="M 53.515625 70.515625 
L 53.515625 60.890625 
Q 47.90625 63.578125 42.921875 64.890625 
Q 37.9375 66.21875 33.296875 66.21875 
Q 25.25 66.21875 20.875 63.09375 
Q 16.5 59.96875 16.5 54.203125 
Q 16.5 49.359375 19.40625 46.890625 
Q 22.3125 44.4375 30.421875 42.921875 
L 36.375 41.703125 
Q 47.40625 39.59375 52.65625 34.296875 
Q 57.90625 29 57.90625 20.125 
Q 57.90625 9.515625 50.796875 4.046875 
Q 43.703125 -1.421875 29.984375 -1.421875 
Q 24.8125 -1.421875 18.96875 -0.25 
Q 13.140625 0.921875 6.890625 3.21875 
L 6.890625 13.375 
Q 12.890625 10.015625 18.65625 8.296875 
Q 24.421875 6.59375 29.984375 6.59375 
Q 38.421875 6.59375 43.015625 9.90625 
Q 47.609375 13.234375 47.609375 19.390625 
Q 47.609375 24.75 44.3125 27.78125 
Q 41.015625 30.8125 33.5 32.328125 
L 27.484375 33.5 
Q 16.453125 35.6875 11.515625 40.375 
Q 6.59375 45.0625 6.59375 53.421875 
Q 6.59375 63.09375 13.40625 68.65625 
Q 20.21875 74.21875 32.171875 74.21875 
Q 37.3125 74.21875 42.625 73.28125 
Q 47.953125 72.359375 53.515625 70.515625 
z
" id="DejaVuSans-83"/>
      </defs>
      <use xlink:href="#DejaVuSans-83"/>
     </g>
    </g>
   </g>
   <g id="text_3">
    <g id="patch_4">
     <path clip-path="url(#p59eb5475ae)" d="M 34.438514 14.609792 
L 39.227443 14.031234 
Q 41.610118 13.743379 41.322263 11.360704 
L 40.393631 3.674096 
Q 40.105777 1.291421 37.723102 1.579275 
L 32.934173 2.157833 
Q 30.551499 2.445688 30.839353 4.828363 
L 31.767985 12.514971 
Q 32.055839 14.897646 34.438514 14.609792 
z
" style="fill:#ffffff;stroke:#ffffff;stroke-linejoin:miter;"/>
    </g>
    <g clip-path="url(#p59eb5475ae)">
     <!-- P -->
     <g transform="translate(33.95111 10.575377)rotate(-6.888609)scale(0.08 -0.08)">
      <defs>
       <path d="M 19.671875 64.796875 
L 19.671875 37.40625 
L 32.078125 37.40625 
Q 38.96875 37.40625 42.71875 40.96875 
Q 46.484375 44.53125 46.484375 51.125 
Q 46.484375 57.671875 42.71875 61.234375 
Q 38.96875 64.796875 32.078125 64.796875 
z
M 9.8125 72.90625 
L 32.078125 72.90625 
Q 44.34375 72.90625 50.609375 67.359375 
Q 56.890625 61.8125 56.890625 51.125 
Q 56.890625 40.328125 50.609375 34.8125 
Q 44.34375 29.296875 32.078125 29.296875 
L 19.671875 29.296875 
L 19.671875 0 
L 9.8125 0 
z
" id="DejaVuSans-80"/>
      </defs>
      <use xlink:href="#DejaVuSans-80"/>
     </g>
    </g>
   </g>
   <g id="text_4">
    <g id="patch_5">
     <path clip-path="url(#p59eb5475ae)" d="M 40.153756 57.080479 
L 42.881377 52.336184 
Q 44.077593 50.255543 41.996952 49.059327 
L 35.284718 45.200284 
Q 33.204077 44.004068 32.007861 46.084709 
L 29.280239 50.829004 
Q 28.084023 52.909645 30.164664 54.105861 
L 36.876898 57.964904 
Q 38.957539 59.16112 40.153756 57.080479 
z
" style="fill:#ffffff;stroke:#ffffff;stroke-linejoin:miter;"/>
    </g>
    <g clip-path="url(#p59eb5475ae)">
     <!-- A -->
     <g transform="translate(36.630753 55.055011)rotate(-60.104255)scale(0.08 -0.08)">
      <defs>
       <path d="M 34.1875 63.1875 
L 20.796875 26.90625 
L 47.609375 26.90625 
z
M 28.609375 72.90625 
L 39.796875 72.90625 
L 67.578125 0 
L 57.328125 0 
L 50.6875 18.703125 
L 17.828125 18.703125 
L 11.1875 0 
L 0.78125 0 
z
" id="DejaVuSans-65"/>
      </defs>
      <use xlink:href="#DejaVuSans-65"/>
     </g>
    </g>
   </g>
   <g id="text_5">
    <g id="patch_6">
     <path clip-path="url(#p59eb5475ae)" d="M 64.355013 83.163693 
L 64.355013 116.971193 
Q 64.355013 119.371193 66.755013 119.371193 
L 74.497513 119.371193 
Q 76.897513 119.371193 76.897513 116.971193 
L 76.897513 83.163693 
Q 76.897513 80.763693 74.497513 80.763693 
L 66.755013 80.763693 
Q 64.355013 80.763693 64.355013 83.163693 
z
" style="fill:#ffffff;stroke:#ffffff;stroke-linejoin:miter;"/>
    </g>
    <g clip-path="url(#p59eb5475ae)">
     <!-- Terminal -->
     <g transform="translate(68.418763 83.163693)rotate(-270)scale(0.08 -0.08)">
      <defs>
       <path d="M -0.296875 72.90625 
L 61.375 72.90625 
L 61.375 64.59375 
L 35.5 64.59375 
L 35.5 0 
L 25.59375 0 
L 25.59375 64.59375 
L -0.296875 64.59375 
z
" id="DejaVuSans-84"/>
       <path d="M 56.203125 29.59375 
L 56.203125 25.203125 
L 14.890625 25.203125 
Q 15.484375 15.921875 20.484375 11.0625 
Q 25.484375 6.203125 34.421875 6.203125 
Q 39.59375 6.203125 44.453125 7.46875 
Q 49.3125 8.734375 54.109375 11.28125 
L 54.109375 2.78125 
Q 49.265625 0.734375 44.1875 -0.34375 
Q 39.109375 -1.421875 33.890625 -1.421875 
Q 20.796875 -1.421875 13.15625 6.1875 
Q 5.515625 13.8125 5.515625 26.8125 
Q 5.515625 40.234375 12.765625 48.109375 
Q 20.015625 56 32.328125 56 
Q 43.359375 56 49.78125 48.890625 
Q 56.203125 41.796875 56.203125 29.59375 
z
M 47.21875 32.234375 
Q 47.125 39.59375 43.09375 43.984375 
Q 39.0625 48.390625 32.421875 48.390625 
Q 24.90625 48.390625 20.390625 44.140625 
Q 15.875 39.890625 15.1875 32.171875 
z
" id="DejaVuSans-101"/>
       <path d="M 41.109375 46.296875 
Q 39.59375 47.171875 37.8125 47.578125 
Q 36.03125 48 33.890625 48 
Q 26.265625 48 22.1875 43.046875 
Q 18.109375 38.09375 18.109375 28.8125 
L 18.109375 0 
L 9.078125 0 
L 9.078125 54.6875 
L 18.109375 54.6875 
L 18.109375 46.1875 
Q 20.953125 51.171875 25.484375 53.578125 
Q 30.03125 56 36.53125 56 
Q 37.453125 56 38.578125 55.875 
Q 39.703125 55.765625 41.0625 55.515625 
z
" id="DejaVuSans-114"/>
       <path d="M 52 44.1875 
Q 55.375 50.25 60.0625 53.125 
Q 64.75 56 71.09375 56 
Q 79.640625 56 84.28125 50.015625 
Q 88.921875 44.046875 88.921875 33.015625 
L 88.921875 0 
L 79.890625 0 
L 79.890625 32.71875 
Q 79.890625 40.578125 77.09375 44.375 
Q 74.3125 48.1875 68.609375 48.1875 
Q 61.625 48.1875 57.5625 43.546875 
Q 53.515625 38.921875 53.515625 30.90625 
L 53.515625 0 
L 44.484375 0 
L 44.484375 32.71875 
Q 44.484375 40.625 41.703125 44.40625 
Q 38.921875 48.1875 33.109375 48.1875 
Q 26.21875 48.1875 22.15625 43.53125 
Q 18.109375 38.875 18.109375 30.90625 
L 18.109375 0 
L 9.078125 0 
L 9.078125 54.6875 
L 18.109375 54.6875 
L 18.109375 46.1875 
Q 21.1875 51.21875 25.484375 53.609375 
Q 29.78125 56 35.6875 56 
Q 41.65625 56 45.828125 52.96875 
Q 50 49.953125 52 44.1875 
z
" id="DejaVuSans-109"/>
       <path d="M 9.421875 54.6875 
L 18.40625 54.6875 
L 18.40625 0 
L 9.421875 0 
z
M 9.421875 75.984375 
L 18.40625 75.984375 
L 18.40625 64.59375 
L 9.421875 64.59375 
z
" id="DejaVuSans-105"/>
       <path d="M 54.890625 33.015625 
L 54.890625 0 
L 45.90625 0 
L 45.90625 32.71875 
Q 45.90625 40.484375 42.875 44.328125 
Q 39.84375 48.1875 33.796875 48.1875 
Q 26.515625 48.1875 22.3125 43.546875 
Q 18.109375 38.921875 18.109375 30.90625 
L 18.109375 0 
L 9.078125 0 
L 9.078125 54.6875 
L 18.109375 54.6875 
L 18.109375 46.1875 
Q 21.34375 51.125 25.703125 53.5625 
Q 30.078125 56 35.796875 56 
Q 45.21875 56 50.046875 50.171875 
Q 54.890625 44.34375 54.890625 33.015625 
z
" id="DejaVuSans-110"/>
       <path d="M 34.28125 27.484375 
Q 23.390625 27.484375 19.1875 25 
Q 14.984375 22.515625 14.984375 16.5 
Q 14.984375 11.71875 18.140625 8.90625 
Q 21.296875 6.109375 26.703125 6.109375 
Q 34.1875 6.109375 38.703125 11.40625 
Q 43.21875 16.703125 43.21875 25.484375 
L 43.21875 27.484375 
z
M 52.203125 31.203125 
L 52.203125 0 
L 43.21875 0 
L 43.21875 8.296875 
Q 40.140625 3.328125 35.546875 0.953125 
Q 30.953125 -1.421875 24.3125 -1.421875 
Q 15.921875 -1.421875 10.953125 3.296875 
Q 6 8.015625 6 15.921875 
Q 6 25.140625 12.171875 29.828125 
Q 18.359375 34.515625 30.609375 34.515625 
L 43.21875 34.515625 
L 43.21875 35.40625 
Q 43.21875 41.609375 39.140625 45 
Q 35.0625 48.390625 27.6875 48.390625 
Q 23 48.390625 18.546875 47.265625 
Q 14.109375 46.140625 10.015625 43.890625 
L 10.015625 52.203125 
Q 14.9375 54.109375 19.578125 55.046875 
Q 24.21875 56 28.609375 56 
Q 40.484375 56 46.34375 49.84375 
Q 52.203125 43.703125 52.203125 31.203125 
z
" id="DejaVuSans-97"/>
       <path d="M 9.421875 75.984375 
L 18.40625 75.984375 
L 18.40625 0 
L 9.421875 0 
z
" id="DejaVuSans-108"/>
      </defs>
      <use xlink:href="#DejaVuSans-84"/>
      <use x="44.083984" xlink:href="#DejaVuSans-101"/>
      <use x="105.607422" xlink:href="#DejaVuSans-114"/>
      <use x="144.970703" xlink:href="#DejaVuSans-109"/>
      <use x="242.382812" xlink:href="#DejaVuSans-105"/>
      <use x="270.166016" xlink:href="#DejaVuSans-110"/>
      <use x="333.544922" xlink:href="#DejaVuSans-97"/>
      <use x="394.824219" xlink:href="#DejaVuSans-108"/>
     </g>
    </g>
   </g>
   <g id="text_6">
    <g id="patch_7">
     <path clip-path="url(#p59eb5475ae)" d="M 145.593209 103.083188 
L 150.615662 102.510486 
Q 153.00021 102.23858 152.728304 99.854032 
L 151.851123 92.161383 
Q 151.579217 89.776835 149.19467 90.048741 
L 144.172216 90.621443 
Q 141.787669 90.89335 142.059575 93.277897 
L 142.936755 100.970547 
Q 143.208662 103.355094 145.593209 103.083188 
z
" style="fill:#ffffff;stroke:#ffffff;stroke-linejoin:miter;"/>
    </g>
    <g clip-path="url(#p59eb5475ae)">
     <!-- E -->
     <g transform="translate(145.13281 99.045603)rotate(-6.505248)scale(0.08 -0.08)">
      <defs>
       <path d="M 9.8125 72.90625 
L 55.90625 72.90625 
L 55.90625 64.59375 
L 19.671875 64.59375 
L 19.671875 43.015625 
L 54.390625 43.015625 
L 54.390625 34.71875 
L 19.671875 34.71875 
L 19.671875 8.296875 
L 56.78125 8.296875 
L 56.78125 0 
L 9.8125 0 
z
" id="DejaVuSans-69"/>
      </defs>
      <use xlink:href="#DejaVuSans-69"/>
     </g>
    </g>
   </g>
   <g id="text_7">
    <g id="patch_8">
     <path clip-path="url(#p59eb5475ae)" d="M 174.481862 102.465168 
L 180.299165 103.128506 
Q 182.683712 103.400412 182.955619 101.015865 
L 183.832799 93.323215 
Q 184.104705 90.938667 181.720158 90.666761 
L 175.902855 90.003423 
Q 173.518308 89.731517 173.246402 92.116065 
L 172.369221 99.808715 
Q 172.097315 102.193262 174.481862 102.465168 
z
" style="fill:#ffffff;stroke:#ffffff;stroke-linejoin:miter;"/>
    </g>
    <g clip-path="url(#p59eb5475ae)">
     <!-- U -->
     <g transform="translate(174.942262 98.427583)rotate(-353.494752)scale(0.08 -0.08)">
      <defs>
       <path d="M 8.6875 72.90625 
L 18.609375 72.90625 
L 18.609375 28.609375 
Q 18.609375 16.890625 22.84375 11.734375 
Q 27.09375 6.59375 36.625 6.59375 
Q 46.09375 6.59375 50.34375 11.734375 
Q 54.59375 16.890625 54.59375 28.609375 
L 54.59375 72.90625 
L 64.5 72.90625 
L 64.5 27.390625 
Q 64.5 13.140625 57.4375 5.859375 
Q 50.390625 -1.421875 36.625 -1.421875 
Q 22.796875 -1.421875 15.734375 5.859375 
Q 8.6875 13.140625 8.6875 27.390625 
z
" id="DejaVuSans-85"/>
      </defs>
      <use xlink:href="#DejaVuSans-85"/>
     </g>
    </g>
   </g>
   <g id="text_8">
    <g id="patch_9">
     <path clip-path="url(#p59eb5475ae)" d="M 2.940871 12.04088 
L 2.940871 16.86463 
Q 2.940871 19.26463 5.340871 19.26463 
L 13.083371 19.26463 
Q 15.483371 19.26463 15.483371 16.86463 
L 15.483371 12.04088 
Q 15.483371 9.64088 13.083371 9.64088 
L 5.340871 9.64088 
Q 2.940871 9.64088 2.940871 12.04088 
z
" style="fill:#ffffff;stroke:#ffffff;stroke-linejoin:miter;"/>
    </g>
    <g clip-path="url(#p59eb5475ae)">
     <!-- P -->
     <g transform="translate(7.004621 12.04088)rotate(-270)scale(0.08 -0.08)">
      <use xlink:href="#DejaVuSans-80"/>
     </g>
    </g>
   </g>
   <g id="text_9">
    <g id="patch_10">
     <path clip-path="url(#p59eb5475ae)" d="M 125.769154 83.163693 
L 125.769154 116.971193 
Q 125.769154 119.371193 128.169154 119.371193 
L 135.911654 119.371193 
Q 138.311654 119.371193 138.311654 116.971193 
L 138.311654 83.163693 
Q 138.311654 80.763693 135.911654 80.763693 
L 128.169154 80.763693 
Q 125.769154 80.763693 125.769154 83.163693 
z
" style="fill:#ffffff;stroke:#ffffff;stroke-linejoin:miter;"/>
    </g>
    <g clip-path="url(#p59eb5475ae)">
     <!-- Terminal -->
     <g transform="translate(129.832904 83.163693)rotate(-270)scale(0.08 -0.08)">
      <use xlink:href="#DejaVuSans-84"/>
      <use x="44.083984" xlink:href="#DejaVuSans-101"/>
      <use x="105.607422" xlink:href="#DejaVuSans-114"/>
      <use x="144.970703" xlink:href="#DejaVuSans-109"/>
      <use x="242.382812" xlink:href="#DejaVuSans-105"/>
      <use x="270.166016" xlink:href="#DejaVuSans-110"/>
      <use x="333.544922" xlink:href="#DejaVuSans-97"/>
      <use x="394.824219" xlink:href="#DejaVuSans-108"/>
     </g>
    </g>
   </g>
   <g id="text_10">
    <g id="patch_11">
     <path clip-path="url(#p59eb5475ae)" d="M 187.183295 83.163693 
L 187.183295 116.971193 
Q 187.183295 119.371193 189.583295 119.371193 
L 197.325795 119.371193 
Q 199.725795 119.371193 199.725795 116.971193 
L 199.725795 83.163693 
Q 199.725795 80.763693 197.325795 80.763693 
L 189.583295 80.763693 
Q 187.183295 80.763693 187.183295 83.163693 
z
" style="fill:#ffffff;stroke:#ffffff;stroke-linejoin:miter;"/>
    </g>
    <g clip-path="url(#p59eb5475ae)">
     <!-- Terminal -->
     <g transform="translate(191.247045 83.163693)rotate(-270)scale(0.08 -0.08)">
      <use xlink:href="#DejaVuSans-84"/>
      <use x="44.083984" xlink:href="#DejaVuSans-101"/>
      <use x="105.607422" xlink:href="#DejaVuSans-114"/>
      <use x="144.970703" xlink:href="#DejaVuSans-109"/>
      <use x="242.382812" xlink:href="#DejaVuSans-105"/>
      <use x="270.166016" xlink:href="#DejaVuSans-110"/>
      <use x="333.544922" xlink:href="#DejaVuSans-97"/>
      <use x="394.824219" xlink:href="#DejaVuSans-108"/>
     </g>
    </g>
   </g>
   <g id="text_11">
    <g id="patch_12">
     <path clip-path="url(#p59eb5475ae)" d="M 2.940871 18.139031 
L 2.940871 22.962781 
Q 2.940871 25.362781 5.340871 25.362781 
L 13.083371 25.362781 
Q 15.483371 25.362781 15.483371 22.962781 
L 15.483371 18.139031 
Q 15.483371 15.739031 13.083371 15.739031 
L 5.340871 15.739031 
Q 2.940871 15.739031 2.940871 18.139031 
z
" style="fill:#ffffff;stroke:#ffffff;stroke-linejoin:miter;"/>
    </g>
    <g clip-path="url(#p59eb5475ae)">
     <!-- P -->
     <g transform="translate(7.004621 18.139031)rotate(-270)scale(0.08 -0.08)">
      <use xlink:href="#DejaVuSans-80"/>
     </g>
    </g>
   </g>
   <g id="text_12">
    <g id="patch_13">
     <path clip-path="url(#p59eb5475ae)" d="M 2.940871 23.992052 
L 2.940871 28.815802 
Q 2.940871 31.215802 5.340871 31.215802 
L 13.083371 31.215802 
Q 15.483371 31.215802 15.483371 28.815802 
L 15.483371 23.992052 
Q 15.483371 21.592052 13.083371 21.592052 
L 5.340871 21.592052 
Q 2.940871 21.592052 2.940871 23.992052 
z
" style="fill:#ffffff;stroke:#ffffff;stroke-linejoin:miter;"/>
    </g>
    <g clip-path="url(#p59eb5475ae)">
     <!-- P -->
     <g transform="translate(7.004621 23.992052)rotate(-270)scale(0.08 -0.08)">
      <use xlink:href="#DejaVuSans-80"/>
     </g>
    </g>
   </g>
   <g id="text_13">
    <g id="patch_14">
     <path clip-path="url(#p59eb5475ae)" d="M 2.940871 29.614076 
L 2.940871 34.437826 
Q 2.940871 36.837826 5.340871 36.837826 
L 13.083371 36.837826 
Q 15.483371 36.837826 15.483371 34.437826 
L 15.483371 29.614076 
Q 15.483371 27.214076 13.083371 27.214076 
L 5.340871 27.214076 
Q 2.940871 27.214076 2.940871 29.614076 
z
" style="fill:#ffffff;stroke:#ffffff;stroke-linejoin:miter;"/>
    </g>
    <g clip-path="url(#p59eb5475ae)">
     <!-- P -->
     <g transform="translate(7.004621 29.614076)rotate(-270)scale(0.08 -0.08)">
      <use xlink:href="#DejaVuSans-80"/>
     </g>
    </g>
   </g>
   <g id="text_14">
    <g id="patch_15">
     <path clip-path="url(#p59eb5475ae)" d="M 2.940871 35.018488 
L 2.940871 39.842238 
Q 2.940871 42.242238 5.340871 42.242238 
L 13.083371 42.242238 
Q 15.483371 42.242238 15.483371 39.842238 
L 15.483371 35.018488 
Q 15.483371 32.618488 13.083371 32.618488 
L 5.340871 32.618488 
Q 2.940871 32.618488 2.940871 35.018488 
z
" style="fill:#ffffff;stroke:#ffffff;stroke-linejoin:miter;"/>
    </g>
    <g clip-path="url(#p59eb5475ae)">
     <!-- P -->
     <g transform="translate(7.004621 35.018488)rotate(-270)scale(0.08 -0.08)">
      <use xlink:href="#DejaVuSans-80"/>
     </g>
    </g>
   </g>
   <g id="text_15">
    <g id="patch_16">
     <path clip-path="url(#p59eb5475ae)" d="M 2.940871 40.217994 
L 2.940871 45.041744 
Q 2.940871 47.441744 5.340871 47.441744 
L 13.083371 47.441744 
Q 15.483371 47.441744 15.483371 45.041744 
L 15.483371 40.217994 
Q 15.483371 37.817994 13.083371 37.817994 
L 5.340871 37.817994 
Q 2.940871 37.817994 2.940871 40.217994 
z
" style="fill:#ffffff;stroke:#ffffff;stroke-linejoin:miter;"/>
    </g>
    <g clip-path="url(#p59eb5475ae)">
     <!-- P -->
     <g transform="translate(7.004621 40.217994)rotate(-270)scale(0.08 -0.08)">
      <use xlink:href="#DejaVuSans-80"/>
     </g>
    </g>
   </g>
   <g id="text_16">
    <g id="patch_17">
     <path clip-path="url(#p59eb5475ae)" d="M 2.940871 45.224683 
L 2.940871 50.048433 
Q 2.940871 52.448433 5.340871 52.448433 
L 13.083371 52.448433 
Q 15.483371 52.448433 15.483371 50.048433 
L 15.483371 45.224683 
Q 15.483371 42.824683 13.083371 42.824683 
L 5.340871 42.824683 
Q 2.940871 42.824683 2.940871 45.224683 
z
" style="fill:#ffffff;stroke:#ffffff;stroke-linejoin:miter;"/>
    </g>
    <g clip-path="url(#p59eb5475ae)">
     <!-- P -->
     <g transform="translate(7.004621 45.224683)rotate(-270)scale(0.08 -0.08)">
      <use xlink:href="#DejaVuSans-80"/>
     </g>
    </g>
   </g>
   <g id="text_17">
    <g id="patch_18">
     <path clip-path="url(#p59eb5475ae)" d="M 2.940871 50.050086 
L 2.940871 54.873836 
Q 2.940871 57.273836 5.340871 57.273836 
L 13.083371 57.273836 
Q 15.483371 57.273836 15.483371 54.873836 
L 15.483371 50.050086 
Q 15.483371 47.650086 13.083371 47.650086 
L 5.340871 47.650086 
Q 2.940871 47.650086 2.940871 50.050086 
z
" style="fill:#ffffff;stroke:#ffffff;stroke-linejoin:miter;"/>
    </g>
    <g clip-path="url(#p59eb5475ae)">
     <!-- P -->
     <g transform="translate(7.004621 50.050086)rotate(-270)scale(0.08 -0.08)">
      <use xlink:href="#DejaVuSans-80"/>
     </g>
    </g>
   </g>
   <g id="text_18">
    <g id="patch_19">
     <path clip-path="url(#p59eb5475ae)" d="M 2.940871 54.705244 
L 2.940871 59.528994 
Q 2.940871 61.928994 5.340871 61.928994 
L 13.083371 61.928994 
Q 15.483371 61.928994 15.483371 59.528994 
L 15.483371 54.705244 
Q 15.483371 52.305244 13.083371 52.305244 
L 5.340871 52.305244 
Q 2.940871 52.305244 2.940871 54.705244 
z
" style="fill:#ffffff;stroke:#ffffff;stroke-linejoin:miter;"/>
    </g>
    <g clip-path="url(#p59eb5475ae)">
     <!-- P -->
     <g transform="translate(7.004621 54.705244)rotate(-270)scale(0.08 -0.08)">
      <use xlink:href="#DejaVuSans-80"/>
     </g>
    </g>
   </g>
   <g id="text_19">
    <g id="patch_20">
     <path clip-path="url(#p59eb5475ae)" d="M 2.940871 59.200769 
L 2.940871 64.024519 
Q 2.940871 66.424519 5.340871 66.424519 
L 13.083371 66.424519 
Q 15.483371 66.424519 15.483371 64.024519 
L 15.483371 59.200769 
Q 15.483371 56.800769 13.083371 56.800769 
L 5.340871 56.800769 
Q 2.940871 56.800769 2.940871 59.200769 
z
" style="fill:#ffffff;stroke:#ffffff;stroke-linejoin:miter;"/>
    </g>
    <g clip-path="url(#p59eb5475ae)">
     <!-- P -->
     <g transform="translate(7.004621 59.200769)rotate(-270)scale(0.08 -0.08)">
      <use xlink:href="#DejaVuSans-80"/>
     </g>
    </g>
   </g>
   <g id="text_20">
    <g id="patch_21">
     <path clip-path="url(#p59eb5475ae)" d="M 2.940871 63.546925 
L 2.940871 68.370675 
Q 2.940871 70.770675 5.340871 70.770675 
L 13.083371 70.770675 
Q 15.483371 70.770675 15.483371 68.370675 
L 15.483371 63.546925 
Q 15.483371 61.146925 13.083371 61.146925 
L 5.340871 61.146925 
Q 2.940871 61.146925 2.940871 63.546925 
z
" style="fill:#ffffff;stroke:#ffffff;stroke-linejoin:miter;"/>
    </g>
    <g clip-path="url(#p59eb5475ae)">
     <!-- P -->
     <g transform="translate(7.004621 63.546925)rotate(-270)scale(0.08 -0.08)">
      <use xlink:href="#DejaVuSans-80"/>
     </g>
    </g>
   </g>
   <g id="text_21">
    <g id="patch_22">
     <path clip-path="url(#p59eb5475ae)" d="M 2.940871 67.753705 
L 2.940871 72.577455 
Q 2.940871 74.977455 5.340871 74.977455 
L 13.083371 74.977455 
Q 15.483371 74.977455 15.483371 72.577455 
L 15.483371 67.753705 
Q 15.483371 65.353705 13.083371 65.353705 
L 5.340871 65.353705 
Q 2.940871 65.353705 2.940871 67.753705 
z
" style="fill:#ffffff;stroke:#ffffff;stroke-linejoin:miter;"/>
    </g>
    <g clip-path="url(#p59eb5475ae)">
     <!-- P -->
     <g transform="translate(7.004621 67.753705)rotate(-270)scale(0.08 -0.08)">
      <use xlink:href="#DejaVuSans-80"/>
     </g>
    </g>
   </g>
   <g id="text_22">
    <g id="patch_23">
     <path clip-path="url(#p59eb5475ae)" d="M 2.940871 71.830934 
L 2.940871 76.654684 
Q 2.940871 79.054684 5.340871 79.054684 
L 13.083371 79.054684 
Q 15.483371 79.054684 15.483371 76.654684 
L 15.483371 71.830934 
Q 15.483371 69.430934 13.083371 69.430934 
L 5.340871 69.430934 
Q 2.940871 69.430934 2.940871 71.830934 
z
" style="fill:#ffffff;stroke:#ffffff;stroke-linejoin:miter;"/>
    </g>
    <g clip-path="url(#p59eb5475ae)">
     <!-- P -->
     <g transform="translate(7.004621 71.830934)rotate(-270)scale(0.08 -0.08)">
      <use xlink:href="#DejaVuSans-80"/>
     </g>
    </g>
   </g>
   <g id="text_23">
    <g id="patch_24">
     <path clip-path="url(#p59eb5475ae)" d="M 2.940871 75.788395 
L 2.940871 80.612145 
Q 2.940871 83.012145 5.340871 83.012145 
L 13.083371 83.012145 
Q 15.483371 83.012145 15.483371 80.612145 
L 15.483371 75.788395 
Q 15.483371 73.388395 13.083371 73.388395 
L 5.340871 73.388395 
Q 2.940871 73.388395 2.940871 75.788395 
z
" style="fill:#ffffff;stroke:#ffffff;stroke-linejoin:miter;"/>
    </g>
    <g clip-path="url(#p59eb5475ae)">
     <!-- P -->
     <g transform="translate(7.004621 75.788395)rotate(-270)scale(0.08 -0.08)">
      <use xlink:href="#DejaVuSans-80"/>
     </g>
    </g>
   </g>
   <g id="text_24">
    <g id="patch_25">
     <path clip-path="url(#p59eb5475ae)" d="M 2.940871 79.636013 
L 2.940871 84.459763 
Q 2.940871 86.859763 5.340871 86.859763 
L 13.083371 86.859763 
Q 15.483371 86.859763 15.483371 84.459763 
L 15.483371 79.636013 
Q 15.483371 77.236013 13.083371 77.236013 
L 5.340871 77.236013 
Q 2.940871 77.236013 2.940871 79.636013 
z
" style="fill:#ffffff;stroke:#ffffff;stroke-linejoin:miter;"/>
    </g>
    <g clip-path="url(#p59eb5475ae)">
     <!-- P -->
     <g transform="translate(7.004621 79.636013)rotate(-270)scale(0.08 -0.08)">
      <use xlink:href="#DejaVuSans-80"/>
     </g>
    </g>
   </g>
   <g id="text_25">
    <g id="patch_26">
     <path clip-path="url(#p59eb5475ae)" d="M 2.940871 83.384115 
L 2.940871 88.207865 
Q 2.940871 90.607865 5.340871 90.607865 
L 13.083371 90.607865 
Q 15.483371 90.607865 15.483371 88.207865 
L 15.483371 83.384115 
Q 15.483371 80.984115 13.083371 80.984115 
L 5.340871 80.984115 
Q 2.940871 80.984115 2.940871 83.384115 
z
" style="fill:#ffffff;stroke:#ffffff;stroke-linejoin:miter;"/>
    </g>
    <g clip-path="url(#p59eb5475ae)">
     <!-- P -->
     <g transform="translate(7.004621 83.384115)rotate(-270)scale(0.08 -0.08)">
      <use xlink:href="#DejaVuSans-80"/>
     </g>
    </g>
   </g>
   <g id="text_26">
    <g id="patch_27">
     <path clip-path="url(#p59eb5475ae)" d="M 2.940871 87.043889 
L 2.940871 91.867639 
Q 2.940871 94.267639 5.340871 94.267639 
L 13.083371 94.267639 
Q 15.483371 94.267639 15.483371 91.867639 
L 15.483371 87.043889 
Q 15.483371 84.643889 13.083371 84.643889 
L 5.340871 84.643889 
Q 2.940871 84.643889 2.940871 87.043889 
z
" style="fill:#ffffff;stroke:#ffffff;stroke-linejoin:miter;"/>
    </g>
    <g clip-path="url(#p59eb5475ae)">
     <!-- P -->
     <g transform="translate(7.004621 87.043889)rotate(-270)scale(0.08 -0.08)">
      <use xlink:href="#DejaVuSans-80"/>
     </g>
    </g>
   </g>
   <g id="text_27">
    <g id="patch_28">
     <path clip-path="url(#p59eb5475ae)" d="M 2.940871 90.628257 
L 2.940871 95.452007 
Q 2.940871 97.852007 5.340871 97.852007 
L 13.083371 97.852007 
Q 15.483371 97.852007 15.483371 95.452007 
L 15.483371 90.628257 
Q 15.483371 88.228257 13.083371 88.228257 
L 5.340871 88.228257 
Q 2.940871 88.228257 2.940871 90.628257 
z
" style="fill:#ffffff;stroke:#ffffff;stroke-linejoin:miter;"/>
    </g>
    <g clip-path="url(#p59eb5475ae)">
     <!-- P -->
     <g transform="translate(7.004621 90.628257)rotate(-270)scale(0.08 -0.08)">
      <use xlink:href="#DejaVuSans-80"/>
     </g>
    </g>
   </g>
   <g id="text_28">
    <g id="patch_29">
     <path clip-path="url(#p59eb5475ae)" d="M 2.940871 94.15409 
L 2.940871 98.97784 
Q 2.940871 101.37784 5.340871 101.37784 
L 13.083371 101.37784 
Q 15.483371 101.37784 15.483371 98.97784 
L 15.483371 94.15409 
Q 15.483371 91.75409 13.083371 91.75409 
L 5.340871 91.75409 
Q 2.940871 91.75409 2.940871 94.15409 
z
" style="fill:#ffffff;stroke:#ffffff;stroke-linejoin:miter;"/>
    </g>
    <g clip-path="url(#p59eb5475ae)">
     <!-- P -->
     <g transform="translate(7.004621 94.15409)rotate(-270)scale(0.08 -0.08)">
      <use xlink:href="#DejaVuSans-80"/>
     </g>
    </g>
   </g>
   <g id="text_29">
    <g id="patch_30">
     <path clip-path="url(#p59eb5475ae)" d="M 2.940871 83.163693 
L 2.940871 116.971193 
Q 2.940871 119.371193 5.340871 119.371193 
L 13.083371 119.371193 
Q 15.483371 119.371193 15.483371 116.971193 
L 15.483371 83.163693 
Q 15.483371 80.763693 13.083371 80.763693 
L 5.340871 80.763693 
Q 2.940871 80.763693 2.940871 83.163693 
z
" style="fill:#ffffff;stroke:#ffffff;stroke-linejoin:miter;"/>
    </g>
    <g clip-path="url(#p59eb5475ae)">
     <!-- Terminal -->
     <g transform="translate(7.004621 83.163693)rotate(-270)scale(0.08 -0.08)">
      <use xlink:href="#DejaVuSans-84"/>
      <use x="44.083984" xlink:href="#DejaVuSans-101"/>
      <use x="105.607422" xlink:href="#DejaVuSans-114"/>
      <use x="144.970703" xlink:href="#DejaVuSans-109"/>
      <use x="242.382812" xlink:href="#DejaVuSans-105"/>
      <use x="270.166016" xlink:href="#DejaVuSans-110"/>
      <use x="333.544922" xlink:href="#DejaVuSans-97"/>
      <use x="394.824219" xlink:href="#DejaVuSans-108"/>
     </g>
    </g>
   </g>
   <g id="PathCollection_1">
    <defs>
     <path d="M 0 8.660254 
C 2.296726 8.660254 4.499694 7.747755 6.123724 6.123724 
C 7.747755 4.499694 8.660254 2.296726 8.660254 -0 
C 8.660254 -2.296726 7.747755 -4.499694 6.123724 -6.123724 
C 4.499694 -7.747755 2.296726 -8.660254 0 -8.660254 
C -2.296726 -8.660254 -4.499694 -7.747755 -6.123724 -6.123724 
C -7.747755 -4.499694 -8.660254 -2.296726 -8.660254 0 
C -8.660254 2.296726 -7.747755 4.499694 -6.123724 6.123724 
C -4.499694 7.747755 -2.296726 8.660254 0 8.660254 
z
" id="C0_0_ab14e80a65"/>
    </defs>
    <g clip-path="url(#p59eb5475ae)">
     <use style="fill:#ffffff;stroke:#ffffff;" x="9.212121" xlink:href="#C0_0_ab14e80a65" y="101.818182"/>
    </g>
    <g clip-path="url(#p59eb5475ae)">
     <use style="fill:#ffffff;stroke:#ffffff;" x="70.626263" xlink:href="#C0_0_ab14e80a65" y="101.818182"/>
    </g>
    <g clip-path="url(#p59eb5475ae)">
     <use style="fill:#ffffff;stroke:#ffffff;" x="132.040404" xlink:href="#C0_0_ab14e80a65" y="101.818182"/>
    </g>
    <g clip-path="url(#p59eb5475ae)">
     <use style="fill:#ffffff;stroke:#ffffff;" x="193.454545" xlink:href="#C0_0_ab14e80a65" y="101.818182"/>
    </g>
    <g clip-path="url(#p59eb5475ae)">
     <use style="stroke:#000000;" x="62.949495" xlink:href="#C0_0_ab14e80a65" y="4.848485"/>
    </g>
    <g clip-path="url(#p59eb5475ae)">
     <use style="stroke:#000000;" x="70.626263" xlink:href="#C0_0_ab14e80a65" y="98.316704"/>
    </g>
    <g clip-path="url(#p59eb5475ae)">
     <use style="stroke:#000000;" x="162.747475" xlink:href="#C0_0_ab14e80a65" y="94.815226"/>
    </g>
    <g clip-path="url(#p59eb5475ae)">
     <use style="stroke:#000000;" x="9.212121" xlink:href="#C0_0_ab14e80a65" y="11.340582"/>
    </g>
    <g clip-path="url(#p59eb5475ae)">
     <use style="stroke:#000000;" x="132.040404" xlink:href="#C0_0_ab14e80a65" y="98.316704"/>
    </g>
    <g clip-path="url(#p59eb5475ae)">
     <use style="stroke:#000000;" x="193.454545" xlink:href="#C0_0_ab14e80a65" y="98.316704"/>
    </g>
    <g clip-path="url(#p59eb5475ae)">
     <use style="stroke:#000000;" x="9.212121" xlink:href="#C0_0_ab14e80a65" y="17.564927"/>
    </g>
    <g clip-path="url(#p59eb5475ae)">
     <use style="stroke:#000000;" x="9.212121" xlink:href="#C0_0_ab14e80a65" y="23.536884"/>
    </g>
    <g clip-path="url(#p59eb5475ae)">
     <use style="stroke:#000000;" x="9.212121" xlink:href="#C0_0_ab14e80a65" y="29.270971"/>
    </g>
    <g clip-path="url(#p59eb5475ae)">
     <use style="stroke:#000000;" x="9.212121" xlink:href="#C0_0_ab14e80a65" y="34.780931"/>
    </g>
    <g clip-path="url(#p59eb5475ae)">
     <use style="stroke:#000000;" x="9.212121" xlink:href="#C0_0_ab14e80a65" y="40.079795"/>
    </g>
    <g clip-path="url(#p59eb5475ae)">
     <use style="stroke:#000000;" x="9.212121" xlink:href="#C0_0_ab14e80a65" y="45.179944"/>
    </g>
    <g clip-path="url(#p59eb5475ae)">
     <use style="stroke:#000000;" x="9.212121" xlink:href="#C0_0_ab14e80a65" y="50.093173"/>
    </g>
    <g clip-path="url(#p59eb5475ae)">
     <use style="stroke:#000000;" x="9.212121" xlink:href="#C0_0_ab14e80a65" y="54.83075"/>
    </g>
    <g clip-path="url(#p59eb5475ae)">
     <use style="stroke:#000000;" x="9.212121" xlink:href="#C0_0_ab14e80a65" y="59.403487"/>
    </g>
    <g clip-path="url(#p59eb5475ae)">
     <use style="stroke:#000000;" x="9.212121" xlink:href="#C0_0_ab14e80a65" y="63.821802"/>
    </g>
    <g clip-path="url(#p59eb5475ae)">
     <use style="stroke:#000000;" x="9.212121" xlink:href="#C0_0_ab14e80a65" y="68.095799"/>
    </g>
    <g clip-path="url(#p59eb5475ae)">
     <use style="stroke:#000000;" x="9.212121" xlink:href="#C0_0_ab14e80a65" y="72.235362"/>
    </g>
    <g clip-path="url(#p59eb5475ae)">
     <use style="stroke:#000000;" x="9.212121" xlink:href="#C0_0_ab14e80a65" y="76.250256"/>
    </g>
    <g clip-path="url(#p59eb5475ae)">
     <use style="stroke:#000000;" x="9.212121" xlink:href="#C0_0_ab14e80a65" y="80.150284"/>
    </g>
    <g clip-path="url(#p59eb5475ae)">
     <use style="stroke:#000000;" x="9.212121" xlink:href="#C0_0_ab14e80a65" y="83.945491"/>
    </g>
    <g clip-path="url(#p59eb5475ae)">
     <use style="stroke:#000000;" x="9.212121" xlink:href="#C0_0_ab14e80a65" y="87.646489"/>
    </g>
    <g clip-path="url(#p59eb5475ae)">
     <use style="stroke:#000000;" x="9.212121" xlink:href="#C0_0_ab14e80a65" y="91.265038"/>
    </g>
    <g clip-path="url(#p59eb5475ae)">
     <use style="stroke:#000000;" x="9.212121" xlink:href="#C0_0_ab14e80a65" y="94.815226"/>
    </g>
    <g clip-path="url(#p59eb5475ae)">
     <use style="stroke:#000000;" x="9.212121" xlink:href="#C0_0_ab14e80a65" y="98.316704"/>
    </g>
   </g>
   <g id="text_30">
    <g clip-path="url(#p59eb5475ae)">
     <!-- Are -->
     <g transform="translate(0.772277 104.577557)scale(0.1 -0.1)">
      <use xlink:href="#DejaVuSans-65"/>
      <use x="68.408203" xlink:href="#DejaVuSans-114"/>
      <use x="107.271484" xlink:href="#DejaVuSans-101"/>
     </g>
    </g>
   </g>
   <g id="text_31">
    <g clip-path="url(#p59eb5475ae)">
     <!-- cats -->
     <g transform="translate(60.248138 104.577557)scale(0.1 -0.1)">
      <defs>
       <path d="M 48.78125 52.59375 
L 48.78125 44.1875 
Q 44.96875 46.296875 41.140625 47.34375 
Q 37.3125 48.390625 33.40625 48.390625 
Q 24.65625 48.390625 19.8125 42.84375 
Q 14.984375 37.3125 14.984375 27.296875 
Q 14.984375 17.28125 19.8125 11.734375 
Q 24.65625 6.203125 33.40625 6.203125 
Q 37.3125 6.203125 41.140625 7.25 
Q 44.96875 8.296875 48.78125 10.40625 
L 48.78125 2.09375 
Q 45.015625 0.34375 40.984375 -0.53125 
Q 36.96875 -1.421875 32.421875 -1.421875 
Q 20.0625 -1.421875 12.78125 6.34375 
Q 5.515625 14.109375 5.515625 27.296875 
Q 5.515625 40.671875 12.859375 48.328125 
Q 20.21875 56 33.015625 56 
Q 37.15625 56 41.109375 55.140625 
Q 45.0625 54.296875 48.78125 52.59375 
z
" id="DejaVuSans-99"/>
       <path d="M 18.3125 70.21875 
L 18.3125 54.6875 
L 36.8125 54.6875 
L 36.8125 47.703125 
L 18.3125 47.703125 
L 18.3125 18.015625 
Q 18.3125 11.328125 20.140625 9.421875 
Q 21.96875 7.515625 27.59375 7.515625 
L 36.8125 7.515625 
L 36.8125 0 
L 27.59375 0 
Q 17.1875 0 13.234375 3.875 
Q 9.28125 7.765625 9.28125 18.015625 
L 9.28125 47.703125 
L 2.6875 47.703125 
L 2.6875 54.6875 
L 9.28125 54.6875 
L 9.28125 70.21875 
z
" id="DejaVuSans-116"/>
       <path d="M 44.28125 53.078125 
L 44.28125 44.578125 
Q 40.484375 46.53125 36.375 47.5 
Q 32.28125 48.484375 27.875 48.484375 
Q 21.1875 48.484375 17.84375 46.4375 
Q 14.5 44.390625 14.5 40.28125 
Q 14.5 37.15625 16.890625 35.375 
Q 19.28125 33.59375 26.515625 31.984375 
L 29.59375 31.296875 
Q 39.15625 29.25 43.1875 25.515625 
Q 47.21875 21.78125 47.21875 15.09375 
Q 47.21875 7.46875 41.1875 3.015625 
Q 35.15625 -1.421875 24.609375 -1.421875 
Q 20.21875 -1.421875 15.453125 -0.5625 
Q 10.6875 0.296875 5.421875 2 
L 5.421875 11.28125 
Q 10.40625 8.6875 15.234375 7.390625 
Q 20.0625 6.109375 24.8125 6.109375 
Q 31.15625 6.109375 34.5625 8.28125 
Q 37.984375 10.453125 37.984375 14.40625 
Q 37.984375 18.0625 35.515625 20.015625 
Q 33.0625 21.96875 24.703125 23.78125 
L 21.578125 24.515625 
Q 13.234375 26.265625 9.515625 29.90625 
Q 5.8125 33.546875 5.8125 39.890625 
Q 5.8125 47.609375 11.28125 51.796875 
Q 16.75 56 26.8125 56 
Q 31.78125 56 36.171875 55.265625 
Q 40.578125 54.546875 44.28125 53.078125 
z
" id="DejaVuSans-115"/>
      </defs>
      <use xlink:href="#DejaVuSans-99"/>
      <use x="54.980469" xlink:href="#DejaVuSans-97"/>
      <use x="116.259766" xlink:href="#DejaVuSans-116"/>
      <use x="155.46875" xlink:href="#DejaVuSans-115"/>
     </g>
    </g>
   </g>
   <g id="text_32">
    <g clip-path="url(#p59eb5475ae)">
     <!-- animals -->
     <g transform="translate(112.490404 104.577557)scale(0.1 -0.1)">
      <use xlink:href="#DejaVuSans-97"/>
      <use x="61.279297" xlink:href="#DejaVuSans-110"/>
      <use x="124.658203" xlink:href="#DejaVuSans-105"/>
      <use x="152.441406" xlink:href="#DejaVuSans-109"/>
      <use x="249.853516" xlink:href="#DejaVuSans-97"/>
      <use x="311.132812" xlink:href="#DejaVuSans-108"/>
      <use x="338.916016" xlink:href="#DejaVuSans-115"/>
     </g>
    </g>
   </g>
   <g id="text_33">
    <g clip-path="url(#p59eb5475ae)">
     <!-- ? -->
     <g transform="translate(190.800639 104.577557)scale(0.1 -0.1)">
      <defs>
       <path d="M 19.09375 12.40625 
L 29 12.40625 
L 29 0 
L 19.09375 0 
z
M 28.71875 19.578125 
L 19.390625 19.578125 
L 19.390625 27.09375 
Q 19.390625 32.03125 20.75 35.203125 
Q 22.125 38.375 26.515625 42.578125 
L 30.90625 46.921875 
Q 33.6875 49.515625 34.9375 51.8125 
Q 36.1875 54.109375 36.1875 56.5 
Q 36.1875 60.84375 32.984375 63.53125 
Q 29.78125 66.21875 24.515625 66.21875 
Q 20.65625 66.21875 16.28125 64.5 
Q 11.921875 62.796875 7.171875 59.515625 
L 7.171875 68.703125 
Q 11.765625 71.484375 16.46875 72.84375 
Q 21.1875 74.21875 26.21875 74.21875 
Q 35.203125 74.21875 40.640625 69.484375 
Q 46.09375 64.75 46.09375 56.984375 
Q 46.09375 53.265625 44.328125 49.921875 
Q 42.578125 46.578125 38.1875 42.390625 
L 33.890625 38.1875 
Q 31.59375 35.890625 30.640625 34.59375 
Q 29.6875 33.296875 29.296875 32.078125 
Q 29 31.0625 28.859375 29.59375 
Q 28.71875 28.125 28.71875 25.59375 
z
" id="DejaVuSans-63"/>
      </defs>
      <use xlink:href="#DejaVuSans-63"/>
     </g>
    </g>
   </g>
  </g>
 </g>
 <defs>
  <clipPath id="p59eb5475ae">
   <rect height="106.666667" width="202.666667" x="0" y="0"/>
  </clipPath>
 </defs>
</svg>
