<?xml version="1.0" encoding="utf-8" standalone="no"?>
<!DOCTYPE svg PUBLIC "-//W3C//DTD SVG 1.1//EN"
  "http://www.w3.org/Graphics/SVG/1.1/DTD/svg11.dtd">
<!-- Created with matplotlib (https://matplotlib.org/) -->
<svg height="133.333333pt" version="1.1" viewBox="0 0 253.333333 133.333333" width="253.333333pt" xmlns="http://www.w3.org/2000/svg" xmlns:xlink="http://www.w3.org/1999/xlink">
 <metadata>
  <rdf:RDF xmlns:cc="http://creativecommons.org/ns#" xmlns:dc="http://purl.org/dc/elements/1.1/" xmlns:rdf="http://www.w3.org/1999/02/22-rdf-syntax-ns#">
   <cc:Work>
    <dc:type rdf:resource="http://purl.org/dc/dcmitype/StillImage"/>
    <dc:date>2021-05-19T11:42:22.319004</dc:date>
    <dc:format>image/svg+xml</dc:format>
    <dc:creator>
     <cc:Agent>
      <dc:title>Matplotlib v3.3.4, https://matplotlib.org/</dc:title>
     </cc:Agent>
    </dc:creator>
   </cc:Work>
  </rdf:RDF>
 </metadata>
 <defs>
  <style type="text/css">*{stroke-linecap:butt;stroke-linejoin:round;}</style>
 </defs>
 <g id="figure_1">
  <g id="patch_1">
   <path d="M 0 133.333333 
L 253.333333 133.333333 
L 253.333333 0 
L 0 0 
z
" style="fill:#ffffff;"/>
  </g>
  <g id="axes_1">
   <g id="LineCollection_1">
    <path clip-path="url(#pd32eef9412)" d="M 97.878788 6.060606 
L 69.090909 122.89588 
" style="fill:none;stroke:#000000;"/>
    <path clip-path="url(#pd32eef9412)" d="M 97.878788 6.060606 
L 155.454545 118.519032 
" style="fill:none;stroke:#000000;"/>
    <path clip-path="url(#pd32eef9412)" d="M 97.878788 6.060606 
L 241.818182 122.89588 
" style="fill:none;stroke:#000000;"/>
    <path clip-path="url(#pd32eef9412)" d="M 97.878788 6.060606 
L 11.515152 14.175728 
" style="fill:none;stroke:#000000;"/>
    <path clip-path="url(#pd32eef9412)" d="M 97.878788 6.060606 
L 11.515152 122.89588 
" style="fill:none;stroke:#000000;stroke-dasharray:3.7,1.6;stroke-dashoffset:0;"/>
    <path clip-path="url(#pd32eef9412)" d="M 69.090909 122.89588 
L 69.090909 127.272727 
" style="fill:none;stroke:#000000;"/>
    <path clip-path="url(#pd32eef9412)" d="M 155.454545 118.519032 
L 126.666667 122.89588 
" style="fill:none;stroke:#000000;"/>
    <path clip-path="url(#pd32eef9412)" d="M 155.454545 118.519032 
L 184.242424 122.89588 
" style="fill:none;stroke:#000000;"/>
    <path clip-path="url(#pd32eef9412)" d="M 241.818182 122.89588 
L 241.818182 127.272727 
" style="fill:none;stroke:#000000;"/>
    <path clip-path="url(#pd32eef9412)" d="M 11.515152 14.175728 
L 11.515152 21.956159 
" style="fill:none;stroke:#000000;"/>
    <path clip-path="url(#pd32eef9412)" d="M 126.666667 122.89588 
L 126.666667 127.272727 
" style="fill:none;stroke:#000000;"/>
    <path clip-path="url(#pd32eef9412)" d="M 184.242424 122.89588 
L 184.242424 127.272727 
" style="fill:none;stroke:#000000;"/>
    <path clip-path="url(#pd32eef9412)" d="M 11.515152 21.956159 
L 11.515152 29.421105 
" style="fill:none;stroke:#000000;"/>
    <path clip-path="url(#pd32eef9412)" d="M 11.515152 29.421105 
L 11.515152 36.588713 
" style="fill:none;stroke:#000000;"/>
    <path clip-path="url(#pd32eef9412)" d="M 11.515152 36.588713 
L 11.515152 43.476163 
" style="fill:none;stroke:#000000;"/>
    <path clip-path="url(#pd32eef9412)" d="M 11.515152 43.476163 
L 11.515152 50.099743 
" style="fill:none;stroke:#000000;"/>
    <path clip-path="url(#pd32eef9412)" d="M 11.515152 50.099743 
L 11.515152 56.47493 
" style="fill:none;stroke:#000000;"/>
    <path clip-path="url(#pd32eef9412)" d="M 11.515152 56.47493 
L 11.515152 62.616466 
" style="fill:none;stroke:#000000;"/>
    <path clip-path="url(#pd32eef9412)" d="M 11.515152 62.616466 
L 11.515152 68.538438 
" style="fill:none;stroke:#000000;"/>
    <path clip-path="url(#pd32eef9412)" d="M 11.515152 68.538438 
L 11.515152 74.254359 
" style="fill:none;stroke:#000000;"/>
    <path clip-path="url(#pd32eef9412)" d="M 11.515152 74.254359 
L 11.515152 79.777252 
" style="fill:none;stroke:#000000;"/>
    <path clip-path="url(#pd32eef9412)" d="M 11.515152 79.777252 
L 11.515152 85.119749 
" style="fill:none;stroke:#000000;"/>
    <path clip-path="url(#pd32eef9412)" d="M 11.515152 85.119749 
L 11.515152 90.294202 
" style="fill:none;stroke:#000000;"/>
    <path clip-path="url(#pd32eef9412)" d="M 11.515152 90.294202 
L 11.515152 95.31282 
" style="fill:none;stroke:#000000;"/>
    <path clip-path="url(#pd32eef9412)" d="M 11.515152 95.31282 
L 11.515152 100.187855 
" style="fill:none;stroke:#000000;"/>
    <path clip-path="url(#pd32eef9412)" d="M 11.515152 100.187855 
L 11.515152 104.931863 
" style="fill:none;stroke:#000000;"/>
    <path clip-path="url(#pd32eef9412)" d="M 11.515152 104.931863 
L 11.515152 109.558111 
" style="fill:none;stroke:#000000;"/>
    <path clip-path="url(#pd32eef9412)" d="M 11.515152 109.558111 
L 11.515152 114.081298 
" style="fill:none;stroke:#000000;"/>
    <path clip-path="url(#pd32eef9412)" d="M 11.515152 114.081298 
L 11.515152 118.519032 
" style="fill:none;stroke:#000000;"/>
    <path clip-path="url(#pd32eef9412)" d="M 11.515152 118.519032 
L 11.515152 122.89588 
" style="fill:none;stroke:#000000;"/>
    <path clip-path="url(#pd32eef9412)" d="M 11.515152 122.89588 
L 11.515152 127.272727 
" style="fill:none;stroke:#000000;"/>
   </g>
   <g id="text_1">
    <g id="patch_2">
     <path clip-path="url(#pd32eef9412)" d="M 89.023576 68.212403 
L 90.124387 63.744773 
Q 90.698567 61.414469 88.368263 60.840289 
L 80.850605 58.987959 
Q 78.520301 58.413779 77.946121 60.744083 
L 76.84531 65.211713 
Q 76.27113 67.542017 78.601434 68.116197 
L 86.119092 69.968527 
Q 88.449396 70.542707 89.023576 68.212403 
z
" style="fill:#ffffff;stroke:#ffffff;stroke-linejoin:miter;"/>
    </g>
    <g clip-path="url(#pd32eef9412)">
     <!-- F -->
     <g transform="translate(85.077837 67.240184)rotate(-76.158206)scale(0.08 -0.08)">
      <defs>
       <path d="M 9.8125 72.90625 
L 51.703125 72.90625 
L 51.703125 64.59375 
L 19.671875 64.59375 
L 19.671875 43.109375 
L 48.578125 43.109375 
L 48.578125 34.8125 
L 19.671875 34.8125 
L 19.671875 0 
L 9.8125 0 
z
" id="DejaVuSans-70"/>
      </defs>
      <use xlink:href="#DejaVuSans-70"/>
     </g>
    </g>
   </g>
   <g id="text_2">
    <g id="patch_3">
     <path clip-path="url(#pd32eef9412)" d="M 119.837518 62.712152 
L 122.331444 67.583351 
Q 123.425171 69.719647 125.561467 68.62592 
L 132.453247 65.09751 
Q 134.589543 64.003783 133.495816 61.867487 
L 131.001889 56.996287 
Q 129.908162 54.859991 127.771866 55.953718 
L 120.880086 59.482128 
Q 118.74379 60.575856 119.837518 62.712152 
z
" style="fill:#ffffff;stroke:#ffffff;stroke-linejoin:miter;"/>
    </g>
    <g clip-path="url(#pd32eef9412)">
     <!-- A -->
     <g transform="translate(123.454756 60.86022)rotate(-297.111253)scale(0.08 -0.08)">
      <defs>
       <path d="M 34.1875 63.1875 
L 20.796875 26.90625 
L 47.609375 26.90625 
z
M 28.609375 72.90625 
L 39.796875 72.90625 
L 67.578125 0 
L 57.328125 0 
L 50.6875 18.703125 
L 17.828125 18.703125 
L 11.1875 0 
L 0.78125 0 
z
" id="DejaVuSans-65"/>
      </defs>
      <use xlink:href="#DejaVuSans-65"/>
     </g>
    </g>
   </g>
   <g id="text_3">
    <g id="patch_4">
     <path clip-path="url(#pd32eef9412)" d="M 163.623268 67.502398 
L 168.1692 71.19232 
Q 170.032605 72.704842 171.545127 70.841437 
L 176.424585 64.830014 
Q 177.937106 62.966609 176.073701 61.454088 
L 171.527769 57.764165 
Q 169.664364 56.251644 168.151843 58.115049 
L 163.272385 64.126471 
Q 161.759863 65.989876 163.623268 67.502398 
z
" style="fill:#ffffff;stroke:#ffffff;stroke-linejoin:miter;"/>
    </g>
    <g clip-path="url(#pd32eef9412)">
     <!-- U -->
     <g transform="translate(166.184314 64.347226)rotate(-320.933842)scale(0.08 -0.08)">
      <defs>
       <path d="M 8.6875 72.90625 
L 18.609375 72.90625 
L 18.609375 28.609375 
Q 18.609375 16.890625 22.84375 11.734375 
Q 27.09375 6.59375 36.625 6.59375 
Q 46.09375 6.59375 50.34375 11.734375 
Q 54.59375 16.890625 54.59375 28.609375 
L 54.59375 72.90625 
L 64.5 72.90625 
L 64.5 27.390625 
Q 64.5 13.140625 57.4375 5.859375 
Q 50.390625 -1.421875 36.625 -1.421875 
Q 22.796875 -1.421875 15.734375 5.859375 
Q 8.6875 13.140625 8.6875 27.390625 
z
" id="DejaVuSans-85"/>
      </defs>
      <use xlink:href="#DejaVuSans-85"/>
     </g>
    </g>
   </g>
   <g id="text_4">
    <g id="patch_5">
     <path clip-path="url(#pd32eef9412)" d="M 52.882363 16.58755 
L 57.684958 16.136277 
Q 60.074432 15.911751 59.849907 13.522276 
L 59.125576 5.813732 
Q 58.901051 3.424258 56.511576 3.648784 
L 51.708981 4.100057 
Q 49.319507 4.324583 49.544033 6.714058 
L 50.268363 14.422602 
Q 50.492889 16.812076 52.882363 16.58755 
z
" style="fill:#ffffff;stroke:#ffffff;stroke-linejoin:miter;"/>
    </g>
    <g clip-path="url(#pd32eef9412)">
     <!-- P -->
     <g transform="translate(52.502189 12.541622)rotate(-5.368011)scale(0.08 -0.08)">
      <defs>
       <path d="M 19.671875 64.796875 
L 19.671875 37.40625 
L 32.078125 37.40625 
Q 38.96875 37.40625 42.71875 40.96875 
Q 46.484375 44.53125 46.484375 51.125 
Q 46.484375 57.671875 42.71875 61.234375 
Q 38.96875 64.796875 32.078125 64.796875 
z
M 9.8125 72.90625 
L 32.078125 72.90625 
Q 44.34375 72.90625 50.609375 67.359375 
Q 56.890625 61.8125 56.890625 51.125 
Q 56.890625 40.328125 50.609375 34.8125 
Q 44.34375 29.296875 32.078125 29.296875 
L 19.671875 29.296875 
L 19.671875 0 
L 9.8125 0 
z
" id="DejaVuSans-80"/>
      </defs>
      <use xlink:href="#DejaVuSans-80"/>
     </g>
    </g>
   </g>
   <g id="text_5">
    <g id="patch_6">
     <path clip-path="url(#pd32eef9412)" d="M 58.113523 70.40638 
L 61.366502 66.005654 
Q 62.793116 64.075688 60.86315 62.649073 
L 54.636998 58.046754 
Q 52.707031 56.62014 51.280417 58.550106 
L 48.027438 62.950832 
Q 46.600823 64.880798 48.53079 66.307413 
L 54.756942 70.909731 
Q 56.686908 72.336346 58.113523 70.40638 
z
" style="fill:#ffffff;stroke:#ffffff;stroke-linejoin:miter;"/>
    </g>
    <g clip-path="url(#pd32eef9412)">
     <!-- A -->
     <g transform="translate(54.845647 67.990794)rotate(-53.528505)scale(0.08 -0.08)">
      <use xlink:href="#DejaVuSans-65"/>
     </g>
    </g>
   </g>
   <g id="text_6">
    <g id="patch_7">
     <path clip-path="url(#pd32eef9412)" d="M 62.819659 108.180553 
L 62.819659 141.988053 
Q 62.819659 144.388053 65.219659 144.388053 
L 72.962159 144.388053 
Q 75.362159 144.388053 75.362159 141.988053 
L 75.362159 108.180553 
Q 75.362159 105.780553 72.962159 105.780553 
L 65.219659 105.780553 
Q 62.819659 105.780553 62.819659 108.180553 
z
" style="fill:#ffffff;stroke:#ffffff;stroke-linejoin:miter;"/>
    </g>
    <g clip-path="url(#pd32eef9412)">
     <!-- Terminal -->
     <g transform="translate(66.883409 108.180553)rotate(-270)scale(0.08 -0.08)">
      <defs>
       <path d="M -0.296875 72.90625 
L 61.375 72.90625 
L 61.375 64.59375 
L 35.5 64.59375 
L 35.5 0 
L 25.59375 0 
L 25.59375 64.59375 
L -0.296875 64.59375 
z
" id="DejaVuSans-84"/>
       <path d="M 56.203125 29.59375 
L 56.203125 25.203125 
L 14.890625 25.203125 
Q 15.484375 15.921875 20.484375 11.0625 
Q 25.484375 6.203125 34.421875 6.203125 
Q 39.59375 6.203125 44.453125 7.46875 
Q 49.3125 8.734375 54.109375 11.28125 
L 54.109375 2.78125 
Q 49.265625 0.734375 44.1875 -0.34375 
Q 39.109375 -1.421875 33.890625 -1.421875 
Q 20.796875 -1.421875 13.15625 6.1875 
Q 5.515625 13.8125 5.515625 26.8125 
Q 5.515625 40.234375 12.765625 48.109375 
Q 20.015625 56 32.328125 56 
Q 43.359375 56 49.78125 48.890625 
Q 56.203125 41.796875 56.203125 29.59375 
z
M 47.21875 32.234375 
Q 47.125 39.59375 43.09375 43.984375 
Q 39.0625 48.390625 32.421875 48.390625 
Q 24.90625 48.390625 20.390625 44.140625 
Q 15.875 39.890625 15.1875 32.171875 
z
" id="DejaVuSans-101"/>
       <path d="M 41.109375 46.296875 
Q 39.59375 47.171875 37.8125 47.578125 
Q 36.03125 48 33.890625 48 
Q 26.265625 48 22.1875 43.046875 
Q 18.109375 38.09375 18.109375 28.8125 
L 18.109375 0 
L 9.078125 0 
L 9.078125 54.6875 
L 18.109375 54.6875 
L 18.109375 46.1875 
Q 20.953125 51.171875 25.484375 53.578125 
Q 30.03125 56 36.53125 56 
Q 37.453125 56 38.578125 55.875 
Q 39.703125 55.765625 41.0625 55.515625 
z
" id="DejaVuSans-114"/>
       <path d="M 52 44.1875 
Q 55.375 50.25 60.0625 53.125 
Q 64.75 56 71.09375 56 
Q 79.640625 56 84.28125 50.015625 
Q 88.921875 44.046875 88.921875 33.015625 
L 88.921875 0 
L 79.890625 0 
L 79.890625 32.71875 
Q 79.890625 40.578125 77.09375 44.375 
Q 74.3125 48.1875 68.609375 48.1875 
Q 61.625 48.1875 57.5625 43.546875 
Q 53.515625 38.921875 53.515625 30.90625 
L 53.515625 0 
L 44.484375 0 
L 44.484375 32.71875 
Q 44.484375 40.625 41.703125 44.40625 
Q 38.921875 48.1875 33.109375 48.1875 
Q 26.21875 48.1875 22.15625 43.53125 
Q 18.109375 38.875 18.109375 30.90625 
L 18.109375 0 
L 9.078125 0 
L 9.078125 54.6875 
L 18.109375 54.6875 
L 18.109375 46.1875 
Q 21.1875 51.21875 25.484375 53.609375 
Q 29.78125 56 35.6875 56 
Q 41.65625 56 45.828125 52.96875 
Q 50 49.953125 52 44.1875 
z
" id="DejaVuSans-109"/>
       <path d="M 9.421875 54.6875 
L 18.40625 54.6875 
L 18.40625 0 
L 9.421875 0 
z
M 9.421875 75.984375 
L 18.40625 75.984375 
L 18.40625 64.59375 
L 9.421875 64.59375 
z
" id="DejaVuSans-105"/>
       <path d="M 54.890625 33.015625 
L 54.890625 0 
L 45.90625 0 
L 45.90625 32.71875 
Q 45.90625 40.484375 42.875 44.328125 
Q 39.84375 48.1875 33.796875 48.1875 
Q 26.515625 48.1875 22.3125 43.546875 
Q 18.109375 38.921875 18.109375 30.90625 
L 18.109375 0 
L 9.078125 0 
L 9.078125 54.6875 
L 18.109375 54.6875 
L 18.109375 46.1875 
Q 21.34375 51.125 25.703125 53.5625 
Q 30.078125 56 35.796875 56 
Q 45.21875 56 50.046875 50.171875 
Q 54.890625 44.34375 54.890625 33.015625 
z
" id="DejaVuSans-110"/>
       <path d="M 34.28125 27.484375 
Q 23.390625 27.484375 19.1875 25 
Q 14.984375 22.515625 14.984375 16.5 
Q 14.984375 11.71875 18.140625 8.90625 
Q 21.296875 6.109375 26.703125 6.109375 
Q 34.1875 6.109375 38.703125 11.40625 
Q 43.21875 16.703125 43.21875 25.484375 
L 43.21875 27.484375 
z
M 52.203125 31.203125 
L 52.203125 0 
L 43.21875 0 
L 43.21875 8.296875 
Q 40.140625 3.328125 35.546875 0.953125 
Q 30.953125 -1.421875 24.3125 -1.421875 
Q 15.921875 -1.421875 10.953125 3.296875 
Q 6 8.015625 6 15.921875 
Q 6 25.140625 12.171875 29.828125 
Q 18.359375 34.515625 30.609375 34.515625 
L 43.21875 34.515625 
L 43.21875 35.40625 
Q 43.21875 41.609375 39.140625 45 
Q 35.0625 48.390625 27.6875 48.390625 
Q 23 48.390625 18.546875 47.265625 
Q 14.109375 46.140625 10.015625 43.890625 
L 10.015625 52.203125 
Q 14.9375 54.109375 19.578125 55.046875 
Q 24.21875 56 28.609375 56 
Q 40.484375 56 46.34375 49.84375 
Q 52.203125 43.703125 52.203125 31.203125 
z
" id="DejaVuSans-97"/>
       <path d="M 9.421875 75.984375 
L 18.40625 75.984375 
L 18.40625 0 
L 9.421875 0 
z
" id="DejaVuSans-108"/>
      </defs>
      <use xlink:href="#DejaVuSans-84"/>
      <use x="44.083984" xlink:href="#DejaVuSans-101"/>
      <use x="105.607422" xlink:href="#DejaVuSans-114"/>
      <use x="144.970703" xlink:href="#DejaVuSans-109"/>
      <use x="242.382812" xlink:href="#DejaVuSans-105"/>
      <use x="270.166016" xlink:href="#DejaVuSans-110"/>
      <use x="333.544922" xlink:href="#DejaVuSans-97"/>
      <use x="394.824219" xlink:href="#DejaVuSans-108"/>
     </g>
    </g>
   </g>
   <g id="text_7">
    <g id="patch_8">
     <path clip-path="url(#pd32eef9412)" d="M 139.504456 127.287367 
L 144.502026 126.527547 
Q 146.874759 126.166802 146.514014 123.794069 
L 145.350234 116.139533 
Q 144.989489 113.766799 142.616756 114.127545 
L 137.619186 114.887364 
Q 135.246453 115.24811 135.607199 117.620843 
L 136.770978 125.275379 
Q 137.131723 127.648112 139.504456 127.287367 
z
" style="fill:#ffffff;stroke:#ffffff;stroke-linejoin:miter;"/>
    </g>
    <g clip-path="url(#pd32eef9412)">
     <!-- E -->
     <g transform="translate(138.893632 123.269786)rotate(-8.644923)scale(0.08 -0.08)">
      <defs>
       <path d="M 9.8125 72.90625 
L 55.90625 72.90625 
L 55.90625 64.59375 
L 19.671875 64.59375 
L 19.671875 43.015625 
L 54.390625 43.015625 
L 54.390625 34.71875 
L 19.671875 34.71875 
L 19.671875 8.296875 
L 56.78125 8.296875 
L 56.78125 0 
L 9.8125 0 
z
" id="DejaVuSans-69"/>
      </defs>
      <use xlink:href="#DejaVuSans-69"/>
     </g>
    </g>
   </g>
   <g id="text_8">
    <g id="patch_9">
     <path clip-path="url(#pd32eef9412)" d="M 166.144458 126.487621 
L 171.667242 127.327293 
Q 174.039975 127.688039 174.40072 125.315305 
L 175.5645 117.660769 
Q 175.925245 115.288036 173.552512 114.927291 
L 168.029728 114.087618 
Q 165.656995 113.726873 165.296249 116.099606 
L 164.13247 123.754143 
Q 163.771725 126.126876 166.144458 126.487621 
z
" style="fill:#ffffff;stroke:#ffffff;stroke-linejoin:miter;"/>
    </g>
    <g clip-path="url(#pd32eef9412)">
     <!-- C -->
     <g transform="translate(166.755282 122.47004)rotate(-351.355077)scale(0.08 -0.08)">
      <defs>
       <path d="M 64.40625 67.28125 
L 64.40625 56.890625 
Q 59.421875 61.53125 53.78125 63.8125 
Q 48.140625 66.109375 41.796875 66.109375 
Q 29.296875 66.109375 22.65625 58.46875 
Q 16.015625 50.828125 16.015625 36.375 
Q 16.015625 21.96875 22.65625 14.328125 
Q 29.296875 6.6875 41.796875 6.6875 
Q 48.140625 6.6875 53.78125 8.984375 
Q 59.421875 11.28125 64.40625 15.921875 
L 64.40625 5.609375 
Q 59.234375 2.09375 53.4375 0.328125 
Q 47.65625 -1.421875 41.21875 -1.421875 
Q 24.65625 -1.421875 15.125 8.703125 
Q 5.609375 18.84375 5.609375 36.375 
Q 5.609375 53.953125 15.125 64.078125 
Q 24.65625 74.21875 41.21875 74.21875 
Q 47.75 74.21875 53.53125 72.484375 
Q 59.328125 70.75 64.40625 67.28125 
z
" id="DejaVuSans-67"/>
      </defs>
      <use xlink:href="#DejaVuSans-67"/>
     </g>
    </g>
   </g>
   <g id="text_9">
    <g id="patch_10">
     <path clip-path="url(#pd32eef9412)" d="M 235.546932 108.180553 
L 235.546932 141.988053 
Q 235.546932 144.388053 237.946932 144.388053 
L 245.689432 144.388053 
Q 248.089432 144.388053 248.089432 141.988053 
L 248.089432 108.180553 
Q 248.089432 105.780553 245.689432 105.780553 
L 237.946932 105.780553 
Q 235.546932 105.780553 235.546932 108.180553 
z
" style="fill:#ffffff;stroke:#ffffff;stroke-linejoin:miter;"/>
    </g>
    <g clip-path="url(#pd32eef9412)">
     <!-- Terminal -->
     <g transform="translate(239.610682 108.180553)rotate(-270)scale(0.08 -0.08)">
      <use xlink:href="#DejaVuSans-84"/>
      <use x="44.083984" xlink:href="#DejaVuSans-101"/>
      <use x="105.607422" xlink:href="#DejaVuSans-114"/>
      <use x="144.970703" xlink:href="#DejaVuSans-109"/>
      <use x="242.382812" xlink:href="#DejaVuSans-105"/>
      <use x="270.166016" xlink:href="#DejaVuSans-110"/>
      <use x="333.544922" xlink:href="#DejaVuSans-97"/>
      <use x="394.824219" xlink:href="#DejaVuSans-108"/>
     </g>
    </g>
   </g>
   <g id="text_10">
    <g id="patch_11">
     <path clip-path="url(#pd32eef9412)" d="M 5.243902 15.654068 
L 5.243902 20.477818 
Q 5.243902 22.877818 7.643902 22.877818 
L 15.386402 22.877818 
Q 17.786402 22.877818 17.786402 20.477818 
L 17.786402 15.654068 
Q 17.786402 13.254068 15.386402 13.254068 
L 7.643902 13.254068 
Q 5.243902 13.254068 5.243902 15.654068 
z
" style="fill:#ffffff;stroke:#ffffff;stroke-linejoin:miter;"/>
    </g>
    <g clip-path="url(#pd32eef9412)">
     <!-- P -->
     <g transform="translate(9.307652 15.654068)rotate(-270)scale(0.08 -0.08)">
      <use xlink:href="#DejaVuSans-80"/>
     </g>
    </g>
   </g>
   <g id="text_11">
    <g id="patch_12">
     <path clip-path="url(#pd32eef9412)" d="M 120.395417 108.180553 
L 120.395417 141.988053 
Q 120.395417 144.388053 122.795417 144.388053 
L 130.537917 144.388053 
Q 132.937917 144.388053 132.937917 141.988053 
L 132.937917 108.180553 
Q 132.937917 105.780553 130.537917 105.780553 
L 122.795417 105.780553 
Q 120.395417 105.780553 120.395417 108.180553 
z
" style="fill:#ffffff;stroke:#ffffff;stroke-linejoin:miter;"/>
    </g>
    <g clip-path="url(#pd32eef9412)">
     <!-- Terminal -->
     <g transform="translate(124.459167 108.180553)rotate(-270)scale(0.08 -0.08)">
      <use xlink:href="#DejaVuSans-84"/>
      <use x="44.083984" xlink:href="#DejaVuSans-101"/>
      <use x="105.607422" xlink:href="#DejaVuSans-114"/>
      <use x="144.970703" xlink:href="#DejaVuSans-109"/>
      <use x="242.382812" xlink:href="#DejaVuSans-105"/>
      <use x="270.166016" xlink:href="#DejaVuSans-110"/>
      <use x="333.544922" xlink:href="#DejaVuSans-97"/>
      <use x="394.824219" xlink:href="#DejaVuSans-108"/>
     </g>
    </g>
   </g>
   <g id="text_12">
    <g id="patch_13">
     <path clip-path="url(#pd32eef9412)" d="M 177.971174 108.180553 
L 177.971174 141.988053 
Q 177.971174 144.388053 180.371174 144.388053 
L 188.113674 144.388053 
Q 190.513674 144.388053 190.513674 141.988053 
L 190.513674 108.180553 
Q 190.513674 105.780553 188.113674 105.780553 
L 180.371174 105.780553 
Q 177.971174 105.780553 177.971174 108.180553 
z
" style="fill:#ffffff;stroke:#ffffff;stroke-linejoin:miter;"/>
    </g>
    <g clip-path="url(#pd32eef9412)">
     <!-- Terminal -->
     <g transform="translate(182.034924 108.180553)rotate(-270)scale(0.08 -0.08)">
      <use xlink:href="#DejaVuSans-84"/>
      <use x="44.083984" xlink:href="#DejaVuSans-101"/>
      <use x="105.607422" xlink:href="#DejaVuSans-114"/>
      <use x="144.970703" xlink:href="#DejaVuSans-109"/>
      <use x="242.382812" xlink:href="#DejaVuSans-105"/>
      <use x="270.166016" xlink:href="#DejaVuSans-110"/>
      <use x="333.544922" xlink:href="#DejaVuSans-97"/>
      <use x="394.824219" xlink:href="#DejaVuSans-108"/>
     </g>
    </g>
   </g>
   <g id="text_13">
    <g id="patch_14">
     <path clip-path="url(#pd32eef9412)" d="M 5.243902 23.276757 
L 5.243902 28.100507 
Q 5.243902 30.500507 7.643902 30.500507 
L 15.386402 30.500507 
Q 17.786402 30.500507 17.786402 28.100507 
L 17.786402 23.276757 
Q 17.786402 20.876757 15.386402 20.876757 
L 7.643902 20.876757 
Q 5.243902 20.876757 5.243902 23.276757 
z
" style="fill:#ffffff;stroke:#ffffff;stroke-linejoin:miter;"/>
    </g>
    <g clip-path="url(#pd32eef9412)">
     <!-- P -->
     <g transform="translate(9.307652 23.276757)rotate(-270)scale(0.08 -0.08)">
      <use xlink:href="#DejaVuSans-80"/>
     </g>
    </g>
   </g>
   <g id="text_14">
    <g id="patch_15">
     <path clip-path="url(#pd32eef9412)" d="M 5.243902 30.593034 
L 5.243902 35.416784 
Q 5.243902 37.816784 7.643902 37.816784 
L 15.386402 37.816784 
Q 17.786402 37.816784 17.786402 35.416784 
L 17.786402 30.593034 
Q 17.786402 28.193034 15.386402 28.193034 
L 7.643902 28.193034 
Q 5.243902 28.193034 5.243902 30.593034 
z
" style="fill:#ffffff;stroke:#ffffff;stroke-linejoin:miter;"/>
    </g>
    <g clip-path="url(#pd32eef9412)">
     <!-- P -->
     <g transform="translate(9.307652 30.593034)rotate(-270)scale(0.08 -0.08)">
      <use xlink:href="#DejaVuSans-80"/>
     </g>
    </g>
   </g>
   <g id="text_15">
    <g id="patch_16">
     <path clip-path="url(#pd32eef9412)" d="M 5.243902 37.620563 
L 5.243902 42.444313 
Q 5.243902 44.844313 7.643902 44.844313 
L 15.386402 44.844313 
Q 17.786402 44.844313 17.786402 42.444313 
L 17.786402 37.620563 
Q 17.786402 35.220563 15.386402 35.220563 
L 7.643902 35.220563 
Q 5.243902 35.220563 5.243902 37.620563 
z
" style="fill:#ffffff;stroke:#ffffff;stroke-linejoin:miter;"/>
    </g>
    <g clip-path="url(#pd32eef9412)">
     <!-- P -->
     <g transform="translate(9.307652 37.620563)rotate(-270)scale(0.08 -0.08)">
      <use xlink:href="#DejaVuSans-80"/>
     </g>
    </g>
   </g>
   <g id="text_16">
    <g id="patch_17">
     <path clip-path="url(#pd32eef9412)" d="M 5.243902 44.376078 
L 5.243902 49.199828 
Q 5.243902 51.599828 7.643902 51.599828 
L 15.386402 51.599828 
Q 17.786402 51.599828 17.786402 49.199828 
L 17.786402 44.376078 
Q 17.786402 41.976078 15.386402 41.976078 
L 7.643902 41.976078 
Q 5.243902 41.976078 5.243902 44.376078 
z
" style="fill:#ffffff;stroke:#ffffff;stroke-linejoin:miter;"/>
    </g>
    <g clip-path="url(#pd32eef9412)">
     <!-- P -->
     <g transform="translate(9.307652 44.376078)rotate(-270)scale(0.08 -0.08)">
      <use xlink:href="#DejaVuSans-80"/>
     </g>
    </g>
   </g>
   <g id="text_17">
    <g id="patch_18">
     <path clip-path="url(#pd32eef9412)" d="M 5.243902 50.875462 
L 5.243902 55.699212 
Q 5.243902 58.099212 7.643902 58.099212 
L 15.386402 58.099212 
Q 17.786402 58.099212 17.786402 55.699212 
L 17.786402 50.875462 
Q 17.786402 48.475462 15.386402 48.475462 
L 7.643902 48.475462 
Q 5.243902 48.475462 5.243902 50.875462 
z
" style="fill:#ffffff;stroke:#ffffff;stroke-linejoin:miter;"/>
    </g>
    <g clip-path="url(#pd32eef9412)">
     <!-- P -->
     <g transform="translate(9.307652 50.875462)rotate(-270)scale(0.08 -0.08)">
      <use xlink:href="#DejaVuSans-80"/>
     </g>
    </g>
   </g>
   <g id="text_18">
    <g id="patch_19">
     <path clip-path="url(#pd32eef9412)" d="M 5.243902 57.133823 
L 5.243902 61.957573 
Q 5.243902 64.357573 7.643902 64.357573 
L 15.386402 64.357573 
Q 17.786402 64.357573 17.786402 61.957573 
L 17.786402 57.133823 
Q 17.786402 54.733823 15.386402 54.733823 
L 7.643902 54.733823 
Q 5.243902 54.733823 5.243902 57.133823 
z
" style="fill:#ffffff;stroke:#ffffff;stroke-linejoin:miter;"/>
    </g>
    <g clip-path="url(#pd32eef9412)">
     <!-- P -->
     <g transform="translate(9.307652 57.133823)rotate(-270)scale(0.08 -0.08)">
      <use xlink:href="#DejaVuSans-80"/>
     </g>
    </g>
   </g>
   <g id="text_19">
    <g id="patch_20">
     <path clip-path="url(#pd32eef9412)" d="M 5.243902 63.165577 
L 5.243902 67.989327 
Q 5.243902 70.389327 7.643902 70.389327 
L 15.386402 70.389327 
Q 17.786402 70.389327 17.786402 67.989327 
L 17.786402 63.165577 
Q 17.786402 60.765577 15.386402 60.765577 
L 7.643902 60.765577 
Q 5.243902 60.765577 5.243902 63.165577 
z
" style="fill:#ffffff;stroke:#ffffff;stroke-linejoin:miter;"/>
    </g>
    <g clip-path="url(#pd32eef9412)">
     <!-- P -->
     <g transform="translate(9.307652 63.165577)rotate(-270)scale(0.08 -0.08)">
      <use xlink:href="#DejaVuSans-80"/>
     </g>
    </g>
   </g>
   <g id="text_20">
    <g id="patch_21">
     <path clip-path="url(#pd32eef9412)" d="M 5.243902 68.984523 
L 5.243902 73.808273 
Q 5.243902 76.208273 7.643902 76.208273 
L 15.386402 76.208273 
Q 17.786402 76.208273 17.786402 73.808273 
L 17.786402 68.984523 
Q 17.786402 66.584523 15.386402 66.584523 
L 7.643902 66.584523 
Q 5.243902 66.584523 5.243902 68.984523 
z
" style="fill:#ffffff;stroke:#ffffff;stroke-linejoin:miter;"/>
    </g>
    <g clip-path="url(#pd32eef9412)">
     <!-- P -->
     <g transform="translate(9.307652 68.984523)rotate(-270)scale(0.08 -0.08)">
      <use xlink:href="#DejaVuSans-80"/>
     </g>
    </g>
   </g>
   <g id="text_21">
    <g id="patch_22">
     <path clip-path="url(#pd32eef9412)" d="M 5.243902 74.60393 
L 5.243902 79.42768 
Q 5.243902 81.82768 7.643902 81.82768 
L 15.386402 81.82768 
Q 17.786402 81.82768 17.786402 79.42768 
L 17.786402 74.60393 
Q 17.786402 72.20393 15.386402 72.20393 
L 7.643902 72.20393 
Q 5.243902 72.20393 5.243902 74.60393 
z
" style="fill:#ffffff;stroke:#ffffff;stroke-linejoin:miter;"/>
    </g>
    <g clip-path="url(#pd32eef9412)">
     <!-- P -->
     <g transform="translate(9.307652 74.60393)rotate(-270)scale(0.08 -0.08)">
      <use xlink:href="#DejaVuSans-80"/>
     </g>
    </g>
   </g>
   <g id="text_22">
    <g id="patch_23">
     <path clip-path="url(#pd32eef9412)" d="M 5.243902 80.036626 
L 5.243902 84.860376 
Q 5.243902 87.260376 7.643902 87.260376 
L 15.386402 87.260376 
Q 17.786402 87.260376 17.786402 84.860376 
L 17.786402 80.036626 
Q 17.786402 77.636626 15.386402 77.636626 
L 7.643902 77.636626 
Q 5.243902 77.636626 5.243902 80.036626 
z
" style="fill:#ffffff;stroke:#ffffff;stroke-linejoin:miter;"/>
    </g>
    <g clip-path="url(#pd32eef9412)">
     <!-- P -->
     <g transform="translate(9.307652 80.036626)rotate(-270)scale(0.08 -0.08)">
      <use xlink:href="#DejaVuSans-80"/>
     </g>
    </g>
   </g>
   <g id="text_23">
    <g id="patch_24">
     <path clip-path="url(#pd32eef9412)" d="M 5.243902 85.295101 
L 5.243902 90.118851 
Q 5.243902 92.518851 7.643902 92.518851 
L 15.386402 92.518851 
Q 17.786402 92.518851 17.786402 90.118851 
L 17.786402 85.295101 
Q 17.786402 82.895101 15.386402 82.895101 
L 7.643902 82.895101 
Q 5.243902 82.895101 5.243902 85.295101 
z
" style="fill:#ffffff;stroke:#ffffff;stroke-linejoin:miter;"/>
    </g>
    <g clip-path="url(#pd32eef9412)">
     <!-- P -->
     <g transform="translate(9.307652 85.295101)rotate(-270)scale(0.08 -0.08)">
      <use xlink:href="#DejaVuSans-80"/>
     </g>
    </g>
   </g>
   <g id="text_24">
    <g id="patch_25">
     <path clip-path="url(#pd32eef9412)" d="M 5.243902 90.391636 
L 5.243902 95.215386 
Q 5.243902 97.615386 7.643902 97.615386 
L 15.386402 97.615386 
Q 17.786402 97.615386 17.786402 95.215386 
L 17.786402 90.391636 
Q 17.786402 87.991636 15.386402 87.991636 
L 7.643902 87.991636 
Q 5.243902 87.991636 5.243902 90.391636 
z
" style="fill:#ffffff;stroke:#ffffff;stroke-linejoin:miter;"/>
    </g>
    <g clip-path="url(#pd32eef9412)">
     <!-- P -->
     <g transform="translate(9.307652 90.391636)rotate(-270)scale(0.08 -0.08)">
      <use xlink:href="#DejaVuSans-80"/>
     </g>
    </g>
   </g>
   <g id="text_25">
    <g id="patch_26">
     <path clip-path="url(#pd32eef9412)" d="M 5.243902 95.338463 
L 5.243902 100.162213 
Q 5.243902 102.562213 7.643902 102.562213 
L 15.386402 102.562213 
Q 17.786402 102.562213 17.786402 100.162213 
L 17.786402 95.338463 
Q 17.786402 92.938463 15.386402 92.938463 
L 7.643902 92.938463 
Q 5.243902 92.938463 5.243902 95.338463 
z
" style="fill:#ffffff;stroke:#ffffff;stroke-linejoin:miter;"/>
    </g>
    <g clip-path="url(#pd32eef9412)">
     <!-- P -->
     <g transform="translate(9.307652 95.338463)rotate(-270)scale(0.08 -0.08)">
      <use xlink:href="#DejaVuSans-80"/>
     </g>
    </g>
   </g>
   <g id="text_26">
    <g id="patch_27">
     <path clip-path="url(#pd32eef9412)" d="M 5.243902 100.147984 
L 5.243902 104.971734 
Q 5.243902 107.371734 7.643902 107.371734 
L 15.386402 107.371734 
Q 17.786402 107.371734 17.786402 104.971734 
L 17.786402 100.147984 
Q 17.786402 97.747984 15.386402 97.747984 
L 7.643902 97.747984 
Q 5.243902 97.747984 5.243902 100.147984 
z
" style="fill:#ffffff;stroke:#ffffff;stroke-linejoin:miter;"/>
    </g>
    <g clip-path="url(#pd32eef9412)">
     <!-- P -->
     <g transform="translate(9.307652 100.147984)rotate(-270)scale(0.08 -0.08)">
      <use xlink:href="#DejaVuSans-80"/>
     </g>
    </g>
   </g>
   <g id="text_27">
    <g id="patch_28">
     <path clip-path="url(#pd32eef9412)" d="M 5.243902 104.833112 
L 5.243902 109.656862 
Q 5.243902 112.056862 7.643902 112.056862 
L 15.386402 112.056862 
Q 17.786402 112.056862 17.786402 109.656862 
L 17.786402 104.833112 
Q 17.786402 102.433112 15.386402 102.433112 
L 7.643902 102.433112 
Q 5.243902 102.433112 5.243902 104.833112 
z
" style="fill:#ffffff;stroke:#ffffff;stroke-linejoin:miter;"/>
    </g>
    <g clip-path="url(#pd32eef9412)">
     <!-- P -->
     <g transform="translate(9.307652 104.833112)rotate(-270)scale(0.08 -0.08)">
      <use xlink:href="#DejaVuSans-80"/>
     </g>
    </g>
   </g>
   <g id="text_28">
    <g id="patch_29">
     <path clip-path="url(#pd32eef9412)" d="M 5.243902 109.40783 
L 5.243902 114.23158 
Q 5.243902 116.63158 7.643902 116.63158 
L 15.386402 116.63158 
Q 17.786402 116.63158 17.786402 114.23158 
L 17.786402 109.40783 
Q 17.786402 107.00783 15.386402 107.00783 
L 7.643902 107.00783 
Q 5.243902 107.00783 5.243902 109.40783 
z
" style="fill:#ffffff;stroke:#ffffff;stroke-linejoin:miter;"/>
    </g>
    <g clip-path="url(#pd32eef9412)">
     <!-- P -->
     <g transform="translate(9.307652 109.40783)rotate(-270)scale(0.08 -0.08)">
      <use xlink:href="#DejaVuSans-80"/>
     </g>
    </g>
   </g>
   <g id="text_29">
    <g id="patch_30">
     <path clip-path="url(#pd32eef9412)" d="M 5.243902 113.88829 
L 5.243902 118.71204 
Q 5.243902 121.11204 7.643902 121.11204 
L 15.386402 121.11204 
Q 17.786402 121.11204 17.786402 118.71204 
L 17.786402 113.88829 
Q 17.786402 111.48829 15.386402 111.48829 
L 7.643902 111.48829 
Q 5.243902 111.48829 5.243902 113.88829 
z
" style="fill:#ffffff;stroke:#ffffff;stroke-linejoin:miter;"/>
    </g>
    <g clip-path="url(#pd32eef9412)">
     <!-- P -->
     <g transform="translate(9.307652 113.88829)rotate(-270)scale(0.08 -0.08)">
      <use xlink:href="#DejaVuSans-80"/>
     </g>
    </g>
   </g>
   <g id="text_30">
    <g id="patch_31">
     <path clip-path="url(#pd32eef9412)" d="M 5.243902 118.295581 
L 5.243902 123.119331 
Q 5.243902 125.519331 7.643902 125.519331 
L 15.386402 125.519331 
Q 17.786402 125.519331 17.786402 123.119331 
L 17.786402 118.295581 
Q 17.786402 115.895581 15.386402 115.895581 
L 7.643902 115.895581 
Q 5.243902 115.895581 5.243902 118.295581 
z
" style="fill:#ffffff;stroke:#ffffff;stroke-linejoin:miter;"/>
    </g>
    <g clip-path="url(#pd32eef9412)">
     <!-- P -->
     <g transform="translate(9.307652 118.295581)rotate(-270)scale(0.08 -0.08)">
      <use xlink:href="#DejaVuSans-80"/>
     </g>
    </g>
   </g>
   <g id="text_31">
    <g id="patch_32">
     <path clip-path="url(#pd32eef9412)" d="M 5.243902 108.180553 
L 5.243902 141.988053 
Q 5.243902 144.388053 7.643902 144.388053 
L 15.386402 144.388053 
Q 17.786402 144.388053 17.786402 141.988053 
L 17.786402 108.180553 
Q 17.786402 105.780553 15.386402 105.780553 
L 7.643902 105.780553 
Q 5.243902 105.780553 5.243902 108.180553 
z
" style="fill:#ffffff;stroke:#ffffff;stroke-linejoin:miter;"/>
    </g>
    <g clip-path="url(#pd32eef9412)">
     <!-- Terminal -->
     <g transform="translate(9.307652 108.180553)rotate(-270)scale(0.08 -0.08)">
      <use xlink:href="#DejaVuSans-84"/>
      <use x="44.083984" xlink:href="#DejaVuSans-101"/>
      <use x="105.607422" xlink:href="#DejaVuSans-114"/>
      <use x="144.970703" xlink:href="#DejaVuSans-109"/>
      <use x="242.382812" xlink:href="#DejaVuSans-105"/>
      <use x="270.166016" xlink:href="#DejaVuSans-110"/>
      <use x="333.544922" xlink:href="#DejaVuSans-97"/>
      <use x="394.824219" xlink:href="#DejaVuSans-108"/>
     </g>
    </g>
   </g>
   <g id="PathCollection_1">
    <defs>
     <path d="M 0 8.660254 
C 2.296726 8.660254 4.499694 7.747755 6.123724 6.123724 
C 7.747755 4.499694 8.660254 2.296726 8.660254 -0 
C 8.660254 -2.296726 7.747755 -4.499694 6.123724 -6.123724 
C 4.499694 -7.747755 2.296726 -8.660254 0 -8.660254 
C -2.296726 -8.660254 -4.499694 -7.747755 -6.123724 -6.123724 
C -7.747755 -4.499694 -8.660254 -2.296726 -8.660254 0 
C -8.660254 2.296726 -7.747755 4.499694 -6.123724 6.123724 
C -4.499694 7.747755 -2.296726 8.660254 0 8.660254 
z
" id="C0_0_0194c9602e"/>
    </defs>
    <g clip-path="url(#pd32eef9412)">
     <use style="fill:#ffffff;stroke:#ffffff;" x="11.515152" xlink:href="#C0_0_0194c9602e" y="127.272727"/>
    </g>
    <g clip-path="url(#pd32eef9412)">
     <use style="fill:#ffffff;stroke:#ffffff;" x="69.090909" xlink:href="#C0_0_0194c9602e" y="127.272727"/>
    </g>
    <g clip-path="url(#pd32eef9412)">
     <use style="fill:#ffffff;stroke:#ffffff;" x="126.666667" xlink:href="#C0_0_0194c9602e" y="127.272727"/>
    </g>
    <g clip-path="url(#pd32eef9412)">
     <use style="fill:#ffffff;stroke:#ffffff;" x="184.242424" xlink:href="#C0_0_0194c9602e" y="127.272727"/>
    </g>
    <g clip-path="url(#pd32eef9412)">
     <use style="fill:#ffffff;stroke:#ffffff;" x="241.818182" xlink:href="#C0_0_0194c9602e" y="127.272727"/>
    </g>
    <g clip-path="url(#pd32eef9412)">
     <use style="stroke:#000000;" x="97.878788" xlink:href="#C0_0_0194c9602e" y="6.060606"/>
    </g>
    <g clip-path="url(#pd32eef9412)">
     <use style="stroke:#000000;" x="69.090909" xlink:href="#C0_0_0194c9602e" y="122.89588"/>
    </g>
    <g clip-path="url(#pd32eef9412)">
     <use style="stroke:#000000;" x="155.454545" xlink:href="#C0_0_0194c9602e" y="118.519032"/>
    </g>
    <g clip-path="url(#pd32eef9412)">
     <use style="stroke:#000000;" x="241.818182" xlink:href="#C0_0_0194c9602e" y="122.89588"/>
    </g>
    <g clip-path="url(#pd32eef9412)">
     <use style="stroke:#000000;" x="11.515152" xlink:href="#C0_0_0194c9602e" y="14.175728"/>
    </g>
    <g clip-path="url(#pd32eef9412)">
     <use style="stroke:#000000;" x="126.666667" xlink:href="#C0_0_0194c9602e" y="122.89588"/>
    </g>
    <g clip-path="url(#pd32eef9412)">
     <use style="stroke:#000000;" x="184.242424" xlink:href="#C0_0_0194c9602e" y="122.89588"/>
    </g>
    <g clip-path="url(#pd32eef9412)">
     <use style="stroke:#000000;" x="11.515152" xlink:href="#C0_0_0194c9602e" y="21.956159"/>
    </g>
    <g clip-path="url(#pd32eef9412)">
     <use style="stroke:#000000;" x="11.515152" xlink:href="#C0_0_0194c9602e" y="29.421105"/>
    </g>
    <g clip-path="url(#pd32eef9412)">
     <use style="stroke:#000000;" x="11.515152" xlink:href="#C0_0_0194c9602e" y="36.588713"/>
    </g>
    <g clip-path="url(#pd32eef9412)">
     <use style="stroke:#000000;" x="11.515152" xlink:href="#C0_0_0194c9602e" y="43.476163"/>
    </g>
    <g clip-path="url(#pd32eef9412)">
     <use style="stroke:#000000;" x="11.515152" xlink:href="#C0_0_0194c9602e" y="50.099743"/>
    </g>
    <g clip-path="url(#pd32eef9412)">
     <use style="stroke:#000000;" x="11.515152" xlink:href="#C0_0_0194c9602e" y="56.47493"/>
    </g>
    <g clip-path="url(#pd32eef9412)">
     <use style="stroke:#000000;" x="11.515152" xlink:href="#C0_0_0194c9602e" y="62.616466"/>
    </g>
    <g clip-path="url(#pd32eef9412)">
     <use style="stroke:#000000;" x="11.515152" xlink:href="#C0_0_0194c9602e" y="68.538438"/>
    </g>
    <g clip-path="url(#pd32eef9412)">
     <use style="stroke:#000000;" x="11.515152" xlink:href="#C0_0_0194c9602e" y="74.254359"/>
    </g>
    <g clip-path="url(#pd32eef9412)">
     <use style="stroke:#000000;" x="11.515152" xlink:href="#C0_0_0194c9602e" y="79.777252"/>
    </g>
    <g clip-path="url(#pd32eef9412)">
     <use style="stroke:#000000;" x="11.515152" xlink:href="#C0_0_0194c9602e" y="85.119749"/>
    </g>
    <g clip-path="url(#pd32eef9412)">
     <use style="stroke:#000000;" x="11.515152" xlink:href="#C0_0_0194c9602e" y="90.294202"/>
    </g>
    <g clip-path="url(#pd32eef9412)">
     <use style="stroke:#000000;" x="11.515152" xlink:href="#C0_0_0194c9602e" y="95.31282"/>
    </g>
    <g clip-path="url(#pd32eef9412)">
     <use style="stroke:#000000;" x="11.515152" xlink:href="#C0_0_0194c9602e" y="100.187855"/>
    </g>
    <g clip-path="url(#pd32eef9412)">
     <use style="stroke:#000000;" x="11.515152" xlink:href="#C0_0_0194c9602e" y="104.931863"/>
    </g>
    <g clip-path="url(#pd32eef9412)">
     <use style="stroke:#000000;" x="11.515152" xlink:href="#C0_0_0194c9602e" y="109.558111"/>
    </g>
    <g clip-path="url(#pd32eef9412)">
     <use style="stroke:#000000;" x="11.515152" xlink:href="#C0_0_0194c9602e" y="114.081298"/>
    </g>
    <g clip-path="url(#pd32eef9412)">
     <use style="stroke:#000000;" x="11.515152" xlink:href="#C0_0_0194c9602e" y="118.519032"/>
    </g>
    <g clip-path="url(#pd32eef9412)">
     <use style="stroke:#000000;" x="11.515152" xlink:href="#C0_0_0194c9602e" y="122.89588"/>
    </g>
   </g>
   <g id="text_32">
    <g clip-path="url(#pd32eef9412)">
     <!-- Poison -->
     <g transform="translate(-4.599692 130.032102)scale(0.1 -0.1)">
      <defs>
       <path d="M 30.609375 48.390625 
Q 23.390625 48.390625 19.1875 42.75 
Q 14.984375 37.109375 14.984375 27.296875 
Q 14.984375 17.484375 19.15625 11.84375 
Q 23.34375 6.203125 30.609375 6.203125 
Q 37.796875 6.203125 41.984375 11.859375 
Q 46.1875 17.53125 46.1875 27.296875 
Q 46.1875 37.015625 41.984375 42.703125 
Q 37.796875 48.390625 30.609375 48.390625 
z
M 30.609375 56 
Q 42.328125 56 49.015625 48.375 
Q 55.71875 40.765625 55.71875 27.296875 
Q 55.71875 13.875 49.015625 6.21875 
Q 42.328125 -1.421875 30.609375 -1.421875 
Q 18.84375 -1.421875 12.171875 6.21875 
Q 5.515625 13.875 5.515625 27.296875 
Q 5.515625 40.765625 12.171875 48.375 
Q 18.84375 56 30.609375 56 
z
" id="DejaVuSans-111"/>
       <path d="M 44.28125 53.078125 
L 44.28125 44.578125 
Q 40.484375 46.53125 36.375 47.5 
Q 32.28125 48.484375 27.875 48.484375 
Q 21.1875 48.484375 17.84375 46.4375 
Q 14.5 44.390625 14.5 40.28125 
Q 14.5 37.15625 16.890625 35.375 
Q 19.28125 33.59375 26.515625 31.984375 
L 29.59375 31.296875 
Q 39.15625 29.25 43.1875 25.515625 
Q 47.21875 21.78125 47.21875 15.09375 
Q 47.21875 7.46875 41.1875 3.015625 
Q 35.15625 -1.421875 24.609375 -1.421875 
Q 20.21875 -1.421875 15.453125 -0.5625 
Q 10.6875 0.296875 5.421875 2 
L 5.421875 11.28125 
Q 10.40625 8.6875 15.234375 7.390625 
Q 20.0625 6.109375 24.8125 6.109375 
Q 31.15625 6.109375 34.5625 8.28125 
Q 37.984375 10.453125 37.984375 14.40625 
Q 37.984375 18.0625 35.515625 20.015625 
Q 33.0625 21.96875 24.703125 23.78125 
L 21.578125 24.515625 
Q 13.234375 26.265625 9.515625 29.90625 
Q 5.8125 33.546875 5.8125 39.890625 
Q 5.8125 47.609375 11.28125 51.796875 
Q 16.75 56 26.8125 56 
Q 31.78125 56 36.171875 55.265625 
Q 40.578125 54.546875 44.28125 53.078125 
z
" id="DejaVuSans-115"/>
      </defs>
      <use xlink:href="#DejaVuSans-80"/>
      <use x="56.677734" xlink:href="#DejaVuSans-111"/>
      <use x="117.859375" xlink:href="#DejaVuSans-105"/>
      <use x="145.642578" xlink:href="#DejaVuSans-115"/>
      <use x="197.742188" xlink:href="#DejaVuSans-111"/>
      <use x="258.923828" xlink:href="#DejaVuSans-110"/>
     </g>
    </g>
   </g>
   <g id="text_33">
    <g clip-path="url(#pd32eef9412)">
     <!-- kills -->
     <g transform="translate(59.423722 130.032102)scale(0.1 -0.1)">
      <defs>
       <path d="M 9.078125 75.984375 
L 18.109375 75.984375 
L 18.109375 31.109375 
L 44.921875 54.6875 
L 56.390625 54.6875 
L 27.390625 29.109375 
L 57.625 0 
L 45.90625 0 
L 18.109375 26.703125 
L 18.109375 0 
L 9.078125 0 
z
" id="DejaVuSans-107"/>
      </defs>
      <use xlink:href="#DejaVuSans-107"/>
      <use x="57.910156" xlink:href="#DejaVuSans-105"/>
      <use x="85.693359" xlink:href="#DejaVuSans-108"/>
      <use x="113.476562" xlink:href="#DejaVuSans-108"/>
      <use x="141.259766" xlink:href="#DejaVuSans-115"/>
     </g>
    </g>
   </g>
   <g id="text_34">
    <g clip-path="url(#pd32eef9412)">
     <!-- when -->
     <g transform="translate(113.163542 130.032102)scale(0.1 -0.1)">
      <defs>
       <path d="M 4.203125 54.6875 
L 13.1875 54.6875 
L 24.421875 12.015625 
L 35.59375 54.6875 
L 46.1875 54.6875 
L 57.421875 12.015625 
L 68.609375 54.6875 
L 77.59375 54.6875 
L 63.28125 0 
L 52.6875 0 
L 40.921875 44.828125 
L 29.109375 0 
L 18.5 0 
z
" id="DejaVuSans-119"/>
       <path d="M 54.890625 33.015625 
L 54.890625 0 
L 45.90625 0 
L 45.90625 32.71875 
Q 45.90625 40.484375 42.875 44.328125 
Q 39.84375 48.1875 33.796875 48.1875 
Q 26.515625 48.1875 22.3125 43.546875 
Q 18.109375 38.921875 18.109375 30.90625 
L 18.109375 0 
L 9.078125 0 
L 9.078125 75.984375 
L 18.109375 75.984375 
L 18.109375 46.1875 
Q 21.34375 51.125 25.703125 53.5625 
Q 30.078125 56 35.796875 56 
Q 45.21875 56 50.046875 50.171875 
Q 54.890625 44.34375 54.890625 33.015625 
z
" id="DejaVuSans-104"/>
      </defs>
      <use xlink:href="#DejaVuSans-119"/>
      <use x="81.787109" xlink:href="#DejaVuSans-104"/>
      <use x="145.166016" xlink:href="#DejaVuSans-101"/>
      <use x="206.689453" xlink:href="#DejaVuSans-110"/>
     </g>
    </g>
   </g>
   <g id="text_35">
    <g clip-path="url(#pd32eef9412)">
     <!-- eaten -->
     <g transform="translate(169.89633 130.032102)scale(0.1 -0.1)">
      <defs>
       <path d="M 18.3125 70.21875 
L 18.3125 54.6875 
L 36.8125 54.6875 
L 36.8125 47.703125 
L 18.3125 47.703125 
L 18.3125 18.015625 
Q 18.3125 11.328125 20.140625 9.421875 
Q 21.96875 7.515625 27.59375 7.515625 
L 36.8125 7.515625 
L 36.8125 0 
L 27.59375 0 
Q 17.1875 0 13.234375 3.875 
Q 9.28125 7.765625 9.28125 18.015625 
L 9.28125 47.703125 
L 2.6875 47.703125 
L 2.6875 54.6875 
L 9.28125 54.6875 
L 9.28125 70.21875 
z
" id="DejaVuSans-116"/>
      </defs>
      <use xlink:href="#DejaVuSans-101"/>
      <use x="61.523438" xlink:href="#DejaVuSans-97"/>
      <use x="122.802734" xlink:href="#DejaVuSans-116"/>
      <use x="162.011719" xlink:href="#DejaVuSans-101"/>
      <use x="223.535156" xlink:href="#DejaVuSans-110"/>
     </g>
    </g>
   </g>
   <g id="text_36">
    <g clip-path="url(#pd32eef9412)">
     <!-- . -->
     <g transform="translate(240.229119 130.032102)scale(0.1 -0.1)">
      <defs>
       <path d="M 10.6875 12.40625 
L 21 12.40625 
L 21 0 
L 10.6875 0 
z
" id="DejaVuSans-46"/>
      </defs>
      <use xlink:href="#DejaVuSans-46"/>
     </g>
    </g>
   </g>
  </g>
 </g>
 <defs>
  <clipPath id="pd32eef9412">
   <rect height="133.333333" width="253.333333" x="0" y="0"/>
  </clipPath>
 </defs>
</svg>
