<?xml version="1.0" encoding="utf-8" standalone="no"?>
<!DOCTYPE svg PUBLIC "-//W3C//DTD SVG 1.1//EN"
  "http://www.w3.org/Graphics/SVG/1.1/DTD/svg11.dtd">
<!-- Created with matplotlib (https://matplotlib.org/) -->
<svg height="346.666667pt" version="1.1" viewBox="0 0 658.666667 346.666667" width="658.666667pt" xmlns="http://www.w3.org/2000/svg" xmlns:xlink="http://www.w3.org/1999/xlink">
 <metadata>
  <rdf:RDF xmlns:cc="http://creativecommons.org/ns#" xmlns:dc="http://purl.org/dc/elements/1.1/" xmlns:rdf="http://www.w3.org/1999/02/22-rdf-syntax-ns#">
   <cc:Work>
    <dc:type rdf:resource="http://purl.org/dc/dcmitype/StillImage"/>
    <dc:date>2021-05-19T11:42:15.559216</dc:date>
    <dc:format>image/svg+xml</dc:format>
    <dc:creator>
     <cc:Agent>
      <dc:title>Matplotlib v3.3.4, https://matplotlib.org/</dc:title>
     </cc:Agent>
    </dc:creator>
   </cc:Work>
  </rdf:RDF>
 </metadata>
 <defs>
  <style type="text/css">*{stroke-linecap:butt;stroke-linejoin:round;}</style>
 </defs>
 <g id="figure_1">
  <g id="patch_1">
   <path d="M 0 346.666667 
L 658.666667 346.666667 
L 658.666667 0 
L 0 0 
z
" style="fill:#ffffff;"/>
  </g>
  <g id="axes_1">
   <g id="LineCollection_1">
    <path clip-path="url(#p649cee5185)" d="M 229.535354 15.757576 
L 79.838384 319.529287 
" style="fill:none;stroke:#000000;"/>
    <path clip-path="url(#p649cee5185)" d="M 229.535354 15.757576 
L 179.636364 308.149483 
" style="fill:none;stroke:#000000;"/>
    <path clip-path="url(#p649cee5185)" d="M 229.535354 15.757576 
L 279.434343 319.529287 
" style="fill:none;stroke:#000000;"/>
    <path clip-path="url(#p649cee5185)" d="M 229.535354 15.757576 
L 329.333333 319.529287 
" style="fill:none;stroke:#000000;"/>
    <path clip-path="url(#p649cee5185)" d="M 229.535354 15.757576 
L 379.232323 319.529287 
" style="fill:none;stroke:#000000;"/>
    <path clip-path="url(#p649cee5185)" d="M 229.535354 15.757576 
L 528.929293 308.149483 
" style="fill:none;stroke:#000000;"/>
    <path clip-path="url(#p649cee5185)" d="M 229.535354 15.757576 
L 29.939394 36.856892 
" style="fill:none;stroke:#000000;"/>
    <path clip-path="url(#p649cee5185)" d="M 229.535354 15.757576 
L 29.939394 319.529287 
" style="fill:none;stroke:#000000;stroke-dasharray:3.7,1.6;stroke-dashoffset:0;"/>
    <path clip-path="url(#p649cee5185)" d="M 79.838384 319.529287 
L 79.838384 330.909091 
" style="fill:none;stroke:#000000;"/>
    <path clip-path="url(#p649cee5185)" d="M 179.636364 308.149483 
L 129.737374 319.529287 
" style="fill:none;stroke:#000000;"/>
    <path clip-path="url(#p649cee5185)" d="M 179.636364 308.149483 
L 179.636364 319.529287 
" style="fill:none;stroke:#000000;"/>
    <path clip-path="url(#p649cee5185)" d="M 179.636364 308.149483 
L 229.535354 319.529287 
" style="fill:none;stroke:#000000;"/>
    <path clip-path="url(#p649cee5185)" d="M 279.434343 319.529287 
L 279.434343 330.909091 
" style="fill:none;stroke:#000000;"/>
    <path clip-path="url(#p649cee5185)" d="M 329.333333 319.529287 
L 329.333333 330.909091 
" style="fill:none;stroke:#000000;"/>
    <path clip-path="url(#p649cee5185)" d="M 379.232323 319.529287 
L 379.232323 330.909091 
" style="fill:none;stroke:#000000;"/>
    <path clip-path="url(#p649cee5185)" d="M 528.929293 308.149483 
L 429.131313 319.529287 
" style="fill:none;stroke:#000000;"/>
    <path clip-path="url(#p649cee5185)" d="M 528.929293 308.149483 
L 479.030303 319.529287 
" style="fill:none;stroke:#000000;"/>
    <path clip-path="url(#p649cee5185)" d="M 528.929293 308.149483 
L 528.929293 319.529287 
" style="fill:none;stroke:#000000;"/>
    <path clip-path="url(#p649cee5185)" d="M 528.929293 308.149483 
L 578.828283 319.529287 
" style="fill:none;stroke:#000000;"/>
    <path clip-path="url(#p649cee5185)" d="M 528.929293 308.149483 
L 628.727273 319.529287 
" style="fill:none;stroke:#000000;"/>
    <path clip-path="url(#p649cee5185)" d="M 29.939394 36.856892 
L 29.939394 57.086014 
" style="fill:none;stroke:#000000;"/>
    <path clip-path="url(#p649cee5185)" d="M 129.737374 319.529287 
L 129.737374 330.909091 
" style="fill:none;stroke:#000000;"/>
    <path clip-path="url(#p649cee5185)" d="M 179.636364 319.529287 
L 179.636364 330.909091 
" style="fill:none;stroke:#000000;"/>
    <path clip-path="url(#p649cee5185)" d="M 229.535354 319.529287 
L 229.535354 330.909091 
" style="fill:none;stroke:#000000;"/>
    <path clip-path="url(#p649cee5185)" d="M 429.131313 319.529287 
L 429.131313 330.909091 
" style="fill:none;stroke:#000000;"/>
    <path clip-path="url(#p649cee5185)" d="M 479.030303 319.529287 
L 479.030303 330.909091 
" style="fill:none;stroke:#000000;"/>
    <path clip-path="url(#p649cee5185)" d="M 528.929293 319.529287 
L 528.929293 330.909091 
" style="fill:none;stroke:#000000;"/>
    <path clip-path="url(#p649cee5185)" d="M 578.828283 319.529287 
L 578.828283 330.909091 
" style="fill:none;stroke:#000000;"/>
    <path clip-path="url(#p649cee5185)" d="M 628.727273 319.529287 
L 628.727273 330.909091 
" style="fill:none;stroke:#000000;"/>
    <path clip-path="url(#p649cee5185)" d="M 29.939394 57.086014 
L 29.939394 76.494872 
" style="fill:none;stroke:#000000;"/>
    <path clip-path="url(#p649cee5185)" d="M 29.939394 76.494872 
L 29.939394 95.130655 
" style="fill:none;stroke:#000000;"/>
    <path clip-path="url(#p649cee5185)" d="M 29.939394 95.130655 
L 29.939394 113.038025 
" style="fill:none;stroke:#000000;"/>
    <path clip-path="url(#p649cee5185)" d="M 29.939394 113.038025 
L 29.939394 130.259333 
" style="fill:none;stroke:#000000;"/>
    <path clip-path="url(#p649cee5185)" d="M 29.939394 130.259333 
L 29.939394 146.834818 
" style="fill:none;stroke:#000000;"/>
    <path clip-path="url(#p649cee5185)" d="M 29.939394 146.834818 
L 29.939394 162.802811 
" style="fill:none;stroke:#000000;"/>
    <path clip-path="url(#p649cee5185)" d="M 29.939394 162.802811 
L 29.939394 178.199939 
" style="fill:none;stroke:#000000;"/>
    <path clip-path="url(#p649cee5185)" d="M 29.939394 178.199939 
L 29.939394 193.061333 
" style="fill:none;stroke:#000000;"/>
    <path clip-path="url(#p649cee5185)" d="M 29.939394 193.061333 
L 29.939394 207.420855 
" style="fill:none;stroke:#000000;"/>
    <path clip-path="url(#p649cee5185)" d="M 29.939394 207.420855 
L 29.939394 221.311348 
" style="fill:none;stroke:#000000;"/>
    <path clip-path="url(#p649cee5185)" d="M 29.939394 221.311348 
L 29.939394 234.764925 
" style="fill:none;stroke:#000000;"/>
    <path clip-path="url(#p649cee5185)" d="M 29.939394 234.764925 
L 29.939394 247.813332 
" style="fill:none;stroke:#000000;"/>
    <path clip-path="url(#p649cee5185)" d="M 29.939394 247.813332 
L 29.939394 260.488424 
" style="fill:none;stroke:#000000;"/>
    <path clip-path="url(#p649cee5185)" d="M 29.939394 260.488424 
L 29.939394 272.822845 
" style="fill:none;stroke:#000000;"/>
    <path clip-path="url(#p649cee5185)" d="M 29.939394 272.822845 
L 29.939394 284.85109 
" style="fill:none;stroke:#000000;"/>
    <path clip-path="url(#p649cee5185)" d="M 29.939394 284.85109 
L 29.939394 296.611374 
" style="fill:none;stroke:#000000;"/>
    <path clip-path="url(#p649cee5185)" d="M 29.939394 296.611374 
L 29.939394 308.149483 
" style="fill:none;stroke:#000000;"/>
    <path clip-path="url(#p649cee5185)" d="M 29.939394 308.149483 
L 29.939394 319.529287 
" style="fill:none;stroke:#000000;"/>
    <path clip-path="url(#p649cee5185)" d="M 29.939394 319.529287 
L 29.939394 330.909091 
" style="fill:none;stroke:#000000;"/>
   </g>
   <g id="text_1">
    <g id="patch_2">
     <path clip-path="url(#p649cee5185)" d="M 159.295208 172.479201 
L 161.329123 168.35189 
Q 162.390007 166.199096 160.237213 165.138211 
L 153.292209 161.715753 
Q 151.139415 160.654868 150.07853 162.807662 
L 148.044615 166.934973 
Q 146.98373 169.087767 149.136524 170.148652 
L 156.081528 173.57111 
Q 158.234323 174.631995 159.295208 172.479201 
z
" style="fill:#ffffff;stroke:#ffffff;stroke-linejoin:miter;"/>
    </g>
    <g clip-path="url(#p649cee5185)">
     <!-- F -->
     <g transform="translate(155.650033 170.68288)rotate(-63.766185)scale(0.08 -0.08)">
      <defs>
       <path d="M 9.8125 72.90625 
L 51.703125 72.90625 
L 51.703125 64.59375 
L 19.671875 64.59375 
L 19.671875 43.109375 
L 48.578125 43.109375 
L 48.578125 34.8125 
L 19.671875 34.8125 
L 19.671875 0 
L 9.8125 0 
z
" id="DejaVuSans-70"/>
      </defs>
      <use xlink:href="#DejaVuSans-70"/>
     </g>
    </g>
   </g>
   <g id="text_2">
    <g id="patch_3">
     <path clip-path="url(#p649cee5185)" d="M 210.307426 165.70577 
L 211.228042 160.311261 
Q 211.631783 157.945465 209.265987 157.541723 
L 201.633829 156.239235 
Q 199.268033 155.835493 198.864291 158.201289 
L 197.943676 163.595798 
Q 197.539934 165.961594 199.90573 166.365336 
L 207.537888 167.667824 
Q 209.903684 168.071566 210.307426 165.70577 
z
" style="fill:#ffffff;stroke:#ffffff;stroke-linejoin:miter;"/>
    </g>
    <g clip-path="url(#p649cee5185)">
     <!-- A -->
     <g transform="translate(206.301591 165.022142)rotate(-80.315322)scale(0.08 -0.08)">
      <defs>
       <path d="M 34.1875 63.1875 
L 20.796875 26.90625 
L 47.609375 26.90625 
z
M 28.609375 72.90625 
L 39.796875 72.90625 
L 67.578125 0 
L 57.328125 0 
L 50.6875 18.703125 
L 17.828125 18.703125 
L 11.1875 0 
L 0.78125 0 
z
" id="DejaVuSans-65"/>
      </defs>
      <use xlink:href="#DejaVuSans-65"/>
     </g>
    </g>
   </g>
   <g id="text_3">
    <g id="patch_4">
     <path clip-path="url(#p649cee5185)" d="M 247.822006 165.771168 
L 248.771058 171.548739 
Q 249.16008 173.917001 251.528341 173.527979 
L 259.168451 172.272978 
Q 261.536712 171.883956 261.14769 169.515695 
L 260.198639 163.738124 
Q 259.809617 161.369862 257.441356 161.758884 
L 249.801246 163.013885 
Q 247.432985 163.402907 247.822006 165.771168 
z
" style="fill:#ffffff;stroke:#ffffff;stroke-linejoin:miter;"/>
    </g>
    <g clip-path="url(#p649cee5185)">
     <!-- U -->
     <g transform="translate(251.832016 165.112465)rotate(-279.328371)scale(0.08 -0.08)">
      <defs>
       <path d="M 8.6875 72.90625 
L 18.609375 72.90625 
L 18.609375 28.609375 
Q 18.609375 16.890625 22.84375 11.734375 
Q 27.09375 6.59375 36.625 6.59375 
Q 46.09375 6.59375 50.34375 11.734375 
Q 54.59375 16.890625 54.59375 28.609375 
L 54.59375 72.90625 
L 64.5 72.90625 
L 64.5 27.390625 
Q 64.5 13.140625 57.4375 5.859375 
Q 50.390625 -1.421875 36.625 -1.421875 
Q 22.796875 -1.421875 15.734375 5.859375 
Q 8.6875 13.140625 8.6875 27.390625 
z
" id="DejaVuSans-85"/>
      </defs>
      <use xlink:href="#DejaVuSans-85"/>
     </g>
    </g>
   </g>
   <g id="text_4">
    <g id="patch_5">
     <path clip-path="url(#p649cee5185)" d="M 272.622352 167.001241 
L 274.330414 172.200354 
Q 275.079496 174.480459 277.3596 173.731377 
L 284.715312 171.314808 
Q 286.995417 170.565727 286.246335 168.285622 
L 284.538273 163.086509 
Q 283.789191 160.806404 281.509087 161.555486 
L 274.153375 163.972055 
Q 271.87327 164.721136 272.622352 167.001241 
z
" style="fill:#ffffff;stroke:#ffffff;stroke-linejoin:miter;"/>
    </g>
    <g clip-path="url(#p649cee5185)">
     <!-- A -->
     <g transform="translate(276.483091 165.732874)rotate(-288.186879)scale(0.08 -0.08)">
      <use xlink:href="#DejaVuSans-65"/>
     </g>
    </g>
   </g>
   <g id="text_5">
    <g id="patch_6">
     <path clip-path="url(#p649cee5185)" d="M 297.692408 168.252099 
L 299.824676 172.578992 
Q 300.885561 174.731786 303.038355 173.670901 
L 309.983359 170.248443 
Q 312.136154 169.187558 311.075269 167.034764 
L 308.943001 162.707871 
Q 307.882116 160.555077 305.729322 161.615962 
L 298.784318 165.03842 
Q 296.631523 166.099305 297.692408 168.252099 
z
" style="fill:#ffffff;stroke:#ffffff;stroke-linejoin:miter;"/>
    </g>
    <g clip-path="url(#p649cee5185)">
     <!-- P -->
     <g transform="translate(301.337582 166.455778)rotate(-296.233815)scale(0.08 -0.08)">
      <defs>
       <path d="M 19.671875 64.796875 
L 19.671875 37.40625 
L 32.078125 37.40625 
Q 38.96875 37.40625 42.71875 40.96875 
Q 46.484375 44.53125 46.484375 51.125 
Q 46.484375 57.671875 42.71875 61.234375 
Q 38.96875 64.796875 32.078125 64.796875 
z
M 9.8125 72.90625 
L 32.078125 72.90625 
Q 44.34375 72.90625 50.609375 67.359375 
Q 56.890625 61.8125 56.890625 51.125 
Q 56.890625 40.328125 50.609375 34.8125 
Q 44.34375 29.296875 32.078125 29.296875 
L 19.671875 29.296875 
L 19.671875 0 
L 9.8125 0 
z
" id="DejaVuSans-80"/>
      </defs>
      <use xlink:href="#DejaVuSans-80"/>
     </g>
    </g>
   </g>
   <g id="text_6">
    <g id="patch_7">
     <path clip-path="url(#p649cee5185)" d="M 372.893078 164.528333 
L 376.808232 168.351922 
Q 378.525248 170.028781 380.202107 168.311765 
L 385.611725 162.772601 
Q 387.288584 161.055585 385.571568 159.378726 
L 381.656415 155.555138 
Q 379.939399 153.878278 378.26254 155.595294 
L 372.852922 161.134458 
Q 371.176063 162.851474 372.893078 164.528333 
z
" style="fill:#ffffff;stroke:#ffffff;stroke-linejoin:miter;"/>
    </g>
    <g clip-path="url(#p649cee5185)">
     <!-- A -->
     <g transform="translate(375.732385 161.621032)rotate(-315.677894)scale(0.08 -0.08)">
      <use xlink:href="#DejaVuSans-65"/>
     </g>
    </g>
   </g>
   <g id="text_7">
    <g id="patch_8">
     <path clip-path="url(#p649cee5185)" d="M 127.998124 32.797282 
L 132.795146 32.290188 
Q 135.181848 32.03789 134.929549 29.651188 
L 134.115624 21.951589 
Q 133.863325 19.564887 131.476623 19.817185 
L 126.679601 20.324279 
Q 124.2929 20.576578 124.545198 22.96328 
L 125.359124 30.662879 
Q 125.611422 33.049581 127.998124 32.797282 
z
" style="fill:#ffffff;stroke:#ffffff;stroke-linejoin:miter;"/>
    </g>
    <g clip-path="url(#p649cee5185)">
     <!-- P -->
     <g transform="translate(127.570925 28.756049)rotate(-6.034334)scale(0.08 -0.08)">
      <use xlink:href="#DejaVuSans-80"/>
     </g>
    </g>
   </g>
   <g id="text_8">
    <g id="patch_9">
     <path clip-path="url(#p649cee5185)" d="M 133.475939 173.373944 
L 136.481047 168.80037 
Q 137.798957 166.794599 135.793187 165.47669 
L 129.322488 161.225059 
Q 127.316718 159.907149 125.998808 161.912919 
L 122.9937 166.486493 
Q 121.67579 168.492264 123.681561 169.810173 
L 130.152259 174.061804 
Q 132.15803 175.379714 133.475939 173.373944 
z
" style="fill:#ffffff;stroke:#ffffff;stroke-linejoin:miter;"/>
    </g>
    <g clip-path="url(#p649cee5185)">
     <!-- A -->
     <g transform="translate(130.07971 171.142421)rotate(-56.692722)scale(0.08 -0.08)">
      <use xlink:href="#DejaVuSans-65"/>
     </g>
    </g>
   </g>
   <g id="text_9">
    <g id="patch_10">
     <path clip-path="url(#p649cee5185)" d="M 73.567134 308.315439 
L 73.567134 342.122939 
Q 73.567134 344.522939 75.967134 344.522939 
L 83.709634 344.522939 
Q 86.109634 344.522939 86.109634 342.122939 
L 86.109634 308.315439 
Q 86.109634 305.915439 83.709634 305.915439 
L 75.967134 305.915439 
Q 73.567134 305.915439 73.567134 308.315439 
z
" style="fill:#ffffff;stroke:#ffffff;stroke-linejoin:miter;"/>
    </g>
    <g clip-path="url(#p649cee5185)">
     <!-- Terminal -->
     <g transform="translate(77.630884 308.315439)rotate(-270)scale(0.08 -0.08)">
      <defs>
       <path d="M -0.296875 72.90625 
L 61.375 72.90625 
L 61.375 64.59375 
L 35.5 64.59375 
L 35.5 0 
L 25.59375 0 
L 25.59375 64.59375 
L -0.296875 64.59375 
z
" id="DejaVuSans-84"/>
       <path d="M 56.203125 29.59375 
L 56.203125 25.203125 
L 14.890625 25.203125 
Q 15.484375 15.921875 20.484375 11.0625 
Q 25.484375 6.203125 34.421875 6.203125 
Q 39.59375 6.203125 44.453125 7.46875 
Q 49.3125 8.734375 54.109375 11.28125 
L 54.109375 2.78125 
Q 49.265625 0.734375 44.1875 -0.34375 
Q 39.109375 -1.421875 33.890625 -1.421875 
Q 20.796875 -1.421875 13.15625 6.1875 
Q 5.515625 13.8125 5.515625 26.8125 
Q 5.515625 40.234375 12.765625 48.109375 
Q 20.015625 56 32.328125 56 
Q 43.359375 56 49.78125 48.890625 
Q 56.203125 41.796875 56.203125 29.59375 
z
M 47.21875 32.234375 
Q 47.125 39.59375 43.09375 43.984375 
Q 39.0625 48.390625 32.421875 48.390625 
Q 24.90625 48.390625 20.390625 44.140625 
Q 15.875 39.890625 15.1875 32.171875 
z
" id="DejaVuSans-101"/>
       <path d="M 41.109375 46.296875 
Q 39.59375 47.171875 37.8125 47.578125 
Q 36.03125 48 33.890625 48 
Q 26.265625 48 22.1875 43.046875 
Q 18.109375 38.09375 18.109375 28.8125 
L 18.109375 0 
L 9.078125 0 
L 9.078125 54.6875 
L 18.109375 54.6875 
L 18.109375 46.1875 
Q 20.953125 51.171875 25.484375 53.578125 
Q 30.03125 56 36.53125 56 
Q 37.453125 56 38.578125 55.875 
Q 39.703125 55.765625 41.0625 55.515625 
z
" id="DejaVuSans-114"/>
       <path d="M 52 44.1875 
Q 55.375 50.25 60.0625 53.125 
Q 64.75 56 71.09375 56 
Q 79.640625 56 84.28125 50.015625 
Q 88.921875 44.046875 88.921875 33.015625 
L 88.921875 0 
L 79.890625 0 
L 79.890625 32.71875 
Q 79.890625 40.578125 77.09375 44.375 
Q 74.3125 48.1875 68.609375 48.1875 
Q 61.625 48.1875 57.5625 43.546875 
Q 53.515625 38.921875 53.515625 30.90625 
L 53.515625 0 
L 44.484375 0 
L 44.484375 32.71875 
Q 44.484375 40.625 41.703125 44.40625 
Q 38.921875 48.1875 33.109375 48.1875 
Q 26.21875 48.1875 22.15625 43.53125 
Q 18.109375 38.875 18.109375 30.90625 
L 18.109375 0 
L 9.078125 0 
L 9.078125 54.6875 
L 18.109375 54.6875 
L 18.109375 46.1875 
Q 21.1875 51.21875 25.484375 53.609375 
Q 29.78125 56 35.6875 56 
Q 41.65625 56 45.828125 52.96875 
Q 50 49.953125 52 44.1875 
z
" id="DejaVuSans-109"/>
       <path d="M 9.421875 54.6875 
L 18.40625 54.6875 
L 18.40625 0 
L 9.421875 0 
z
M 9.421875 75.984375 
L 18.40625 75.984375 
L 18.40625 64.59375 
L 9.421875 64.59375 
z
" id="DejaVuSans-105"/>
       <path d="M 54.890625 33.015625 
L 54.890625 0 
L 45.90625 0 
L 45.90625 32.71875 
Q 45.90625 40.484375 42.875 44.328125 
Q 39.84375 48.1875 33.796875 48.1875 
Q 26.515625 48.1875 22.3125 43.546875 
Q 18.109375 38.921875 18.109375 30.90625 
L 18.109375 0 
L 9.078125 0 
L 9.078125 54.6875 
L 18.109375 54.6875 
L 18.109375 46.1875 
Q 21.34375 51.125 25.703125 53.5625 
Q 30.078125 56 35.796875 56 
Q 45.21875 56 50.046875 50.171875 
Q 54.890625 44.34375 54.890625 33.015625 
z
" id="DejaVuSans-110"/>
       <path d="M 34.28125 27.484375 
Q 23.390625 27.484375 19.1875 25 
Q 14.984375 22.515625 14.984375 16.5 
Q 14.984375 11.71875 18.140625 8.90625 
Q 21.296875 6.109375 26.703125 6.109375 
Q 34.1875 6.109375 38.703125 11.40625 
Q 43.21875 16.703125 43.21875 25.484375 
L 43.21875 27.484375 
z
M 52.203125 31.203125 
L 52.203125 0 
L 43.21875 0 
L 43.21875 8.296875 
Q 40.140625 3.328125 35.546875 0.953125 
Q 30.953125 -1.421875 24.3125 -1.421875 
Q 15.921875 -1.421875 10.953125 3.296875 
Q 6 8.015625 6 15.921875 
Q 6 25.140625 12.171875 29.828125 
Q 18.359375 34.515625 30.609375 34.515625 
L 43.21875 34.515625 
L 43.21875 35.40625 
Q 43.21875 41.609375 39.140625 45 
Q 35.0625 48.390625 27.6875 48.390625 
Q 23 48.390625 18.546875 47.265625 
Q 14.109375 46.140625 10.015625 43.890625 
L 10.015625 52.203125 
Q 14.9375 54.109375 19.578125 55.046875 
Q 24.21875 56 28.609375 56 
Q 40.484375 56 46.34375 49.84375 
Q 52.203125 43.703125 52.203125 31.203125 
z
" id="DejaVuSans-97"/>
       <path d="M 9.421875 75.984375 
L 18.40625 75.984375 
L 18.40625 0 
L 9.421875 0 
z
" id="DejaVuSans-108"/>
      </defs>
      <use xlink:href="#DejaVuSans-84"/>
      <use x="44.083984" xlink:href="#DejaVuSans-101"/>
      <use x="105.607422" xlink:href="#DejaVuSans-114"/>
      <use x="144.970703" xlink:href="#DejaVuSans-109"/>
      <use x="242.382812" xlink:href="#DejaVuSans-105"/>
      <use x="270.166016" xlink:href="#DejaVuSans-110"/>
      <use x="333.544922" xlink:href="#DejaVuSans-97"/>
      <use x="394.824219" xlink:href="#DejaVuSans-108"/>
     </g>
    </g>
   </g>
   <g id="text_10">
    <g id="patch_11">
     <path clip-path="url(#p649cee5185)" d="M 153.617038 320.515634 
L 158.545498 319.391665 
Q 160.88542 318.85803 160.351785 316.518108 
L 158.630256 308.969423 
Q 158.096621 306.629502 155.756699 307.163137 
L 150.828239 308.287106 
Q 148.488317 308.820741 149.021952 311.160662 
L 150.743481 318.709347 
Q 151.277116 321.049269 153.617038 320.515634 
z
" style="fill:#ffffff;stroke:#ffffff;stroke-linejoin:miter;"/>
    </g>
    <g clip-path="url(#p649cee5185)">
     <!-- E -->
     <g transform="translate(152.713472 316.55361)rotate(-12.846976)scale(0.08 -0.08)">
      <defs>
       <path d="M 9.8125 72.90625 
L 55.90625 72.90625 
L 55.90625 64.59375 
L 19.671875 64.59375 
L 19.671875 43.015625 
L 54.390625 43.015625 
L 54.390625 34.71875 
L 19.671875 34.71875 
L 19.671875 8.296875 
L 56.78125 8.296875 
L 56.78125 0 
L 9.8125 0 
z
" id="DejaVuSans-69"/>
      </defs>
      <use xlink:href="#DejaVuSans-69"/>
     </g>
    </g>
   </g>
   <g id="text_11">
    <g id="patch_12">
     <path clip-path="url(#p649cee5185)" d="M 173.365114 311.311885 
L 173.365114 316.366885 
Q 173.365114 318.766885 175.765114 318.766885 
L 183.507614 318.766885 
Q 185.907614 318.766885 185.907614 316.366885 
L 185.907614 311.311885 
Q 185.907614 308.911885 183.507614 308.911885 
L 175.765114 308.911885 
Q 173.365114 308.911885 173.365114 311.311885 
z
" style="fill:#ffffff;stroke:#ffffff;stroke-linejoin:miter;"/>
    </g>
    <g clip-path="url(#p649cee5185)">
     <!-- E -->
     <g transform="translate(177.428864 311.311885)rotate(-270)scale(0.08 -0.08)">
      <use xlink:href="#DejaVuSans-69"/>
     </g>
    </g>
   </g>
   <g id="text_12">
    <g id="patch_13">
     <path clip-path="url(#p649cee5185)" d="M 200.468253 319.332604 
L 205.914665 320.574695 
Q 208.254587 321.10833 208.788222 318.768408 
L 210.509751 311.219723 
Q 211.043386 308.879802 208.703464 308.346167 
L 203.257052 307.104076 
Q 200.917131 306.570441 200.383496 308.910362 
L 198.661967 316.459047 
Q 198.128332 318.798969 200.468253 319.332604 
z
" style="fill:#ffffff;stroke:#ffffff;stroke-linejoin:miter;"/>
    </g>
    <g clip-path="url(#p649cee5185)">
     <!-- C -->
     <g transform="translate(201.37182 315.37058)rotate(-347.153024)scale(0.08 -0.08)">
      <defs>
       <path d="M 64.40625 67.28125 
L 64.40625 56.890625 
Q 59.421875 61.53125 53.78125 63.8125 
Q 48.140625 66.109375 41.796875 66.109375 
Q 29.296875 66.109375 22.65625 58.46875 
Q 16.015625 50.828125 16.015625 36.375 
Q 16.015625 21.96875 22.65625 14.328125 
Q 29.296875 6.6875 41.796875 6.6875 
Q 48.140625 6.6875 53.78125 8.984375 
Q 59.421875 11.28125 64.40625 15.921875 
L 64.40625 5.609375 
Q 59.234375 2.09375 53.4375 0.328125 
Q 47.65625 -1.421875 41.21875 -1.421875 
Q 24.65625 -1.421875 15.125 8.703125 
Q 5.609375 18.84375 5.609375 36.375 
Q 5.609375 53.953125 15.125 64.078125 
Q 24.65625 74.21875 41.21875 74.21875 
Q 47.75 74.21875 53.53125 72.484375 
Q 59.328125 70.75 64.40625 67.28125 
z
" id="DejaVuSans-67"/>
      </defs>
      <use xlink:href="#DejaVuSans-67"/>
     </g>
    </g>
   </g>
   <g id="text_13">
    <g id="patch_14">
     <path clip-path="url(#p649cee5185)" d="M 273.163093 308.315439 
L 273.163093 342.122939 
Q 273.163093 344.522939 275.563093 344.522939 
L 283.305593 344.522939 
Q 285.705593 344.522939 285.705593 342.122939 
L 285.705593 308.315439 
Q 285.705593 305.915439 283.305593 305.915439 
L 275.563093 305.915439 
Q 273.163093 305.915439 273.163093 308.315439 
z
" style="fill:#ffffff;stroke:#ffffff;stroke-linejoin:miter;"/>
    </g>
    <g clip-path="url(#p649cee5185)">
     <!-- Terminal -->
     <g transform="translate(277.226843 308.315439)rotate(-270)scale(0.08 -0.08)">
      <use xlink:href="#DejaVuSans-84"/>
      <use x="44.083984" xlink:href="#DejaVuSans-101"/>
      <use x="105.607422" xlink:href="#DejaVuSans-114"/>
      <use x="144.970703" xlink:href="#DejaVuSans-109"/>
      <use x="242.382812" xlink:href="#DejaVuSans-105"/>
      <use x="270.166016" xlink:href="#DejaVuSans-110"/>
      <use x="333.544922" xlink:href="#DejaVuSans-97"/>
      <use x="394.824219" xlink:href="#DejaVuSans-108"/>
     </g>
    </g>
   </g>
   <g id="text_14">
    <g id="patch_15">
     <path clip-path="url(#p649cee5185)" d="M 323.062083 308.315439 
L 323.062083 342.122939 
Q 323.062083 344.522939 325.462083 344.522939 
L 333.204583 344.522939 
Q 335.604583 344.522939 335.604583 342.122939 
L 335.604583 308.315439 
Q 335.604583 305.915439 333.204583 305.915439 
L 325.462083 305.915439 
Q 323.062083 305.915439 323.062083 308.315439 
z
" style="fill:#ffffff;stroke:#ffffff;stroke-linejoin:miter;"/>
    </g>
    <g clip-path="url(#p649cee5185)">
     <!-- Terminal -->
     <g transform="translate(327.125833 308.315439)rotate(-270)scale(0.08 -0.08)">
      <use xlink:href="#DejaVuSans-84"/>
      <use x="44.083984" xlink:href="#DejaVuSans-101"/>
      <use x="105.607422" xlink:href="#DejaVuSans-114"/>
      <use x="144.970703" xlink:href="#DejaVuSans-109"/>
      <use x="242.382812" xlink:href="#DejaVuSans-105"/>
      <use x="270.166016" xlink:href="#DejaVuSans-110"/>
      <use x="333.544922" xlink:href="#DejaVuSans-97"/>
      <use x="394.824219" xlink:href="#DejaVuSans-108"/>
     </g>
    </g>
   </g>
   <g id="text_15">
    <g id="patch_16">
     <path clip-path="url(#p649cee5185)" d="M 372.961073 308.315439 
L 372.961073 342.122939 
Q 372.961073 344.522939 375.361073 344.522939 
L 383.103573 344.522939 
Q 385.503573 344.522939 385.503573 342.122939 
L 385.503573 308.315439 
Q 385.503573 305.915439 383.103573 305.915439 
L 375.361073 305.915439 
Q 372.961073 305.915439 372.961073 308.315439 
z
" style="fill:#ffffff;stroke:#ffffff;stroke-linejoin:miter;"/>
    </g>
    <g clip-path="url(#p649cee5185)">
     <!-- Terminal -->
     <g transform="translate(377.024823 308.315439)rotate(-270)scale(0.08 -0.08)">
      <use xlink:href="#DejaVuSans-84"/>
      <use x="44.083984" xlink:href="#DejaVuSans-101"/>
      <use x="105.607422" xlink:href="#DejaVuSans-114"/>
      <use x="144.970703" xlink:href="#DejaVuSans-109"/>
      <use x="242.382812" xlink:href="#DejaVuSans-105"/>
      <use x="270.166016" xlink:href="#DejaVuSans-110"/>
      <use x="333.544922" xlink:href="#DejaVuSans-97"/>
      <use x="394.824219" xlink:href="#DejaVuSans-108"/>
     </g>
    </g>
   </g>
   <g id="text_16">
    <g id="patch_17">
     <path clip-path="url(#p649cee5185)" d="M 477.229573 320.356609 
L 482.252026 319.783907 
Q 484.636574 319.512 484.364667 317.127453 
L 483.487487 309.434803 
Q 483.215581 307.050256 480.831033 307.322162 
L 475.80858 307.894864 
Q 473.424032 308.16677 473.695939 310.551318 
L 474.573119 318.243967 
Q 474.845025 320.628515 477.229573 320.356609 
z
" style="fill:#ffffff;stroke:#ffffff;stroke-linejoin:miter;"/>
    </g>
    <g clip-path="url(#p649cee5185)">
     <!-- E -->
     <g transform="translate(476.769173 316.319023)rotate(-6.505248)scale(0.08 -0.08)">
      <use xlink:href="#DejaVuSans-69"/>
     </g>
    </g>
   </g>
   <g id="text_17">
    <g id="patch_18">
     <path clip-path="url(#p649cee5185)" d="M 502.909967 320.515634 
L 507.838428 319.391665 
Q 510.178349 318.85803 509.644714 316.518108 
L 507.923185 308.969423 
Q 507.38955 306.629502 505.049629 307.163137 
L 500.121168 308.287106 
Q 497.781247 308.820741 498.314882 311.160662 
L 500.036411 318.709347 
Q 500.570046 321.049269 502.909967 320.515634 
z
" style="fill:#ffffff;stroke:#ffffff;stroke-linejoin:miter;"/>
    </g>
    <g clip-path="url(#p649cee5185)">
     <!-- E -->
     <g transform="translate(502.006401 316.55361)rotate(-12.846976)scale(0.08 -0.08)">
      <use xlink:href="#DejaVuSans-69"/>
     </g>
    </g>
   </g>
   <g id="text_18">
    <g id="patch_19">
     <path clip-path="url(#p649cee5185)" d="M 522.658043 311.04626 
L 522.658043 316.63251 
Q 522.658043 319.03251 525.058043 319.03251 
L 532.800543 319.03251 
Q 535.200543 319.03251 535.200543 316.63251 
L 535.200543 311.04626 
Q 535.200543 308.64626 532.800543 308.64626 
L 525.058043 308.64626 
Q 522.658043 308.64626 522.658043 311.04626 
z
" style="fill:#ffffff;stroke:#ffffff;stroke-linejoin:miter;"/>
    </g>
    <g clip-path="url(#p649cee5185)">
     <!-- C -->
     <g transform="translate(526.721793 311.04626)rotate(-270)scale(0.08 -0.08)">
      <use xlink:href="#DejaVuSans-67"/>
     </g>
    </g>
   </g>
   <g id="text_19">
    <g id="patch_20">
     <path clip-path="url(#p649cee5185)" d="M 550.020158 319.391665 
L 554.948618 320.515634 
Q 557.28854 321.049269 557.822175 318.709347 
L 559.543704 311.160662 
Q 560.077339 308.820741 557.737417 308.287106 
L 552.808957 307.163137 
Q 550.469036 306.629502 549.935401 308.969423 
L 548.213872 316.518108 
Q 547.680237 318.85803 550.020158 319.391665 
z
" style="fill:#ffffff;stroke:#ffffff;stroke-linejoin:miter;"/>
    </g>
    <g clip-path="url(#p649cee5185)">
     <!-- E -->
     <g transform="translate(550.923725 315.429641)rotate(-347.153024)scale(0.08 -0.08)">
      <use xlink:href="#DejaVuSans-69"/>
     </g>
    </g>
   </g>
   <g id="text_20">
    <g id="patch_21">
     <path clip-path="url(#p649cee5185)" d="M 575.209135 319.738589 
L 581.026438 320.401927 
Q 583.410985 320.673833 583.682891 318.289285 
L 584.560072 310.596635 
Q 584.831978 308.212088 582.44743 307.940182 
L 576.630128 307.276844 
Q 574.24558 307.004938 573.973674 309.389485 
L 573.096494 317.082135 
Q 572.824588 319.466683 575.209135 319.738589 
z
" style="fill:#ffffff;stroke:#ffffff;stroke-linejoin:miter;"/>
    </g>
    <g clip-path="url(#p649cee5185)">
     <!-- U -->
     <g transform="translate(575.669535 315.701003)rotate(-353.494752)scale(0.08 -0.08)">
      <use xlink:href="#DejaVuSans-85"/>
     </g>
    </g>
   </g>
   <g id="text_21">
    <g id="patch_22">
     <path clip-path="url(#p649cee5185)" d="M 23.668144 44.559578 
L 23.668144 49.383328 
Q 23.668144 51.783328 26.068144 51.783328 
L 33.810644 51.783328 
Q 36.210644 51.783328 36.210644 49.383328 
L 36.210644 44.559578 
Q 36.210644 42.159578 33.810644 42.159578 
L 26.068144 42.159578 
Q 23.668144 42.159578 23.668144 44.559578 
z
" style="fill:#ffffff;stroke:#ffffff;stroke-linejoin:miter;"/>
    </g>
    <g clip-path="url(#p649cee5185)">
     <!-- P -->
     <g transform="translate(27.731894 44.559578)rotate(-270)scale(0.08 -0.08)">
      <use xlink:href="#DejaVuSans-80"/>
     </g>
    </g>
   </g>
   <g id="text_22">
    <g id="patch_23">
     <path clip-path="url(#p649cee5185)" d="M 123.466124 308.315439 
L 123.466124 342.122939 
Q 123.466124 344.522939 125.866124 344.522939 
L 133.608624 344.522939 
Q 136.008624 344.522939 136.008624 342.122939 
L 136.008624 308.315439 
Q 136.008624 305.915439 133.608624 305.915439 
L 125.866124 305.915439 
Q 123.466124 305.915439 123.466124 308.315439 
z
" style="fill:#ffffff;stroke:#ffffff;stroke-linejoin:miter;"/>
    </g>
    <g clip-path="url(#p649cee5185)">
     <!-- Terminal -->
     <g transform="translate(127.529874 308.315439)rotate(-270)scale(0.08 -0.08)">
      <use xlink:href="#DejaVuSans-84"/>
      <use x="44.083984" xlink:href="#DejaVuSans-101"/>
      <use x="105.607422" xlink:href="#DejaVuSans-114"/>
      <use x="144.970703" xlink:href="#DejaVuSans-109"/>
      <use x="242.382812" xlink:href="#DejaVuSans-105"/>
      <use x="270.166016" xlink:href="#DejaVuSans-110"/>
      <use x="333.544922" xlink:href="#DejaVuSans-97"/>
      <use x="394.824219" xlink:href="#DejaVuSans-108"/>
     </g>
    </g>
   </g>
   <g id="text_23">
    <g id="patch_24">
     <path clip-path="url(#p649cee5185)" d="M 173.365114 308.315439 
L 173.365114 342.122939 
Q 173.365114 344.522939 175.765114 344.522939 
L 183.507614 344.522939 
Q 185.907614 344.522939 185.907614 342.122939 
L 185.907614 308.315439 
Q 185.907614 305.915439 183.507614 305.915439 
L 175.765114 305.915439 
Q 173.365114 305.915439 173.365114 308.315439 
z
" style="fill:#ffffff;stroke:#ffffff;stroke-linejoin:miter;"/>
    </g>
    <g clip-path="url(#p649cee5185)">
     <!-- Terminal -->
     <g transform="translate(177.428864 308.315439)rotate(-270)scale(0.08 -0.08)">
      <use xlink:href="#DejaVuSans-84"/>
      <use x="44.083984" xlink:href="#DejaVuSans-101"/>
      <use x="105.607422" xlink:href="#DejaVuSans-114"/>
      <use x="144.970703" xlink:href="#DejaVuSans-109"/>
      <use x="242.382812" xlink:href="#DejaVuSans-105"/>
      <use x="270.166016" xlink:href="#DejaVuSans-110"/>
      <use x="333.544922" xlink:href="#DejaVuSans-97"/>
      <use x="394.824219" xlink:href="#DejaVuSans-108"/>
     </g>
    </g>
   </g>
   <g id="text_24">
    <g id="patch_25">
     <path clip-path="url(#p649cee5185)" d="M 223.264104 308.315439 
L 223.264104 342.122939 
Q 223.264104 344.522939 225.664104 344.522939 
L 233.406604 344.522939 
Q 235.806604 344.522939 235.806604 342.122939 
L 235.806604 308.315439 
Q 235.806604 305.915439 233.406604 305.915439 
L 225.664104 305.915439 
Q 223.264104 305.915439 223.264104 308.315439 
z
" style="fill:#ffffff;stroke:#ffffff;stroke-linejoin:miter;"/>
    </g>
    <g clip-path="url(#p649cee5185)">
     <!-- Terminal -->
     <g transform="translate(227.327854 308.315439)rotate(-270)scale(0.08 -0.08)">
      <use xlink:href="#DejaVuSans-84"/>
      <use x="44.083984" xlink:href="#DejaVuSans-101"/>
      <use x="105.607422" xlink:href="#DejaVuSans-114"/>
      <use x="144.970703" xlink:href="#DejaVuSans-109"/>
      <use x="242.382812" xlink:href="#DejaVuSans-105"/>
      <use x="270.166016" xlink:href="#DejaVuSans-110"/>
      <use x="333.544922" xlink:href="#DejaVuSans-97"/>
      <use x="394.824219" xlink:href="#DejaVuSans-108"/>
     </g>
    </g>
   </g>
   <g id="text_25">
    <g id="patch_26">
     <path clip-path="url(#p649cee5185)" d="M 422.860063 308.315439 
L 422.860063 342.122939 
Q 422.860063 344.522939 425.260063 344.522939 
L 433.002563 344.522939 
Q 435.402563 344.522939 435.402563 342.122939 
L 435.402563 308.315439 
Q 435.402563 305.915439 433.002563 305.915439 
L 425.260063 305.915439 
Q 422.860063 305.915439 422.860063 308.315439 
z
" style="fill:#ffffff;stroke:#ffffff;stroke-linejoin:miter;"/>
    </g>
    <g clip-path="url(#p649cee5185)">
     <!-- Terminal -->
     <g transform="translate(426.923813 308.315439)rotate(-270)scale(0.08 -0.08)">
      <use xlink:href="#DejaVuSans-84"/>
      <use x="44.083984" xlink:href="#DejaVuSans-101"/>
      <use x="105.607422" xlink:href="#DejaVuSans-114"/>
      <use x="144.970703" xlink:href="#DejaVuSans-109"/>
      <use x="242.382812" xlink:href="#DejaVuSans-105"/>
      <use x="270.166016" xlink:href="#DejaVuSans-110"/>
      <use x="333.544922" xlink:href="#DejaVuSans-97"/>
      <use x="394.824219" xlink:href="#DejaVuSans-108"/>
     </g>
    </g>
   </g>
   <g id="text_26">
    <g id="patch_27">
     <path clip-path="url(#p649cee5185)" d="M 472.759053 308.315439 
L 472.759053 342.122939 
Q 472.759053 344.522939 475.159053 344.522939 
L 482.901553 344.522939 
Q 485.301553 344.522939 485.301553 342.122939 
L 485.301553 308.315439 
Q 485.301553 305.915439 482.901553 305.915439 
L 475.159053 305.915439 
Q 472.759053 305.915439 472.759053 308.315439 
z
" style="fill:#ffffff;stroke:#ffffff;stroke-linejoin:miter;"/>
    </g>
    <g clip-path="url(#p649cee5185)">
     <!-- Terminal -->
     <g transform="translate(476.822803 308.315439)rotate(-270)scale(0.08 -0.08)">
      <use xlink:href="#DejaVuSans-84"/>
      <use x="44.083984" xlink:href="#DejaVuSans-101"/>
      <use x="105.607422" xlink:href="#DejaVuSans-114"/>
      <use x="144.970703" xlink:href="#DejaVuSans-109"/>
      <use x="242.382812" xlink:href="#DejaVuSans-105"/>
      <use x="270.166016" xlink:href="#DejaVuSans-110"/>
      <use x="333.544922" xlink:href="#DejaVuSans-97"/>
      <use x="394.824219" xlink:href="#DejaVuSans-108"/>
     </g>
    </g>
   </g>
   <g id="text_27">
    <g id="patch_28">
     <path clip-path="url(#p649cee5185)" d="M 522.658043 308.315439 
L 522.658043 342.122939 
Q 522.658043 344.522939 525.058043 344.522939 
L 532.800543 344.522939 
Q 535.200543 344.522939 535.200543 342.122939 
L 535.200543 308.315439 
Q 535.200543 305.915439 532.800543 305.915439 
L 525.058043 305.915439 
Q 522.658043 305.915439 522.658043 308.315439 
z
" style="fill:#ffffff;stroke:#ffffff;stroke-linejoin:miter;"/>
    </g>
    <g clip-path="url(#p649cee5185)">
     <!-- Terminal -->
     <g transform="translate(526.721793 308.315439)rotate(-270)scale(0.08 -0.08)">
      <use xlink:href="#DejaVuSans-84"/>
      <use x="44.083984" xlink:href="#DejaVuSans-101"/>
      <use x="105.607422" xlink:href="#DejaVuSans-114"/>
      <use x="144.970703" xlink:href="#DejaVuSans-109"/>
      <use x="242.382812" xlink:href="#DejaVuSans-105"/>
      <use x="270.166016" xlink:href="#DejaVuSans-110"/>
      <use x="333.544922" xlink:href="#DejaVuSans-97"/>
      <use x="394.824219" xlink:href="#DejaVuSans-108"/>
     </g>
    </g>
   </g>
   <g id="text_28">
    <g id="patch_29">
     <path clip-path="url(#p649cee5185)" d="M 572.557033 308.315439 
L 572.557033 342.122939 
Q 572.557033 344.522939 574.957033 344.522939 
L 582.699533 344.522939 
Q 585.099533 344.522939 585.099533 342.122939 
L 585.099533 308.315439 
Q 585.099533 305.915439 582.699533 305.915439 
L 574.957033 305.915439 
Q 572.557033 305.915439 572.557033 308.315439 
z
" style="fill:#ffffff;stroke:#ffffff;stroke-linejoin:miter;"/>
    </g>
    <g clip-path="url(#p649cee5185)">
     <!-- Terminal -->
     <g transform="translate(576.620783 308.315439)rotate(-270)scale(0.08 -0.08)">
      <use xlink:href="#DejaVuSans-84"/>
      <use x="44.083984" xlink:href="#DejaVuSans-101"/>
      <use x="105.607422" xlink:href="#DejaVuSans-114"/>
      <use x="144.970703" xlink:href="#DejaVuSans-109"/>
      <use x="242.382812" xlink:href="#DejaVuSans-105"/>
      <use x="270.166016" xlink:href="#DejaVuSans-110"/>
      <use x="333.544922" xlink:href="#DejaVuSans-97"/>
      <use x="394.824219" xlink:href="#DejaVuSans-108"/>
     </g>
    </g>
   </g>
   <g id="text_29">
    <g id="patch_30">
     <path clip-path="url(#p649cee5185)" d="M 622.456023 308.315439 
L 622.456023 342.122939 
Q 622.456023 344.522939 624.856023 344.522939 
L 632.598523 344.522939 
Q 634.998523 344.522939 634.998523 342.122939 
L 634.998523 308.315439 
Q 634.998523 305.915439 632.598523 305.915439 
L 624.856023 305.915439 
Q 622.456023 305.915439 622.456023 308.315439 
z
" style="fill:#ffffff;stroke:#ffffff;stroke-linejoin:miter;"/>
    </g>
    <g clip-path="url(#p649cee5185)">
     <!-- Terminal -->
     <g transform="translate(626.519773 308.315439)rotate(-270)scale(0.08 -0.08)">
      <use xlink:href="#DejaVuSans-84"/>
      <use x="44.083984" xlink:href="#DejaVuSans-101"/>
      <use x="105.607422" xlink:href="#DejaVuSans-114"/>
      <use x="144.970703" xlink:href="#DejaVuSans-109"/>
      <use x="242.382812" xlink:href="#DejaVuSans-105"/>
      <use x="270.166016" xlink:href="#DejaVuSans-110"/>
      <use x="333.544922" xlink:href="#DejaVuSans-97"/>
      <use x="394.824219" xlink:href="#DejaVuSans-108"/>
     </g>
    </g>
   </g>
   <g id="text_30">
    <g id="patch_31">
     <path clip-path="url(#p649cee5185)" d="M 23.668144 64.378568 
L 23.668144 69.202318 
Q 23.668144 71.602318 26.068144 71.602318 
L 33.810644 71.602318 
Q 36.210644 71.602318 36.210644 69.202318 
L 36.210644 64.378568 
Q 36.210644 61.978568 33.810644 61.978568 
L 26.068144 61.978568 
Q 23.668144 61.978568 23.668144 64.378568 
z
" style="fill:#ffffff;stroke:#ffffff;stroke-linejoin:miter;"/>
    </g>
    <g clip-path="url(#p649cee5185)">
     <!-- P -->
     <g transform="translate(27.731894 64.378568)rotate(-270)scale(0.08 -0.08)">
      <use xlink:href="#DejaVuSans-80"/>
     </g>
    </g>
   </g>
   <g id="text_31">
    <g id="patch_32">
     <path clip-path="url(#p649cee5185)" d="M 23.668144 83.400888 
L 23.668144 88.224638 
Q 23.668144 90.624638 26.068144 90.624638 
L 33.810644 90.624638 
Q 36.210644 90.624638 36.210644 88.224638 
L 36.210644 83.400888 
Q 36.210644 81.000888 33.810644 81.000888 
L 26.068144 81.000888 
Q 23.668144 81.000888 23.668144 83.400888 
z
" style="fill:#ffffff;stroke:#ffffff;stroke-linejoin:miter;"/>
    </g>
    <g clip-path="url(#p649cee5185)">
     <!-- P -->
     <g transform="translate(27.731894 83.400888)rotate(-270)scale(0.08 -0.08)">
      <use xlink:href="#DejaVuSans-80"/>
     </g>
    </g>
   </g>
   <g id="text_32">
    <g id="patch_33">
     <path clip-path="url(#p649cee5185)" d="M 23.668144 101.672465 
L 23.668144 106.496215 
Q 23.668144 108.896215 26.068144 108.896215 
L 33.810644 108.896215 
Q 36.210644 108.896215 36.210644 106.496215 
L 36.210644 101.672465 
Q 36.210644 99.272465 33.810644 99.272465 
L 26.068144 99.272465 
Q 23.668144 99.272465 23.668144 101.672465 
z
" style="fill:#ffffff;stroke:#ffffff;stroke-linejoin:miter;"/>
    </g>
    <g clip-path="url(#p649cee5185)">
     <!-- P -->
     <g transform="translate(27.731894 101.672465)rotate(-270)scale(0.08 -0.08)">
      <use xlink:href="#DejaVuSans-80"/>
     </g>
    </g>
   </g>
   <g id="text_33">
    <g id="patch_34">
     <path clip-path="url(#p649cee5185)" d="M 23.668144 119.236804 
L 23.668144 124.060554 
Q 23.668144 126.460554 26.068144 126.460554 
L 33.810644 126.460554 
Q 36.210644 126.460554 36.210644 124.060554 
L 36.210644 119.236804 
Q 36.210644 116.836804 33.810644 116.836804 
L 26.068144 116.836804 
Q 23.668144 116.836804 23.668144 119.236804 
z
" style="fill:#ffffff;stroke:#ffffff;stroke-linejoin:miter;"/>
    </g>
    <g clip-path="url(#p649cee5185)">
     <!-- P -->
     <g transform="translate(27.731894 119.236804)rotate(-270)scale(0.08 -0.08)">
      <use xlink:href="#DejaVuSans-80"/>
     </g>
    </g>
   </g>
   <g id="text_34">
    <g id="patch_35">
     <path clip-path="url(#p649cee5185)" d="M 23.668144 136.1352 
L 23.668144 140.95895 
Q 23.668144 143.35895 26.068144 143.35895 
L 33.810644 143.35895 
Q 36.210644 143.35895 36.210644 140.95895 
L 36.210644 136.1352 
Q 36.210644 133.7352 33.810644 133.7352 
L 26.068144 133.7352 
Q 23.668144 133.7352 23.668144 136.1352 
z
" style="fill:#ffffff;stroke:#ffffff;stroke-linejoin:miter;"/>
    </g>
    <g clip-path="url(#p649cee5185)">
     <!-- P -->
     <g transform="translate(27.731894 136.1352)rotate(-270)scale(0.08 -0.08)">
      <use xlink:href="#DejaVuSans-80"/>
     </g>
    </g>
   </g>
   <g id="text_35">
    <g id="patch_36">
     <path clip-path="url(#p649cee5185)" d="M 23.668144 152.406939 
L 23.668144 157.230689 
Q 23.668144 159.630689 26.068144 159.630689 
L 33.810644 159.630689 
Q 36.210644 159.630689 36.210644 157.230689 
L 36.210644 152.406939 
Q 36.210644 150.006939 33.810644 150.006939 
L 26.068144 150.006939 
Q 23.668144 150.006939 23.668144 152.406939 
z
" style="fill:#ffffff;stroke:#ffffff;stroke-linejoin:miter;"/>
    </g>
    <g clip-path="url(#p649cee5185)">
     <!-- P -->
     <g transform="translate(27.731894 152.406939)rotate(-270)scale(0.08 -0.08)">
      <use xlink:href="#DejaVuSans-80"/>
     </g>
    </g>
   </g>
   <g id="text_36">
    <g id="patch_37">
     <path clip-path="url(#p649cee5185)" d="M 23.668144 168.0895 
L 23.668144 172.91325 
Q 23.668144 175.31325 26.068144 175.31325 
L 33.810644 175.31325 
Q 36.210644 175.31325 36.210644 172.91325 
L 36.210644 168.0895 
Q 36.210644 165.6895 33.810644 165.6895 
L 26.068144 165.6895 
Q 23.668144 165.6895 23.668144 168.0895 
z
" style="fill:#ffffff;stroke:#ffffff;stroke-linejoin:miter;"/>
    </g>
    <g clip-path="url(#p649cee5185)">
     <!-- P -->
     <g transform="translate(27.731894 168.0895)rotate(-270)scale(0.08 -0.08)">
      <use xlink:href="#DejaVuSans-80"/>
     </g>
    </g>
   </g>
   <g id="text_37">
    <g id="patch_38">
     <path clip-path="url(#p649cee5185)" d="M 23.668144 183.218761 
L 23.668144 188.042511 
Q 23.668144 190.442511 26.068144 190.442511 
L 33.810644 190.442511 
Q 36.210644 190.442511 36.210644 188.042511 
L 36.210644 183.218761 
Q 36.210644 180.818761 33.810644 180.818761 
L 26.068144 180.818761 
Q 23.668144 180.818761 23.668144 183.218761 
z
" style="fill:#ffffff;stroke:#ffffff;stroke-linejoin:miter;"/>
    </g>
    <g clip-path="url(#p649cee5185)">
     <!-- P -->
     <g transform="translate(27.731894 183.218761)rotate(-270)scale(0.08 -0.08)">
      <use xlink:href="#DejaVuSans-80"/>
     </g>
    </g>
   </g>
   <g id="text_38">
    <g id="patch_39">
     <path clip-path="url(#p649cee5185)" d="M 23.668144 197.829219 
L 23.668144 202.652969 
Q 23.668144 205.052969 26.068144 205.052969 
L 33.810644 205.052969 
Q 36.210644 205.052969 36.210644 202.652969 
L 36.210644 197.829219 
Q 36.210644 195.429219 33.810644 195.429219 
L 26.068144 195.429219 
Q 23.668144 195.429219 23.668144 197.829219 
z
" style="fill:#ffffff;stroke:#ffffff;stroke-linejoin:miter;"/>
    </g>
    <g clip-path="url(#p649cee5185)">
     <!-- P -->
     <g transform="translate(27.731894 197.829219)rotate(-270)scale(0.08 -0.08)">
      <use xlink:href="#DejaVuSans-80"/>
     </g>
    </g>
   </g>
   <g id="text_39">
    <g id="patch_40">
     <path clip-path="url(#p649cee5185)" d="M 23.668144 211.954227 
L 23.668144 216.777977 
Q 23.668144 219.177977 26.068144 219.177977 
L 33.810644 219.177977 
Q 36.210644 219.177977 36.210644 216.777977 
L 36.210644 211.954227 
Q 36.210644 209.554227 33.810644 209.554227 
L 26.068144 209.554227 
Q 23.668144 209.554227 23.668144 211.954227 
z
" style="fill:#ffffff;stroke:#ffffff;stroke-linejoin:miter;"/>
    </g>
    <g clip-path="url(#p649cee5185)">
     <!-- P -->
     <g transform="translate(27.731894 211.954227)rotate(-270)scale(0.08 -0.08)">
      <use xlink:href="#DejaVuSans-80"/>
     </g>
    </g>
   </g>
   <g id="text_40">
    <g id="patch_41">
     <path clip-path="url(#p649cee5185)" d="M 23.668144 225.626262 
L 23.668144 230.450012 
Q 23.668144 232.850012 26.068144 232.850012 
L 33.810644 232.850012 
Q 36.210644 232.850012 36.210644 230.450012 
L 36.210644 225.626262 
Q 36.210644 223.226262 33.810644 223.226262 
L 26.068144 223.226262 
Q 23.668144 223.226262 23.668144 225.626262 
z
" style="fill:#ffffff;stroke:#ffffff;stroke-linejoin:miter;"/>
    </g>
    <g clip-path="url(#p649cee5185)">
     <!-- P -->
     <g transform="translate(27.731894 225.626262)rotate(-270)scale(0.08 -0.08)">
      <use xlink:href="#DejaVuSans-80"/>
     </g>
    </g>
   </g>
   <g id="text_41">
    <g id="patch_42">
     <path clip-path="url(#p649cee5185)" d="M 23.668144 238.877254 
L 23.668144 243.701004 
Q 23.668144 246.101004 26.068144 246.101004 
L 33.810644 246.101004 
Q 36.210644 246.101004 36.210644 243.701004 
L 36.210644 238.877254 
Q 36.210644 236.477254 33.810644 236.477254 
L 26.068144 236.477254 
Q 23.668144 236.477254 23.668144 238.877254 
z
" style="fill:#ffffff;stroke:#ffffff;stroke-linejoin:miter;"/>
    </g>
    <g clip-path="url(#p649cee5185)">
     <!-- P -->
     <g transform="translate(27.731894 238.877254)rotate(-270)scale(0.08 -0.08)">
      <use xlink:href="#DejaVuSans-80"/>
     </g>
    </g>
   </g>
   <g id="text_42">
    <g id="patch_43">
     <path clip-path="url(#p649cee5185)" d="M 23.668144 251.739003 
L 23.668144 256.562753 
Q 23.668144 258.962753 26.068144 258.962753 
L 33.810644 258.962753 
Q 36.210644 258.962753 36.210644 256.562753 
L 36.210644 251.739003 
Q 36.210644 249.339003 33.810644 249.339003 
L 26.068144 249.339003 
Q 23.668144 249.339003 23.668144 251.739003 
z
" style="fill:#ffffff;stroke:#ffffff;stroke-linejoin:miter;"/>
    </g>
    <g clip-path="url(#p649cee5185)">
     <!-- P -->
     <g transform="translate(27.731894 251.739003)rotate(-270)scale(0.08 -0.08)">
      <use xlink:href="#DejaVuSans-80"/>
     </g>
    </g>
   </g>
   <g id="text_43">
    <g id="patch_44">
     <path clip-path="url(#p649cee5185)" d="M 23.668144 264.24376 
L 23.668144 269.06751 
Q 23.668144 271.46751 26.068144 271.46751 
L 33.810644 271.46751 
Q 36.210644 271.46751 36.210644 269.06751 
L 36.210644 264.24376 
Q 36.210644 261.84376 33.810644 261.84376 
L 26.068144 261.84376 
Q 23.668144 261.84376 23.668144 264.24376 
z
" style="fill:#ffffff;stroke:#ffffff;stroke-linejoin:miter;"/>
    </g>
    <g clip-path="url(#p649cee5185)">
     <!-- P -->
     <g transform="translate(27.731894 264.24376)rotate(-270)scale(0.08 -0.08)">
      <use xlink:href="#DejaVuSans-80"/>
     </g>
    </g>
   </g>
   <g id="text_44">
    <g id="patch_45">
     <path clip-path="url(#p649cee5185)" d="M 23.668144 276.425092 
L 23.668144 281.248842 
Q 23.668144 283.648842 26.068144 283.648842 
L 33.810644 283.648842 
Q 36.210644 283.648842 36.210644 281.248842 
L 36.210644 276.425092 
Q 36.210644 274.025092 33.810644 274.025092 
L 26.068144 274.025092 
Q 23.668144 274.025092 23.668144 276.425092 
z
" style="fill:#ffffff;stroke:#ffffff;stroke-linejoin:miter;"/>
    </g>
    <g clip-path="url(#p649cee5185)">
     <!-- P -->
     <g transform="translate(27.731894 276.425092)rotate(-270)scale(0.08 -0.08)">
      <use xlink:href="#DejaVuSans-80"/>
     </g>
    </g>
   </g>
   <g id="text_45">
    <g id="patch_46">
     <path clip-path="url(#p649cee5185)" d="M 23.668144 288.319357 
L 23.668144 293.143107 
Q 23.668144 295.543107 26.068144 295.543107 
L 33.810644 295.543107 
Q 36.210644 295.543107 36.210644 293.143107 
L 36.210644 288.319357 
Q 36.210644 285.919357 33.810644 285.919357 
L 26.068144 285.919357 
Q 23.668144 285.919357 23.668144 288.319357 
z
" style="fill:#ffffff;stroke:#ffffff;stroke-linejoin:miter;"/>
    </g>
    <g clip-path="url(#p649cee5185)">
     <!-- P -->
     <g transform="translate(27.731894 288.319357)rotate(-270)scale(0.08 -0.08)">
      <use xlink:href="#DejaVuSans-80"/>
     </g>
    </g>
   </g>
   <g id="text_46">
    <g id="patch_47">
     <path clip-path="url(#p649cee5185)" d="M 23.668144 299.968554 
L 23.668144 304.792304 
Q 23.668144 307.192304 26.068144 307.192304 
L 33.810644 307.192304 
Q 36.210644 307.192304 36.210644 304.792304 
L 36.210644 299.968554 
Q 36.210644 297.568554 33.810644 297.568554 
L 26.068144 297.568554 
Q 23.668144 297.568554 23.668144 299.968554 
z
" style="fill:#ffffff;stroke:#ffffff;stroke-linejoin:miter;"/>
    </g>
    <g clip-path="url(#p649cee5185)">
     <!-- P -->
     <g transform="translate(27.731894 299.968554)rotate(-270)scale(0.08 -0.08)">
      <use xlink:href="#DejaVuSans-80"/>
     </g>
    </g>
   </g>
   <g id="text_47">
    <g id="patch_48">
     <path clip-path="url(#p649cee5185)" d="M 23.668144 311.42751 
L 23.668144 316.25126 
Q 23.668144 318.65126 26.068144 318.65126 
L 33.810644 318.65126 
Q 36.210644 318.65126 36.210644 316.25126 
L 36.210644 311.42751 
Q 36.210644 309.02751 33.810644 309.02751 
L 26.068144 309.02751 
Q 23.668144 309.02751 23.668144 311.42751 
z
" style="fill:#ffffff;stroke:#ffffff;stroke-linejoin:miter;"/>
    </g>
    <g clip-path="url(#p649cee5185)">
     <!-- P -->
     <g transform="translate(27.731894 311.42751)rotate(-270)scale(0.08 -0.08)">
      <use xlink:href="#DejaVuSans-80"/>
     </g>
    </g>
   </g>
   <g id="text_48">
    <g id="patch_49">
     <path clip-path="url(#p649cee5185)" d="M 23.668144 308.315439 
L 23.668144 342.122939 
Q 23.668144 344.522939 26.068144 344.522939 
L 33.810644 344.522939 
Q 36.210644 344.522939 36.210644 342.122939 
L 36.210644 308.315439 
Q 36.210644 305.915439 33.810644 305.915439 
L 26.068144 305.915439 
Q 23.668144 305.915439 23.668144 308.315439 
z
" style="fill:#ffffff;stroke:#ffffff;stroke-linejoin:miter;"/>
    </g>
    <g clip-path="url(#p649cee5185)">
     <!-- Terminal -->
     <g transform="translate(27.731894 308.315439)rotate(-270)scale(0.08 -0.08)">
      <use xlink:href="#DejaVuSans-84"/>
      <use x="44.083984" xlink:href="#DejaVuSans-101"/>
      <use x="105.607422" xlink:href="#DejaVuSans-114"/>
      <use x="144.970703" xlink:href="#DejaVuSans-109"/>
      <use x="242.382812" xlink:href="#DejaVuSans-105"/>
      <use x="270.166016" xlink:href="#DejaVuSans-110"/>
      <use x="333.544922" xlink:href="#DejaVuSans-97"/>
      <use x="394.824219" xlink:href="#DejaVuSans-108"/>
     </g>
    </g>
   </g>
   <g id="PathCollection_1">
    <defs>
     <path d="M 0 8.660254 
C 2.296726 8.660254 4.499694 7.747755 6.123724 6.123724 
C 7.747755 4.499694 8.660254 2.296726 8.660254 -0 
C 8.660254 -2.296726 7.747755 -4.499694 6.123724 -6.123724 
C 4.499694 -7.747755 2.296726 -8.660254 0 -8.660254 
C -2.296726 -8.660254 -4.499694 -7.747755 -6.123724 -6.123724 
C -7.747755 -4.499694 -8.660254 -2.296726 -8.660254 0 
C -8.660254 2.296726 -7.747755 4.499694 -6.123724 6.123724 
C -4.499694 7.747755 -2.296726 8.660254 0 8.660254 
z
" id="C0_0_34bf75d2e6"/>
    </defs>
    <g clip-path="url(#p649cee5185)">
     <use style="fill:#ffffff;stroke:#ffffff;" x="29.939394" xlink:href="#C0_0_34bf75d2e6" y="330.909091"/>
    </g>
    <g clip-path="url(#p649cee5185)">
     <use style="fill:#ffffff;stroke:#ffffff;" x="79.838384" xlink:href="#C0_0_34bf75d2e6" y="330.909091"/>
    </g>
    <g clip-path="url(#p649cee5185)">
     <use style="fill:#ffffff;stroke:#ffffff;" x="129.737374" xlink:href="#C0_0_34bf75d2e6" y="330.909091"/>
    </g>
    <g clip-path="url(#p649cee5185)">
     <use style="fill:#ffffff;stroke:#ffffff;" x="179.636364" xlink:href="#C0_0_34bf75d2e6" y="330.909091"/>
    </g>
    <g clip-path="url(#p649cee5185)">
     <use style="fill:#ffffff;stroke:#ffffff;" x="229.535354" xlink:href="#C0_0_34bf75d2e6" y="330.909091"/>
    </g>
    <g clip-path="url(#p649cee5185)">
     <use style="fill:#ffffff;stroke:#ffffff;" x="279.434343" xlink:href="#C0_0_34bf75d2e6" y="330.909091"/>
    </g>
    <g clip-path="url(#p649cee5185)">
     <use style="fill:#ffffff;stroke:#ffffff;" x="329.333333" xlink:href="#C0_0_34bf75d2e6" y="330.909091"/>
    </g>
    <g clip-path="url(#p649cee5185)">
     <use style="fill:#ffffff;stroke:#ffffff;" x="379.232323" xlink:href="#C0_0_34bf75d2e6" y="330.909091"/>
    </g>
    <g clip-path="url(#p649cee5185)">
     <use style="fill:#ffffff;stroke:#ffffff;" x="429.131313" xlink:href="#C0_0_34bf75d2e6" y="330.909091"/>
    </g>
    <g clip-path="url(#p649cee5185)">
     <use style="fill:#ffffff;stroke:#ffffff;" x="479.030303" xlink:href="#C0_0_34bf75d2e6" y="330.909091"/>
    </g>
    <g clip-path="url(#p649cee5185)">
     <use style="fill:#ffffff;stroke:#ffffff;" x="528.929293" xlink:href="#C0_0_34bf75d2e6" y="330.909091"/>
    </g>
    <g clip-path="url(#p649cee5185)">
     <use style="fill:#ffffff;stroke:#ffffff;" x="578.828283" xlink:href="#C0_0_34bf75d2e6" y="330.909091"/>
    </g>
    <g clip-path="url(#p649cee5185)">
     <use style="fill:#ffffff;stroke:#ffffff;" x="628.727273" xlink:href="#C0_0_34bf75d2e6" y="330.909091"/>
    </g>
    <g clip-path="url(#p649cee5185)">
     <use style="stroke:#000000;" x="229.535354" xlink:href="#C0_0_34bf75d2e6" y="15.757576"/>
    </g>
    <g clip-path="url(#p649cee5185)">
     <use style="stroke:#000000;" x="79.838384" xlink:href="#C0_0_34bf75d2e6" y="319.529287"/>
    </g>
    <g clip-path="url(#p649cee5185)">
     <use style="stroke:#000000;" x="179.636364" xlink:href="#C0_0_34bf75d2e6" y="308.149483"/>
    </g>
    <g clip-path="url(#p649cee5185)">
     <use style="stroke:#000000;" x="279.434343" xlink:href="#C0_0_34bf75d2e6" y="319.529287"/>
    </g>
    <g clip-path="url(#p649cee5185)">
     <use style="stroke:#000000;" x="329.333333" xlink:href="#C0_0_34bf75d2e6" y="319.529287"/>
    </g>
    <g clip-path="url(#p649cee5185)">
     <use style="stroke:#000000;" x="379.232323" xlink:href="#C0_0_34bf75d2e6" y="319.529287"/>
    </g>
    <g clip-path="url(#p649cee5185)">
     <use style="stroke:#000000;" x="528.929293" xlink:href="#C0_0_34bf75d2e6" y="308.149483"/>
    </g>
    <g clip-path="url(#p649cee5185)">
     <use style="stroke:#000000;" x="29.939394" xlink:href="#C0_0_34bf75d2e6" y="36.856892"/>
    </g>
    <g clip-path="url(#p649cee5185)">
     <use style="stroke:#000000;" x="129.737374" xlink:href="#C0_0_34bf75d2e6" y="319.529287"/>
    </g>
    <g clip-path="url(#p649cee5185)">
     <use style="stroke:#000000;" x="179.636364" xlink:href="#C0_0_34bf75d2e6" y="319.529287"/>
    </g>
    <g clip-path="url(#p649cee5185)">
     <use style="stroke:#000000;" x="229.535354" xlink:href="#C0_0_34bf75d2e6" y="319.529287"/>
    </g>
    <g clip-path="url(#p649cee5185)">
     <use style="stroke:#000000;" x="429.131313" xlink:href="#C0_0_34bf75d2e6" y="319.529287"/>
    </g>
    <g clip-path="url(#p649cee5185)">
     <use style="stroke:#000000;" x="479.030303" xlink:href="#C0_0_34bf75d2e6" y="319.529287"/>
    </g>
    <g clip-path="url(#p649cee5185)">
     <use style="stroke:#000000;" x="528.929293" xlink:href="#C0_0_34bf75d2e6" y="319.529287"/>
    </g>
    <g clip-path="url(#p649cee5185)">
     <use style="stroke:#000000;" x="578.828283" xlink:href="#C0_0_34bf75d2e6" y="319.529287"/>
    </g>
    <g clip-path="url(#p649cee5185)">
     <use style="stroke:#000000;" x="628.727273" xlink:href="#C0_0_34bf75d2e6" y="319.529287"/>
    </g>
    <g clip-path="url(#p649cee5185)">
     <use style="stroke:#000000;" x="29.939394" xlink:href="#C0_0_34bf75d2e6" y="57.086014"/>
    </g>
    <g clip-path="url(#p649cee5185)">
     <use style="stroke:#000000;" x="29.939394" xlink:href="#C0_0_34bf75d2e6" y="76.494872"/>
    </g>
    <g clip-path="url(#p649cee5185)">
     <use style="stroke:#000000;" x="29.939394" xlink:href="#C0_0_34bf75d2e6" y="95.130655"/>
    </g>
    <g clip-path="url(#p649cee5185)">
     <use style="stroke:#000000;" x="29.939394" xlink:href="#C0_0_34bf75d2e6" y="113.038025"/>
    </g>
    <g clip-path="url(#p649cee5185)">
     <use style="stroke:#000000;" x="29.939394" xlink:href="#C0_0_34bf75d2e6" y="130.259333"/>
    </g>
    <g clip-path="url(#p649cee5185)">
     <use style="stroke:#000000;" x="29.939394" xlink:href="#C0_0_34bf75d2e6" y="146.834818"/>
    </g>
    <g clip-path="url(#p649cee5185)">
     <use style="stroke:#000000;" x="29.939394" xlink:href="#C0_0_34bf75d2e6" y="162.802811"/>
    </g>
    <g clip-path="url(#p649cee5185)">
     <use style="stroke:#000000;" x="29.939394" xlink:href="#C0_0_34bf75d2e6" y="178.199939"/>
    </g>
    <g clip-path="url(#p649cee5185)">
     <use style="stroke:#000000;" x="29.939394" xlink:href="#C0_0_34bf75d2e6" y="193.061333"/>
    </g>
    <g clip-path="url(#p649cee5185)">
     <use style="stroke:#000000;" x="29.939394" xlink:href="#C0_0_34bf75d2e6" y="207.420855"/>
    </g>
    <g clip-path="url(#p649cee5185)">
     <use style="stroke:#000000;" x="29.939394" xlink:href="#C0_0_34bf75d2e6" y="221.311348"/>
    </g>
    <g clip-path="url(#p649cee5185)">
     <use style="stroke:#000000;" x="29.939394" xlink:href="#C0_0_34bf75d2e6" y="234.764925"/>
    </g>
    <g clip-path="url(#p649cee5185)">
     <use style="stroke:#000000;" x="29.939394" xlink:href="#C0_0_34bf75d2e6" y="247.813332"/>
    </g>
    <g clip-path="url(#p649cee5185)">
     <use style="stroke:#000000;" x="29.939394" xlink:href="#C0_0_34bf75d2e6" y="260.488424"/>
    </g>
    <g clip-path="url(#p649cee5185)">
     <use style="stroke:#000000;" x="29.939394" xlink:href="#C0_0_34bf75d2e6" y="272.822845"/>
    </g>
    <g clip-path="url(#p649cee5185)">
     <use style="stroke:#000000;" x="29.939394" xlink:href="#C0_0_34bf75d2e6" y="284.85109"/>
    </g>
    <g clip-path="url(#p649cee5185)">
     <use style="stroke:#000000;" x="29.939394" xlink:href="#C0_0_34bf75d2e6" y="296.611374"/>
    </g>
    <g clip-path="url(#p649cee5185)">
     <use style="stroke:#000000;" x="29.939394" xlink:href="#C0_0_34bf75d2e6" y="308.149483"/>
    </g>
    <g clip-path="url(#p649cee5185)">
     <use style="stroke:#000000;" x="29.939394" xlink:href="#C0_0_34bf75d2e6" y="319.529287"/>
    </g>
   </g>
   <g id="text_49">
    <g clip-path="url(#p649cee5185)">
     <!-- The -->
     <g transform="translate(20.640175 333.668466)scale(0.1 -0.1)">
      <defs>
       <path d="M 54.890625 33.015625 
L 54.890625 0 
L 45.90625 0 
L 45.90625 32.71875 
Q 45.90625 40.484375 42.875 44.328125 
Q 39.84375 48.1875 33.796875 48.1875 
Q 26.515625 48.1875 22.3125 43.546875 
Q 18.109375 38.921875 18.109375 30.90625 
L 18.109375 0 
L 9.078125 0 
L 9.078125 75.984375 
L 18.109375 75.984375 
L 18.109375 46.1875 
Q 21.34375 51.125 25.703125 53.5625 
Q 30.078125 56 35.796875 56 
Q 45.21875 56 50.046875 50.171875 
Q 54.890625 44.34375 54.890625 33.015625 
z
" id="DejaVuSans-104"/>
      </defs>
      <use xlink:href="#DejaVuSans-84"/>
      <use x="61.083984" xlink:href="#DejaVuSans-104"/>
      <use x="124.462891" xlink:href="#DejaVuSans-101"/>
     </g>
    </g>
   </g>
   <g id="text_50">
    <g clip-path="url(#p649cee5185)">
     <!-- city -->
     <g transform="translate(70.780571 333.668466)scale(0.1 -0.1)">
      <defs>
       <path d="M 48.78125 52.59375 
L 48.78125 44.1875 
Q 44.96875 46.296875 41.140625 47.34375 
Q 37.3125 48.390625 33.40625 48.390625 
Q 24.65625 48.390625 19.8125 42.84375 
Q 14.984375 37.3125 14.984375 27.296875 
Q 14.984375 17.28125 19.8125 11.734375 
Q 24.65625 6.203125 33.40625 6.203125 
Q 37.3125 6.203125 41.140625 7.25 
Q 44.96875 8.296875 48.78125 10.40625 
L 48.78125 2.09375 
Q 45.015625 0.34375 40.984375 -0.53125 
Q 36.96875 -1.421875 32.421875 -1.421875 
Q 20.0625 -1.421875 12.78125 6.34375 
Q 5.515625 14.109375 5.515625 27.296875 
Q 5.515625 40.671875 12.859375 48.328125 
Q 20.21875 56 33.015625 56 
Q 37.15625 56 41.109375 55.140625 
Q 45.0625 54.296875 48.78125 52.59375 
z
" id="DejaVuSans-99"/>
       <path d="M 18.3125 70.21875 
L 18.3125 54.6875 
L 36.8125 54.6875 
L 36.8125 47.703125 
L 18.3125 47.703125 
L 18.3125 18.015625 
Q 18.3125 11.328125 20.140625 9.421875 
Q 21.96875 7.515625 27.59375 7.515625 
L 36.8125 7.515625 
L 36.8125 0 
L 27.59375 0 
Q 17.1875 0 13.234375 3.875 
Q 9.28125 7.765625 9.28125 18.015625 
L 9.28125 47.703125 
L 2.6875 47.703125 
L 2.6875 54.6875 
L 9.28125 54.6875 
L 9.28125 70.21875 
z
" id="DejaVuSans-116"/>
       <path d="M 32.171875 -5.078125 
Q 28.375 -14.84375 24.75 -17.8125 
Q 21.140625 -20.796875 15.09375 -20.796875 
L 7.90625 -20.796875 
L 7.90625 -13.28125 
L 13.1875 -13.28125 
Q 16.890625 -13.28125 18.9375 -11.515625 
Q 21 -9.765625 23.484375 -3.21875 
L 25.09375 0.875 
L 2.984375 54.6875 
L 12.5 54.6875 
L 29.59375 11.921875 
L 46.6875 54.6875 
L 56.203125 54.6875 
z
" id="DejaVuSans-121"/>
      </defs>
      <use xlink:href="#DejaVuSans-99"/>
      <use x="54.980469" xlink:href="#DejaVuSans-105"/>
      <use x="82.763672" xlink:href="#DejaVuSans-116"/>
      <use x="121.972656" xlink:href="#DejaVuSans-121"/>
     </g>
    </g>
   </g>
   <g id="text_51">
    <g clip-path="url(#p649cee5185)">
     <!-- councilmen -->
     <g transform="translate(100.948311 333.668466)scale(0.1 -0.1)">
      <defs>
       <path d="M 30.609375 48.390625 
Q 23.390625 48.390625 19.1875 42.75 
Q 14.984375 37.109375 14.984375 27.296875 
Q 14.984375 17.484375 19.15625 11.84375 
Q 23.34375 6.203125 30.609375 6.203125 
Q 37.796875 6.203125 41.984375 11.859375 
Q 46.1875 17.53125 46.1875 27.296875 
Q 46.1875 37.015625 41.984375 42.703125 
Q 37.796875 48.390625 30.609375 48.390625 
z
M 30.609375 56 
Q 42.328125 56 49.015625 48.375 
Q 55.71875 40.765625 55.71875 27.296875 
Q 55.71875 13.875 49.015625 6.21875 
Q 42.328125 -1.421875 30.609375 -1.421875 
Q 18.84375 -1.421875 12.171875 6.21875 
Q 5.515625 13.875 5.515625 27.296875 
Q 5.515625 40.765625 12.171875 48.375 
Q 18.84375 56 30.609375 56 
z
" id="DejaVuSans-111"/>
       <path d="M 8.5 21.578125 
L 8.5 54.6875 
L 17.484375 54.6875 
L 17.484375 21.921875 
Q 17.484375 14.15625 20.5 10.265625 
Q 23.53125 6.390625 29.59375 6.390625 
Q 36.859375 6.390625 41.078125 11.03125 
Q 45.3125 15.671875 45.3125 23.6875 
L 45.3125 54.6875 
L 54.296875 54.6875 
L 54.296875 0 
L 45.3125 0 
L 45.3125 8.40625 
Q 42.046875 3.421875 37.71875 1 
Q 33.40625 -1.421875 27.6875 -1.421875 
Q 18.265625 -1.421875 13.375 4.4375 
Q 8.5 10.296875 8.5 21.578125 
z
M 31.109375 56 
z
" id="DejaVuSans-117"/>
      </defs>
      <use xlink:href="#DejaVuSans-99"/>
      <use x="54.980469" xlink:href="#DejaVuSans-111"/>
      <use x="116.162109" xlink:href="#DejaVuSans-117"/>
      <use x="179.541016" xlink:href="#DejaVuSans-110"/>
      <use x="242.919922" xlink:href="#DejaVuSans-99"/>
      <use x="297.900391" xlink:href="#DejaVuSans-105"/>
      <use x="325.683594" xlink:href="#DejaVuSans-108"/>
      <use x="353.466797" xlink:href="#DejaVuSans-109"/>
      <use x="450.878906" xlink:href="#DejaVuSans-101"/>
      <use x="512.402344" xlink:href="#DejaVuSans-110"/>
     </g>
    </g>
   </g>
   <g id="text_52">
    <g clip-path="url(#p649cee5185)">
     <!-- refused -->
     <g transform="translate(160.832457 333.668466)scale(0.1 -0.1)">
      <defs>
       <path d="M 37.109375 75.984375 
L 37.109375 68.5 
L 28.515625 68.5 
Q 23.6875 68.5 21.796875 66.546875 
Q 19.921875 64.59375 19.921875 59.515625 
L 19.921875 54.6875 
L 34.71875 54.6875 
L 34.71875 47.703125 
L 19.921875 47.703125 
L 19.921875 0 
L 10.890625 0 
L 10.890625 47.703125 
L 2.296875 47.703125 
L 2.296875 54.6875 
L 10.890625 54.6875 
L 10.890625 58.5 
Q 10.890625 67.625 15.140625 71.796875 
Q 19.390625 75.984375 28.609375 75.984375 
z
" id="DejaVuSans-102"/>
       <path d="M 44.28125 53.078125 
L 44.28125 44.578125 
Q 40.484375 46.53125 36.375 47.5 
Q 32.28125 48.484375 27.875 48.484375 
Q 21.1875 48.484375 17.84375 46.4375 
Q 14.5 44.390625 14.5 40.28125 
Q 14.5 37.15625 16.890625 35.375 
Q 19.28125 33.59375 26.515625 31.984375 
L 29.59375 31.296875 
Q 39.15625 29.25 43.1875 25.515625 
Q 47.21875 21.78125 47.21875 15.09375 
Q 47.21875 7.46875 41.1875 3.015625 
Q 35.15625 -1.421875 24.609375 -1.421875 
Q 20.21875 -1.421875 15.453125 -0.5625 
Q 10.6875 0.296875 5.421875 2 
L 5.421875 11.28125 
Q 10.40625 8.6875 15.234375 7.390625 
Q 20.0625 6.109375 24.8125 6.109375 
Q 31.15625 6.109375 34.5625 8.28125 
Q 37.984375 10.453125 37.984375 14.40625 
Q 37.984375 18.0625 35.515625 20.015625 
Q 33.0625 21.96875 24.703125 23.78125 
L 21.578125 24.515625 
Q 13.234375 26.265625 9.515625 29.90625 
Q 5.8125 33.546875 5.8125 39.890625 
Q 5.8125 47.609375 11.28125 51.796875 
Q 16.75 56 26.8125 56 
Q 31.78125 56 36.171875 55.265625 
Q 40.578125 54.546875 44.28125 53.078125 
z
" id="DejaVuSans-115"/>
       <path d="M 45.40625 46.390625 
L 45.40625 75.984375 
L 54.390625 75.984375 
L 54.390625 0 
L 45.40625 0 
L 45.40625 8.203125 
Q 42.578125 3.328125 38.25 0.953125 
Q 33.9375 -1.421875 27.875 -1.421875 
Q 17.96875 -1.421875 11.734375 6.484375 
Q 5.515625 14.40625 5.515625 27.296875 
Q 5.515625 40.1875 11.734375 48.09375 
Q 17.96875 56 27.875 56 
Q 33.9375 56 38.25 53.625 
Q 42.578125 51.265625 45.40625 46.390625 
z
M 14.796875 27.296875 
Q 14.796875 17.390625 18.875 11.75 
Q 22.953125 6.109375 30.078125 6.109375 
Q 37.203125 6.109375 41.296875 11.75 
Q 45.40625 17.390625 45.40625 27.296875 
Q 45.40625 37.203125 41.296875 42.84375 
Q 37.203125 48.484375 30.078125 48.484375 
Q 22.953125 48.484375 18.875 42.84375 
Q 14.796875 37.203125 14.796875 27.296875 
z
" id="DejaVuSans-100"/>
      </defs>
      <use xlink:href="#DejaVuSans-114"/>
      <use x="38.863281" xlink:href="#DejaVuSans-101"/>
      <use x="100.386719" xlink:href="#DejaVuSans-102"/>
      <use x="135.591797" xlink:href="#DejaVuSans-117"/>
      <use x="198.970703" xlink:href="#DejaVuSans-115"/>
      <use x="251.070312" xlink:href="#DejaVuSans-101"/>
      <use x="312.59375" xlink:href="#DejaVuSans-100"/>
     </g>
    </g>
   </g>
   <g id="text_53">
    <g clip-path="url(#p649cee5185)">
     <!-- the -->
     <g transform="translate(221.329885 333.668466)scale(0.1 -0.1)">
      <use xlink:href="#DejaVuSans-116"/>
      <use x="39.208984" xlink:href="#DejaVuSans-104"/>
      <use x="102.587891" xlink:href="#DejaVuSans-101"/>
     </g>
    </g>
   </g>
   <g id="text_54">
    <g clip-path="url(#p649cee5185)">
     <!-- demonstrators -->
     <g transform="translate(242.721062 333.668466)scale(0.1 -0.1)">
      <use xlink:href="#DejaVuSans-100"/>
      <use x="63.476562" xlink:href="#DejaVuSans-101"/>
      <use x="125" xlink:href="#DejaVuSans-109"/>
      <use x="222.412109" xlink:href="#DejaVuSans-111"/>
      <use x="283.59375" xlink:href="#DejaVuSans-110"/>
      <use x="346.972656" xlink:href="#DejaVuSans-115"/>
      <use x="399.072266" xlink:href="#DejaVuSans-116"/>
      <use x="438.28125" xlink:href="#DejaVuSans-114"/>
      <use x="479.394531" xlink:href="#DejaVuSans-97"/>
      <use x="540.673828" xlink:href="#DejaVuSans-116"/>
      <use x="579.882812" xlink:href="#DejaVuSans-111"/>
      <use x="641.064453" xlink:href="#DejaVuSans-114"/>
      <use x="682.177734" xlink:href="#DejaVuSans-115"/>
     </g>
    </g>
   </g>
   <g id="text_55">
    <g clip-path="url(#p649cee5185)">
     <!-- a -->
     <g transform="translate(326.269271 333.668466)scale(0.1 -0.1)">
      <use xlink:href="#DejaVuSans-97"/>
     </g>
    </g>
   </g>
   <g id="text_56">
    <g clip-path="url(#p649cee5185)">
     <!-- permit -->
     <g transform="translate(362.794042 333.668466)scale(0.1 -0.1)">
      <defs>
       <path d="M 18.109375 8.203125 
L 18.109375 -20.796875 
L 9.078125 -20.796875 
L 9.078125 54.6875 
L 18.109375 54.6875 
L 18.109375 46.390625 
Q 20.953125 51.265625 25.265625 53.625 
Q 29.59375 56 35.59375 56 
Q 45.5625 56 51.78125 48.09375 
Q 58.015625 40.1875 58.015625 27.296875 
Q 58.015625 14.40625 51.78125 6.484375 
Q 45.5625 -1.421875 35.59375 -1.421875 
Q 29.59375 -1.421875 25.265625 0.953125 
Q 20.953125 3.328125 18.109375 8.203125 
z
M 48.6875 27.296875 
Q 48.6875 37.203125 44.609375 42.84375 
Q 40.53125 48.484375 33.40625 48.484375 
Q 26.265625 48.484375 22.1875 42.84375 
Q 18.109375 37.203125 18.109375 27.296875 
Q 18.109375 17.390625 22.1875 11.75 
Q 26.265625 6.109375 33.40625 6.109375 
Q 40.53125 6.109375 44.609375 11.75 
Q 48.6875 17.390625 48.6875 27.296875 
z
" id="DejaVuSans-112"/>
      </defs>
      <use xlink:href="#DejaVuSans-112"/>
      <use x="63.476562" xlink:href="#DejaVuSans-101"/>
      <use x="125" xlink:href="#DejaVuSans-114"/>
      <use x="164.363281" xlink:href="#DejaVuSans-109"/>
      <use x="261.775391" xlink:href="#DejaVuSans-105"/>
      <use x="289.558594" xlink:href="#DejaVuSans-116"/>
     </g>
    </g>
   </g>
   <g id="text_57">
    <g clip-path="url(#p649cee5185)">
     <!-- because -->
     <g transform="translate(408.217251 333.668466)scale(0.1 -0.1)">
      <defs>
       <path d="M 48.6875 27.296875 
Q 48.6875 37.203125 44.609375 42.84375 
Q 40.53125 48.484375 33.40625 48.484375 
Q 26.265625 48.484375 22.1875 42.84375 
Q 18.109375 37.203125 18.109375 27.296875 
Q 18.109375 17.390625 22.1875 11.75 
Q 26.265625 6.109375 33.40625 6.109375 
Q 40.53125 6.109375 44.609375 11.75 
Q 48.6875 17.390625 48.6875 27.296875 
z
M 18.109375 46.390625 
Q 20.953125 51.265625 25.265625 53.625 
Q 29.59375 56 35.59375 56 
Q 45.5625 56 51.78125 48.09375 
Q 58.015625 40.1875 58.015625 27.296875 
Q 58.015625 14.40625 51.78125 6.484375 
Q 45.5625 -1.421875 35.59375 -1.421875 
Q 29.59375 -1.421875 25.265625 0.953125 
Q 20.953125 3.328125 18.109375 8.203125 
L 18.109375 0 
L 9.078125 0 
L 9.078125 75.984375 
L 18.109375 75.984375 
z
" id="DejaVuSans-98"/>
      </defs>
      <use xlink:href="#DejaVuSans-98"/>
      <use x="63.476562" xlink:href="#DejaVuSans-101"/>
      <use x="125" xlink:href="#DejaVuSans-99"/>
      <use x="179.980469" xlink:href="#DejaVuSans-97"/>
      <use x="241.259766" xlink:href="#DejaVuSans-117"/>
      <use x="304.638672" xlink:href="#DejaVuSans-115"/>
      <use x="356.738281" xlink:href="#DejaVuSans-101"/>
     </g>
    </g>
   </g>
   <g id="text_58">
    <g clip-path="url(#p649cee5185)">
     <!-- they -->
     <g transform="translate(467.865459 333.668466)scale(0.1 -0.1)">
      <use xlink:href="#DejaVuSans-116"/>
      <use x="39.208984" xlink:href="#DejaVuSans-104"/>
      <use x="102.587891" xlink:href="#DejaVuSans-101"/>
      <use x="164.111328" xlink:href="#DejaVuSans-121"/>
     </g>
    </g>
   </g>
   <g id="text_59">
    <g clip-path="url(#p649cee5185)">
     <!-- advocated -->
     <g transform="translate(502.648043 333.668466)scale(0.1 -0.1)">
      <defs>
       <path d="M 2.984375 54.6875 
L 12.5 54.6875 
L 29.59375 8.796875 
L 46.6875 54.6875 
L 56.203125 54.6875 
L 35.6875 0 
L 23.484375 0 
z
" id="DejaVuSans-118"/>
      </defs>
      <use xlink:href="#DejaVuSans-97"/>
      <use x="61.279297" xlink:href="#DejaVuSans-100"/>
      <use x="124.755859" xlink:href="#DejaVuSans-118"/>
      <use x="183.935547" xlink:href="#DejaVuSans-111"/>
      <use x="245.117188" xlink:href="#DejaVuSans-99"/>
      <use x="300.097656" xlink:href="#DejaVuSans-97"/>
      <use x="361.376953" xlink:href="#DejaVuSans-116"/>
      <use x="400.585938" xlink:href="#DejaVuSans-101"/>
      <use x="462.109375" xlink:href="#DejaVuSans-100"/>
     </g>
    </g>
   </g>
   <g id="text_60">
    <g clip-path="url(#p649cee5185)">
     <!-- violence -->
     <g transform="translate(557.960314 333.668466)scale(0.1 -0.1)">
      <use xlink:href="#DejaVuSans-118"/>
      <use x="59.179688" xlink:href="#DejaVuSans-105"/>
      <use x="86.962891" xlink:href="#DejaVuSans-111"/>
      <use x="148.144531" xlink:href="#DejaVuSans-108"/>
      <use x="175.927734" xlink:href="#DejaVuSans-101"/>
      <use x="237.451172" xlink:href="#DejaVuSans-110"/>
      <use x="300.830078" xlink:href="#DejaVuSans-99"/>
      <use x="355.810547" xlink:href="#DejaVuSans-101"/>
     </g>
    </g>
   </g>
   <g id="text_61">
    <g clip-path="url(#p649cee5185)">
     <!-- . -->
     <g transform="translate(627.13821 333.668466)scale(0.1 -0.1)">
      <defs>
       <path d="M 10.6875 12.40625 
L 21 12.40625 
L 21 0 
L 10.6875 0 
z
" id="DejaVuSans-46"/>
      </defs>
      <use xlink:href="#DejaVuSans-46"/>
     </g>
    </g>
   </g>
  </g>
 </g>
 <defs>
  <clipPath id="p649cee5185">
   <rect height="346.666667" width="658.666667" x="0" y="0"/>
  </clipPath>
 </defs>
</svg>
