<?xml version="1.0" encoding="utf-8" standalone="no"?>
<!DOCTYPE svg PUBLIC "-//W3C//DTD SVG 1.1//EN"
  "http://www.w3.org/Graphics/SVG/1.1/DTD/svg11.dtd">
<!-- Created with matplotlib (https://matplotlib.org/) -->
<svg height="186.666667pt" version="1.1" viewBox="0 0 354.666667 186.666667" width="354.666667pt" xmlns="http://www.w3.org/2000/svg" xmlns:xlink="http://www.w3.org/1999/xlink">
 <metadata>
  <rdf:RDF xmlns:cc="http://creativecommons.org/ns#" xmlns:dc="http://purl.org/dc/elements/1.1/" xmlns:rdf="http://www.w3.org/1999/02/22-rdf-syntax-ns#">
   <cc:Work>
    <dc:type rdf:resource="http://purl.org/dc/dcmitype/StillImage"/>
    <dc:date>2021-05-19T11:42:05.984291</dc:date>
    <dc:format>image/svg+xml</dc:format>
    <dc:creator>
     <cc:Agent>
      <dc:title>Matplotlib v3.3.4, https://matplotlib.org/</dc:title>
     </cc:Agent>
    </dc:creator>
   </cc:Work>
  </rdf:RDF>
 </metadata>
 <defs>
  <style type="text/css">*{stroke-linecap:butt;stroke-linejoin:round;}</style>
 </defs>
 <g id="figure_1">
  <g id="patch_1">
   <path d="M 0 186.666667 
L 354.666667 186.666667 
L 354.666667 0 
L 0 0 
z
" style="fill:#ffffff;"/>
  </g>
  <g id="axes_1">
   <g id="LineCollection_1">
    <path clip-path="url(#p525f27aff8)" d="M 128.969697 8.484848 
L 69.858586 172.054232 
" style="fill:none;stroke:#000000;"/>
    <path clip-path="url(#p525f27aff8)" d="M 128.969697 8.484848 
L 204.20202 165.926645 
" style="fill:none;stroke:#000000;"/>
    <path clip-path="url(#p525f27aff8)" d="M 128.969697 8.484848 
L 338.545455 172.054232 
" style="fill:none;stroke:#000000;"/>
    <path clip-path="url(#p525f27aff8)" d="M 128.969697 8.484848 
L 16.121212 19.846019 
" style="fill:none;stroke:#000000;"/>
    <path clip-path="url(#p525f27aff8)" d="M 128.969697 8.484848 
L 16.121212 172.054232 
" style="fill:none;stroke:#000000;stroke-dasharray:3.7,1.6;stroke-dashoffset:0;"/>
    <path clip-path="url(#p525f27aff8)" d="M 69.858586 172.054232 
L 69.858586 178.181818 
" style="fill:none;stroke:#000000;"/>
    <path clip-path="url(#p525f27aff8)" d="M 204.20202 165.926645 
L 123.59596 172.054232 
" style="fill:none;stroke:#000000;"/>
    <path clip-path="url(#p525f27aff8)" d="M 204.20202 165.926645 
L 177.333333 172.054232 
" style="fill:none;stroke:#000000;"/>
    <path clip-path="url(#p525f27aff8)" d="M 204.20202 165.926645 
L 231.070707 172.054232 
" style="fill:none;stroke:#000000;"/>
    <path clip-path="url(#p525f27aff8)" d="M 204.20202 165.926645 
L 284.808081 172.054232 
" style="fill:none;stroke:#000000;"/>
    <path clip-path="url(#p525f27aff8)" d="M 338.545455 172.054232 
L 338.545455 178.181818 
" style="fill:none;stroke:#000000;"/>
    <path clip-path="url(#p525f27aff8)" d="M 16.121212 19.846019 
L 16.121212 30.738623 
" style="fill:none;stroke:#000000;"/>
    <path clip-path="url(#p525f27aff8)" d="M 123.59596 172.054232 
L 123.59596 178.181818 
" style="fill:none;stroke:#000000;"/>
    <path clip-path="url(#p525f27aff8)" d="M 177.333333 172.054232 
L 177.333333 178.181818 
" style="fill:none;stroke:#000000;"/>
    <path clip-path="url(#p525f27aff8)" d="M 231.070707 172.054232 
L 231.070707 178.181818 
" style="fill:none;stroke:#000000;"/>
    <path clip-path="url(#p525f27aff8)" d="M 284.808081 172.054232 
L 284.808081 178.181818 
" style="fill:none;stroke:#000000;"/>
    <path clip-path="url(#p525f27aff8)" d="M 16.121212 30.738623 
L 16.121212 41.189547 
" style="fill:none;stroke:#000000;"/>
    <path clip-path="url(#p525f27aff8)" d="M 16.121212 41.189547 
L 16.121212 51.224199 
" style="fill:none;stroke:#000000;"/>
    <path clip-path="url(#p525f27aff8)" d="M 16.121212 51.224199 
L 16.121212 60.866629 
" style="fill:none;stroke:#000000;"/>
    <path clip-path="url(#p525f27aff8)" d="M 16.121212 60.866629 
L 16.121212 70.139641 
" style="fill:none;stroke:#000000;"/>
    <path clip-path="url(#p525f27aff8)" d="M 16.121212 70.139641 
L 16.121212 79.064902 
" style="fill:none;stroke:#000000;"/>
    <path clip-path="url(#p525f27aff8)" d="M 16.121212 79.064902 
L 16.121212 87.663052 
" style="fill:none;stroke:#000000;"/>
    <path clip-path="url(#p525f27aff8)" d="M 16.121212 87.663052 
L 16.121212 95.953813 
" style="fill:none;stroke:#000000;"/>
    <path clip-path="url(#p525f27aff8)" d="M 16.121212 95.953813 
L 16.121212 103.956102 
" style="fill:none;stroke:#000000;"/>
    <path clip-path="url(#p525f27aff8)" d="M 16.121212 103.956102 
L 16.121212 111.688153 
" style="fill:none;stroke:#000000;"/>
    <path clip-path="url(#p525f27aff8)" d="M 16.121212 111.688153 
L 16.121212 119.167649 
" style="fill:none;stroke:#000000;"/>
    <path clip-path="url(#p525f27aff8)" d="M 16.121212 119.167649 
L 16.121212 126.411883 
" style="fill:none;stroke:#000000;"/>
    <path clip-path="url(#p525f27aff8)" d="M 16.121212 126.411883 
L 16.121212 133.437948 
" style="fill:none;stroke:#000000;"/>
    <path clip-path="url(#p525f27aff8)" d="M 16.121212 133.437948 
L 16.121212 140.262998 
" style="fill:none;stroke:#000000;"/>
    <path clip-path="url(#p525f27aff8)" d="M 16.121212 140.262998 
L 16.121212 146.904609 
" style="fill:none;stroke:#000000;"/>
    <path clip-path="url(#p525f27aff8)" d="M 16.121212 146.904609 
L 16.121212 153.381356 
" style="fill:none;stroke:#000000;"/>
    <path clip-path="url(#p525f27aff8)" d="M 16.121212 153.381356 
L 16.121212 159.713817 
" style="fill:none;stroke:#000000;"/>
    <path clip-path="url(#p525f27aff8)" d="M 16.121212 159.713817 
L 16.121212 165.926645 
" style="fill:none;stroke:#000000;"/>
    <path clip-path="url(#p525f27aff8)" d="M 16.121212 165.926645 
L 16.121212 172.054232 
" style="fill:none;stroke:#000000;"/>
    <path clip-path="url(#p525f27aff8)" d="M 16.121212 172.054232 
L 16.121212 178.181818 
" style="fill:none;stroke:#000000;"/>
   </g>
   <g id="text_1">
    <g id="patch_2">
     <path clip-path="url(#p525f27aff8)" d="M 104.530165 94.564625 
L 106.093993 90.237277 
Q 106.909681 87.980143 104.652547 87.164455 
L 97.37094 84.53301 
Q 95.113807 83.717321 94.298118 85.974455 
L 92.73429 90.301803 
Q 91.918602 92.558937 94.175735 93.374625 
L 101.457342 96.00607 
Q 103.714476 96.821759 104.530165 94.564625 
z
" style="fill:#ffffff;stroke:#ffffff;stroke-linejoin:miter;"/>
    </g>
    <g clip-path="url(#p525f27aff8)">
     <!-- F -->
     <g transform="translate(100.70832 93.183478)rotate(-70.131032)scale(0.08 -0.08)">
      <defs>
       <path d="M 9.8125 72.90625 
L 51.703125 72.90625 
L 51.703125 64.59375 
L 19.671875 64.59375 
L 19.671875 43.109375 
L 48.578125 43.109375 
L 48.578125 34.8125 
L 19.671875 34.8125 
L 19.671875 0 
L 9.8125 0 
z
" id="DejaVuSans-70"/>
      </defs>
      <use xlink:href="#DejaVuSans-70"/>
     </g>
    </g>
   </g>
   <g id="text_2">
    <g id="patch_3">
     <path clip-path="url(#p525f27aff8)" d="M 159.747699 87.440716 
L 162.107156 92.378451 
Q 163.141911 94.543925 165.307386 93.50917 
L 172.293299 90.171007 
Q 174.458774 89.136252 173.424018 86.970777 
L 171.064561 82.033043 
Q 170.029806 79.867568 167.864331 80.902323 
L 160.878419 84.240486 
Q 158.712944 85.275242 159.747699 87.440716 
z
" style="fill:#ffffff;stroke:#ffffff;stroke-linejoin:miter;"/>
    </g>
    <g clip-path="url(#p525f27aff8)">
     <!-- A -->
     <g transform="translate(163.414344 85.688639)rotate(-295.540436)scale(0.08 -0.08)">
      <defs>
       <path d="M 34.1875 63.1875 
L 20.796875 26.90625 
L 47.609375 26.90625 
z
M 28.609375 72.90625 
L 39.796875 72.90625 
L 67.578125 0 
L 57.328125 0 
L 50.6875 18.703125 
L 17.828125 18.703125 
L 11.1875 0 
L 0.78125 0 
z
" id="DejaVuSans-65"/>
      </defs>
      <use xlink:href="#DejaVuSans-65"/>
     </g>
    </g>
   </g>
   <g id="text_3">
    <g id="patch_4">
     <path clip-path="url(#p525f27aff8)" d="M 227.591282 93.412095 
L 232.206892 97.01448 
Q 234.098858 98.491119 235.575497 96.599153 
L 240.339197 90.49559 
Q 241.815836 88.603624 239.923869 87.126985 
L 235.30826 83.5246 
Q 233.416293 82.047961 231.939654 83.939928 
L 227.175955 90.04349 
Q 225.699316 91.935456 227.591282 93.412095 
z
" style="fill:#ffffff;stroke:#ffffff;stroke-linejoin:miter;"/>
    </g>
    <g clip-path="url(#p525f27aff8)">
     <!-- U -->
     <g transform="translate(230.091571 90.208563)rotate(-322.028726)scale(0.08 -0.08)">
      <defs>
       <path d="M 8.6875 72.90625 
L 18.609375 72.90625 
L 18.609375 28.609375 
Q 18.609375 16.890625 22.84375 11.734375 
Q 27.09375 6.59375 36.625 6.59375 
Q 46.09375 6.59375 50.34375 11.734375 
Q 54.59375 16.890625 54.59375 28.609375 
L 54.59375 72.90625 
L 64.5 72.90625 
L 64.5 27.390625 
Q 64.5 13.140625 57.4375 5.859375 
Q 50.390625 -1.421875 36.625 -1.421875 
Q 22.796875 -1.421875 15.734375 5.859375 
Q 8.6875 13.140625 8.6875 27.390625 
z
" id="DejaVuSans-85"/>
      </defs>
      <use xlink:href="#DejaVuSans-85"/>
     </g>
    </g>
   </g>
   <g id="text_4">
    <g id="patch_5">
     <path clip-path="url(#p525f27aff8)" d="M 70.773901 20.646739 
L 75.573389 20.163544 
Q 77.961318 19.923136 77.72091 17.535207 
L 76.945345 9.831649 
Q 76.704937 7.443721 74.317008 7.684128 
L 69.51752 8.167323 
Q 67.129591 8.407731 67.369999 10.79566 
L 68.145565 18.499218 
Q 68.385972 20.887147 70.773901 20.646739 
z
" style="fill:#ffffff;stroke:#ffffff;stroke-linejoin:miter;"/>
    </g>
    <g clip-path="url(#p525f27aff8)">
     <!-- P -->
     <g transform="translate(70.366836 16.603428)rotate(-5.748957)scale(0.08 -0.08)">
      <defs>
       <path d="M 19.671875 64.796875 
L 19.671875 37.40625 
L 32.078125 37.40625 
Q 38.96875 37.40625 42.71875 40.96875 
Q 46.484375 44.53125 46.484375 51.125 
Q 46.484375 57.671875 42.71875 61.234375 
Q 38.96875 64.796875 32.078125 64.796875 
z
M 9.8125 72.90625 
L 32.078125 72.90625 
Q 44.34375 72.90625 50.609375 67.359375 
Q 56.890625 61.8125 56.890625 51.125 
Q 56.890625 40.328125 50.609375 34.8125 
Q 44.34375 29.296875 32.078125 29.296875 
L 19.671875 29.296875 
L 19.671875 0 
L 9.8125 0 
z
" id="DejaVuSans-80"/>
      </defs>
      <use xlink:href="#DejaVuSans-80"/>
     </g>
    </g>
   </g>
   <g id="text_5">
    <g id="patch_6">
     <path clip-path="url(#p525f27aff8)" d="M 76.153557 96.083079 
L 79.261259 91.578588 
Q 80.624162 89.603115 78.648689 88.240212 
L 72.275729 83.84343 
Q 70.300255 82.480527 68.937352 84.456001 
L 65.82965 88.960492 
Q 64.466747 90.935965 66.44222 92.298868 
L 72.81518 96.69565 
Q 74.790654 98.058553 76.153557 96.083079 
z
" style="fill:#ffffff;stroke:#ffffff;stroke-linejoin:miter;"/>
    </g>
    <g clip-path="url(#p525f27aff8)">
     <!-- A -->
     <g transform="translate(72.808627 93.775372)rotate(-55.397739)scale(0.08 -0.08)">
      <use xlink:href="#DejaVuSans-65"/>
     </g>
    </g>
   </g>
   <g id="text_6">
    <g id="patch_7">
     <path clip-path="url(#p525f27aff8)" d="M 63.587336 158.214275 
L 63.587336 192.021775 
Q 63.587336 194.421775 65.987336 194.421775 
L 73.729836 194.421775 
Q 76.129836 194.421775 76.129836 192.021775 
L 76.129836 158.214275 
Q 76.129836 155.814275 73.729836 155.814275 
L 65.987336 155.814275 
Q 63.587336 155.814275 63.587336 158.214275 
z
" style="fill:#ffffff;stroke:#ffffff;stroke-linejoin:miter;"/>
    </g>
    <g clip-path="url(#p525f27aff8)">
     <!-- Terminal -->
     <g transform="translate(67.651086 158.214275)rotate(-270)scale(0.08 -0.08)">
      <defs>
       <path d="M -0.296875 72.90625 
L 61.375 72.90625 
L 61.375 64.59375 
L 35.5 64.59375 
L 35.5 0 
L 25.59375 0 
L 25.59375 64.59375 
L -0.296875 64.59375 
z
" id="DejaVuSans-84"/>
       <path d="M 56.203125 29.59375 
L 56.203125 25.203125 
L 14.890625 25.203125 
Q 15.484375 15.921875 20.484375 11.0625 
Q 25.484375 6.203125 34.421875 6.203125 
Q 39.59375 6.203125 44.453125 7.46875 
Q 49.3125 8.734375 54.109375 11.28125 
L 54.109375 2.78125 
Q 49.265625 0.734375 44.1875 -0.34375 
Q 39.109375 -1.421875 33.890625 -1.421875 
Q 20.796875 -1.421875 13.15625 6.1875 
Q 5.515625 13.8125 5.515625 26.8125 
Q 5.515625 40.234375 12.765625 48.109375 
Q 20.015625 56 32.328125 56 
Q 43.359375 56 49.78125 48.890625 
Q 56.203125 41.796875 56.203125 29.59375 
z
M 47.21875 32.234375 
Q 47.125 39.59375 43.09375 43.984375 
Q 39.0625 48.390625 32.421875 48.390625 
Q 24.90625 48.390625 20.390625 44.140625 
Q 15.875 39.890625 15.1875 32.171875 
z
" id="DejaVuSans-101"/>
       <path d="M 41.109375 46.296875 
Q 39.59375 47.171875 37.8125 47.578125 
Q 36.03125 48 33.890625 48 
Q 26.265625 48 22.1875 43.046875 
Q 18.109375 38.09375 18.109375 28.8125 
L 18.109375 0 
L 9.078125 0 
L 9.078125 54.6875 
L 18.109375 54.6875 
L 18.109375 46.1875 
Q 20.953125 51.171875 25.484375 53.578125 
Q 30.03125 56 36.53125 56 
Q 37.453125 56 38.578125 55.875 
Q 39.703125 55.765625 41.0625 55.515625 
z
" id="DejaVuSans-114"/>
       <path d="M 52 44.1875 
Q 55.375 50.25 60.0625 53.125 
Q 64.75 56 71.09375 56 
Q 79.640625 56 84.28125 50.015625 
Q 88.921875 44.046875 88.921875 33.015625 
L 88.921875 0 
L 79.890625 0 
L 79.890625 32.71875 
Q 79.890625 40.578125 77.09375 44.375 
Q 74.3125 48.1875 68.609375 48.1875 
Q 61.625 48.1875 57.5625 43.546875 
Q 53.515625 38.921875 53.515625 30.90625 
L 53.515625 0 
L 44.484375 0 
L 44.484375 32.71875 
Q 44.484375 40.625 41.703125 44.40625 
Q 38.921875 48.1875 33.109375 48.1875 
Q 26.21875 48.1875 22.15625 43.53125 
Q 18.109375 38.875 18.109375 30.90625 
L 18.109375 0 
L 9.078125 0 
L 9.078125 54.6875 
L 18.109375 54.6875 
L 18.109375 46.1875 
Q 21.1875 51.21875 25.484375 53.609375 
Q 29.78125 56 35.6875 56 
Q 41.65625 56 45.828125 52.96875 
Q 50 49.953125 52 44.1875 
z
" id="DejaVuSans-109"/>
       <path d="M 9.421875 54.6875 
L 18.40625 54.6875 
L 18.40625 0 
L 9.421875 0 
z
M 9.421875 75.984375 
L 18.40625 75.984375 
L 18.40625 64.59375 
L 9.421875 64.59375 
z
" id="DejaVuSans-105"/>
       <path d="M 54.890625 33.015625 
L 54.890625 0 
L 45.90625 0 
L 45.90625 32.71875 
Q 45.90625 40.484375 42.875 44.328125 
Q 39.84375 48.1875 33.796875 48.1875 
Q 26.515625 48.1875 22.3125 43.546875 
Q 18.109375 38.921875 18.109375 30.90625 
L 18.109375 0 
L 9.078125 0 
L 9.078125 54.6875 
L 18.109375 54.6875 
L 18.109375 46.1875 
Q 21.34375 51.125 25.703125 53.5625 
Q 30.078125 56 35.796875 56 
Q 45.21875 56 50.046875 50.171875 
Q 54.890625 44.34375 54.890625 33.015625 
z
" id="DejaVuSans-110"/>
       <path d="M 34.28125 27.484375 
Q 23.390625 27.484375 19.1875 25 
Q 14.984375 22.515625 14.984375 16.5 
Q 14.984375 11.71875 18.140625 8.90625 
Q 21.296875 6.109375 26.703125 6.109375 
Q 34.1875 6.109375 38.703125 11.40625 
Q 43.21875 16.703125 43.21875 25.484375 
L 43.21875 27.484375 
z
M 52.203125 31.203125 
L 52.203125 0 
L 43.21875 0 
L 43.21875 8.296875 
Q 40.140625 3.328125 35.546875 0.953125 
Q 30.953125 -1.421875 24.3125 -1.421875 
Q 15.921875 -1.421875 10.953125 3.296875 
Q 6 8.015625 6 15.921875 
Q 6 25.140625 12.171875 29.828125 
Q 18.359375 34.515625 30.609375 34.515625 
L 43.21875 34.515625 
L 43.21875 35.40625 
Q 43.21875 41.609375 39.140625 45 
Q 35.0625 48.390625 27.6875 48.390625 
Q 23 48.390625 18.546875 47.265625 
Q 14.109375 46.140625 10.015625 43.890625 
L 10.015625 52.203125 
Q 14.9375 54.109375 19.578125 55.046875 
Q 24.21875 56 28.609375 56 
Q 40.484375 56 46.34375 49.84375 
Q 52.203125 43.703125 52.203125 31.203125 
z
" id="DejaVuSans-97"/>
       <path d="M 9.421875 75.984375 
L 18.40625 75.984375 
L 18.40625 0 
L 9.421875 0 
z
" id="DejaVuSans-108"/>
      </defs>
      <use xlink:href="#DejaVuSans-84"/>
      <use x="44.083984" xlink:href="#DejaVuSans-101"/>
      <use x="105.607422" xlink:href="#DejaVuSans-114"/>
      <use x="144.970703" xlink:href="#DejaVuSans-109"/>
      <use x="242.382812" xlink:href="#DejaVuSans-105"/>
      <use x="270.166016" xlink:href="#DejaVuSans-110"/>
      <use x="333.544922" xlink:href="#DejaVuSans-97"/>
      <use x="394.824219" xlink:href="#DejaVuSans-108"/>
     </g>
    </g>
   </g>
   <g id="text_7">
    <g id="patch_8">
     <path clip-path="url(#p525f27aff8)" d="M 161.854124 175.435231 
L 166.894581 175.052061 
Q 169.287676 174.87014 169.105755 172.477045 
L 168.518872 164.75682 
Q 168.336951 162.363725 165.943856 162.545645 
L 160.903399 162.928816 
Q 158.510304 163.110736 158.692225 165.503831 
L 159.279108 173.224056 
Q 159.461028 175.617152 161.854124 175.435231 
z
" style="fill:#ffffff;stroke:#ffffff;stroke-linejoin:miter;"/>
    </g>
    <g clip-path="url(#p525f27aff8)">
     <!-- E -->
     <g transform="translate(161.54609 171.383172)rotate(-4.347203)scale(0.08 -0.08)">
      <defs>
       <path d="M 9.8125 72.90625 
L 55.90625 72.90625 
L 55.90625 64.59375 
L 19.671875 64.59375 
L 19.671875 43.015625 
L 54.390625 43.015625 
L 54.390625 34.71875 
L 19.671875 34.71875 
L 19.671875 8.296875 
L 56.78125 8.296875 
L 56.78125 0 
L 9.8125 0 
z
" id="DejaVuSans-69"/>
      </defs>
      <use xlink:href="#DejaVuSans-69"/>
     </g>
    </g>
   </g>
   <g id="text_8">
    <g id="patch_9">
     <path clip-path="url(#p525f27aff8)" d="M 189.697846 175.666687 
L 194.626306 174.542718 
Q 196.966228 174.009083 196.432593 171.669161 
L 194.711064 164.120476 
Q 194.177429 161.780555 191.837507 162.31419 
L 186.909047 163.438158 
Q 184.569125 163.971794 185.102761 166.311715 
L 186.824289 173.8604 
Q 187.357924 176.200322 189.697846 175.666687 
z
" style="fill:#ffffff;stroke:#ffffff;stroke-linejoin:miter;"/>
    </g>
    <g clip-path="url(#p525f27aff8)">
     <!-- E -->
     <g transform="translate(188.79428 171.704663)rotate(-12.846976)scale(0.08 -0.08)">
      <use xlink:href="#DejaVuSans-69"/>
     </g>
    </g>
   </g>
   <g id="text_9">
    <g id="patch_10">
     <path clip-path="url(#p525f27aff8)" d="M 213.518758 174.483657 
L 218.96517 175.725748 
Q 221.305092 176.259383 221.838727 173.919461 
L 223.560256 166.370776 
Q 224.093891 164.030855 221.753969 163.49722 
L 216.307557 162.255128 
Q 213.967636 161.721493 213.434001 164.061415 
L 211.712472 171.6101 
Q 211.178837 173.950022 213.518758 174.483657 
z
" style="fill:#ffffff;stroke:#ffffff;stroke-linejoin:miter;"/>
    </g>
    <g clip-path="url(#p525f27aff8)">
     <!-- C -->
     <g transform="translate(214.422325 170.521633)rotate(-347.153024)scale(0.08 -0.08)">
      <defs>
       <path d="M 64.40625 67.28125 
L 64.40625 56.890625 
Q 59.421875 61.53125 53.78125 63.8125 
Q 48.140625 66.109375 41.796875 66.109375 
Q 29.296875 66.109375 22.65625 58.46875 
Q 16.015625 50.828125 16.015625 36.375 
Q 16.015625 21.96875 22.65625 14.328125 
Q 29.296875 6.6875 41.796875 6.6875 
Q 48.140625 6.6875 53.78125 8.984375 
Q 59.421875 11.28125 64.40625 15.921875 
L 64.40625 5.609375 
Q 59.234375 2.09375 53.4375 0.328125 
Q 47.65625 -1.421875 41.21875 -1.421875 
Q 24.65625 -1.421875 15.125 8.703125 
Q 5.609375 18.84375 5.609375 36.375 
Q 5.609375 53.953125 15.125 64.078125 
Q 24.65625 74.21875 41.21875 74.21875 
Q 47.75 74.21875 53.53125 72.484375 
Q 59.328125 70.75 64.40625 67.28125 
z
" id="DejaVuSans-67"/>
      </defs>
      <use xlink:href="#DejaVuSans-67"/>
     </g>
    </g>
   </g>
   <g id="text_10">
    <g id="patch_11">
     <path clip-path="url(#p525f27aff8)" d="M 241.244599 175.031927 
L 246.814778 175.455366 
Q 249.207873 175.637286 249.389793 173.244191 
L 249.976677 165.523966 
Q 250.158597 163.130871 247.765502 162.94895 
L 242.195323 162.525511 
Q 239.802228 162.34359 239.620308 164.736686 
L 239.033424 172.456911 
Q 238.851504 174.850006 241.244599 175.031927 
z
" style="fill:#ffffff;stroke:#ffffff;stroke-linejoin:miter;"/>
    </g>
    <g clip-path="url(#p525f27aff8)">
     <!-- C -->
     <g transform="translate(241.552632 170.979868)rotate(-355.652797)scale(0.08 -0.08)">
      <use xlink:href="#DejaVuSans-67"/>
     </g>
    </g>
   </g>
   <g id="text_11">
    <g id="patch_12">
     <path clip-path="url(#p525f27aff8)" d="M 332.274205 158.214275 
L 332.274205 192.021775 
Q 332.274205 194.421775 334.674205 194.421775 
L 342.416705 194.421775 
Q 344.816705 194.421775 344.816705 192.021775 
L 344.816705 158.214275 
Q 344.816705 155.814275 342.416705 155.814275 
L 334.674205 155.814275 
Q 332.274205 155.814275 332.274205 158.214275 
z
" style="fill:#ffffff;stroke:#ffffff;stroke-linejoin:miter;"/>
    </g>
    <g clip-path="url(#p525f27aff8)">
     <!-- Terminal -->
     <g transform="translate(336.337955 158.214275)rotate(-270)scale(0.08 -0.08)">
      <use xlink:href="#DejaVuSans-84"/>
      <use x="44.083984" xlink:href="#DejaVuSans-101"/>
      <use x="105.607422" xlink:href="#DejaVuSans-114"/>
      <use x="144.970703" xlink:href="#DejaVuSans-109"/>
      <use x="242.382812" xlink:href="#DejaVuSans-105"/>
      <use x="270.166016" xlink:href="#DejaVuSans-110"/>
      <use x="333.544922" xlink:href="#DejaVuSans-97"/>
      <use x="394.824219" xlink:href="#DejaVuSans-108"/>
     </g>
    </g>
   </g>
   <g id="text_12">
    <g id="patch_13">
     <path clip-path="url(#p525f27aff8)" d="M 9.849962 22.880446 
L 9.849962 27.704196 
Q 9.849962 30.104196 12.249962 30.104196 
L 19.992462 30.104196 
Q 22.392462 30.104196 22.392462 27.704196 
L 22.392462 22.880446 
Q 22.392462 20.480446 19.992462 20.480446 
L 12.249962 20.480446 
Q 9.849962 20.480446 9.849962 22.880446 
z
" style="fill:#ffffff;stroke:#ffffff;stroke-linejoin:miter;"/>
    </g>
    <g clip-path="url(#p525f27aff8)">
     <!-- P -->
     <g transform="translate(13.913712 22.880446)rotate(-270)scale(0.08 -0.08)">
      <use xlink:href="#DejaVuSans-80"/>
     </g>
    </g>
   </g>
   <g id="text_13">
    <g id="patch_14">
     <path clip-path="url(#p525f27aff8)" d="M 117.32471 158.214275 
L 117.32471 192.021775 
Q 117.32471 194.421775 119.72471 194.421775 
L 127.46721 194.421775 
Q 129.86721 194.421775 129.86721 192.021775 
L 129.86721 158.214275 
Q 129.86721 155.814275 127.46721 155.814275 
L 119.72471 155.814275 
Q 117.32471 155.814275 117.32471 158.214275 
z
" style="fill:#ffffff;stroke:#ffffff;stroke-linejoin:miter;"/>
    </g>
    <g clip-path="url(#p525f27aff8)">
     <!-- Terminal -->
     <g transform="translate(121.38846 158.214275)rotate(-270)scale(0.08 -0.08)">
      <use xlink:href="#DejaVuSans-84"/>
      <use x="44.083984" xlink:href="#DejaVuSans-101"/>
      <use x="105.607422" xlink:href="#DejaVuSans-114"/>
      <use x="144.970703" xlink:href="#DejaVuSans-109"/>
      <use x="242.382812" xlink:href="#DejaVuSans-105"/>
      <use x="270.166016" xlink:href="#DejaVuSans-110"/>
      <use x="333.544922" xlink:href="#DejaVuSans-97"/>
      <use x="394.824219" xlink:href="#DejaVuSans-108"/>
     </g>
    </g>
   </g>
   <g id="text_14">
    <g id="patch_15">
     <path clip-path="url(#p525f27aff8)" d="M 171.062083 158.214275 
L 171.062083 192.021775 
Q 171.062083 194.421775 173.462083 194.421775 
L 181.204583 194.421775 
Q 183.604583 194.421775 183.604583 192.021775 
L 183.604583 158.214275 
Q 183.604583 155.814275 181.204583 155.814275 
L 173.462083 155.814275 
Q 171.062083 155.814275 171.062083 158.214275 
z
" style="fill:#ffffff;stroke:#ffffff;stroke-linejoin:miter;"/>
    </g>
    <g clip-path="url(#p525f27aff8)">
     <!-- Terminal -->
     <g transform="translate(175.125833 158.214275)rotate(-270)scale(0.08 -0.08)">
      <use xlink:href="#DejaVuSans-84"/>
      <use x="44.083984" xlink:href="#DejaVuSans-101"/>
      <use x="105.607422" xlink:href="#DejaVuSans-114"/>
      <use x="144.970703" xlink:href="#DejaVuSans-109"/>
      <use x="242.382812" xlink:href="#DejaVuSans-105"/>
      <use x="270.166016" xlink:href="#DejaVuSans-110"/>
      <use x="333.544922" xlink:href="#DejaVuSans-97"/>
      <use x="394.824219" xlink:href="#DejaVuSans-108"/>
     </g>
    </g>
   </g>
   <g id="text_15">
    <g id="patch_16">
     <path clip-path="url(#p525f27aff8)" d="M 224.799457 158.214275 
L 224.799457 192.021775 
Q 224.799457 194.421775 227.199457 194.421775 
L 234.941957 194.421775 
Q 237.341957 194.421775 237.341957 192.021775 
L 237.341957 158.214275 
Q 237.341957 155.814275 234.941957 155.814275 
L 227.199457 155.814275 
Q 224.799457 155.814275 224.799457 158.214275 
z
" style="fill:#ffffff;stroke:#ffffff;stroke-linejoin:miter;"/>
    </g>
    <g clip-path="url(#p525f27aff8)">
     <!-- Terminal -->
     <g transform="translate(228.863207 158.214275)rotate(-270)scale(0.08 -0.08)">
      <use xlink:href="#DejaVuSans-84"/>
      <use x="44.083984" xlink:href="#DejaVuSans-101"/>
      <use x="105.607422" xlink:href="#DejaVuSans-114"/>
      <use x="144.970703" xlink:href="#DejaVuSans-109"/>
      <use x="242.382812" xlink:href="#DejaVuSans-105"/>
      <use x="270.166016" xlink:href="#DejaVuSans-110"/>
      <use x="333.544922" xlink:href="#DejaVuSans-97"/>
      <use x="394.824219" xlink:href="#DejaVuSans-108"/>
     </g>
    </g>
   </g>
   <g id="text_16">
    <g id="patch_17">
     <path clip-path="url(#p525f27aff8)" d="M 278.536831 158.214275 
L 278.536831 192.021775 
Q 278.536831 194.421775 280.936831 194.421775 
L 288.679331 194.421775 
Q 291.079331 194.421775 291.079331 192.021775 
L 291.079331 158.214275 
Q 291.079331 155.814275 288.679331 155.814275 
L 280.936831 155.814275 
Q 278.536831 155.814275 278.536831 158.214275 
z
" style="fill:#ffffff;stroke:#ffffff;stroke-linejoin:miter;"/>
    </g>
    <g clip-path="url(#p525f27aff8)">
     <!-- Terminal -->
     <g transform="translate(282.600581 158.214275)rotate(-270)scale(0.08 -0.08)">
      <use xlink:href="#DejaVuSans-84"/>
      <use x="44.083984" xlink:href="#DejaVuSans-101"/>
      <use x="105.607422" xlink:href="#DejaVuSans-114"/>
      <use x="144.970703" xlink:href="#DejaVuSans-109"/>
      <use x="242.382812" xlink:href="#DejaVuSans-105"/>
      <use x="270.166016" xlink:href="#DejaVuSans-110"/>
      <use x="333.544922" xlink:href="#DejaVuSans-97"/>
      <use x="394.824219" xlink:href="#DejaVuSans-108"/>
     </g>
    </g>
   </g>
   <g id="text_17">
    <g id="patch_18">
     <path clip-path="url(#p525f27aff8)" d="M 9.849962 33.55221 
L 9.849962 38.37596 
Q 9.849962 40.77596 12.249962 40.77596 
L 19.992462 40.77596 
Q 22.392462 40.77596 22.392462 38.37596 
L 22.392462 33.55221 
Q 22.392462 31.15221 19.992462 31.15221 
L 12.249962 31.15221 
Q 9.849962 31.15221 9.849962 33.55221 
z
" style="fill:#ffffff;stroke:#ffffff;stroke-linejoin:miter;"/>
    </g>
    <g clip-path="url(#p525f27aff8)">
     <!-- P -->
     <g transform="translate(13.913712 33.55221)rotate(-270)scale(0.08 -0.08)">
      <use xlink:href="#DejaVuSans-80"/>
     </g>
    </g>
   </g>
   <g id="text_18">
    <g id="patch_19">
     <path clip-path="url(#p525f27aff8)" d="M 9.849962 43.794998 
L 9.849962 48.618748 
Q 9.849962 51.018748 12.249962 51.018748 
L 19.992462 51.018748 
Q 22.392462 51.018748 22.392462 48.618748 
L 22.392462 43.794998 
Q 22.392462 41.394998 19.992462 41.394998 
L 12.249962 41.394998 
Q 9.849962 41.394998 9.849962 43.794998 
z
" style="fill:#ffffff;stroke:#ffffff;stroke-linejoin:miter;"/>
    </g>
    <g clip-path="url(#p525f27aff8)">
     <!-- P -->
     <g transform="translate(13.913712 43.794998)rotate(-270)scale(0.08 -0.08)">
      <use xlink:href="#DejaVuSans-80"/>
     </g>
    </g>
   </g>
   <g id="text_19">
    <g id="patch_20">
     <path clip-path="url(#p525f27aff8)" d="M 9.849962 53.633539 
L 9.849962 58.457289 
Q 9.849962 60.857289 12.249962 60.857289 
L 19.992462 60.857289 
Q 22.392462 60.857289 22.392462 58.457289 
L 22.392462 53.633539 
Q 22.392462 51.233539 19.992462 51.233539 
L 12.249962 51.233539 
Q 9.849962 51.233539 9.849962 53.633539 
z
" style="fill:#ffffff;stroke:#ffffff;stroke-linejoin:miter;"/>
    </g>
    <g clip-path="url(#p525f27aff8)">
     <!-- P -->
     <g transform="translate(13.913712 53.633539)rotate(-270)scale(0.08 -0.08)">
      <use xlink:href="#DejaVuSans-80"/>
     </g>
    </g>
   </g>
   <g id="text_20">
    <g id="patch_21">
     <path clip-path="url(#p525f27aff8)" d="M 9.849962 63.09126 
L 9.849962 67.91501 
Q 9.849962 70.31501 12.249962 70.31501 
L 19.992462 70.31501 
Q 22.392462 70.31501 22.392462 67.91501 
L 22.392462 63.09126 
Q 22.392462 60.69126 19.992462 60.69126 
L 12.249962 60.69126 
Q 9.849962 60.69126 9.849962 63.09126 
z
" style="fill:#ffffff;stroke:#ffffff;stroke-linejoin:miter;"/>
    </g>
    <g clip-path="url(#p525f27aff8)">
     <!-- P -->
     <g transform="translate(13.913712 63.09126)rotate(-270)scale(0.08 -0.08)">
      <use xlink:href="#DejaVuSans-80"/>
     </g>
    </g>
   </g>
   <g id="text_21">
    <g id="patch_22">
     <path clip-path="url(#p525f27aff8)" d="M 9.849962 72.190396 
L 9.849962 77.014146 
Q 9.849962 79.414146 12.249962 79.414146 
L 19.992462 79.414146 
Q 22.392462 79.414146 22.392462 77.014146 
L 22.392462 72.190396 
Q 22.392462 69.790396 19.992462 69.790396 
L 12.249962 69.790396 
Q 9.849962 69.790396 9.849962 72.190396 
z
" style="fill:#ffffff;stroke:#ffffff;stroke-linejoin:miter;"/>
    </g>
    <g clip-path="url(#p525f27aff8)">
     <!-- P -->
     <g transform="translate(13.913712 72.190396)rotate(-270)scale(0.08 -0.08)">
      <use xlink:href="#DejaVuSans-80"/>
     </g>
    </g>
   </g>
   <g id="text_22">
    <g id="patch_23">
     <path clip-path="url(#p525f27aff8)" d="M 9.849962 80.952102 
L 9.849962 85.775852 
Q 9.849962 88.175852 12.249962 88.175852 
L 19.992462 88.175852 
Q 22.392462 88.175852 22.392462 85.775852 
L 22.392462 80.952102 
Q 22.392462 78.552102 19.992462 78.552102 
L 12.249962 78.552102 
Q 9.849962 78.552102 9.849962 80.952102 
z
" style="fill:#ffffff;stroke:#ffffff;stroke-linejoin:miter;"/>
    </g>
    <g clip-path="url(#p525f27aff8)">
     <!-- P -->
     <g transform="translate(13.913712 80.952102)rotate(-270)scale(0.08 -0.08)">
      <use xlink:href="#DejaVuSans-80"/>
     </g>
    </g>
   </g>
   <g id="text_23">
    <g id="patch_24">
     <path clip-path="url(#p525f27aff8)" d="M 9.849962 89.396558 
L 9.849962 94.220308 
Q 9.849962 96.620308 12.249962 96.620308 
L 19.992462 96.620308 
Q 22.392462 96.620308 22.392462 94.220308 
L 22.392462 89.396558 
Q 22.392462 86.996558 19.992462 86.996558 
L 12.249962 86.996558 
Q 9.849962 86.996558 9.849962 89.396558 
z
" style="fill:#ffffff;stroke:#ffffff;stroke-linejoin:miter;"/>
    </g>
    <g clip-path="url(#p525f27aff8)">
     <!-- P -->
     <g transform="translate(13.913712 89.396558)rotate(-270)scale(0.08 -0.08)">
      <use xlink:href="#DejaVuSans-80"/>
     </g>
    </g>
   </g>
   <g id="text_24">
    <g id="patch_25">
     <path clip-path="url(#p525f27aff8)" d="M 9.849962 97.543083 
L 9.849962 102.366833 
Q 9.849962 104.766833 12.249962 104.766833 
L 19.992462 104.766833 
Q 22.392462 104.766833 22.392462 102.366833 
L 22.392462 97.543083 
Q 22.392462 95.143083 19.992462 95.143083 
L 12.249962 95.143083 
Q 9.849962 95.143083 9.849962 97.543083 
z
" style="fill:#ffffff;stroke:#ffffff;stroke-linejoin:miter;"/>
    </g>
    <g clip-path="url(#p525f27aff8)">
     <!-- P -->
     <g transform="translate(13.913712 97.543083)rotate(-270)scale(0.08 -0.08)">
      <use xlink:href="#DejaVuSans-80"/>
     </g>
    </g>
   </g>
   <g id="text_25">
    <g id="patch_26">
     <path clip-path="url(#p525f27aff8)" d="M 9.849962 105.410253 
L 9.849962 110.234003 
Q 9.849962 112.634003 12.249962 112.634003 
L 19.992462 112.634003 
Q 22.392462 112.634003 22.392462 110.234003 
L 22.392462 105.410253 
Q 22.392462 103.010253 19.992462 103.010253 
L 12.249962 103.010253 
Q 9.849962 103.010253 9.849962 105.410253 
z
" style="fill:#ffffff;stroke:#ffffff;stroke-linejoin:miter;"/>
    </g>
    <g clip-path="url(#p525f27aff8)">
     <!-- P -->
     <g transform="translate(13.913712 105.410253)rotate(-270)scale(0.08 -0.08)">
      <use xlink:href="#DejaVuSans-80"/>
     </g>
    </g>
   </g>
   <g id="text_26">
    <g id="patch_27">
     <path clip-path="url(#p525f27aff8)" d="M 9.849962 113.016026 
L 9.849962 117.839776 
Q 9.849962 120.239776 12.249962 120.239776 
L 19.992462 120.239776 
Q 22.392462 120.239776 22.392462 117.839776 
L 22.392462 113.016026 
Q 22.392462 110.616026 19.992462 110.616026 
L 12.249962 110.616026 
Q 9.849962 110.616026 9.849962 113.016026 
z
" style="fill:#ffffff;stroke:#ffffff;stroke-linejoin:miter;"/>
    </g>
    <g clip-path="url(#p525f27aff8)">
     <!-- P -->
     <g transform="translate(13.913712 113.016026)rotate(-270)scale(0.08 -0.08)">
      <use xlink:href="#DejaVuSans-80"/>
     </g>
    </g>
   </g>
   <g id="text_27">
    <g id="patch_28">
     <path clip-path="url(#p525f27aff8)" d="M 9.849962 120.377891 
L 9.849962 125.201641 
Q 9.849962 127.601641 12.249962 127.601641 
L 19.992462 127.601641 
Q 22.392462 127.601641 22.392462 125.201641 
L 22.392462 120.377891 
Q 22.392462 117.977891 19.992462 117.977891 
L 12.249962 117.977891 
Q 9.849962 117.977891 9.849962 120.377891 
z
" style="fill:#ffffff;stroke:#ffffff;stroke-linejoin:miter;"/>
    </g>
    <g clip-path="url(#p525f27aff8)">
     <!-- P -->
     <g transform="translate(13.913712 120.377891)rotate(-270)scale(0.08 -0.08)">
      <use xlink:href="#DejaVuSans-80"/>
     </g>
    </g>
   </g>
   <g id="text_28">
    <g id="patch_29">
     <path clip-path="url(#p525f27aff8)" d="M 9.849962 127.51304 
L 9.849962 132.33679 
Q 9.849962 134.73679 12.249962 134.73679 
L 19.992462 134.73679 
Q 22.392462 134.73679 22.392462 132.33679 
L 22.392462 127.51304 
Q 22.392462 125.11304 19.992462 125.11304 
L 12.249962 125.11304 
Q 9.849962 125.11304 9.849962 127.51304 
z
" style="fill:#ffffff;stroke:#ffffff;stroke-linejoin:miter;"/>
    </g>
    <g clip-path="url(#p525f27aff8)">
     <!-- P -->
     <g transform="translate(13.913712 127.51304)rotate(-270)scale(0.08 -0.08)">
      <use xlink:href="#DejaVuSans-80"/>
     </g>
    </g>
   </g>
   <g id="text_29">
    <g id="patch_30">
     <path clip-path="url(#p525f27aff8)" d="M 9.849962 134.438598 
L 9.849962 139.262348 
Q 9.849962 141.662348 12.249962 141.662348 
L 19.992462 141.662348 
Q 22.392462 141.662348 22.392462 139.262348 
L 22.392462 134.438598 
Q 22.392462 132.038598 19.992462 132.038598 
L 12.249962 132.038598 
Q 9.849962 132.038598 9.849962 134.438598 
z
" style="fill:#ffffff;stroke:#ffffff;stroke-linejoin:miter;"/>
    </g>
    <g clip-path="url(#p525f27aff8)">
     <!-- P -->
     <g transform="translate(13.913712 134.438598)rotate(-270)scale(0.08 -0.08)">
      <use xlink:href="#DejaVuSans-80"/>
     </g>
    </g>
   </g>
   <g id="text_30">
    <g id="patch_31">
     <path clip-path="url(#p525f27aff8)" d="M 9.849962 141.171928 
L 9.849962 145.995678 
Q 9.849962 148.395678 12.249962 148.395678 
L 19.992462 148.395678 
Q 22.392462 148.395678 22.392462 145.995678 
L 22.392462 141.171928 
Q 22.392462 138.771928 19.992462 138.771928 
L 12.249962 138.771928 
Q 9.849962 138.771928 9.849962 141.171928 
z
" style="fill:#ffffff;stroke:#ffffff;stroke-linejoin:miter;"/>
    </g>
    <g clip-path="url(#p525f27aff8)">
     <!-- P -->
     <g transform="translate(13.913712 141.171928)rotate(-270)scale(0.08 -0.08)">
      <use xlink:href="#DejaVuSans-80"/>
     </g>
    </g>
   </g>
   <g id="text_31">
    <g id="patch_32">
     <path clip-path="url(#p525f27aff8)" d="M 9.849962 147.731107 
L 9.849962 152.554857 
Q 9.849962 154.954857 12.249962 154.954857 
L 19.992462 154.954857 
Q 22.392462 154.954857 22.392462 152.554857 
L 22.392462 147.731107 
Q 22.392462 145.331107 19.992462 145.331107 
L 12.249962 145.331107 
Q 9.849962 145.331107 9.849962 147.731107 
z
" style="fill:#ffffff;stroke:#ffffff;stroke-linejoin:miter;"/>
    </g>
    <g clip-path="url(#p525f27aff8)">
     <!-- P -->
     <g transform="translate(13.913712 147.731107)rotate(-270)scale(0.08 -0.08)">
      <use xlink:href="#DejaVuSans-80"/>
     </g>
    </g>
   </g>
   <g id="text_32">
    <g id="patch_33">
     <path clip-path="url(#p525f27aff8)" d="M 9.849962 154.135711 
L 9.849962 158.959461 
Q 9.849962 161.359461 12.249962 161.359461 
L 19.992462 161.359461 
Q 22.392462 161.359461 22.392462 158.959461 
L 22.392462 154.135711 
Q 22.392462 151.735711 19.992462 151.735711 
L 12.249962 151.735711 
Q 9.849962 151.735711 9.849962 154.135711 
z
" style="fill:#ffffff;stroke:#ffffff;stroke-linejoin:miter;"/>
    </g>
    <g clip-path="url(#p525f27aff8)">
     <!-- P -->
     <g transform="translate(13.913712 154.135711)rotate(-270)scale(0.08 -0.08)">
      <use xlink:href="#DejaVuSans-80"/>
     </g>
    </g>
   </g>
   <g id="text_33">
    <g id="patch_34">
     <path clip-path="url(#p525f27aff8)" d="M 9.849962 160.408356 
L 9.849962 165.232106 
Q 9.849962 167.632106 12.249962 167.632106 
L 19.992462 167.632106 
Q 22.392462 167.632106 22.392462 165.232106 
L 22.392462 160.408356 
Q 22.392462 158.008356 19.992462 158.008356 
L 12.249962 158.008356 
Q 9.849962 158.008356 9.849962 160.408356 
z
" style="fill:#ffffff;stroke:#ffffff;stroke-linejoin:miter;"/>
    </g>
    <g clip-path="url(#p525f27aff8)">
     <!-- P -->
     <g transform="translate(13.913712 160.408356)rotate(-270)scale(0.08 -0.08)">
      <use xlink:href="#DejaVuSans-80"/>
     </g>
    </g>
   </g>
   <g id="text_34">
    <g id="patch_35">
     <path clip-path="url(#p525f27aff8)" d="M 9.849962 166.578563 
L 9.849962 171.402313 
Q 9.849962 173.802313 12.249962 173.802313 
L 19.992462 173.802313 
Q 22.392462 173.802313 22.392462 171.402313 
L 22.392462 166.578563 
Q 22.392462 164.178563 19.992462 164.178563 
L 12.249962 164.178563 
Q 9.849962 164.178563 9.849962 166.578563 
z
" style="fill:#ffffff;stroke:#ffffff;stroke-linejoin:miter;"/>
    </g>
    <g clip-path="url(#p525f27aff8)">
     <!-- P -->
     <g transform="translate(13.913712 166.578563)rotate(-270)scale(0.08 -0.08)">
      <use xlink:href="#DejaVuSans-80"/>
     </g>
    </g>
   </g>
   <g id="text_35">
    <g id="patch_36">
     <path clip-path="url(#p525f27aff8)" d="M 9.849962 158.214275 
L 9.849962 192.021775 
Q 9.849962 194.421775 12.249962 194.421775 
L 19.992462 194.421775 
Q 22.392462 194.421775 22.392462 192.021775 
L 22.392462 158.214275 
Q 22.392462 155.814275 19.992462 155.814275 
L 12.249962 155.814275 
Q 9.849962 155.814275 9.849962 158.214275 
z
" style="fill:#ffffff;stroke:#ffffff;stroke-linejoin:miter;"/>
    </g>
    <g clip-path="url(#p525f27aff8)">
     <!-- Terminal -->
     <g transform="translate(13.913712 158.214275)rotate(-270)scale(0.08 -0.08)">
      <use xlink:href="#DejaVuSans-84"/>
      <use x="44.083984" xlink:href="#DejaVuSans-101"/>
      <use x="105.607422" xlink:href="#DejaVuSans-114"/>
      <use x="144.970703" xlink:href="#DejaVuSans-109"/>
      <use x="242.382812" xlink:href="#DejaVuSans-105"/>
      <use x="270.166016" xlink:href="#DejaVuSans-110"/>
      <use x="333.544922" xlink:href="#DejaVuSans-97"/>
      <use x="394.824219" xlink:href="#DejaVuSans-108"/>
     </g>
    </g>
   </g>
   <g id="PathCollection_1">
    <defs>
     <path d="M 0 8.660254 
C 2.296726 8.660254 4.499694 7.747755 6.123724 6.123724 
C 7.747755 4.499694 8.660254 2.296726 8.660254 -0 
C 8.660254 -2.296726 7.747755 -4.499694 6.123724 -6.123724 
C 4.499694 -7.747755 2.296726 -8.660254 0 -8.660254 
C -2.296726 -8.660254 -4.499694 -7.747755 -6.123724 -6.123724 
C -7.747755 -4.499694 -8.660254 -2.296726 -8.660254 0 
C -8.660254 2.296726 -7.747755 4.499694 -6.123724 6.123724 
C -4.499694 7.747755 -2.296726 8.660254 0 8.660254 
z
" id="C0_0_e23df12dc6"/>
    </defs>
    <g clip-path="url(#p525f27aff8)">
     <use style="fill:#ffffff;stroke:#ffffff;" x="16.121212" xlink:href="#C0_0_e23df12dc6" y="178.181818"/>
    </g>
    <g clip-path="url(#p525f27aff8)">
     <use style="fill:#ffffff;stroke:#ffffff;" x="69.858586" xlink:href="#C0_0_e23df12dc6" y="178.181818"/>
    </g>
    <g clip-path="url(#p525f27aff8)">
     <use style="fill:#ffffff;stroke:#ffffff;" x="123.59596" xlink:href="#C0_0_e23df12dc6" y="178.181818"/>
    </g>
    <g clip-path="url(#p525f27aff8)">
     <use style="fill:#ffffff;stroke:#ffffff;" x="177.333333" xlink:href="#C0_0_e23df12dc6" y="178.181818"/>
    </g>
    <g clip-path="url(#p525f27aff8)">
     <use style="fill:#ffffff;stroke:#ffffff;" x="231.070707" xlink:href="#C0_0_e23df12dc6" y="178.181818"/>
    </g>
    <g clip-path="url(#p525f27aff8)">
     <use style="fill:#ffffff;stroke:#ffffff;" x="284.808081" xlink:href="#C0_0_e23df12dc6" y="178.181818"/>
    </g>
    <g clip-path="url(#p525f27aff8)">
     <use style="fill:#ffffff;stroke:#ffffff;" x="338.545455" xlink:href="#C0_0_e23df12dc6" y="178.181818"/>
    </g>
    <g clip-path="url(#p525f27aff8)">
     <use style="stroke:#000000;" x="128.969697" xlink:href="#C0_0_e23df12dc6" y="8.484848"/>
    </g>
    <g clip-path="url(#p525f27aff8)">
     <use style="stroke:#000000;" x="69.858586" xlink:href="#C0_0_e23df12dc6" y="172.054232"/>
    </g>
    <g clip-path="url(#p525f27aff8)">
     <use style="stroke:#000000;" x="204.20202" xlink:href="#C0_0_e23df12dc6" y="165.926645"/>
    </g>
    <g clip-path="url(#p525f27aff8)">
     <use style="stroke:#000000;" x="338.545455" xlink:href="#C0_0_e23df12dc6" y="172.054232"/>
    </g>
    <g clip-path="url(#p525f27aff8)">
     <use style="stroke:#000000;" x="16.121212" xlink:href="#C0_0_e23df12dc6" y="19.846019"/>
    </g>
    <g clip-path="url(#p525f27aff8)">
     <use style="stroke:#000000;" x="123.59596" xlink:href="#C0_0_e23df12dc6" y="172.054232"/>
    </g>
    <g clip-path="url(#p525f27aff8)">
     <use style="stroke:#000000;" x="177.333333" xlink:href="#C0_0_e23df12dc6" y="172.054232"/>
    </g>
    <g clip-path="url(#p525f27aff8)">
     <use style="stroke:#000000;" x="231.070707" xlink:href="#C0_0_e23df12dc6" y="172.054232"/>
    </g>
    <g clip-path="url(#p525f27aff8)">
     <use style="stroke:#000000;" x="284.808081" xlink:href="#C0_0_e23df12dc6" y="172.054232"/>
    </g>
    <g clip-path="url(#p525f27aff8)">
     <use style="stroke:#000000;" x="16.121212" xlink:href="#C0_0_e23df12dc6" y="30.738623"/>
    </g>
    <g clip-path="url(#p525f27aff8)">
     <use style="stroke:#000000;" x="16.121212" xlink:href="#C0_0_e23df12dc6" y="41.189547"/>
    </g>
    <g clip-path="url(#p525f27aff8)">
     <use style="stroke:#000000;" x="16.121212" xlink:href="#C0_0_e23df12dc6" y="51.224199"/>
    </g>
    <g clip-path="url(#p525f27aff8)">
     <use style="stroke:#000000;" x="16.121212" xlink:href="#C0_0_e23df12dc6" y="60.866629"/>
    </g>
    <g clip-path="url(#p525f27aff8)">
     <use style="stroke:#000000;" x="16.121212" xlink:href="#C0_0_e23df12dc6" y="70.139641"/>
    </g>
    <g clip-path="url(#p525f27aff8)">
     <use style="stroke:#000000;" x="16.121212" xlink:href="#C0_0_e23df12dc6" y="79.064902"/>
    </g>
    <g clip-path="url(#p525f27aff8)">
     <use style="stroke:#000000;" x="16.121212" xlink:href="#C0_0_e23df12dc6" y="87.663052"/>
    </g>
    <g clip-path="url(#p525f27aff8)">
     <use style="stroke:#000000;" x="16.121212" xlink:href="#C0_0_e23df12dc6" y="95.953813"/>
    </g>
    <g clip-path="url(#p525f27aff8)">
     <use style="stroke:#000000;" x="16.121212" xlink:href="#C0_0_e23df12dc6" y="103.956102"/>
    </g>
    <g clip-path="url(#p525f27aff8)">
     <use style="stroke:#000000;" x="16.121212" xlink:href="#C0_0_e23df12dc6" y="111.688153"/>
    </g>
    <g clip-path="url(#p525f27aff8)">
     <use style="stroke:#000000;" x="16.121212" xlink:href="#C0_0_e23df12dc6" y="119.167649"/>
    </g>
    <g clip-path="url(#p525f27aff8)">
     <use style="stroke:#000000;" x="16.121212" xlink:href="#C0_0_e23df12dc6" y="126.411883"/>
    </g>
    <g clip-path="url(#p525f27aff8)">
     <use style="stroke:#000000;" x="16.121212" xlink:href="#C0_0_e23df12dc6" y="133.437948"/>
    </g>
    <g clip-path="url(#p525f27aff8)">
     <use style="stroke:#000000;" x="16.121212" xlink:href="#C0_0_e23df12dc6" y="140.262998"/>
    </g>
    <g clip-path="url(#p525f27aff8)">
     <use style="stroke:#000000;" x="16.121212" xlink:href="#C0_0_e23df12dc6" y="146.904609"/>
    </g>
    <g clip-path="url(#p525f27aff8)">
     <use style="stroke:#000000;" x="16.121212" xlink:href="#C0_0_e23df12dc6" y="153.381356"/>
    </g>
    <g clip-path="url(#p525f27aff8)">
     <use style="stroke:#000000;" x="16.121212" xlink:href="#C0_0_e23df12dc6" y="159.713817"/>
    </g>
    <g clip-path="url(#p525f27aff8)">
     <use style="stroke:#000000;" x="16.121212" xlink:href="#C0_0_e23df12dc6" y="165.926645"/>
    </g>
    <g clip-path="url(#p525f27aff8)">
     <use style="stroke:#000000;" x="16.121212" xlink:href="#C0_0_e23df12dc6" y="172.054232"/>
    </g>
   </g>
   <g id="text_36">
    <g clip-path="url(#p525f27aff8)">
     <!-- A -->
     <g transform="translate(12.7009 180.941193)scale(0.1 -0.1)">
      <use xlink:href="#DejaVuSans-65"/>
     </g>
    </g>
   </g>
   <g id="text_37">
    <g clip-path="url(#p525f27aff8)">
     <!-- plant -->
     <g transform="translate(57.102336 180.941193)scale(0.1 -0.1)">
      <defs>
       <path d="M 18.109375 8.203125 
L 18.109375 -20.796875 
L 9.078125 -20.796875 
L 9.078125 54.6875 
L 18.109375 54.6875 
L 18.109375 46.390625 
Q 20.953125 51.265625 25.265625 53.625 
Q 29.59375 56 35.59375 56 
Q 45.5625 56 51.78125 48.09375 
Q 58.015625 40.1875 58.015625 27.296875 
Q 58.015625 14.40625 51.78125 6.484375 
Q 45.5625 -1.421875 35.59375 -1.421875 
Q 29.59375 -1.421875 25.265625 0.953125 
Q 20.953125 3.328125 18.109375 8.203125 
z
M 48.6875 27.296875 
Q 48.6875 37.203125 44.609375 42.84375 
Q 40.53125 48.484375 33.40625 48.484375 
Q 26.265625 48.484375 22.1875 42.84375 
Q 18.109375 37.203125 18.109375 27.296875 
Q 18.109375 17.390625 22.1875 11.75 
Q 26.265625 6.109375 33.40625 6.109375 
Q 40.53125 6.109375 44.609375 11.75 
Q 48.6875 17.390625 48.6875 27.296875 
z
" id="DejaVuSans-112"/>
       <path d="M 18.3125 70.21875 
L 18.3125 54.6875 
L 36.8125 54.6875 
L 36.8125 47.703125 
L 18.3125 47.703125 
L 18.3125 18.015625 
Q 18.3125 11.328125 20.140625 9.421875 
Q 21.96875 7.515625 27.59375 7.515625 
L 36.8125 7.515625 
L 36.8125 0 
L 27.59375 0 
Q 17.1875 0 13.234375 3.875 
Q 9.28125 7.765625 9.28125 18.015625 
L 9.28125 47.703125 
L 2.6875 47.703125 
L 2.6875 54.6875 
L 9.28125 54.6875 
L 9.28125 70.21875 
z
" id="DejaVuSans-116"/>
      </defs>
      <use xlink:href="#DejaVuSans-112"/>
      <use x="63.476562" xlink:href="#DejaVuSans-108"/>
      <use x="91.259766" xlink:href="#DejaVuSans-97"/>
      <use x="152.539062" xlink:href="#DejaVuSans-110"/>
      <use x="215.917969" xlink:href="#DejaVuSans-116"/>
     </g>
    </g>
   </g>
   <g id="text_38">
    <g clip-path="url(#p525f27aff8)">
     <!-- requires -->
     <g transform="translate(103.220178 180.941193)scale(0.1 -0.1)">
      <defs>
       <path d="M 14.796875 27.296875 
Q 14.796875 17.390625 18.875 11.75 
Q 22.953125 6.109375 30.078125 6.109375 
Q 37.203125 6.109375 41.296875 11.75 
Q 45.40625 17.390625 45.40625 27.296875 
Q 45.40625 37.203125 41.296875 42.84375 
Q 37.203125 48.484375 30.078125 48.484375 
Q 22.953125 48.484375 18.875 42.84375 
Q 14.796875 37.203125 14.796875 27.296875 
z
M 45.40625 8.203125 
Q 42.578125 3.328125 38.25 0.953125 
Q 33.9375 -1.421875 27.875 -1.421875 
Q 17.96875 -1.421875 11.734375 6.484375 
Q 5.515625 14.40625 5.515625 27.296875 
Q 5.515625 40.1875 11.734375 48.09375 
Q 17.96875 56 27.875 56 
Q 33.9375 56 38.25 53.625 
Q 42.578125 51.265625 45.40625 46.390625 
L 45.40625 54.6875 
L 54.390625 54.6875 
L 54.390625 -20.796875 
L 45.40625 -20.796875 
z
" id="DejaVuSans-113"/>
       <path d="M 8.5 21.578125 
L 8.5 54.6875 
L 17.484375 54.6875 
L 17.484375 21.921875 
Q 17.484375 14.15625 20.5 10.265625 
Q 23.53125 6.390625 29.59375 6.390625 
Q 36.859375 6.390625 41.078125 11.03125 
Q 45.3125 15.671875 45.3125 23.6875 
L 45.3125 54.6875 
L 54.296875 54.6875 
L 54.296875 0 
L 45.3125 0 
L 45.3125 8.40625 
Q 42.046875 3.421875 37.71875 1 
Q 33.40625 -1.421875 27.6875 -1.421875 
Q 18.265625 -1.421875 13.375 4.4375 
Q 8.5 10.296875 8.5 21.578125 
z
M 31.109375 56 
z
" id="DejaVuSans-117"/>
       <path d="M 44.28125 53.078125 
L 44.28125 44.578125 
Q 40.484375 46.53125 36.375 47.5 
Q 32.28125 48.484375 27.875 48.484375 
Q 21.1875 48.484375 17.84375 46.4375 
Q 14.5 44.390625 14.5 40.28125 
Q 14.5 37.15625 16.890625 35.375 
Q 19.28125 33.59375 26.515625 31.984375 
L 29.59375 31.296875 
Q 39.15625 29.25 43.1875 25.515625 
Q 47.21875 21.78125 47.21875 15.09375 
Q 47.21875 7.46875 41.1875 3.015625 
Q 35.15625 -1.421875 24.609375 -1.421875 
Q 20.21875 -1.421875 15.453125 -0.5625 
Q 10.6875 0.296875 5.421875 2 
L 5.421875 11.28125 
Q 10.40625 8.6875 15.234375 7.390625 
Q 20.0625 6.109375 24.8125 6.109375 
Q 31.15625 6.109375 34.5625 8.28125 
Q 37.984375 10.453125 37.984375 14.40625 
Q 37.984375 18.0625 35.515625 20.015625 
Q 33.0625 21.96875 24.703125 23.78125 
L 21.578125 24.515625 
Q 13.234375 26.265625 9.515625 29.90625 
Q 5.8125 33.546875 5.8125 39.890625 
Q 5.8125 47.609375 11.28125 51.796875 
Q 16.75 56 26.8125 56 
Q 31.78125 56 36.171875 55.265625 
Q 40.578125 54.546875 44.28125 53.078125 
z
" id="DejaVuSans-115"/>
      </defs>
      <use xlink:href="#DejaVuSans-114"/>
      <use x="38.863281" xlink:href="#DejaVuSans-101"/>
      <use x="100.386719" xlink:href="#DejaVuSans-113"/>
      <use x="163.863281" xlink:href="#DejaVuSans-117"/>
      <use x="227.242188" xlink:href="#DejaVuSans-105"/>
      <use x="255.025391" xlink:href="#DejaVuSans-114"/>
      <use x="293.888672" xlink:href="#DejaVuSans-101"/>
      <use x="355.412109" xlink:href="#DejaVuSans-115"/>
     </g>
    </g>
   </g>
   <g id="text_39">
    <g clip-path="url(#p525f27aff8)">
     <!-- sunlight -->
     <g transform="translate(157.309896 180.941193)scale(0.1 -0.1)">
      <defs>
       <path d="M 45.40625 27.984375 
Q 45.40625 37.75 41.375 43.109375 
Q 37.359375 48.484375 30.078125 48.484375 
Q 22.859375 48.484375 18.828125 43.109375 
Q 14.796875 37.75 14.796875 27.984375 
Q 14.796875 18.265625 18.828125 12.890625 
Q 22.859375 7.515625 30.078125 7.515625 
Q 37.359375 7.515625 41.375 12.890625 
Q 45.40625 18.265625 45.40625 27.984375 
z
M 54.390625 6.78125 
Q 54.390625 -7.171875 48.1875 -13.984375 
Q 42 -20.796875 29.203125 -20.796875 
Q 24.46875 -20.796875 20.265625 -20.09375 
Q 16.0625 -19.390625 12.109375 -17.921875 
L 12.109375 -9.1875 
Q 16.0625 -11.328125 19.921875 -12.34375 
Q 23.78125 -13.375 27.78125 -13.375 
Q 36.625 -13.375 41.015625 -8.765625 
Q 45.40625 -4.15625 45.40625 5.171875 
L 45.40625 9.625 
Q 42.625 4.78125 38.28125 2.390625 
Q 33.9375 0 27.875 0 
Q 17.828125 0 11.671875 7.65625 
Q 5.515625 15.328125 5.515625 27.984375 
Q 5.515625 40.671875 11.671875 48.328125 
Q 17.828125 56 27.875 56 
Q 33.9375 56 38.28125 53.609375 
Q 42.625 51.21875 45.40625 46.390625 
L 45.40625 54.6875 
L 54.390625 54.6875 
z
" id="DejaVuSans-103"/>
       <path d="M 54.890625 33.015625 
L 54.890625 0 
L 45.90625 0 
L 45.90625 32.71875 
Q 45.90625 40.484375 42.875 44.328125 
Q 39.84375 48.1875 33.796875 48.1875 
Q 26.515625 48.1875 22.3125 43.546875 
Q 18.109375 38.921875 18.109375 30.90625 
L 18.109375 0 
L 9.078125 0 
L 9.078125 75.984375 
L 18.109375 75.984375 
L 18.109375 46.1875 
Q 21.34375 51.125 25.703125 53.5625 
Q 30.078125 56 35.796875 56 
Q 45.21875 56 50.046875 50.171875 
Q 54.890625 44.34375 54.890625 33.015625 
z
" id="DejaVuSans-104"/>
      </defs>
      <use xlink:href="#DejaVuSans-115"/>
      <use x="52.099609" xlink:href="#DejaVuSans-117"/>
      <use x="115.478516" xlink:href="#DejaVuSans-110"/>
      <use x="178.857422" xlink:href="#DejaVuSans-108"/>
      <use x="206.640625" xlink:href="#DejaVuSans-105"/>
      <use x="234.423828" xlink:href="#DejaVuSans-103"/>
      <use x="297.900391" xlink:href="#DejaVuSans-104"/>
      <use x="361.279297" xlink:href="#DejaVuSans-116"/>
     </g>
    </g>
   </g>
   <g id="text_40">
    <g clip-path="url(#p525f27aff8)">
     <!-- to -->
     <g transform="translate(226.051176 180.941193)scale(0.1 -0.1)">
      <defs>
       <path d="M 30.609375 48.390625 
Q 23.390625 48.390625 19.1875 42.75 
Q 14.984375 37.109375 14.984375 27.296875 
Q 14.984375 17.484375 19.15625 11.84375 
Q 23.34375 6.203125 30.609375 6.203125 
Q 37.796875 6.203125 41.984375 11.859375 
Q 46.1875 17.53125 46.1875 27.296875 
Q 46.1875 37.015625 41.984375 42.703125 
Q 37.796875 48.390625 30.609375 48.390625 
z
M 30.609375 56 
Q 42.328125 56 49.015625 48.375 
Q 55.71875 40.765625 55.71875 27.296875 
Q 55.71875 13.875 49.015625 6.21875 
Q 42.328125 -1.421875 30.609375 -1.421875 
Q 18.84375 -1.421875 12.171875 6.21875 
Q 5.515625 13.875 5.515625 27.296875 
Q 5.515625 40.765625 12.171875 48.375 
Q 18.84375 56 30.609375 56 
z
" id="DejaVuSans-111"/>
      </defs>
      <use xlink:href="#DejaVuSans-116"/>
      <use x="39.208984" xlink:href="#DejaVuSans-111"/>
     </g>
    </g>
   </g>
   <g id="text_41">
    <g clip-path="url(#p525f27aff8)">
     <!-- grow -->
     <g transform="translate(272.542456 180.941193)scale(0.1 -0.1)">
      <defs>
       <path d="M 4.203125 54.6875 
L 13.1875 54.6875 
L 24.421875 12.015625 
L 35.59375 54.6875 
L 46.1875 54.6875 
L 57.421875 12.015625 
L 68.609375 54.6875 
L 77.59375 54.6875 
L 63.28125 0 
L 52.6875 0 
L 40.921875 44.828125 
L 29.109375 0 
L 18.5 0 
z
" id="DejaVuSans-119"/>
      </defs>
      <use xlink:href="#DejaVuSans-103"/>
      <use x="63.476562" xlink:href="#DejaVuSans-114"/>
      <use x="102.339844" xlink:href="#DejaVuSans-111"/>
      <use x="163.521484" xlink:href="#DejaVuSans-119"/>
     </g>
    </g>
   </g>
   <g id="text_42">
    <g clip-path="url(#p525f27aff8)">
     <!-- . -->
     <g transform="translate(336.956392 180.941193)scale(0.1 -0.1)">
      <defs>
       <path d="M 10.6875 12.40625 
L 21 12.40625 
L 21 0 
L 10.6875 0 
z
" id="DejaVuSans-46"/>
      </defs>
      <use xlink:href="#DejaVuSans-46"/>
     </g>
    </g>
   </g>
  </g>
 </g>
 <defs>
  <clipPath id="p525f27aff8">
   <rect height="186.666667" width="354.666667" x="0" y="0"/>
  </clipPath>
 </defs>
</svg>
