<?xml version="1.0" encoding="utf-8" standalone="no"?>
<!DOCTYPE svg PUBLIC "-//W3C//DTD SVG 1.1//EN"
  "http://www.w3.org/Graphics/SVG/1.1/DTD/svg11.dtd">
<!-- Created with matplotlib (https://matplotlib.org/) -->
<svg height="160pt" version="1.1" viewBox="0 0 304 160" width="304pt" xmlns="http://www.w3.org/2000/svg" xmlns:xlink="http://www.w3.org/1999/xlink">
 <metadata>
  <rdf:RDF xmlns:cc="http://creativecommons.org/ns#" xmlns:dc="http://purl.org/dc/elements/1.1/" xmlns:rdf="http://www.w3.org/1999/02/22-rdf-syntax-ns#">
   <cc:Work>
    <dc:type rdf:resource="http://purl.org/dc/dcmitype/StillImage"/>
    <dc:date>2021-05-19T11:42:12.056575</dc:date>
    <dc:format>image/svg+xml</dc:format>
    <dc:creator>
     <cc:Agent>
      <dc:title>Matplotlib v3.3.4, https://matplotlib.org/</dc:title>
     </cc:Agent>
    </dc:creator>
   </cc:Work>
  </rdf:RDF>
 </metadata>
 <defs>
  <style type="text/css">*{stroke-linecap:butt;stroke-linejoin:round;}</style>
 </defs>
 <g id="figure_1">
  <g id="patch_1">
   <path d="M 0 160 
L 304 160 
L 304 0 
L 0 0 
z
" style="fill:#ffffff;"/>
  </g>
  <g id="axes_1">
   <g id="LineCollection_1">
    <path clip-path="url(#p7274a11a07)" d="M 113.309091 7.272727 
L 69.090909 147.475056 
" style="fill:none;stroke:#000000;"/>
    <path clip-path="url(#p7274a11a07)" d="M 113.309091 7.272727 
L 179.636364 142.222839 
" style="fill:none;stroke:#000000;"/>
    <path clip-path="url(#p7274a11a07)" d="M 113.309091 7.272727 
L 290.181818 147.475056 
" style="fill:none;stroke:#000000;"/>
    <path clip-path="url(#p7274a11a07)" d="M 113.309091 7.272727 
L 13.818182 17.010873 
" style="fill:none;stroke:#000000;"/>
    <path clip-path="url(#p7274a11a07)" d="M 113.309091 7.272727 
L 13.818182 147.475056 
" style="fill:none;stroke:#000000;stroke-dasharray:3.7,1.6;stroke-dashoffset:0;"/>
    <path clip-path="url(#p7274a11a07)" d="M 69.090909 147.475056 
L 69.090909 152.727273 
" style="fill:none;stroke:#000000;"/>
    <path clip-path="url(#p7274a11a07)" d="M 179.636364 142.222839 
L 124.363636 147.475056 
" style="fill:none;stroke:#000000;"/>
    <path clip-path="url(#p7274a11a07)" d="M 179.636364 142.222839 
L 179.636364 147.475056 
" style="fill:none;stroke:#000000;"/>
    <path clip-path="url(#p7274a11a07)" d="M 179.636364 142.222839 
L 234.909091 147.475056 
" style="fill:none;stroke:#000000;"/>
    <path clip-path="url(#p7274a11a07)" d="M 290.181818 147.475056 
L 290.181818 152.727273 
" style="fill:none;stroke:#000000;"/>
    <path clip-path="url(#p7274a11a07)" d="M 13.818182 17.010873 
L 13.818182 26.347391 
" style="fill:none;stroke:#000000;"/>
    <path clip-path="url(#p7274a11a07)" d="M 124.363636 147.475056 
L 124.363636 152.727273 
" style="fill:none;stroke:#000000;"/>
    <path clip-path="url(#p7274a11a07)" d="M 179.636364 147.475056 
L 179.636364 152.727273 
" style="fill:none;stroke:#000000;"/>
    <path clip-path="url(#p7274a11a07)" d="M 234.909091 147.475056 
L 234.909091 152.727273 
" style="fill:none;stroke:#000000;"/>
    <path clip-path="url(#p7274a11a07)" d="M 13.818182 26.347391 
L 13.818182 35.305326 
" style="fill:none;stroke:#000000;"/>
    <path clip-path="url(#p7274a11a07)" d="M 13.818182 35.305326 
L 13.818182 43.906456 
" style="fill:none;stroke:#000000;"/>
    <path clip-path="url(#p7274a11a07)" d="M 13.818182 43.906456 
L 13.818182 52.171396 
" style="fill:none;stroke:#000000;"/>
    <path clip-path="url(#p7274a11a07)" d="M 13.818182 52.171396 
L 13.818182 60.119692 
" style="fill:none;stroke:#000000;"/>
    <path clip-path="url(#p7274a11a07)" d="M 13.818182 60.119692 
L 13.818182 67.769916 
" style="fill:none;stroke:#000000;"/>
    <path clip-path="url(#p7274a11a07)" d="M 13.818182 67.769916 
L 13.818182 75.139759 
" style="fill:none;stroke:#000000;"/>
    <path clip-path="url(#p7274a11a07)" d="M 13.818182 75.139759 
L 13.818182 82.246126 
" style="fill:none;stroke:#000000;"/>
    <path clip-path="url(#p7274a11a07)" d="M 13.818182 82.246126 
L 13.818182 89.10523 
" style="fill:none;stroke:#000000;"/>
    <path clip-path="url(#p7274a11a07)" d="M 13.818182 89.10523 
L 13.818182 95.732702 
" style="fill:none;stroke:#000000;"/>
    <path clip-path="url(#p7274a11a07)" d="M 13.818182 95.732702 
L 13.818182 102.143699 
" style="fill:none;stroke:#000000;"/>
    <path clip-path="url(#p7274a11a07)" d="M 13.818182 102.143699 
L 13.818182 108.353042 
" style="fill:none;stroke:#000000;"/>
    <path clip-path="url(#p7274a11a07)" d="M 13.818182 108.353042 
L 13.818182 114.375384 
" style="fill:none;stroke:#000000;"/>
    <path clip-path="url(#p7274a11a07)" d="M 13.818182 114.375384 
L 13.818182 120.225427 
" style="fill:none;stroke:#000000;"/>
    <path clip-path="url(#p7274a11a07)" d="M 13.818182 120.225427 
L 13.818182 125.918236 
" style="fill:none;stroke:#000000;"/>
    <path clip-path="url(#p7274a11a07)" d="M 13.818182 125.918236 
L 13.818182 131.469734 
" style="fill:none;stroke:#000000;"/>
    <path clip-path="url(#p7274a11a07)" d="M 13.818182 131.469734 
L 13.818182 136.897557 
" style="fill:none;stroke:#000000;"/>
    <path clip-path="url(#p7274a11a07)" d="M 13.818182 136.897557 
L 13.818182 142.222839 
" style="fill:none;stroke:#000000;"/>
    <path clip-path="url(#p7274a11a07)" d="M 13.818182 142.222839 
L 13.818182 147.475056 
" style="fill:none;stroke:#000000;"/>
    <path clip-path="url(#p7274a11a07)" d="M 13.818182 147.475056 
L 13.818182 152.727273 
" style="fill:none;stroke:#000000;"/>
   </g>
   <g id="text_1">
    <g id="patch_2">
     <path clip-path="url(#p7274a11a07)" d="M 96.488854 81.454269 
L 97.872834 77.066091 
Q 98.594714 74.777229 96.305852 74.055349 
L 88.921889 71.726533 
Q 86.633027 71.004652 85.911146 73.293514 
L 84.527166 77.681692 
Q 83.805286 79.970554 86.094148 80.692434 
L 93.478111 83.02125 
Q 95.766973 83.743131 96.488854 81.454269 
z
" style="fill:#ffffff;stroke:#ffffff;stroke-linejoin:miter;"/>
    </g>
    <g clip-path="url(#p7274a11a07)">
     <!-- F -->
     <g transform="translate(92.613286 80.23196)rotate(-72.495332)scale(0.08 -0.08)">
      <defs>
       <path d="M 9.8125 72.90625 
L 51.703125 72.90625 
L 51.703125 64.59375 
L 19.671875 64.59375 
L 19.671875 43.109375 
L 48.578125 43.109375 
L 48.578125 34.8125 
L 19.671875 34.8125 
L 19.671875 0 
L 9.8125 0 
z
" id="DejaVuSans-70"/>
      </defs>
      <use xlink:href="#DejaVuSans-70"/>
     </g>
    </g>
   </g>
   <g id="text_2">
    <g id="patch_3">
     <path clip-path="url(#p7274a11a07)" d="M 139.637583 75.058337 
L 142.051485 79.969684 
Q 143.110117 82.123587 145.26402 81.064955 
L 152.212601 77.649764 
Q 154.366504 76.591132 153.307872 74.437229 
L 150.89397 69.525882 
Q 149.835338 67.371978 147.681435 68.430611 
L 140.732854 71.845802 
Q 138.578951 72.904434 139.637583 75.058337 
z
" style="fill:#ffffff;stroke:#ffffff;stroke-linejoin:miter;"/>
    </g>
    <g clip-path="url(#p7274a11a07)">
     <!-- A -->
     <g transform="translate(143.284634 73.26583)rotate(-296.173875)scale(0.08 -0.08)">
      <defs>
       <path d="M 34.1875 63.1875 
L 20.796875 26.90625 
L 47.609375 26.90625 
z
M 28.609375 72.90625 
L 39.796875 72.90625 
L 67.578125 0 
L 57.328125 0 
L 50.6875 18.703125 
L 17.828125 18.703125 
L 11.1875 0 
L 0.78125 0 
z
" id="DejaVuSans-65"/>
      </defs>
      <use xlink:href="#DejaVuSans-65"/>
     </g>
    </g>
   </g>
   <g id="text_3">
    <g id="patch_4">
     <path clip-path="url(#p7274a11a07)" d="M 195.555661 80.469902 
L 200.144 84.106957 
Q 202.024788 85.597808 203.515639 83.71702 
L 208.325186 77.64952 
Q 209.816037 75.768731 207.935249 74.277881 
L 203.346909 70.640826 
Q 201.466121 69.149975 199.97527 71.030763 
L 195.165723 77.098263 
Q 193.674873 78.979051 195.555661 80.469902 
z
" style="fill:#ffffff;stroke:#ffffff;stroke-linejoin:miter;"/>
    </g>
    <g clip-path="url(#p7274a11a07)">
     <!-- U -->
     <g transform="translate(198.080013 77.285297)rotate(-321.597069)scale(0.08 -0.08)">
      <defs>
       <path d="M 8.6875 72.90625 
L 18.609375 72.90625 
L 18.609375 28.609375 
Q 18.609375 16.890625 22.84375 11.734375 
Q 27.09375 6.59375 36.625 6.59375 
Q 46.09375 6.59375 50.34375 11.734375 
Q 54.59375 16.890625 54.59375 28.609375 
L 54.59375 72.90625 
L 64.5 72.90625 
L 64.5 27.390625 
Q 64.5 13.140625 57.4375 5.859375 
Q 50.390625 -1.421875 36.625 -1.421875 
Q 22.796875 -1.421875 15.734375 5.859375 
Q 8.6875 13.140625 8.6875 27.390625 
z
" id="DejaVuSans-85"/>
      </defs>
      <use xlink:href="#DejaVuSans-85"/>
     </g>
    </g>
   </g>
   <g id="text_4">
    <g id="patch_5">
     <path clip-path="url(#p7274a11a07)" d="M 61.774141 18.618175 
L 66.574949 18.148273 
Q 68.963535 17.914479 68.729741 15.525893 
L 67.975511 7.820217 
Q 67.741717 5.431632 65.353131 5.665426 
L 60.552323 6.135328 
Q 58.163738 6.369122 58.397532 8.757707 
L 59.151762 16.463383 
Q 59.385556 18.851969 61.774141 18.618175 
z
" style="fill:#ffffff;stroke:#ffffff;stroke-linejoin:miter;"/>
    </g>
    <g clip-path="url(#p7274a11a07)">
     <!-- P -->
     <g transform="translate(61.378274 14.573752)rotate(-5.59029)scale(0.08 -0.08)">
      <defs>
       <path d="M 19.671875 64.796875 
L 19.671875 37.40625 
L 32.078125 37.40625 
Q 38.96875 37.40625 42.71875 40.96875 
Q 46.484375 44.53125 46.484375 51.125 
Q 46.484375 57.671875 42.71875 61.234375 
Q 38.96875 64.796875 32.078125 64.796875 
z
M 9.8125 72.90625 
L 32.078125 72.90625 
Q 44.34375 72.90625 50.609375 67.359375 
Q 56.890625 61.8125 56.890625 51.125 
Q 56.890625 40.328125 50.609375 34.8125 
Q 44.34375 29.296875 32.078125 29.296875 
L 19.671875 29.296875 
L 19.671875 0 
L 9.8125 0 
z
" id="DejaVuSans-80"/>
      </defs>
      <use xlink:href="#DejaVuSans-80"/>
     </g>
    </g>
   </g>
   <g id="text_5">
    <g id="patch_6">
     <path clip-path="url(#p7274a11a07)" d="M 67.094498 83.234664 
L 70.261532 78.771688 
Q 71.650455 76.814422 69.693188 75.425499 
L 63.378964 70.944775 
Q 61.421698 69.555852 60.032775 71.513119 
L 56.865741 75.976095 
Q 55.476818 77.933361 57.434084 79.322284 
L 63.748308 83.803008 
Q 65.705575 85.191931 67.094498 83.234664 
z
" style="fill:#ffffff;stroke:#ffffff;stroke-linejoin:miter;"/>
    </g>
    <g clip-path="url(#p7274a11a07)">
     <!-- A -->
     <g transform="translate(63.780397 80.882899)rotate(-54.639581)scale(0.08 -0.08)">
      <use xlink:href="#DejaVuSans-65"/>
     </g>
    </g>
   </g>
   <g id="text_6">
    <g id="patch_7">
     <path clip-path="url(#p7274a11a07)" d="M 62.819659 133.197414 
L 62.819659 167.004914 
Q 62.819659 169.404914 65.219659 169.404914 
L 72.962159 169.404914 
Q 75.362159 169.404914 75.362159 167.004914 
L 75.362159 133.197414 
Q 75.362159 130.797414 72.962159 130.797414 
L 65.219659 130.797414 
Q 62.819659 130.797414 62.819659 133.197414 
z
" style="fill:#ffffff;stroke:#ffffff;stroke-linejoin:miter;"/>
    </g>
    <g clip-path="url(#p7274a11a07)">
     <!-- Terminal -->
     <g transform="translate(66.883409 133.197414)rotate(-270)scale(0.08 -0.08)">
      <defs>
       <path d="M -0.296875 72.90625 
L 61.375 72.90625 
L 61.375 64.59375 
L 35.5 64.59375 
L 35.5 0 
L 25.59375 0 
L 25.59375 64.59375 
L -0.296875 64.59375 
z
" id="DejaVuSans-84"/>
       <path d="M 56.203125 29.59375 
L 56.203125 25.203125 
L 14.890625 25.203125 
Q 15.484375 15.921875 20.484375 11.0625 
Q 25.484375 6.203125 34.421875 6.203125 
Q 39.59375 6.203125 44.453125 7.46875 
Q 49.3125 8.734375 54.109375 11.28125 
L 54.109375 2.78125 
Q 49.265625 0.734375 44.1875 -0.34375 
Q 39.109375 -1.421875 33.890625 -1.421875 
Q 20.796875 -1.421875 13.15625 6.1875 
Q 5.515625 13.8125 5.515625 26.8125 
Q 5.515625 40.234375 12.765625 48.109375 
Q 20.015625 56 32.328125 56 
Q 43.359375 56 49.78125 48.890625 
Q 56.203125 41.796875 56.203125 29.59375 
z
M 47.21875 32.234375 
Q 47.125 39.59375 43.09375 43.984375 
Q 39.0625 48.390625 32.421875 48.390625 
Q 24.90625 48.390625 20.390625 44.140625 
Q 15.875 39.890625 15.1875 32.171875 
z
" id="DejaVuSans-101"/>
       <path d="M 41.109375 46.296875 
Q 39.59375 47.171875 37.8125 47.578125 
Q 36.03125 48 33.890625 48 
Q 26.265625 48 22.1875 43.046875 
Q 18.109375 38.09375 18.109375 28.8125 
L 18.109375 0 
L 9.078125 0 
L 9.078125 54.6875 
L 18.109375 54.6875 
L 18.109375 46.1875 
Q 20.953125 51.171875 25.484375 53.578125 
Q 30.03125 56 36.53125 56 
Q 37.453125 56 38.578125 55.875 
Q 39.703125 55.765625 41.0625 55.515625 
z
" id="DejaVuSans-114"/>
       <path d="M 52 44.1875 
Q 55.375 50.25 60.0625 53.125 
Q 64.75 56 71.09375 56 
Q 79.640625 56 84.28125 50.015625 
Q 88.921875 44.046875 88.921875 33.015625 
L 88.921875 0 
L 79.890625 0 
L 79.890625 32.71875 
Q 79.890625 40.578125 77.09375 44.375 
Q 74.3125 48.1875 68.609375 48.1875 
Q 61.625 48.1875 57.5625 43.546875 
Q 53.515625 38.921875 53.515625 30.90625 
L 53.515625 0 
L 44.484375 0 
L 44.484375 32.71875 
Q 44.484375 40.625 41.703125 44.40625 
Q 38.921875 48.1875 33.109375 48.1875 
Q 26.21875 48.1875 22.15625 43.53125 
Q 18.109375 38.875 18.109375 30.90625 
L 18.109375 0 
L 9.078125 0 
L 9.078125 54.6875 
L 18.109375 54.6875 
L 18.109375 46.1875 
Q 21.1875 51.21875 25.484375 53.609375 
Q 29.78125 56 35.6875 56 
Q 41.65625 56 45.828125 52.96875 
Q 50 49.953125 52 44.1875 
z
" id="DejaVuSans-109"/>
       <path d="M 9.421875 54.6875 
L 18.40625 54.6875 
L 18.40625 0 
L 9.421875 0 
z
M 9.421875 75.984375 
L 18.40625 75.984375 
L 18.40625 64.59375 
L 9.421875 64.59375 
z
" id="DejaVuSans-105"/>
       <path d="M 54.890625 33.015625 
L 54.890625 0 
L 45.90625 0 
L 45.90625 32.71875 
Q 45.90625 40.484375 42.875 44.328125 
Q 39.84375 48.1875 33.796875 48.1875 
Q 26.515625 48.1875 22.3125 43.546875 
Q 18.109375 38.921875 18.109375 30.90625 
L 18.109375 0 
L 9.078125 0 
L 9.078125 54.6875 
L 18.109375 54.6875 
L 18.109375 46.1875 
Q 21.34375 51.125 25.703125 53.5625 
Q 30.078125 56 35.796875 56 
Q 45.21875 56 50.046875 50.171875 
Q 54.890625 44.34375 54.890625 33.015625 
z
" id="DejaVuSans-110"/>
       <path d="M 34.28125 27.484375 
Q 23.390625 27.484375 19.1875 25 
Q 14.984375 22.515625 14.984375 16.5 
Q 14.984375 11.71875 18.140625 8.90625 
Q 21.296875 6.109375 26.703125 6.109375 
Q 34.1875 6.109375 38.703125 11.40625 
Q 43.21875 16.703125 43.21875 25.484375 
L 43.21875 27.484375 
z
M 52.203125 31.203125 
L 52.203125 0 
L 43.21875 0 
L 43.21875 8.296875 
Q 40.140625 3.328125 35.546875 0.953125 
Q 30.953125 -1.421875 24.3125 -1.421875 
Q 15.921875 -1.421875 10.953125 3.296875 
Q 6 8.015625 6 15.921875 
Q 6 25.140625 12.171875 29.828125 
Q 18.359375 34.515625 30.609375 34.515625 
L 43.21875 34.515625 
L 43.21875 35.40625 
Q 43.21875 41.609375 39.140625 45 
Q 35.0625 48.390625 27.6875 48.390625 
Q 23 48.390625 18.546875 47.265625 
Q 14.109375 46.140625 10.015625 43.890625 
L 10.015625 52.203125 
Q 14.9375 54.109375 19.578125 55.046875 
Q 24.21875 56 28.609375 56 
Q 40.484375 56 46.34375 49.84375 
Q 52.203125 43.703125 52.203125 31.203125 
z
" id="DejaVuSans-97"/>
       <path d="M 9.421875 75.984375 
L 18.40625 75.984375 
L 18.40625 0 
L 9.421875 0 
z
" id="DejaVuSans-108"/>
      </defs>
      <use xlink:href="#DejaVuSans-84"/>
      <use x="44.083984" xlink:href="#DejaVuSans-101"/>
      <use x="105.607422" xlink:href="#DejaVuSans-114"/>
      <use x="144.970703" xlink:href="#DejaVuSans-109"/>
      <use x="242.382812" xlink:href="#DejaVuSans-105"/>
      <use x="270.166016" xlink:href="#DejaVuSans-110"/>
      <use x="333.544922" xlink:href="#DejaVuSans-97"/>
      <use x="394.824219" xlink:href="#DejaVuSans-108"/>
     </g>
    </g>
   </g>
   <g id="text_7">
    <g id="patch_8">
     <path clip-path="url(#p7274a11a07)" d="M 150.077079 151.33117 
L 155.10941 150.852979 
Q 157.498648 150.625945 157.271614 148.236707 
L 156.539192 140.528928 
Q 156.312158 138.13969 153.922921 138.366725 
L 148.89059 138.844915 
Q 146.501352 139.071949 146.728386 141.461187 
L 147.460808 149.168966 
Q 147.687842 151.558204 150.077079 151.33117 
z
" style="fill:#ffffff;stroke:#ffffff;stroke-linejoin:miter;"/>
    </g>
    <g clip-path="url(#p7274a11a07)">
     <!-- E -->
     <g transform="translate(149.692658 147.285643)rotate(-5.428156)scale(0.08 -0.08)">
      <defs>
       <path d="M 9.8125 72.90625 
L 55.90625 72.90625 
L 55.90625 64.59375 
L 19.671875 64.59375 
L 19.671875 43.015625 
L 54.390625 43.015625 
L 54.390625 34.71875 
L 19.671875 34.71875 
L 19.671875 8.296875 
L 56.78125 8.296875 
L 56.78125 0 
L 9.8125 0 
z
" id="DejaVuSans-69"/>
      </defs>
      <use xlink:href="#DejaVuSans-69"/>
     </g>
    </g>
   </g>
   <g id="text_8">
    <g id="patch_9">
     <path clip-path="url(#p7274a11a07)" d="M 173.365114 142.321447 
L 173.365114 147.376447 
Q 173.365114 149.776447 175.765114 149.776447 
L 183.507614 149.776447 
Q 185.907614 149.776447 185.907614 147.376447 
L 185.907614 142.321447 
Q 185.907614 139.921447 183.507614 139.921447 
L 175.765114 139.921447 
Q 173.365114 139.921447 173.365114 142.321447 
z
" style="fill:#ffffff;stroke:#ffffff;stroke-linejoin:miter;"/>
    </g>
    <g clip-path="url(#p7274a11a07)">
     <!-- E -->
     <g transform="translate(177.428864 142.321447)rotate(-270)scale(0.08 -0.08)">
      <use xlink:href="#DejaVuSans-69"/>
     </g>
    </g>
   </g>
   <g id="text_9">
    <g id="patch_10">
     <path clip-path="url(#p7274a11a07)" d="M 203.898883 150.827852 
L 209.460082 151.356297 
Q 211.849319 151.583331 212.076353 149.194094 
L 212.808775 141.486314 
Q 213.035809 139.097077 210.646572 138.870043 
L 205.085373 138.341597 
Q 202.696135 138.114563 202.469101 140.5038 
L 201.73668 148.21158 
Q 201.509646 150.600817 203.898883 150.827852 
z
" style="fill:#ffffff;stroke:#ffffff;stroke-linejoin:miter;"/>
    </g>
    <g clip-path="url(#p7274a11a07)">
     <!-- C -->
     <g transform="translate(204.283304 146.782325)rotate(-354.571844)scale(0.08 -0.08)">
      <defs>
       <path d="M 64.40625 67.28125 
L 64.40625 56.890625 
Q 59.421875 61.53125 53.78125 63.8125 
Q 48.140625 66.109375 41.796875 66.109375 
Q 29.296875 66.109375 22.65625 58.46875 
Q 16.015625 50.828125 16.015625 36.375 
Q 16.015625 21.96875 22.65625 14.328125 
Q 29.296875 6.6875 41.796875 6.6875 
Q 48.140625 6.6875 53.78125 8.984375 
Q 59.421875 11.28125 64.40625 15.921875 
L 64.40625 5.609375 
Q 59.234375 2.09375 53.4375 0.328125 
Q 47.65625 -1.421875 41.21875 -1.421875 
Q 24.65625 -1.421875 15.125 8.703125 
Q 5.609375 18.84375 5.609375 36.375 
Q 5.609375 53.953125 15.125 64.078125 
Q 24.65625 74.21875 41.21875 74.21875 
Q 47.75 74.21875 53.53125 72.484375 
Q 59.328125 70.75 64.40625 67.28125 
z
" id="DejaVuSans-67"/>
      </defs>
      <use xlink:href="#DejaVuSans-67"/>
     </g>
    </g>
   </g>
   <g id="text_10">
    <g id="patch_11">
     <path clip-path="url(#p7274a11a07)" d="M 283.910568 133.197414 
L 283.910568 167.004914 
Q 283.910568 169.404914 286.310568 169.404914 
L 294.053068 169.404914 
Q 296.453068 169.404914 296.453068 167.004914 
L 296.453068 133.197414 
Q 296.453068 130.797414 294.053068 130.797414 
L 286.310568 130.797414 
Q 283.910568 130.797414 283.910568 133.197414 
z
" style="fill:#ffffff;stroke:#ffffff;stroke-linejoin:miter;"/>
    </g>
    <g clip-path="url(#p7274a11a07)">
     <!-- Terminal -->
     <g transform="translate(287.974318 133.197414)rotate(-270)scale(0.08 -0.08)">
      <use xlink:href="#DejaVuSans-84"/>
      <use x="44.083984" xlink:href="#DejaVuSans-101"/>
      <use x="105.607422" xlink:href="#DejaVuSans-114"/>
      <use x="144.970703" xlink:href="#DejaVuSans-109"/>
      <use x="242.382812" xlink:href="#DejaVuSans-105"/>
      <use x="270.166016" xlink:href="#DejaVuSans-110"/>
      <use x="333.544922" xlink:href="#DejaVuSans-97"/>
      <use x="394.824219" xlink:href="#DejaVuSans-108"/>
     </g>
    </g>
   </g>
   <g id="text_11">
    <g id="patch_12">
     <path clip-path="url(#p7274a11a07)" d="M 7.546932 19.267257 
L 7.546932 24.091007 
Q 7.546932 26.491007 9.946932 26.491007 
L 17.689432 26.491007 
Q 20.089432 26.491007 20.089432 24.091007 
L 20.089432 19.267257 
Q 20.089432 16.867257 17.689432 16.867257 
L 9.946932 16.867257 
Q 7.546932 16.867257 7.546932 19.267257 
z
" style="fill:#ffffff;stroke:#ffffff;stroke-linejoin:miter;"/>
    </g>
    <g clip-path="url(#p7274a11a07)">
     <!-- P -->
     <g transform="translate(11.610682 19.267257)rotate(-270)scale(0.08 -0.08)">
      <use xlink:href="#DejaVuSans-80"/>
     </g>
    </g>
   </g>
   <g id="text_12">
    <g id="patch_13">
     <path clip-path="url(#p7274a11a07)" d="M 118.092386 133.197414 
L 118.092386 167.004914 
Q 118.092386 169.404914 120.492386 169.404914 
L 128.234886 169.404914 
Q 130.634886 169.404914 130.634886 167.004914 
L 130.634886 133.197414 
Q 130.634886 130.797414 128.234886 130.797414 
L 120.492386 130.797414 
Q 118.092386 130.797414 118.092386 133.197414 
z
" style="fill:#ffffff;stroke:#ffffff;stroke-linejoin:miter;"/>
    </g>
    <g clip-path="url(#p7274a11a07)">
     <!-- Terminal -->
     <g transform="translate(122.156136 133.197414)rotate(-270)scale(0.08 -0.08)">
      <use xlink:href="#DejaVuSans-84"/>
      <use x="44.083984" xlink:href="#DejaVuSans-101"/>
      <use x="105.607422" xlink:href="#DejaVuSans-114"/>
      <use x="144.970703" xlink:href="#DejaVuSans-109"/>
      <use x="242.382812" xlink:href="#DejaVuSans-105"/>
      <use x="270.166016" xlink:href="#DejaVuSans-110"/>
      <use x="333.544922" xlink:href="#DejaVuSans-97"/>
      <use x="394.824219" xlink:href="#DejaVuSans-108"/>
     </g>
    </g>
   </g>
   <g id="text_13">
    <g id="patch_14">
     <path clip-path="url(#p7274a11a07)" d="M 173.365114 133.197414 
L 173.365114 167.004914 
Q 173.365114 169.404914 175.765114 169.404914 
L 183.507614 169.404914 
Q 185.907614 169.404914 185.907614 167.004914 
L 185.907614 133.197414 
Q 185.907614 130.797414 183.507614 130.797414 
L 175.765114 130.797414 
Q 173.365114 130.797414 173.365114 133.197414 
z
" style="fill:#ffffff;stroke:#ffffff;stroke-linejoin:miter;"/>
    </g>
    <g clip-path="url(#p7274a11a07)">
     <!-- Terminal -->
     <g transform="translate(177.428864 133.197414)rotate(-270)scale(0.08 -0.08)">
      <use xlink:href="#DejaVuSans-84"/>
      <use x="44.083984" xlink:href="#DejaVuSans-101"/>
      <use x="105.607422" xlink:href="#DejaVuSans-114"/>
      <use x="144.970703" xlink:href="#DejaVuSans-109"/>
      <use x="242.382812" xlink:href="#DejaVuSans-105"/>
      <use x="270.166016" xlink:href="#DejaVuSans-110"/>
      <use x="333.544922" xlink:href="#DejaVuSans-97"/>
      <use x="394.824219" xlink:href="#DejaVuSans-108"/>
     </g>
    </g>
   </g>
   <g id="text_14">
    <g id="patch_15">
     <path clip-path="url(#p7274a11a07)" d="M 228.637841 133.197414 
L 228.637841 167.004914 
Q 228.637841 169.404914 231.037841 169.404914 
L 238.780341 169.404914 
Q 241.180341 169.404914 241.180341 167.004914 
L 241.180341 133.197414 
Q 241.180341 130.797414 238.780341 130.797414 
L 231.037841 130.797414 
Q 228.637841 130.797414 228.637841 133.197414 
z
" style="fill:#ffffff;stroke:#ffffff;stroke-linejoin:miter;"/>
    </g>
    <g clip-path="url(#p7274a11a07)">
     <!-- Terminal -->
     <g transform="translate(232.701591 133.197414)rotate(-270)scale(0.08 -0.08)">
      <use xlink:href="#DejaVuSans-84"/>
      <use x="44.083984" xlink:href="#DejaVuSans-101"/>
      <use x="105.607422" xlink:href="#DejaVuSans-114"/>
      <use x="144.970703" xlink:href="#DejaVuSans-109"/>
      <use x="242.382812" xlink:href="#DejaVuSans-105"/>
      <use x="270.166016" xlink:href="#DejaVuSans-110"/>
      <use x="333.544922" xlink:href="#DejaVuSans-97"/>
      <use x="394.824219" xlink:href="#DejaVuSans-108"/>
     </g>
    </g>
   </g>
   <g id="text_15">
    <g id="patch_16">
     <path clip-path="url(#p7274a11a07)" d="M 7.546932 28.414483 
L 7.546932 33.238233 
Q 7.546932 35.638233 9.946932 35.638233 
L 17.689432 35.638233 
Q 20.089432 35.638233 20.089432 33.238233 
L 20.089432 28.414483 
Q 20.089432 26.014483 17.689432 26.014483 
L 9.946932 26.014483 
Q 7.546932 26.014483 7.546932 28.414483 
z
" style="fill:#ffffff;stroke:#ffffff;stroke-linejoin:miter;"/>
    </g>
    <g clip-path="url(#p7274a11a07)">
     <!-- P -->
     <g transform="translate(11.610682 28.414483)rotate(-270)scale(0.08 -0.08)">
      <use xlink:href="#DejaVuSans-80"/>
     </g>
    </g>
   </g>
   <g id="text_16">
    <g id="patch_17">
     <path clip-path="url(#p7274a11a07)" d="M 7.546932 37.194016 
L 7.546932 42.017766 
Q 7.546932 44.417766 9.946932 44.417766 
L 17.689432 44.417766 
Q 20.089432 44.417766 20.089432 42.017766 
L 20.089432 37.194016 
Q 20.089432 34.794016 17.689432 34.794016 
L 9.946932 34.794016 
Q 7.546932 34.794016 7.546932 37.194016 
z
" style="fill:#ffffff;stroke:#ffffff;stroke-linejoin:miter;"/>
    </g>
    <g clip-path="url(#p7274a11a07)">
     <!-- P -->
     <g transform="translate(11.610682 37.194016)rotate(-270)scale(0.08 -0.08)">
      <use xlink:href="#DejaVuSans-80"/>
     </g>
    </g>
   </g>
   <g id="text_17">
    <g id="patch_18">
     <path clip-path="url(#p7274a11a07)" d="M 7.546932 45.627051 
L 7.546932 50.450801 
Q 7.546932 52.850801 9.946932 52.850801 
L 17.689432 52.850801 
Q 20.089432 52.850801 20.089432 50.450801 
L 20.089432 45.627051 
Q 20.089432 43.227051 17.689432 43.227051 
L 9.946932 43.227051 
Q 7.546932 43.227051 7.546932 45.627051 
z
" style="fill:#ffffff;stroke:#ffffff;stroke-linejoin:miter;"/>
    </g>
    <g clip-path="url(#p7274a11a07)">
     <!-- P -->
     <g transform="translate(11.610682 45.627051)rotate(-270)scale(0.08 -0.08)">
      <use xlink:href="#DejaVuSans-80"/>
     </g>
    </g>
   </g>
   <g id="text_18">
    <g id="patch_19">
     <path clip-path="url(#p7274a11a07)" d="M 7.546932 53.733669 
L 7.546932 58.557419 
Q 7.546932 60.957419 9.946932 60.957419 
L 17.689432 60.957419 
Q 20.089432 60.957419 20.089432 58.557419 
L 20.089432 53.733669 
Q 20.089432 51.333669 17.689432 51.333669 
L 9.946932 51.333669 
Q 7.546932 51.333669 7.546932 53.733669 
z
" style="fill:#ffffff;stroke:#ffffff;stroke-linejoin:miter;"/>
    </g>
    <g clip-path="url(#p7274a11a07)">
     <!-- P -->
     <g transform="translate(11.610682 53.733669)rotate(-270)scale(0.08 -0.08)">
      <use xlink:href="#DejaVuSans-80"/>
     </g>
    </g>
   </g>
   <g id="text_19">
    <g id="patch_20">
     <path clip-path="url(#p7274a11a07)" d="M 7.546932 61.532929 
L 7.546932 66.356679 
Q 7.546932 68.756679 9.946932 68.756679 
L 17.689432 68.756679 
Q 20.089432 68.756679 20.089432 66.356679 
L 20.089432 61.532929 
Q 20.089432 59.132929 17.689432 59.132929 
L 9.946932 59.132929 
Q 7.546932 59.132929 7.546932 61.532929 
z
" style="fill:#ffffff;stroke:#ffffff;stroke-linejoin:miter;"/>
    </g>
    <g clip-path="url(#p7274a11a07)">
     <!-- P -->
     <g transform="translate(11.610682 61.532929)rotate(-270)scale(0.08 -0.08)">
      <use xlink:href="#DejaVuSans-80"/>
     </g>
    </g>
   </g>
   <g id="text_20">
    <g id="patch_21">
     <path clip-path="url(#p7274a11a07)" d="M 7.546932 69.042962 
L 7.546932 73.866712 
Q 7.546932 76.266712 9.946932 76.266712 
L 17.689432 76.266712 
Q 20.089432 76.266712 20.089432 73.866712 
L 20.089432 69.042962 
Q 20.089432 66.642962 17.689432 66.642962 
L 9.946932 66.642962 
Q 7.546932 66.642962 7.546932 69.042962 
z
" style="fill:#ffffff;stroke:#ffffff;stroke-linejoin:miter;"/>
    </g>
    <g clip-path="url(#p7274a11a07)">
     <!-- P -->
     <g transform="translate(11.610682 69.042962)rotate(-270)scale(0.08 -0.08)">
      <use xlink:href="#DejaVuSans-80"/>
     </g>
    </g>
   </g>
   <g id="text_21">
    <g id="patch_22">
     <path clip-path="url(#p7274a11a07)" d="M 7.546932 76.281067 
L 7.546932 81.104817 
Q 7.546932 83.504817 9.946932 83.504817 
L 17.689432 83.504817 
Q 20.089432 83.504817 20.089432 81.104817 
L 20.089432 76.281067 
Q 20.089432 73.881067 17.689432 73.881067 
L 9.946932 73.881067 
Q 7.546932 73.881067 7.546932 76.281067 
z
" style="fill:#ffffff;stroke:#ffffff;stroke-linejoin:miter;"/>
    </g>
    <g clip-path="url(#p7274a11a07)">
     <!-- P -->
     <g transform="translate(11.610682 76.281067)rotate(-270)scale(0.08 -0.08)">
      <use xlink:href="#DejaVuSans-80"/>
     </g>
    </g>
   </g>
   <g id="text_22">
    <g id="patch_23">
     <path clip-path="url(#p7274a11a07)" d="M 7.546932 83.263803 
L 7.546932 88.087553 
Q 7.546932 90.487553 9.946932 90.487553 
L 17.689432 90.487553 
Q 20.089432 90.487553 20.089432 88.087553 
L 20.089432 83.263803 
Q 20.089432 80.863803 17.689432 80.863803 
L 9.946932 80.863803 
Q 7.546932 80.863803 7.546932 83.263803 
z
" style="fill:#ffffff;stroke:#ffffff;stroke-linejoin:miter;"/>
    </g>
    <g clip-path="url(#p7274a11a07)">
     <!-- P -->
     <g transform="translate(11.610682 83.263803)rotate(-270)scale(0.08 -0.08)">
      <use xlink:href="#DejaVuSans-80"/>
     </g>
    </g>
   </g>
   <g id="text_23">
    <g id="patch_24">
     <path clip-path="url(#p7274a11a07)" d="M 7.546932 90.007091 
L 7.546932 94.830841 
Q 7.546932 97.230841 9.946932 97.230841 
L 17.689432 97.230841 
Q 20.089432 97.230841 20.089432 94.830841 
L 20.089432 90.007091 
Q 20.089432 87.607091 17.689432 87.607091 
L 9.946932 87.607091 
Q 7.546932 87.607091 7.546932 90.007091 
z
" style="fill:#ffffff;stroke:#ffffff;stroke-linejoin:miter;"/>
    </g>
    <g clip-path="url(#p7274a11a07)">
     <!-- P -->
     <g transform="translate(11.610682 90.007091)rotate(-270)scale(0.08 -0.08)">
      <use xlink:href="#DejaVuSans-80"/>
     </g>
    </g>
   </g>
   <g id="text_24">
    <g id="patch_25">
     <path clip-path="url(#p7274a11a07)" d="M 7.546932 96.526326 
L 7.546932 101.350076 
Q 7.546932 103.750076 9.946932 103.750076 
L 17.689432 103.750076 
Q 20.089432 103.750076 20.089432 101.350076 
L 20.089432 96.526326 
Q 20.089432 94.126326 17.689432 94.126326 
L 9.946932 94.126326 
Q 7.546932 94.126326 7.546932 96.526326 
z
" style="fill:#ffffff;stroke:#ffffff;stroke-linejoin:miter;"/>
    </g>
    <g clip-path="url(#p7274a11a07)">
     <!-- P -->
     <g transform="translate(11.610682 96.526326)rotate(-270)scale(0.08 -0.08)">
      <use xlink:href="#DejaVuSans-80"/>
     </g>
    </g>
   </g>
   <g id="text_25">
    <g id="patch_26">
     <path clip-path="url(#p7274a11a07)" d="M 7.546932 102.836496 
L 7.546932 107.660246 
Q 7.546932 110.060246 9.946932 110.060246 
L 17.689432 110.060246 
Q 20.089432 110.060246 20.089432 107.660246 
L 20.089432 102.836496 
Q 20.089432 100.436496 17.689432 100.436496 
L 9.946932 100.436496 
Q 7.546932 100.436496 7.546932 102.836496 
z
" style="fill:#ffffff;stroke:#ffffff;stroke-linejoin:miter;"/>
    </g>
    <g clip-path="url(#p7274a11a07)">
     <!-- P -->
     <g transform="translate(11.610682 102.836496)rotate(-270)scale(0.08 -0.08)">
      <use xlink:href="#DejaVuSans-80"/>
     </g>
    </g>
   </g>
   <g id="text_26">
    <g id="patch_27">
     <path clip-path="url(#p7274a11a07)" d="M 7.546932 108.952338 
L 7.546932 113.776088 
Q 7.546932 116.176088 9.946932 116.176088 
L 17.689432 116.176088 
Q 20.089432 116.176088 20.089432 113.776088 
L 20.089432 108.952338 
Q 20.089432 106.552338 17.689432 106.552338 
L 9.946932 106.552338 
Q 7.546932 106.552338 7.546932 108.952338 
z
" style="fill:#ffffff;stroke:#ffffff;stroke-linejoin:miter;"/>
    </g>
    <g clip-path="url(#p7274a11a07)">
     <!-- P -->
     <g transform="translate(11.610682 108.952338)rotate(-270)scale(0.08 -0.08)">
      <use xlink:href="#DejaVuSans-80"/>
     </g>
    </g>
   </g>
   <g id="text_27">
    <g id="patch_28">
     <path clip-path="url(#p7274a11a07)" d="M 7.546932 114.88853 
L 7.546932 119.71228 
Q 7.546932 122.11228 9.946932 122.11228 
L 17.689432 122.11228 
Q 20.089432 122.11228 20.089432 119.71228 
L 20.089432 114.88853 
Q 20.089432 112.48853 17.689432 112.48853 
L 9.946932 112.48853 
Q 7.546932 112.48853 7.546932 114.88853 
z
" style="fill:#ffffff;stroke:#ffffff;stroke-linejoin:miter;"/>
    </g>
    <g clip-path="url(#p7274a11a07)">
     <!-- P -->
     <g transform="translate(11.610682 114.88853)rotate(-270)scale(0.08 -0.08)">
      <use xlink:href="#DejaVuSans-80"/>
     </g>
    </g>
   </g>
   <g id="text_28">
    <g id="patch_29">
     <path clip-path="url(#p7274a11a07)" d="M 7.546932 120.659956 
L 7.546932 125.483706 
Q 7.546932 127.883706 9.946932 127.883706 
L 17.689432 127.883706 
Q 20.089432 127.883706 20.089432 125.483706 
L 20.089432 120.659956 
Q 20.089432 118.259956 17.689432 118.259956 
L 9.946932 118.259956 
Q 7.546932 118.259956 7.546932 120.659956 
z
" style="fill:#ffffff;stroke:#ffffff;stroke-linejoin:miter;"/>
    </g>
    <g clip-path="url(#p7274a11a07)">
     <!-- P -->
     <g transform="translate(11.610682 120.659956)rotate(-270)scale(0.08 -0.08)">
      <use xlink:href="#DejaVuSans-80"/>
     </g>
    </g>
   </g>
   <g id="text_29">
    <g id="patch_30">
     <path clip-path="url(#p7274a11a07)" d="M 7.546932 126.28211 
L 7.546932 131.10586 
Q 7.546932 133.50586 9.946932 133.50586 
L 17.689432 133.50586 
Q 20.089432 133.50586 20.089432 131.10586 
L 20.089432 126.28211 
Q 20.089432 123.88211 17.689432 123.88211 
L 9.946932 123.88211 
Q 7.546932 123.88211 7.546932 126.28211 
z
" style="fill:#ffffff;stroke:#ffffff;stroke-linejoin:miter;"/>
    </g>
    <g clip-path="url(#p7274a11a07)">
     <!-- P -->
     <g transform="translate(11.610682 126.28211)rotate(-270)scale(0.08 -0.08)">
      <use xlink:href="#DejaVuSans-80"/>
     </g>
    </g>
   </g>
   <g id="text_30">
    <g id="patch_31">
     <path clip-path="url(#p7274a11a07)" d="M 7.546932 131.771771 
L 7.546932 136.595521 
Q 7.546932 138.995521 9.946932 138.995521 
L 17.689432 138.995521 
Q 20.089432 138.995521 20.089432 136.595521 
L 20.089432 131.771771 
Q 20.089432 129.371771 17.689432 129.371771 
L 9.946932 129.371771 
Q 7.546932 129.371771 7.546932 131.771771 
z
" style="fill:#ffffff;stroke:#ffffff;stroke-linejoin:miter;"/>
    </g>
    <g clip-path="url(#p7274a11a07)">
     <!-- P -->
     <g transform="translate(11.610682 131.771771)rotate(-270)scale(0.08 -0.08)">
      <use xlink:href="#DejaVuSans-80"/>
     </g>
    </g>
   </g>
   <g id="text_31">
    <g id="patch_32">
     <path clip-path="url(#p7274a11a07)" d="M 7.546932 137.148323 
L 7.546932 141.972073 
Q 7.546932 144.372073 9.946932 144.372073 
L 17.689432 144.372073 
Q 20.089432 144.372073 20.089432 141.972073 
L 20.089432 137.148323 
Q 20.089432 134.748323 17.689432 134.748323 
L 9.946932 134.748323 
Q 7.546932 134.748323 7.546932 137.148323 
z
" style="fill:#ffffff;stroke:#ffffff;stroke-linejoin:miter;"/>
    </g>
    <g clip-path="url(#p7274a11a07)">
     <!-- P -->
     <g transform="translate(11.610682 137.148323)rotate(-270)scale(0.08 -0.08)">
      <use xlink:href="#DejaVuSans-80"/>
     </g>
    </g>
   </g>
   <g id="text_32">
    <g id="patch_33">
     <path clip-path="url(#p7274a11a07)" d="M 7.546932 142.437072 
L 7.546932 147.260822 
Q 7.546932 149.660822 9.946932 149.660822 
L 17.689432 149.660822 
Q 20.089432 149.660822 20.089432 147.260822 
L 20.089432 142.437072 
Q 20.089432 140.037072 17.689432 140.037072 
L 9.946932 140.037072 
Q 7.546932 140.037072 7.546932 142.437072 
z
" style="fill:#ffffff;stroke:#ffffff;stroke-linejoin:miter;"/>
    </g>
    <g clip-path="url(#p7274a11a07)">
     <!-- P -->
     <g transform="translate(11.610682 142.437072)rotate(-270)scale(0.08 -0.08)">
      <use xlink:href="#DejaVuSans-80"/>
     </g>
    </g>
   </g>
   <g id="text_33">
    <g id="patch_34">
     <path clip-path="url(#p7274a11a07)" d="M 7.546932 133.197414 
L 7.546932 167.004914 
Q 7.546932 169.404914 9.946932 169.404914 
L 17.689432 169.404914 
Q 20.089432 169.404914 20.089432 167.004914 
L 20.089432 133.197414 
Q 20.089432 130.797414 17.689432 130.797414 
L 9.946932 130.797414 
Q 7.546932 130.797414 7.546932 133.197414 
z
" style="fill:#ffffff;stroke:#ffffff;stroke-linejoin:miter;"/>
    </g>
    <g clip-path="url(#p7274a11a07)">
     <!-- Terminal -->
     <g transform="translate(11.610682 133.197414)rotate(-270)scale(0.08 -0.08)">
      <use xlink:href="#DejaVuSans-84"/>
      <use x="44.083984" xlink:href="#DejaVuSans-101"/>
      <use x="105.607422" xlink:href="#DejaVuSans-114"/>
      <use x="144.970703" xlink:href="#DejaVuSans-109"/>
      <use x="242.382812" xlink:href="#DejaVuSans-105"/>
      <use x="270.166016" xlink:href="#DejaVuSans-110"/>
      <use x="333.544922" xlink:href="#DejaVuSans-97"/>
      <use x="394.824219" xlink:href="#DejaVuSans-108"/>
     </g>
    </g>
   </g>
   <g id="PathCollection_1">
    <defs>
     <path d="M 0 8.660254 
C 2.296726 8.660254 4.499694 7.747755 6.123724 6.123724 
C 7.747755 4.499694 8.660254 2.296726 8.660254 -0 
C 8.660254 -2.296726 7.747755 -4.499694 6.123724 -6.123724 
C 4.499694 -7.747755 2.296726 -8.660254 0 -8.660254 
C -2.296726 -8.660254 -4.499694 -7.747755 -6.123724 -6.123724 
C -7.747755 -4.499694 -8.660254 -2.296726 -8.660254 0 
C -8.660254 2.296726 -7.747755 4.499694 -6.123724 6.123724 
C -4.499694 7.747755 -2.296726 8.660254 0 8.660254 
z
" id="C0_0_429834294b"/>
    </defs>
    <g clip-path="url(#p7274a11a07)">
     <use style="fill:#ffffff;stroke:#ffffff;" x="13.818182" xlink:href="#C0_0_429834294b" y="152.727273"/>
    </g>
    <g clip-path="url(#p7274a11a07)">
     <use style="fill:#ffffff;stroke:#ffffff;" x="69.090909" xlink:href="#C0_0_429834294b" y="152.727273"/>
    </g>
    <g clip-path="url(#p7274a11a07)">
     <use style="fill:#ffffff;stroke:#ffffff;" x="124.363636" xlink:href="#C0_0_429834294b" y="152.727273"/>
    </g>
    <g clip-path="url(#p7274a11a07)">
     <use style="fill:#ffffff;stroke:#ffffff;" x="179.636364" xlink:href="#C0_0_429834294b" y="152.727273"/>
    </g>
    <g clip-path="url(#p7274a11a07)">
     <use style="fill:#ffffff;stroke:#ffffff;" x="234.909091" xlink:href="#C0_0_429834294b" y="152.727273"/>
    </g>
    <g clip-path="url(#p7274a11a07)">
     <use style="fill:#ffffff;stroke:#ffffff;" x="290.181818" xlink:href="#C0_0_429834294b" y="152.727273"/>
    </g>
    <g clip-path="url(#p7274a11a07)">
     <use style="stroke:#000000;" x="113.309091" xlink:href="#C0_0_429834294b" y="7.272727"/>
    </g>
    <g clip-path="url(#p7274a11a07)">
     <use style="stroke:#000000;" x="69.090909" xlink:href="#C0_0_429834294b" y="147.475056"/>
    </g>
    <g clip-path="url(#p7274a11a07)">
     <use style="stroke:#000000;" x="179.636364" xlink:href="#C0_0_429834294b" y="142.222839"/>
    </g>
    <g clip-path="url(#p7274a11a07)">
     <use style="stroke:#000000;" x="290.181818" xlink:href="#C0_0_429834294b" y="147.475056"/>
    </g>
    <g clip-path="url(#p7274a11a07)">
     <use style="stroke:#000000;" x="13.818182" xlink:href="#C0_0_429834294b" y="17.010873"/>
    </g>
    <g clip-path="url(#p7274a11a07)">
     <use style="stroke:#000000;" x="124.363636" xlink:href="#C0_0_429834294b" y="147.475056"/>
    </g>
    <g clip-path="url(#p7274a11a07)">
     <use style="stroke:#000000;" x="179.636364" xlink:href="#C0_0_429834294b" y="147.475056"/>
    </g>
    <g clip-path="url(#p7274a11a07)">
     <use style="stroke:#000000;" x="234.909091" xlink:href="#C0_0_429834294b" y="147.475056"/>
    </g>
    <g clip-path="url(#p7274a11a07)">
     <use style="stroke:#000000;" x="13.818182" xlink:href="#C0_0_429834294b" y="26.347391"/>
    </g>
    <g clip-path="url(#p7274a11a07)">
     <use style="stroke:#000000;" x="13.818182" xlink:href="#C0_0_429834294b" y="35.305326"/>
    </g>
    <g clip-path="url(#p7274a11a07)">
     <use style="stroke:#000000;" x="13.818182" xlink:href="#C0_0_429834294b" y="43.906456"/>
    </g>
    <g clip-path="url(#p7274a11a07)">
     <use style="stroke:#000000;" x="13.818182" xlink:href="#C0_0_429834294b" y="52.171396"/>
    </g>
    <g clip-path="url(#p7274a11a07)">
     <use style="stroke:#000000;" x="13.818182" xlink:href="#C0_0_429834294b" y="60.119692"/>
    </g>
    <g clip-path="url(#p7274a11a07)">
     <use style="stroke:#000000;" x="13.818182" xlink:href="#C0_0_429834294b" y="67.769916"/>
    </g>
    <g clip-path="url(#p7274a11a07)">
     <use style="stroke:#000000;" x="13.818182" xlink:href="#C0_0_429834294b" y="75.139759"/>
    </g>
    <g clip-path="url(#p7274a11a07)">
     <use style="stroke:#000000;" x="13.818182" xlink:href="#C0_0_429834294b" y="82.246126"/>
    </g>
    <g clip-path="url(#p7274a11a07)">
     <use style="stroke:#000000;" x="13.818182" xlink:href="#C0_0_429834294b" y="89.10523"/>
    </g>
    <g clip-path="url(#p7274a11a07)">
     <use style="stroke:#000000;" x="13.818182" xlink:href="#C0_0_429834294b" y="95.732702"/>
    </g>
    <g clip-path="url(#p7274a11a07)">
     <use style="stroke:#000000;" x="13.818182" xlink:href="#C0_0_429834294b" y="102.143699"/>
    </g>
    <g clip-path="url(#p7274a11a07)">
     <use style="stroke:#000000;" x="13.818182" xlink:href="#C0_0_429834294b" y="108.353042"/>
    </g>
    <g clip-path="url(#p7274a11a07)">
     <use style="stroke:#000000;" x="13.818182" xlink:href="#C0_0_429834294b" y="114.375384"/>
    </g>
    <g clip-path="url(#p7274a11a07)">
     <use style="stroke:#000000;" x="13.818182" xlink:href="#C0_0_429834294b" y="120.225427"/>
    </g>
    <g clip-path="url(#p7274a11a07)">
     <use style="stroke:#000000;" x="13.818182" xlink:href="#C0_0_429834294b" y="125.918236"/>
    </g>
    <g clip-path="url(#p7274a11a07)">
     <use style="stroke:#000000;" x="13.818182" xlink:href="#C0_0_429834294b" y="131.469734"/>
    </g>
    <g clip-path="url(#p7274a11a07)">
     <use style="stroke:#000000;" x="13.818182" xlink:href="#C0_0_429834294b" y="136.897557"/>
    </g>
    <g clip-path="url(#p7274a11a07)">
     <use style="stroke:#000000;" x="13.818182" xlink:href="#C0_0_429834294b" y="142.222839"/>
    </g>
    <g clip-path="url(#p7274a11a07)">
     <use style="stroke:#000000;" x="13.818182" xlink:href="#C0_0_429834294b" y="147.475056"/>
    </g>
   </g>
   <g id="text_34">
    <g clip-path="url(#p7274a11a07)">
     <!-- Glass -->
     <g transform="translate(0.281463 155.486648)scale(0.1 -0.1)">
      <defs>
       <path d="M 59.515625 10.40625 
L 59.515625 29.984375 
L 43.40625 29.984375 
L 43.40625 38.09375 
L 69.28125 38.09375 
L 69.28125 6.78125 
Q 63.578125 2.734375 56.6875 0.65625 
Q 49.8125 -1.421875 42 -1.421875 
Q 24.90625 -1.421875 15.25 8.5625 
Q 5.609375 18.5625 5.609375 36.375 
Q 5.609375 54.25 15.25 64.234375 
Q 24.90625 74.21875 42 74.21875 
Q 49.125 74.21875 55.546875 72.453125 
Q 61.96875 70.703125 67.390625 67.28125 
L 67.390625 56.78125 
Q 61.921875 61.421875 55.765625 63.765625 
Q 49.609375 66.109375 42.828125 66.109375 
Q 29.4375 66.109375 22.71875 58.640625 
Q 16.015625 51.171875 16.015625 36.375 
Q 16.015625 21.625 22.71875 14.15625 
Q 29.4375 6.6875 42.828125 6.6875 
Q 48.046875 6.6875 52.140625 7.59375 
Q 56.25 8.5 59.515625 10.40625 
z
" id="DejaVuSans-71"/>
       <path d="M 44.28125 53.078125 
L 44.28125 44.578125 
Q 40.484375 46.53125 36.375 47.5 
Q 32.28125 48.484375 27.875 48.484375 
Q 21.1875 48.484375 17.84375 46.4375 
Q 14.5 44.390625 14.5 40.28125 
Q 14.5 37.15625 16.890625 35.375 
Q 19.28125 33.59375 26.515625 31.984375 
L 29.59375 31.296875 
Q 39.15625 29.25 43.1875 25.515625 
Q 47.21875 21.78125 47.21875 15.09375 
Q 47.21875 7.46875 41.1875 3.015625 
Q 35.15625 -1.421875 24.609375 -1.421875 
Q 20.21875 -1.421875 15.453125 -0.5625 
Q 10.6875 0.296875 5.421875 2 
L 5.421875 11.28125 
Q 10.40625 8.6875 15.234375 7.390625 
Q 20.0625 6.109375 24.8125 6.109375 
Q 31.15625 6.109375 34.5625 8.28125 
Q 37.984375 10.453125 37.984375 14.40625 
Q 37.984375 18.0625 35.515625 20.015625 
Q 33.0625 21.96875 24.703125 23.78125 
L 21.578125 24.515625 
Q 13.234375 26.265625 9.515625 29.90625 
Q 5.8125 33.546875 5.8125 39.890625 
Q 5.8125 47.609375 11.28125 51.796875 
Q 16.75 56 26.8125 56 
Q 31.78125 56 36.171875 55.265625 
Q 40.578125 54.546875 44.28125 53.078125 
z
" id="DejaVuSans-115"/>
      </defs>
      <use xlink:href="#DejaVuSans-71"/>
      <use x="77.490234" xlink:href="#DejaVuSans-108"/>
      <use x="105.273438" xlink:href="#DejaVuSans-97"/>
      <use x="166.552734" xlink:href="#DejaVuSans-115"/>
      <use x="218.652344" xlink:href="#DejaVuSans-115"/>
     </g>
    </g>
   </g>
   <g id="text_35">
    <g clip-path="url(#p7274a11a07)">
     <!-- does -->
     <g transform="translate(57.176065 155.486648)scale(0.1 -0.1)">
      <defs>
       <path d="M 45.40625 46.390625 
L 45.40625 75.984375 
L 54.390625 75.984375 
L 54.390625 0 
L 45.40625 0 
L 45.40625 8.203125 
Q 42.578125 3.328125 38.25 0.953125 
Q 33.9375 -1.421875 27.875 -1.421875 
Q 17.96875 -1.421875 11.734375 6.484375 
Q 5.515625 14.40625 5.515625 27.296875 
Q 5.515625 40.1875 11.734375 48.09375 
Q 17.96875 56 27.875 56 
Q 33.9375 56 38.25 53.625 
Q 42.578125 51.265625 45.40625 46.390625 
z
M 14.796875 27.296875 
Q 14.796875 17.390625 18.875 11.75 
Q 22.953125 6.109375 30.078125 6.109375 
Q 37.203125 6.109375 41.296875 11.75 
Q 45.40625 17.390625 45.40625 27.296875 
Q 45.40625 37.203125 41.296875 42.84375 
Q 37.203125 48.484375 30.078125 48.484375 
Q 22.953125 48.484375 18.875 42.84375 
Q 14.796875 37.203125 14.796875 27.296875 
z
" id="DejaVuSans-100"/>
       <path d="M 30.609375 48.390625 
Q 23.390625 48.390625 19.1875 42.75 
Q 14.984375 37.109375 14.984375 27.296875 
Q 14.984375 17.484375 19.15625 11.84375 
Q 23.34375 6.203125 30.609375 6.203125 
Q 37.796875 6.203125 41.984375 11.859375 
Q 46.1875 17.53125 46.1875 27.296875 
Q 46.1875 37.015625 41.984375 42.703125 
Q 37.796875 48.390625 30.609375 48.390625 
z
M 30.609375 56 
Q 42.328125 56 49.015625 48.375 
Q 55.71875 40.765625 55.71875 27.296875 
Q 55.71875 13.875 49.015625 6.21875 
Q 42.328125 -1.421875 30.609375 -1.421875 
Q 18.84375 -1.421875 12.171875 6.21875 
Q 5.515625 13.875 5.515625 27.296875 
Q 5.515625 40.765625 12.171875 48.375 
Q 18.84375 56 30.609375 56 
z
" id="DejaVuSans-111"/>
      </defs>
      <use xlink:href="#DejaVuSans-100"/>
      <use x="63.476562" xlink:href="#DejaVuSans-111"/>
      <use x="124.658203" xlink:href="#DejaVuSans-101"/>
      <use x="186.181641" xlink:href="#DejaVuSans-115"/>
     </g>
    </g>
   </g>
   <g id="text_36">
    <g clip-path="url(#p7274a11a07)">
     <!-- not -->
     <g transform="translate(116.175355 155.486648)scale(0.1 -0.1)">
      <defs>
       <path d="M 18.3125 70.21875 
L 18.3125 54.6875 
L 36.8125 54.6875 
L 36.8125 47.703125 
L 18.3125 47.703125 
L 18.3125 18.015625 
Q 18.3125 11.328125 20.140625 9.421875 
Q 21.96875 7.515625 27.59375 7.515625 
L 36.8125 7.515625 
L 36.8125 0 
L 27.59375 0 
Q 17.1875 0 13.234375 3.875 
Q 9.28125 7.765625 9.28125 18.015625 
L 9.28125 47.703125 
L 2.6875 47.703125 
L 2.6875 54.6875 
L 9.28125 54.6875 
L 9.28125 70.21875 
z
" id="DejaVuSans-116"/>
      </defs>
      <use xlink:href="#DejaVuSans-110"/>
      <use x="63.378906" xlink:href="#DejaVuSans-111"/>
      <use x="124.560547" xlink:href="#DejaVuSans-116"/>
     </g>
    </g>
   </g>
   <g id="text_37">
    <g clip-path="url(#p7274a11a07)">
     <!-- conduct -->
     <g transform="translate(159.606676 155.486648)scale(0.1 -0.1)">
      <defs>
       <path d="M 48.78125 52.59375 
L 48.78125 44.1875 
Q 44.96875 46.296875 41.140625 47.34375 
Q 37.3125 48.390625 33.40625 48.390625 
Q 24.65625 48.390625 19.8125 42.84375 
Q 14.984375 37.3125 14.984375 27.296875 
Q 14.984375 17.28125 19.8125 11.734375 
Q 24.65625 6.203125 33.40625 6.203125 
Q 37.3125 6.203125 41.140625 7.25 
Q 44.96875 8.296875 48.78125 10.40625 
L 48.78125 2.09375 
Q 45.015625 0.34375 40.984375 -0.53125 
Q 36.96875 -1.421875 32.421875 -1.421875 
Q 20.0625 -1.421875 12.78125 6.34375 
Q 5.515625 14.109375 5.515625 27.296875 
Q 5.515625 40.671875 12.859375 48.328125 
Q 20.21875 56 33.015625 56 
Q 37.15625 56 41.109375 55.140625 
Q 45.0625 54.296875 48.78125 52.59375 
z
" id="DejaVuSans-99"/>
       <path d="M 8.5 21.578125 
L 8.5 54.6875 
L 17.484375 54.6875 
L 17.484375 21.921875 
Q 17.484375 14.15625 20.5 10.265625 
Q 23.53125 6.390625 29.59375 6.390625 
Q 36.859375 6.390625 41.078125 11.03125 
Q 45.3125 15.671875 45.3125 23.6875 
L 45.3125 54.6875 
L 54.296875 54.6875 
L 54.296875 0 
L 45.3125 0 
L 45.3125 8.40625 
Q 42.046875 3.421875 37.71875 1 
Q 33.40625 -1.421875 27.6875 -1.421875 
Q 18.265625 -1.421875 13.375 4.4375 
Q 8.5 10.296875 8.5 21.578125 
z
M 31.109375 56 
z
" id="DejaVuSans-117"/>
      </defs>
      <use xlink:href="#DejaVuSans-99"/>
      <use x="54.980469" xlink:href="#DejaVuSans-111"/>
      <use x="116.162109" xlink:href="#DejaVuSans-110"/>
      <use x="179.541016" xlink:href="#DejaVuSans-100"/>
      <use x="243.017578" xlink:href="#DejaVuSans-117"/>
      <use x="306.396484" xlink:href="#DejaVuSans-99"/>
      <use x="361.376953" xlink:href="#DejaVuSans-116"/>
     </g>
    </g>
   </g>
   <g id="text_38">
    <g clip-path="url(#p7274a11a07)">
     <!-- electricity -->
     <g transform="translate(210.155185 155.486648)scale(0.1 -0.1)">
      <defs>
       <path d="M 32.171875 -5.078125 
Q 28.375 -14.84375 24.75 -17.8125 
Q 21.140625 -20.796875 15.09375 -20.796875 
L 7.90625 -20.796875 
L 7.90625 -13.28125 
L 13.1875 -13.28125 
Q 16.890625 -13.28125 18.9375 -11.515625 
Q 21 -9.765625 23.484375 -3.21875 
L 25.09375 0.875 
L 2.984375 54.6875 
L 12.5 54.6875 
L 29.59375 11.921875 
L 46.6875 54.6875 
L 56.203125 54.6875 
z
" id="DejaVuSans-121"/>
      </defs>
      <use xlink:href="#DejaVuSans-101"/>
      <use x="61.523438" xlink:href="#DejaVuSans-108"/>
      <use x="89.306641" xlink:href="#DejaVuSans-101"/>
      <use x="150.830078" xlink:href="#DejaVuSans-99"/>
      <use x="205.810547" xlink:href="#DejaVuSans-116"/>
      <use x="245.019531" xlink:href="#DejaVuSans-114"/>
      <use x="286.132812" xlink:href="#DejaVuSans-105"/>
      <use x="313.916016" xlink:href="#DejaVuSans-99"/>
      <use x="368.896484" xlink:href="#DejaVuSans-105"/>
      <use x="396.679688" xlink:href="#DejaVuSans-116"/>
      <use x="435.888672" xlink:href="#DejaVuSans-121"/>
     </g>
    </g>
   </g>
   <g id="text_39">
    <g clip-path="url(#p7274a11a07)">
     <!-- . -->
     <g transform="translate(288.592756 155.486648)scale(0.1 -0.1)">
      <defs>
       <path d="M 10.6875 12.40625 
L 21 12.40625 
L 21 0 
L 10.6875 0 
z
" id="DejaVuSans-46"/>
      </defs>
      <use xlink:href="#DejaVuSans-46"/>
     </g>
    </g>
   </g>
  </g>
 </g>
 <defs>
  <clipPath id="p7274a11a07">
   <rect height="160" width="304" x="0" y="0"/>
  </clipPath>
 </defs>
</svg>
