<?xml version="1.0" encoding="utf-8" standalone="no"?>
<!DOCTYPE svg PUBLIC "-//W3C//DTD SVG 1.1//EN"
  "http://www.w3.org/Graphics/SVG/1.1/DTD/svg11.dtd">
<!-- Created with matplotlib (https://matplotlib.org/) -->
<svg height="213.333333pt" version="1.1" viewBox="0 0 405.333333 213.333333" width="405.333333pt" xmlns="http://www.w3.org/2000/svg" xmlns:xlink="http://www.w3.org/1999/xlink">
 <metadata>
  <rdf:RDF xmlns:cc="http://creativecommons.org/ns#" xmlns:dc="http://purl.org/dc/elements/1.1/" xmlns:rdf="http://www.w3.org/1999/02/22-rdf-syntax-ns#">
   <cc:Work>
    <dc:type rdf:resource="http://purl.org/dc/dcmitype/StillImage"/>
    <dc:date>2021-05-19T11:41:56.867586</dc:date>
    <dc:format>image/svg+xml</dc:format>
    <dc:creator>
     <cc:Agent>
      <dc:title>Matplotlib v3.3.4, https://matplotlib.org/</dc:title>
     </cc:Agent>
    </dc:creator>
   </cc:Work>
  </rdf:RDF>
 </metadata>
 <defs>
  <style type="text/css">*{stroke-linecap:butt;stroke-linejoin:round;}</style>
 </defs>
 <g id="figure_1">
  <g id="patch_1">
   <path d="M 0 213.333333 
L 405.333333 213.333333 
L 405.333333 0 
L 0 0 
z
" style="fill:#ffffff;"/>
  </g>
  <g id="axes_1">
   <g id="LineCollection_1">
    <path clip-path="url(#p16a6929b2d)" d="M 121.073593 9.69697 
L 71.064935 196.633407 
" style="fill:none;stroke:#000000;"/>
    <path clip-path="url(#p16a6929b2d)" d="M 121.073593 9.69697 
L 176.34632 189.630451 
" style="fill:none;stroke:#000000;"/>
    <path clip-path="url(#p16a6929b2d)" d="M 121.073593 9.69697 
L 321.108225 182.530076 
" style="fill:none;stroke:#000000;"/>
    <path clip-path="url(#p16a6929b2d)" d="M 121.073593 9.69697 
L 18.424242 22.681164 
" style="fill:none;stroke:#000000;"/>
    <path clip-path="url(#p16a6929b2d)" d="M 121.073593 9.69697 
L 18.424242 196.633407 
" style="fill:none;stroke:#000000;stroke-dasharray:3.7,1.6;stroke-dashoffset:0;"/>
    <path clip-path="url(#p16a6929b2d)" d="M 71.064935 196.633407 
L 71.064935 203.636364 
" style="fill:none;stroke:#000000;"/>
    <path clip-path="url(#p16a6929b2d)" d="M 176.34632 189.630451 
L 123.705628 196.633407 
" style="fill:none;stroke:#000000;"/>
    <path clip-path="url(#p16a6929b2d)" d="M 176.34632 189.630451 
L 176.34632 196.633407 
" style="fill:none;stroke:#000000;"/>
    <path clip-path="url(#p16a6929b2d)" d="M 176.34632 189.630451 
L 228.987013 196.633407 
" style="fill:none;stroke:#000000;"/>
    <path clip-path="url(#p16a6929b2d)" d="M 321.108225 182.530076 
L 281.627706 196.633407 
" style="fill:none;stroke:#000000;"/>
    <path clip-path="url(#p16a6929b2d)" d="M 321.108225 182.530076 
L 360.588745 189.630451 
" style="fill:none;stroke:#000000;"/>
    <path clip-path="url(#p16a6929b2d)" d="M 18.424242 22.681164 
L 18.424242 35.129855 
" style="fill:none;stroke:#000000;"/>
    <path clip-path="url(#p16a6929b2d)" d="M 123.705628 196.633407 
L 123.705628 203.636364 
" style="fill:none;stroke:#000000;"/>
    <path clip-path="url(#p16a6929b2d)" d="M 176.34632 196.633407 
L 176.34632 203.636364 
" style="fill:none;stroke:#000000;"/>
    <path clip-path="url(#p16a6929b2d)" d="M 228.987013 196.633407 
L 228.987013 203.636364 
" style="fill:none;stroke:#000000;"/>
    <path clip-path="url(#p16a6929b2d)" d="M 281.627706 196.633407 
L 281.627706 203.636364 
" style="fill:none;stroke:#000000;"/>
    <path clip-path="url(#p16a6929b2d)" d="M 360.588745 189.630451 
L 334.268398 196.633407 
" style="fill:none;stroke:#000000;"/>
    <path clip-path="url(#p16a6929b2d)" d="M 360.588745 189.630451 
L 386.909091 196.633407 
" style="fill:none;stroke:#000000;"/>
    <path clip-path="url(#p16a6929b2d)" d="M 18.424242 35.129855 
L 18.424242 47.073768 
" style="fill:none;stroke:#000000;"/>
    <path clip-path="url(#p16a6929b2d)" d="M 334.268398 196.633407 
L 334.268398 203.636364 
" style="fill:none;stroke:#000000;"/>
    <path clip-path="url(#p16a6929b2d)" d="M 386.909091 196.633407 
L 386.909091 203.636364 
" style="fill:none;stroke:#000000;"/>
    <path clip-path="url(#p16a6929b2d)" d="M 18.424242 47.073768 
L 18.424242 58.541941 
" style="fill:none;stroke:#000000;"/>
    <path clip-path="url(#p16a6929b2d)" d="M 18.424242 58.541941 
L 18.424242 69.561861 
" style="fill:none;stroke:#000000;"/>
    <path clip-path="url(#p16a6929b2d)" d="M 18.424242 69.561861 
L 18.424242 80.159589 
" style="fill:none;stroke:#000000;"/>
    <path clip-path="url(#p16a6929b2d)" d="M 18.424242 80.159589 
L 18.424242 90.359888 
" style="fill:none;stroke:#000000;"/>
    <path clip-path="url(#p16a6929b2d)" d="M 18.424242 90.359888 
L 18.424242 100.186345 
" style="fill:none;stroke:#000000;"/>
    <path clip-path="url(#p16a6929b2d)" d="M 18.424242 100.186345 
L 18.424242 109.661501 
" style="fill:none;stroke:#000000;"/>
    <path clip-path="url(#p16a6929b2d)" d="M 18.424242 109.661501 
L 18.424242 118.806974 
" style="fill:none;stroke:#000000;"/>
    <path clip-path="url(#p16a6929b2d)" d="M 18.424242 118.806974 
L 18.424242 127.643603 
" style="fill:none;stroke:#000000;"/>
    <path clip-path="url(#p16a6929b2d)" d="M 18.424242 127.643603 
L 18.424242 136.191599 
" style="fill:none;stroke:#000000;"/>
    <path clip-path="url(#p16a6929b2d)" d="M 18.424242 136.191599 
L 18.424242 144.470723 
" style="fill:none;stroke:#000000;"/>
    <path clip-path="url(#p16a6929b2d)" d="M 18.424242 144.470723 
L 18.424242 152.500512 
" style="fill:none;stroke:#000000;"/>
    <path clip-path="url(#p16a6929b2d)" d="M 18.424242 152.500512 
L 18.424242 160.300569 
" style="fill:none;stroke:#000000;"/>
    <path clip-path="url(#p16a6929b2d)" d="M 18.424242 160.300569 
L 18.424242 167.890981 
" style="fill:none;stroke:#000000;"/>
    <path clip-path="url(#p16a6929b2d)" d="M 18.424242 167.890981 
L 18.424242 175.292978 
" style="fill:none;stroke:#000000;"/>
    <path clip-path="url(#p16a6929b2d)" d="M 18.424242 175.292978 
L 18.424242 182.530076 
" style="fill:none;stroke:#000000;"/>
    <path clip-path="url(#p16a6929b2d)" d="M 18.424242 182.530076 
L 18.424242 189.630451 
" style="fill:none;stroke:#000000;"/>
    <path clip-path="url(#p16a6929b2d)" d="M 18.424242 189.630451 
L 18.424242 196.633407 
" style="fill:none;stroke:#000000;"/>
    <path clip-path="url(#p16a6929b2d)" d="M 18.424242 196.633407 
L 18.424242 203.636364 
" style="fill:none;stroke:#000000;"/>
   </g>
   <g id="text_1">
    <g id="patch_2">
     <path clip-path="url(#p16a6929b2d)" d="M 101.532931 107.008337 
L 102.72203 102.563391 
Q 103.34226 100.244919 101.023788 99.624688 
L 93.5443 97.623798 
Q 91.225827 97.003568 90.605597 99.32204 
L 89.416498 103.766986 
Q 88.796268 106.085459 91.11474 106.705689 
L 98.594229 108.706579 
Q 100.912701 109.326809 101.532931 107.008337 
z
" style="fill:#ffffff;stroke:#ffffff;stroke-linejoin:miter;"/>
    </g>
    <g clip-path="url(#p16a6929b2d)">
     <!-- F -->
     <g transform="translate(97.607226 105.958145)rotate(-75.023111)scale(0.08 -0.08)">
      <defs>
       <path d="M 9.8125 72.90625 
L 51.703125 72.90625 
L 51.703125 64.59375 
L 19.671875 64.59375 
L 19.671875 43.109375 
L 48.578125 43.109375 
L 48.578125 34.8125 
L 19.671875 34.8125 
L 19.671875 0 
L 9.8125 0 
z
" id="DejaVuSans-70"/>
      </defs>
      <use xlink:href="#DejaVuSans-70"/>
     </g>
    </g>
   </g>
   <g id="text_2">
    <g id="patch_3">
     <path clip-path="url(#p16a6929b2d)" d="M 141.911694 98.88959 
L 143.51865 104.120837 
Q 144.223392 106.415034 146.517589 105.710293 
L 153.918764 103.436769 
Q 156.212961 102.732028 155.50822 100.437831 
L 153.901263 95.206584 
Q 153.196522 92.912387 150.902325 93.617128 
L 143.50115 95.890652 
Q 141.206953 96.595393 141.911694 98.88959 
z
" style="fill:#ffffff;stroke:#ffffff;stroke-linejoin:miter;"/>
    </g>
    <g clip-path="url(#p16a6929b2d)">
     <!-- A -->
     <g transform="translate(145.796295 97.696302)rotate(-287.076132)scale(0.08 -0.08)">
      <defs>
       <path d="M 34.1875 63.1875 
L 20.796875 26.90625 
L 47.609375 26.90625 
z
M 28.609375 72.90625 
L 39.796875 72.90625 
L 67.578125 0 
L 57.328125 0 
L 50.6875 18.703125 
L 17.828125 18.703125 
L 11.1875 0 
L 0.78125 0 
z
" id="DejaVuSans-65"/>
      </defs>
      <use xlink:href="#DejaVuSans-65"/>
     </g>
    </g>
   </g>
   <g id="text_3">
    <g id="patch_4">
     <path clip-path="url(#p16a6929b2d)" d="M 215.069367 99.198655 
L 218.912361 102.519062 
Q 220.728395 104.088144 222.297477 102.27211 
L 227.359403 96.413508 
Q 228.928485 94.597474 227.112451 93.028391 
L 223.269458 89.707984 
Q 221.453423 88.138902 219.884341 89.954936 
L 214.822416 95.813538 
Q 213.253333 97.629572 215.069367 99.198655 
z
" style="fill:#ffffff;stroke:#ffffff;stroke-linejoin:miter;"/>
    </g>
    <g clip-path="url(#p16a6929b2d)">
     <!-- S -->
     <g transform="translate(217.726184 96.123693)rotate(-319.172462)scale(0.08 -0.08)">
      <defs>
       <path d="M 53.515625 70.515625 
L 53.515625 60.890625 
Q 47.90625 63.578125 42.921875 64.890625 
Q 37.9375 66.21875 33.296875 66.21875 
Q 25.25 66.21875 20.875 63.09375 
Q 16.5 59.96875 16.5 54.203125 
Q 16.5 49.359375 19.40625 46.890625 
Q 22.3125 44.4375 30.421875 42.921875 
L 36.375 41.703125 
Q 47.40625 39.59375 52.65625 34.296875 
Q 57.90625 29 57.90625 20.125 
Q 57.90625 9.515625 50.796875 4.046875 
Q 43.703125 -1.421875 29.984375 -1.421875 
Q 24.8125 -1.421875 18.96875 -0.25 
Q 13.140625 0.921875 6.890625 3.21875 
L 6.890625 13.375 
Q 12.890625 10.015625 18.65625 8.296875 
Q 24.421875 6.59375 29.984375 6.59375 
Q 38.421875 6.59375 43.015625 9.90625 
Q 47.609375 13.234375 47.609375 19.390625 
Q 47.609375 24.75 44.3125 27.78125 
Q 41.015625 30.8125 33.5 32.328125 
L 27.484375 33.5 
Q 16.453125 35.6875 11.515625 40.375 
Q 6.59375 45.0625 6.59375 53.421875 
Q 6.59375 63.09375 13.40625 68.65625 
Q 20.21875 74.21875 32.171875 74.21875 
Q 37.3125 74.21875 42.625 73.28125 
Q 47.953125 72.359375 53.515625 70.515625 
z
" id="DejaVuSans-83"/>
      </defs>
      <use xlink:href="#DejaVuSans-83"/>
     </g>
    </g>
   </g>
   <g id="text_4">
    <g id="patch_5">
     <path clip-path="url(#p16a6929b2d)" d="M 68.143093 22.71341 
L 72.928711 22.108073 
Q 75.309738 21.806895 75.00856 19.425868 
L 74.036947 11.744574 
Q 73.735769 9.363546 71.354742 9.664724 
L 66.569125 10.270061 
Q 64.188097 10.571239 64.489275 12.952266 
L 65.460888 20.63356 
Q 65.762066 23.014588 68.143093 22.71341 
z
" style="fill:#ffffff;stroke:#ffffff;stroke-linejoin:miter;"/>
    </g>
    <g clip-path="url(#p16a6929b2d)">
     <!-- P -->
     <g transform="translate(67.63313 18.681784)rotate(-7.209101)scale(0.08 -0.08)">
      <defs>
       <path d="M 19.671875 64.796875 
L 19.671875 37.40625 
L 32.078125 37.40625 
Q 38.96875 37.40625 42.71875 40.96875 
Q 46.484375 44.53125 46.484375 51.125 
Q 46.484375 57.671875 42.71875 61.234375 
Q 38.96875 64.796875 32.078125 64.796875 
z
M 9.8125 72.90625 
L 32.078125 72.90625 
Q 44.34375 72.90625 50.609375 67.359375 
Q 56.890625 61.8125 56.890625 51.125 
Q 56.890625 40.328125 50.609375 34.8125 
Q 44.34375 29.296875 32.078125 29.296875 
L 19.671875 29.296875 
L 19.671875 0 
L 9.8125 0 
z
" id="DejaVuSans-80"/>
      </defs>
      <use xlink:href="#DejaVuSans-80"/>
     </g>
    </g>
   </g>
   <g id="text_5">
    <g id="patch_6">
     <path clip-path="url(#p16a6929b2d)" d="M 73.928925 108.582123 
L 76.562961 103.785237 
Q 77.718134 101.681532 75.614429 100.526359 
L 68.827789 96.799722 
Q 66.724084 95.644549 65.56891 97.748254 
L 62.934875 102.54514 
Q 61.779702 104.648845 63.883407 105.804018 
L 70.670047 109.530655 
Q 72.773752 110.685828 73.928925 108.582123 
z
" style="fill:#ffffff;stroke:#ffffff;stroke-linejoin:miter;"/>
    </g>
    <g clip-path="url(#p16a6929b2d)">
     <!-- A -->
     <g transform="translate(70.36687 106.62615)rotate(-61.22821)scale(0.08 -0.08)">
      <use xlink:href="#DejaVuSans-65"/>
     </g>
    </g>
   </g>
   <g id="text_6">
    <g id="patch_7">
     <path clip-path="url(#p16a6929b2d)" d="M 64.793685 183.231136 
L 64.793685 217.038636 
Q 64.793685 219.438636 67.193685 219.438636 
L 74.936185 219.438636 
Q 77.336185 219.438636 77.336185 217.038636 
L 77.336185 183.231136 
Q 77.336185 180.831136 74.936185 180.831136 
L 67.193685 180.831136 
Q 64.793685 180.831136 64.793685 183.231136 
z
" style="fill:#ffffff;stroke:#ffffff;stroke-linejoin:miter;"/>
    </g>
    <g clip-path="url(#p16a6929b2d)">
     <!-- Terminal -->
     <g transform="translate(68.857435 183.231136)rotate(-270)scale(0.08 -0.08)">
      <defs>
       <path d="M -0.296875 72.90625 
L 61.375 72.90625 
L 61.375 64.59375 
L 35.5 64.59375 
L 35.5 0 
L 25.59375 0 
L 25.59375 64.59375 
L -0.296875 64.59375 
z
" id="DejaVuSans-84"/>
       <path d="M 56.203125 29.59375 
L 56.203125 25.203125 
L 14.890625 25.203125 
Q 15.484375 15.921875 20.484375 11.0625 
Q 25.484375 6.203125 34.421875 6.203125 
Q 39.59375 6.203125 44.453125 7.46875 
Q 49.3125 8.734375 54.109375 11.28125 
L 54.109375 2.78125 
Q 49.265625 0.734375 44.1875 -0.34375 
Q 39.109375 -1.421875 33.890625 -1.421875 
Q 20.796875 -1.421875 13.15625 6.1875 
Q 5.515625 13.8125 5.515625 26.8125 
Q 5.515625 40.234375 12.765625 48.109375 
Q 20.015625 56 32.328125 56 
Q 43.359375 56 49.78125 48.890625 
Q 56.203125 41.796875 56.203125 29.59375 
z
M 47.21875 32.234375 
Q 47.125 39.59375 43.09375 43.984375 
Q 39.0625 48.390625 32.421875 48.390625 
Q 24.90625 48.390625 20.390625 44.140625 
Q 15.875 39.890625 15.1875 32.171875 
z
" id="DejaVuSans-101"/>
       <path d="M 41.109375 46.296875 
Q 39.59375 47.171875 37.8125 47.578125 
Q 36.03125 48 33.890625 48 
Q 26.265625 48 22.1875 43.046875 
Q 18.109375 38.09375 18.109375 28.8125 
L 18.109375 0 
L 9.078125 0 
L 9.078125 54.6875 
L 18.109375 54.6875 
L 18.109375 46.1875 
Q 20.953125 51.171875 25.484375 53.578125 
Q 30.03125 56 36.53125 56 
Q 37.453125 56 38.578125 55.875 
Q 39.703125 55.765625 41.0625 55.515625 
z
" id="DejaVuSans-114"/>
       <path d="M 52 44.1875 
Q 55.375 50.25 60.0625 53.125 
Q 64.75 56 71.09375 56 
Q 79.640625 56 84.28125 50.015625 
Q 88.921875 44.046875 88.921875 33.015625 
L 88.921875 0 
L 79.890625 0 
L 79.890625 32.71875 
Q 79.890625 40.578125 77.09375 44.375 
Q 74.3125 48.1875 68.609375 48.1875 
Q 61.625 48.1875 57.5625 43.546875 
Q 53.515625 38.921875 53.515625 30.90625 
L 53.515625 0 
L 44.484375 0 
L 44.484375 32.71875 
Q 44.484375 40.625 41.703125 44.40625 
Q 38.921875 48.1875 33.109375 48.1875 
Q 26.21875 48.1875 22.15625 43.53125 
Q 18.109375 38.875 18.109375 30.90625 
L 18.109375 0 
L 9.078125 0 
L 9.078125 54.6875 
L 18.109375 54.6875 
L 18.109375 46.1875 
Q 21.1875 51.21875 25.484375 53.609375 
Q 29.78125 56 35.6875 56 
Q 41.65625 56 45.828125 52.96875 
Q 50 49.953125 52 44.1875 
z
" id="DejaVuSans-109"/>
       <path d="M 9.421875 54.6875 
L 18.40625 54.6875 
L 18.40625 0 
L 9.421875 0 
z
M 9.421875 75.984375 
L 18.40625 75.984375 
L 18.40625 64.59375 
L 9.421875 64.59375 
z
" id="DejaVuSans-105"/>
       <path d="M 54.890625 33.015625 
L 54.890625 0 
L 45.90625 0 
L 45.90625 32.71875 
Q 45.90625 40.484375 42.875 44.328125 
Q 39.84375 48.1875 33.796875 48.1875 
Q 26.515625 48.1875 22.3125 43.546875 
Q 18.109375 38.921875 18.109375 30.90625 
L 18.109375 0 
L 9.078125 0 
L 9.078125 54.6875 
L 18.109375 54.6875 
L 18.109375 46.1875 
Q 21.34375 51.125 25.703125 53.5625 
Q 30.078125 56 35.796875 56 
Q 45.21875 56 50.046875 50.171875 
Q 54.890625 44.34375 54.890625 33.015625 
z
" id="DejaVuSans-110"/>
       <path d="M 34.28125 27.484375 
Q 23.390625 27.484375 19.1875 25 
Q 14.984375 22.515625 14.984375 16.5 
Q 14.984375 11.71875 18.140625 8.90625 
Q 21.296875 6.109375 26.703125 6.109375 
Q 34.1875 6.109375 38.703125 11.40625 
Q 43.21875 16.703125 43.21875 25.484375 
L 43.21875 27.484375 
z
M 52.203125 31.203125 
L 52.203125 0 
L 43.21875 0 
L 43.21875 8.296875 
Q 40.140625 3.328125 35.546875 0.953125 
Q 30.953125 -1.421875 24.3125 -1.421875 
Q 15.921875 -1.421875 10.953125 3.296875 
Q 6 8.015625 6 15.921875 
Q 6 25.140625 12.171875 29.828125 
Q 18.359375 34.515625 30.609375 34.515625 
L 43.21875 34.515625 
L 43.21875 35.40625 
Q 43.21875 41.609375 39.140625 45 
Q 35.0625 48.390625 27.6875 48.390625 
Q 23 48.390625 18.546875 47.265625 
Q 14.109375 46.140625 10.015625 43.890625 
L 10.015625 52.203125 
Q 14.9375 54.109375 19.578125 55.046875 
Q 24.21875 56 28.609375 56 
Q 40.484375 56 46.34375 49.84375 
Q 52.203125 43.703125 52.203125 31.203125 
z
" id="DejaVuSans-97"/>
       <path d="M 9.421875 75.984375 
L 18.40625 75.984375 
L 18.40625 0 
L 9.421875 0 
z
" id="DejaVuSans-108"/>
      </defs>
      <use xlink:href="#DejaVuSans-84"/>
      <use x="44.083984" xlink:href="#DejaVuSans-101"/>
      <use x="105.607422" xlink:href="#DejaVuSans-114"/>
      <use x="144.970703" xlink:href="#DejaVuSans-109"/>
      <use x="242.382812" xlink:href="#DejaVuSans-105"/>
      <use x="270.166016" xlink:href="#DejaVuSans-110"/>
      <use x="333.544922" xlink:href="#DejaVuSans-97"/>
      <use x="394.824219" xlink:href="#DejaVuSans-108"/>
     </g>
    </g>
   </g>
   <g id="text_7">
    <g id="patch_8">
     <path clip-path="url(#p16a6929b2d)" d="M 148.347545 199.681716 
L 153.358399 199.015107 
Q 155.737439 198.698616 155.420948 196.319575 
L 154.399934 188.644692 
Q 154.083443 186.265651 151.704403 186.582142 
L 146.693549 187.248752 
Q 144.314509 187.565243 144.631 189.944284 
L 145.652014 197.619167 
Q 145.968505 199.998208 148.347545 199.681716 
z
" style="fill:#ffffff;stroke:#ffffff;stroke-linejoin:miter;"/>
    </g>
    <g clip-path="url(#p16a6929b2d)">
     <!-- E -->
     <g transform="translate(147.811653 195.653456)rotate(-7.577743)scale(0.08 -0.08)">
      <defs>
       <path d="M 9.8125 72.90625 
L 55.90625 72.90625 
L 55.90625 64.59375 
L 19.671875 64.59375 
L 19.671875 43.015625 
L 54.390625 43.015625 
L 54.390625 34.71875 
L 19.671875 34.71875 
L 19.671875 8.296875 
L 56.78125 8.296875 
L 56.78125 0 
L 9.8125 0 
z
" id="DejaVuSans-69"/>
      </defs>
      <use xlink:href="#DejaVuSans-69"/>
     </g>
    </g>
   </g>
   <g id="text_8">
    <g id="patch_9">
     <path clip-path="url(#p16a6929b2d)" d="M 170.07507 190.604429 
L 170.07507 195.659429 
Q 170.07507 198.059429 172.47507 198.059429 
L 180.21757 198.059429 
Q 182.61757 198.059429 182.61757 195.659429 
L 182.61757 190.604429 
Q 182.61757 188.204429 180.21757 188.204429 
L 172.47507 188.204429 
Q 170.07507 188.204429 170.07507 190.604429 
z
" style="fill:#ffffff;stroke:#ffffff;stroke-linejoin:miter;"/>
    </g>
    <g clip-path="url(#p16a6929b2d)">
     <!-- E -->
     <g transform="translate(174.13882 190.604429)rotate(-270)scale(0.08 -0.08)">
      <use xlink:href="#DejaVuSans-69"/>
     </g>
    </g>
   </g>
   <g id="text_9">
    <g id="patch_10">
     <path clip-path="url(#p16a6929b2d)" d="M 199.070936 198.980078 
L 204.608401 199.716745 
Q 206.987441 200.033236 207.303932 197.654195 
L 208.324946 189.979312 
Q 208.641437 187.600272 206.262397 187.28378 
L 200.724933 186.547114 
Q 198.345892 186.230623 198.029401 188.609663 
L 197.008387 196.284547 
Q 196.691896 198.663587 199.070936 198.980078 
z
" style="fill:#ffffff;stroke:#ffffff;stroke-linejoin:miter;"/>
    </g>
    <g clip-path="url(#p16a6929b2d)">
     <!-- C -->
     <g transform="translate(199.606829 194.951818)rotate(-352.422257)scale(0.08 -0.08)">
      <defs>
       <path d="M 64.40625 67.28125 
L 64.40625 56.890625 
Q 59.421875 61.53125 53.78125 63.8125 
Q 48.140625 66.109375 41.796875 66.109375 
Q 29.296875 66.109375 22.65625 58.46875 
Q 16.015625 50.828125 16.015625 36.375 
Q 16.015625 21.96875 22.65625 14.328125 
Q 29.296875 6.6875 41.796875 6.6875 
Q 48.140625 6.6875 53.78125 8.984375 
Q 59.421875 11.28125 64.40625 15.921875 
L 64.40625 5.609375 
Q 59.234375 2.09375 53.4375 0.328125 
Q 47.65625 -1.421875 41.21875 -1.421875 
Q 24.65625 -1.421875 15.125 8.703125 
Q 5.609375 18.84375 5.609375 36.375 
Q 5.609375 53.953125 15.125 64.078125 
Q 24.65625 74.21875 41.21875 74.21875 
Q 47.75 74.21875 53.53125 72.484375 
Q 59.328125 70.75 64.40625 67.28125 
z
" id="DejaVuSans-67"/>
      </defs>
      <use xlink:href="#DejaVuSans-67"/>
     </g>
    </g>
   </g>
   <g id="text_10">
    <g id="patch_11">
     <path clip-path="url(#p16a6929b2d)" d="M 300.847296 196.427107 
L 306.107969 194.547876 
Q 308.368092 193.740509 307.560725 191.480386 
L 304.956126 184.189133 
Q 304.148758 181.92901 301.888635 182.736377 
L 296.627962 184.615607 
Q 294.367838 185.422975 295.175205 187.683098 
L 297.779805 194.974351 
Q 298.587172 197.234474 300.847296 196.427107 
z
" style="fill:#ffffff;stroke:#ffffff;stroke-linejoin:miter;"/>
    </g>
    <g clip-path="url(#p16a6929b2d)">
     <!-- C -->
     <g transform="translate(299.480238 192.6002)rotate(-19.657873)scale(0.08 -0.08)">
      <use xlink:href="#DejaVuSans-67"/>
     </g>
    </g>
   </g>
   <g id="text_11">
    <g id="patch_12">
     <path clip-path="url(#p16a6929b2d)" d="M 337.25085 191.805109 
L 342.226031 192.699871 
Q 344.588135 193.124684 345.012948 190.76258 
L 346.383411 183.142335 
Q 346.808223 180.780231 344.44612 180.355418 
L 339.470939 179.460657 
Q 337.108835 179.035844 336.684022 181.397948 
L 335.313559 189.018193 
Q 334.888746 191.380297 337.25085 191.805109 
z
" style="fill:#ffffff;stroke:#ffffff;stroke-linejoin:miter;"/>
    </g>
    <g clip-path="url(#p16a6929b2d)">
     <!-- E -->
     <g transform="translate(337.970155 187.805526)rotate(-349.804627)scale(0.08 -0.08)">
      <use xlink:href="#DejaVuSans-69"/>
     </g>
    </g>
   </g>
   <g id="text_12">
    <g id="patch_13">
     <path clip-path="url(#p16a6929b2d)" d="M 12.152992 26.493635 
L 12.152992 31.317385 
Q 12.152992 33.717385 14.552992 33.717385 
L 22.295492 33.717385 
Q 24.695492 33.717385 24.695492 31.317385 
L 24.695492 26.493635 
Q 24.695492 24.093635 22.295492 24.093635 
L 14.552992 24.093635 
Q 12.152992 24.093635 12.152992 26.493635 
z
" style="fill:#ffffff;stroke:#ffffff;stroke-linejoin:miter;"/>
    </g>
    <g clip-path="url(#p16a6929b2d)">
     <!-- P -->
     <g transform="translate(16.216742 26.493635)rotate(-270)scale(0.08 -0.08)">
      <use xlink:href="#DejaVuSans-80"/>
     </g>
    </g>
   </g>
   <g id="text_13">
    <g id="patch_14">
     <path clip-path="url(#p16a6929b2d)" d="M 117.434378 183.231136 
L 117.434378 217.038636 
Q 117.434378 219.438636 119.834378 219.438636 
L 127.576878 219.438636 
Q 129.976878 219.438636 129.976878 217.038636 
L 129.976878 183.231136 
Q 129.976878 180.831136 127.576878 180.831136 
L 119.834378 180.831136 
Q 117.434378 180.831136 117.434378 183.231136 
z
" style="fill:#ffffff;stroke:#ffffff;stroke-linejoin:miter;"/>
    </g>
    <g clip-path="url(#p16a6929b2d)">
     <!-- Terminal -->
     <g transform="translate(121.498128 183.231136)rotate(-270)scale(0.08 -0.08)">
      <use xlink:href="#DejaVuSans-84"/>
      <use x="44.083984" xlink:href="#DejaVuSans-101"/>
      <use x="105.607422" xlink:href="#DejaVuSans-114"/>
      <use x="144.970703" xlink:href="#DejaVuSans-109"/>
      <use x="242.382812" xlink:href="#DejaVuSans-105"/>
      <use x="270.166016" xlink:href="#DejaVuSans-110"/>
      <use x="333.544922" xlink:href="#DejaVuSans-97"/>
      <use x="394.824219" xlink:href="#DejaVuSans-108"/>
     </g>
    </g>
   </g>
   <g id="text_14">
    <g id="patch_15">
     <path clip-path="url(#p16a6929b2d)" d="M 170.07507 183.231136 
L 170.07507 217.038636 
Q 170.07507 219.438636 172.47507 219.438636 
L 180.21757 219.438636 
Q 182.61757 219.438636 182.61757 217.038636 
L 182.61757 183.231136 
Q 182.61757 180.831136 180.21757 180.831136 
L 172.47507 180.831136 
Q 170.07507 180.831136 170.07507 183.231136 
z
" style="fill:#ffffff;stroke:#ffffff;stroke-linejoin:miter;"/>
    </g>
    <g clip-path="url(#p16a6929b2d)">
     <!-- Terminal -->
     <g transform="translate(174.13882 183.231136)rotate(-270)scale(0.08 -0.08)">
      <use xlink:href="#DejaVuSans-84"/>
      <use x="44.083984" xlink:href="#DejaVuSans-101"/>
      <use x="105.607422" xlink:href="#DejaVuSans-114"/>
      <use x="144.970703" xlink:href="#DejaVuSans-109"/>
      <use x="242.382812" xlink:href="#DejaVuSans-105"/>
      <use x="270.166016" xlink:href="#DejaVuSans-110"/>
      <use x="333.544922" xlink:href="#DejaVuSans-97"/>
      <use x="394.824219" xlink:href="#DejaVuSans-108"/>
     </g>
    </g>
   </g>
   <g id="text_15">
    <g id="patch_16">
     <path clip-path="url(#p16a6929b2d)" d="M 222.715763 183.231136 
L 222.715763 217.038636 
Q 222.715763 219.438636 225.115763 219.438636 
L 232.858263 219.438636 
Q 235.258263 219.438636 235.258263 217.038636 
L 235.258263 183.231136 
Q 235.258263 180.831136 232.858263 180.831136 
L 225.115763 180.831136 
Q 222.715763 180.831136 222.715763 183.231136 
z
" style="fill:#ffffff;stroke:#ffffff;stroke-linejoin:miter;"/>
    </g>
    <g clip-path="url(#p16a6929b2d)">
     <!-- Terminal -->
     <g transform="translate(226.779513 183.231136)rotate(-270)scale(0.08 -0.08)">
      <use xlink:href="#DejaVuSans-84"/>
      <use x="44.083984" xlink:href="#DejaVuSans-101"/>
      <use x="105.607422" xlink:href="#DejaVuSans-114"/>
      <use x="144.970703" xlink:href="#DejaVuSans-109"/>
      <use x="242.382812" xlink:href="#DejaVuSans-105"/>
      <use x="270.166016" xlink:href="#DejaVuSans-110"/>
      <use x="333.544922" xlink:href="#DejaVuSans-97"/>
      <use x="394.824219" xlink:href="#DejaVuSans-108"/>
     </g>
    </g>
   </g>
   <g id="text_16">
    <g id="patch_17">
     <path clip-path="url(#p16a6929b2d)" d="M 275.356456 183.231136 
L 275.356456 217.038636 
Q 275.356456 219.438636 277.756456 219.438636 
L 285.498956 219.438636 
Q 287.898956 219.438636 287.898956 217.038636 
L 287.898956 183.231136 
Q 287.898956 180.831136 285.498956 180.831136 
L 277.756456 180.831136 
Q 275.356456 180.831136 275.356456 183.231136 
z
" style="fill:#ffffff;stroke:#ffffff;stroke-linejoin:miter;"/>
    </g>
    <g clip-path="url(#p16a6929b2d)">
     <!-- Terminal -->
     <g transform="translate(279.420206 183.231136)rotate(-270)scale(0.08 -0.08)">
      <use xlink:href="#DejaVuSans-84"/>
      <use x="44.083984" xlink:href="#DejaVuSans-101"/>
      <use x="105.607422" xlink:href="#DejaVuSans-114"/>
      <use x="144.970703" xlink:href="#DejaVuSans-109"/>
      <use x="242.382812" xlink:href="#DejaVuSans-105"/>
      <use x="270.166016" xlink:href="#DejaVuSans-110"/>
      <use x="333.544922" xlink:href="#DejaVuSans-97"/>
      <use x="394.824219" xlink:href="#DejaVuSans-108"/>
     </g>
    </g>
   </g>
   <g id="text_17">
    <g id="patch_18">
     <path clip-path="url(#p16a6929b2d)" d="M 346.355111 199.906971 
L 351.726971 198.4777 
Q 354.046281 197.86061 353.429191 195.541299 
L 351.438433 188.059108 
Q 350.821342 185.739798 348.502032 186.356888 
L 343.130172 187.786159 
Q 340.810861 188.403249 341.427952 190.722559 
L 343.41871 198.204751 
Q 344.0358 200.524061 346.355111 199.906971 
z
" style="fill:#ffffff;stroke:#ffffff;stroke-linejoin:miter;"/>
    </g>
    <g clip-path="url(#p16a6929b2d)">
     <!-- R -->
     <g transform="translate(345.310236 195.979847)rotate(-14.899296)scale(0.08 -0.08)">
      <defs>
       <path d="M 44.390625 34.1875 
Q 47.5625 33.109375 50.5625 29.59375 
Q 53.5625 26.078125 56.59375 19.921875 
L 66.609375 0 
L 56 0 
L 46.6875 18.703125 
Q 43.0625 26.03125 39.671875 28.421875 
Q 36.28125 30.8125 30.421875 30.8125 
L 19.671875 30.8125 
L 19.671875 0 
L 9.8125 0 
L 9.8125 72.90625 
L 32.078125 72.90625 
Q 44.578125 72.90625 50.734375 67.671875 
Q 56.890625 62.453125 56.890625 51.90625 
Q 56.890625 45.015625 53.6875 40.46875 
Q 50.484375 35.9375 44.390625 34.1875 
z
M 19.671875 64.796875 
L 19.671875 38.921875 
L 32.078125 38.921875 
Q 39.203125 38.921875 42.84375 42.21875 
Q 46.484375 45.515625 46.484375 51.90625 
Q 46.484375 58.296875 42.84375 61.546875 
Q 39.203125 64.796875 32.078125 64.796875 
z
" id="DejaVuSans-82"/>
      </defs>
      <use xlink:href="#DejaVuSans-82"/>
     </g>
    </g>
   </g>
   <g id="text_18">
    <g id="patch_19">
     <path clip-path="url(#p16a6929b2d)" d="M 369.307373 198.439614 
L 374.965523 199.945057 
Q 377.284834 200.562147 377.901924 198.242837 
L 379.892682 190.760645 
Q 380.509773 188.441335 378.190462 187.824245 
L 372.532312 186.318802 
Q 370.213002 185.701712 369.595912 188.021022 
L 367.605153 195.503213 
Q 366.988063 197.822524 369.307373 198.439614 
z
" style="fill:#ffffff;stroke:#ffffff;stroke-linejoin:miter;"/>
    </g>
    <g clip-path="url(#p16a6929b2d)">
     <!-- U -->
     <g transform="translate(370.352248 194.51249)rotate(-345.100704)scale(0.08 -0.08)">
      <defs>
       <path d="M 8.6875 72.90625 
L 18.609375 72.90625 
L 18.609375 28.609375 
Q 18.609375 16.890625 22.84375 11.734375 
Q 27.09375 6.59375 36.625 6.59375 
Q 46.09375 6.59375 50.34375 11.734375 
Q 54.59375 16.890625 54.59375 28.609375 
L 54.59375 72.90625 
L 64.5 72.90625 
L 64.5 27.390625 
Q 64.5 13.140625 57.4375 5.859375 
Q 50.390625 -1.421875 36.625 -1.421875 
Q 22.796875 -1.421875 15.734375 5.859375 
Q 8.6875 13.140625 8.6875 27.390625 
z
" id="DejaVuSans-85"/>
      </defs>
      <use xlink:href="#DejaVuSans-85"/>
     </g>
    </g>
   </g>
   <g id="text_19">
    <g id="patch_20">
     <path clip-path="url(#p16a6929b2d)" d="M 12.152992 38.689936 
L 12.152992 43.513686 
Q 12.152992 45.913686 14.552992 45.913686 
L 22.295492 45.913686 
Q 24.695492 45.913686 24.695492 43.513686 
L 24.695492 38.689936 
Q 24.695492 36.289936 22.295492 36.289936 
L 14.552992 36.289936 
Q 12.152992 36.289936 12.152992 38.689936 
z
" style="fill:#ffffff;stroke:#ffffff;stroke-linejoin:miter;"/>
    </g>
    <g clip-path="url(#p16a6929b2d)">
     <!-- P -->
     <g transform="translate(16.216742 38.689936)rotate(-270)scale(0.08 -0.08)">
      <use xlink:href="#DejaVuSans-80"/>
     </g>
    </g>
   </g>
   <g id="text_20">
    <g id="patch_21">
     <path clip-path="url(#p16a6929b2d)" d="M 327.997148 183.231136 
L 327.997148 217.038636 
Q 327.997148 219.438636 330.397148 219.438636 
L 338.139648 219.438636 
Q 340.539648 219.438636 340.539648 217.038636 
L 340.539648 183.231136 
Q 340.539648 180.831136 338.139648 180.831136 
L 330.397148 180.831136 
Q 327.997148 180.831136 327.997148 183.231136 
z
" style="fill:#ffffff;stroke:#ffffff;stroke-linejoin:miter;"/>
    </g>
    <g clip-path="url(#p16a6929b2d)">
     <!-- Terminal -->
     <g transform="translate(332.060898 183.231136)rotate(-270)scale(0.08 -0.08)">
      <use xlink:href="#DejaVuSans-84"/>
      <use x="44.083984" xlink:href="#DejaVuSans-101"/>
      <use x="105.607422" xlink:href="#DejaVuSans-114"/>
      <use x="144.970703" xlink:href="#DejaVuSans-109"/>
      <use x="242.382812" xlink:href="#DejaVuSans-105"/>
      <use x="270.166016" xlink:href="#DejaVuSans-110"/>
      <use x="333.544922" xlink:href="#DejaVuSans-97"/>
      <use x="394.824219" xlink:href="#DejaVuSans-108"/>
     </g>
    </g>
   </g>
   <g id="text_21">
    <g id="patch_22">
     <path clip-path="url(#p16a6929b2d)" d="M 380.637841 183.231136 
L 380.637841 217.038636 
Q 380.637841 219.438636 383.037841 219.438636 
L 390.780341 219.438636 
Q 393.180341 219.438636 393.180341 217.038636 
L 393.180341 183.231136 
Q 393.180341 180.831136 390.780341 180.831136 
L 383.037841 180.831136 
Q 380.637841 180.831136 380.637841 183.231136 
z
" style="fill:#ffffff;stroke:#ffffff;stroke-linejoin:miter;"/>
    </g>
    <g clip-path="url(#p16a6929b2d)">
     <!-- Terminal -->
     <g transform="translate(384.701591 183.231136)rotate(-270)scale(0.08 -0.08)">
      <use xlink:href="#DejaVuSans-84"/>
      <use x="44.083984" xlink:href="#DejaVuSans-101"/>
      <use x="105.607422" xlink:href="#DejaVuSans-114"/>
      <use x="144.970703" xlink:href="#DejaVuSans-109"/>
      <use x="242.382812" xlink:href="#DejaVuSans-105"/>
      <use x="270.166016" xlink:href="#DejaVuSans-110"/>
      <use x="333.544922" xlink:href="#DejaVuSans-97"/>
      <use x="394.824219" xlink:href="#DejaVuSans-108"/>
     </g>
    </g>
   </g>
   <g id="text_22">
    <g id="patch_23">
     <path clip-path="url(#p16a6929b2d)" d="M 12.152992 50.395979 
L 12.152992 55.219729 
Q 12.152992 57.619729 14.552992 57.619729 
L 22.295492 57.619729 
Q 24.695492 57.619729 24.695492 55.219729 
L 24.695492 50.395979 
Q 24.695492 47.995979 22.295492 47.995979 
L 14.552992 47.995979 
Q 12.152992 47.995979 12.152992 50.395979 
z
" style="fill:#ffffff;stroke:#ffffff;stroke-linejoin:miter;"/>
    </g>
    <g clip-path="url(#p16a6929b2d)">
     <!-- P -->
     <g transform="translate(16.216742 50.395979)rotate(-270)scale(0.08 -0.08)">
      <use xlink:href="#DejaVuSans-80"/>
     </g>
    </g>
   </g>
   <g id="text_23">
    <g id="patch_24">
     <path clip-path="url(#p16a6929b2d)" d="M 12.152992 61.640026 
L 12.152992 66.463776 
Q 12.152992 68.863776 14.552992 68.863776 
L 22.295492 68.863776 
Q 24.695492 68.863776 24.695492 66.463776 
L 24.695492 61.640026 
Q 24.695492 59.240026 22.295492 59.240026 
L 14.552992 59.240026 
Q 12.152992 59.240026 12.152992 61.640026 
z
" style="fill:#ffffff;stroke:#ffffff;stroke-linejoin:miter;"/>
    </g>
    <g clip-path="url(#p16a6929b2d)">
     <!-- P -->
     <g transform="translate(16.216742 61.640026)rotate(-270)scale(0.08 -0.08)">
      <use xlink:href="#DejaVuSans-80"/>
     </g>
    </g>
   </g>
   <g id="text_24">
    <g id="patch_25">
     <path clip-path="url(#p16a6929b2d)" d="M 12.152992 72.44885 
L 12.152992 77.2726 
Q 12.152992 79.6726 14.552992 79.6726 
L 22.295492 79.6726 
Q 24.695492 79.6726 24.695492 77.2726 
L 24.695492 72.44885 
Q 24.695492 70.04885 22.295492 70.04885 
L 14.552992 70.04885 
Q 12.152992 70.04885 12.152992 72.44885 
z
" style="fill:#ffffff;stroke:#ffffff;stroke-linejoin:miter;"/>
    </g>
    <g clip-path="url(#p16a6929b2d)">
     <!-- P -->
     <g transform="translate(16.216742 72.44885)rotate(-270)scale(0.08 -0.08)">
      <use xlink:href="#DejaVuSans-80"/>
     </g>
    </g>
   </g>
   <g id="text_25">
    <g id="patch_26">
     <path clip-path="url(#p16a6929b2d)" d="M 12.152992 82.847864 
L 12.152992 87.671614 
Q 12.152992 90.071614 14.552992 90.071614 
L 22.295492 90.071614 
Q 24.695492 90.071614 24.695492 87.671614 
L 24.695492 82.847864 
Q 24.695492 80.447864 22.295492 80.447864 
L 14.552992 80.447864 
Q 12.152992 80.447864 12.152992 82.847864 
z
" style="fill:#ffffff;stroke:#ffffff;stroke-linejoin:miter;"/>
    </g>
    <g clip-path="url(#p16a6929b2d)">
     <!-- P -->
     <g transform="translate(16.216742 82.847864)rotate(-270)scale(0.08 -0.08)">
      <use xlink:href="#DejaVuSans-80"/>
     </g>
    </g>
   </g>
   <g id="text_26">
    <g id="patch_27">
     <path clip-path="url(#p16a6929b2d)" d="M 12.152992 92.861242 
L 12.152992 97.684992 
Q 12.152992 100.084992 14.552992 100.084992 
L 22.295492 100.084992 
Q 24.695492 100.084992 24.695492 97.684992 
L 24.695492 92.861242 
Q 24.695492 90.461242 22.295492 90.461242 
L 14.552992 90.461242 
Q 12.152992 90.461242 12.152992 92.861242 
z
" style="fill:#ffffff;stroke:#ffffff;stroke-linejoin:miter;"/>
    </g>
    <g clip-path="url(#p16a6929b2d)">
     <!-- P -->
     <g transform="translate(16.216742 92.861242)rotate(-270)scale(0.08 -0.08)">
      <use xlink:href="#DejaVuSans-80"/>
     </g>
    </g>
   </g>
   <g id="text_27">
    <g id="patch_28">
     <path clip-path="url(#p16a6929b2d)" d="M 12.152992 102.512048 
L 12.152992 107.335798 
Q 12.152992 109.735798 14.552992 109.735798 
L 22.295492 109.735798 
Q 24.695492 109.735798 24.695492 107.335798 
L 24.695492 102.512048 
Q 24.695492 100.112048 22.295492 100.112048 
L 14.552992 100.112048 
Q 12.152992 100.112048 12.152992 102.512048 
z
" style="fill:#ffffff;stroke:#ffffff;stroke-linejoin:miter;"/>
    </g>
    <g clip-path="url(#p16a6929b2d)">
     <!-- P -->
     <g transform="translate(16.216742 102.512048)rotate(-270)scale(0.08 -0.08)">
      <use xlink:href="#DejaVuSans-80"/>
     </g>
    </g>
   </g>
   <g id="text_28">
    <g id="patch_29">
     <path clip-path="url(#p16a6929b2d)" d="M 12.152992 111.822362 
L 12.152992 116.646112 
Q 12.152992 119.046112 14.552992 119.046112 
L 22.295492 119.046112 
Q 24.695492 119.046112 24.695492 116.646112 
L 24.695492 111.822362 
Q 24.695492 109.422362 22.295492 109.422362 
L 14.552992 109.422362 
Q 12.152992 109.422362 12.152992 111.822362 
z
" style="fill:#ffffff;stroke:#ffffff;stroke-linejoin:miter;"/>
    </g>
    <g clip-path="url(#p16a6929b2d)">
     <!-- P -->
     <g transform="translate(16.216742 111.822362)rotate(-270)scale(0.08 -0.08)">
      <use xlink:href="#DejaVuSans-80"/>
     </g>
    </g>
   </g>
   <g id="text_29">
    <g id="patch_30">
     <path clip-path="url(#p16a6929b2d)" d="M 12.152992 120.813414 
L 12.152992 125.637164 
Q 12.152992 128.037164 14.552992 128.037164 
L 22.295492 128.037164 
Q 24.695492 128.037164 24.695492 125.637164 
L 24.695492 120.813414 
Q 24.695492 118.413414 22.295492 118.413414 
L 14.552992 118.413414 
Q 12.152992 118.413414 12.152992 120.813414 
z
" style="fill:#ffffff;stroke:#ffffff;stroke-linejoin:miter;"/>
    </g>
    <g clip-path="url(#p16a6929b2d)">
     <!-- P -->
     <g transform="translate(16.216742 120.813414)rotate(-270)scale(0.08 -0.08)">
      <use xlink:href="#DejaVuSans-80"/>
     </g>
    </g>
   </g>
   <g id="text_30">
    <g id="patch_31">
     <path clip-path="url(#p16a6929b2d)" d="M 12.152992 129.505726 
L 12.152992 134.329476 
Q 12.152992 136.729476 14.552992 136.729476 
L 22.295492 136.729476 
Q 24.695492 136.729476 24.695492 134.329476 
L 24.695492 129.505726 
Q 24.695492 127.105726 22.295492 127.105726 
L 14.552992 127.105726 
Q 12.152992 127.105726 12.152992 129.505726 
z
" style="fill:#ffffff;stroke:#ffffff;stroke-linejoin:miter;"/>
    </g>
    <g clip-path="url(#p16a6929b2d)">
     <!-- P -->
     <g transform="translate(16.216742 129.505726)rotate(-270)scale(0.08 -0.08)">
      <use xlink:href="#DejaVuSans-80"/>
     </g>
    </g>
   </g>
   <g id="text_31">
    <g id="patch_32">
     <path clip-path="url(#p16a6929b2d)" d="M 12.152992 137.919286 
L 12.152992 142.743036 
Q 12.152992 145.143036 14.552992 145.143036 
L 22.295492 145.143036 
Q 24.695492 145.143036 24.695492 142.743036 
L 24.695492 137.919286 
Q 24.695492 135.519286 22.295492 135.519286 
L 14.552992 135.519286 
Q 12.152992 135.519286 12.152992 137.919286 
z
" style="fill:#ffffff;stroke:#ffffff;stroke-linejoin:miter;"/>
    </g>
    <g clip-path="url(#p16a6929b2d)">
     <!-- P -->
     <g transform="translate(16.216742 137.919286)rotate(-270)scale(0.08 -0.08)">
      <use xlink:href="#DejaVuSans-80"/>
     </g>
    </g>
   </g>
   <g id="text_32">
    <g id="patch_33">
     <path clip-path="url(#p16a6929b2d)" d="M 12.152992 146.073743 
L 12.152992 150.897493 
Q 12.152992 153.297493 14.552992 153.297493 
L 22.295492 153.297493 
Q 24.695492 153.297493 24.695492 150.897493 
L 24.695492 146.073743 
Q 24.695492 143.673743 22.295492 143.673743 
L 14.552992 143.673743 
Q 12.152992 143.673743 12.152992 146.073743 
z
" style="fill:#ffffff;stroke:#ffffff;stroke-linejoin:miter;"/>
    </g>
    <g clip-path="url(#p16a6929b2d)">
     <!-- P -->
     <g transform="translate(16.216742 146.073743)rotate(-270)scale(0.08 -0.08)">
      <use xlink:href="#DejaVuSans-80"/>
     </g>
    </g>
   </g>
   <g id="text_33">
    <g id="patch_34">
     <path clip-path="url(#p16a6929b2d)" d="M 12.152992 153.988665 
L 12.152992 158.812415 
Q 12.152992 161.212415 14.552992 161.212415 
L 22.295492 161.212415 
Q 24.695492 161.212415 24.695492 158.812415 
L 24.695492 153.988665 
Q 24.695492 151.588665 22.295492 151.588665 
L 14.552992 151.588665 
Q 12.152992 151.588665 12.152992 153.988665 
z
" style="fill:#ffffff;stroke:#ffffff;stroke-linejoin:miter;"/>
    </g>
    <g clip-path="url(#p16a6929b2d)">
     <!-- P -->
     <g transform="translate(16.216742 153.988665)rotate(-270)scale(0.08 -0.08)">
      <use xlink:href="#DejaVuSans-80"/>
     </g>
    </g>
   </g>
   <g id="text_34">
    <g id="patch_35">
     <path clip-path="url(#p16a6929b2d)" d="M 12.152992 161.6839 
L 12.152992 166.50765 
Q 12.152992 168.90765 14.552992 168.90765 
L 22.295492 168.90765 
Q 24.695492 168.90765 24.695492 166.50765 
L 24.695492 161.6839 
Q 24.695492 159.2839 22.295492 159.2839 
L 14.552992 159.2839 
Q 12.152992 159.2839 12.152992 161.6839 
z
" style="fill:#ffffff;stroke:#ffffff;stroke-linejoin:miter;"/>
    </g>
    <g clip-path="url(#p16a6929b2d)">
     <!-- P -->
     <g transform="translate(16.216742 161.6839)rotate(-270)scale(0.08 -0.08)">
      <use xlink:href="#DejaVuSans-80"/>
     </g>
    </g>
   </g>
   <g id="text_35">
    <g id="patch_36">
     <path clip-path="url(#p16a6929b2d)" d="M 12.152992 169.180105 
L 12.152992 174.003855 
Q 12.152992 176.403855 14.552992 176.403855 
L 22.295492 176.403855 
Q 24.695492 176.403855 24.695492 174.003855 
L 24.695492 169.180105 
Q 24.695492 166.780105 22.295492 166.780105 
L 14.552992 166.780105 
Q 12.152992 166.780105 12.152992 169.180105 
z
" style="fill:#ffffff;stroke:#ffffff;stroke-linejoin:miter;"/>
    </g>
    <g clip-path="url(#p16a6929b2d)">
     <!-- P -->
     <g transform="translate(16.216742 169.180105)rotate(-270)scale(0.08 -0.08)">
      <use xlink:href="#DejaVuSans-80"/>
     </g>
    </g>
   </g>
   <g id="text_36">
    <g id="patch_37">
     <path clip-path="url(#p16a6929b2d)" d="M 12.152992 176.499652 
L 12.152992 181.323402 
Q 12.152992 183.723402 14.552992 183.723402 
L 22.295492 183.723402 
Q 24.695492 183.723402 24.695492 181.323402 
L 24.695492 176.499652 
Q 24.695492 174.099652 22.295492 174.099652 
L 14.552992 174.099652 
Q 12.152992 174.099652 12.152992 176.499652 
z
" style="fill:#ffffff;stroke:#ffffff;stroke-linejoin:miter;"/>
    </g>
    <g clip-path="url(#p16a6929b2d)">
     <!-- P -->
     <g transform="translate(16.216742 176.499652)rotate(-270)scale(0.08 -0.08)">
      <use xlink:href="#DejaVuSans-80"/>
     </g>
    </g>
   </g>
   <g id="text_37">
    <g id="patch_38">
     <path clip-path="url(#p16a6929b2d)" d="M 12.152992 183.668389 
L 12.152992 188.492139 
Q 12.152992 190.892139 14.552992 190.892139 
L 22.295492 190.892139 
Q 24.695492 190.892139 24.695492 188.492139 
L 24.695492 183.668389 
Q 24.695492 181.268389 22.295492 181.268389 
L 14.552992 181.268389 
Q 12.152992 181.268389 12.152992 183.668389 
z
" style="fill:#ffffff;stroke:#ffffff;stroke-linejoin:miter;"/>
    </g>
    <g clip-path="url(#p16a6929b2d)">
     <!-- P -->
     <g transform="translate(16.216742 183.668389)rotate(-270)scale(0.08 -0.08)">
      <use xlink:href="#DejaVuSans-80"/>
     </g>
    </g>
   </g>
   <g id="text_38">
    <g id="patch_39">
     <path clip-path="url(#p16a6929b2d)" d="M 12.152992 190.720054 
L 12.152992 195.543804 
Q 12.152992 197.943804 14.552992 197.943804 
L 22.295492 197.943804 
Q 24.695492 197.943804 24.695492 195.543804 
L 24.695492 190.720054 
Q 24.695492 188.320054 22.295492 188.320054 
L 14.552992 188.320054 
Q 12.152992 188.320054 12.152992 190.720054 
z
" style="fill:#ffffff;stroke:#ffffff;stroke-linejoin:miter;"/>
    </g>
    <g clip-path="url(#p16a6929b2d)">
     <!-- P -->
     <g transform="translate(16.216742 190.720054)rotate(-270)scale(0.08 -0.08)">
      <use xlink:href="#DejaVuSans-80"/>
     </g>
    </g>
   </g>
   <g id="text_39">
    <g id="patch_40">
     <path clip-path="url(#p16a6929b2d)" d="M 12.152992 183.231136 
L 12.152992 217.038636 
Q 12.152992 219.438636 14.552992 219.438636 
L 22.295492 219.438636 
Q 24.695492 219.438636 24.695492 217.038636 
L 24.695492 183.231136 
Q 24.695492 180.831136 22.295492 180.831136 
L 14.552992 180.831136 
Q 12.152992 180.831136 12.152992 183.231136 
z
" style="fill:#ffffff;stroke:#ffffff;stroke-linejoin:miter;"/>
    </g>
    <g clip-path="url(#p16a6929b2d)">
     <!-- Terminal -->
     <g transform="translate(16.216742 183.231136)rotate(-270)scale(0.08 -0.08)">
      <use xlink:href="#DejaVuSans-84"/>
      <use x="44.083984" xlink:href="#DejaVuSans-101"/>
      <use x="105.607422" xlink:href="#DejaVuSans-114"/>
      <use x="144.970703" xlink:href="#DejaVuSans-109"/>
      <use x="242.382812" xlink:href="#DejaVuSans-105"/>
      <use x="270.166016" xlink:href="#DejaVuSans-110"/>
      <use x="333.544922" xlink:href="#DejaVuSans-97"/>
      <use x="394.824219" xlink:href="#DejaVuSans-108"/>
     </g>
    </g>
   </g>
   <g id="PathCollection_1">
    <defs>
     <path d="M 0 8.660254 
C 2.296726 8.660254 4.499694 7.747755 6.123724 6.123724 
C 7.747755 4.499694 8.660254 2.296726 8.660254 -0 
C 8.660254 -2.296726 7.747755 -4.499694 6.123724 -6.123724 
C 4.499694 -7.747755 2.296726 -8.660254 0 -8.660254 
C -2.296726 -8.660254 -4.499694 -7.747755 -6.123724 -6.123724 
C -7.747755 -4.499694 -8.660254 -2.296726 -8.660254 0 
C -8.660254 2.296726 -7.747755 4.499694 -6.123724 6.123724 
C -4.499694 7.747755 -2.296726 8.660254 0 8.660254 
z
" id="C0_0_dc549ff2e5"/>
    </defs>
    <g clip-path="url(#p16a6929b2d)">
     <use style="fill:#ffffff;stroke:#ffffff;" x="18.424242" xlink:href="#C0_0_dc549ff2e5" y="203.636364"/>
    </g>
    <g clip-path="url(#p16a6929b2d)">
     <use style="fill:#ffffff;stroke:#ffffff;" x="71.064935" xlink:href="#C0_0_dc549ff2e5" y="203.636364"/>
    </g>
    <g clip-path="url(#p16a6929b2d)">
     <use style="fill:#ffffff;stroke:#ffffff;" x="123.705628" xlink:href="#C0_0_dc549ff2e5" y="203.636364"/>
    </g>
    <g clip-path="url(#p16a6929b2d)">
     <use style="fill:#ffffff;stroke:#ffffff;" x="176.34632" xlink:href="#C0_0_dc549ff2e5" y="203.636364"/>
    </g>
    <g clip-path="url(#p16a6929b2d)">
     <use style="fill:#ffffff;stroke:#ffffff;" x="228.987013" xlink:href="#C0_0_dc549ff2e5" y="203.636364"/>
    </g>
    <g clip-path="url(#p16a6929b2d)">
     <use style="fill:#ffffff;stroke:#ffffff;" x="281.627706" xlink:href="#C0_0_dc549ff2e5" y="203.636364"/>
    </g>
    <g clip-path="url(#p16a6929b2d)">
     <use style="fill:#ffffff;stroke:#ffffff;" x="334.268398" xlink:href="#C0_0_dc549ff2e5" y="203.636364"/>
    </g>
    <g clip-path="url(#p16a6929b2d)">
     <use style="fill:#ffffff;stroke:#ffffff;" x="386.909091" xlink:href="#C0_0_dc549ff2e5" y="203.636364"/>
    </g>
    <g clip-path="url(#p16a6929b2d)">
     <use style="stroke:#000000;" x="121.073593" xlink:href="#C0_0_dc549ff2e5" y="9.69697"/>
    </g>
    <g clip-path="url(#p16a6929b2d)">
     <use style="stroke:#000000;" x="71.064935" xlink:href="#C0_0_dc549ff2e5" y="196.633407"/>
    </g>
    <g clip-path="url(#p16a6929b2d)">
     <use style="stroke:#000000;" x="176.34632" xlink:href="#C0_0_dc549ff2e5" y="189.630451"/>
    </g>
    <g clip-path="url(#p16a6929b2d)">
     <use style="stroke:#000000;" x="321.108225" xlink:href="#C0_0_dc549ff2e5" y="182.530076"/>
    </g>
    <g clip-path="url(#p16a6929b2d)">
     <use style="stroke:#000000;" x="18.424242" xlink:href="#C0_0_dc549ff2e5" y="22.681164"/>
    </g>
    <g clip-path="url(#p16a6929b2d)">
     <use style="stroke:#000000;" x="123.705628" xlink:href="#C0_0_dc549ff2e5" y="196.633407"/>
    </g>
    <g clip-path="url(#p16a6929b2d)">
     <use style="stroke:#000000;" x="176.34632" xlink:href="#C0_0_dc549ff2e5" y="196.633407"/>
    </g>
    <g clip-path="url(#p16a6929b2d)">
     <use style="stroke:#000000;" x="228.987013" xlink:href="#C0_0_dc549ff2e5" y="196.633407"/>
    </g>
    <g clip-path="url(#p16a6929b2d)">
     <use style="stroke:#000000;" x="281.627706" xlink:href="#C0_0_dc549ff2e5" y="196.633407"/>
    </g>
    <g clip-path="url(#p16a6929b2d)">
     <use style="stroke:#000000;" x="360.588745" xlink:href="#C0_0_dc549ff2e5" y="189.630451"/>
    </g>
    <g clip-path="url(#p16a6929b2d)">
     <use style="stroke:#000000;" x="18.424242" xlink:href="#C0_0_dc549ff2e5" y="35.129855"/>
    </g>
    <g clip-path="url(#p16a6929b2d)">
     <use style="stroke:#000000;" x="334.268398" xlink:href="#C0_0_dc549ff2e5" y="196.633407"/>
    </g>
    <g clip-path="url(#p16a6929b2d)">
     <use style="stroke:#000000;" x="386.909091" xlink:href="#C0_0_dc549ff2e5" y="196.633407"/>
    </g>
    <g clip-path="url(#p16a6929b2d)">
     <use style="stroke:#000000;" x="18.424242" xlink:href="#C0_0_dc549ff2e5" y="47.073768"/>
    </g>
    <g clip-path="url(#p16a6929b2d)">
     <use style="stroke:#000000;" x="18.424242" xlink:href="#C0_0_dc549ff2e5" y="58.541941"/>
    </g>
    <g clip-path="url(#p16a6929b2d)">
     <use style="stroke:#000000;" x="18.424242" xlink:href="#C0_0_dc549ff2e5" y="69.561861"/>
    </g>
    <g clip-path="url(#p16a6929b2d)">
     <use style="stroke:#000000;" x="18.424242" xlink:href="#C0_0_dc549ff2e5" y="80.159589"/>
    </g>
    <g clip-path="url(#p16a6929b2d)">
     <use style="stroke:#000000;" x="18.424242" xlink:href="#C0_0_dc549ff2e5" y="90.359888"/>
    </g>
    <g clip-path="url(#p16a6929b2d)">
     <use style="stroke:#000000;" x="18.424242" xlink:href="#C0_0_dc549ff2e5" y="100.186345"/>
    </g>
    <g clip-path="url(#p16a6929b2d)">
     <use style="stroke:#000000;" x="18.424242" xlink:href="#C0_0_dc549ff2e5" y="109.661501"/>
    </g>
    <g clip-path="url(#p16a6929b2d)">
     <use style="stroke:#000000;" x="18.424242" xlink:href="#C0_0_dc549ff2e5" y="118.806974"/>
    </g>
    <g clip-path="url(#p16a6929b2d)">
     <use style="stroke:#000000;" x="18.424242" xlink:href="#C0_0_dc549ff2e5" y="127.643603"/>
    </g>
    <g clip-path="url(#p16a6929b2d)">
     <use style="stroke:#000000;" x="18.424242" xlink:href="#C0_0_dc549ff2e5" y="136.191599"/>
    </g>
    <g clip-path="url(#p16a6929b2d)">
     <use style="stroke:#000000;" x="18.424242" xlink:href="#C0_0_dc549ff2e5" y="144.470723"/>
    </g>
    <g clip-path="url(#p16a6929b2d)">
     <use style="stroke:#000000;" x="18.424242" xlink:href="#C0_0_dc549ff2e5" y="152.500512"/>
    </g>
    <g clip-path="url(#p16a6929b2d)">
     <use style="stroke:#000000;" x="18.424242" xlink:href="#C0_0_dc549ff2e5" y="160.300569"/>
    </g>
    <g clip-path="url(#p16a6929b2d)">
     <use style="stroke:#000000;" x="18.424242" xlink:href="#C0_0_dc549ff2e5" y="167.890981"/>
    </g>
    <g clip-path="url(#p16a6929b2d)">
     <use style="stroke:#000000;" x="18.424242" xlink:href="#C0_0_dc549ff2e5" y="175.292978"/>
    </g>
    <g clip-path="url(#p16a6929b2d)">
     <use style="stroke:#000000;" x="18.424242" xlink:href="#C0_0_dc549ff2e5" y="182.530076"/>
    </g>
    <g clip-path="url(#p16a6929b2d)">
     <use style="stroke:#000000;" x="18.424242" xlink:href="#C0_0_dc549ff2e5" y="189.630451"/>
    </g>
    <g clip-path="url(#p16a6929b2d)">
     <use style="stroke:#000000;" x="18.424242" xlink:href="#C0_0_dc549ff2e5" y="196.633407"/>
    </g>
   </g>
   <g id="text_40">
    <g clip-path="url(#p16a6929b2d)">
     <!-- A -->
     <g transform="translate(15.00393 206.395739)scale(0.1 -0.1)">
      <use xlink:href="#DejaVuSans-65"/>
     </g>
    </g>
   </g>
   <g id="text_41">
    <g clip-path="url(#p16a6929b2d)">
     <!-- white -->
     <g transform="translate(57.381341 206.395739)scale(0.1 -0.1)">
      <defs>
       <path d="M 4.203125 54.6875 
L 13.1875 54.6875 
L 24.421875 12.015625 
L 35.59375 54.6875 
L 46.1875 54.6875 
L 57.421875 12.015625 
L 68.609375 54.6875 
L 77.59375 54.6875 
L 63.28125 0 
L 52.6875 0 
L 40.921875 44.828125 
L 29.109375 0 
L 18.5 0 
z
" id="DejaVuSans-119"/>
       <path d="M 54.890625 33.015625 
L 54.890625 0 
L 45.90625 0 
L 45.90625 32.71875 
Q 45.90625 40.484375 42.875 44.328125 
Q 39.84375 48.1875 33.796875 48.1875 
Q 26.515625 48.1875 22.3125 43.546875 
Q 18.109375 38.921875 18.109375 30.90625 
L 18.109375 0 
L 9.078125 0 
L 9.078125 75.984375 
L 18.109375 75.984375 
L 18.109375 46.1875 
Q 21.34375 51.125 25.703125 53.5625 
Q 30.078125 56 35.796875 56 
Q 45.21875 56 50.046875 50.171875 
Q 54.890625 44.34375 54.890625 33.015625 
z
" id="DejaVuSans-104"/>
       <path d="M 18.3125 70.21875 
L 18.3125 54.6875 
L 36.8125 54.6875 
L 36.8125 47.703125 
L 18.3125 47.703125 
L 18.3125 18.015625 
Q 18.3125 11.328125 20.140625 9.421875 
Q 21.96875 7.515625 27.59375 7.515625 
L 36.8125 7.515625 
L 36.8125 0 
L 27.59375 0 
Q 17.1875 0 13.234375 3.875 
Q 9.28125 7.765625 9.28125 18.015625 
L 9.28125 47.703125 
L 2.6875 47.703125 
L 2.6875 54.6875 
L 9.28125 54.6875 
L 9.28125 70.21875 
z
" id="DejaVuSans-116"/>
      </defs>
      <use xlink:href="#DejaVuSans-119"/>
      <use x="81.787109" xlink:href="#DejaVuSans-104"/>
      <use x="145.166016" xlink:href="#DejaVuSans-105"/>
      <use x="172.949219" xlink:href="#DejaVuSans-116"/>
      <use x="212.158203" xlink:href="#DejaVuSans-101"/>
     </g>
    </g>
   </g>
   <g id="text_42">
    <g clip-path="url(#p16a6929b2d)">
     <!-- object -->
     <g transform="translate(108.297034 206.395739)scale(0.1 -0.1)">
      <defs>
       <path d="M 30.609375 48.390625 
Q 23.390625 48.390625 19.1875 42.75 
Q 14.984375 37.109375 14.984375 27.296875 
Q 14.984375 17.484375 19.15625 11.84375 
Q 23.34375 6.203125 30.609375 6.203125 
Q 37.796875 6.203125 41.984375 11.859375 
Q 46.1875 17.53125 46.1875 27.296875 
Q 46.1875 37.015625 41.984375 42.703125 
Q 37.796875 48.390625 30.609375 48.390625 
z
M 30.609375 56 
Q 42.328125 56 49.015625 48.375 
Q 55.71875 40.765625 55.71875 27.296875 
Q 55.71875 13.875 49.015625 6.21875 
Q 42.328125 -1.421875 30.609375 -1.421875 
Q 18.84375 -1.421875 12.171875 6.21875 
Q 5.515625 13.875 5.515625 27.296875 
Q 5.515625 40.765625 12.171875 48.375 
Q 18.84375 56 30.609375 56 
z
" id="DejaVuSans-111"/>
       <path d="M 48.6875 27.296875 
Q 48.6875 37.203125 44.609375 42.84375 
Q 40.53125 48.484375 33.40625 48.484375 
Q 26.265625 48.484375 22.1875 42.84375 
Q 18.109375 37.203125 18.109375 27.296875 
Q 18.109375 17.390625 22.1875 11.75 
Q 26.265625 6.109375 33.40625 6.109375 
Q 40.53125 6.109375 44.609375 11.75 
Q 48.6875 17.390625 48.6875 27.296875 
z
M 18.109375 46.390625 
Q 20.953125 51.265625 25.265625 53.625 
Q 29.59375 56 35.59375 56 
Q 45.5625 56 51.78125 48.09375 
Q 58.015625 40.1875 58.015625 27.296875 
Q 58.015625 14.40625 51.78125 6.484375 
Q 45.5625 -1.421875 35.59375 -1.421875 
Q 29.59375 -1.421875 25.265625 0.953125 
Q 20.953125 3.328125 18.109375 8.203125 
L 18.109375 0 
L 9.078125 0 
L 9.078125 75.984375 
L 18.109375 75.984375 
z
" id="DejaVuSans-98"/>
       <path d="M 9.421875 54.6875 
L 18.40625 54.6875 
L 18.40625 -0.984375 
Q 18.40625 -11.421875 14.421875 -16.109375 
Q 10.453125 -20.796875 1.609375 -20.796875 
L -1.8125 -20.796875 
L -1.8125 -13.1875 
L 0.59375 -13.1875 
Q 5.71875 -13.1875 7.5625 -10.8125 
Q 9.421875 -8.453125 9.421875 -0.984375 
z
M 9.421875 75.984375 
L 18.40625 75.984375 
L 18.40625 64.59375 
L 9.421875 64.59375 
z
" id="DejaVuSans-106"/>
       <path d="M 48.78125 52.59375 
L 48.78125 44.1875 
Q 44.96875 46.296875 41.140625 47.34375 
Q 37.3125 48.390625 33.40625 48.390625 
Q 24.65625 48.390625 19.8125 42.84375 
Q 14.984375 37.3125 14.984375 27.296875 
Q 14.984375 17.28125 19.8125 11.734375 
Q 24.65625 6.203125 33.40625 6.203125 
Q 37.3125 6.203125 41.140625 7.25 
Q 44.96875 8.296875 48.78125 10.40625 
L 48.78125 2.09375 
Q 45.015625 0.34375 40.984375 -0.53125 
Q 36.96875 -1.421875 32.421875 -1.421875 
Q 20.0625 -1.421875 12.78125 6.34375 
Q 5.515625 14.109375 5.515625 27.296875 
Q 5.515625 40.671875 12.859375 48.328125 
Q 20.21875 56 33.015625 56 
Q 37.15625 56 41.109375 55.140625 
Q 45.0625 54.296875 48.78125 52.59375 
z
" id="DejaVuSans-99"/>
      </defs>
      <use xlink:href="#DejaVuSans-111"/>
      <use x="61.181641" xlink:href="#DejaVuSans-98"/>
      <use x="124.658203" xlink:href="#DejaVuSans-106"/>
      <use x="152.441406" xlink:href="#DejaVuSans-101"/>
      <use x="213.964844" xlink:href="#DejaVuSans-99"/>
      <use x="268.945312" xlink:href="#DejaVuSans-116"/>
     </g>
    </g>
   </g>
   <g id="text_43">
    <g clip-path="url(#p16a6929b2d)">
     <!-- reflects -->
     <g transform="translate(157.786945 206.395739)scale(0.1 -0.1)">
      <defs>
       <path d="M 37.109375 75.984375 
L 37.109375 68.5 
L 28.515625 68.5 
Q 23.6875 68.5 21.796875 66.546875 
Q 19.921875 64.59375 19.921875 59.515625 
L 19.921875 54.6875 
L 34.71875 54.6875 
L 34.71875 47.703125 
L 19.921875 47.703125 
L 19.921875 0 
L 10.890625 0 
L 10.890625 47.703125 
L 2.296875 47.703125 
L 2.296875 54.6875 
L 10.890625 54.6875 
L 10.890625 58.5 
Q 10.890625 67.625 15.140625 71.796875 
Q 19.390625 75.984375 28.609375 75.984375 
z
" id="DejaVuSans-102"/>
       <path d="M 44.28125 53.078125 
L 44.28125 44.578125 
Q 40.484375 46.53125 36.375 47.5 
Q 32.28125 48.484375 27.875 48.484375 
Q 21.1875 48.484375 17.84375 46.4375 
Q 14.5 44.390625 14.5 40.28125 
Q 14.5 37.15625 16.890625 35.375 
Q 19.28125 33.59375 26.515625 31.984375 
L 29.59375 31.296875 
Q 39.15625 29.25 43.1875 25.515625 
Q 47.21875 21.78125 47.21875 15.09375 
Q 47.21875 7.46875 41.1875 3.015625 
Q 35.15625 -1.421875 24.609375 -1.421875 
Q 20.21875 -1.421875 15.453125 -0.5625 
Q 10.6875 0.296875 5.421875 2 
L 5.421875 11.28125 
Q 10.40625 8.6875 15.234375 7.390625 
Q 20.0625 6.109375 24.8125 6.109375 
Q 31.15625 6.109375 34.5625 8.28125 
Q 37.984375 10.453125 37.984375 14.40625 
Q 37.984375 18.0625 35.515625 20.015625 
Q 33.0625 21.96875 24.703125 23.78125 
L 21.578125 24.515625 
Q 13.234375 26.265625 9.515625 29.90625 
Q 5.8125 33.546875 5.8125 39.890625 
Q 5.8125 47.609375 11.28125 51.796875 
Q 16.75 56 26.8125 56 
Q 31.78125 56 36.171875 55.265625 
Q 40.578125 54.546875 44.28125 53.078125 
z
" id="DejaVuSans-115"/>
      </defs>
      <use xlink:href="#DejaVuSans-114"/>
      <use x="38.863281" xlink:href="#DejaVuSans-101"/>
      <use x="100.386719" xlink:href="#DejaVuSans-102"/>
      <use x="135.591797" xlink:href="#DejaVuSans-108"/>
      <use x="163.375" xlink:href="#DejaVuSans-101"/>
      <use x="224.898438" xlink:href="#DejaVuSans-99"/>
      <use x="279.878906" xlink:href="#DejaVuSans-116"/>
      <use x="319.087891" xlink:href="#DejaVuSans-115"/>
     </g>
    </g>
   </g>
   <g id="text_44">
    <g clip-path="url(#p16a6929b2d)">
     <!-- all -->
     <g transform="translate(223.144825 206.395739)scale(0.1 -0.1)">
      <use xlink:href="#DejaVuSans-97"/>
      <use x="61.279297" xlink:href="#DejaVuSans-108"/>
      <use x="89.0625" xlink:href="#DejaVuSans-108"/>
     </g>
    </g>
   </g>
   <g id="text_45">
    <g clip-path="url(#p16a6929b2d)">
     <!-- visible -->
     <g transform="translate(265.645674 206.395739)scale(0.1 -0.1)">
      <defs>
       <path d="M 2.984375 54.6875 
L 12.5 54.6875 
L 29.59375 8.796875 
L 46.6875 54.6875 
L 56.203125 54.6875 
L 35.6875 0 
L 23.484375 0 
z
" id="DejaVuSans-118"/>
      </defs>
      <use xlink:href="#DejaVuSans-118"/>
      <use x="59.179688" xlink:href="#DejaVuSans-105"/>
      <use x="86.962891" xlink:href="#DejaVuSans-115"/>
      <use x="139.0625" xlink:href="#DejaVuSans-105"/>
      <use x="166.845703" xlink:href="#DejaVuSans-98"/>
      <use x="230.322266" xlink:href="#DejaVuSans-108"/>
      <use x="258.105469" xlink:href="#DejaVuSans-101"/>
     </g>
    </g>
   </g>
   <g id="text_46">
    <g clip-path="url(#p16a6929b2d)">
     <!-- light -->
     <g transform="translate(323.187148 206.395739)scale(0.1 -0.1)">
      <defs>
       <path d="M 45.40625 27.984375 
Q 45.40625 37.75 41.375 43.109375 
Q 37.359375 48.484375 30.078125 48.484375 
Q 22.859375 48.484375 18.828125 43.109375 
Q 14.796875 37.75 14.796875 27.984375 
Q 14.796875 18.265625 18.828125 12.890625 
Q 22.859375 7.515625 30.078125 7.515625 
Q 37.359375 7.515625 41.375 12.890625 
Q 45.40625 18.265625 45.40625 27.984375 
z
M 54.390625 6.78125 
Q 54.390625 -7.171875 48.1875 -13.984375 
Q 42 -20.796875 29.203125 -20.796875 
Q 24.46875 -20.796875 20.265625 -20.09375 
Q 16.0625 -19.390625 12.109375 -17.921875 
L 12.109375 -9.1875 
Q 16.0625 -11.328125 19.921875 -12.34375 
Q 23.78125 -13.375 27.78125 -13.375 
Q 36.625 -13.375 41.015625 -8.765625 
Q 45.40625 -4.15625 45.40625 5.171875 
L 45.40625 9.625 
Q 42.625 4.78125 38.28125 2.390625 
Q 33.9375 0 27.875 0 
Q 17.828125 0 11.671875 7.65625 
Q 5.515625 15.328125 5.515625 27.984375 
Q 5.515625 40.671875 11.671875 48.328125 
Q 17.828125 56 27.875 56 
Q 33.9375 56 38.28125 53.609375 
Q 42.625 51.21875 45.40625 46.390625 
L 45.40625 54.6875 
L 54.390625 54.6875 
z
" id="DejaVuSans-103"/>
      </defs>
      <use xlink:href="#DejaVuSans-108"/>
      <use x="27.783203" xlink:href="#DejaVuSans-105"/>
      <use x="55.566406" xlink:href="#DejaVuSans-103"/>
      <use x="119.042969" xlink:href="#DejaVuSans-104"/>
      <use x="182.421875" xlink:href="#DejaVuSans-116"/>
     </g>
    </g>
   </g>
   <g id="text_47">
    <g clip-path="url(#p16a6929b2d)">
     <!-- . -->
     <g transform="translate(385.320028 206.395739)scale(0.1 -0.1)">
      <defs>
       <path d="M 10.6875 12.40625 
L 21 12.40625 
L 21 0 
L 10.6875 0 
z
" id="DejaVuSans-46"/>
      </defs>
      <use xlink:href="#DejaVuSans-46"/>
     </g>
    </g>
   </g>
  </g>
 </g>
 <defs>
  <clipPath id="p16a6929b2d">
   <rect height="213.333333" width="405.333333" x="0" y="0"/>
  </clipPath>
 </defs>
</svg>
