<?xml version="1.0" encoding="utf-8" standalone="no"?>
<!DOCTYPE svg PUBLIC "-//W3C//DTD SVG 1.1//EN"
  "http://www.w3.org/Graphics/SVG/1.1/DTD/svg11.dtd">
<!-- Created with matplotlib (https://matplotlib.org/) -->
<svg height="320pt" version="1.1" viewBox="0 0 608 320" width="608pt" xmlns="http://www.w3.org/2000/svg" xmlns:xlink="http://www.w3.org/1999/xlink">
 <metadata>
  <rdf:RDF xmlns:cc="http://creativecommons.org/ns#" xmlns:dc="http://purl.org/dc/elements/1.1/" xmlns:rdf="http://www.w3.org/1999/02/22-rdf-syntax-ns#">
   <cc:Work>
    <dc:type rdf:resource="http://purl.org/dc/dcmitype/StillImage"/>
    <dc:date>2021-05-19T11:42:25.944514</dc:date>
    <dc:format>image/svg+xml</dc:format>
    <dc:creator>
     <cc:Agent>
      <dc:title>Matplotlib v3.3.4, https://matplotlib.org/</dc:title>
     </cc:Agent>
    </dc:creator>
   </cc:Work>
  </rdf:RDF>
 </metadata>
 <defs>
  <style type="text/css">*{stroke-linecap:butt;stroke-linejoin:round;}</style>
 </defs>
 <g id="figure_1">
  <g id="patch_1">
   <path d="M 0 320 
L 608 320 
L 608 0 
L 0 0 
z
" style="fill:#ffffff;"/>
  </g>
  <g id="axes_1">
   <g id="LineCollection_1">
    <path clip-path="url(#p59cea6eea1)" d="M 204.899908 14.545455 
L 77.884298 294.950111 
" style="fill:none;stroke:#000000;"/>
    <path clip-path="url(#p59cea6eea1)" d="M 204.899908 14.545455 
L 178.380165 284.445677 
" style="fill:none;stroke:#000000;"/>
    <path clip-path="url(#p59cea6eea1)" d="M 204.899908 14.545455 
L 337.498623 262.939468 
" style="fill:none;stroke:#000000;"/>
    <path clip-path="url(#p59cea6eea1)" d="M 204.899908 14.545455 
L 580.363636 294.950111 
" style="fill:none;stroke:#000000;"/>
    <path clip-path="url(#p59cea6eea1)" d="M 204.899908 14.545455 
L 27.636364 34.021746 
" style="fill:none;stroke:#000000;"/>
    <path clip-path="url(#p59cea6eea1)" d="M 204.899908 14.545455 
L 27.636364 294.950111 
" style="fill:none;stroke:#000000;stroke-dasharray:3.7,1.6;stroke-dashoffset:0;"/>
    <path clip-path="url(#p59cea6eea1)" d="M 77.884298 294.950111 
L 77.884298 305.454545 
" style="fill:none;stroke:#000000;"/>
    <path clip-path="url(#p59cea6eea1)" d="M 178.380165 284.445677 
L 128.132231 294.950111 
" style="fill:none;stroke:#000000;"/>
    <path clip-path="url(#p59cea6eea1)" d="M 178.380165 284.445677 
L 178.380165 294.950111 
" style="fill:none;stroke:#000000;"/>
    <path clip-path="url(#p59cea6eea1)" d="M 178.380165 284.445677 
L 228.628099 294.950111 
" style="fill:none;stroke:#000000;"/>
    <path clip-path="url(#p59cea6eea1)" d="M 337.498623 262.939468 
L 278.876033 294.950111 
" style="fill:none;stroke:#000000;"/>
    <path clip-path="url(#p59cea6eea1)" d="M 337.498623 262.939468 
L 396.121212 273.795115 
" style="fill:none;stroke:#000000;"/>
    <path clip-path="url(#p59cea6eea1)" d="M 580.363636 294.950111 
L 580.363636 305.454545 
" style="fill:none;stroke:#000000;"/>
    <path clip-path="url(#p59cea6eea1)" d="M 27.636364 34.021746 
L 27.636364 52.694782 
" style="fill:none;stroke:#000000;"/>
    <path clip-path="url(#p59cea6eea1)" d="M 128.132231 294.950111 
L 128.132231 305.454545 
" style="fill:none;stroke:#000000;"/>
    <path clip-path="url(#p59cea6eea1)" d="M 178.380165 294.950111 
L 178.380165 305.454545 
" style="fill:none;stroke:#000000;"/>
    <path clip-path="url(#p59cea6eea1)" d="M 228.628099 294.950111 
L 228.628099 305.454545 
" style="fill:none;stroke:#000000;"/>
    <path clip-path="url(#p59cea6eea1)" d="M 278.876033 294.950111 
L 278.876033 305.454545 
" style="fill:none;stroke:#000000;"/>
    <path clip-path="url(#p59cea6eea1)" d="M 396.121212 273.795115 
L 329.123967 294.950111 
" style="fill:none;stroke:#000000;"/>
    <path clip-path="url(#p59cea6eea1)" d="M 396.121212 273.795115 
L 379.371901 294.950111 
" style="fill:none;stroke:#000000;"/>
    <path clip-path="url(#p59cea6eea1)" d="M 396.121212 273.795115 
L 479.867769 284.445677 
" style="fill:none;stroke:#000000;"/>
    <path clip-path="url(#p59cea6eea1)" d="M 27.636364 52.694782 
L 27.636364 70.610651 
" style="fill:none;stroke:#000000;"/>
    <path clip-path="url(#p59cea6eea1)" d="M 329.123967 294.950111 
L 329.123967 305.454545 
" style="fill:none;stroke:#000000;"/>
    <path clip-path="url(#p59cea6eea1)" d="M 379.371901 294.950111 
L 379.371901 305.454545 
" style="fill:none;stroke:#000000;"/>
    <path clip-path="url(#p59cea6eea1)" d="M 479.867769 284.445677 
L 429.619835 294.950111 
" style="fill:none;stroke:#000000;"/>
    <path clip-path="url(#p59cea6eea1)" d="M 479.867769 284.445677 
L 479.867769 294.950111 
" style="fill:none;stroke:#000000;"/>
    <path clip-path="url(#p59cea6eea1)" d="M 479.867769 284.445677 
L 530.115702 294.950111 
" style="fill:none;stroke:#000000;"/>
    <path clip-path="url(#p59cea6eea1)" d="M 27.636364 70.610651 
L 27.636364 87.812912 
" style="fill:none;stroke:#000000;"/>
    <path clip-path="url(#p59cea6eea1)" d="M 429.619835 294.950111 
L 429.619835 305.454545 
" style="fill:none;stroke:#000000;"/>
    <path clip-path="url(#p59cea6eea1)" d="M 479.867769 294.950111 
L 479.867769 305.454545 
" style="fill:none;stroke:#000000;"/>
    <path clip-path="url(#p59cea6eea1)" d="M 530.115702 294.950111 
L 530.115702 305.454545 
" style="fill:none;stroke:#000000;"/>
    <path clip-path="url(#p59cea6eea1)" d="M 27.636364 87.812912 
L 27.636364 104.342792 
" style="fill:none;stroke:#000000;"/>
    <path clip-path="url(#p59cea6eea1)" d="M 27.636364 104.342792 
L 27.636364 120.239384 
" style="fill:none;stroke:#000000;"/>
    <path clip-path="url(#p59cea6eea1)" d="M 27.636364 120.239384 
L 27.636364 135.539832 
" style="fill:none;stroke:#000000;"/>
    <path clip-path="url(#p59cea6eea1)" d="M 27.636364 135.539832 
L 27.636364 150.279518 
" style="fill:none;stroke:#000000;"/>
    <path clip-path="url(#p59cea6eea1)" d="M 27.636364 150.279518 
L 27.636364 164.492251 
" style="fill:none;stroke:#000000;"/>
    <path clip-path="url(#p59cea6eea1)" d="M 27.636364 164.492251 
L 27.636364 178.210461 
" style="fill:none;stroke:#000000;"/>
    <path clip-path="url(#p59cea6eea1)" d="M 27.636364 178.210461 
L 27.636364 191.465405 
" style="fill:none;stroke:#000000;"/>
    <path clip-path="url(#p59cea6eea1)" d="M 27.636364 191.465405 
L 27.636364 204.287398 
" style="fill:none;stroke:#000000;"/>
    <path clip-path="url(#p59cea6eea1)" d="M 27.636364 204.287398 
L 27.636364 216.706085 
" style="fill:none;stroke:#000000;"/>
    <path clip-path="url(#p59cea6eea1)" d="M 27.636364 216.706085 
L 27.636364 228.750768 
" style="fill:none;stroke:#000000;"/>
    <path clip-path="url(#p59cea6eea1)" d="M 27.636364 228.750768 
L 27.636364 240.450853 
" style="fill:none;stroke:#000000;"/>
    <path clip-path="url(#p59cea6eea1)" d="M 27.636364 240.450853 
L 27.636364 251.836472 
" style="fill:none;stroke:#000000;"/>
    <path clip-path="url(#p59cea6eea1)" d="M 27.636364 251.836472 
L 27.636364 262.939468 
" style="fill:none;stroke:#000000;"/>
    <path clip-path="url(#p59cea6eea1)" d="M 27.636364 262.939468 
L 27.636364 273.795115 
" style="fill:none;stroke:#000000;"/>
    <path clip-path="url(#p59cea6eea1)" d="M 27.636364 273.795115 
L 27.636364 284.445677 
" style="fill:none;stroke:#000000;"/>
    <path clip-path="url(#p59cea6eea1)" d="M 27.636364 284.445677 
L 27.636364 294.950111 
" style="fill:none;stroke:#000000;"/>
    <path clip-path="url(#p59cea6eea1)" d="M 27.636364 294.950111 
L 27.636364 305.454545 
" style="fill:none;stroke:#000000;"/>
   </g>
   <g id="text_1">
    <g id="patch_2">
     <path clip-path="url(#p59cea6eea1)" d="M 146.155346 159.431048 
L 148.053891 155.239744 
Q 149.044168 153.053571 146.857995 152.063294 
L 139.805309 148.868622 
Q 137.619136 147.878345 136.62886 150.064518 
L 134.730314 154.255822 
Q 133.740038 156.441995 135.926211 157.432271 
L 142.978896 160.626944 
Q 145.16507 161.617221 146.155346 159.431048 
z
" style="fill:#ffffff;stroke:#ffffff;stroke-linejoin:miter;"/>
    </g>
    <g clip-path="url(#p59cea6eea1)">
     <!-- F -->
     <g transform="translate(142.453654 157.754283)rotate(-65.630779)scale(0.08 -0.08)">
      <defs>
       <path d="M 9.8125 72.90625 
L 51.703125 72.90625 
L 51.703125 64.59375 
L 19.671875 64.59375 
L 19.671875 43.109375 
L 48.578125 43.109375 
L 48.578125 34.8125 
L 19.671875 34.8125 
L 19.671875 0 
L 9.8125 0 
z
" id="DejaVuSans-70"/>
      </defs>
      <use xlink:href="#DejaVuSans-70"/>
     </g>
    </g>
   </g>
   <g id="text_2">
    <g id="patch_3">
     <path clip-path="url(#p59cea6eea1)" d="M 197.613662 152.831947 
L 198.1488 147.385674 
Q 198.383488 144.997176 195.99499 144.762488 
L 188.289597 144.005375 
Q 185.901099 143.770687 185.666411 146.159185 
L 185.131274 151.605457 
Q 184.896586 153.993955 187.285083 154.228643 
L 194.990477 154.985756 
Q 197.378974 155.220444 197.613662 152.831947 
z
" style="fill:#ffffff;stroke:#ffffff;stroke-linejoin:miter;"/>
    </g>
    <g clip-path="url(#p59cea6eea1)">
     <!-- A -->
     <g transform="translate(193.569388 152.434566)rotate(-84.388269)scale(0.08 -0.08)">
      <defs>
       <path d="M 34.1875 63.1875 
L 20.796875 26.90625 
L 47.609375 26.90625 
z
M 28.609375 72.90625 
L 39.796875 72.90625 
L 67.578125 0 
L 57.328125 0 
L 50.6875 18.703125 
L 17.828125 18.703125 
L 11.1875 0 
L 0.78125 0 
z
" id="DejaVuSans-65"/>
      </defs>
      <use xlink:href="#DejaVuSans-65"/>
     </g>
    </g>
   </g>
   <g id="text_3">
    <g id="patch_4">
     <path clip-path="url(#p59cea6eea1)" d="M 264.471081 139.455583 
L 266.862793 143.93592 
Q 267.993014 146.053135 270.110229 144.922914 
L 276.940455 141.276775 
Q 279.05767 140.146555 277.927449 138.029339 
L 275.535738 133.549003 
Q 274.405517 131.431787 272.288301 132.562008 
L 265.458076 136.208147 
Q 263.340861 137.338367 264.471081 139.455583 
z
" style="fill:#ffffff;stroke:#ffffff;stroke-linejoin:miter;"/>
    </g>
    <g clip-path="url(#p59cea6eea1)">
     <!-- S -->
     <g transform="translate(268.056012 137.54186)rotate(-298.094375)scale(0.08 -0.08)">
      <defs>
       <path d="M 53.515625 70.515625 
L 53.515625 60.890625 
Q 47.90625 63.578125 42.921875 64.890625 
Q 37.9375 66.21875 33.296875 66.21875 
Q 25.25 66.21875 20.875 63.09375 
Q 16.5 59.96875 16.5 54.203125 
Q 16.5 49.359375 19.40625 46.890625 
Q 22.3125 44.4375 30.421875 42.921875 
L 36.375 41.703125 
Q 47.40625 39.59375 52.65625 34.296875 
Q 57.90625 29 57.90625 20.125 
Q 57.90625 9.515625 50.796875 4.046875 
Q 43.703125 -1.421875 29.984375 -1.421875 
Q 24.8125 -1.421875 18.96875 -0.25 
Q 13.140625 0.921875 6.890625 3.21875 
L 6.890625 13.375 
Q 12.890625 10.015625 18.65625 8.296875 
Q 24.421875 6.59375 29.984375 6.59375 
Q 38.421875 6.59375 43.015625 9.90625 
Q 47.609375 13.234375 47.609375 19.390625 
Q 47.609375 24.75 44.3125 27.78125 
Q 41.015625 30.8125 33.5 32.328125 
L 27.484375 33.5 
Q 16.453125 35.6875 11.515625 40.375 
Q 6.59375 45.0625 6.59375 53.421875 
Q 6.59375 63.09375 13.40625 68.65625 
Q 20.21875 74.21875 32.171875 74.21875 
Q 37.3125 74.21875 42.625 73.28125 
Q 47.953125 72.359375 53.515625 70.515625 
z
" id="DejaVuSans-83"/>
      </defs>
      <use xlink:href="#DejaVuSans-83"/>
     </g>
    </g>
   </g>
   <g id="text_4">
    <g id="patch_5">
     <path clip-path="url(#p59cea6eea1)" d="M 386.533676 158.020711 
L 391.224822 161.524163 
Q 393.147751 162.960249 394.583837 161.03732 
L 399.216711 154.83387 
Q 400.652797 152.910941 398.729868 151.474855 
L 394.038723 147.971403 
Q 392.115793 146.535317 390.679707 148.458246 
L 386.046833 154.661695 
Q 384.610747 156.584625 386.533676 158.020711 
z
" style="fill:#ffffff;stroke:#ffffff;stroke-linejoin:miter;"/>
    </g>
    <g clip-path="url(#p59cea6eea1)">
     <!-- U -->
     <g transform="translate(388.965299 154.764751)rotate(-323.246807)scale(0.08 -0.08)">
      <defs>
       <path d="M 8.6875 72.90625 
L 18.609375 72.90625 
L 18.609375 28.609375 
Q 18.609375 16.890625 22.84375 11.734375 
Q 27.09375 6.59375 36.625 6.59375 
Q 46.09375 6.59375 50.34375 11.734375 
Q 54.59375 16.890625 54.59375 28.609375 
L 54.59375 72.90625 
L 64.5 72.90625 
L 64.5 27.390625 
Q 64.5 13.140625 57.4375 5.859375 
Q 50.390625 -1.421875 36.625 -1.421875 
Q 22.796875 -1.421875 15.734375 5.859375 
Q 8.6875 13.140625 8.6875 27.390625 
z
" id="DejaVuSans-85"/>
      </defs>
      <use xlink:href="#DejaVuSans-85"/>
     </g>
    </g>
   </g>
   <g id="text_5">
    <g id="patch_6">
     <path clip-path="url(#p59cea6eea1)" d="M 114.555601 30.780749 
L 119.350496 30.253925 
Q 121.73614 29.991809 121.474025 27.606166 
L 120.62843 19.90998 
Q 120.366314 17.524336 117.980671 17.786452 
L 113.185775 18.313276 
Q 110.800132 18.575392 111.062247 20.961035 
L 111.907842 28.657221 
Q 112.169957 31.042865 114.555601 30.780749 
z
" style="fill:#ffffff;stroke:#ffffff;stroke-linejoin:miter;"/>
    </g>
    <g clip-path="url(#p59cea6eea1)">
     <!-- P -->
     <g transform="translate(114.11178 26.741308)rotate(-6.27005)scale(0.08 -0.08)">
      <defs>
       <path d="M 19.671875 64.796875 
L 19.671875 37.40625 
L 32.078125 37.40625 
Q 38.96875 37.40625 42.71875 40.96875 
Q 46.484375 44.53125 46.484375 51.125 
Q 46.484375 57.671875 42.71875 61.234375 
Q 38.96875 64.796875 32.078125 64.796875 
z
M 9.8125 72.90625 
L 32.078125 72.90625 
Q 44.34375 72.90625 50.609375 67.359375 
Q 56.890625 61.8125 56.890625 51.125 
Q 56.890625 40.328125 50.609375 34.8125 
Q 44.34375 29.296875 32.078125 29.296875 
L 19.671875 29.296875 
L 19.671875 0 
L 9.8125 0 
z
" id="DejaVuSans-80"/>
      </defs>
      <use xlink:href="#DejaVuSans-80"/>
     </g>
    </g>
   </g>
   <g id="text_6">
    <g id="patch_7">
     <path clip-path="url(#p59cea6eea1)" d="M 120.106876 160.411679 
L 123.031108 155.785977 
Q 124.313549 153.757345 122.284918 152.474904 
L 115.740468 148.337697 
Q 113.711837 147.055256 112.429396 149.083887 
L 109.505164 153.709589 
Q 108.222723 155.738221 110.251354 157.020662 
L 116.795804 161.157869 
Q 118.824435 162.44031 120.106876 160.411679 
z
" style="fill:#ffffff;stroke:#ffffff;stroke-linejoin:miter;"/>
    </g>
    <g clip-path="url(#p59cea6eea1)">
     <!-- A -->
     <g transform="translate(116.671938 158.240212)rotate(-57.700134)scale(0.08 -0.08)">
      <use xlink:href="#DejaVuSans-65"/>
     </g>
    </g>
   </g>
   <g id="text_7">
    <g id="patch_8">
     <path clip-path="url(#p59cea6eea1)" d="M 71.613048 283.298578 
L 71.613048 317.106078 
Q 71.613048 319.506078 74.013048 319.506078 
L 81.755548 319.506078 
Q 84.155548 319.506078 84.155548 317.106078 
L 84.155548 283.298578 
Q 84.155548 280.898578 81.755548 280.898578 
L 74.013048 280.898578 
Q 71.613048 280.898578 71.613048 283.298578 
z
" style="fill:#ffffff;stroke:#ffffff;stroke-linejoin:miter;"/>
    </g>
    <g clip-path="url(#p59cea6eea1)">
     <!-- Terminal -->
     <g transform="translate(75.676798 283.298578)rotate(-270)scale(0.08 -0.08)">
      <defs>
       <path d="M -0.296875 72.90625 
L 61.375 72.90625 
L 61.375 64.59375 
L 35.5 64.59375 
L 35.5 0 
L 25.59375 0 
L 25.59375 64.59375 
L -0.296875 64.59375 
z
" id="DejaVuSans-84"/>
       <path d="M 56.203125 29.59375 
L 56.203125 25.203125 
L 14.890625 25.203125 
Q 15.484375 15.921875 20.484375 11.0625 
Q 25.484375 6.203125 34.421875 6.203125 
Q 39.59375 6.203125 44.453125 7.46875 
Q 49.3125 8.734375 54.109375 11.28125 
L 54.109375 2.78125 
Q 49.265625 0.734375 44.1875 -0.34375 
Q 39.109375 -1.421875 33.890625 -1.421875 
Q 20.796875 -1.421875 13.15625 6.1875 
Q 5.515625 13.8125 5.515625 26.8125 
Q 5.515625 40.234375 12.765625 48.109375 
Q 20.015625 56 32.328125 56 
Q 43.359375 56 49.78125 48.890625 
Q 56.203125 41.796875 56.203125 29.59375 
z
M 47.21875 32.234375 
Q 47.125 39.59375 43.09375 43.984375 
Q 39.0625 48.390625 32.421875 48.390625 
Q 24.90625 48.390625 20.390625 44.140625 
Q 15.875 39.890625 15.1875 32.171875 
z
" id="DejaVuSans-101"/>
       <path d="M 41.109375 46.296875 
Q 39.59375 47.171875 37.8125 47.578125 
Q 36.03125 48 33.890625 48 
Q 26.265625 48 22.1875 43.046875 
Q 18.109375 38.09375 18.109375 28.8125 
L 18.109375 0 
L 9.078125 0 
L 9.078125 54.6875 
L 18.109375 54.6875 
L 18.109375 46.1875 
Q 20.953125 51.171875 25.484375 53.578125 
Q 30.03125 56 36.53125 56 
Q 37.453125 56 38.578125 55.875 
Q 39.703125 55.765625 41.0625 55.515625 
z
" id="DejaVuSans-114"/>
       <path d="M 52 44.1875 
Q 55.375 50.25 60.0625 53.125 
Q 64.75 56 71.09375 56 
Q 79.640625 56 84.28125 50.015625 
Q 88.921875 44.046875 88.921875 33.015625 
L 88.921875 0 
L 79.890625 0 
L 79.890625 32.71875 
Q 79.890625 40.578125 77.09375 44.375 
Q 74.3125 48.1875 68.609375 48.1875 
Q 61.625 48.1875 57.5625 43.546875 
Q 53.515625 38.921875 53.515625 30.90625 
L 53.515625 0 
L 44.484375 0 
L 44.484375 32.71875 
Q 44.484375 40.625 41.703125 44.40625 
Q 38.921875 48.1875 33.109375 48.1875 
Q 26.21875 48.1875 22.15625 43.53125 
Q 18.109375 38.875 18.109375 30.90625 
L 18.109375 0 
L 9.078125 0 
L 9.078125 54.6875 
L 18.109375 54.6875 
L 18.109375 46.1875 
Q 21.1875 51.21875 25.484375 53.609375 
Q 29.78125 56 35.6875 56 
Q 41.65625 56 45.828125 52.96875 
Q 50 49.953125 52 44.1875 
z
" id="DejaVuSans-109"/>
       <path d="M 9.421875 54.6875 
L 18.40625 54.6875 
L 18.40625 0 
L 9.421875 0 
z
M 9.421875 75.984375 
L 18.40625 75.984375 
L 18.40625 64.59375 
L 9.421875 64.59375 
z
" id="DejaVuSans-105"/>
       <path d="M 54.890625 33.015625 
L 54.890625 0 
L 45.90625 0 
L 45.90625 32.71875 
Q 45.90625 40.484375 42.875 44.328125 
Q 39.84375 48.1875 33.796875 48.1875 
Q 26.515625 48.1875 22.3125 43.546875 
Q 18.109375 38.921875 18.109375 30.90625 
L 18.109375 0 
L 9.078125 0 
L 9.078125 54.6875 
L 18.109375 54.6875 
L 18.109375 46.1875 
Q 21.34375 51.125 25.703125 53.5625 
Q 30.078125 56 35.796875 56 
Q 45.21875 56 50.046875 50.171875 
Q 54.890625 44.34375 54.890625 33.015625 
z
" id="DejaVuSans-110"/>
       <path d="M 34.28125 27.484375 
Q 23.390625 27.484375 19.1875 25 
Q 14.984375 22.515625 14.984375 16.5 
Q 14.984375 11.71875 18.140625 8.90625 
Q 21.296875 6.109375 26.703125 6.109375 
Q 34.1875 6.109375 38.703125 11.40625 
Q 43.21875 16.703125 43.21875 25.484375 
L 43.21875 27.484375 
z
M 52.203125 31.203125 
L 52.203125 0 
L 43.21875 0 
L 43.21875 8.296875 
Q 40.140625 3.328125 35.546875 0.953125 
Q 30.953125 -1.421875 24.3125 -1.421875 
Q 15.921875 -1.421875 10.953125 3.296875 
Q 6 8.015625 6 15.921875 
Q 6 25.140625 12.171875 29.828125 
Q 18.359375 34.515625 30.609375 34.515625 
L 43.21875 34.515625 
L 43.21875 35.40625 
Q 43.21875 41.609375 39.140625 45 
Q 35.0625 48.390625 27.6875 48.390625 
Q 23 48.390625 18.546875 47.265625 
Q 14.109375 46.140625 10.015625 43.890625 
L 10.015625 52.203125 
Q 14.9375 54.109375 19.578125 55.046875 
Q 24.21875 56 28.609375 56 
Q 40.484375 56 46.34375 49.84375 
Q 52.203125 43.703125 52.203125 31.203125 
z
" id="DejaVuSans-97"/>
       <path d="M 9.421875 75.984375 
L 18.40625 75.984375 
L 18.40625 0 
L 9.421875 0 
z
" id="DejaVuSans-108"/>
      </defs>
      <use xlink:href="#DejaVuSans-84"/>
      <use x="44.083984" xlink:href="#DejaVuSans-101"/>
      <use x="105.607422" xlink:href="#DejaVuSans-114"/>
      <use x="144.970703" xlink:href="#DejaVuSans-109"/>
      <use x="242.382812" xlink:href="#DejaVuSans-105"/>
      <use x="270.166016" xlink:href="#DejaVuSans-110"/>
      <use x="333.544922" xlink:href="#DejaVuSans-97"/>
      <use x="394.824219" xlink:href="#DejaVuSans-108"/>
     </g>
    </g>
   </g>
   <g id="text_8">
    <g id="patch_9">
     <path clip-path="url(#p59cea6eea1)" d="M 152.065457 296.353641 
L 157.013492 295.319244 
Q 159.362707 294.828136 158.871599 292.478921 
L 157.287263 284.900254 
Q 156.796155 282.551039 154.446939 283.042147 
L 149.498905 284.076544 
Q 147.149689 284.567652 147.640798 286.916868 
L 149.225134 294.495534 
Q 149.716242 296.844749 152.065457 296.353641 
z
" style="fill:#ffffff;stroke:#ffffff;stroke-linejoin:miter;"/>
    </g>
    <g clip-path="url(#p59cea6eea1)">
     <!-- E -->
     <g transform="translate(151.233898 292.375881)rotate(-11.80775)scale(0.08 -0.08)">
      <defs>
       <path d="M 9.8125 72.90625 
L 55.90625 72.90625 
L 55.90625 64.59375 
L 19.671875 64.59375 
L 19.671875 43.015625 
L 54.390625 43.015625 
L 54.390625 34.71875 
L 19.671875 34.71875 
L 19.671875 8.296875 
L 56.78125 8.296875 
L 56.78125 0 
L 9.8125 0 
z
" id="DejaVuSans-69"/>
      </defs>
      <use xlink:href="#DejaVuSans-69"/>
     </g>
    </g>
   </g>
   <g id="text_9">
    <g id="patch_10">
     <path clip-path="url(#p59cea6eea1)" d="M 172.108915 287.170394 
L 172.108915 292.225394 
Q 172.108915 294.625394 174.508915 294.625394 
L 182.251415 294.625394 
Q 184.651415 294.625394 184.651415 292.225394 
L 184.651415 287.170394 
Q 184.651415 284.770394 182.251415 284.770394 
L 174.508915 284.770394 
Q 172.108915 284.770394 172.108915 287.170394 
z
" style="fill:#ffffff;stroke:#ffffff;stroke-linejoin:miter;"/>
    </g>
    <g clip-path="url(#p59cea6eea1)">
     <!-- E -->
     <g transform="translate(176.172665 287.170394)rotate(-270)scale(0.08 -0.08)">
      <use xlink:href="#DejaVuSans-69"/>
     </g>
    </g>
   </g>
   <g id="text_10">
    <g id="patch_11">
     <path clip-path="url(#p59cea6eea1)" d="M 199.486834 295.26489 
L 204.954878 296.407996 
Q 207.304093 296.899104 207.795201 294.549889 
L 209.379537 286.971222 
Q 209.870645 284.622007 207.52143 284.130898 
L 202.053387 282.987793 
Q 199.704171 282.496684 199.213063 284.8459 
L 197.628727 292.424566 
Q 197.137619 294.773782 199.486834 295.26489 
z
" style="fill:#ffffff;stroke:#ffffff;stroke-linejoin:miter;"/>
    </g>
    <g clip-path="url(#p59cea6eea1)">
     <!-- C -->
     <g transform="translate(200.318393 291.28713)rotate(-348.19225)scale(0.08 -0.08)">
      <defs>
       <path d="M 64.40625 67.28125 
L 64.40625 56.890625 
Q 59.421875 61.53125 53.78125 63.8125 
Q 48.140625 66.109375 41.796875 66.109375 
Q 29.296875 66.109375 22.65625 58.46875 
Q 16.015625 50.828125 16.015625 36.375 
Q 16.015625 21.96875 22.65625 14.328125 
Q 29.296875 6.6875 41.796875 6.6875 
Q 48.140625 6.6875 53.78125 8.984375 
Q 59.421875 11.28125 64.40625 15.921875 
L 64.40625 5.609375 
Q 59.234375 2.09375 53.4375 0.328125 
Q 47.65625 -1.421875 41.21875 -1.421875 
Q 24.65625 -1.421875 15.125 8.703125 
Q 5.609375 18.84375 5.609375 36.375 
Q 5.609375 53.953125 15.125 64.078125 
Q 24.65625 74.21875 41.21875 74.21875 
Q 47.75 74.21875 53.53125 72.484375 
Q 59.328125 70.75 64.40625 67.28125 
z
" id="DejaVuSans-67"/>
      </defs>
      <use xlink:href="#DejaVuSans-67"/>
     </g>
    </g>
   </g>
   <g id="text_11">
    <g id="patch_12">
     <path clip-path="url(#p59cea6eea1)" d="M 308.741377 285.787534 
L 313.644301 283.110311 
Q 315.750726 281.960105 314.600521 279.85368 
L 310.88991 273.058264 
Q 309.739704 270.951839 307.633279 272.102045 
L 302.730355 274.779268 
Q 300.62393 275.929474 301.774135 278.035899 
L 305.484746 284.831314 
Q 306.634952 286.93774 308.741377 285.787534 
z
" style="fill:#ffffff;stroke:#ffffff;stroke-linejoin:miter;"/>
    </g>
    <g clip-path="url(#p59cea6eea1)">
     <!-- C -->
     <g transform="translate(306.793815 282.220873)rotate(-28.63658)scale(0.08 -0.08)">
      <use xlink:href="#DejaVuSans-67"/>
     </g>
    </g>
   </g>
   <g id="text_12">
    <g id="patch_13">
     <path clip-path="url(#p59cea6eea1)" d="M 362.977521 274.035481 
L 368.358538 275.03193 
Q 370.718418 275.468929 371.155417 273.10905 
L 372.565194 265.49598 
Q 373.002193 263.1361 370.642314 262.699101 
L 365.261297 261.702652 
Q 362.901417 261.265653 362.464418 263.625532 
L 361.05464 271.238602 
Q 360.617641 273.598482 362.977521 274.035481 
z
" style="fill:#ffffff;stroke:#ffffff;stroke-linejoin:miter;"/>
    </g>
    <g clip-path="url(#p59cea6eea1)">
     <!-- A -->
     <g transform="translate(363.717461 270.039664)rotate(-349.50889)scale(0.08 -0.08)">
      <use xlink:href="#DejaVuSans-65"/>
     </g>
    </g>
   </g>
   <g id="text_13">
    <g id="patch_14">
     <path clip-path="url(#p59cea6eea1)" d="M 574.092386 283.298578 
L 574.092386 317.106078 
Q 574.092386 319.506078 576.492386 319.506078 
L 584.234886 319.506078 
Q 586.634886 319.506078 586.634886 317.106078 
L 586.634886 283.298578 
Q 586.634886 280.898578 584.234886 280.898578 
L 576.492386 280.898578 
Q 574.092386 280.898578 574.092386 283.298578 
z
" style="fill:#ffffff;stroke:#ffffff;stroke-linejoin:miter;"/>
    </g>
    <g clip-path="url(#p59cea6eea1)">
     <!-- Terminal -->
     <g transform="translate(578.156136 283.298578)rotate(-270)scale(0.08 -0.08)">
      <use xlink:href="#DejaVuSans-84"/>
      <use x="44.083984" xlink:href="#DejaVuSans-101"/>
      <use x="105.607422" xlink:href="#DejaVuSans-114"/>
      <use x="144.970703" xlink:href="#DejaVuSans-109"/>
      <use x="242.382812" xlink:href="#DejaVuSans-105"/>
      <use x="270.166016" xlink:href="#DejaVuSans-110"/>
      <use x="333.544922" xlink:href="#DejaVuSans-97"/>
      <use x="394.824219" xlink:href="#DejaVuSans-108"/>
     </g>
    </g>
   </g>
   <g id="text_14">
    <g id="patch_15">
     <path clip-path="url(#p59cea6eea1)" d="M 21.365114 40.946389 
L 21.365114 45.770139 
Q 21.365114 48.170139 23.765114 48.170139 
L 31.507614 48.170139 
Q 33.907614 48.170139 33.907614 45.770139 
L 33.907614 40.946389 
Q 33.907614 38.546389 31.507614 38.546389 
L 23.765114 38.546389 
Q 21.365114 38.546389 21.365114 40.946389 
z
" style="fill:#ffffff;stroke:#ffffff;stroke-linejoin:miter;"/>
    </g>
    <g clip-path="url(#p59cea6eea1)">
     <!-- P -->
     <g transform="translate(25.428864 40.946389)rotate(-270)scale(0.08 -0.08)">
      <use xlink:href="#DejaVuSans-80"/>
     </g>
    </g>
   </g>
   <g id="text_15">
    <g id="patch_16">
     <path clip-path="url(#p59cea6eea1)" d="M 121.860981 283.298578 
L 121.860981 317.106078 
Q 121.860981 319.506078 124.260981 319.506078 
L 132.003481 319.506078 
Q 134.403481 319.506078 134.403481 317.106078 
L 134.403481 283.298578 
Q 134.403481 280.898578 132.003481 280.898578 
L 124.260981 280.898578 
Q 121.860981 280.898578 121.860981 283.298578 
z
" style="fill:#ffffff;stroke:#ffffff;stroke-linejoin:miter;"/>
    </g>
    <g clip-path="url(#p59cea6eea1)">
     <!-- Terminal -->
     <g transform="translate(125.924731 283.298578)rotate(-270)scale(0.08 -0.08)">
      <use xlink:href="#DejaVuSans-84"/>
      <use x="44.083984" xlink:href="#DejaVuSans-101"/>
      <use x="105.607422" xlink:href="#DejaVuSans-114"/>
      <use x="144.970703" xlink:href="#DejaVuSans-109"/>
      <use x="242.382812" xlink:href="#DejaVuSans-105"/>
      <use x="270.166016" xlink:href="#DejaVuSans-110"/>
      <use x="333.544922" xlink:href="#DejaVuSans-97"/>
      <use x="394.824219" xlink:href="#DejaVuSans-108"/>
     </g>
    </g>
   </g>
   <g id="text_16">
    <g id="patch_17">
     <path clip-path="url(#p59cea6eea1)" d="M 172.108915 283.298578 
L 172.108915 317.106078 
Q 172.108915 319.506078 174.508915 319.506078 
L 182.251415 319.506078 
Q 184.651415 319.506078 184.651415 317.106078 
L 184.651415 283.298578 
Q 184.651415 280.898578 182.251415 280.898578 
L 174.508915 280.898578 
Q 172.108915 280.898578 172.108915 283.298578 
z
" style="fill:#ffffff;stroke:#ffffff;stroke-linejoin:miter;"/>
    </g>
    <g clip-path="url(#p59cea6eea1)">
     <!-- Terminal -->
     <g transform="translate(176.172665 283.298578)rotate(-270)scale(0.08 -0.08)">
      <use xlink:href="#DejaVuSans-84"/>
      <use x="44.083984" xlink:href="#DejaVuSans-101"/>
      <use x="105.607422" xlink:href="#DejaVuSans-114"/>
      <use x="144.970703" xlink:href="#DejaVuSans-109"/>
      <use x="242.382812" xlink:href="#DejaVuSans-105"/>
      <use x="270.166016" xlink:href="#DejaVuSans-110"/>
      <use x="333.544922" xlink:href="#DejaVuSans-97"/>
      <use x="394.824219" xlink:href="#DejaVuSans-108"/>
     </g>
    </g>
   </g>
   <g id="text_17">
    <g id="patch_18">
     <path clip-path="url(#p59cea6eea1)" d="M 222.356849 283.298578 
L 222.356849 317.106078 
Q 222.356849 319.506078 224.756849 319.506078 
L 232.499349 319.506078 
Q 234.899349 319.506078 234.899349 317.106078 
L 234.899349 283.298578 
Q 234.899349 280.898578 232.499349 280.898578 
L 224.756849 280.898578 
Q 222.356849 280.898578 222.356849 283.298578 
z
" style="fill:#ffffff;stroke:#ffffff;stroke-linejoin:miter;"/>
    </g>
    <g clip-path="url(#p59cea6eea1)">
     <!-- Terminal -->
     <g transform="translate(226.420599 283.298578)rotate(-270)scale(0.08 -0.08)">
      <use xlink:href="#DejaVuSans-84"/>
      <use x="44.083984" xlink:href="#DejaVuSans-101"/>
      <use x="105.607422" xlink:href="#DejaVuSans-114"/>
      <use x="144.970703" xlink:href="#DejaVuSans-109"/>
      <use x="242.382812" xlink:href="#DejaVuSans-105"/>
      <use x="270.166016" xlink:href="#DejaVuSans-110"/>
      <use x="333.544922" xlink:href="#DejaVuSans-97"/>
      <use x="394.824219" xlink:href="#DejaVuSans-108"/>
     </g>
    </g>
   </g>
   <g id="text_18">
    <g id="patch_19">
     <path clip-path="url(#p59cea6eea1)" d="M 272.604783 283.298578 
L 272.604783 317.106078 
Q 272.604783 319.506078 275.004783 319.506078 
L 282.747283 319.506078 
Q 285.147283 319.506078 285.147283 317.106078 
L 285.147283 283.298578 
Q 285.147283 280.898578 282.747283 280.898578 
L 275.004783 280.898578 
Q 272.604783 280.898578 272.604783 283.298578 
z
" style="fill:#ffffff;stroke:#ffffff;stroke-linejoin:miter;"/>
    </g>
    <g clip-path="url(#p59cea6eea1)">
     <!-- Terminal -->
     <g transform="translate(276.668533 283.298578)rotate(-270)scale(0.08 -0.08)">
      <use xlink:href="#DejaVuSans-84"/>
      <use x="44.083984" xlink:href="#DejaVuSans-101"/>
      <use x="105.607422" xlink:href="#DejaVuSans-114"/>
      <use x="144.970703" xlink:href="#DejaVuSans-109"/>
      <use x="242.382812" xlink:href="#DejaVuSans-105"/>
      <use x="270.166016" xlink:href="#DejaVuSans-110"/>
      <use x="333.544922" xlink:href="#DejaVuSans-97"/>
      <use x="394.824219" xlink:href="#DejaVuSans-108"/>
     </g>
    </g>
   </g>
   <g id="text_19">
    <g id="patch_20">
     <path clip-path="url(#p59cea6eea1)" d="M 361.860508 291.189704 
L 367.161282 289.515936 
Q 369.4499 288.793284 368.727248 286.504666 
L 366.395941 279.121488 
Q 365.673289 276.832869 363.384671 277.555522 
L 358.083897 279.22929 
Q 355.795279 279.951942 356.517931 282.24056 
L 358.849238 289.623738 
Q 359.57189 291.912357 361.860508 291.189704 
z
" style="fill:#ffffff;stroke:#ffffff;stroke-linejoin:miter;"/>
    </g>
    <g clip-path="url(#p59cea6eea1)">
     <!-- R -->
     <g transform="translate(360.636892 287.314549)rotate(-17.523991)scale(0.08 -0.08)">
      <defs>
       <path d="M 44.390625 34.1875 
Q 47.5625 33.109375 50.5625 29.59375 
Q 53.5625 26.078125 56.59375 19.921875 
L 66.609375 0 
L 56 0 
L 46.6875 18.703125 
Q 43.0625 26.03125 39.671875 28.421875 
Q 36.28125 30.8125 30.421875 30.8125 
L 19.671875 30.8125 
L 19.671875 0 
L 9.8125 0 
L 9.8125 72.90625 
L 32.078125 72.90625 
Q 44.578125 72.90625 50.734375 67.671875 
Q 56.890625 62.453125 56.890625 51.90625 
Q 56.890625 45.015625 53.6875 40.46875 
Q 50.484375 35.9375 44.390625 34.1875 
z
M 19.671875 64.796875 
L 19.671875 38.921875 
L 32.078125 38.921875 
Q 39.203125 38.921875 42.84375 42.21875 
Q 46.484375 45.515625 46.484375 51.90625 
Q 46.484375 58.296875 42.84375 61.546875 
Q 39.203125 64.796875 32.078125 64.796875 
z
" id="DejaVuSans-82"/>
      </defs>
      <use xlink:href="#DejaVuSans-82"/>
     </g>
    </g>
   </g>
   <g id="text_20">
    <g id="patch_21">
     <path clip-path="url(#p59cea6eea1)" d="M 391.279849 290.012803 
L 394.046795 286.518048 
Q 395.53657 284.636408 393.65493 283.146633 
L 387.584679 278.340557 
Q 385.703039 276.850782 384.213264 278.732423 
L 381.446317 282.227178 
Q 379.956543 284.108818 381.838183 285.598593 
L 387.908434 290.404669 
Q 389.790074 291.894444 391.279849 290.012803 
z
" style="fill:#ffffff;stroke:#ffffff;stroke-linejoin:miter;"/>
    </g>
    <g clip-path="url(#p59cea6eea1)">
     <!-- L -->
     <g transform="translate(388.0938 287.490273)rotate(-51.629841)scale(0.08 -0.08)">
      <defs>
       <path d="M 9.8125 72.90625 
L 19.671875 72.90625 
L 19.671875 8.296875 
L 55.171875 8.296875 
L 55.171875 0 
L 9.8125 0 
z
" id="DejaVuSans-76"/>
      </defs>
      <use xlink:href="#DejaVuSans-76"/>
     </g>
    </g>
   </g>
   <g id="text_21">
    <g id="patch_22">
     <path clip-path="url(#p59cea6eea1)" d="M 434.21922 284.962033 
L 440.187399 285.721043 
Q 442.568223 286.023827 442.871007 283.643003 
L 443.847801 275.962366 
Q 444.150585 273.581543 441.769761 273.278759 
L 435.801581 272.519749 
Q 433.420758 272.216965 433.117974 274.597789 
L 432.14118 282.278425 
Q 431.838396 284.659249 434.21922 284.962033 
z
" style="fill:#ffffff;stroke:#ffffff;stroke-linejoin:miter;"/>
    </g>
    <g clip-path="url(#p59cea6eea1)">
     <!-- H -->
     <g transform="translate(434.731902 280.930753)rotate(-352.752252)scale(0.08 -0.08)">
      <defs>
       <path d="M 9.8125 72.90625 
L 19.671875 72.90625 
L 19.671875 43.015625 
L 55.515625 43.015625 
L 55.515625 72.90625 
L 65.375 72.90625 
L 65.375 0 
L 55.515625 0 
L 55.515625 34.71875 
L 19.671875 34.71875 
L 19.671875 0 
L 9.8125 0 
z
" id="DejaVuSans-72"/>
      </defs>
      <use xlink:href="#DejaVuSans-72"/>
     </g>
    </g>
   </g>
   <g id="text_22">
    <g id="patch_23">
     <path clip-path="url(#p59cea6eea1)" d="M 21.365114 59.240842 
L 21.365114 64.064592 
Q 21.365114 66.464592 23.765114 66.464592 
L 31.507614 66.464592 
Q 33.907614 66.464592 33.907614 64.064592 
L 33.907614 59.240842 
Q 33.907614 56.840842 31.507614 56.840842 
L 23.765114 56.840842 
Q 21.365114 56.840842 21.365114 59.240842 
z
" style="fill:#ffffff;stroke:#ffffff;stroke-linejoin:miter;"/>
    </g>
    <g clip-path="url(#p59cea6eea1)">
     <!-- P -->
     <g transform="translate(25.428864 59.240842)rotate(-270)scale(0.08 -0.08)">
      <use xlink:href="#DejaVuSans-80"/>
     </g>
    </g>
   </g>
   <g id="text_23">
    <g id="patch_24">
     <path clip-path="url(#p59cea6eea1)" d="M 322.852717 283.298578 
L 322.852717 317.106078 
Q 322.852717 319.506078 325.252717 319.506078 
L 332.995217 319.506078 
Q 335.395217 319.506078 335.395217 317.106078 
L 335.395217 283.298578 
Q 335.395217 280.898578 332.995217 280.898578 
L 325.252717 280.898578 
Q 322.852717 280.898578 322.852717 283.298578 
z
" style="fill:#ffffff;stroke:#ffffff;stroke-linejoin:miter;"/>
    </g>
    <g clip-path="url(#p59cea6eea1)">
     <!-- Terminal -->
     <g transform="translate(326.916467 283.298578)rotate(-270)scale(0.08 -0.08)">
      <use xlink:href="#DejaVuSans-84"/>
      <use x="44.083984" xlink:href="#DejaVuSans-101"/>
      <use x="105.607422" xlink:href="#DejaVuSans-114"/>
      <use x="144.970703" xlink:href="#DejaVuSans-109"/>
      <use x="242.382812" xlink:href="#DejaVuSans-105"/>
      <use x="270.166016" xlink:href="#DejaVuSans-110"/>
      <use x="333.544922" xlink:href="#DejaVuSans-97"/>
      <use x="394.824219" xlink:href="#DejaVuSans-108"/>
     </g>
    </g>
   </g>
   <g id="text_24">
    <g id="patch_25">
     <path clip-path="url(#p59cea6eea1)" d="M 373.100651 283.298578 
L 373.100651 317.106078 
Q 373.100651 319.506078 375.500651 319.506078 
L 383.243151 319.506078 
Q 385.643151 319.506078 385.643151 317.106078 
L 385.643151 283.298578 
Q 385.643151 280.898578 383.243151 280.898578 
L 375.500651 280.898578 
Q 373.100651 280.898578 373.100651 283.298578 
z
" style="fill:#ffffff;stroke:#ffffff;stroke-linejoin:miter;"/>
    </g>
    <g clip-path="url(#p59cea6eea1)">
     <!-- Terminal -->
     <g transform="translate(377.164401 283.298578)rotate(-270)scale(0.08 -0.08)">
      <use xlink:href="#DejaVuSans-84"/>
      <use x="44.083984" xlink:href="#DejaVuSans-101"/>
      <use x="105.607422" xlink:href="#DejaVuSans-114"/>
      <use x="144.970703" xlink:href="#DejaVuSans-109"/>
      <use x="242.382812" xlink:href="#DejaVuSans-105"/>
      <use x="270.166016" xlink:href="#DejaVuSans-110"/>
      <use x="333.544922" xlink:href="#DejaVuSans-97"/>
      <use x="394.824219" xlink:href="#DejaVuSans-108"/>
     </g>
    </g>
   </g>
   <g id="text_25">
    <g id="patch_26">
     <path clip-path="url(#p59cea6eea1)" d="M 453.348728 296.396357 
L 458.705428 295.276528 
Q 461.054643 294.78542 460.563535 292.436204 
L 458.979199 284.857538 
Q 458.488091 282.508323 456.138876 282.999431 
L 450.782175 284.11926 
Q 448.43296 284.610369 448.924068 286.959584 
L 450.508404 294.53825 
Q 450.999512 296.887466 453.348728 296.396357 
z
" style="fill:#ffffff;stroke:#ffffff;stroke-linejoin:miter;"/>
    </g>
    <g clip-path="url(#p59cea6eea1)">
     <!-- A -->
     <g transform="translate(452.517169 292.418597)rotate(-11.80775)scale(0.08 -0.08)">
      <use xlink:href="#DejaVuSans-65"/>
     </g>
    </g>
   </g>
   <g id="text_26">
    <g id="patch_27">
     <path clip-path="url(#p59cea6eea1)" d="M 473.596519 287.397269 
L 473.596519 291.998519 
Q 473.596519 294.398519 475.996519 294.398519 
L 483.739019 294.398519 
Q 486.139019 294.398519 486.139019 291.998519 
L 486.139019 287.397269 
Q 486.139019 284.997269 483.739019 284.997269 
L 475.996519 284.997269 
Q 473.596519 284.997269 473.596519 287.397269 
z
" style="fill:#ffffff;stroke:#ffffff;stroke-linejoin:miter;"/>
    </g>
    <g clip-path="url(#p59cea6eea1)">
     <!-- F -->
     <g transform="translate(477.660269 287.397269)rotate(-270)scale(0.08 -0.08)">
      <use xlink:href="#DejaVuSans-70"/>
     </g>
    </g>
   </g>
   <g id="text_27">
    <g id="patch_28">
     <path clip-path="url(#p59cea6eea1)" d="M 501.222818 295.316814 
L 506.1941 296.356071 
Q 508.543316 296.847179 509.034424 294.497964 
L 510.61876 286.919298 
Q 511.109868 284.570082 508.760653 284.078974 
L 503.789371 283.039717 
Q 501.440155 282.548609 500.949047 284.897824 
L 499.364711 292.476491 
Q 498.873603 294.825706 501.222818 295.316814 
z
" style="fill:#ffffff;stroke:#ffffff;stroke-linejoin:miter;"/>
    </g>
    <g clip-path="url(#p59cea6eea1)">
     <!-- S -->
     <g transform="translate(502.054377 291.339054)rotate(-348.19225)scale(0.08 -0.08)">
      <use xlink:href="#DejaVuSans-83"/>
     </g>
    </g>
   </g>
   <g id="text_28">
    <g id="patch_29">
     <path clip-path="url(#p59cea6eea1)" d="M 21.365114 76.799907 
L 21.365114 81.623657 
Q 21.365114 84.023657 23.765114 84.023657 
L 31.507614 84.023657 
Q 33.907614 84.023657 33.907614 81.623657 
L 33.907614 76.799907 
Q 33.907614 74.399907 31.507614 74.399907 
L 23.765114 74.399907 
Q 21.365114 74.399907 21.365114 76.799907 
z
" style="fill:#ffffff;stroke:#ffffff;stroke-linejoin:miter;"/>
    </g>
    <g clip-path="url(#p59cea6eea1)">
     <!-- P -->
     <g transform="translate(25.428864 76.799907)rotate(-270)scale(0.08 -0.08)">
      <use xlink:href="#DejaVuSans-80"/>
     </g>
    </g>
   </g>
   <g id="text_29">
    <g id="patch_30">
     <path clip-path="url(#p59cea6eea1)" d="M 423.348585 283.298578 
L 423.348585 317.106078 
Q 423.348585 319.506078 425.748585 319.506078 
L 433.491085 319.506078 
Q 435.891085 319.506078 435.891085 317.106078 
L 435.891085 283.298578 
Q 435.891085 280.898578 433.491085 280.898578 
L 425.748585 280.898578 
Q 423.348585 280.898578 423.348585 283.298578 
z
" style="fill:#ffffff;stroke:#ffffff;stroke-linejoin:miter;"/>
    </g>
    <g clip-path="url(#p59cea6eea1)">
     <!-- Terminal -->
     <g transform="translate(427.412335 283.298578)rotate(-270)scale(0.08 -0.08)">
      <use xlink:href="#DejaVuSans-84"/>
      <use x="44.083984" xlink:href="#DejaVuSans-101"/>
      <use x="105.607422" xlink:href="#DejaVuSans-114"/>
      <use x="144.970703" xlink:href="#DejaVuSans-109"/>
      <use x="242.382812" xlink:href="#DejaVuSans-105"/>
      <use x="270.166016" xlink:href="#DejaVuSans-110"/>
      <use x="333.544922" xlink:href="#DejaVuSans-97"/>
      <use x="394.824219" xlink:href="#DejaVuSans-108"/>
     </g>
    </g>
   </g>
   <g id="text_30">
    <g id="patch_31">
     <path clip-path="url(#p59cea6eea1)" d="M 473.596519 283.298578 
L 473.596519 317.106078 
Q 473.596519 319.506078 475.996519 319.506078 
L 483.739019 319.506078 
Q 486.139019 319.506078 486.139019 317.106078 
L 486.139019 283.298578 
Q 486.139019 280.898578 483.739019 280.898578 
L 475.996519 280.898578 
Q 473.596519 280.898578 473.596519 283.298578 
z
" style="fill:#ffffff;stroke:#ffffff;stroke-linejoin:miter;"/>
    </g>
    <g clip-path="url(#p59cea6eea1)">
     <!-- Terminal -->
     <g transform="translate(477.660269 283.298578)rotate(-270)scale(0.08 -0.08)">
      <use xlink:href="#DejaVuSans-84"/>
      <use x="44.083984" xlink:href="#DejaVuSans-101"/>
      <use x="105.607422" xlink:href="#DejaVuSans-114"/>
      <use x="144.970703" xlink:href="#DejaVuSans-109"/>
      <use x="242.382812" xlink:href="#DejaVuSans-105"/>
      <use x="270.166016" xlink:href="#DejaVuSans-110"/>
      <use x="333.544922" xlink:href="#DejaVuSans-97"/>
      <use x="394.824219" xlink:href="#DejaVuSans-108"/>
     </g>
    </g>
   </g>
   <g id="text_31">
    <g id="patch_32">
     <path clip-path="url(#p59cea6eea1)" d="M 523.844452 283.298578 
L 523.844452 317.106078 
Q 523.844452 319.506078 526.244452 319.506078 
L 533.986952 319.506078 
Q 536.386952 319.506078 536.386952 317.106078 
L 536.386952 283.298578 
Q 536.386952 280.898578 533.986952 280.898578 
L 526.244452 280.898578 
Q 523.844452 280.898578 523.844452 283.298578 
z
" style="fill:#ffffff;stroke:#ffffff;stroke-linejoin:miter;"/>
    </g>
    <g clip-path="url(#p59cea6eea1)">
     <!-- Terminal -->
     <g transform="translate(527.908202 283.298578)rotate(-270)scale(0.08 -0.08)">
      <use xlink:href="#DejaVuSans-84"/>
      <use x="44.083984" xlink:href="#DejaVuSans-101"/>
      <use x="105.607422" xlink:href="#DejaVuSans-114"/>
      <use x="144.970703" xlink:href="#DejaVuSans-109"/>
      <use x="242.382812" xlink:href="#DejaVuSans-105"/>
      <use x="270.166016" xlink:href="#DejaVuSans-110"/>
      <use x="333.544922" xlink:href="#DejaVuSans-97"/>
      <use x="394.824219" xlink:href="#DejaVuSans-108"/>
     </g>
    </g>
   </g>
   <g id="text_32">
    <g id="patch_33">
     <path clip-path="url(#p59cea6eea1)" d="M 21.365114 93.665977 
L 21.365114 98.489727 
Q 21.365114 100.889727 23.765114 100.889727 
L 31.507614 100.889727 
Q 33.907614 100.889727 33.907614 98.489727 
L 33.907614 93.665977 
Q 33.907614 91.265977 31.507614 91.265977 
L 23.765114 91.265977 
Q 21.365114 91.265977 21.365114 93.665977 
z
" style="fill:#ffffff;stroke:#ffffff;stroke-linejoin:miter;"/>
    </g>
    <g clip-path="url(#p59cea6eea1)">
     <!-- P -->
     <g transform="translate(25.428864 93.665977)rotate(-270)scale(0.08 -0.08)">
      <use xlink:href="#DejaVuSans-80"/>
     </g>
    </g>
   </g>
   <g id="text_33">
    <g id="patch_34">
     <path clip-path="url(#p59cea6eea1)" d="M 21.365114 109.879213 
L 21.365114 114.702963 
Q 21.365114 117.102963 23.765114 117.102963 
L 31.507614 117.102963 
Q 33.907614 117.102963 33.907614 114.702963 
L 33.907614 109.879213 
Q 33.907614 107.479213 31.507614 107.479213 
L 23.765114 107.479213 
Q 21.365114 107.479213 21.365114 109.879213 
z
" style="fill:#ffffff;stroke:#ffffff;stroke-linejoin:miter;"/>
    </g>
    <g clip-path="url(#p59cea6eea1)">
     <!-- P -->
     <g transform="translate(25.428864 109.879213)rotate(-270)scale(0.08 -0.08)">
      <use xlink:href="#DejaVuSans-80"/>
     </g>
    </g>
   </g>
   <g id="text_34">
    <g id="patch_35">
     <path clip-path="url(#p59cea6eea1)" d="M 21.365114 125.477733 
L 21.365114 130.301483 
Q 21.365114 132.701483 23.765114 132.701483 
L 31.507614 132.701483 
Q 33.907614 132.701483 33.907614 130.301483 
L 33.907614 125.477733 
Q 33.907614 123.077733 31.507614 123.077733 
L 23.765114 123.077733 
Q 21.365114 123.077733 21.365114 125.477733 
z
" style="fill:#ffffff;stroke:#ffffff;stroke-linejoin:miter;"/>
    </g>
    <g clip-path="url(#p59cea6eea1)">
     <!-- P -->
     <g transform="translate(25.428864 125.477733)rotate(-270)scale(0.08 -0.08)">
      <use xlink:href="#DejaVuSans-80"/>
     </g>
    </g>
   </g>
   <g id="text_35">
    <g id="patch_36">
     <path clip-path="url(#p59cea6eea1)" d="M 21.365114 140.4978 
L 21.365114 145.32155 
Q 21.365114 147.72155 23.765114 147.72155 
L 31.507614 147.72155 
Q 33.907614 147.72155 33.907614 145.32155 
L 33.907614 140.4978 
Q 33.907614 138.0978 31.507614 138.0978 
L 23.765114 138.0978 
Q 21.365114 138.0978 21.365114 140.4978 
z
" style="fill:#ffffff;stroke:#ffffff;stroke-linejoin:miter;"/>
    </g>
    <g clip-path="url(#p59cea6eea1)">
     <!-- P -->
     <g transform="translate(25.428864 140.4978)rotate(-270)scale(0.08 -0.08)">
      <use xlink:href="#DejaVuSans-80"/>
     </g>
    </g>
   </g>
   <g id="text_36">
    <g id="patch_37">
     <path clip-path="url(#p59cea6eea1)" d="M 21.365114 154.974009 
L 21.365114 159.797759 
Q 21.365114 162.197759 23.765114 162.197759 
L 31.507614 162.197759 
Q 33.907614 162.197759 33.907614 159.797759 
L 33.907614 154.974009 
Q 33.907614 152.574009 31.507614 152.574009 
L 23.765114 152.574009 
Q 21.365114 152.574009 21.365114 154.974009 
z
" style="fill:#ffffff;stroke:#ffffff;stroke-linejoin:miter;"/>
    </g>
    <g clip-path="url(#p59cea6eea1)">
     <!-- P -->
     <g transform="translate(25.428864 154.974009)rotate(-270)scale(0.08 -0.08)">
      <use xlink:href="#DejaVuSans-80"/>
     </g>
    </g>
   </g>
   <g id="text_37">
    <g id="patch_38">
     <path clip-path="url(#p59cea6eea1)" d="M 21.365114 168.939481 
L 21.365114 173.763231 
Q 21.365114 176.163231 23.765114 176.163231 
L 31.507614 176.163231 
Q 33.907614 176.163231 33.907614 173.763231 
L 33.907614 168.939481 
Q 33.907614 166.539481 31.507614 166.539481 
L 23.765114 166.539481 
Q 21.365114 166.539481 21.365114 168.939481 
z
" style="fill:#ffffff;stroke:#ffffff;stroke-linejoin:miter;"/>
    </g>
    <g clip-path="url(#p59cea6eea1)">
     <!-- P -->
     <g transform="translate(25.428864 168.939481)rotate(-270)scale(0.08 -0.08)">
      <use xlink:href="#DejaVuSans-80"/>
     </g>
    </g>
   </g>
   <g id="text_38">
    <g id="patch_39">
     <path clip-path="url(#p59cea6eea1)" d="M 21.365114 182.426058 
L 21.365114 187.249808 
Q 21.365114 189.649808 23.765114 189.649808 
L 31.507614 189.649808 
Q 33.907614 189.649808 33.907614 187.249808 
L 33.907614 182.426058 
Q 33.907614 180.026058 31.507614 180.026058 
L 23.765114 180.026058 
Q 21.365114 180.026058 21.365114 182.426058 
z
" style="fill:#ffffff;stroke:#ffffff;stroke-linejoin:miter;"/>
    </g>
    <g clip-path="url(#p59cea6eea1)">
     <!-- P -->
     <g transform="translate(25.428864 182.426058)rotate(-270)scale(0.08 -0.08)">
      <use xlink:href="#DejaVuSans-80"/>
     </g>
    </g>
   </g>
   <g id="text_39">
    <g id="patch_40">
     <path clip-path="url(#p59cea6eea1)" d="M 21.365114 195.464526 
L 21.365114 200.288276 
Q 21.365114 202.688276 23.765114 202.688276 
L 31.507614 202.688276 
Q 33.907614 202.688276 33.907614 200.288276 
L 33.907614 195.464526 
Q 33.907614 193.064526 31.507614 193.064526 
L 23.765114 193.064526 
Q 21.365114 193.064526 21.365114 195.464526 
z
" style="fill:#ffffff;stroke:#ffffff;stroke-linejoin:miter;"/>
    </g>
    <g clip-path="url(#p59cea6eea1)">
     <!-- P -->
     <g transform="translate(25.428864 195.464526)rotate(-270)scale(0.08 -0.08)">
      <use xlink:href="#DejaVuSans-80"/>
     </g>
    </g>
   </g>
   <g id="text_40">
    <g id="patch_41">
     <path clip-path="url(#p59cea6eea1)" d="M 21.365114 208.084866 
L 21.365114 212.908616 
Q 21.365114 215.308616 23.765114 215.308616 
L 31.507614 215.308616 
Q 33.907614 215.308616 33.907614 212.908616 
L 33.907614 208.084866 
Q 33.907614 205.684866 31.507614 205.684866 
L 23.765114 205.684866 
Q 21.365114 205.684866 21.365114 208.084866 
z
" style="fill:#ffffff;stroke:#ffffff;stroke-linejoin:miter;"/>
    </g>
    <g clip-path="url(#p59cea6eea1)">
     <!-- P -->
     <g transform="translate(25.428864 208.084866)rotate(-270)scale(0.08 -0.08)">
      <use xlink:href="#DejaVuSans-80"/>
     </g>
    </g>
   </g>
   <g id="text_41">
    <g id="patch_42">
     <path clip-path="url(#p59cea6eea1)" d="M 21.365114 220.316551 
L 21.365114 225.140301 
Q 21.365114 227.540301 23.765114 227.540301 
L 31.507614 227.540301 
Q 33.907614 227.540301 33.907614 225.140301 
L 33.907614 220.316551 
Q 33.907614 217.916551 31.507614 217.916551 
L 23.765114 217.916551 
Q 21.365114 217.916551 21.365114 220.316551 
z
" style="fill:#ffffff;stroke:#ffffff;stroke-linejoin:miter;"/>
    </g>
    <g clip-path="url(#p59cea6eea1)">
     <!-- P -->
     <g transform="translate(25.428864 220.316551)rotate(-270)scale(0.08 -0.08)">
      <use xlink:href="#DejaVuSans-80"/>
     </g>
    </g>
   </g>
   <g id="text_42">
    <g id="patch_43">
     <path clip-path="url(#p59cea6eea1)" d="M 21.365114 232.188936 
L 21.365114 237.012686 
Q 21.365114 239.412686 23.765114 239.412686 
L 31.507614 239.412686 
Q 33.907614 239.412686 33.907614 237.012686 
L 33.907614 232.188936 
Q 33.907614 229.788936 31.507614 229.788936 
L 23.765114 229.788936 
Q 21.365114 229.788936 21.365114 232.188936 
z
" style="fill:#ffffff;stroke:#ffffff;stroke-linejoin:miter;"/>
    </g>
    <g clip-path="url(#p59cea6eea1)">
     <!-- P -->
     <g transform="translate(25.428864 232.188936)rotate(-270)scale(0.08 -0.08)">
      <use xlink:href="#DejaVuSans-80"/>
     </g>
    </g>
   </g>
   <g id="text_43">
    <g id="patch_44">
     <path clip-path="url(#p59cea6eea1)" d="M 21.365114 243.731788 
L 21.365114 248.555538 
Q 21.365114 250.955538 23.765114 250.955538 
L 31.507614 250.955538 
Q 33.907614 250.955538 33.907614 248.555538 
L 33.907614 243.731788 
Q 33.907614 241.331788 31.507614 241.331788 
L 23.765114 241.331788 
Q 21.365114 241.331788 21.365114 243.731788 
z
" style="fill:#ffffff;stroke:#ffffff;stroke-linejoin:miter;"/>
    </g>
    <g clip-path="url(#p59cea6eea1)">
     <!-- P -->
     <g transform="translate(25.428864 243.731788)rotate(-270)scale(0.08 -0.08)">
      <use xlink:href="#DejaVuSans-80"/>
     </g>
    </g>
   </g>
   <g id="text_44">
    <g id="patch_45">
     <path clip-path="url(#p59cea6eea1)" d="M 21.365114 254.976095 
L 21.365114 259.799845 
Q 21.365114 262.199845 23.765114 262.199845 
L 31.507614 262.199845 
Q 33.907614 262.199845 33.907614 259.799845 
L 33.907614 254.976095 
Q 33.907614 252.576095 31.507614 252.576095 
L 23.765114 252.576095 
Q 21.365114 252.576095 21.365114 254.976095 
z
" style="fill:#ffffff;stroke:#ffffff;stroke-linejoin:miter;"/>
    </g>
    <g clip-path="url(#p59cea6eea1)">
     <!-- P -->
     <g transform="translate(25.428864 254.976095)rotate(-270)scale(0.08 -0.08)">
      <use xlink:href="#DejaVuSans-80"/>
     </g>
    </g>
   </g>
   <g id="text_45">
    <g id="patch_46">
     <path clip-path="url(#p59cea6eea1)" d="M 21.365114 265.955416 
L 21.365114 270.779166 
Q 21.365114 273.179166 23.765114 273.179166 
L 31.507614 273.179166 
Q 33.907614 273.179166 33.907614 270.779166 
L 33.907614 265.955416 
Q 33.907614 263.555416 31.507614 263.555416 
L 23.765114 263.555416 
Q 21.365114 263.555416 21.365114 265.955416 
z
" style="fill:#ffffff;stroke:#ffffff;stroke-linejoin:miter;"/>
    </g>
    <g clip-path="url(#p59cea6eea1)">
     <!-- P -->
     <g transform="translate(25.428864 265.955416)rotate(-270)scale(0.08 -0.08)">
      <use xlink:href="#DejaVuSans-80"/>
     </g>
    </g>
   </g>
   <g id="text_46">
    <g id="patch_47">
     <path clip-path="url(#p59cea6eea1)" d="M 21.365114 276.708521 
L 21.365114 281.532271 
Q 21.365114 283.932271 23.765114 283.932271 
L 31.507614 283.932271 
Q 33.907614 283.932271 33.907614 281.532271 
L 33.907614 276.708521 
Q 33.907614 274.308521 31.507614 274.308521 
L 23.765114 274.308521 
Q 21.365114 274.308521 21.365114 276.708521 
z
" style="fill:#ffffff;stroke:#ffffff;stroke-linejoin:miter;"/>
    </g>
    <g clip-path="url(#p59cea6eea1)">
     <!-- P -->
     <g transform="translate(25.428864 276.708521)rotate(-270)scale(0.08 -0.08)">
      <use xlink:href="#DejaVuSans-80"/>
     </g>
    </g>
   </g>
   <g id="text_47">
    <g id="patch_48">
     <path clip-path="url(#p59cea6eea1)" d="M 21.365114 287.286019 
L 21.365114 292.109769 
Q 21.365114 294.509769 23.765114 294.509769 
L 31.507614 294.509769 
Q 33.907614 294.509769 33.907614 292.109769 
L 33.907614 287.286019 
Q 33.907614 284.886019 31.507614 284.886019 
L 23.765114 284.886019 
Q 21.365114 284.886019 21.365114 287.286019 
z
" style="fill:#ffffff;stroke:#ffffff;stroke-linejoin:miter;"/>
    </g>
    <g clip-path="url(#p59cea6eea1)">
     <!-- P -->
     <g transform="translate(25.428864 287.286019)rotate(-270)scale(0.08 -0.08)">
      <use xlink:href="#DejaVuSans-80"/>
     </g>
    </g>
   </g>
   <g id="text_48">
    <g id="patch_49">
     <path clip-path="url(#p59cea6eea1)" d="M 21.365114 283.298578 
L 21.365114 317.106078 
Q 21.365114 319.506078 23.765114 319.506078 
L 31.507614 319.506078 
Q 33.907614 319.506078 33.907614 317.106078 
L 33.907614 283.298578 
Q 33.907614 280.898578 31.507614 280.898578 
L 23.765114 280.898578 
Q 21.365114 280.898578 21.365114 283.298578 
z
" style="fill:#ffffff;stroke:#ffffff;stroke-linejoin:miter;"/>
    </g>
    <g clip-path="url(#p59cea6eea1)">
     <!-- Terminal -->
     <g transform="translate(25.428864 283.298578)rotate(-270)scale(0.08 -0.08)">
      <use xlink:href="#DejaVuSans-84"/>
      <use x="44.083984" xlink:href="#DejaVuSans-101"/>
      <use x="105.607422" xlink:href="#DejaVuSans-114"/>
      <use x="144.970703" xlink:href="#DejaVuSans-109"/>
      <use x="242.382812" xlink:href="#DejaVuSans-105"/>
      <use x="270.166016" xlink:href="#DejaVuSans-110"/>
      <use x="333.544922" xlink:href="#DejaVuSans-97"/>
      <use x="394.824219" xlink:href="#DejaVuSans-108"/>
     </g>
    </g>
   </g>
   <g id="PathCollection_1">
    <defs>
     <path d="M 0 8.660254 
C 2.296726 8.660254 4.499694 7.747755 6.123724 6.123724 
C 7.747755 4.499694 8.660254 2.296726 8.660254 -0 
C 8.660254 -2.296726 7.747755 -4.499694 6.123724 -6.123724 
C 4.499694 -7.747755 2.296726 -8.660254 0 -8.660254 
C -2.296726 -8.660254 -4.499694 -7.747755 -6.123724 -6.123724 
C -7.747755 -4.499694 -8.660254 -2.296726 -8.660254 0 
C -8.660254 2.296726 -7.747755 4.499694 -6.123724 6.123724 
C -4.499694 7.747755 -2.296726 8.660254 0 8.660254 
z
" id="C0_0_34af66a638"/>
    </defs>
    <g clip-path="url(#p59cea6eea1)">
     <use style="fill:#ffffff;stroke:#ffffff;" x="27.636364" xlink:href="#C0_0_34af66a638" y="305.454545"/>
    </g>
    <g clip-path="url(#p59cea6eea1)">
     <use style="fill:#ffffff;stroke:#ffffff;" x="77.884298" xlink:href="#C0_0_34af66a638" y="305.454545"/>
    </g>
    <g clip-path="url(#p59cea6eea1)">
     <use style="fill:#ffffff;stroke:#ffffff;" x="128.132231" xlink:href="#C0_0_34af66a638" y="305.454545"/>
    </g>
    <g clip-path="url(#p59cea6eea1)">
     <use style="fill:#ffffff;stroke:#ffffff;" x="178.380165" xlink:href="#C0_0_34af66a638" y="305.454545"/>
    </g>
    <g clip-path="url(#p59cea6eea1)">
     <use style="fill:#ffffff;stroke:#ffffff;" x="228.628099" xlink:href="#C0_0_34af66a638" y="305.454545"/>
    </g>
    <g clip-path="url(#p59cea6eea1)">
     <use style="fill:#ffffff;stroke:#ffffff;" x="278.876033" xlink:href="#C0_0_34af66a638" y="305.454545"/>
    </g>
    <g clip-path="url(#p59cea6eea1)">
     <use style="fill:#ffffff;stroke:#ffffff;" x="329.123967" xlink:href="#C0_0_34af66a638" y="305.454545"/>
    </g>
    <g clip-path="url(#p59cea6eea1)">
     <use style="fill:#ffffff;stroke:#ffffff;" x="379.371901" xlink:href="#C0_0_34af66a638" y="305.454545"/>
    </g>
    <g clip-path="url(#p59cea6eea1)">
     <use style="fill:#ffffff;stroke:#ffffff;" x="429.619835" xlink:href="#C0_0_34af66a638" y="305.454545"/>
    </g>
    <g clip-path="url(#p59cea6eea1)">
     <use style="fill:#ffffff;stroke:#ffffff;" x="479.867769" xlink:href="#C0_0_34af66a638" y="305.454545"/>
    </g>
    <g clip-path="url(#p59cea6eea1)">
     <use style="fill:#ffffff;stroke:#ffffff;" x="530.115702" xlink:href="#C0_0_34af66a638" y="305.454545"/>
    </g>
    <g clip-path="url(#p59cea6eea1)">
     <use style="fill:#ffffff;stroke:#ffffff;" x="580.363636" xlink:href="#C0_0_34af66a638" y="305.454545"/>
    </g>
    <g clip-path="url(#p59cea6eea1)">
     <use style="stroke:#000000;" x="204.899908" xlink:href="#C0_0_34af66a638" y="14.545455"/>
    </g>
    <g clip-path="url(#p59cea6eea1)">
     <use style="stroke:#000000;" x="77.884298" xlink:href="#C0_0_34af66a638" y="294.950111"/>
    </g>
    <g clip-path="url(#p59cea6eea1)">
     <use style="stroke:#000000;" x="178.380165" xlink:href="#C0_0_34af66a638" y="284.445677"/>
    </g>
    <g clip-path="url(#p59cea6eea1)">
     <use style="stroke:#000000;" x="337.498623" xlink:href="#C0_0_34af66a638" y="262.939468"/>
    </g>
    <g clip-path="url(#p59cea6eea1)">
     <use style="stroke:#000000;" x="580.363636" xlink:href="#C0_0_34af66a638" y="294.950111"/>
    </g>
    <g clip-path="url(#p59cea6eea1)">
     <use style="stroke:#000000;" x="27.636364" xlink:href="#C0_0_34af66a638" y="34.021746"/>
    </g>
    <g clip-path="url(#p59cea6eea1)">
     <use style="stroke:#000000;" x="128.132231" xlink:href="#C0_0_34af66a638" y="294.950111"/>
    </g>
    <g clip-path="url(#p59cea6eea1)">
     <use style="stroke:#000000;" x="178.380165" xlink:href="#C0_0_34af66a638" y="294.950111"/>
    </g>
    <g clip-path="url(#p59cea6eea1)">
     <use style="stroke:#000000;" x="228.628099" xlink:href="#C0_0_34af66a638" y="294.950111"/>
    </g>
    <g clip-path="url(#p59cea6eea1)">
     <use style="stroke:#000000;" x="278.876033" xlink:href="#C0_0_34af66a638" y="294.950111"/>
    </g>
    <g clip-path="url(#p59cea6eea1)">
     <use style="stroke:#000000;" x="396.121212" xlink:href="#C0_0_34af66a638" y="273.795115"/>
    </g>
    <g clip-path="url(#p59cea6eea1)">
     <use style="stroke:#000000;" x="27.636364" xlink:href="#C0_0_34af66a638" y="52.694782"/>
    </g>
    <g clip-path="url(#p59cea6eea1)">
     <use style="stroke:#000000;" x="329.123967" xlink:href="#C0_0_34af66a638" y="294.950111"/>
    </g>
    <g clip-path="url(#p59cea6eea1)">
     <use style="stroke:#000000;" x="379.371901" xlink:href="#C0_0_34af66a638" y="294.950111"/>
    </g>
    <g clip-path="url(#p59cea6eea1)">
     <use style="stroke:#000000;" x="479.867769" xlink:href="#C0_0_34af66a638" y="284.445677"/>
    </g>
    <g clip-path="url(#p59cea6eea1)">
     <use style="stroke:#000000;" x="27.636364" xlink:href="#C0_0_34af66a638" y="70.610651"/>
    </g>
    <g clip-path="url(#p59cea6eea1)">
     <use style="stroke:#000000;" x="429.619835" xlink:href="#C0_0_34af66a638" y="294.950111"/>
    </g>
    <g clip-path="url(#p59cea6eea1)">
     <use style="stroke:#000000;" x="479.867769" xlink:href="#C0_0_34af66a638" y="294.950111"/>
    </g>
    <g clip-path="url(#p59cea6eea1)">
     <use style="stroke:#000000;" x="530.115702" xlink:href="#C0_0_34af66a638" y="294.950111"/>
    </g>
    <g clip-path="url(#p59cea6eea1)">
     <use style="stroke:#000000;" x="27.636364" xlink:href="#C0_0_34af66a638" y="87.812912"/>
    </g>
    <g clip-path="url(#p59cea6eea1)">
     <use style="stroke:#000000;" x="27.636364" xlink:href="#C0_0_34af66a638" y="104.342792"/>
    </g>
    <g clip-path="url(#p59cea6eea1)">
     <use style="stroke:#000000;" x="27.636364" xlink:href="#C0_0_34af66a638" y="120.239384"/>
    </g>
    <g clip-path="url(#p59cea6eea1)">
     <use style="stroke:#000000;" x="27.636364" xlink:href="#C0_0_34af66a638" y="135.539832"/>
    </g>
    <g clip-path="url(#p59cea6eea1)">
     <use style="stroke:#000000;" x="27.636364" xlink:href="#C0_0_34af66a638" y="150.279518"/>
    </g>
    <g clip-path="url(#p59cea6eea1)">
     <use style="stroke:#000000;" x="27.636364" xlink:href="#C0_0_34af66a638" y="164.492251"/>
    </g>
    <g clip-path="url(#p59cea6eea1)">
     <use style="stroke:#000000;" x="27.636364" xlink:href="#C0_0_34af66a638" y="178.210461"/>
    </g>
    <g clip-path="url(#p59cea6eea1)">
     <use style="stroke:#000000;" x="27.636364" xlink:href="#C0_0_34af66a638" y="191.465405"/>
    </g>
    <g clip-path="url(#p59cea6eea1)">
     <use style="stroke:#000000;" x="27.636364" xlink:href="#C0_0_34af66a638" y="204.287398"/>
    </g>
    <g clip-path="url(#p59cea6eea1)">
     <use style="stroke:#000000;" x="27.636364" xlink:href="#C0_0_34af66a638" y="216.706085"/>
    </g>
    <g clip-path="url(#p59cea6eea1)">
     <use style="stroke:#000000;" x="27.636364" xlink:href="#C0_0_34af66a638" y="228.750768"/>
    </g>
    <g clip-path="url(#p59cea6eea1)">
     <use style="stroke:#000000;" x="27.636364" xlink:href="#C0_0_34af66a638" y="240.450853"/>
    </g>
    <g clip-path="url(#p59cea6eea1)">
     <use style="stroke:#000000;" x="27.636364" xlink:href="#C0_0_34af66a638" y="251.836472"/>
    </g>
    <g clip-path="url(#p59cea6eea1)">
     <use style="stroke:#000000;" x="27.636364" xlink:href="#C0_0_34af66a638" y="262.939468"/>
    </g>
    <g clip-path="url(#p59cea6eea1)">
     <use style="stroke:#000000;" x="27.636364" xlink:href="#C0_0_34af66a638" y="273.795115"/>
    </g>
    <g clip-path="url(#p59cea6eea1)">
     <use style="stroke:#000000;" x="27.636364" xlink:href="#C0_0_34af66a638" y="284.445677"/>
    </g>
    <g clip-path="url(#p59cea6eea1)">
     <use style="stroke:#000000;" x="27.636364" xlink:href="#C0_0_34af66a638" y="294.950111"/>
    </g>
   </g>
   <g id="text_49">
    <g clip-path="url(#p59cea6eea1)">
     <!-- A -->
     <g transform="translate(24.216051 308.21392)scale(0.1 -0.1)">
      <use xlink:href="#DejaVuSans-65"/>
     </g>
    </g>
   </g>
   <g id="text_50">
    <g clip-path="url(#p59cea6eea1)">
     <!-- revolution -->
     <g transform="translate(52.71086 308.21392)scale(0.1 -0.1)">
      <defs>
       <path d="M 2.984375 54.6875 
L 12.5 54.6875 
L 29.59375 8.796875 
L 46.6875 54.6875 
L 56.203125 54.6875 
L 35.6875 0 
L 23.484375 0 
z
" id="DejaVuSans-118"/>
       <path d="M 30.609375 48.390625 
Q 23.390625 48.390625 19.1875 42.75 
Q 14.984375 37.109375 14.984375 27.296875 
Q 14.984375 17.484375 19.15625 11.84375 
Q 23.34375 6.203125 30.609375 6.203125 
Q 37.796875 6.203125 41.984375 11.859375 
Q 46.1875 17.53125 46.1875 27.296875 
Q 46.1875 37.015625 41.984375 42.703125 
Q 37.796875 48.390625 30.609375 48.390625 
z
M 30.609375 56 
Q 42.328125 56 49.015625 48.375 
Q 55.71875 40.765625 55.71875 27.296875 
Q 55.71875 13.875 49.015625 6.21875 
Q 42.328125 -1.421875 30.609375 -1.421875 
Q 18.84375 -1.421875 12.171875 6.21875 
Q 5.515625 13.875 5.515625 27.296875 
Q 5.515625 40.765625 12.171875 48.375 
Q 18.84375 56 30.609375 56 
z
" id="DejaVuSans-111"/>
       <path d="M 8.5 21.578125 
L 8.5 54.6875 
L 17.484375 54.6875 
L 17.484375 21.921875 
Q 17.484375 14.15625 20.5 10.265625 
Q 23.53125 6.390625 29.59375 6.390625 
Q 36.859375 6.390625 41.078125 11.03125 
Q 45.3125 15.671875 45.3125 23.6875 
L 45.3125 54.6875 
L 54.296875 54.6875 
L 54.296875 0 
L 45.3125 0 
L 45.3125 8.40625 
Q 42.046875 3.421875 37.71875 1 
Q 33.40625 -1.421875 27.6875 -1.421875 
Q 18.265625 -1.421875 13.375 4.4375 
Q 8.5 10.296875 8.5 21.578125 
z
M 31.109375 56 
z
" id="DejaVuSans-117"/>
       <path d="M 18.3125 70.21875 
L 18.3125 54.6875 
L 36.8125 54.6875 
L 36.8125 47.703125 
L 18.3125 47.703125 
L 18.3125 18.015625 
Q 18.3125 11.328125 20.140625 9.421875 
Q 21.96875 7.515625 27.59375 7.515625 
L 36.8125 7.515625 
L 36.8125 0 
L 27.59375 0 
Q 17.1875 0 13.234375 3.875 
Q 9.28125 7.765625 9.28125 18.015625 
L 9.28125 47.703125 
L 2.6875 47.703125 
L 2.6875 54.6875 
L 9.28125 54.6875 
L 9.28125 70.21875 
z
" id="DejaVuSans-116"/>
      </defs>
      <use xlink:href="#DejaVuSans-114"/>
      <use x="38.863281" xlink:href="#DejaVuSans-101"/>
      <use x="100.386719" xlink:href="#DejaVuSans-118"/>
      <use x="159.566406" xlink:href="#DejaVuSans-111"/>
      <use x="220.748047" xlink:href="#DejaVuSans-108"/>
      <use x="248.53125" xlink:href="#DejaVuSans-117"/>
      <use x="311.910156" xlink:href="#DejaVuSans-116"/>
      <use x="351.119141" xlink:href="#DejaVuSans-105"/>
      <use x="378.902344" xlink:href="#DejaVuSans-111"/>
      <use x="440.083984" xlink:href="#DejaVuSans-110"/>
     </g>
    </g>
   </g>
   <g id="text_51">
    <g clip-path="url(#p59cea6eea1)">
     <!-- of -->
     <g transform="translate(123.3127 308.21392)scale(0.1 -0.1)">
      <defs>
       <path d="M 37.109375 75.984375 
L 37.109375 68.5 
L 28.515625 68.5 
Q 23.6875 68.5 21.796875 66.546875 
Q 19.921875 64.59375 19.921875 59.515625 
L 19.921875 54.6875 
L 34.71875 54.6875 
L 34.71875 47.703125 
L 19.921875 47.703125 
L 19.921875 0 
L 10.890625 0 
L 10.890625 47.703125 
L 2.296875 47.703125 
L 2.296875 54.6875 
L 10.890625 54.6875 
L 10.890625 58.5 
Q 10.890625 67.625 15.140625 71.796875 
Q 19.390625 75.984375 28.609375 75.984375 
z
" id="DejaVuSans-102"/>
      </defs>
      <use xlink:href="#DejaVuSans-111"/>
      <use x="61.181641" xlink:href="#DejaVuSans-102"/>
     </g>
    </g>
   </g>
   <g id="text_52">
    <g clip-path="url(#p59cea6eea1)">
     <!-- the -->
     <g transform="translate(170.174697 308.21392)scale(0.1 -0.1)">
      <defs>
       <path d="M 54.890625 33.015625 
L 54.890625 0 
L 45.90625 0 
L 45.90625 32.71875 
Q 45.90625 40.484375 42.875 44.328125 
Q 39.84375 48.1875 33.796875 48.1875 
Q 26.515625 48.1875 22.3125 43.546875 
Q 18.109375 38.921875 18.109375 30.90625 
L 18.109375 0 
L 9.078125 0 
L 9.078125 75.984375 
L 18.109375 75.984375 
L 18.109375 46.1875 
Q 21.34375 51.125 25.703125 53.5625 
Q 30.078125 56 35.796875 56 
Q 45.21875 56 50.046875 50.171875 
Q 54.890625 44.34375 54.890625 33.015625 
z
" id="DejaVuSans-104"/>
      </defs>
      <use xlink:href="#DejaVuSans-116"/>
      <use x="39.208984" xlink:href="#DejaVuSans-104"/>
      <use x="102.587891" xlink:href="#DejaVuSans-101"/>
     </g>
    </g>
   </g>
   <g id="text_53">
    <g clip-path="url(#p59cea6eea1)">
     <!-- moon -->
     <g transform="translate(214.470287 308.21392)scale(0.1 -0.1)">
      <use xlink:href="#DejaVuSans-109"/>
      <use x="97.412109" xlink:href="#DejaVuSans-111"/>
      <use x="158.59375" xlink:href="#DejaVuSans-111"/>
      <use x="219.775391" xlink:href="#DejaVuSans-110"/>
     </g>
    </g>
   </g>
   <g id="text_54">
    <g clip-path="url(#p59cea6eea1)">
     <!-- around -->
     <g transform="translate(261.297908 308.21392)scale(0.1 -0.1)">
      <defs>
       <path d="M 45.40625 46.390625 
L 45.40625 75.984375 
L 54.390625 75.984375 
L 54.390625 0 
L 45.40625 0 
L 45.40625 8.203125 
Q 42.578125 3.328125 38.25 0.953125 
Q 33.9375 -1.421875 27.875 -1.421875 
Q 17.96875 -1.421875 11.734375 6.484375 
Q 5.515625 14.40625 5.515625 27.296875 
Q 5.515625 40.1875 11.734375 48.09375 
Q 17.96875 56 27.875 56 
Q 33.9375 56 38.25 53.625 
Q 42.578125 51.265625 45.40625 46.390625 
z
M 14.796875 27.296875 
Q 14.796875 17.390625 18.875 11.75 
Q 22.953125 6.109375 30.078125 6.109375 
Q 37.203125 6.109375 41.296875 11.75 
Q 45.40625 17.390625 45.40625 27.296875 
Q 45.40625 37.203125 41.296875 42.84375 
Q 37.203125 48.484375 30.078125 48.484375 
Q 22.953125 48.484375 18.875 42.84375 
Q 14.796875 37.203125 14.796875 27.296875 
z
" id="DejaVuSans-100"/>
      </defs>
      <use xlink:href="#DejaVuSans-97"/>
      <use x="61.279297" xlink:href="#DejaVuSans-114"/>
      <use x="100.142578" xlink:href="#DejaVuSans-111"/>
      <use x="161.324219" xlink:href="#DejaVuSans-117"/>
      <use x="224.703125" xlink:href="#DejaVuSans-110"/>
      <use x="288.082031" xlink:href="#DejaVuSans-100"/>
     </g>
    </g>
   </g>
   <g id="text_55">
    <g clip-path="url(#p59cea6eea1)">
     <!-- the -->
     <g transform="translate(320.918498 308.21392)scale(0.1 -0.1)">
      <use xlink:href="#DejaVuSans-116"/>
      <use x="39.208984" xlink:href="#DejaVuSans-104"/>
      <use x="102.587891" xlink:href="#DejaVuSans-101"/>
     </g>
    </g>
   </g>
   <g id="text_56">
    <g clip-path="url(#p59cea6eea1)">
     <!-- Earth -->
     <g transform="translate(365.964088 308.21392)scale(0.1 -0.1)">
      <use xlink:href="#DejaVuSans-69"/>
      <use x="63.183594" xlink:href="#DejaVuSans-97"/>
      <use x="124.462891" xlink:href="#DejaVuSans-114"/>
      <use x="165.576172" xlink:href="#DejaVuSans-116"/>
      <use x="204.785156" xlink:href="#DejaVuSans-104"/>
     </g>
    </g>
   </g>
   <g id="text_57">
    <g clip-path="url(#p59cea6eea1)">
     <!-- takes -->
     <g transform="translate(416.200303 308.21392)scale(0.1 -0.1)">
      <defs>
       <path d="M 9.078125 75.984375 
L 18.109375 75.984375 
L 18.109375 31.109375 
L 44.921875 54.6875 
L 56.390625 54.6875 
L 27.390625 29.109375 
L 57.625 0 
L 45.90625 0 
L 18.109375 26.703125 
L 18.109375 0 
L 9.078125 0 
z
" id="DejaVuSans-107"/>
       <path d="M 44.28125 53.078125 
L 44.28125 44.578125 
Q 40.484375 46.53125 36.375 47.5 
Q 32.28125 48.484375 27.875 48.484375 
Q 21.1875 48.484375 17.84375 46.4375 
Q 14.5 44.390625 14.5 40.28125 
Q 14.5 37.15625 16.890625 35.375 
Q 19.28125 33.59375 26.515625 31.984375 
L 29.59375 31.296875 
Q 39.15625 29.25 43.1875 25.515625 
Q 47.21875 21.78125 47.21875 15.09375 
Q 47.21875 7.46875 41.1875 3.015625 
Q 35.15625 -1.421875 24.609375 -1.421875 
Q 20.21875 -1.421875 15.453125 -0.5625 
Q 10.6875 0.296875 5.421875 2 
L 5.421875 11.28125 
Q 10.40625 8.6875 15.234375 7.390625 
Q 20.0625 6.109375 24.8125 6.109375 
Q 31.15625 6.109375 34.5625 8.28125 
Q 37.984375 10.453125 37.984375 14.40625 
Q 37.984375 18.0625 35.515625 20.015625 
Q 33.0625 21.96875 24.703125 23.78125 
L 21.578125 24.515625 
Q 13.234375 26.265625 9.515625 29.90625 
Q 5.8125 33.546875 5.8125 39.890625 
Q 5.8125 47.609375 11.28125 51.796875 
Q 16.75 56 26.8125 56 
Q 31.78125 56 36.171875 55.265625 
Q 40.578125 54.546875 44.28125 53.078125 
z
" id="DejaVuSans-115"/>
      </defs>
      <use xlink:href="#DejaVuSans-116"/>
      <use x="39.208984" xlink:href="#DejaVuSans-97"/>
      <use x="100.488281" xlink:href="#DejaVuSans-107"/>
      <use x="154.773438" xlink:href="#DejaVuSans-101"/>
      <use x="216.296875" xlink:href="#DejaVuSans-115"/>
     </g>
    </g>
   </g>
   <g id="text_58">
    <g clip-path="url(#p59cea6eea1)">
     <!-- 1 -->
     <g transform="translate(476.686519 308.21392)scale(0.1 -0.1)">
      <defs>
       <path d="M 12.40625 8.296875 
L 28.515625 8.296875 
L 28.515625 63.921875 
L 10.984375 60.40625 
L 10.984375 69.390625 
L 28.421875 72.90625 
L 38.28125 72.90625 
L 38.28125 8.296875 
L 54.390625 8.296875 
L 54.390625 0 
L 12.40625 0 
z
" id="DejaVuSans-49"/>
      </defs>
      <use xlink:href="#DejaVuSans-49"/>
     </g>
    </g>
   </g>
   <g id="text_59">
    <g clip-path="url(#p59cea6eea1)">
     <!-- month -->
     <g transform="translate(513.888359 308.21392)scale(0.1 -0.1)">
      <use xlink:href="#DejaVuSans-109"/>
      <use x="97.412109" xlink:href="#DejaVuSans-111"/>
      <use x="158.59375" xlink:href="#DejaVuSans-110"/>
      <use x="221.972656" xlink:href="#DejaVuSans-116"/>
      <use x="261.181641" xlink:href="#DejaVuSans-104"/>
     </g>
    </g>
   </g>
   <g id="text_60">
    <g clip-path="url(#p59cea6eea1)">
     <!-- . -->
     <g transform="translate(578.774574 308.21392)scale(0.1 -0.1)">
      <defs>
       <path d="M 10.6875 12.40625 
L 21 12.40625 
L 21 0 
L 10.6875 0 
z
" id="DejaVuSans-46"/>
      </defs>
      <use xlink:href="#DejaVuSans-46"/>
     </g>
    </g>
   </g>
  </g>
 </g>
 <defs>
  <clipPath id="p59cea6eea1">
   <rect height="320" width="608" x="0" y="0"/>
  </clipPath>
 </defs>
</svg>
