<?xml version="1.0" encoding="utf-8" standalone="no"?>
<!DOCTYPE svg PUBLIC "-//W3C//DTD SVG 1.1//EN"
  "http://www.w3.org/Graphics/SVG/1.1/DTD/svg11.dtd">
<!-- Created with matplotlib (https://matplotlib.org/) -->
<svg height="106.666667pt" version="1.1" viewBox="0 0 202.666667 106.666667" width="202.666667pt" xmlns="http://www.w3.org/2000/svg" xmlns:xlink="http://www.w3.org/1999/xlink">
 <metadata>
  <rdf:RDF xmlns:cc="http://creativecommons.org/ns#" xmlns:dc="http://purl.org/dc/elements/1.1/" xmlns:rdf="http://www.w3.org/1999/02/22-rdf-syntax-ns#">
   <cc:Work>
    <dc:type rdf:resource="http://purl.org/dc/dcmitype/StillImage"/>
    <dc:date>2021-05-19T11:42:09.441923</dc:date>
    <dc:format>image/svg+xml</dc:format>
    <dc:creator>
     <cc:Agent>
      <dc:title>Matplotlib v3.3.4, https://matplotlib.org/</dc:title>
     </cc:Agent>
    </dc:creator>
   </cc:Work>
  </rdf:RDF>
 </metadata>
 <defs>
  <style type="text/css">*{stroke-linecap:butt;stroke-linejoin:round;}</style>
 </defs>
 <g id="figure_1">
  <g id="patch_1">
   <path d="M 0 106.666667 
L 202.666667 106.666667 
L 202.666667 0 
L 0 0 
z
" style="fill:#ffffff;"/>
  </g>
  <g id="axes_1">
   <g id="LineCollection_1">
    <path clip-path="url(#p6d3ce3b6fb)" d="M 82.909091 4.848485 
L 132.040404 98.316704 
" style="fill:none;stroke:#000000;"/>
    <path clip-path="url(#p6d3ce3b6fb)" d="M 82.909091 4.848485 
L 193.454545 98.316704 
" style="fill:none;stroke:#000000;"/>
    <path clip-path="url(#p6d3ce3b6fb)" d="M 82.909091 4.848485 
L 39.919192 11.340582 
" style="fill:none;stroke:#000000;"/>
    <path clip-path="url(#p6d3ce3b6fb)" d="M 82.909091 4.848485 
L 39.919192 94.815226 
" style="fill:none;stroke:#000000;stroke-dasharray:3.7,1.6;stroke-dashoffset:0;"/>
    <path clip-path="url(#p6d3ce3b6fb)" d="M 82.909091 4.848485 
L 9.212121 98.316704 
" style="fill:none;stroke:#000000;stroke-dasharray:3.7,1.6;stroke-dashoffset:0;"/>
    <path clip-path="url(#p6d3ce3b6fb)" d="M 132.040404 98.316704 
L 132.040404 101.818182 
" style="fill:none;stroke:#000000;"/>
    <path clip-path="url(#p6d3ce3b6fb)" d="M 193.454545 98.316704 
L 193.454545 101.818182 
" style="fill:none;stroke:#000000;"/>
    <path clip-path="url(#p6d3ce3b6fb)" d="M 39.919192 11.340582 
L 39.919192 17.564927 
" style="fill:none;stroke:#000000;"/>
    <path clip-path="url(#p6d3ce3b6fb)" d="M 39.919192 17.564927 
L 39.919192 23.536884 
" style="fill:none;stroke:#000000;"/>
    <path clip-path="url(#p6d3ce3b6fb)" d="M 39.919192 23.536884 
L 39.919192 29.270971 
" style="fill:none;stroke:#000000;"/>
    <path clip-path="url(#p6d3ce3b6fb)" d="M 39.919192 29.270971 
L 39.919192 34.780931 
" style="fill:none;stroke:#000000;"/>
    <path clip-path="url(#p6d3ce3b6fb)" d="M 39.919192 34.780931 
L 39.919192 40.079795 
" style="fill:none;stroke:#000000;"/>
    <path clip-path="url(#p6d3ce3b6fb)" d="M 39.919192 40.079795 
L 39.919192 45.179944 
" style="fill:none;stroke:#000000;"/>
    <path clip-path="url(#p6d3ce3b6fb)" d="M 39.919192 45.179944 
L 39.919192 50.093173 
" style="fill:none;stroke:#000000;"/>
    <path clip-path="url(#p6d3ce3b6fb)" d="M 39.919192 50.093173 
L 39.919192 54.83075 
" style="fill:none;stroke:#000000;"/>
    <path clip-path="url(#p6d3ce3b6fb)" d="M 39.919192 54.83075 
L 39.919192 59.403487 
" style="fill:none;stroke:#000000;"/>
    <path clip-path="url(#p6d3ce3b6fb)" d="M 39.919192 59.403487 
L 39.919192 63.821802 
" style="fill:none;stroke:#000000;"/>
    <path clip-path="url(#p6d3ce3b6fb)" d="M 39.919192 63.821802 
L 39.919192 68.095799 
" style="fill:none;stroke:#000000;"/>
    <path clip-path="url(#p6d3ce3b6fb)" d="M 39.919192 68.095799 
L 39.919192 72.235362 
" style="fill:none;stroke:#000000;"/>
    <path clip-path="url(#p6d3ce3b6fb)" d="M 39.919192 72.235362 
L 39.919192 76.250256 
" style="fill:none;stroke:#000000;"/>
    <path clip-path="url(#p6d3ce3b6fb)" d="M 39.919192 76.250256 
L 39.919192 80.150284 
" style="fill:none;stroke:#000000;"/>
    <path clip-path="url(#p6d3ce3b6fb)" d="M 39.919192 80.150284 
L 39.919192 83.945491 
" style="fill:none;stroke:#000000;"/>
    <path clip-path="url(#p6d3ce3b6fb)" d="M 39.919192 83.945491 
L 39.919192 87.646489 
" style="fill:none;stroke:#000000;"/>
    <path clip-path="url(#p6d3ce3b6fb)" d="M 39.919192 87.646489 
L 39.919192 91.265038 
" style="fill:none;stroke:#000000;"/>
    <path clip-path="url(#p6d3ce3b6fb)" d="M 39.919192 91.265038 
L 39.919192 94.815226 
" style="fill:none;stroke:#000000;"/>
    <path clip-path="url(#p6d3ce3b6fb)" d="M 39.919192 94.815226 
L 9.212121 98.316704 
" style="fill:none;stroke:#000000;"/>
    <path clip-path="url(#p6d3ce3b6fb)" d="M 39.919192 94.815226 
L 70.626263 98.316704 
" style="fill:none;stroke:#000000;"/>
    <path clip-path="url(#p6d3ce3b6fb)" d="M 9.212121 98.316704 
L 9.212121 101.818182 
" style="fill:none;stroke:#000000;"/>
    <path clip-path="url(#p6d3ce3b6fb)" d="M 70.626263 98.316704 
L 70.626263 101.818182 
" style="fill:none;stroke:#000000;"/>
   </g>
   <g id="text_1">
    <g id="patch_2">
     <path clip-path="url(#p6d3ce3b6fb)" d="M 100.624082 52.028132 
L 103.223269 56.972868 
Q 104.339948 59.097257 106.464337 57.980578 
L 113.317703 54.378124 
Q 115.442092 53.261445 114.325413 51.137057 
L 111.726226 46.19232 
Q 110.609547 44.067932 108.485158 45.184611 
L 101.631791 48.787064 
Q 99.507403 49.903743 100.624082 52.028132 
z
" style="fill:#ffffff;stroke:#ffffff;stroke-linejoin:miter;"/>
    </g>
    <g clip-path="url(#p6d3ce3b6fb)">
     <!-- C -->
     <g transform="translate(104.221159 50.137338)rotate(-297.728537)scale(0.08 -0.08)">
      <defs>
       <path d="M 64.40625 67.28125 
L 64.40625 56.890625 
Q 59.421875 61.53125 53.78125 63.8125 
Q 48.140625 66.109375 41.796875 66.109375 
Q 29.296875 66.109375 22.65625 58.46875 
Q 16.015625 50.828125 16.015625 36.375 
Q 16.015625 21.96875 22.65625 14.328125 
Q 29.296875 6.6875 41.796875 6.6875 
Q 48.140625 6.6875 53.78125 8.984375 
Q 59.421875 11.28125 64.40625 15.921875 
L 64.40625 5.609375 
Q 59.234375 2.09375 53.4375 0.328125 
Q 47.65625 -1.421875 41.21875 -1.421875 
Q 24.65625 -1.421875 15.125 8.703125 
Q 5.609375 18.84375 5.609375 36.375 
Q 5.609375 53.953125 15.125 64.078125 
Q 24.65625 74.21875 41.21875 74.21875 
Q 47.75 74.21875 53.53125 72.484375 
Q 59.328125 70.75 64.40625 67.28125 
z
" id="DejaVuSans-67"/>
      </defs>
      <use xlink:href="#DejaVuSans-67"/>
     </g>
    </g>
   </g>
   <g id="text_2">
    <g id="patch_3">
     <path clip-path="url(#p6d3ce3b6fb)" d="M 131.897213 54.481313 
L 136.36824 58.261649 
Q 138.200941 59.811231 139.750524 57.97853 
L 144.749542 52.06616 
Q 146.299125 50.233459 144.466424 48.683876 
L 139.995396 44.90354 
Q 138.162695 43.353957 136.613112 45.186658 
L 131.614094 51.099029 
Q 130.064512 52.93173 131.897213 54.481313 
z
" style="fill:#ffffff;stroke:#ffffff;stroke-linejoin:miter;"/>
    </g>
    <g clip-path="url(#p6d3ce3b6fb)">
     <!-- U -->
     <g transform="translate(134.521011 51.37813)rotate(-319.784865)scale(0.08 -0.08)">
      <defs>
       <path d="M 8.6875 72.90625 
L 18.609375 72.90625 
L 18.609375 28.609375 
Q 18.609375 16.890625 22.84375 11.734375 
Q 27.09375 6.59375 36.625 6.59375 
Q 46.09375 6.59375 50.34375 11.734375 
Q 54.59375 16.890625 54.59375 28.609375 
L 54.59375 72.90625 
L 64.5 72.90625 
L 64.5 27.390625 
Q 64.5 13.140625 57.4375 5.859375 
Q 50.390625 -1.421875 36.625 -1.421875 
Q 22.796875 -1.421875 15.734375 5.859375 
Q 8.6875 13.140625 8.6875 27.390625 
z
" id="DejaVuSans-85"/>
      </defs>
      <use xlink:href="#DejaVuSans-85"/>
     </g>
    </g>
   </g>
   <g id="text_3">
    <g id="patch_4">
     <path clip-path="url(#p6d3ce3b6fb)" d="M 59.965739 14.655619 
L 64.735408 13.93533 
Q 67.108501 13.576959 66.75013 11.203866 
L 65.594009 3.548169 
Q 65.235637 1.175076 62.862544 1.533448 
L 58.092875 2.253737 
Q 55.719782 2.612108 56.078153 4.985201 
L 57.234274 12.640898 
Q 57.592646 15.013991 59.965739 14.655619 
z
" style="fill:#ffffff;stroke:#ffffff;stroke-linejoin:miter;"/>
    </g>
    <g clip-path="url(#p6d3ce3b6fb)">
     <!-- P -->
     <g transform="translate(59.358934 10.637429)rotate(-8.587604)scale(0.08 -0.08)">
      <defs>
       <path d="M 19.671875 64.796875 
L 19.671875 37.40625 
L 32.078125 37.40625 
Q 38.96875 37.40625 42.71875 40.96875 
Q 46.484375 44.53125 46.484375 51.125 
Q 46.484375 57.671875 42.71875 61.234375 
Q 38.96875 64.796875 32.078125 64.796875 
z
M 9.8125 72.90625 
L 32.078125 72.90625 
Q 44.34375 72.90625 50.609375 67.359375 
Q 56.890625 61.8125 56.890625 51.125 
Q 56.890625 40.328125 50.609375 34.8125 
Q 44.34375 29.296875 32.078125 29.296875 
L 19.671875 29.296875 
L 19.671875 0 
L 9.8125 0 
z
" id="DejaVuSans-80"/>
      </defs>
      <use xlink:href="#DejaVuSans-80"/>
     </g>
    </g>
   </g>
   <g id="text_4">
    <g id="patch_5">
     <path clip-path="url(#p6d3ce3b6fb)" d="M 65.892844 55.004559 
L 68.252301 50.066825 
Q 69.287056 47.90135 67.121581 46.866595 
L 60.135669 43.528432 
Q 57.970194 42.493677 56.935439 44.659151 
L 54.575982 49.596885 
Q 53.541226 51.76236 55.706701 52.797116 
L 62.692614 56.135279 
Q 64.858089 57.170034 65.892844 55.004559 
z
" style="fill:#ffffff;stroke:#ffffff;stroke-linejoin:miter;"/>
    </g>
    <g clip-path="url(#p6d3ce3b6fb)">
     <!-- A -->
     <g transform="translate(62.226199 53.252481)rotate(-64.459564)scale(0.08 -0.08)">
      <defs>
       <path d="M 34.1875 63.1875 
L 20.796875 26.90625 
L 47.609375 26.90625 
z
M 28.609375 72.90625 
L 39.796875 72.90625 
L 67.578125 0 
L 57.328125 0 
L 50.6875 18.703125 
L 17.828125 18.703125 
L 11.1875 0 
L 0.78125 0 
z
" id="DejaVuSans-65"/>
      </defs>
      <use xlink:href="#DejaVuSans-65"/>
     </g>
    </g>
   </g>
   <g id="text_5">
    <g id="patch_6">
     <path clip-path="url(#p6d3ce3b6fb)" d="M 49.291029 57.614179 
L 52.679377 53.316813 
Q 54.165359 51.432175 52.280721 49.946193 
L 46.200802 45.152354 
Q 44.316165 43.666373 42.830183 45.55101 
L 39.441835 49.848376 
Q 37.955853 51.733013 39.840491 53.218995 
L 45.92041 58.012834 
Q 47.805047 59.498816 49.291029 57.614179 
z
" style="fill:#ffffff;stroke:#ffffff;stroke-linejoin:miter;"/>
    </g>
    <g clip-path="url(#p6d3ce3b6fb)">
     <!-- A -->
     <g transform="translate(46.099906 55.098071)rotate(-51.745249)scale(0.08 -0.08)">
      <use xlink:href="#DejaVuSans-65"/>
     </g>
    </g>
   </g>
   <g id="text_6">
    <g id="patch_7">
     <path clip-path="url(#p6d3ce3b6fb)" d="M 125.769154 83.163693 
L 125.769154 116.971193 
Q 125.769154 119.371193 128.169154 119.371193 
L 135.911654 119.371193 
Q 138.311654 119.371193 138.311654 116.971193 
L 138.311654 83.163693 
Q 138.311654 80.763693 135.911654 80.763693 
L 128.169154 80.763693 
Q 125.769154 80.763693 125.769154 83.163693 
z
" style="fill:#ffffff;stroke:#ffffff;stroke-linejoin:miter;"/>
    </g>
    <g clip-path="url(#p6d3ce3b6fb)">
     <!-- Terminal -->
     <g transform="translate(129.832904 83.163693)rotate(-270)scale(0.08 -0.08)">
      <defs>
       <path d="M -0.296875 72.90625 
L 61.375 72.90625 
L 61.375 64.59375 
L 35.5 64.59375 
L 35.5 0 
L 25.59375 0 
L 25.59375 64.59375 
L -0.296875 64.59375 
z
" id="DejaVuSans-84"/>
       <path d="M 56.203125 29.59375 
L 56.203125 25.203125 
L 14.890625 25.203125 
Q 15.484375 15.921875 20.484375 11.0625 
Q 25.484375 6.203125 34.421875 6.203125 
Q 39.59375 6.203125 44.453125 7.46875 
Q 49.3125 8.734375 54.109375 11.28125 
L 54.109375 2.78125 
Q 49.265625 0.734375 44.1875 -0.34375 
Q 39.109375 -1.421875 33.890625 -1.421875 
Q 20.796875 -1.421875 13.15625 6.1875 
Q 5.515625 13.8125 5.515625 26.8125 
Q 5.515625 40.234375 12.765625 48.109375 
Q 20.015625 56 32.328125 56 
Q 43.359375 56 49.78125 48.890625 
Q 56.203125 41.796875 56.203125 29.59375 
z
M 47.21875 32.234375 
Q 47.125 39.59375 43.09375 43.984375 
Q 39.0625 48.390625 32.421875 48.390625 
Q 24.90625 48.390625 20.390625 44.140625 
Q 15.875 39.890625 15.1875 32.171875 
z
" id="DejaVuSans-101"/>
       <path d="M 41.109375 46.296875 
Q 39.59375 47.171875 37.8125 47.578125 
Q 36.03125 48 33.890625 48 
Q 26.265625 48 22.1875 43.046875 
Q 18.109375 38.09375 18.109375 28.8125 
L 18.109375 0 
L 9.078125 0 
L 9.078125 54.6875 
L 18.109375 54.6875 
L 18.109375 46.1875 
Q 20.953125 51.171875 25.484375 53.578125 
Q 30.03125 56 36.53125 56 
Q 37.453125 56 38.578125 55.875 
Q 39.703125 55.765625 41.0625 55.515625 
z
" id="DejaVuSans-114"/>
       <path d="M 52 44.1875 
Q 55.375 50.25 60.0625 53.125 
Q 64.75 56 71.09375 56 
Q 79.640625 56 84.28125 50.015625 
Q 88.921875 44.046875 88.921875 33.015625 
L 88.921875 0 
L 79.890625 0 
L 79.890625 32.71875 
Q 79.890625 40.578125 77.09375 44.375 
Q 74.3125 48.1875 68.609375 48.1875 
Q 61.625 48.1875 57.5625 43.546875 
Q 53.515625 38.921875 53.515625 30.90625 
L 53.515625 0 
L 44.484375 0 
L 44.484375 32.71875 
Q 44.484375 40.625 41.703125 44.40625 
Q 38.921875 48.1875 33.109375 48.1875 
Q 26.21875 48.1875 22.15625 43.53125 
Q 18.109375 38.875 18.109375 30.90625 
L 18.109375 0 
L 9.078125 0 
L 9.078125 54.6875 
L 18.109375 54.6875 
L 18.109375 46.1875 
Q 21.1875 51.21875 25.484375 53.609375 
Q 29.78125 56 35.6875 56 
Q 41.65625 56 45.828125 52.96875 
Q 50 49.953125 52 44.1875 
z
" id="DejaVuSans-109"/>
       <path d="M 9.421875 54.6875 
L 18.40625 54.6875 
L 18.40625 0 
L 9.421875 0 
z
M 9.421875 75.984375 
L 18.40625 75.984375 
L 18.40625 64.59375 
L 9.421875 64.59375 
z
" id="DejaVuSans-105"/>
       <path d="M 54.890625 33.015625 
L 54.890625 0 
L 45.90625 0 
L 45.90625 32.71875 
Q 45.90625 40.484375 42.875 44.328125 
Q 39.84375 48.1875 33.796875 48.1875 
Q 26.515625 48.1875 22.3125 43.546875 
Q 18.109375 38.921875 18.109375 30.90625 
L 18.109375 0 
L 9.078125 0 
L 9.078125 54.6875 
L 18.109375 54.6875 
L 18.109375 46.1875 
Q 21.34375 51.125 25.703125 53.5625 
Q 30.078125 56 35.796875 56 
Q 45.21875 56 50.046875 50.171875 
Q 54.890625 44.34375 54.890625 33.015625 
z
" id="DejaVuSans-110"/>
       <path d="M 34.28125 27.484375 
Q 23.390625 27.484375 19.1875 25 
Q 14.984375 22.515625 14.984375 16.5 
Q 14.984375 11.71875 18.140625 8.90625 
Q 21.296875 6.109375 26.703125 6.109375 
Q 34.1875 6.109375 38.703125 11.40625 
Q 43.21875 16.703125 43.21875 25.484375 
L 43.21875 27.484375 
z
M 52.203125 31.203125 
L 52.203125 0 
L 43.21875 0 
L 43.21875 8.296875 
Q 40.140625 3.328125 35.546875 0.953125 
Q 30.953125 -1.421875 24.3125 -1.421875 
Q 15.921875 -1.421875 10.953125 3.296875 
Q 6 8.015625 6 15.921875 
Q 6 25.140625 12.171875 29.828125 
Q 18.359375 34.515625 30.609375 34.515625 
L 43.21875 34.515625 
L 43.21875 35.40625 
Q 43.21875 41.609375 39.140625 45 
Q 35.0625 48.390625 27.6875 48.390625 
Q 23 48.390625 18.546875 47.265625 
Q 14.109375 46.140625 10.015625 43.890625 
L 10.015625 52.203125 
Q 14.9375 54.109375 19.578125 55.046875 
Q 24.21875 56 28.609375 56 
Q 40.484375 56 46.34375 49.84375 
Q 52.203125 43.703125 52.203125 31.203125 
z
" id="DejaVuSans-97"/>
       <path d="M 9.421875 75.984375 
L 18.40625 75.984375 
L 18.40625 0 
L 9.421875 0 
z
" id="DejaVuSans-108"/>
      </defs>
      <use xlink:href="#DejaVuSans-84"/>
      <use x="44.083984" xlink:href="#DejaVuSans-101"/>
      <use x="105.607422" xlink:href="#DejaVuSans-114"/>
      <use x="144.970703" xlink:href="#DejaVuSans-109"/>
      <use x="242.382812" xlink:href="#DejaVuSans-105"/>
      <use x="270.166016" xlink:href="#DejaVuSans-110"/>
      <use x="333.544922" xlink:href="#DejaVuSans-97"/>
      <use x="394.824219" xlink:href="#DejaVuSans-108"/>
     </g>
    </g>
   </g>
   <g id="text_7">
    <g id="patch_8">
     <path clip-path="url(#p6d3ce3b6fb)" d="M 187.183295 83.163693 
L 187.183295 116.971193 
Q 187.183295 119.371193 189.583295 119.371193 
L 197.325795 119.371193 
Q 199.725795 119.371193 199.725795 116.971193 
L 199.725795 83.163693 
Q 199.725795 80.763693 197.325795 80.763693 
L 189.583295 80.763693 
Q 187.183295 80.763693 187.183295 83.163693 
z
" style="fill:#ffffff;stroke:#ffffff;stroke-linejoin:miter;"/>
    </g>
    <g clip-path="url(#p6d3ce3b6fb)">
     <!-- Terminal -->
     <g transform="translate(191.247045 83.163693)rotate(-270)scale(0.08 -0.08)">
      <use xlink:href="#DejaVuSans-84"/>
      <use x="44.083984" xlink:href="#DejaVuSans-101"/>
      <use x="105.607422" xlink:href="#DejaVuSans-114"/>
      <use x="144.970703" xlink:href="#DejaVuSans-109"/>
      <use x="242.382812" xlink:href="#DejaVuSans-105"/>
      <use x="270.166016" xlink:href="#DejaVuSans-110"/>
      <use x="333.544922" xlink:href="#DejaVuSans-97"/>
      <use x="394.824219" xlink:href="#DejaVuSans-108"/>
     </g>
    </g>
   </g>
   <g id="text_8">
    <g id="patch_9">
     <path clip-path="url(#p6d3ce3b6fb)" d="M 33.647942 12.04088 
L 33.647942 16.86463 
Q 33.647942 19.26463 36.047942 19.26463 
L 43.790442 19.26463 
Q 46.190442 19.26463 46.190442 16.86463 
L 46.190442 12.04088 
Q 46.190442 9.64088 43.790442 9.64088 
L 36.047942 9.64088 
Q 33.647942 9.64088 33.647942 12.04088 
z
" style="fill:#ffffff;stroke:#ffffff;stroke-linejoin:miter;"/>
    </g>
    <g clip-path="url(#p6d3ce3b6fb)">
     <!-- P -->
     <g transform="translate(37.711692 12.04088)rotate(-270)scale(0.08 -0.08)">
      <use xlink:href="#DejaVuSans-80"/>
     </g>
    </g>
   </g>
   <g id="text_9">
    <g id="patch_10">
     <path clip-path="url(#p6d3ce3b6fb)" d="M 33.647942 18.139031 
L 33.647942 22.962781 
Q 33.647942 25.362781 36.047942 25.362781 
L 43.790442 25.362781 
Q 46.190442 25.362781 46.190442 22.962781 
L 46.190442 18.139031 
Q 46.190442 15.739031 43.790442 15.739031 
L 36.047942 15.739031 
Q 33.647942 15.739031 33.647942 18.139031 
z
" style="fill:#ffffff;stroke:#ffffff;stroke-linejoin:miter;"/>
    </g>
    <g clip-path="url(#p6d3ce3b6fb)">
     <!-- P -->
     <g transform="translate(37.711692 18.139031)rotate(-270)scale(0.08 -0.08)">
      <use xlink:href="#DejaVuSans-80"/>
     </g>
    </g>
   </g>
   <g id="text_10">
    <g id="patch_11">
     <path clip-path="url(#p6d3ce3b6fb)" d="M 33.647942 23.992052 
L 33.647942 28.815802 
Q 33.647942 31.215802 36.047942 31.215802 
L 43.790442 31.215802 
Q 46.190442 31.215802 46.190442 28.815802 
L 46.190442 23.992052 
Q 46.190442 21.592052 43.790442 21.592052 
L 36.047942 21.592052 
Q 33.647942 21.592052 33.647942 23.992052 
z
" style="fill:#ffffff;stroke:#ffffff;stroke-linejoin:miter;"/>
    </g>
    <g clip-path="url(#p6d3ce3b6fb)">
     <!-- P -->
     <g transform="translate(37.711692 23.992052)rotate(-270)scale(0.08 -0.08)">
      <use xlink:href="#DejaVuSans-80"/>
     </g>
    </g>
   </g>
   <g id="text_11">
    <g id="patch_12">
     <path clip-path="url(#p6d3ce3b6fb)" d="M 33.647942 29.614076 
L 33.647942 34.437826 
Q 33.647942 36.837826 36.047942 36.837826 
L 43.790442 36.837826 
Q 46.190442 36.837826 46.190442 34.437826 
L 46.190442 29.614076 
Q 46.190442 27.214076 43.790442 27.214076 
L 36.047942 27.214076 
Q 33.647942 27.214076 33.647942 29.614076 
z
" style="fill:#ffffff;stroke:#ffffff;stroke-linejoin:miter;"/>
    </g>
    <g clip-path="url(#p6d3ce3b6fb)">
     <!-- P -->
     <g transform="translate(37.711692 29.614076)rotate(-270)scale(0.08 -0.08)">
      <use xlink:href="#DejaVuSans-80"/>
     </g>
    </g>
   </g>
   <g id="text_12">
    <g id="patch_13">
     <path clip-path="url(#p6d3ce3b6fb)" d="M 33.647942 35.018488 
L 33.647942 39.842238 
Q 33.647942 42.242238 36.047942 42.242238 
L 43.790442 42.242238 
Q 46.190442 42.242238 46.190442 39.842238 
L 46.190442 35.018488 
Q 46.190442 32.618488 43.790442 32.618488 
L 36.047942 32.618488 
Q 33.647942 32.618488 33.647942 35.018488 
z
" style="fill:#ffffff;stroke:#ffffff;stroke-linejoin:miter;"/>
    </g>
    <g clip-path="url(#p6d3ce3b6fb)">
     <!-- P -->
     <g transform="translate(37.711692 35.018488)rotate(-270)scale(0.08 -0.08)">
      <use xlink:href="#DejaVuSans-80"/>
     </g>
    </g>
   </g>
   <g id="text_13">
    <g id="patch_14">
     <path clip-path="url(#p6d3ce3b6fb)" d="M 33.647942 40.217994 
L 33.647942 45.041744 
Q 33.647942 47.441744 36.047942 47.441744 
L 43.790442 47.441744 
Q 46.190442 47.441744 46.190442 45.041744 
L 46.190442 40.217994 
Q 46.190442 37.817994 43.790442 37.817994 
L 36.047942 37.817994 
Q 33.647942 37.817994 33.647942 40.217994 
z
" style="fill:#ffffff;stroke:#ffffff;stroke-linejoin:miter;"/>
    </g>
    <g clip-path="url(#p6d3ce3b6fb)">
     <!-- P -->
     <g transform="translate(37.711692 40.217994)rotate(-270)scale(0.08 -0.08)">
      <use xlink:href="#DejaVuSans-80"/>
     </g>
    </g>
   </g>
   <g id="text_14">
    <g id="patch_15">
     <path clip-path="url(#p6d3ce3b6fb)" d="M 33.647942 45.224683 
L 33.647942 50.048433 
Q 33.647942 52.448433 36.047942 52.448433 
L 43.790442 52.448433 
Q 46.190442 52.448433 46.190442 50.048433 
L 46.190442 45.224683 
Q 46.190442 42.824683 43.790442 42.824683 
L 36.047942 42.824683 
Q 33.647942 42.824683 33.647942 45.224683 
z
" style="fill:#ffffff;stroke:#ffffff;stroke-linejoin:miter;"/>
    </g>
    <g clip-path="url(#p6d3ce3b6fb)">
     <!-- P -->
     <g transform="translate(37.711692 45.224683)rotate(-270)scale(0.08 -0.08)">
      <use xlink:href="#DejaVuSans-80"/>
     </g>
    </g>
   </g>
   <g id="text_15">
    <g id="patch_16">
     <path clip-path="url(#p6d3ce3b6fb)" d="M 33.647942 50.050086 
L 33.647942 54.873836 
Q 33.647942 57.273836 36.047942 57.273836 
L 43.790442 57.273836 
Q 46.190442 57.273836 46.190442 54.873836 
L 46.190442 50.050086 
Q 46.190442 47.650086 43.790442 47.650086 
L 36.047942 47.650086 
Q 33.647942 47.650086 33.647942 50.050086 
z
" style="fill:#ffffff;stroke:#ffffff;stroke-linejoin:miter;"/>
    </g>
    <g clip-path="url(#p6d3ce3b6fb)">
     <!-- P -->
     <g transform="translate(37.711692 50.050086)rotate(-270)scale(0.08 -0.08)">
      <use xlink:href="#DejaVuSans-80"/>
     </g>
    </g>
   </g>
   <g id="text_16">
    <g id="patch_17">
     <path clip-path="url(#p6d3ce3b6fb)" d="M 33.647942 54.705244 
L 33.647942 59.528994 
Q 33.647942 61.928994 36.047942 61.928994 
L 43.790442 61.928994 
Q 46.190442 61.928994 46.190442 59.528994 
L 46.190442 54.705244 
Q 46.190442 52.305244 43.790442 52.305244 
L 36.047942 52.305244 
Q 33.647942 52.305244 33.647942 54.705244 
z
" style="fill:#ffffff;stroke:#ffffff;stroke-linejoin:miter;"/>
    </g>
    <g clip-path="url(#p6d3ce3b6fb)">
     <!-- P -->
     <g transform="translate(37.711692 54.705244)rotate(-270)scale(0.08 -0.08)">
      <use xlink:href="#DejaVuSans-80"/>
     </g>
    </g>
   </g>
   <g id="text_17">
    <g id="patch_18">
     <path clip-path="url(#p6d3ce3b6fb)" d="M 33.647942 59.200769 
L 33.647942 64.024519 
Q 33.647942 66.424519 36.047942 66.424519 
L 43.790442 66.424519 
Q 46.190442 66.424519 46.190442 64.024519 
L 46.190442 59.200769 
Q 46.190442 56.800769 43.790442 56.800769 
L 36.047942 56.800769 
Q 33.647942 56.800769 33.647942 59.200769 
z
" style="fill:#ffffff;stroke:#ffffff;stroke-linejoin:miter;"/>
    </g>
    <g clip-path="url(#p6d3ce3b6fb)">
     <!-- P -->
     <g transform="translate(37.711692 59.200769)rotate(-270)scale(0.08 -0.08)">
      <use xlink:href="#DejaVuSans-80"/>
     </g>
    </g>
   </g>
   <g id="text_18">
    <g id="patch_19">
     <path clip-path="url(#p6d3ce3b6fb)" d="M 33.647942 63.546925 
L 33.647942 68.370675 
Q 33.647942 70.770675 36.047942 70.770675 
L 43.790442 70.770675 
Q 46.190442 70.770675 46.190442 68.370675 
L 46.190442 63.546925 
Q 46.190442 61.146925 43.790442 61.146925 
L 36.047942 61.146925 
Q 33.647942 61.146925 33.647942 63.546925 
z
" style="fill:#ffffff;stroke:#ffffff;stroke-linejoin:miter;"/>
    </g>
    <g clip-path="url(#p6d3ce3b6fb)">
     <!-- P -->
     <g transform="translate(37.711692 63.546925)rotate(-270)scale(0.08 -0.08)">
      <use xlink:href="#DejaVuSans-80"/>
     </g>
    </g>
   </g>
   <g id="text_19">
    <g id="patch_20">
     <path clip-path="url(#p6d3ce3b6fb)" d="M 33.647942 67.753705 
L 33.647942 72.577455 
Q 33.647942 74.977455 36.047942 74.977455 
L 43.790442 74.977455 
Q 46.190442 74.977455 46.190442 72.577455 
L 46.190442 67.753705 
Q 46.190442 65.353705 43.790442 65.353705 
L 36.047942 65.353705 
Q 33.647942 65.353705 33.647942 67.753705 
z
" style="fill:#ffffff;stroke:#ffffff;stroke-linejoin:miter;"/>
    </g>
    <g clip-path="url(#p6d3ce3b6fb)">
     <!-- P -->
     <g transform="translate(37.711692 67.753705)rotate(-270)scale(0.08 -0.08)">
      <use xlink:href="#DejaVuSans-80"/>
     </g>
    </g>
   </g>
   <g id="text_20">
    <g id="patch_21">
     <path clip-path="url(#p6d3ce3b6fb)" d="M 33.647942 71.830934 
L 33.647942 76.654684 
Q 33.647942 79.054684 36.047942 79.054684 
L 43.790442 79.054684 
Q 46.190442 79.054684 46.190442 76.654684 
L 46.190442 71.830934 
Q 46.190442 69.430934 43.790442 69.430934 
L 36.047942 69.430934 
Q 33.647942 69.430934 33.647942 71.830934 
z
" style="fill:#ffffff;stroke:#ffffff;stroke-linejoin:miter;"/>
    </g>
    <g clip-path="url(#p6d3ce3b6fb)">
     <!-- P -->
     <g transform="translate(37.711692 71.830934)rotate(-270)scale(0.08 -0.08)">
      <use xlink:href="#DejaVuSans-80"/>
     </g>
    </g>
   </g>
   <g id="text_21">
    <g id="patch_22">
     <path clip-path="url(#p6d3ce3b6fb)" d="M 33.647942 75.788395 
L 33.647942 80.612145 
Q 33.647942 83.012145 36.047942 83.012145 
L 43.790442 83.012145 
Q 46.190442 83.012145 46.190442 80.612145 
L 46.190442 75.788395 
Q 46.190442 73.388395 43.790442 73.388395 
L 36.047942 73.388395 
Q 33.647942 73.388395 33.647942 75.788395 
z
" style="fill:#ffffff;stroke:#ffffff;stroke-linejoin:miter;"/>
    </g>
    <g clip-path="url(#p6d3ce3b6fb)">
     <!-- P -->
     <g transform="translate(37.711692 75.788395)rotate(-270)scale(0.08 -0.08)">
      <use xlink:href="#DejaVuSans-80"/>
     </g>
    </g>
   </g>
   <g id="text_22">
    <g id="patch_23">
     <path clip-path="url(#p6d3ce3b6fb)" d="M 33.647942 79.636013 
L 33.647942 84.459763 
Q 33.647942 86.859763 36.047942 86.859763 
L 43.790442 86.859763 
Q 46.190442 86.859763 46.190442 84.459763 
L 46.190442 79.636013 
Q 46.190442 77.236013 43.790442 77.236013 
L 36.047942 77.236013 
Q 33.647942 77.236013 33.647942 79.636013 
z
" style="fill:#ffffff;stroke:#ffffff;stroke-linejoin:miter;"/>
    </g>
    <g clip-path="url(#p6d3ce3b6fb)">
     <!-- P -->
     <g transform="translate(37.711692 79.636013)rotate(-270)scale(0.08 -0.08)">
      <use xlink:href="#DejaVuSans-80"/>
     </g>
    </g>
   </g>
   <g id="text_23">
    <g id="patch_24">
     <path clip-path="url(#p6d3ce3b6fb)" d="M 33.647942 83.384115 
L 33.647942 88.207865 
Q 33.647942 90.607865 36.047942 90.607865 
L 43.790442 90.607865 
Q 46.190442 90.607865 46.190442 88.207865 
L 46.190442 83.384115 
Q 46.190442 80.984115 43.790442 80.984115 
L 36.047942 80.984115 
Q 33.647942 80.984115 33.647942 83.384115 
z
" style="fill:#ffffff;stroke:#ffffff;stroke-linejoin:miter;"/>
    </g>
    <g clip-path="url(#p6d3ce3b6fb)">
     <!-- P -->
     <g transform="translate(37.711692 83.384115)rotate(-270)scale(0.08 -0.08)">
      <use xlink:href="#DejaVuSans-80"/>
     </g>
    </g>
   </g>
   <g id="text_24">
    <g id="patch_25">
     <path clip-path="url(#p6d3ce3b6fb)" d="M 33.647942 87.043889 
L 33.647942 91.867639 
Q 33.647942 94.267639 36.047942 94.267639 
L 43.790442 94.267639 
Q 46.190442 94.267639 46.190442 91.867639 
L 46.190442 87.043889 
Q 46.190442 84.643889 43.790442 84.643889 
L 36.047942 84.643889 
Q 33.647942 84.643889 33.647942 87.043889 
z
" style="fill:#ffffff;stroke:#ffffff;stroke-linejoin:miter;"/>
    </g>
    <g clip-path="url(#p6d3ce3b6fb)">
     <!-- P -->
     <g transform="translate(37.711692 87.043889)rotate(-270)scale(0.08 -0.08)">
      <use xlink:href="#DejaVuSans-80"/>
     </g>
    </g>
   </g>
   <g id="text_25">
    <g id="patch_26">
     <path clip-path="url(#p6d3ce3b6fb)" d="M 33.647942 90.628257 
L 33.647942 95.452007 
Q 33.647942 97.852007 36.047942 97.852007 
L 43.790442 97.852007 
Q 46.190442 97.852007 46.190442 95.452007 
L 46.190442 90.628257 
Q 46.190442 88.228257 43.790442 88.228257 
L 36.047942 88.228257 
Q 33.647942 88.228257 33.647942 90.628257 
z
" style="fill:#ffffff;stroke:#ffffff;stroke-linejoin:miter;"/>
    </g>
    <g clip-path="url(#p6d3ce3b6fb)">
     <!-- P -->
     <g transform="translate(37.711692 90.628257)rotate(-270)scale(0.08 -0.08)">
      <use xlink:href="#DejaVuSans-80"/>
     </g>
    </g>
   </g>
   <g id="text_26">
    <g id="patch_27">
     <path clip-path="url(#p6d3ce3b6fb)" d="M 22.501012 103.113282 
L 28.051294 102.480392 
Q 30.435842 102.208486 30.163936 99.823939 
L 29.286755 92.131289 
Q 29.014849 89.746741 26.630302 90.018647 
L 21.080019 90.651537 
Q 18.695471 90.923443 18.967377 93.307991 
L 19.844558 101.000641 
Q 20.116464 103.385188 22.501012 103.113282 
z
" style="fill:#ffffff;stroke:#ffffff;stroke-linejoin:miter;"/>
    </g>
    <g clip-path="url(#p6d3ce3b6fb)">
     <!-- C -->
     <g transform="translate(22.040612 99.075697)rotate(-6.505248)scale(0.08 -0.08)">
      <use xlink:href="#DejaVuSans-67"/>
     </g>
    </g>
   </g>
   <g id="text_27">
    <g id="patch_28">
     <path clip-path="url(#p6d3ce3b6fb)" d="M 52.276418 102.53619 
L 56.848043 103.057485 
Q 59.232591 103.329391 59.504497 100.944843 
L 60.381677 93.252193 
Q 60.653584 90.867646 58.269036 90.59574 
L 53.697411 90.074445 
Q 51.312864 89.802539 51.040958 92.187086 
L 50.163777 99.879736 
Q 49.891871 102.264283 52.276418 102.53619 
z
" style="fill:#ffffff;stroke:#ffffff;stroke-linejoin:miter;"/>
    </g>
    <g clip-path="url(#p6d3ce3b6fb)">
     <!-- F -->
     <g transform="translate(52.736818 98.498604)rotate(-353.494752)scale(0.08 -0.08)">
      <defs>
       <path d="M 9.8125 72.90625 
L 51.703125 72.90625 
L 51.703125 64.59375 
L 19.671875 64.59375 
L 19.671875 43.109375 
L 48.578125 43.109375 
L 48.578125 34.8125 
L 19.671875 34.8125 
L 19.671875 0 
L 9.8125 0 
z
" id="DejaVuSans-70"/>
      </defs>
      <use xlink:href="#DejaVuSans-70"/>
     </g>
    </g>
   </g>
   <g id="text_28">
    <g id="patch_29">
     <path clip-path="url(#p6d3ce3b6fb)" d="M 2.940871 83.163693 
L 2.940871 116.971193 
Q 2.940871 119.371193 5.340871 119.371193 
L 13.083371 119.371193 
Q 15.483371 119.371193 15.483371 116.971193 
L 15.483371 83.163693 
Q 15.483371 80.763693 13.083371 80.763693 
L 5.340871 80.763693 
Q 2.940871 80.763693 2.940871 83.163693 
z
" style="fill:#ffffff;stroke:#ffffff;stroke-linejoin:miter;"/>
    </g>
    <g clip-path="url(#p6d3ce3b6fb)">
     <!-- Terminal -->
     <g transform="translate(7.004621 83.163693)rotate(-270)scale(0.08 -0.08)">
      <use xlink:href="#DejaVuSans-84"/>
      <use x="44.083984" xlink:href="#DejaVuSans-101"/>
      <use x="105.607422" xlink:href="#DejaVuSans-114"/>
      <use x="144.970703" xlink:href="#DejaVuSans-109"/>
      <use x="242.382812" xlink:href="#DejaVuSans-105"/>
      <use x="270.166016" xlink:href="#DejaVuSans-110"/>
      <use x="333.544922" xlink:href="#DejaVuSans-97"/>
      <use x="394.824219" xlink:href="#DejaVuSans-108"/>
     </g>
    </g>
   </g>
   <g id="text_29">
    <g id="patch_30">
     <path clip-path="url(#p6d3ce3b6fb)" d="M 64.355013 83.163693 
L 64.355013 116.971193 
Q 64.355013 119.371193 66.755013 119.371193 
L 74.497513 119.371193 
Q 76.897513 119.371193 76.897513 116.971193 
L 76.897513 83.163693 
Q 76.897513 80.763693 74.497513 80.763693 
L 66.755013 80.763693 
Q 64.355013 80.763693 64.355013 83.163693 
z
" style="fill:#ffffff;stroke:#ffffff;stroke-linejoin:miter;"/>
    </g>
    <g clip-path="url(#p6d3ce3b6fb)">
     <!-- Terminal -->
     <g transform="translate(68.418763 83.163693)rotate(-270)scale(0.08 -0.08)">
      <use xlink:href="#DejaVuSans-84"/>
      <use x="44.083984" xlink:href="#DejaVuSans-101"/>
      <use x="105.607422" xlink:href="#DejaVuSans-114"/>
      <use x="144.970703" xlink:href="#DejaVuSans-109"/>
      <use x="242.382812" xlink:href="#DejaVuSans-105"/>
      <use x="270.166016" xlink:href="#DejaVuSans-110"/>
      <use x="333.544922" xlink:href="#DejaVuSans-97"/>
      <use x="394.824219" xlink:href="#DejaVuSans-108"/>
     </g>
    </g>
   </g>
   <g id="PathCollection_1">
    <defs>
     <path d="M 0 8.660254 
C 2.296726 8.660254 4.499694 7.747755 6.123724 6.123724 
C 7.747755 4.499694 8.660254 2.296726 8.660254 -0 
C 8.660254 -2.296726 7.747755 -4.499694 6.123724 -6.123724 
C 4.499694 -7.747755 2.296726 -8.660254 0 -8.660254 
C -2.296726 -8.660254 -4.499694 -7.747755 -6.123724 -6.123724 
C -7.747755 -4.499694 -8.660254 -2.296726 -8.660254 0 
C -8.660254 2.296726 -7.747755 4.499694 -6.123724 6.123724 
C -4.499694 7.747755 -2.296726 8.660254 0 8.660254 
z
" id="C0_0_d4c65f6e65"/>
    </defs>
    <g clip-path="url(#p6d3ce3b6fb)">
     <use style="fill:#ffffff;stroke:#ffffff;" x="9.212121" xlink:href="#C0_0_d4c65f6e65" y="101.818182"/>
    </g>
    <g clip-path="url(#p6d3ce3b6fb)">
     <use style="fill:#ffffff;stroke:#ffffff;" x="70.626263" xlink:href="#C0_0_d4c65f6e65" y="101.818182"/>
    </g>
    <g clip-path="url(#p6d3ce3b6fb)">
     <use style="fill:#ffffff;stroke:#ffffff;" x="132.040404" xlink:href="#C0_0_d4c65f6e65" y="101.818182"/>
    </g>
    <g clip-path="url(#p6d3ce3b6fb)">
     <use style="fill:#ffffff;stroke:#ffffff;" x="193.454545" xlink:href="#C0_0_d4c65f6e65" y="101.818182"/>
    </g>
    <g clip-path="url(#p6d3ce3b6fb)">
     <use style="stroke:#000000;" x="82.909091" xlink:href="#C0_0_d4c65f6e65" y="4.848485"/>
    </g>
    <g clip-path="url(#p6d3ce3b6fb)">
     <use style="stroke:#000000;" x="132.040404" xlink:href="#C0_0_d4c65f6e65" y="98.316704"/>
    </g>
    <g clip-path="url(#p6d3ce3b6fb)">
     <use style="stroke:#000000;" x="193.454545" xlink:href="#C0_0_d4c65f6e65" y="98.316704"/>
    </g>
    <g clip-path="url(#p6d3ce3b6fb)">
     <use style="stroke:#000000;" x="39.919192" xlink:href="#C0_0_d4c65f6e65" y="11.340582"/>
    </g>
    <g clip-path="url(#p6d3ce3b6fb)">
     <use style="stroke:#000000;" x="39.919192" xlink:href="#C0_0_d4c65f6e65" y="17.564927"/>
    </g>
    <g clip-path="url(#p6d3ce3b6fb)">
     <use style="stroke:#000000;" x="39.919192" xlink:href="#C0_0_d4c65f6e65" y="23.536884"/>
    </g>
    <g clip-path="url(#p6d3ce3b6fb)">
     <use style="stroke:#000000;" x="39.919192" xlink:href="#C0_0_d4c65f6e65" y="29.270971"/>
    </g>
    <g clip-path="url(#p6d3ce3b6fb)">
     <use style="stroke:#000000;" x="39.919192" xlink:href="#C0_0_d4c65f6e65" y="34.780931"/>
    </g>
    <g clip-path="url(#p6d3ce3b6fb)">
     <use style="stroke:#000000;" x="39.919192" xlink:href="#C0_0_d4c65f6e65" y="40.079795"/>
    </g>
    <g clip-path="url(#p6d3ce3b6fb)">
     <use style="stroke:#000000;" x="39.919192" xlink:href="#C0_0_d4c65f6e65" y="45.179944"/>
    </g>
    <g clip-path="url(#p6d3ce3b6fb)">
     <use style="stroke:#000000;" x="39.919192" xlink:href="#C0_0_d4c65f6e65" y="50.093173"/>
    </g>
    <g clip-path="url(#p6d3ce3b6fb)">
     <use style="stroke:#000000;" x="39.919192" xlink:href="#C0_0_d4c65f6e65" y="54.83075"/>
    </g>
    <g clip-path="url(#p6d3ce3b6fb)">
     <use style="stroke:#000000;" x="39.919192" xlink:href="#C0_0_d4c65f6e65" y="59.403487"/>
    </g>
    <g clip-path="url(#p6d3ce3b6fb)">
     <use style="stroke:#000000;" x="39.919192" xlink:href="#C0_0_d4c65f6e65" y="63.821802"/>
    </g>
    <g clip-path="url(#p6d3ce3b6fb)">
     <use style="stroke:#000000;" x="39.919192" xlink:href="#C0_0_d4c65f6e65" y="68.095799"/>
    </g>
    <g clip-path="url(#p6d3ce3b6fb)">
     <use style="stroke:#000000;" x="39.919192" xlink:href="#C0_0_d4c65f6e65" y="72.235362"/>
    </g>
    <g clip-path="url(#p6d3ce3b6fb)">
     <use style="stroke:#000000;" x="39.919192" xlink:href="#C0_0_d4c65f6e65" y="76.250256"/>
    </g>
    <g clip-path="url(#p6d3ce3b6fb)">
     <use style="stroke:#000000;" x="39.919192" xlink:href="#C0_0_d4c65f6e65" y="80.150284"/>
    </g>
    <g clip-path="url(#p6d3ce3b6fb)">
     <use style="stroke:#000000;" x="39.919192" xlink:href="#C0_0_d4c65f6e65" y="83.945491"/>
    </g>
    <g clip-path="url(#p6d3ce3b6fb)">
     <use style="stroke:#000000;" x="39.919192" xlink:href="#C0_0_d4c65f6e65" y="87.646489"/>
    </g>
    <g clip-path="url(#p6d3ce3b6fb)">
     <use style="stroke:#000000;" x="39.919192" xlink:href="#C0_0_d4c65f6e65" y="91.265038"/>
    </g>
    <g clip-path="url(#p6d3ce3b6fb)">
     <use style="stroke:#000000;" x="39.919192" xlink:href="#C0_0_d4c65f6e65" y="94.815226"/>
    </g>
    <g clip-path="url(#p6d3ce3b6fb)">
     <use style="stroke:#000000;" x="9.212121" xlink:href="#C0_0_d4c65f6e65" y="98.316704"/>
    </g>
    <g clip-path="url(#p6d3ce3b6fb)">
     <use style="stroke:#000000;" x="70.626263" xlink:href="#C0_0_d4c65f6e65" y="98.316704"/>
    </g>
   </g>
   <g id="text_30">
    <g clip-path="url(#p6d3ce3b6fb)">
     <!-- Cats -->
     <g transform="translate(-1.908191 104.577557)scale(0.1 -0.1)">
      <defs>
       <path d="M 18.3125 70.21875 
L 18.3125 54.6875 
L 36.8125 54.6875 
L 36.8125 47.703125 
L 18.3125 47.703125 
L 18.3125 18.015625 
Q 18.3125 11.328125 20.140625 9.421875 
Q 21.96875 7.515625 27.59375 7.515625 
L 36.8125 7.515625 
L 36.8125 0 
L 27.59375 0 
Q 17.1875 0 13.234375 3.875 
Q 9.28125 7.765625 9.28125 18.015625 
L 9.28125 47.703125 
L 2.6875 47.703125 
L 2.6875 54.6875 
L 9.28125 54.6875 
L 9.28125 70.21875 
z
" id="DejaVuSans-116"/>
       <path d="M 44.28125 53.078125 
L 44.28125 44.578125 
Q 40.484375 46.53125 36.375 47.5 
Q 32.28125 48.484375 27.875 48.484375 
Q 21.1875 48.484375 17.84375 46.4375 
Q 14.5 44.390625 14.5 40.28125 
Q 14.5 37.15625 16.890625 35.375 
Q 19.28125 33.59375 26.515625 31.984375 
L 29.59375 31.296875 
Q 39.15625 29.25 43.1875 25.515625 
Q 47.21875 21.78125 47.21875 15.09375 
Q 47.21875 7.46875 41.1875 3.015625 
Q 35.15625 -1.421875 24.609375 -1.421875 
Q 20.21875 -1.421875 15.453125 -0.5625 
Q 10.6875 0.296875 5.421875 2 
L 5.421875 11.28125 
Q 10.40625 8.6875 15.234375 7.390625 
Q 20.0625 6.109375 24.8125 6.109375 
Q 31.15625 6.109375 34.5625 8.28125 
Q 37.984375 10.453125 37.984375 14.40625 
Q 37.984375 18.0625 35.515625 20.015625 
Q 33.0625 21.96875 24.703125 23.78125 
L 21.578125 24.515625 
Q 13.234375 26.265625 9.515625 29.90625 
Q 5.8125 33.546875 5.8125 39.890625 
Q 5.8125 47.609375 11.28125 51.796875 
Q 16.75 56 26.8125 56 
Q 31.78125 56 36.171875 55.265625 
Q 40.578125 54.546875 44.28125 53.078125 
z
" id="DejaVuSans-115"/>
      </defs>
      <use xlink:href="#DejaVuSans-67"/>
      <use x="69.824219" xlink:href="#DejaVuSans-97"/>
      <use x="131.103516" xlink:href="#DejaVuSans-116"/>
      <use x="170.3125" xlink:href="#DejaVuSans-115"/>
     </g>
    </g>
   </g>
   <g id="text_31">
    <g clip-path="url(#p6d3ce3b6fb)">
     <!-- are -->
     <g transform="translate(62.542669 104.577557)scale(0.1 -0.1)">
      <use xlink:href="#DejaVuSans-97"/>
      <use x="61.279297" xlink:href="#DejaVuSans-114"/>
      <use x="100.142578" xlink:href="#DejaVuSans-101"/>
     </g>
    </g>
   </g>
   <g id="text_32">
    <g clip-path="url(#p6d3ce3b6fb)">
     <!-- animals -->
     <g transform="translate(112.490404 104.577557)scale(0.1 -0.1)">
      <use xlink:href="#DejaVuSans-97"/>
      <use x="61.279297" xlink:href="#DejaVuSans-110"/>
      <use x="124.658203" xlink:href="#DejaVuSans-105"/>
      <use x="152.441406" xlink:href="#DejaVuSans-109"/>
      <use x="249.853516" xlink:href="#DejaVuSans-97"/>
      <use x="311.132812" xlink:href="#DejaVuSans-108"/>
      <use x="338.916016" xlink:href="#DejaVuSans-115"/>
     </g>
    </g>
   </g>
   <g id="text_33">
    <g clip-path="url(#p6d3ce3b6fb)">
     <!-- . -->
     <g transform="translate(191.865483 104.577557)scale(0.1 -0.1)">
      <defs>
       <path d="M 10.6875 12.40625 
L 21 12.40625 
L 21 0 
L 10.6875 0 
z
" id="DejaVuSans-46"/>
      </defs>
      <use xlink:href="#DejaVuSans-46"/>
     </g>
    </g>
   </g>
  </g>
 </g>
 <defs>
  <clipPath id="p6d3ce3b6fb">
   <rect height="106.666667" width="202.666667" x="0" y="0"/>
  </clipPath>
 </defs>
</svg>
