<?xml version="1.0" encoding="utf-8" standalone="no"?>
<!DOCTYPE svg PUBLIC "-//W3C//DTD SVG 1.1//EN"
  "http://www.w3.org/Graphics/SVG/1.1/DTD/svg11.dtd">
<!-- Created with matplotlib (https://matplotlib.org/) -->
<svg height="266.666667pt" version="1.1" viewBox="0 0 506.666667 266.666667" width="506.666667pt" xmlns="http://www.w3.org/2000/svg" xmlns:xlink="http://www.w3.org/1999/xlink">
 <metadata>
  <rdf:RDF xmlns:cc="http://creativecommons.org/ns#" xmlns:dc="http://purl.org/dc/elements/1.1/" xmlns:rdf="http://www.w3.org/1999/02/22-rdf-syntax-ns#">
   <cc:Work>
    <dc:type rdf:resource="http://purl.org/dc/dcmitype/StillImage"/>
    <dc:date>2021-05-19T11:41:57.848553</dc:date>
    <dc:format>image/svg+xml</dc:format>
    <dc:creator>
     <cc:Agent>
      <dc:title>Matplotlib v3.3.4, https://matplotlib.org/</dc:title>
     </cc:Agent>
    </dc:creator>
   </cc:Work>
  </rdf:RDF>
 </metadata>
 <defs>
  <style type="text/css">*{stroke-linecap:butt;stroke-linejoin:round;}</style>
 </defs>
 <g id="figure_1">
  <g id="patch_1">
   <path d="M 0 266.666667 
L 506.666667 266.666667 
L 506.666667 0 
L 0 0 
z
" style="fill:#ffffff;"/>
  </g>
  <g id="axes_1">
   <g id="LineCollection_1">
    <path clip-path="url(#p52d9323eed)" d="M 214.949495 12.121212 
L 74.208754 245.791759 
" style="fill:none;stroke:#000000;"/>
    <path clip-path="url(#p52d9323eed)" d="M 214.949495 12.121212 
L 253.333333 237.038064 
" style="fill:none;stroke:#000000;"/>
    <path clip-path="url(#p52d9323eed)" d="M 214.949495 12.121212 
L 432.457912 245.791759 
" style="fill:none;stroke:#000000;"/>
    <path clip-path="url(#p52d9323eed)" d="M 214.949495 12.121212 
L 483.636364 245.791759 
" style="fill:none;stroke:#000000;"/>
    <path clip-path="url(#p52d9323eed)" d="M 214.949495 12.121212 
L 23.030303 28.351455 
" style="fill:none;stroke:#000000;"/>
    <path clip-path="url(#p52d9323eed)" d="M 214.949495 12.121212 
L 23.030303 245.791759 
" style="fill:none;stroke:#000000;stroke-dasharray:3.7,1.6;stroke-dashoffset:0;"/>
    <path clip-path="url(#p52d9323eed)" d="M 74.208754 245.791759 
L 74.208754 254.545455 
" style="fill:none;stroke:#000000;"/>
    <path clip-path="url(#p52d9323eed)" d="M 253.333333 237.038064 
L 125.387205 245.791759 
" style="fill:none;stroke:#000000;"/>
    <path clip-path="url(#p52d9323eed)" d="M 253.333333 237.038064 
L 176.565657 245.791759 
" style="fill:none;stroke:#000000;"/>
    <path clip-path="url(#p52d9323eed)" d="M 253.333333 237.038064 
L 227.744108 245.791759 
" style="fill:none;stroke:#000000;"/>
    <path clip-path="url(#p52d9323eed)" d="M 253.333333 237.038064 
L 278.922559 245.791759 
" style="fill:none;stroke:#000000;"/>
    <path clip-path="url(#p52d9323eed)" d="M 253.333333 237.038064 
L 330.10101 245.791759 
" style="fill:none;stroke:#000000;"/>
    <path clip-path="url(#p52d9323eed)" d="M 253.333333 237.038064 
L 381.279461 245.791759 
" style="fill:none;stroke:#000000;"/>
    <path clip-path="url(#p52d9323eed)" d="M 432.457912 245.791759 
L 432.457912 254.545455 
" style="fill:none;stroke:#000000;"/>
    <path clip-path="url(#p52d9323eed)" d="M 483.636364 245.791759 
L 483.636364 254.545455 
" style="fill:none;stroke:#000000;"/>
    <path clip-path="url(#p52d9323eed)" d="M 23.030303 28.351455 
L 23.030303 43.912319 
" style="fill:none;stroke:#000000;"/>
    <path clip-path="url(#p52d9323eed)" d="M 125.387205 245.791759 
L 125.387205 254.545455 
" style="fill:none;stroke:#000000;"/>
    <path clip-path="url(#p52d9323eed)" d="M 176.565657 245.791759 
L 176.565657 254.545455 
" style="fill:none;stroke:#000000;"/>
    <path clip-path="url(#p52d9323eed)" d="M 227.744108 245.791759 
L 227.744108 254.545455 
" style="fill:none;stroke:#000000;"/>
    <path clip-path="url(#p52d9323eed)" d="M 278.922559 245.791759 
L 278.922559 254.545455 
" style="fill:none;stroke:#000000;"/>
    <path clip-path="url(#p52d9323eed)" d="M 330.10101 245.791759 
L 330.10101 254.545455 
" style="fill:none;stroke:#000000;"/>
    <path clip-path="url(#p52d9323eed)" d="M 381.279461 245.791759 
L 381.279461 254.545455 
" style="fill:none;stroke:#000000;"/>
    <path clip-path="url(#p52d9323eed)" d="M 23.030303 43.912319 
L 23.030303 58.842209 
" style="fill:none;stroke:#000000;"/>
    <path clip-path="url(#p52d9323eed)" d="M 23.030303 58.842209 
L 23.030303 73.177427 
" style="fill:none;stroke:#000000;"/>
    <path clip-path="url(#p52d9323eed)" d="M 23.030303 73.177427 
L 23.030303 86.952327 
" style="fill:none;stroke:#000000;"/>
    <path clip-path="url(#p52d9323eed)" d="M 23.030303 86.952327 
L 23.030303 100.199487 
" style="fill:none;stroke:#000000;"/>
    <path clip-path="url(#p52d9323eed)" d="M 23.030303 100.199487 
L 23.030303 112.94986 
" style="fill:none;stroke:#000000;"/>
    <path clip-path="url(#p52d9323eed)" d="M 23.030303 112.94986 
L 23.030303 125.232932 
" style="fill:none;stroke:#000000;"/>
    <path clip-path="url(#p52d9323eed)" d="M 23.030303 125.232932 
L 23.030303 137.076876 
" style="fill:none;stroke:#000000;"/>
    <path clip-path="url(#p52d9323eed)" d="M 23.030303 137.076876 
L 23.030303 148.508717 
" style="fill:none;stroke:#000000;"/>
    <path clip-path="url(#p52d9323eed)" d="M 23.030303 148.508717 
L 23.030303 159.554504 
" style="fill:none;stroke:#000000;"/>
    <path clip-path="url(#p52d9323eed)" d="M 23.030303 159.554504 
L 23.030303 170.239498 
" style="fill:none;stroke:#000000;"/>
    <path clip-path="url(#p52d9323eed)" d="M 23.030303 170.239498 
L 23.030303 180.588404 
" style="fill:none;stroke:#000000;"/>
    <path clip-path="url(#p52d9323eed)" d="M 23.030303 180.588404 
L 23.030303 190.62564 
" style="fill:none;stroke:#000000;"/>
    <path clip-path="url(#p52d9323eed)" d="M 23.030303 190.62564 
L 23.030303 200.375711 
" style="fill:none;stroke:#000000;"/>
    <path clip-path="url(#p52d9323eed)" d="M 23.030303 200.375711 
L 23.030303 209.863727 
" style="fill:none;stroke:#000000;"/>
    <path clip-path="url(#p52d9323eed)" d="M 23.030303 209.863727 
L 23.030303 219.116223 
" style="fill:none;stroke:#000000;"/>
    <path clip-path="url(#p52d9323eed)" d="M 23.030303 219.116223 
L 23.030303 228.162595 
" style="fill:none;stroke:#000000;"/>
    <path clip-path="url(#p52d9323eed)" d="M 23.030303 228.162595 
L 23.030303 237.038064 
" style="fill:none;stroke:#000000;"/>
    <path clip-path="url(#p52d9323eed)" d="M 23.030303 237.038064 
L 23.030303 245.791759 
" style="fill:none;stroke:#000000;"/>
    <path clip-path="url(#p52d9323eed)" d="M 23.030303 245.791759 
L 23.030303 254.545455 
" style="fill:none;stroke:#000000;"/>
   </g>
   <g id="text_1">
    <g id="patch_2">
     <path clip-path="url(#p52d9323eed)" d="M 148.764209 134.162878 
L 151.138207 130.221351 
Q 152.376479 128.165461 150.320588 126.927189 
L 143.688201 122.932475 
Q 141.632311 121.694204 140.39404 123.750094 
L 138.020042 127.691621 
Q 136.78177 129.747511 138.837661 130.985782 
L 145.470048 134.980497 
Q 147.525938 136.218768 148.764209 134.162878 
z
" style="fill:#ffffff;stroke:#ffffff;stroke-linejoin:miter;"/>
    </g>
    <g clip-path="url(#p52d9323eed)">
     <!-- F -->
     <g transform="translate(145.283116 132.066201)rotate(-58.93927)scale(0.08 -0.08)">
      <defs>
       <path d="M 9.8125 72.90625 
L 51.703125 72.90625 
L 51.703125 64.59375 
L 19.671875 64.59375 
L 19.671875 43.109375 
L 48.578125 43.109375 
L 48.578125 34.8125 
L 19.671875 34.8125 
L 19.671875 0 
L 9.8125 0 
z
" id="DejaVuSans-70"/>
      </defs>
      <use xlink:href="#DejaVuSans-70"/>
     </g>
    </g>
   </g>
   <g id="text_2">
    <g id="patch_3">
     <path clip-path="url(#p52d9323eed)" d="M 227.499231 122.93737 
L 228.419847 128.331878 
Q 228.823589 130.697675 231.189385 130.293933 
L 238.821543 128.991445 
Q 241.187339 128.587703 240.783597 126.221907 
L 239.862982 120.827398 
Q 239.45924 118.461602 237.093443 118.865343 
L 229.461286 120.167831 
Q 227.095489 120.571573 227.499231 122.93737 
z
" style="fill:#ffffff;stroke:#ffffff;stroke-linejoin:miter;"/>
    </g>
    <g clip-path="url(#p52d9323eed)">
     <!-- A -->
     <g transform="translate(231.505067 122.253742)rotate(-279.684678)scale(0.08 -0.08)">
      <defs>
       <path d="M 34.1875 63.1875 
L 20.796875 26.90625 
L 47.609375 26.90625 
z
M 28.609375 72.90625 
L 39.796875 72.90625 
L 67.578125 0 
L 57.328125 0 
L 50.6875 18.703125 
L 17.828125 18.703125 
L 11.1875 0 
L 0.78125 0 
z
" id="DejaVuSans-65"/>
      </defs>
      <use xlink:href="#DejaVuSans-65"/>
     </g>
    </g>
   </g>
   <g id="text_3">
    <g id="patch_4">
     <path clip-path="url(#p52d9323eed)" d="M 317.249038 131.226492 
L 320.97767 135.232183 
Q 322.612885 136.988905 324.369607 135.353689 
L 330.036864 130.078416 
Q 331.793585 128.4432 330.158369 126.686479 
L 326.429737 122.680788 
Q 324.794522 120.924067 323.0378 122.559282 
L 317.370544 127.834556 
Q 315.613822 129.469771 317.249038 131.226492 
z
" style="fill:#ffffff;stroke:#ffffff;stroke-linejoin:miter;"/>
    </g>
    <g clip-path="url(#p52d9323eed)">
     <!-- A -->
     <g transform="translate(320.22357 128.457698)rotate(-312.948428)scale(0.08 -0.08)">
      <use xlink:href="#DejaVuSans-65"/>
     </g>
    </g>
   </g>
   <g id="text_4">
    <g id="patch_5">
     <path clip-path="url(#p52d9323eed)" d="M 342.968583 131.767443 
L 347.386556 135.609648 
Q 349.19751 137.184592 350.772453 135.373638 
L 355.853286 129.531425 
Q 357.428229 127.720472 355.617275 126.145528 
L 351.199302 122.303323 
Q 349.388349 120.72838 347.813405 122.539334 
L 342.732573 128.381546 
Q 341.15763 130.1925 342.968583 131.767443 
z
" style="fill:#ffffff;stroke:#ffffff;stroke-linejoin:miter;"/>
    </g>
    <g clip-path="url(#p52d9323eed)">
     <!-- U -->
     <g transform="translate(345.635323 128.701083)rotate(-318.987296)scale(0.08 -0.08)">
      <defs>
       <path d="M 8.6875 72.90625 
L 18.609375 72.90625 
L 18.609375 28.609375 
Q 18.609375 16.890625 22.84375 11.734375 
Q 27.09375 6.59375 36.625 6.59375 
Q 46.09375 6.59375 50.34375 11.734375 
Q 54.59375 16.890625 54.59375 28.609375 
L 54.59375 72.90625 
L 64.5 72.90625 
L 64.5 27.390625 
Q 64.5 13.140625 57.4375 5.859375 
Q 50.390625 -1.421875 36.625 -1.421875 
Q 22.796875 -1.421875 15.734375 5.859375 
Q 8.6875 13.140625 8.6875 27.390625 
z
" id="DejaVuSans-85"/>
      </defs>
      <use xlink:href="#DejaVuSans-85"/>
     </g>
    </g>
   </g>
   <g id="text_5">
    <g id="patch_6">
     <path clip-path="url(#p52d9323eed)" d="M 117.115064 26.68852 
L 121.921657 26.282036 
Q 124.31312 26.079794 124.110879 23.688331 
L 123.458439 15.973369 
Q 123.256198 13.581906 120.864734 13.784147 
L 116.058141 14.190632 
Q 113.666678 14.392873 113.868919 16.784337 
L 114.521359 24.499298 
Q 114.7236 26.890762 117.115064 26.68852 
z
" style="fill:#ffffff;stroke:#ffffff;stroke-linejoin:miter;"/>
    </g>
    <g clip-path="url(#p52d9323eed)">
     <!-- P -->
     <g transform="translate(116.772623 22.639224)rotate(-4.833894)scale(0.08 -0.08)">
      <defs>
       <path d="M 19.671875 64.796875 
L 19.671875 37.40625 
L 32.078125 37.40625 
Q 38.96875 37.40625 42.71875 40.96875 
Q 46.484375 44.53125 46.484375 51.125 
Q 46.484375 57.671875 42.71875 61.234375 
Q 38.96875 64.796875 32.078125 64.796875 
z
M 9.8125 72.90625 
L 32.078125 72.90625 
Q 44.34375 72.90625 50.609375 67.359375 
Q 56.890625 61.8125 56.890625 51.125 
Q 56.890625 40.328125 50.609375 34.8125 
Q 44.34375 29.296875 32.078125 29.296875 
L 19.671875 29.296875 
L 19.671875 0 
L 9.8125 0 
z
" id="DejaVuSans-80"/>
      </defs>
      <use xlink:href="#DejaVuSans-80"/>
     </g>
    </g>
   </g>
   <g id="text_6">
    <g id="patch_7">
     <path clip-path="url(#p52d9323eed)" d="M 122.099434 135.051273 
L 125.572781 130.822311 
Q 127.09604 128.967673 125.241401 127.444415 
L 119.258261 122.530319 
Q 117.403623 121.00706 115.880364 122.861698 
L 112.407017 127.09066 
Q 110.883758 128.945298 112.738397 130.468557 
L 118.721537 135.382653 
Q 120.576175 136.905911 122.099434 135.051273 
z
" style="fill:#ffffff;stroke:#ffffff;stroke-linejoin:miter;"/>
    </g>
    <g clip-path="url(#p52d9323eed)">
     <!-- A -->
     <g transform="translate(118.959106 132.472047)rotate(-50.602922)scale(0.08 -0.08)">
      <use xlink:href="#DejaVuSans-65"/>
     </g>
    </g>
   </g>
   <g id="text_7">
    <g id="patch_8">
     <path clip-path="url(#p52d9323eed)" d="M 67.937504 233.264857 
L 67.937504 267.072357 
Q 67.937504 269.472357 70.337504 269.472357 
L 78.080004 269.472357 
Q 80.480004 269.472357 80.480004 267.072357 
L 80.480004 233.264857 
Q 80.480004 230.864857 78.080004 230.864857 
L 70.337504 230.864857 
Q 67.937504 230.864857 67.937504 233.264857 
z
" style="fill:#ffffff;stroke:#ffffff;stroke-linejoin:miter;"/>
    </g>
    <g clip-path="url(#p52d9323eed)">
     <!-- Terminal -->
     <g transform="translate(72.001254 233.264857)rotate(-270)scale(0.08 -0.08)">
      <defs>
       <path d="M -0.296875 72.90625 
L 61.375 72.90625 
L 61.375 64.59375 
L 35.5 64.59375 
L 35.5 0 
L 25.59375 0 
L 25.59375 64.59375 
L -0.296875 64.59375 
z
" id="DejaVuSans-84"/>
       <path d="M 56.203125 29.59375 
L 56.203125 25.203125 
L 14.890625 25.203125 
Q 15.484375 15.921875 20.484375 11.0625 
Q 25.484375 6.203125 34.421875 6.203125 
Q 39.59375 6.203125 44.453125 7.46875 
Q 49.3125 8.734375 54.109375 11.28125 
L 54.109375 2.78125 
Q 49.265625 0.734375 44.1875 -0.34375 
Q 39.109375 -1.421875 33.890625 -1.421875 
Q 20.796875 -1.421875 13.15625 6.1875 
Q 5.515625 13.8125 5.515625 26.8125 
Q 5.515625 40.234375 12.765625 48.109375 
Q 20.015625 56 32.328125 56 
Q 43.359375 56 49.78125 48.890625 
Q 56.203125 41.796875 56.203125 29.59375 
z
M 47.21875 32.234375 
Q 47.125 39.59375 43.09375 43.984375 
Q 39.0625 48.390625 32.421875 48.390625 
Q 24.90625 48.390625 20.390625 44.140625 
Q 15.875 39.890625 15.1875 32.171875 
z
" id="DejaVuSans-101"/>
       <path d="M 41.109375 46.296875 
Q 39.59375 47.171875 37.8125 47.578125 
Q 36.03125 48 33.890625 48 
Q 26.265625 48 22.1875 43.046875 
Q 18.109375 38.09375 18.109375 28.8125 
L 18.109375 0 
L 9.078125 0 
L 9.078125 54.6875 
L 18.109375 54.6875 
L 18.109375 46.1875 
Q 20.953125 51.171875 25.484375 53.578125 
Q 30.03125 56 36.53125 56 
Q 37.453125 56 38.578125 55.875 
Q 39.703125 55.765625 41.0625 55.515625 
z
" id="DejaVuSans-114"/>
       <path d="M 52 44.1875 
Q 55.375 50.25 60.0625 53.125 
Q 64.75 56 71.09375 56 
Q 79.640625 56 84.28125 50.015625 
Q 88.921875 44.046875 88.921875 33.015625 
L 88.921875 0 
L 79.890625 0 
L 79.890625 32.71875 
Q 79.890625 40.578125 77.09375 44.375 
Q 74.3125 48.1875 68.609375 48.1875 
Q 61.625 48.1875 57.5625 43.546875 
Q 53.515625 38.921875 53.515625 30.90625 
L 53.515625 0 
L 44.484375 0 
L 44.484375 32.71875 
Q 44.484375 40.625 41.703125 44.40625 
Q 38.921875 48.1875 33.109375 48.1875 
Q 26.21875 48.1875 22.15625 43.53125 
Q 18.109375 38.875 18.109375 30.90625 
L 18.109375 0 
L 9.078125 0 
L 9.078125 54.6875 
L 18.109375 54.6875 
L 18.109375 46.1875 
Q 21.1875 51.21875 25.484375 53.609375 
Q 29.78125 56 35.6875 56 
Q 41.65625 56 45.828125 52.96875 
Q 50 49.953125 52 44.1875 
z
" id="DejaVuSans-109"/>
       <path d="M 9.421875 54.6875 
L 18.40625 54.6875 
L 18.40625 0 
L 9.421875 0 
z
M 9.421875 75.984375 
L 18.40625 75.984375 
L 18.40625 64.59375 
L 9.421875 64.59375 
z
" id="DejaVuSans-105"/>
       <path d="M 54.890625 33.015625 
L 54.890625 0 
L 45.90625 0 
L 45.90625 32.71875 
Q 45.90625 40.484375 42.875 44.328125 
Q 39.84375 48.1875 33.796875 48.1875 
Q 26.515625 48.1875 22.3125 43.546875 
Q 18.109375 38.921875 18.109375 30.90625 
L 18.109375 0 
L 9.078125 0 
L 9.078125 54.6875 
L 18.109375 54.6875 
L 18.109375 46.1875 
Q 21.34375 51.125 25.703125 53.5625 
Q 30.078125 56 35.796875 56 
Q 45.21875 56 50.046875 50.171875 
Q 54.890625 44.34375 54.890625 33.015625 
z
" id="DejaVuSans-110"/>
       <path d="M 34.28125 27.484375 
Q 23.390625 27.484375 19.1875 25 
Q 14.984375 22.515625 14.984375 16.5 
Q 14.984375 11.71875 18.140625 8.90625 
Q 21.296875 6.109375 26.703125 6.109375 
Q 34.1875 6.109375 38.703125 11.40625 
Q 43.21875 16.703125 43.21875 25.484375 
L 43.21875 27.484375 
z
M 52.203125 31.203125 
L 52.203125 0 
L 43.21875 0 
L 43.21875 8.296875 
Q 40.140625 3.328125 35.546875 0.953125 
Q 30.953125 -1.421875 24.3125 -1.421875 
Q 15.921875 -1.421875 10.953125 3.296875 
Q 6 8.015625 6 15.921875 
Q 6 25.140625 12.171875 29.828125 
Q 18.359375 34.515625 30.609375 34.515625 
L 43.21875 34.515625 
L 43.21875 35.40625 
Q 43.21875 41.609375 39.140625 45 
Q 35.0625 48.390625 27.6875 48.390625 
Q 23 48.390625 18.546875 47.265625 
Q 14.109375 46.140625 10.015625 43.890625 
L 10.015625 52.203125 
Q 14.9375 54.109375 19.578125 55.046875 
Q 24.21875 56 28.609375 56 
Q 40.484375 56 46.34375 49.84375 
Q 52.203125 43.703125 52.203125 31.203125 
z
" id="DejaVuSans-97"/>
       <path d="M 9.421875 75.984375 
L 18.40625 75.984375 
L 18.40625 0 
L 9.421875 0 
z
" id="DejaVuSans-108"/>
      </defs>
      <use xlink:href="#DejaVuSans-84"/>
      <use x="44.083984" xlink:href="#DejaVuSans-101"/>
      <use x="105.607422" xlink:href="#DejaVuSans-114"/>
      <use x="144.970703" xlink:href="#DejaVuSans-109"/>
      <use x="242.382812" xlink:href="#DejaVuSans-105"/>
      <use x="270.166016" xlink:href="#DejaVuSans-110"/>
      <use x="333.544922" xlink:href="#DejaVuSans-97"/>
      <use x="394.824219" xlink:href="#DejaVuSans-108"/>
     </g>
    </g>
   </g>
   <g id="text_8">
    <g id="patch_9">
     <path clip-path="url(#p52d9323eed)" d="M 187.266724 247.844056 
L 192.309934 247.499015 
Q 194.704337 247.335197 194.540519 244.940794 
L 194.012035 237.216352 
Q 193.848217 234.821949 191.453815 234.985767 
L 186.410604 235.330809 
Q 184.016202 235.494627 184.18002 237.889029 
L 184.708503 245.613472 
Q 184.872321 248.007874 187.266724 247.844056 
z
" style="fill:#ffffff;stroke:#ffffff;stroke-linejoin:miter;"/>
    </g>
    <g clip-path="url(#p52d9323eed)">
     <!-- E -->
     <g transform="translate(186.989343 243.789784)rotate(-3.913908)scale(0.08 -0.08)">
      <defs>
       <path d="M 9.8125 72.90625 
L 55.90625 72.90625 
L 55.90625 64.59375 
L 19.671875 64.59375 
L 19.671875 43.015625 
L 54.390625 43.015625 
L 54.390625 34.71875 
L 19.671875 34.71875 
L 19.671875 8.296875 
L 56.78125 8.296875 
L 56.78125 0 
L 9.8125 0 
z
" id="DejaVuSans-69"/>
      </defs>
      <use xlink:href="#DejaVuSans-69"/>
     </g>
    </g>
   </g>
   <g id="text_9">
    <g id="patch_10">
     <path clip-path="url(#p52d9323eed)" d="M 213.148765 247.932135 
L 218.171218 247.359433 
Q 220.555766 247.087527 220.283859 244.702979 
L 219.406679 237.01033 
Q 219.134773 234.625782 216.750225 234.897688 
L 211.727772 235.47039 
Q 209.343224 235.742297 209.61513 238.126844 
L 210.492311 245.819494 
Q 210.764217 248.204042 213.148765 247.932135 
z
" style="fill:#ffffff;stroke:#ffffff;stroke-linejoin:miter;"/>
    </g>
    <g clip-path="url(#p52d9323eed)">
     <!-- E -->
     <g transform="translate(212.688365 243.89455)rotate(-6.505248)scale(0.08 -0.08)">
      <use xlink:href="#DejaVuSans-69"/>
     </g>
    </g>
   </g>
   <g id="text_10">
    <g id="patch_11">
     <path clip-path="url(#p52d9323eed)" d="M 239.92577 248.252632 
L 245.211311 246.444526 
Q 247.482118 245.667717 246.705309 243.396909 
L 244.199288 236.07119 
Q 243.422479 233.800382 241.151671 234.577192 
L 235.86613 236.385297 
Q 233.595323 237.162107 234.372132 239.432914 
L 236.878153 246.758634 
Q 237.654962 249.029441 239.92577 248.252632 
z
" style="fill:#ffffff;stroke:#ffffff;stroke-linejoin:miter;"/>
    </g>
    <g clip-path="url(#p52d9323eed)">
     <!-- C -->
     <g transform="translate(238.610453 244.407634)rotate(-18.885058)scale(0.08 -0.08)">
      <defs>
       <path d="M 64.40625 67.28125 
L 64.40625 56.890625 
Q 59.421875 61.53125 53.78125 63.8125 
Q 48.140625 66.109375 41.796875 66.109375 
Q 29.296875 66.109375 22.65625 58.46875 
Q 16.015625 50.828125 16.015625 36.375 
Q 16.015625 21.96875 22.65625 14.328125 
Q 29.296875 6.6875 41.796875 6.6875 
Q 48.140625 6.6875 53.78125 8.984375 
Q 59.421875 11.28125 64.40625 15.921875 
L 64.40625 5.609375 
Q 59.234375 2.09375 53.4375 0.328125 
Q 47.65625 -1.421875 41.21875 -1.421875 
Q 24.65625 -1.421875 15.125 8.703125 
Q 5.609375 18.84375 5.609375 36.375 
Q 5.609375 53.953125 15.125 64.078125 
Q 24.65625 74.21875 41.21875 74.21875 
Q 47.75 74.21875 53.53125 72.484375 
Q 59.328125 70.75 64.40625 67.28125 
z
" id="DejaVuSans-67"/>
      </defs>
      <use xlink:href="#DejaVuSans-67"/>
     </g>
    </g>
   </g>
   <g id="text_11">
    <g id="patch_12">
     <path clip-path="url(#p52d9323eed)" d="M 261.455356 246.444526 
L 266.740897 248.252632 
Q 269.011704 249.029441 269.788514 246.758634 
L 272.294534 239.432914 
Q 273.071344 237.162107 270.800536 236.385297 
L 265.514995 234.577192 
Q 263.244188 233.800382 262.467378 236.07119 
L 259.961358 243.396909 
Q 259.184548 245.667717 261.455356 246.444526 
z
" style="fill:#ffffff;stroke:#ffffff;stroke-linejoin:miter;"/>
    </g>
    <g clip-path="url(#p52d9323eed)">
     <!-- C -->
     <g transform="translate(262.770673 242.599529)rotate(-341.114942)scale(0.08 -0.08)">
      <use xlink:href="#DejaVuSans-67"/>
     </g>
    </g>
   </g>
   <g id="text_12">
    <g id="patch_13">
     <path clip-path="url(#p52d9323eed)" d="M 288.495449 247.359433 
L 293.517902 247.932135 
Q 295.90245 248.204042 296.174356 245.819494 
L 297.051536 238.126844 
Q 297.323442 235.742297 294.938895 235.47039 
L 289.916441 234.897688 
Q 287.531894 234.625782 287.259988 237.01033 
L 286.382807 244.702979 
Q 286.110901 247.087527 288.495449 247.359433 
z
" style="fill:#ffffff;stroke:#ffffff;stroke-linejoin:miter;"/>
    </g>
    <g clip-path="url(#p52d9323eed)">
     <!-- E -->
     <g transform="translate(288.955848 243.321848)rotate(-353.494752)scale(0.08 -0.08)">
      <use xlink:href="#DejaVuSans-69"/>
     </g>
    </g>
   </g>
   <g id="text_13">
    <g id="patch_14">
     <path clip-path="url(#p52d9323eed)" d="M 314.091727 247.480884 
L 319.664948 247.862187 
Q 322.059351 248.026005 322.223169 245.631603 
L 322.751652 237.90716 
Q 322.91547 235.512758 320.521068 235.34894 
L 314.947846 234.967636 
Q 312.553444 234.803818 312.389626 237.198221 
L 311.861142 244.922663 
Q 311.697324 247.317066 314.091727 247.480884 
z
" style="fill:#ffffff;stroke:#ffffff;stroke-linejoin:miter;"/>
    </g>
    <g clip-path="url(#p52d9323eed)">
     <!-- C -->
     <g transform="translate(314.369108 243.426612)rotate(-356.086092)scale(0.08 -0.08)">
      <use xlink:href="#DejaVuSans-67"/>
     </g>
    </g>
   </g>
   <g id="text_14">
    <g id="patch_15">
     <path clip-path="url(#p52d9323eed)" d="M 426.186662 233.264857 
L 426.186662 267.072357 
Q 426.186662 269.472357 428.586662 269.472357 
L 436.329162 269.472357 
Q 438.729162 269.472357 438.729162 267.072357 
L 438.729162 233.264857 
Q 438.729162 230.864857 436.329162 230.864857 
L 428.586662 230.864857 
Q 426.186662 230.864857 426.186662 233.264857 
z
" style="fill:#ffffff;stroke:#ffffff;stroke-linejoin:miter;"/>
    </g>
    <g clip-path="url(#p52d9323eed)">
     <!-- Terminal -->
     <g transform="translate(430.250412 233.264857)rotate(-270)scale(0.08 -0.08)">
      <use xlink:href="#DejaVuSans-84"/>
      <use x="44.083984" xlink:href="#DejaVuSans-101"/>
      <use x="105.607422" xlink:href="#DejaVuSans-114"/>
      <use x="144.970703" xlink:href="#DejaVuSans-109"/>
      <use x="242.382812" xlink:href="#DejaVuSans-105"/>
      <use x="270.166016" xlink:href="#DejaVuSans-110"/>
      <use x="333.544922" xlink:href="#DejaVuSans-97"/>
      <use x="394.824219" xlink:href="#DejaVuSans-108"/>
     </g>
    </g>
   </g>
   <g id="text_15">
    <g id="patch_16">
     <path clip-path="url(#p52d9323eed)" d="M 477.365114 233.264857 
L 477.365114 267.072357 
Q 477.365114 269.472357 479.765114 269.472357 
L 487.507614 269.472357 
Q 489.907614 269.472357 489.907614 267.072357 
L 489.907614 233.264857 
Q 489.907614 230.864857 487.507614 230.864857 
L 479.765114 230.864857 
Q 477.365114 230.864857 477.365114 233.264857 
z
" style="fill:#ffffff;stroke:#ffffff;stroke-linejoin:miter;"/>
    </g>
    <g clip-path="url(#p52d9323eed)">
     <!-- Terminal -->
     <g transform="translate(481.428864 233.264857)rotate(-270)scale(0.08 -0.08)">
      <use xlink:href="#DejaVuSans-84"/>
      <use x="44.083984" xlink:href="#DejaVuSans-101"/>
      <use x="105.607422" xlink:href="#DejaVuSans-114"/>
      <use x="144.970703" xlink:href="#DejaVuSans-109"/>
      <use x="242.382812" xlink:href="#DejaVuSans-105"/>
      <use x="270.166016" xlink:href="#DejaVuSans-110"/>
      <use x="333.544922" xlink:href="#DejaVuSans-97"/>
      <use x="394.824219" xlink:href="#DejaVuSans-108"/>
     </g>
    </g>
   </g>
   <g id="text_16">
    <g id="patch_17">
     <path clip-path="url(#p52d9323eed)" d="M 16.759053 33.720012 
L 16.759053 38.543762 
Q 16.759053 40.943762 19.159053 40.943762 
L 26.901553 40.943762 
Q 29.301553 40.943762 29.301553 38.543762 
L 29.301553 33.720012 
Q 29.301553 31.320012 26.901553 31.320012 
L 19.159053 31.320012 
Q 16.759053 31.320012 16.759053 33.720012 
z
" style="fill:#ffffff;stroke:#ffffff;stroke-linejoin:miter;"/>
    </g>
    <g clip-path="url(#p52d9323eed)">
     <!-- P -->
     <g transform="translate(20.822803 33.720012)rotate(-270)scale(0.08 -0.08)">
      <use xlink:href="#DejaVuSans-80"/>
     </g>
    </g>
   </g>
   <g id="text_17">
    <g id="patch_18">
     <path clip-path="url(#p52d9323eed)" d="M 119.115955 233.264857 
L 119.115955 267.072357 
Q 119.115955 269.472357 121.515955 269.472357 
L 129.258455 269.472357 
Q 131.658455 269.472357 131.658455 267.072357 
L 131.658455 233.264857 
Q 131.658455 230.864857 129.258455 230.864857 
L 121.515955 230.864857 
Q 119.115955 230.864857 119.115955 233.264857 
z
" style="fill:#ffffff;stroke:#ffffff;stroke-linejoin:miter;"/>
    </g>
    <g clip-path="url(#p52d9323eed)">
     <!-- Terminal -->
     <g transform="translate(123.179705 233.264857)rotate(-270)scale(0.08 -0.08)">
      <use xlink:href="#DejaVuSans-84"/>
      <use x="44.083984" xlink:href="#DejaVuSans-101"/>
      <use x="105.607422" xlink:href="#DejaVuSans-114"/>
      <use x="144.970703" xlink:href="#DejaVuSans-109"/>
      <use x="242.382812" xlink:href="#DejaVuSans-105"/>
      <use x="270.166016" xlink:href="#DejaVuSans-110"/>
      <use x="333.544922" xlink:href="#DejaVuSans-97"/>
      <use x="394.824219" xlink:href="#DejaVuSans-108"/>
     </g>
    </g>
   </g>
   <g id="text_18">
    <g id="patch_19">
     <path clip-path="url(#p52d9323eed)" d="M 170.294407 233.264857 
L 170.294407 267.072357 
Q 170.294407 269.472357 172.694407 269.472357 
L 180.436907 269.472357 
Q 182.836907 269.472357 182.836907 267.072357 
L 182.836907 233.264857 
Q 182.836907 230.864857 180.436907 230.864857 
L 172.694407 230.864857 
Q 170.294407 230.864857 170.294407 233.264857 
z
" style="fill:#ffffff;stroke:#ffffff;stroke-linejoin:miter;"/>
    </g>
    <g clip-path="url(#p52d9323eed)">
     <!-- Terminal -->
     <g transform="translate(174.358157 233.264857)rotate(-270)scale(0.08 -0.08)">
      <use xlink:href="#DejaVuSans-84"/>
      <use x="44.083984" xlink:href="#DejaVuSans-101"/>
      <use x="105.607422" xlink:href="#DejaVuSans-114"/>
      <use x="144.970703" xlink:href="#DejaVuSans-109"/>
      <use x="242.382812" xlink:href="#DejaVuSans-105"/>
      <use x="270.166016" xlink:href="#DejaVuSans-110"/>
      <use x="333.544922" xlink:href="#DejaVuSans-97"/>
      <use x="394.824219" xlink:href="#DejaVuSans-108"/>
     </g>
    </g>
   </g>
   <g id="text_19">
    <g id="patch_20">
     <path clip-path="url(#p52d9323eed)" d="M 221.472858 233.264857 
L 221.472858 267.072357 
Q 221.472858 269.472357 223.872858 269.472357 
L 231.615358 269.472357 
Q 234.015358 269.472357 234.015358 267.072357 
L 234.015358 233.264857 
Q 234.015358 230.864857 231.615358 230.864857 
L 223.872858 230.864857 
Q 221.472858 230.864857 221.472858 233.264857 
z
" style="fill:#ffffff;stroke:#ffffff;stroke-linejoin:miter;"/>
    </g>
    <g clip-path="url(#p52d9323eed)">
     <!-- Terminal -->
     <g transform="translate(225.536608 233.264857)rotate(-270)scale(0.08 -0.08)">
      <use xlink:href="#DejaVuSans-84"/>
      <use x="44.083984" xlink:href="#DejaVuSans-101"/>
      <use x="105.607422" xlink:href="#DejaVuSans-114"/>
      <use x="144.970703" xlink:href="#DejaVuSans-109"/>
      <use x="242.382812" xlink:href="#DejaVuSans-105"/>
      <use x="270.166016" xlink:href="#DejaVuSans-110"/>
      <use x="333.544922" xlink:href="#DejaVuSans-97"/>
      <use x="394.824219" xlink:href="#DejaVuSans-108"/>
     </g>
    </g>
   </g>
   <g id="text_20">
    <g id="patch_21">
     <path clip-path="url(#p52d9323eed)" d="M 272.651309 233.264857 
L 272.651309 267.072357 
Q 272.651309 269.472357 275.051309 269.472357 
L 282.793809 269.472357 
Q 285.193809 269.472357 285.193809 267.072357 
L 285.193809 233.264857 
Q 285.193809 230.864857 282.793809 230.864857 
L 275.051309 230.864857 
Q 272.651309 230.864857 272.651309 233.264857 
z
" style="fill:#ffffff;stroke:#ffffff;stroke-linejoin:miter;"/>
    </g>
    <g clip-path="url(#p52d9323eed)">
     <!-- Terminal -->
     <g transform="translate(276.715059 233.264857)rotate(-270)scale(0.08 -0.08)">
      <use xlink:href="#DejaVuSans-84"/>
      <use x="44.083984" xlink:href="#DejaVuSans-101"/>
      <use x="105.607422" xlink:href="#DejaVuSans-114"/>
      <use x="144.970703" xlink:href="#DejaVuSans-109"/>
      <use x="242.382812" xlink:href="#DejaVuSans-105"/>
      <use x="270.166016" xlink:href="#DejaVuSans-110"/>
      <use x="333.544922" xlink:href="#DejaVuSans-97"/>
      <use x="394.824219" xlink:href="#DejaVuSans-108"/>
     </g>
    </g>
   </g>
   <g id="text_21">
    <g id="patch_22">
     <path clip-path="url(#p52d9323eed)" d="M 323.82976 233.264857 
L 323.82976 267.072357 
Q 323.82976 269.472357 326.22976 269.472357 
L 333.97226 269.472357 
Q 336.37226 269.472357 336.37226 267.072357 
L 336.37226 233.264857 
Q 336.37226 230.864857 333.97226 230.864857 
L 326.22976 230.864857 
Q 323.82976 230.864857 323.82976 233.264857 
z
" style="fill:#ffffff;stroke:#ffffff;stroke-linejoin:miter;"/>
    </g>
    <g clip-path="url(#p52d9323eed)">
     <!-- Terminal -->
     <g transform="translate(327.89351 233.264857)rotate(-270)scale(0.08 -0.08)">
      <use xlink:href="#DejaVuSans-84"/>
      <use x="44.083984" xlink:href="#DejaVuSans-101"/>
      <use x="105.607422" xlink:href="#DejaVuSans-114"/>
      <use x="144.970703" xlink:href="#DejaVuSans-109"/>
      <use x="242.382812" xlink:href="#DejaVuSans-105"/>
      <use x="270.166016" xlink:href="#DejaVuSans-110"/>
      <use x="333.544922" xlink:href="#DejaVuSans-97"/>
      <use x="394.824219" xlink:href="#DejaVuSans-108"/>
     </g>
    </g>
   </g>
   <g id="text_22">
    <g id="patch_23">
     <path clip-path="url(#p52d9323eed)" d="M 375.008211 233.264857 
L 375.008211 267.072357 
Q 375.008211 269.472357 377.408211 269.472357 
L 385.150711 269.472357 
Q 387.550711 269.472357 387.550711 267.072357 
L 387.550711 233.264857 
Q 387.550711 230.864857 385.150711 230.864857 
L 377.408211 230.864857 
Q 375.008211 230.864857 375.008211 233.264857 
z
" style="fill:#ffffff;stroke:#ffffff;stroke-linejoin:miter;"/>
    </g>
    <g clip-path="url(#p52d9323eed)">
     <!-- Terminal -->
     <g transform="translate(379.071961 233.264857)rotate(-270)scale(0.08 -0.08)">
      <use xlink:href="#DejaVuSans-84"/>
      <use x="44.083984" xlink:href="#DejaVuSans-101"/>
      <use x="105.607422" xlink:href="#DejaVuSans-114"/>
      <use x="144.970703" xlink:href="#DejaVuSans-109"/>
      <use x="242.382812" xlink:href="#DejaVuSans-105"/>
      <use x="270.166016" xlink:href="#DejaVuSans-110"/>
      <use x="333.544922" xlink:href="#DejaVuSans-97"/>
      <use x="394.824219" xlink:href="#DejaVuSans-108"/>
     </g>
    </g>
   </g>
   <g id="text_23">
    <g id="patch_24">
     <path clip-path="url(#p52d9323eed)" d="M 16.759053 48.965389 
L 16.759053 53.789139 
Q 16.759053 56.189139 19.159053 56.189139 
L 26.901553 56.189139 
Q 29.301553 56.189139 29.301553 53.789139 
L 29.301553 48.965389 
Q 29.301553 46.565389 26.901553 46.565389 
L 19.159053 46.565389 
Q 16.759053 46.565389 16.759053 48.965389 
z
" style="fill:#ffffff;stroke:#ffffff;stroke-linejoin:miter;"/>
    </g>
    <g clip-path="url(#p52d9323eed)">
     <!-- P -->
     <g transform="translate(20.822803 48.965389)rotate(-270)scale(0.08 -0.08)">
      <use xlink:href="#DejaVuSans-80"/>
     </g>
    </g>
   </g>
   <g id="text_24">
    <g id="patch_25">
     <path clip-path="url(#p52d9323eed)" d="M 16.759053 63.597943 
L 16.759053 68.421693 
Q 16.759053 70.821693 19.159053 70.821693 
L 26.901553 70.821693 
Q 29.301553 70.821693 29.301553 68.421693 
L 29.301553 63.597943 
Q 29.301553 61.197943 26.901553 61.197943 
L 19.159053 61.197943 
Q 16.759053 61.197943 16.759053 63.597943 
z
" style="fill:#ffffff;stroke:#ffffff;stroke-linejoin:miter;"/>
    </g>
    <g clip-path="url(#p52d9323eed)">
     <!-- P -->
     <g transform="translate(20.822803 63.597943)rotate(-270)scale(0.08 -0.08)">
      <use xlink:href="#DejaVuSans-80"/>
     </g>
    </g>
   </g>
   <g id="text_25">
    <g id="patch_26">
     <path clip-path="url(#p52d9323eed)" d="M 16.759053 77.653002 
L 16.759053 82.476752 
Q 16.759053 84.876752 19.159053 84.876752 
L 26.901553 84.876752 
Q 29.301553 84.876752 29.301553 82.476752 
L 29.301553 77.653002 
Q 29.301553 75.253002 26.901553 75.253002 
L 19.159053 75.253002 
Q 16.759053 75.253002 16.759053 77.653002 
z
" style="fill:#ffffff;stroke:#ffffff;stroke-linejoin:miter;"/>
    </g>
    <g clip-path="url(#p52d9323eed)">
     <!-- P -->
     <g transform="translate(20.822803 77.653002)rotate(-270)scale(0.08 -0.08)">
      <use xlink:href="#DejaVuSans-80"/>
     </g>
    </g>
   </g>
   <g id="text_26">
    <g id="patch_27">
     <path clip-path="url(#p52d9323eed)" d="M 16.759053 91.164032 
L 16.759053 95.987782 
Q 16.759053 98.387782 19.159053 98.387782 
L 26.901553 98.387782 
Q 29.301553 98.387782 29.301553 95.987782 
L 29.301553 91.164032 
Q 29.301553 88.764032 26.901553 88.764032 
L 19.159053 88.764032 
Q 16.759053 88.764032 16.759053 91.164032 
z
" style="fill:#ffffff;stroke:#ffffff;stroke-linejoin:miter;"/>
    </g>
    <g clip-path="url(#p52d9323eed)">
     <!-- P -->
     <g transform="translate(20.822803 91.164032)rotate(-270)scale(0.08 -0.08)">
      <use xlink:href="#DejaVuSans-80"/>
     </g>
    </g>
   </g>
   <g id="text_27">
    <g id="patch_28">
     <path clip-path="url(#p52d9323eed)" d="M 16.759053 104.162798 
L 16.759053 108.986548 
Q 16.759053 111.386548 19.159053 111.386548 
L 26.901553 111.386548 
Q 29.301553 111.386548 29.301553 108.986548 
L 29.301553 104.162798 
Q 29.301553 101.762798 26.901553 101.762798 
L 19.159053 101.762798 
Q 16.759053 101.762798 16.759053 104.162798 
z
" style="fill:#ffffff;stroke:#ffffff;stroke-linejoin:miter;"/>
    </g>
    <g clip-path="url(#p52d9323eed)">
     <!-- P -->
     <g transform="translate(20.822803 104.162798)rotate(-270)scale(0.08 -0.08)">
      <use xlink:href="#DejaVuSans-80"/>
     </g>
    </g>
   </g>
   <g id="text_28">
    <g id="patch_29">
     <path clip-path="url(#p52d9323eed)" d="M 16.759053 116.679521 
L 16.759053 121.503271 
Q 16.759053 123.903271 19.159053 123.903271 
L 26.901553 123.903271 
Q 29.301553 123.903271 29.301553 121.503271 
L 29.301553 116.679521 
Q 29.301553 114.279521 26.901553 114.279521 
L 19.159053 114.279521 
Q 16.759053 114.279521 16.759053 116.679521 
z
" style="fill:#ffffff;stroke:#ffffff;stroke-linejoin:miter;"/>
    </g>
    <g clip-path="url(#p52d9323eed)">
     <!-- P -->
     <g transform="translate(20.822803 116.679521)rotate(-270)scale(0.08 -0.08)">
      <use xlink:href="#DejaVuSans-80"/>
     </g>
    </g>
   </g>
   <g id="text_29">
    <g id="patch_30">
     <path clip-path="url(#p52d9323eed)" d="M 16.759053 128.743029 
L 16.759053 133.566779 
Q 16.759053 135.966779 19.159053 135.966779 
L 26.901553 135.966779 
Q 29.301553 135.966779 29.301553 133.566779 
L 29.301553 128.743029 
Q 29.301553 126.343029 26.901553 126.343029 
L 19.159053 126.343029 
Q 16.759053 126.343029 16.759053 128.743029 
z
" style="fill:#ffffff;stroke:#ffffff;stroke-linejoin:miter;"/>
    </g>
    <g clip-path="url(#p52d9323eed)">
     <!-- P -->
     <g transform="translate(20.822803 128.743029)rotate(-270)scale(0.08 -0.08)">
      <use xlink:href="#DejaVuSans-80"/>
     </g>
    </g>
   </g>
   <g id="text_30">
    <g id="patch_31">
     <path clip-path="url(#p52d9323eed)" d="M 16.759053 140.380922 
L 16.759053 145.204672 
Q 16.759053 147.604672 19.159053 147.604672 
L 26.901553 147.604672 
Q 29.301553 147.604672 29.301553 145.204672 
L 29.301553 140.380922 
Q 29.301553 137.980922 26.901553 137.980922 
L 19.159053 137.980922 
Q 16.759053 137.980922 16.759053 140.380922 
z
" style="fill:#ffffff;stroke:#ffffff;stroke-linejoin:miter;"/>
    </g>
    <g clip-path="url(#p52d9323eed)">
     <!-- P -->
     <g transform="translate(20.822803 140.380922)rotate(-270)scale(0.08 -0.08)">
      <use xlink:href="#DejaVuSans-80"/>
     </g>
    </g>
   </g>
   <g id="text_31">
    <g id="patch_32">
     <path clip-path="url(#p52d9323eed)" d="M 16.759053 151.619736 
L 16.759053 156.443486 
Q 16.759053 158.843486 19.159053 158.843486 
L 26.901553 158.843486 
Q 29.301553 158.843486 29.301553 156.443486 
L 29.301553 151.619736 
Q 29.301553 149.219736 26.901553 149.219736 
L 19.159053 149.219736 
Q 16.759053 149.219736 16.759053 151.619736 
z
" style="fill:#ffffff;stroke:#ffffff;stroke-linejoin:miter;"/>
    </g>
    <g clip-path="url(#p52d9323eed)">
     <!-- P -->
     <g transform="translate(20.822803 151.619736)rotate(-270)scale(0.08 -0.08)">
      <use xlink:href="#DejaVuSans-80"/>
     </g>
    </g>
   </g>
   <g id="text_32">
    <g id="patch_33">
     <path clip-path="url(#p52d9323eed)" d="M 16.759053 162.485126 
L 16.759053 167.308876 
Q 16.759053 169.708876 19.159053 169.708876 
L 26.901553 169.708876 
Q 29.301553 169.708876 29.301553 167.308876 
L 29.301553 162.485126 
Q 29.301553 160.085126 26.901553 160.085126 
L 19.159053 160.085126 
Q 16.759053 160.085126 16.759053 162.485126 
z
" style="fill:#ffffff;stroke:#ffffff;stroke-linejoin:miter;"/>
    </g>
    <g clip-path="url(#p52d9323eed)">
     <!-- P -->
     <g transform="translate(20.822803 162.485126)rotate(-270)scale(0.08 -0.08)">
      <use xlink:href="#DejaVuSans-80"/>
     </g>
    </g>
   </g>
   <g id="text_33">
    <g id="patch_34">
     <path clip-path="url(#p52d9323eed)" d="M 16.759053 173.002076 
L 16.759053 177.825826 
Q 16.759053 180.225826 19.159053 180.225826 
L 26.901553 180.225826 
Q 29.301553 180.225826 29.301553 177.825826 
L 29.301553 173.002076 
Q 29.301553 170.602076 26.901553 170.602076 
L 19.159053 170.602076 
Q 16.759053 170.602076 16.759053 173.002076 
z
" style="fill:#ffffff;stroke:#ffffff;stroke-linejoin:miter;"/>
    </g>
    <g clip-path="url(#p52d9323eed)">
     <!-- P -->
     <g transform="translate(20.822803 173.002076)rotate(-270)scale(0.08 -0.08)">
      <use xlink:href="#DejaVuSans-80"/>
     </g>
    </g>
   </g>
   <g id="text_34">
    <g id="patch_35">
     <path clip-path="url(#p52d9323eed)" d="M 16.759053 183.195147 
L 16.759053 188.018897 
Q 16.759053 190.418897 19.159053 190.418897 
L 26.901553 190.418897 
Q 29.301553 190.418897 29.301553 188.018897 
L 29.301553 183.195147 
Q 29.301553 180.795147 26.901553 180.795147 
L 19.159053 180.795147 
Q 16.759053 180.795147 16.759053 183.195147 
z
" style="fill:#ffffff;stroke:#ffffff;stroke-linejoin:miter;"/>
    </g>
    <g clip-path="url(#p52d9323eed)">
     <!-- P -->
     <g transform="translate(20.822803 183.195147)rotate(-270)scale(0.08 -0.08)">
      <use xlink:href="#DejaVuSans-80"/>
     </g>
    </g>
   </g>
   <g id="text_35">
    <g id="patch_36">
     <path clip-path="url(#p52d9323eed)" d="M 16.759053 193.088801 
L 16.759053 197.912551 
Q 16.759053 200.312551 19.159053 200.312551 
L 26.901553 200.312551 
Q 29.301553 200.312551 29.301553 197.912551 
L 29.301553 193.088801 
Q 29.301553 190.688801 26.901553 190.688801 
L 19.159053 190.688801 
Q 16.759053 190.688801 16.759053 193.088801 
z
" style="fill:#ffffff;stroke:#ffffff;stroke-linejoin:miter;"/>
    </g>
    <g clip-path="url(#p52d9323eed)">
     <!-- P -->
     <g transform="translate(20.822803 193.088801)rotate(-270)scale(0.08 -0.08)">
      <use xlink:href="#DejaVuSans-80"/>
     </g>
    </g>
   </g>
   <g id="text_36">
    <g id="patch_37">
     <path clip-path="url(#p52d9323eed)" d="M 16.759053 202.707844 
L 16.759053 207.531594 
Q 16.759053 209.931594 19.159053 209.931594 
L 26.901553 209.931594 
Q 29.301553 209.931594 29.301553 207.531594 
L 29.301553 202.707844 
Q 29.301553 200.307844 26.901553 200.307844 
L 19.159053 200.307844 
Q 16.759053 200.307844 16.759053 202.707844 
z
" style="fill:#ffffff;stroke:#ffffff;stroke-linejoin:miter;"/>
    </g>
    <g clip-path="url(#p52d9323eed)">
     <!-- P -->
     <g transform="translate(20.822803 202.707844)rotate(-270)scale(0.08 -0.08)">
      <use xlink:href="#DejaVuSans-80"/>
     </g>
    </g>
   </g>
   <g id="text_37">
    <g id="patch_38">
     <path clip-path="url(#p52d9323eed)" d="M 16.759053 212.0781 
L 16.759053 216.90185 
Q 16.759053 219.30185 19.159053 219.30185 
L 26.901553 219.30185 
Q 29.301553 219.30185 29.301553 216.90185 
L 29.301553 212.0781 
Q 29.301553 209.6781 26.901553 209.6781 
L 19.159053 209.6781 
Q 16.759053 209.6781 16.759053 212.0781 
z
" style="fill:#ffffff;stroke:#ffffff;stroke-linejoin:miter;"/>
    </g>
    <g clip-path="url(#p52d9323eed)">
     <!-- P -->
     <g transform="translate(20.822803 212.0781)rotate(-270)scale(0.08 -0.08)">
      <use xlink:href="#DejaVuSans-80"/>
     </g>
    </g>
   </g>
   <g id="text_38">
    <g id="patch_39">
     <path clip-path="url(#p52d9323eed)" d="M 16.759053 221.227534 
L 16.759053 226.051284 
Q 16.759053 228.451284 19.159053 228.451284 
L 26.901553 228.451284 
Q 29.301553 228.451284 29.301553 226.051284 
L 29.301553 221.227534 
Q 29.301553 218.827534 26.901553 218.827534 
L 19.159053 218.827534 
Q 16.759053 218.827534 16.759053 221.227534 
z
" style="fill:#ffffff;stroke:#ffffff;stroke-linejoin:miter;"/>
    </g>
    <g clip-path="url(#p52d9323eed)">
     <!-- P -->
     <g transform="translate(20.822803 221.227534)rotate(-270)scale(0.08 -0.08)">
      <use xlink:href="#DejaVuSans-80"/>
     </g>
    </g>
   </g>
   <g id="text_39">
    <g id="patch_40">
     <path clip-path="url(#p52d9323eed)" d="M 16.759053 230.188455 
L 16.759053 235.012205 
Q 16.759053 237.412205 19.159053 237.412205 
L 26.901553 237.412205 
Q 29.301553 237.412205 29.301553 235.012205 
L 29.301553 230.188455 
Q 29.301553 227.788455 26.901553 227.788455 
L 19.159053 227.788455 
Q 16.759053 227.788455 16.759053 230.188455 
z
" style="fill:#ffffff;stroke:#ffffff;stroke-linejoin:miter;"/>
    </g>
    <g clip-path="url(#p52d9323eed)">
     <!-- P -->
     <g transform="translate(20.822803 230.188455)rotate(-270)scale(0.08 -0.08)">
      <use xlink:href="#DejaVuSans-80"/>
     </g>
    </g>
   </g>
   <g id="text_40">
    <g id="patch_41">
     <path clip-path="url(#p52d9323eed)" d="M 16.759053 239.003037 
L 16.759053 243.826787 
Q 16.759053 246.226787 19.159053 246.226787 
L 26.901553 246.226787 
Q 29.301553 246.226787 29.301553 243.826787 
L 29.301553 239.003037 
Q 29.301553 236.603037 26.901553 236.603037 
L 19.159053 236.603037 
Q 16.759053 236.603037 16.759053 239.003037 
z
" style="fill:#ffffff;stroke:#ffffff;stroke-linejoin:miter;"/>
    </g>
    <g clip-path="url(#p52d9323eed)">
     <!-- P -->
     <g transform="translate(20.822803 239.003037)rotate(-270)scale(0.08 -0.08)">
      <use xlink:href="#DejaVuSans-80"/>
     </g>
    </g>
   </g>
   <g id="text_41">
    <g id="patch_42">
     <path clip-path="url(#p52d9323eed)" d="M 16.759053 233.264857 
L 16.759053 267.072357 
Q 16.759053 269.472357 19.159053 269.472357 
L 26.901553 269.472357 
Q 29.301553 269.472357 29.301553 267.072357 
L 29.301553 233.264857 
Q 29.301553 230.864857 26.901553 230.864857 
L 19.159053 230.864857 
Q 16.759053 230.864857 16.759053 233.264857 
z
" style="fill:#ffffff;stroke:#ffffff;stroke-linejoin:miter;"/>
    </g>
    <g clip-path="url(#p52d9323eed)">
     <!-- Terminal -->
     <g transform="translate(20.822803 233.264857)rotate(-270)scale(0.08 -0.08)">
      <use xlink:href="#DejaVuSans-84"/>
      <use x="44.083984" xlink:href="#DejaVuSans-101"/>
      <use x="105.607422" xlink:href="#DejaVuSans-114"/>
      <use x="144.970703" xlink:href="#DejaVuSans-109"/>
      <use x="242.382812" xlink:href="#DejaVuSans-105"/>
      <use x="270.166016" xlink:href="#DejaVuSans-110"/>
      <use x="333.544922" xlink:href="#DejaVuSans-97"/>
      <use x="394.824219" xlink:href="#DejaVuSans-108"/>
     </g>
    </g>
   </g>
   <g id="PathCollection_1">
    <defs>
     <path d="M 0 8.660254 
C 2.296726 8.660254 4.499694 7.747755 6.123724 6.123724 
C 7.747755 4.499694 8.660254 2.296726 8.660254 -0 
C 8.660254 -2.296726 7.747755 -4.499694 6.123724 -6.123724 
C 4.499694 -7.747755 2.296726 -8.660254 0 -8.660254 
C -2.296726 -8.660254 -4.499694 -7.747755 -6.123724 -6.123724 
C -7.747755 -4.499694 -8.660254 -2.296726 -8.660254 0 
C -8.660254 2.296726 -7.747755 4.499694 -6.123724 6.123724 
C -4.499694 7.747755 -2.296726 8.660254 0 8.660254 
z
" id="C0_0_c2021e89a1"/>
    </defs>
    <g clip-path="url(#p52d9323eed)">
     <use style="fill:#ffffff;stroke:#ffffff;" x="23.030303" xlink:href="#C0_0_c2021e89a1" y="254.545455"/>
    </g>
    <g clip-path="url(#p52d9323eed)">
     <use style="fill:#ffffff;stroke:#ffffff;" x="74.208754" xlink:href="#C0_0_c2021e89a1" y="254.545455"/>
    </g>
    <g clip-path="url(#p52d9323eed)">
     <use style="fill:#ffffff;stroke:#ffffff;" x="125.387205" xlink:href="#C0_0_c2021e89a1" y="254.545455"/>
    </g>
    <g clip-path="url(#p52d9323eed)">
     <use style="fill:#ffffff;stroke:#ffffff;" x="176.565657" xlink:href="#C0_0_c2021e89a1" y="254.545455"/>
    </g>
    <g clip-path="url(#p52d9323eed)">
     <use style="fill:#ffffff;stroke:#ffffff;" x="227.744108" xlink:href="#C0_0_c2021e89a1" y="254.545455"/>
    </g>
    <g clip-path="url(#p52d9323eed)">
     <use style="fill:#ffffff;stroke:#ffffff;" x="278.922559" xlink:href="#C0_0_c2021e89a1" y="254.545455"/>
    </g>
    <g clip-path="url(#p52d9323eed)">
     <use style="fill:#ffffff;stroke:#ffffff;" x="330.10101" xlink:href="#C0_0_c2021e89a1" y="254.545455"/>
    </g>
    <g clip-path="url(#p52d9323eed)">
     <use style="fill:#ffffff;stroke:#ffffff;" x="381.279461" xlink:href="#C0_0_c2021e89a1" y="254.545455"/>
    </g>
    <g clip-path="url(#p52d9323eed)">
     <use style="fill:#ffffff;stroke:#ffffff;" x="432.457912" xlink:href="#C0_0_c2021e89a1" y="254.545455"/>
    </g>
    <g clip-path="url(#p52d9323eed)">
     <use style="fill:#ffffff;stroke:#ffffff;" x="483.636364" xlink:href="#C0_0_c2021e89a1" y="254.545455"/>
    </g>
    <g clip-path="url(#p52d9323eed)">
     <use style="stroke:#000000;" x="214.949495" xlink:href="#C0_0_c2021e89a1" y="12.121212"/>
    </g>
    <g clip-path="url(#p52d9323eed)">
     <use style="stroke:#000000;" x="74.208754" xlink:href="#C0_0_c2021e89a1" y="245.791759"/>
    </g>
    <g clip-path="url(#p52d9323eed)">
     <use style="stroke:#000000;" x="253.333333" xlink:href="#C0_0_c2021e89a1" y="237.038064"/>
    </g>
    <g clip-path="url(#p52d9323eed)">
     <use style="stroke:#000000;" x="432.457912" xlink:href="#C0_0_c2021e89a1" y="245.791759"/>
    </g>
    <g clip-path="url(#p52d9323eed)">
     <use style="stroke:#000000;" x="483.636364" xlink:href="#C0_0_c2021e89a1" y="245.791759"/>
    </g>
    <g clip-path="url(#p52d9323eed)">
     <use style="stroke:#000000;" x="23.030303" xlink:href="#C0_0_c2021e89a1" y="28.351455"/>
    </g>
    <g clip-path="url(#p52d9323eed)">
     <use style="stroke:#000000;" x="125.387205" xlink:href="#C0_0_c2021e89a1" y="245.791759"/>
    </g>
    <g clip-path="url(#p52d9323eed)">
     <use style="stroke:#000000;" x="176.565657" xlink:href="#C0_0_c2021e89a1" y="245.791759"/>
    </g>
    <g clip-path="url(#p52d9323eed)">
     <use style="stroke:#000000;" x="227.744108" xlink:href="#C0_0_c2021e89a1" y="245.791759"/>
    </g>
    <g clip-path="url(#p52d9323eed)">
     <use style="stroke:#000000;" x="278.922559" xlink:href="#C0_0_c2021e89a1" y="245.791759"/>
    </g>
    <g clip-path="url(#p52d9323eed)">
     <use style="stroke:#000000;" x="330.10101" xlink:href="#C0_0_c2021e89a1" y="245.791759"/>
    </g>
    <g clip-path="url(#p52d9323eed)">
     <use style="stroke:#000000;" x="381.279461" xlink:href="#C0_0_c2021e89a1" y="245.791759"/>
    </g>
    <g clip-path="url(#p52d9323eed)">
     <use style="stroke:#000000;" x="23.030303" xlink:href="#C0_0_c2021e89a1" y="43.912319"/>
    </g>
    <g clip-path="url(#p52d9323eed)">
     <use style="stroke:#000000;" x="23.030303" xlink:href="#C0_0_c2021e89a1" y="58.842209"/>
    </g>
    <g clip-path="url(#p52d9323eed)">
     <use style="stroke:#000000;" x="23.030303" xlink:href="#C0_0_c2021e89a1" y="73.177427"/>
    </g>
    <g clip-path="url(#p52d9323eed)">
     <use style="stroke:#000000;" x="23.030303" xlink:href="#C0_0_c2021e89a1" y="86.952327"/>
    </g>
    <g clip-path="url(#p52d9323eed)">
     <use style="stroke:#000000;" x="23.030303" xlink:href="#C0_0_c2021e89a1" y="100.199487"/>
    </g>
    <g clip-path="url(#p52d9323eed)">
     <use style="stroke:#000000;" x="23.030303" xlink:href="#C0_0_c2021e89a1" y="112.94986"/>
    </g>
    <g clip-path="url(#p52d9323eed)">
     <use style="stroke:#000000;" x="23.030303" xlink:href="#C0_0_c2021e89a1" y="125.232932"/>
    </g>
    <g clip-path="url(#p52d9323eed)">
     <use style="stroke:#000000;" x="23.030303" xlink:href="#C0_0_c2021e89a1" y="137.076876"/>
    </g>
    <g clip-path="url(#p52d9323eed)">
     <use style="stroke:#000000;" x="23.030303" xlink:href="#C0_0_c2021e89a1" y="148.508717"/>
    </g>
    <g clip-path="url(#p52d9323eed)">
     <use style="stroke:#000000;" x="23.030303" xlink:href="#C0_0_c2021e89a1" y="159.554504"/>
    </g>
    <g clip-path="url(#p52d9323eed)">
     <use style="stroke:#000000;" x="23.030303" xlink:href="#C0_0_c2021e89a1" y="170.239498"/>
    </g>
    <g clip-path="url(#p52d9323eed)">
     <use style="stroke:#000000;" x="23.030303" xlink:href="#C0_0_c2021e89a1" y="180.588404"/>
    </g>
    <g clip-path="url(#p52d9323eed)">
     <use style="stroke:#000000;" x="23.030303" xlink:href="#C0_0_c2021e89a1" y="190.62564"/>
    </g>
    <g clip-path="url(#p52d9323eed)">
     <use style="stroke:#000000;" x="23.030303" xlink:href="#C0_0_c2021e89a1" y="200.375711"/>
    </g>
    <g clip-path="url(#p52d9323eed)">
     <use style="stroke:#000000;" x="23.030303" xlink:href="#C0_0_c2021e89a1" y="209.863727"/>
    </g>
    <g clip-path="url(#p52d9323eed)">
     <use style="stroke:#000000;" x="23.030303" xlink:href="#C0_0_c2021e89a1" y="219.116223"/>
    </g>
    <g clip-path="url(#p52d9323eed)">
     <use style="stroke:#000000;" x="23.030303" xlink:href="#C0_0_c2021e89a1" y="228.162595"/>
    </g>
    <g clip-path="url(#p52d9323eed)">
     <use style="stroke:#000000;" x="23.030303" xlink:href="#C0_0_c2021e89a1" y="237.038064"/>
    </g>
    <g clip-path="url(#p52d9323eed)">
     <use style="stroke:#000000;" x="23.030303" xlink:href="#C0_0_c2021e89a1" y="245.791759"/>
    </g>
   </g>
   <g id="text_42">
    <g clip-path="url(#p52d9323eed)">
     <!-- What -->
     <g transform="translate(9.893584 257.30483)scale(0.1 -0.1)">
      <defs>
       <path d="M 3.328125 72.90625 
L 13.28125 72.90625 
L 28.609375 11.28125 
L 43.890625 72.90625 
L 54.984375 72.90625 
L 70.3125 11.28125 
L 85.59375 72.90625 
L 95.609375 72.90625 
L 77.296875 0 
L 64.890625 0 
L 49.515625 63.28125 
L 33.984375 0 
L 21.578125 0 
z
" id="DejaVuSans-87"/>
       <path d="M 54.890625 33.015625 
L 54.890625 0 
L 45.90625 0 
L 45.90625 32.71875 
Q 45.90625 40.484375 42.875 44.328125 
Q 39.84375 48.1875 33.796875 48.1875 
Q 26.515625 48.1875 22.3125 43.546875 
Q 18.109375 38.921875 18.109375 30.90625 
L 18.109375 0 
L 9.078125 0 
L 9.078125 75.984375 
L 18.109375 75.984375 
L 18.109375 46.1875 
Q 21.34375 51.125 25.703125 53.5625 
Q 30.078125 56 35.796875 56 
Q 45.21875 56 50.046875 50.171875 
Q 54.890625 44.34375 54.890625 33.015625 
z
" id="DejaVuSans-104"/>
       <path d="M 18.3125 70.21875 
L 18.3125 54.6875 
L 36.8125 54.6875 
L 36.8125 47.703125 
L 18.3125 47.703125 
L 18.3125 18.015625 
Q 18.3125 11.328125 20.140625 9.421875 
Q 21.96875 7.515625 27.59375 7.515625 
L 36.8125 7.515625 
L 36.8125 0 
L 27.59375 0 
Q 17.1875 0 13.234375 3.875 
Q 9.28125 7.765625 9.28125 18.015625 
L 9.28125 47.703125 
L 2.6875 47.703125 
L 2.6875 54.6875 
L 9.28125 54.6875 
L 9.28125 70.21875 
z
" id="DejaVuSans-116"/>
      </defs>
      <use xlink:href="#DejaVuSans-87"/>
      <use x="98.876953" xlink:href="#DejaVuSans-104"/>
      <use x="162.255859" xlink:href="#DejaVuSans-97"/>
      <use x="223.535156" xlink:href="#DejaVuSans-116"/>
     </g>
    </g>
   </g>
   <g id="text_43">
    <g clip-path="url(#p52d9323eed)">
     <!-- character -->
     <g transform="translate(50.265785 257.30483)scale(0.1 -0.1)">
      <defs>
       <path d="M 48.78125 52.59375 
L 48.78125 44.1875 
Q 44.96875 46.296875 41.140625 47.34375 
Q 37.3125 48.390625 33.40625 48.390625 
Q 24.65625 48.390625 19.8125 42.84375 
Q 14.984375 37.3125 14.984375 27.296875 
Q 14.984375 17.28125 19.8125 11.734375 
Q 24.65625 6.203125 33.40625 6.203125 
Q 37.3125 6.203125 41.140625 7.25 
Q 44.96875 8.296875 48.78125 10.40625 
L 48.78125 2.09375 
Q 45.015625 0.34375 40.984375 -0.53125 
Q 36.96875 -1.421875 32.421875 -1.421875 
Q 20.0625 -1.421875 12.78125 6.34375 
Q 5.515625 14.109375 5.515625 27.296875 
Q 5.515625 40.671875 12.859375 48.328125 
Q 20.21875 56 33.015625 56 
Q 37.15625 56 41.109375 55.140625 
Q 45.0625 54.296875 48.78125 52.59375 
z
" id="DejaVuSans-99"/>
      </defs>
      <use xlink:href="#DejaVuSans-99"/>
      <use x="54.980469" xlink:href="#DejaVuSans-104"/>
      <use x="118.359375" xlink:href="#DejaVuSans-97"/>
      <use x="179.638672" xlink:href="#DejaVuSans-114"/>
      <use x="220.751953" xlink:href="#DejaVuSans-97"/>
      <use x="282.03125" xlink:href="#DejaVuSans-99"/>
      <use x="337.011719" xlink:href="#DejaVuSans-116"/>
      <use x="376.220703" xlink:href="#DejaVuSans-101"/>
      <use x="437.744141" xlink:href="#DejaVuSans-114"/>
     </g>
    </g>
   </g>
   <g id="text_44">
    <g clip-path="url(#p52d9323eed)">
     <!-- did -->
     <g transform="translate(117.649705 257.30483)scale(0.1 -0.1)">
      <defs>
       <path d="M 45.40625 46.390625 
L 45.40625 75.984375 
L 54.390625 75.984375 
L 54.390625 0 
L 45.40625 0 
L 45.40625 8.203125 
Q 42.578125 3.328125 38.25 0.953125 
Q 33.9375 -1.421875 27.875 -1.421875 
Q 17.96875 -1.421875 11.734375 6.484375 
Q 5.515625 14.40625 5.515625 27.296875 
Q 5.515625 40.1875 11.734375 48.09375 
Q 17.96875 56 27.875 56 
Q 33.9375 56 38.25 53.625 
Q 42.578125 51.265625 45.40625 46.390625 
z
M 14.796875 27.296875 
Q 14.796875 17.390625 18.875 11.75 
Q 22.953125 6.109375 30.078125 6.109375 
Q 37.203125 6.109375 41.296875 11.75 
Q 45.40625 17.390625 45.40625 27.296875 
Q 45.40625 37.203125 41.296875 42.84375 
Q 37.203125 48.484375 30.078125 48.484375 
Q 22.953125 48.484375 18.875 42.84375 
Q 14.796875 37.203125 14.796875 27.296875 
z
" id="DejaVuSans-100"/>
      </defs>
      <use xlink:href="#DejaVuSans-100"/>
      <use x="63.476562" xlink:href="#DejaVuSans-105"/>
      <use x="91.259766" xlink:href="#DejaVuSans-100"/>
     </g>
    </g>
   </g>
   <g id="text_45">
    <g clip-path="url(#p52d9323eed)">
     <!-- Natalie -->
     <g transform="translate(158.882063 257.30483)scale(0.1 -0.1)">
      <defs>
       <path d="M 9.8125 72.90625 
L 23.09375 72.90625 
L 55.421875 11.921875 
L 55.421875 72.90625 
L 64.984375 72.90625 
L 64.984375 0 
L 51.703125 0 
L 19.390625 60.984375 
L 19.390625 0 
L 9.8125 0 
z
" id="DejaVuSans-78"/>
      </defs>
      <use xlink:href="#DejaVuSans-78"/>
      <use x="74.804688" xlink:href="#DejaVuSans-97"/>
      <use x="136.083984" xlink:href="#DejaVuSans-116"/>
      <use x="175.292969" xlink:href="#DejaVuSans-97"/>
      <use x="236.572266" xlink:href="#DejaVuSans-108"/>
      <use x="264.355469" xlink:href="#DejaVuSans-105"/>
      <use x="292.138672" xlink:href="#DejaVuSans-101"/>
     </g>
    </g>
   </g>
   <g id="text_46">
    <g clip-path="url(#p52d9323eed)">
     <!-- Portman -->
     <g transform="translate(206.732389 257.30483)scale(0.1 -0.1)">
      <defs>
       <path d="M 30.609375 48.390625 
Q 23.390625 48.390625 19.1875 42.75 
Q 14.984375 37.109375 14.984375 27.296875 
Q 14.984375 17.484375 19.15625 11.84375 
Q 23.34375 6.203125 30.609375 6.203125 
Q 37.796875 6.203125 41.984375 11.859375 
Q 46.1875 17.53125 46.1875 27.296875 
Q 46.1875 37.015625 41.984375 42.703125 
Q 37.796875 48.390625 30.609375 48.390625 
z
M 30.609375 56 
Q 42.328125 56 49.015625 48.375 
Q 55.71875 40.765625 55.71875 27.296875 
Q 55.71875 13.875 49.015625 6.21875 
Q 42.328125 -1.421875 30.609375 -1.421875 
Q 18.84375 -1.421875 12.171875 6.21875 
Q 5.515625 13.875 5.515625 27.296875 
Q 5.515625 40.765625 12.171875 48.375 
Q 18.84375 56 30.609375 56 
z
" id="DejaVuSans-111"/>
      </defs>
      <use xlink:href="#DejaVuSans-80"/>
      <use x="56.677734" xlink:href="#DejaVuSans-111"/>
      <use x="117.859375" xlink:href="#DejaVuSans-114"/>
      <use x="158.972656" xlink:href="#DejaVuSans-116"/>
      <use x="198.181641" xlink:href="#DejaVuSans-109"/>
      <use x="295.59375" xlink:href="#DejaVuSans-97"/>
      <use x="356.873047" xlink:href="#DejaVuSans-110"/>
     </g>
    </g>
   </g>
   <g id="text_47">
    <g clip-path="url(#p52d9323eed)">
     <!-- play -->
     <g transform="translate(268.33584 257.30483)scale(0.1 -0.1)">
      <defs>
       <path d="M 18.109375 8.203125 
L 18.109375 -20.796875 
L 9.078125 -20.796875 
L 9.078125 54.6875 
L 18.109375 54.6875 
L 18.109375 46.390625 
Q 20.953125 51.265625 25.265625 53.625 
Q 29.59375 56 35.59375 56 
Q 45.5625 56 51.78125 48.09375 
Q 58.015625 40.1875 58.015625 27.296875 
Q 58.015625 14.40625 51.78125 6.484375 
Q 45.5625 -1.421875 35.59375 -1.421875 
Q 29.59375 -1.421875 25.265625 0.953125 
Q 20.953125 3.328125 18.109375 8.203125 
z
M 48.6875 27.296875 
Q 48.6875 37.203125 44.609375 42.84375 
Q 40.53125 48.484375 33.40625 48.484375 
Q 26.265625 48.484375 22.1875 42.84375 
Q 18.109375 37.203125 18.109375 27.296875 
Q 18.109375 17.390625 22.1875 11.75 
Q 26.265625 6.109375 33.40625 6.109375 
Q 40.53125 6.109375 44.609375 11.75 
Q 48.6875 17.390625 48.6875 27.296875 
z
" id="DejaVuSans-112"/>
       <path d="M 32.171875 -5.078125 
Q 28.375 -14.84375 24.75 -17.8125 
Q 21.140625 -20.796875 15.09375 -20.796875 
L 7.90625 -20.796875 
L 7.90625 -13.28125 
L 13.1875 -13.28125 
Q 16.890625 -13.28125 18.9375 -11.515625 
Q 21 -9.765625 23.484375 -3.21875 
L 25.09375 0.875 
L 2.984375 54.6875 
L 12.5 54.6875 
L 29.59375 11.921875 
L 46.6875 54.6875 
L 56.203125 54.6875 
z
" id="DejaVuSans-121"/>
      </defs>
      <use xlink:href="#DejaVuSans-112"/>
      <use x="63.476562" xlink:href="#DejaVuSans-108"/>
      <use x="91.259766" xlink:href="#DejaVuSans-97"/>
      <use x="152.539062" xlink:href="#DejaVuSans-121"/>
     </g>
    </g>
   </g>
   <g id="text_48">
    <g clip-path="url(#p52d9323eed)">
     <!-- in -->
     <g transform="translate(325.543198 257.30483)scale(0.1 -0.1)">
      <use xlink:href="#DejaVuSans-105"/>
      <use x="27.783203" xlink:href="#DejaVuSans-110"/>
     </g>
    </g>
   </g>
   <g id="text_49">
    <g clip-path="url(#p52d9323eed)">
     <!-- star -->
     <g transform="translate(371.595086 257.30483)scale(0.1 -0.1)">
      <defs>
       <path d="M 44.28125 53.078125 
L 44.28125 44.578125 
Q 40.484375 46.53125 36.375 47.5 
Q 32.28125 48.484375 27.875 48.484375 
Q 21.1875 48.484375 17.84375 46.4375 
Q 14.5 44.390625 14.5 40.28125 
Q 14.5 37.15625 16.890625 35.375 
Q 19.28125 33.59375 26.515625 31.984375 
L 29.59375 31.296875 
Q 39.15625 29.25 43.1875 25.515625 
Q 47.21875 21.78125 47.21875 15.09375 
Q 47.21875 7.46875 41.1875 3.015625 
Q 35.15625 -1.421875 24.609375 -1.421875 
Q 20.21875 -1.421875 15.453125 -0.5625 
Q 10.6875 0.296875 5.421875 2 
L 5.421875 11.28125 
Q 10.40625 8.6875 15.234375 7.390625 
Q 20.0625 6.109375 24.8125 6.109375 
Q 31.15625 6.109375 34.5625 8.28125 
Q 37.984375 10.453125 37.984375 14.40625 
Q 37.984375 18.0625 35.515625 20.015625 
Q 33.0625 21.96875 24.703125 23.78125 
L 21.578125 24.515625 
Q 13.234375 26.265625 9.515625 29.90625 
Q 5.8125 33.546875 5.8125 39.890625 
Q 5.8125 47.609375 11.28125 51.796875 
Q 16.75 56 26.8125 56 
Q 31.78125 56 36.171875 55.265625 
Q 40.578125 54.546875 44.28125 53.078125 
z
" id="DejaVuSans-115"/>
      </defs>
      <use xlink:href="#DejaVuSans-115"/>
      <use x="52.099609" xlink:href="#DejaVuSans-116"/>
      <use x="91.308594" xlink:href="#DejaVuSans-97"/>
      <use x="152.587891" xlink:href="#DejaVuSans-114"/>
     </g>
    </g>
   </g>
   <g id="text_50">
    <g clip-path="url(#p52d9323eed)">
     <!-- wars -->
     <g transform="translate(420.644631 257.30483)scale(0.1 -0.1)">
      <defs>
       <path d="M 4.203125 54.6875 
L 13.1875 54.6875 
L 24.421875 12.015625 
L 35.59375 54.6875 
L 46.1875 54.6875 
L 57.421875 12.015625 
L 68.609375 54.6875 
L 77.59375 54.6875 
L 63.28125 0 
L 52.6875 0 
L 40.921875 44.828125 
L 29.109375 0 
L 18.5 0 
z
" id="DejaVuSans-119"/>
      </defs>
      <use xlink:href="#DejaVuSans-119"/>
      <use x="81.787109" xlink:href="#DejaVuSans-97"/>
      <use x="143.066406" xlink:href="#DejaVuSans-114"/>
      <use x="184.179688" xlink:href="#DejaVuSans-115"/>
     </g>
    </g>
   </g>
   <g id="text_51">
    <g clip-path="url(#p52d9323eed)">
     <!-- ? -->
     <g transform="translate(480.982457 257.30483)scale(0.1 -0.1)">
      <defs>
       <path d="M 19.09375 12.40625 
L 29 12.40625 
L 29 0 
L 19.09375 0 
z
M 28.71875 19.578125 
L 19.390625 19.578125 
L 19.390625 27.09375 
Q 19.390625 32.03125 20.75 35.203125 
Q 22.125 38.375 26.515625 42.578125 
L 30.90625 46.921875 
Q 33.6875 49.515625 34.9375 51.8125 
Q 36.1875 54.109375 36.1875 56.5 
Q 36.1875 60.84375 32.984375 63.53125 
Q 29.78125 66.21875 24.515625 66.21875 
Q 20.65625 66.21875 16.28125 64.5 
Q 11.921875 62.796875 7.171875 59.515625 
L 7.171875 68.703125 
Q 11.765625 71.484375 16.46875 72.84375 
Q 21.1875 74.21875 26.21875 74.21875 
Q 35.203125 74.21875 40.640625 69.484375 
Q 46.09375 64.75 46.09375 56.984375 
Q 46.09375 53.265625 44.328125 49.921875 
Q 42.578125 46.578125 38.1875 42.390625 
L 33.890625 38.1875 
Q 31.59375 35.890625 30.640625 34.59375 
Q 29.6875 33.296875 29.296875 32.078125 
Q 29 31.0625 28.859375 29.59375 
Q 28.71875 28.125 28.71875 25.59375 
z
" id="DejaVuSans-63"/>
      </defs>
      <use xlink:href="#DejaVuSans-63"/>
     </g>
    </g>
   </g>
  </g>
 </g>
 <defs>
  <clipPath id="p52d9323eed">
   <rect height="266.666667" width="506.666667" x="0" y="0"/>
  </clipPath>
 </defs>
</svg>
