<?xml version="1.0" encoding="utf-8" standalone="no"?>
<!DOCTYPE svg PUBLIC "-//W3C//DTD SVG 1.1//EN"
  "http://www.w3.org/Graphics/SVG/1.1/DTD/svg11.dtd">
<!-- Created with matplotlib (https://matplotlib.org/) -->
<svg height="320pt" version="1.1" viewBox="0 0 608 320" width="608pt" xmlns="http://www.w3.org/2000/svg" xmlns:xlink="http://www.w3.org/1999/xlink">
 <metadata>
  <rdf:RDF xmlns:cc="http://creativecommons.org/ns#" xmlns:dc="http://purl.org/dc/elements/1.1/" xmlns:rdf="http://www.w3.org/1999/02/22-rdf-syntax-ns#">
   <cc:Work>
    <dc:type rdf:resource="http://purl.org/dc/dcmitype/StillImage"/>
    <dc:date>2021-05-19T11:41:54.040465</dc:date>
    <dc:format>image/svg+xml</dc:format>
    <dc:creator>
     <cc:Agent>
      <dc:title>Matplotlib v3.3.4, https://matplotlib.org/</dc:title>
     </cc:Agent>
    </dc:creator>
   </cc:Work>
  </rdf:RDF>
 </metadata>
 <defs>
  <style type="text/css">*{stroke-linecap:butt;stroke-linejoin:round;}</style>
 </defs>
 <g id="figure_1">
  <g id="patch_1">
   <path d="M 0 320 
L 608 320 
L 608 0 
L 0 0 
z
" style="fill:#ffffff;"/>
  </g>
  <g id="axes_1">
   <g id="LineCollection_1">
    <path clip-path="url(#p9227f3ff6f)" d="M 209.486029 14.545455 
L 77.884298 294.950111 
" style="fill:none;stroke:#000000;"/>
    <path clip-path="url(#p9227f3ff6f)" d="M 209.486029 14.545455 
L 178.380165 284.445677 
" style="fill:none;stroke:#000000;"/>
    <path clip-path="url(#p9227f3ff6f)" d="M 209.486029 14.545455 
L 446.369146 273.795115 
" style="fill:none;stroke:#000000;"/>
    <path clip-path="url(#p9227f3ff6f)" d="M 209.486029 14.545455 
L 329.123967 294.950111 
" style="fill:none;stroke:#000000;"/>
    <path clip-path="url(#p9227f3ff6f)" d="M 209.486029 14.545455 
L 379.371901 294.950111 
" style="fill:none;stroke:#000000;"/>
    <path clip-path="url(#p9227f3ff6f)" d="M 209.486029 14.545455 
L 27.636364 34.021746 
" style="fill:none;stroke:#000000;"/>
    <path clip-path="url(#p9227f3ff6f)" d="M 209.486029 14.545455 
L 27.636364 294.950111 
" style="fill:none;stroke:#000000;stroke-dasharray:3.7,1.6;stroke-dashoffset:0;"/>
    <path clip-path="url(#p9227f3ff6f)" d="M 77.884298 294.950111 
L 77.884298 305.454545 
" style="fill:none;stroke:#000000;"/>
    <path clip-path="url(#p9227f3ff6f)" d="M 178.380165 284.445677 
L 128.132231 294.950111 
" style="fill:none;stroke:#000000;"/>
    <path clip-path="url(#p9227f3ff6f)" d="M 178.380165 284.445677 
L 178.380165 294.950111 
" style="fill:none;stroke:#000000;"/>
    <path clip-path="url(#p9227f3ff6f)" d="M 178.380165 284.445677 
L 228.628099 294.950111 
" style="fill:none;stroke:#000000;"/>
    <path clip-path="url(#p9227f3ff6f)" d="M 446.369146 273.795115 
L 278.876033 294.950111 
" style="fill:none;stroke:#000000;"/>
    <path clip-path="url(#p9227f3ff6f)" d="M 446.369146 273.795115 
L 479.867769 284.445677 
" style="fill:none;stroke:#000000;"/>
    <path clip-path="url(#p9227f3ff6f)" d="M 446.369146 273.795115 
L 580.363636 294.950111 
" style="fill:none;stroke:#000000;"/>
    <path clip-path="url(#p9227f3ff6f)" d="M 329.123967 294.950111 
L 329.123967 305.454545 
" style="fill:none;stroke:#000000;"/>
    <path clip-path="url(#p9227f3ff6f)" d="M 379.371901 294.950111 
L 379.371901 305.454545 
" style="fill:none;stroke:#000000;"/>
    <path clip-path="url(#p9227f3ff6f)" d="M 27.636364 34.021746 
L 27.636364 52.694782 
" style="fill:none;stroke:#000000;"/>
    <path clip-path="url(#p9227f3ff6f)" d="M 128.132231 294.950111 
L 128.132231 305.454545 
" style="fill:none;stroke:#000000;"/>
    <path clip-path="url(#p9227f3ff6f)" d="M 178.380165 294.950111 
L 178.380165 305.454545 
" style="fill:none;stroke:#000000;"/>
    <path clip-path="url(#p9227f3ff6f)" d="M 228.628099 294.950111 
L 228.628099 305.454545 
" style="fill:none;stroke:#000000;"/>
    <path clip-path="url(#p9227f3ff6f)" d="M 278.876033 294.950111 
L 278.876033 305.454545 
" style="fill:none;stroke:#000000;"/>
    <path clip-path="url(#p9227f3ff6f)" d="M 479.867769 284.445677 
L 429.619835 294.950111 
" style="fill:none;stroke:#000000;"/>
    <path clip-path="url(#p9227f3ff6f)" d="M 479.867769 284.445677 
L 479.867769 294.950111 
" style="fill:none;stroke:#000000;"/>
    <path clip-path="url(#p9227f3ff6f)" d="M 479.867769 284.445677 
L 530.115702 294.950111 
" style="fill:none;stroke:#000000;"/>
    <path clip-path="url(#p9227f3ff6f)" d="M 580.363636 294.950111 
L 580.363636 305.454545 
" style="fill:none;stroke:#000000;"/>
    <path clip-path="url(#p9227f3ff6f)" d="M 27.636364 52.694782 
L 27.636364 70.610651 
" style="fill:none;stroke:#000000;"/>
    <path clip-path="url(#p9227f3ff6f)" d="M 429.619835 294.950111 
L 429.619835 305.454545 
" style="fill:none;stroke:#000000;"/>
    <path clip-path="url(#p9227f3ff6f)" d="M 479.867769 294.950111 
L 479.867769 305.454545 
" style="fill:none;stroke:#000000;"/>
    <path clip-path="url(#p9227f3ff6f)" d="M 530.115702 294.950111 
L 530.115702 305.454545 
" style="fill:none;stroke:#000000;"/>
    <path clip-path="url(#p9227f3ff6f)" d="M 27.636364 70.610651 
L 27.636364 87.812912 
" style="fill:none;stroke:#000000;"/>
    <path clip-path="url(#p9227f3ff6f)" d="M 27.636364 87.812912 
L 27.636364 104.342792 
" style="fill:none;stroke:#000000;"/>
    <path clip-path="url(#p9227f3ff6f)" d="M 27.636364 104.342792 
L 27.636364 120.239384 
" style="fill:none;stroke:#000000;"/>
    <path clip-path="url(#p9227f3ff6f)" d="M 27.636364 120.239384 
L 27.636364 135.539832 
" style="fill:none;stroke:#000000;"/>
    <path clip-path="url(#p9227f3ff6f)" d="M 27.636364 135.539832 
L 27.636364 150.279518 
" style="fill:none;stroke:#000000;"/>
    <path clip-path="url(#p9227f3ff6f)" d="M 27.636364 150.279518 
L 27.636364 164.492251 
" style="fill:none;stroke:#000000;"/>
    <path clip-path="url(#p9227f3ff6f)" d="M 27.636364 164.492251 
L 27.636364 178.210461 
" style="fill:none;stroke:#000000;"/>
    <path clip-path="url(#p9227f3ff6f)" d="M 27.636364 178.210461 
L 27.636364 191.465405 
" style="fill:none;stroke:#000000;"/>
    <path clip-path="url(#p9227f3ff6f)" d="M 27.636364 191.465405 
L 27.636364 204.287398 
" style="fill:none;stroke:#000000;"/>
    <path clip-path="url(#p9227f3ff6f)" d="M 27.636364 204.287398 
L 27.636364 216.706085 
" style="fill:none;stroke:#000000;"/>
    <path clip-path="url(#p9227f3ff6f)" d="M 27.636364 216.706085 
L 27.636364 228.750768 
" style="fill:none;stroke:#000000;"/>
    <path clip-path="url(#p9227f3ff6f)" d="M 27.636364 228.750768 
L 27.636364 240.450853 
" style="fill:none;stroke:#000000;"/>
    <path clip-path="url(#p9227f3ff6f)" d="M 27.636364 240.450853 
L 27.636364 251.836472 
" style="fill:none;stroke:#000000;"/>
    <path clip-path="url(#p9227f3ff6f)" d="M 27.636364 251.836472 
L 27.636364 262.939468 
" style="fill:none;stroke:#000000;"/>
    <path clip-path="url(#p9227f3ff6f)" d="M 27.636364 262.939468 
L 27.636364 273.795115 
" style="fill:none;stroke:#000000;"/>
    <path clip-path="url(#p9227f3ff6f)" d="M 27.636364 273.795115 
L 27.636364 284.445677 
" style="fill:none;stroke:#000000;"/>
    <path clip-path="url(#p9227f3ff6f)" d="M 27.636364 284.445677 
L 27.636364 294.950111 
" style="fill:none;stroke:#000000;"/>
    <path clip-path="url(#p9227f3ff6f)" d="M 27.636364 294.950111 
L 27.636364 305.454545 
" style="fill:none;stroke:#000000;"/>
   </g>
   <g id="text_1">
    <g id="patch_2">
     <path clip-path="url(#p9227f3ff6f)" d="M 148.384811 159.494862 
L 150.339711 155.329545 
Q 151.359382 153.156926 149.186763 152.137255 
L 142.177805 148.847756 
Q 140.005186 147.828085 138.985515 150.000704 
L 137.030616 154.166021 
Q 136.010945 156.33864 138.183564 157.35831 
L 145.192522 160.64781 
Q 147.365141 161.667481 148.384811 159.494862 
z
" style="fill:#ffffff;stroke:#ffffff;stroke-linejoin:miter;"/>
    </g>
    <g clip-path="url(#p9227f3ff6f)">
     <!-- F -->
     <g transform="translate(144.70607 157.768326)rotate(-64.858024)scale(0.08 -0.08)">
      <defs>
       <path d="M 9.8125 72.90625 
L 51.703125 72.90625 
L 51.703125 64.59375 
L 19.671875 64.59375 
L 19.671875 43.109375 
L 48.578125 43.109375 
L 48.578125 34.8125 
L 19.671875 34.8125 
L 19.671875 0 
L 9.8125 0 
z
" id="DejaVuSans-70"/>
      </defs>
      <use xlink:href="#DejaVuSans-70"/>
     </g>
    </g>
   </g>
   <g id="text_2">
    <g id="patch_3">
     <path clip-path="url(#p9227f3ff6f)" d="M 199.849831 152.931828 
L 200.476387 147.495314 
Q 200.751166 145.111096 198.366948 144.836316 
L 190.675361 143.949865 
Q 188.291143 143.675085 188.016363 146.059303 
L 187.389808 151.495817 
Q 187.115028 153.880035 189.499246 154.154815 
L 197.190833 155.041267 
Q 199.575051 155.316047 199.849831 152.931828 
z
" style="fill:#ffffff;stroke:#ffffff;stroke-linejoin:miter;"/>
    </g>
    <g clip-path="url(#p9227f3ff6f)">
     <!-- A -->
     <g transform="translate(195.812803 152.466563)rotate(-83.425696)scale(0.08 -0.08)">
      <defs>
       <path d="M 34.1875 63.1875 
L 20.796875 26.90625 
L 47.609375 26.90625 
z
M 28.609375 72.90625 
L 39.796875 72.90625 
L 67.578125 0 
L 57.328125 0 
L 50.6875 18.703125 
L 17.828125 18.703125 
L 11.1875 0 
L 0.78125 0 
z
" id="DejaVuSans-65"/>
      </defs>
      <use xlink:href="#DejaVuSans-65"/>
     </g>
    </g>
   </g>
   <g id="text_3">
    <g id="patch_4">
     <path clip-path="url(#p9227f3ff6f)" d="M 321.585014 146.525864 
L 325.010854 150.275173 
Q 326.62976 152.046936 328.401523 150.428031 
L 334.117304 145.205373 
Q 335.889067 143.586468 334.270162 141.814705 
L 330.844321 138.065396 
Q 329.225415 136.293633 327.453652 137.912538 
L 321.737871 143.135196 
Q 319.966108 144.754101 321.585014 146.525864 
z
" style="fill:#ffffff;stroke:#ffffff;stroke-linejoin:miter;"/>
    </g>
    <g clip-path="url(#p9227f3ff6f)">
     <!-- S -->
     <g transform="translate(324.585014 143.784686)rotate(-312.418753)scale(0.08 -0.08)">
      <defs>
       <path d="M 53.515625 70.515625 
L 53.515625 60.890625 
Q 47.90625 63.578125 42.921875 64.890625 
Q 37.9375 66.21875 33.296875 66.21875 
Q 25.25 66.21875 20.875 63.09375 
Q 16.5 59.96875 16.5 54.203125 
Q 16.5 49.359375 19.40625 46.890625 
Q 22.3125 44.4375 30.421875 42.921875 
L 36.375 41.703125 
Q 47.40625 39.59375 52.65625 34.296875 
Q 57.90625 29 57.90625 20.125 
Q 57.90625 9.515625 50.796875 4.046875 
Q 43.703125 -1.421875 29.984375 -1.421875 
Q 24.8125 -1.421875 18.96875 -0.25 
Q 13.140625 0.921875 6.890625 3.21875 
L 6.890625 13.375 
Q 12.890625 10.015625 18.65625 8.296875 
Q 24.421875 6.59375 29.984375 6.59375 
Q 38.421875 6.59375 43.015625 9.90625 
Q 47.609375 13.234375 47.609375 19.390625 
Q 47.609375 24.75 44.3125 27.78125 
Q 41.015625 30.8125 33.5 32.328125 
L 27.484375 33.5 
Q 16.453125 35.6875 11.515625 40.375 
Q 6.59375 45.0625 6.59375 53.421875 
Q 6.59375 63.09375 13.40625 68.65625 
Q 20.21875 74.21875 32.171875 74.21875 
Q 37.3125 74.21875 42.625 73.28125 
Q 47.953125 72.359375 53.515625 70.515625 
z
" id="DejaVuSans-83"/>
      </defs>
      <use xlink:href="#DejaVuSans-83"/>
     </g>
    </g>
   </g>
   <g id="text_4">
    <g id="patch_5">
     <path clip-path="url(#p9227f3ff6f)" d="M 262.446105 154.652427 
L 264.627553 159.765253 
Q 265.569396 161.972724 267.776868 161.030881 
L 274.898263 157.992454 
Q 277.105734 157.05061 276.163891 154.843139 
L 273.982444 149.730313 
Q 273.0406 147.522841 270.833128 148.464685 
L 263.711733 151.503112 
Q 261.504262 152.444955 262.446105 154.652427 
z
" style="fill:#ffffff;stroke:#ffffff;stroke-linejoin:miter;"/>
    </g>
    <g clip-path="url(#p9227f3ff6f)">
     <!-- R -->
     <g transform="translate(266.183861 153.05767)rotate(-293.106088)scale(0.08 -0.08)">
      <defs>
       <path d="M 44.390625 34.1875 
Q 47.5625 33.109375 50.5625 29.59375 
Q 53.5625 26.078125 56.59375 19.921875 
L 66.609375 0 
L 56 0 
L 46.6875 18.703125 
Q 43.0625 26.03125 39.671875 28.421875 
Q 36.28125 30.8125 30.421875 30.8125 
L 19.671875 30.8125 
L 19.671875 0 
L 9.8125 0 
L 9.8125 72.90625 
L 32.078125 72.90625 
Q 44.578125 72.90625 50.734375 67.671875 
Q 56.890625 62.453125 56.890625 51.90625 
Q 56.890625 45.015625 53.6875 40.46875 
Q 50.484375 35.9375 44.390625 34.1875 
z
M 19.671875 64.796875 
L 19.671875 38.921875 
L 32.078125 38.921875 
Q 39.203125 38.921875 42.84375 42.21875 
Q 46.484375 45.515625 46.484375 51.90625 
Q 46.484375 58.296875 42.84375 61.546875 
Q 39.203125 64.796875 32.078125 64.796875 
z
" id="DejaVuSans-82"/>
      </defs>
      <use xlink:href="#DejaVuSans-82"/>
     </g>
    </g>
   </g>
   <g id="text_5">
    <g id="patch_6">
     <path clip-path="url(#p9227f3ff6f)" d="M 287.617998 155.608507 
L 290.512658 160.386281 
Q 291.756281 162.438939 293.808938 161.195317 
L 300.430897 157.183339 
Q 302.483555 155.939716 301.239932 153.887059 
L 298.345272 149.109284 
Q 297.101649 147.056627 295.048992 148.300249 
L 288.427033 152.312227 
Q 286.374375 153.555849 287.617998 155.608507 
z
" style="fill:#ffffff;stroke:#ffffff;stroke-linejoin:miter;"/>
    </g>
    <g clip-path="url(#p9227f3ff6f)">
     <!-- C -->
     <g transform="translate(291.093617 153.502769)rotate(-301.209982)scale(0.08 -0.08)">
      <defs>
       <path d="M 64.40625 67.28125 
L 64.40625 56.890625 
Q 59.421875 61.53125 53.78125 63.8125 
Q 48.140625 66.109375 41.796875 66.109375 
Q 29.296875 66.109375 22.65625 58.46875 
Q 16.015625 50.828125 16.015625 36.375 
Q 16.015625 21.96875 22.65625 14.328125 
Q 29.296875 6.6875 41.796875 6.6875 
Q 48.140625 6.6875 53.78125 8.984375 
Q 59.421875 11.28125 64.40625 15.921875 
L 64.40625 5.609375 
Q 59.234375 2.09375 53.4375 0.328125 
Q 47.65625 -1.421875 41.21875 -1.421875 
Q 24.65625 -1.421875 15.125 8.703125 
Q 5.609375 18.84375 5.609375 36.375 
Q 5.609375 53.953125 15.125 64.078125 
Q 24.65625 74.21875 41.21875 74.21875 
Q 47.75 74.21875 53.53125 72.484375 
Q 59.328125 70.75 64.40625 67.28125 
z
" id="DejaVuSans-67"/>
      </defs>
      <use xlink:href="#DejaVuSans-67"/>
     </g>
    </g>
   </g>
   <g id="text_6">
    <g id="patch_7">
     <path clip-path="url(#p9227f3ff6f)" d="M 116.830875 30.776035 
L 121.627195 30.262344 
Q 124.013547 30.006763 123.757966 27.62041 
L 122.933452 19.921938 
Q 122.677871 17.535585 120.291518 17.791166 
L 115.495198 18.304857 
Q 113.108846 18.560438 113.364427 20.946791 
L 114.188941 28.645263 
Q 114.444522 31.031616 116.830875 30.776035 
z
" style="fill:#ffffff;stroke:#ffffff;stroke-linejoin:miter;"/>
    </g>
    <g clip-path="url(#p9227f3ff6f)">
     <!-- P -->
     <g transform="translate(116.398118 26.735393)rotate(-6.113136)scale(0.08 -0.08)">
      <defs>
       <path d="M 19.671875 64.796875 
L 19.671875 37.40625 
L 32.078125 37.40625 
Q 38.96875 37.40625 42.71875 40.96875 
Q 46.484375 44.53125 46.484375 51.125 
Q 46.484375 57.671875 42.71875 61.234375 
Q 38.96875 64.796875 32.078125 64.796875 
z
M 9.8125 72.90625 
L 32.078125 72.90625 
Q 44.34375 72.90625 50.609375 67.359375 
Q 56.890625 61.8125 56.890625 51.125 
Q 56.890625 40.328125 50.609375 34.8125 
Q 44.34375 29.296875 32.078125 29.296875 
L 19.671875 29.296875 
L 19.671875 0 
L 9.8125 0 
z
" id="DejaVuSans-80"/>
      </defs>
      <use xlink:href="#DejaVuSans-80"/>
     </g>
    </g>
   </g>
   <g id="text_7">
    <g id="patch_8">
     <path clip-path="url(#p9227f3ff6f)" d="M 122.333983 160.455823 
L 125.311672 155.86435 
Q 126.617556 153.85073 124.603936 152.544845 
L 118.107914 148.332007 
Q 116.094294 147.026123 114.78841 149.039743 
L 111.810721 153.631216 
Q 110.504836 155.644836 112.518456 156.95072 
L 119.014478 161.163558 
Q 121.028098 162.469443 122.333983 160.455823 
z
" style="fill:#ffffff;stroke:#ffffff;stroke-linejoin:miter;"/>
    </g>
    <g clip-path="url(#p9227f3ff6f)">
     <!-- A -->
     <g transform="translate(118.924463 158.244661)rotate(-57.035549)scale(0.08 -0.08)">
      <use xlink:href="#DejaVuSans-65"/>
     </g>
    </g>
   </g>
   <g id="text_8">
    <g id="patch_9">
     <path clip-path="url(#p9227f3ff6f)" d="M 71.613048 283.298578 
L 71.613048 317.106078 
Q 71.613048 319.506078 74.013048 319.506078 
L 81.755548 319.506078 
Q 84.155548 319.506078 84.155548 317.106078 
L 84.155548 283.298578 
Q 84.155548 280.898578 81.755548 280.898578 
L 74.013048 280.898578 
Q 71.613048 280.898578 71.613048 283.298578 
z
" style="fill:#ffffff;stroke:#ffffff;stroke-linejoin:miter;"/>
    </g>
    <g clip-path="url(#p9227f3ff6f)">
     <!-- Terminal -->
     <g transform="translate(75.676798 283.298578)rotate(-270)scale(0.08 -0.08)">
      <defs>
       <path d="M -0.296875 72.90625 
L 61.375 72.90625 
L 61.375 64.59375 
L 35.5 64.59375 
L 35.5 0 
L 25.59375 0 
L 25.59375 64.59375 
L -0.296875 64.59375 
z
" id="DejaVuSans-84"/>
       <path d="M 56.203125 29.59375 
L 56.203125 25.203125 
L 14.890625 25.203125 
Q 15.484375 15.921875 20.484375 11.0625 
Q 25.484375 6.203125 34.421875 6.203125 
Q 39.59375 6.203125 44.453125 7.46875 
Q 49.3125 8.734375 54.109375 11.28125 
L 54.109375 2.78125 
Q 49.265625 0.734375 44.1875 -0.34375 
Q 39.109375 -1.421875 33.890625 -1.421875 
Q 20.796875 -1.421875 13.15625 6.1875 
Q 5.515625 13.8125 5.515625 26.8125 
Q 5.515625 40.234375 12.765625 48.109375 
Q 20.015625 56 32.328125 56 
Q 43.359375 56 49.78125 48.890625 
Q 56.203125 41.796875 56.203125 29.59375 
z
M 47.21875 32.234375 
Q 47.125 39.59375 43.09375 43.984375 
Q 39.0625 48.390625 32.421875 48.390625 
Q 24.90625 48.390625 20.390625 44.140625 
Q 15.875 39.890625 15.1875 32.171875 
z
" id="DejaVuSans-101"/>
       <path d="M 41.109375 46.296875 
Q 39.59375 47.171875 37.8125 47.578125 
Q 36.03125 48 33.890625 48 
Q 26.265625 48 22.1875 43.046875 
Q 18.109375 38.09375 18.109375 28.8125 
L 18.109375 0 
L 9.078125 0 
L 9.078125 54.6875 
L 18.109375 54.6875 
L 18.109375 46.1875 
Q 20.953125 51.171875 25.484375 53.578125 
Q 30.03125 56 36.53125 56 
Q 37.453125 56 38.578125 55.875 
Q 39.703125 55.765625 41.0625 55.515625 
z
" id="DejaVuSans-114"/>
       <path d="M 52 44.1875 
Q 55.375 50.25 60.0625 53.125 
Q 64.75 56 71.09375 56 
Q 79.640625 56 84.28125 50.015625 
Q 88.921875 44.046875 88.921875 33.015625 
L 88.921875 0 
L 79.890625 0 
L 79.890625 32.71875 
Q 79.890625 40.578125 77.09375 44.375 
Q 74.3125 48.1875 68.609375 48.1875 
Q 61.625 48.1875 57.5625 43.546875 
Q 53.515625 38.921875 53.515625 30.90625 
L 53.515625 0 
L 44.484375 0 
L 44.484375 32.71875 
Q 44.484375 40.625 41.703125 44.40625 
Q 38.921875 48.1875 33.109375 48.1875 
Q 26.21875 48.1875 22.15625 43.53125 
Q 18.109375 38.875 18.109375 30.90625 
L 18.109375 0 
L 9.078125 0 
L 9.078125 54.6875 
L 18.109375 54.6875 
L 18.109375 46.1875 
Q 21.1875 51.21875 25.484375 53.609375 
Q 29.78125 56 35.6875 56 
Q 41.65625 56 45.828125 52.96875 
Q 50 49.953125 52 44.1875 
z
" id="DejaVuSans-109"/>
       <path d="M 9.421875 54.6875 
L 18.40625 54.6875 
L 18.40625 0 
L 9.421875 0 
z
M 9.421875 75.984375 
L 18.40625 75.984375 
L 18.40625 64.59375 
L 9.421875 64.59375 
z
" id="DejaVuSans-105"/>
       <path d="M 54.890625 33.015625 
L 54.890625 0 
L 45.90625 0 
L 45.90625 32.71875 
Q 45.90625 40.484375 42.875 44.328125 
Q 39.84375 48.1875 33.796875 48.1875 
Q 26.515625 48.1875 22.3125 43.546875 
Q 18.109375 38.921875 18.109375 30.90625 
L 18.109375 0 
L 9.078125 0 
L 9.078125 54.6875 
L 18.109375 54.6875 
L 18.109375 46.1875 
Q 21.34375 51.125 25.703125 53.5625 
Q 30.078125 56 35.796875 56 
Q 45.21875 56 50.046875 50.171875 
Q 54.890625 44.34375 54.890625 33.015625 
z
" id="DejaVuSans-110"/>
       <path d="M 34.28125 27.484375 
Q 23.390625 27.484375 19.1875 25 
Q 14.984375 22.515625 14.984375 16.5 
Q 14.984375 11.71875 18.140625 8.90625 
Q 21.296875 6.109375 26.703125 6.109375 
Q 34.1875 6.109375 38.703125 11.40625 
Q 43.21875 16.703125 43.21875 25.484375 
L 43.21875 27.484375 
z
M 52.203125 31.203125 
L 52.203125 0 
L 43.21875 0 
L 43.21875 8.296875 
Q 40.140625 3.328125 35.546875 0.953125 
Q 30.953125 -1.421875 24.3125 -1.421875 
Q 15.921875 -1.421875 10.953125 3.296875 
Q 6 8.015625 6 15.921875 
Q 6 25.140625 12.171875 29.828125 
Q 18.359375 34.515625 30.609375 34.515625 
L 43.21875 34.515625 
L 43.21875 35.40625 
Q 43.21875 41.609375 39.140625 45 
Q 35.0625 48.390625 27.6875 48.390625 
Q 23 48.390625 18.546875 47.265625 
Q 14.109375 46.140625 10.015625 43.890625 
L 10.015625 52.203125 
Q 14.9375 54.109375 19.578125 55.046875 
Q 24.21875 56 28.609375 56 
Q 40.484375 56 46.34375 49.84375 
Q 52.203125 43.703125 52.203125 31.203125 
z
" id="DejaVuSans-97"/>
       <path d="M 9.421875 75.984375 
L 18.40625 75.984375 
L 18.40625 0 
L 9.421875 0 
z
" id="DejaVuSans-108"/>
      </defs>
      <use xlink:href="#DejaVuSans-84"/>
      <use x="44.083984" xlink:href="#DejaVuSans-101"/>
      <use x="105.607422" xlink:href="#DejaVuSans-114"/>
      <use x="144.970703" xlink:href="#DejaVuSans-109"/>
      <use x="242.382812" xlink:href="#DejaVuSans-105"/>
      <use x="270.166016" xlink:href="#DejaVuSans-110"/>
      <use x="333.544922" xlink:href="#DejaVuSans-97"/>
      <use x="394.824219" xlink:href="#DejaVuSans-108"/>
     </g>
    </g>
   </g>
   <g id="text_9">
    <g id="patch_10">
     <path clip-path="url(#p9227f3ff6f)" d="M 152.065457 296.353641 
L 157.013492 295.319244 
Q 159.362707 294.828136 158.871599 292.478921 
L 157.287263 284.900254 
Q 156.796155 282.551039 154.446939 283.042147 
L 149.498905 284.076544 
Q 147.149689 284.567652 147.640798 286.916868 
L 149.225134 294.495534 
Q 149.716242 296.844749 152.065457 296.353641 
z
" style="fill:#ffffff;stroke:#ffffff;stroke-linejoin:miter;"/>
    </g>
    <g clip-path="url(#p9227f3ff6f)">
     <!-- E -->
     <g transform="translate(151.233898 292.375881)rotate(-11.80775)scale(0.08 -0.08)">
      <defs>
       <path d="M 9.8125 72.90625 
L 55.90625 72.90625 
L 55.90625 64.59375 
L 19.671875 64.59375 
L 19.671875 43.015625 
L 54.390625 43.015625 
L 54.390625 34.71875 
L 19.671875 34.71875 
L 19.671875 8.296875 
L 56.78125 8.296875 
L 56.78125 0 
L 9.8125 0 
z
" id="DejaVuSans-69"/>
      </defs>
      <use xlink:href="#DejaVuSans-69"/>
     </g>
    </g>
   </g>
   <g id="text_10">
    <g id="patch_11">
     <path clip-path="url(#p9227f3ff6f)" d="M 172.108915 287.170394 
L 172.108915 292.225394 
Q 172.108915 294.625394 174.508915 294.625394 
L 182.251415 294.625394 
Q 184.651415 294.625394 184.651415 292.225394 
L 184.651415 287.170394 
Q 184.651415 284.770394 182.251415 284.770394 
L 174.508915 284.770394 
Q 172.108915 284.770394 172.108915 287.170394 
z
" style="fill:#ffffff;stroke:#ffffff;stroke-linejoin:miter;"/>
    </g>
    <g clip-path="url(#p9227f3ff6f)">
     <!-- E -->
     <g transform="translate(176.172665 287.170394)rotate(-270)scale(0.08 -0.08)">
      <use xlink:href="#DejaVuSans-69"/>
     </g>
    </g>
   </g>
   <g id="text_11">
    <g id="patch_12">
     <path clip-path="url(#p9227f3ff6f)" d="M 199.486834 295.26489 
L 204.954878 296.407996 
Q 207.304093 296.899104 207.795201 294.549889 
L 209.379537 286.971222 
Q 209.870645 284.622007 207.52143 284.130898 
L 202.053387 282.987793 
Q 199.704171 282.496684 199.213063 284.8459 
L 197.628727 292.424566 
Q 197.137619 294.773782 199.486834 295.26489 
z
" style="fill:#ffffff;stroke:#ffffff;stroke-linejoin:miter;"/>
    </g>
    <g clip-path="url(#p9227f3ff6f)">
     <!-- C -->
     <g transform="translate(200.318393 291.28713)rotate(-348.19225)scale(0.08 -0.08)">
      <use xlink:href="#DejaVuSans-67"/>
     </g>
    </g>
   </g>
   <g id="text_12">
    <g id="patch_13">
     <path clip-path="url(#p9227f3ff6f)" d="M 360.637319 290.944433 
L 366.179537 290.244431 
Q 368.56062 289.943691 368.259881 287.562608 
L 367.289683 279.881136 
Q 366.988943 277.500053 364.60786 277.800792 
L 359.065642 278.500795 
Q 356.684559 278.801535 356.985298 281.182617 
L 357.955497 288.86409 
Q 358.256236 291.245173 360.637319 290.944433 
z
" style="fill:#ffffff;stroke:#ffffff;stroke-linejoin:miter;"/>
    </g>
    <g clip-path="url(#p9227f3ff6f)">
     <!-- C -->
     <g transform="translate(360.128098 286.912714)rotate(-7.198551)scale(0.08 -0.08)">
      <use xlink:href="#DejaVuSans-67"/>
     </g>
    </g>
   </g>
   <g id="text_13">
    <g id="patch_14">
     <path clip-path="url(#p9227f3ff6f)" d="M 458.610677 284.267779 
L 463.825927 285.925918 
Q 466.113109 286.653105 466.840296 284.365923 
L 469.186232 276.987381 
Q 469.913419 274.700199 467.626238 273.973012 
L 462.410987 272.314874 
Q 460.123806 271.587687 459.396619 273.874868 
L 457.050683 281.253411 
Q 456.323496 283.540592 458.610677 284.267779 
z
" style="fill:#ffffff;stroke:#ffffff;stroke-linejoin:miter;"/>
    </g>
    <g clip-path="url(#p9227f3ff6f)">
     <!-- A -->
     <g transform="translate(459.841972 280.395057)rotate(-342.362442)scale(0.08 -0.08)">
      <use xlink:href="#DejaVuSans-65"/>
     </g>
    </g>
   </g>
   <g id="text_14">
    <g id="patch_15">
     <path clip-path="url(#p9227f3ff6f)" d="M 509.49672 290.110598 
L 515.280085 291.023674 
Q 517.650722 291.397949 518.024997 289.027312 
L 519.232424 281.37954 
Q 519.606699 279.008903 517.236063 278.634628 
L 511.452697 277.721552 
Q 509.082061 277.347277 508.707785 279.717914 
L 507.500358 287.365686 
Q 507.126083 289.736323 509.49672 290.110598 
z
" style="fill:#ffffff;stroke:#ffffff;stroke-linejoin:miter;"/>
    </g>
    <g clip-path="url(#p9227f3ff6f)">
     <!-- U -->
     <g transform="translate(510.130453 286.096567)rotate(-351.02822)scale(0.08 -0.08)">
      <defs>
       <path d="M 8.6875 72.90625 
L 18.609375 72.90625 
L 18.609375 28.609375 
Q 18.609375 16.890625 22.84375 11.734375 
Q 27.09375 6.59375 36.625 6.59375 
Q 46.09375 6.59375 50.34375 11.734375 
Q 54.59375 16.890625 54.59375 28.609375 
L 54.59375 72.90625 
L 64.5 72.90625 
L 64.5 27.390625 
Q 64.5 13.140625 57.4375 5.859375 
Q 50.390625 -1.421875 36.625 -1.421875 
Q 22.796875 -1.421875 15.734375 5.859375 
Q 8.6875 13.140625 8.6875 27.390625 
z
" id="DejaVuSans-85"/>
      </defs>
      <use xlink:href="#DejaVuSans-85"/>
     </g>
    </g>
   </g>
   <g id="text_15">
    <g id="patch_16">
     <path clip-path="url(#p9227f3ff6f)" d="M 322.852717 283.298578 
L 322.852717 317.106078 
Q 322.852717 319.506078 325.252717 319.506078 
L 332.995217 319.506078 
Q 335.395217 319.506078 335.395217 317.106078 
L 335.395217 283.298578 
Q 335.395217 280.898578 332.995217 280.898578 
L 325.252717 280.898578 
Q 322.852717 280.898578 322.852717 283.298578 
z
" style="fill:#ffffff;stroke:#ffffff;stroke-linejoin:miter;"/>
    </g>
    <g clip-path="url(#p9227f3ff6f)">
     <!-- Terminal -->
     <g transform="translate(326.916467 283.298578)rotate(-270)scale(0.08 -0.08)">
      <use xlink:href="#DejaVuSans-84"/>
      <use x="44.083984" xlink:href="#DejaVuSans-101"/>
      <use x="105.607422" xlink:href="#DejaVuSans-114"/>
      <use x="144.970703" xlink:href="#DejaVuSans-109"/>
      <use x="242.382812" xlink:href="#DejaVuSans-105"/>
      <use x="270.166016" xlink:href="#DejaVuSans-110"/>
      <use x="333.544922" xlink:href="#DejaVuSans-97"/>
      <use x="394.824219" xlink:href="#DejaVuSans-108"/>
     </g>
    </g>
   </g>
   <g id="text_16">
    <g id="patch_17">
     <path clip-path="url(#p9227f3ff6f)" d="M 373.100651 283.298578 
L 373.100651 317.106078 
Q 373.100651 319.506078 375.500651 319.506078 
L 383.243151 319.506078 
Q 385.643151 319.506078 385.643151 317.106078 
L 385.643151 283.298578 
Q 385.643151 280.898578 383.243151 280.898578 
L 375.500651 280.898578 
Q 373.100651 280.898578 373.100651 283.298578 
z
" style="fill:#ffffff;stroke:#ffffff;stroke-linejoin:miter;"/>
    </g>
    <g clip-path="url(#p9227f3ff6f)">
     <!-- Terminal -->
     <g transform="translate(377.164401 283.298578)rotate(-270)scale(0.08 -0.08)">
      <use xlink:href="#DejaVuSans-84"/>
      <use x="44.083984" xlink:href="#DejaVuSans-101"/>
      <use x="105.607422" xlink:href="#DejaVuSans-114"/>
      <use x="144.970703" xlink:href="#DejaVuSans-109"/>
      <use x="242.382812" xlink:href="#DejaVuSans-105"/>
      <use x="270.166016" xlink:href="#DejaVuSans-110"/>
      <use x="333.544922" xlink:href="#DejaVuSans-97"/>
      <use x="394.824219" xlink:href="#DejaVuSans-108"/>
     </g>
    </g>
   </g>
   <g id="text_17">
    <g id="patch_18">
     <path clip-path="url(#p9227f3ff6f)" d="M 21.365114 40.946389 
L 21.365114 45.770139 
Q 21.365114 48.170139 23.765114 48.170139 
L 31.507614 48.170139 
Q 33.907614 48.170139 33.907614 45.770139 
L 33.907614 40.946389 
Q 33.907614 38.546389 31.507614 38.546389 
L 23.765114 38.546389 
Q 21.365114 38.546389 21.365114 40.946389 
z
" style="fill:#ffffff;stroke:#ffffff;stroke-linejoin:miter;"/>
    </g>
    <g clip-path="url(#p9227f3ff6f)">
     <!-- P -->
     <g transform="translate(25.428864 40.946389)rotate(-270)scale(0.08 -0.08)">
      <use xlink:href="#DejaVuSans-80"/>
     </g>
    </g>
   </g>
   <g id="text_18">
    <g id="patch_19">
     <path clip-path="url(#p9227f3ff6f)" d="M 121.860981 283.298578 
L 121.860981 317.106078 
Q 121.860981 319.506078 124.260981 319.506078 
L 132.003481 319.506078 
Q 134.403481 319.506078 134.403481 317.106078 
L 134.403481 283.298578 
Q 134.403481 280.898578 132.003481 280.898578 
L 124.260981 280.898578 
Q 121.860981 280.898578 121.860981 283.298578 
z
" style="fill:#ffffff;stroke:#ffffff;stroke-linejoin:miter;"/>
    </g>
    <g clip-path="url(#p9227f3ff6f)">
     <!-- Terminal -->
     <g transform="translate(125.924731 283.298578)rotate(-270)scale(0.08 -0.08)">
      <use xlink:href="#DejaVuSans-84"/>
      <use x="44.083984" xlink:href="#DejaVuSans-101"/>
      <use x="105.607422" xlink:href="#DejaVuSans-114"/>
      <use x="144.970703" xlink:href="#DejaVuSans-109"/>
      <use x="242.382812" xlink:href="#DejaVuSans-105"/>
      <use x="270.166016" xlink:href="#DejaVuSans-110"/>
      <use x="333.544922" xlink:href="#DejaVuSans-97"/>
      <use x="394.824219" xlink:href="#DejaVuSans-108"/>
     </g>
    </g>
   </g>
   <g id="text_19">
    <g id="patch_20">
     <path clip-path="url(#p9227f3ff6f)" d="M 172.108915 283.298578 
L 172.108915 317.106078 
Q 172.108915 319.506078 174.508915 319.506078 
L 182.251415 319.506078 
Q 184.651415 319.506078 184.651415 317.106078 
L 184.651415 283.298578 
Q 184.651415 280.898578 182.251415 280.898578 
L 174.508915 280.898578 
Q 172.108915 280.898578 172.108915 283.298578 
z
" style="fill:#ffffff;stroke:#ffffff;stroke-linejoin:miter;"/>
    </g>
    <g clip-path="url(#p9227f3ff6f)">
     <!-- Terminal -->
     <g transform="translate(176.172665 283.298578)rotate(-270)scale(0.08 -0.08)">
      <use xlink:href="#DejaVuSans-84"/>
      <use x="44.083984" xlink:href="#DejaVuSans-101"/>
      <use x="105.607422" xlink:href="#DejaVuSans-114"/>
      <use x="144.970703" xlink:href="#DejaVuSans-109"/>
      <use x="242.382812" xlink:href="#DejaVuSans-105"/>
      <use x="270.166016" xlink:href="#DejaVuSans-110"/>
      <use x="333.544922" xlink:href="#DejaVuSans-97"/>
      <use x="394.824219" xlink:href="#DejaVuSans-108"/>
     </g>
    </g>
   </g>
   <g id="text_20">
    <g id="patch_21">
     <path clip-path="url(#p9227f3ff6f)" d="M 222.356849 283.298578 
L 222.356849 317.106078 
Q 222.356849 319.506078 224.756849 319.506078 
L 232.499349 319.506078 
Q 234.899349 319.506078 234.899349 317.106078 
L 234.899349 283.298578 
Q 234.899349 280.898578 232.499349 280.898578 
L 224.756849 280.898578 
Q 222.356849 280.898578 222.356849 283.298578 
z
" style="fill:#ffffff;stroke:#ffffff;stroke-linejoin:miter;"/>
    </g>
    <g clip-path="url(#p9227f3ff6f)">
     <!-- Terminal -->
     <g transform="translate(226.420599 283.298578)rotate(-270)scale(0.08 -0.08)">
      <use xlink:href="#DejaVuSans-84"/>
      <use x="44.083984" xlink:href="#DejaVuSans-101"/>
      <use x="105.607422" xlink:href="#DejaVuSans-114"/>
      <use x="144.970703" xlink:href="#DejaVuSans-109"/>
      <use x="242.382812" xlink:href="#DejaVuSans-105"/>
      <use x="270.166016" xlink:href="#DejaVuSans-110"/>
      <use x="333.544922" xlink:href="#DejaVuSans-97"/>
      <use x="394.824219" xlink:href="#DejaVuSans-108"/>
     </g>
    </g>
   </g>
   <g id="text_21">
    <g id="patch_22">
     <path clip-path="url(#p9227f3ff6f)" d="M 272.604783 283.298578 
L 272.604783 317.106078 
Q 272.604783 319.506078 275.004783 319.506078 
L 282.747283 319.506078 
Q 285.147283 319.506078 285.147283 317.106078 
L 285.147283 283.298578 
Q 285.147283 280.898578 282.747283 280.898578 
L 275.004783 280.898578 
Q 272.604783 280.898578 272.604783 283.298578 
z
" style="fill:#ffffff;stroke:#ffffff;stroke-linejoin:miter;"/>
    </g>
    <g clip-path="url(#p9227f3ff6f)">
     <!-- Terminal -->
     <g transform="translate(276.668533 283.298578)rotate(-270)scale(0.08 -0.08)">
      <use xlink:href="#DejaVuSans-84"/>
      <use x="44.083984" xlink:href="#DejaVuSans-101"/>
      <use x="105.607422" xlink:href="#DejaVuSans-114"/>
      <use x="144.970703" xlink:href="#DejaVuSans-109"/>
      <use x="242.382812" xlink:href="#DejaVuSans-105"/>
      <use x="270.166016" xlink:href="#DejaVuSans-110"/>
      <use x="333.544922" xlink:href="#DejaVuSans-97"/>
      <use x="394.824219" xlink:href="#DejaVuSans-108"/>
     </g>
    </g>
   </g>
   <g id="text_22">
    <g id="patch_23">
     <path clip-path="url(#p9227f3ff6f)" d="M 453.306515 296.405182 
L 458.747641 295.267703 
Q 461.096856 294.776595 460.605748 292.42738 
L 459.021412 284.848713 
Q 458.530303 282.499498 456.181088 282.990606 
L 450.739963 284.128085 
Q 448.390747 284.619193 448.881856 286.968408 
L 450.466192 294.547075 
Q 450.9573 296.89629 453.306515 296.405182 
z
" style="fill:#ffffff;stroke:#ffffff;stroke-linejoin:miter;"/>
    </g>
    <g clip-path="url(#p9227f3ff6f)">
     <!-- R -->
     <g transform="translate(452.474956 292.427422)rotate(-11.80775)scale(0.08 -0.08)">
      <use xlink:href="#DejaVuSans-82"/>
     </g>
    </g>
   </g>
   <g id="text_23">
    <g id="patch_24">
     <path clip-path="url(#p9227f3ff6f)" d="M 473.596519 286.904769 
L 473.596519 292.491019 
Q 473.596519 294.891019 475.996519 294.891019 
L 483.739019 294.891019 
Q 486.139019 294.891019 486.139019 292.491019 
L 486.139019 286.904769 
Q 486.139019 284.504769 483.739019 284.504769 
L 475.996519 284.504769 
Q 473.596519 284.504769 473.596519 286.904769 
z
" style="fill:#ffffff;stroke:#ffffff;stroke-linejoin:miter;"/>
    </g>
    <g clip-path="url(#p9227f3ff6f)">
     <!-- C -->
     <g transform="translate(477.660269 286.904769)rotate(-270)scale(0.08 -0.08)">
      <use xlink:href="#DejaVuSans-67"/>
     </g>
    </g>
   </g>
   <g id="text_24">
    <g id="patch_25">
     <path clip-path="url(#p9227f3ff6f)" d="M 500.974438 295.26489 
L 506.442481 296.407996 
Q 508.791696 296.899104 509.282805 294.549889 
L 510.86714 286.971222 
Q 511.358249 284.622007 509.009033 284.130898 
L 503.54099 282.987793 
Q 501.191775 282.496684 500.700666 284.8459 
L 499.116331 292.424566 
Q 498.625222 294.773782 500.974438 295.26489 
z
" style="fill:#ffffff;stroke:#ffffff;stroke-linejoin:miter;"/>
    </g>
    <g clip-path="url(#p9227f3ff6f)">
     <!-- C -->
     <g transform="translate(501.805997 291.28713)rotate(-348.19225)scale(0.08 -0.08)">
      <use xlink:href="#DejaVuSans-67"/>
     </g>
    </g>
   </g>
   <g id="text_25">
    <g id="patch_26">
     <path clip-path="url(#p9227f3ff6f)" d="M 574.092386 283.298578 
L 574.092386 317.106078 
Q 574.092386 319.506078 576.492386 319.506078 
L 584.234886 319.506078 
Q 586.634886 319.506078 586.634886 317.106078 
L 586.634886 283.298578 
Q 586.634886 280.898578 584.234886 280.898578 
L 576.492386 280.898578 
Q 574.092386 280.898578 574.092386 283.298578 
z
" style="fill:#ffffff;stroke:#ffffff;stroke-linejoin:miter;"/>
    </g>
    <g clip-path="url(#p9227f3ff6f)">
     <!-- Terminal -->
     <g transform="translate(578.156136 283.298578)rotate(-270)scale(0.08 -0.08)">
      <use xlink:href="#DejaVuSans-84"/>
      <use x="44.083984" xlink:href="#DejaVuSans-101"/>
      <use x="105.607422" xlink:href="#DejaVuSans-114"/>
      <use x="144.970703" xlink:href="#DejaVuSans-109"/>
      <use x="242.382812" xlink:href="#DejaVuSans-105"/>
      <use x="270.166016" xlink:href="#DejaVuSans-110"/>
      <use x="333.544922" xlink:href="#DejaVuSans-97"/>
      <use x="394.824219" xlink:href="#DejaVuSans-108"/>
     </g>
    </g>
   </g>
   <g id="text_26">
    <g id="patch_27">
     <path clip-path="url(#p9227f3ff6f)" d="M 21.365114 59.240842 
L 21.365114 64.064592 
Q 21.365114 66.464592 23.765114 66.464592 
L 31.507614 66.464592 
Q 33.907614 66.464592 33.907614 64.064592 
L 33.907614 59.240842 
Q 33.907614 56.840842 31.507614 56.840842 
L 23.765114 56.840842 
Q 21.365114 56.840842 21.365114 59.240842 
z
" style="fill:#ffffff;stroke:#ffffff;stroke-linejoin:miter;"/>
    </g>
    <g clip-path="url(#p9227f3ff6f)">
     <!-- P -->
     <g transform="translate(25.428864 59.240842)rotate(-270)scale(0.08 -0.08)">
      <use xlink:href="#DejaVuSans-80"/>
     </g>
    </g>
   </g>
   <g id="text_27">
    <g id="patch_28">
     <path clip-path="url(#p9227f3ff6f)" d="M 423.348585 283.298578 
L 423.348585 317.106078 
Q 423.348585 319.506078 425.748585 319.506078 
L 433.491085 319.506078 
Q 435.891085 319.506078 435.891085 317.106078 
L 435.891085 283.298578 
Q 435.891085 280.898578 433.491085 280.898578 
L 425.748585 280.898578 
Q 423.348585 280.898578 423.348585 283.298578 
z
" style="fill:#ffffff;stroke:#ffffff;stroke-linejoin:miter;"/>
    </g>
    <g clip-path="url(#p9227f3ff6f)">
     <!-- Terminal -->
     <g transform="translate(427.412335 283.298578)rotate(-270)scale(0.08 -0.08)">
      <use xlink:href="#DejaVuSans-84"/>
      <use x="44.083984" xlink:href="#DejaVuSans-101"/>
      <use x="105.607422" xlink:href="#DejaVuSans-114"/>
      <use x="144.970703" xlink:href="#DejaVuSans-109"/>
      <use x="242.382812" xlink:href="#DejaVuSans-105"/>
      <use x="270.166016" xlink:href="#DejaVuSans-110"/>
      <use x="333.544922" xlink:href="#DejaVuSans-97"/>
      <use x="394.824219" xlink:href="#DejaVuSans-108"/>
     </g>
    </g>
   </g>
   <g id="text_28">
    <g id="patch_29">
     <path clip-path="url(#p9227f3ff6f)" d="M 473.596519 283.298578 
L 473.596519 317.106078 
Q 473.596519 319.506078 475.996519 319.506078 
L 483.739019 319.506078 
Q 486.139019 319.506078 486.139019 317.106078 
L 486.139019 283.298578 
Q 486.139019 280.898578 483.739019 280.898578 
L 475.996519 280.898578 
Q 473.596519 280.898578 473.596519 283.298578 
z
" style="fill:#ffffff;stroke:#ffffff;stroke-linejoin:miter;"/>
    </g>
    <g clip-path="url(#p9227f3ff6f)">
     <!-- Terminal -->
     <g transform="translate(477.660269 283.298578)rotate(-270)scale(0.08 -0.08)">
      <use xlink:href="#DejaVuSans-84"/>
      <use x="44.083984" xlink:href="#DejaVuSans-101"/>
      <use x="105.607422" xlink:href="#DejaVuSans-114"/>
      <use x="144.970703" xlink:href="#DejaVuSans-109"/>
      <use x="242.382812" xlink:href="#DejaVuSans-105"/>
      <use x="270.166016" xlink:href="#DejaVuSans-110"/>
      <use x="333.544922" xlink:href="#DejaVuSans-97"/>
      <use x="394.824219" xlink:href="#DejaVuSans-108"/>
     </g>
    </g>
   </g>
   <g id="text_29">
    <g id="patch_30">
     <path clip-path="url(#p9227f3ff6f)" d="M 523.844452 283.298578 
L 523.844452 317.106078 
Q 523.844452 319.506078 526.244452 319.506078 
L 533.986952 319.506078 
Q 536.386952 319.506078 536.386952 317.106078 
L 536.386952 283.298578 
Q 536.386952 280.898578 533.986952 280.898578 
L 526.244452 280.898578 
Q 523.844452 280.898578 523.844452 283.298578 
z
" style="fill:#ffffff;stroke:#ffffff;stroke-linejoin:miter;"/>
    </g>
    <g clip-path="url(#p9227f3ff6f)">
     <!-- Terminal -->
     <g transform="translate(527.908202 283.298578)rotate(-270)scale(0.08 -0.08)">
      <use xlink:href="#DejaVuSans-84"/>
      <use x="44.083984" xlink:href="#DejaVuSans-101"/>
      <use x="105.607422" xlink:href="#DejaVuSans-114"/>
      <use x="144.970703" xlink:href="#DejaVuSans-109"/>
      <use x="242.382812" xlink:href="#DejaVuSans-105"/>
      <use x="270.166016" xlink:href="#DejaVuSans-110"/>
      <use x="333.544922" xlink:href="#DejaVuSans-97"/>
      <use x="394.824219" xlink:href="#DejaVuSans-108"/>
     </g>
    </g>
   </g>
   <g id="text_30">
    <g id="patch_31">
     <path clip-path="url(#p9227f3ff6f)" d="M 21.365114 76.799907 
L 21.365114 81.623657 
Q 21.365114 84.023657 23.765114 84.023657 
L 31.507614 84.023657 
Q 33.907614 84.023657 33.907614 81.623657 
L 33.907614 76.799907 
Q 33.907614 74.399907 31.507614 74.399907 
L 23.765114 74.399907 
Q 21.365114 74.399907 21.365114 76.799907 
z
" style="fill:#ffffff;stroke:#ffffff;stroke-linejoin:miter;"/>
    </g>
    <g clip-path="url(#p9227f3ff6f)">
     <!-- P -->
     <g transform="translate(25.428864 76.799907)rotate(-270)scale(0.08 -0.08)">
      <use xlink:href="#DejaVuSans-80"/>
     </g>
    </g>
   </g>
   <g id="text_31">
    <g id="patch_32">
     <path clip-path="url(#p9227f3ff6f)" d="M 21.365114 93.665977 
L 21.365114 98.489727 
Q 21.365114 100.889727 23.765114 100.889727 
L 31.507614 100.889727 
Q 33.907614 100.889727 33.907614 98.489727 
L 33.907614 93.665977 
Q 33.907614 91.265977 31.507614 91.265977 
L 23.765114 91.265977 
Q 21.365114 91.265977 21.365114 93.665977 
z
" style="fill:#ffffff;stroke:#ffffff;stroke-linejoin:miter;"/>
    </g>
    <g clip-path="url(#p9227f3ff6f)">
     <!-- P -->
     <g transform="translate(25.428864 93.665977)rotate(-270)scale(0.08 -0.08)">
      <use xlink:href="#DejaVuSans-80"/>
     </g>
    </g>
   </g>
   <g id="text_32">
    <g id="patch_33">
     <path clip-path="url(#p9227f3ff6f)" d="M 21.365114 109.879213 
L 21.365114 114.702963 
Q 21.365114 117.102963 23.765114 117.102963 
L 31.507614 117.102963 
Q 33.907614 117.102963 33.907614 114.702963 
L 33.907614 109.879213 
Q 33.907614 107.479213 31.507614 107.479213 
L 23.765114 107.479213 
Q 21.365114 107.479213 21.365114 109.879213 
z
" style="fill:#ffffff;stroke:#ffffff;stroke-linejoin:miter;"/>
    </g>
    <g clip-path="url(#p9227f3ff6f)">
     <!-- P -->
     <g transform="translate(25.428864 109.879213)rotate(-270)scale(0.08 -0.08)">
      <use xlink:href="#DejaVuSans-80"/>
     </g>
    </g>
   </g>
   <g id="text_33">
    <g id="patch_34">
     <path clip-path="url(#p9227f3ff6f)" d="M 21.365114 125.477733 
L 21.365114 130.301483 
Q 21.365114 132.701483 23.765114 132.701483 
L 31.507614 132.701483 
Q 33.907614 132.701483 33.907614 130.301483 
L 33.907614 125.477733 
Q 33.907614 123.077733 31.507614 123.077733 
L 23.765114 123.077733 
Q 21.365114 123.077733 21.365114 125.477733 
z
" style="fill:#ffffff;stroke:#ffffff;stroke-linejoin:miter;"/>
    </g>
    <g clip-path="url(#p9227f3ff6f)">
     <!-- P -->
     <g transform="translate(25.428864 125.477733)rotate(-270)scale(0.08 -0.08)">
      <use xlink:href="#DejaVuSans-80"/>
     </g>
    </g>
   </g>
   <g id="text_34">
    <g id="patch_35">
     <path clip-path="url(#p9227f3ff6f)" d="M 21.365114 140.4978 
L 21.365114 145.32155 
Q 21.365114 147.72155 23.765114 147.72155 
L 31.507614 147.72155 
Q 33.907614 147.72155 33.907614 145.32155 
L 33.907614 140.4978 
Q 33.907614 138.0978 31.507614 138.0978 
L 23.765114 138.0978 
Q 21.365114 138.0978 21.365114 140.4978 
z
" style="fill:#ffffff;stroke:#ffffff;stroke-linejoin:miter;"/>
    </g>
    <g clip-path="url(#p9227f3ff6f)">
     <!-- P -->
     <g transform="translate(25.428864 140.4978)rotate(-270)scale(0.08 -0.08)">
      <use xlink:href="#DejaVuSans-80"/>
     </g>
    </g>
   </g>
   <g id="text_35">
    <g id="patch_36">
     <path clip-path="url(#p9227f3ff6f)" d="M 21.365114 154.974009 
L 21.365114 159.797759 
Q 21.365114 162.197759 23.765114 162.197759 
L 31.507614 162.197759 
Q 33.907614 162.197759 33.907614 159.797759 
L 33.907614 154.974009 
Q 33.907614 152.574009 31.507614 152.574009 
L 23.765114 152.574009 
Q 21.365114 152.574009 21.365114 154.974009 
z
" style="fill:#ffffff;stroke:#ffffff;stroke-linejoin:miter;"/>
    </g>
    <g clip-path="url(#p9227f3ff6f)">
     <!-- P -->
     <g transform="translate(25.428864 154.974009)rotate(-270)scale(0.08 -0.08)">
      <use xlink:href="#DejaVuSans-80"/>
     </g>
    </g>
   </g>
   <g id="text_36">
    <g id="patch_37">
     <path clip-path="url(#p9227f3ff6f)" d="M 21.365114 168.939481 
L 21.365114 173.763231 
Q 21.365114 176.163231 23.765114 176.163231 
L 31.507614 176.163231 
Q 33.907614 176.163231 33.907614 173.763231 
L 33.907614 168.939481 
Q 33.907614 166.539481 31.507614 166.539481 
L 23.765114 166.539481 
Q 21.365114 166.539481 21.365114 168.939481 
z
" style="fill:#ffffff;stroke:#ffffff;stroke-linejoin:miter;"/>
    </g>
    <g clip-path="url(#p9227f3ff6f)">
     <!-- P -->
     <g transform="translate(25.428864 168.939481)rotate(-270)scale(0.08 -0.08)">
      <use xlink:href="#DejaVuSans-80"/>
     </g>
    </g>
   </g>
   <g id="text_37">
    <g id="patch_38">
     <path clip-path="url(#p9227f3ff6f)" d="M 21.365114 182.426058 
L 21.365114 187.249808 
Q 21.365114 189.649808 23.765114 189.649808 
L 31.507614 189.649808 
Q 33.907614 189.649808 33.907614 187.249808 
L 33.907614 182.426058 
Q 33.907614 180.026058 31.507614 180.026058 
L 23.765114 180.026058 
Q 21.365114 180.026058 21.365114 182.426058 
z
" style="fill:#ffffff;stroke:#ffffff;stroke-linejoin:miter;"/>
    </g>
    <g clip-path="url(#p9227f3ff6f)">
     <!-- P -->
     <g transform="translate(25.428864 182.426058)rotate(-270)scale(0.08 -0.08)">
      <use xlink:href="#DejaVuSans-80"/>
     </g>
    </g>
   </g>
   <g id="text_38">
    <g id="patch_39">
     <path clip-path="url(#p9227f3ff6f)" d="M 21.365114 195.464526 
L 21.365114 200.288276 
Q 21.365114 202.688276 23.765114 202.688276 
L 31.507614 202.688276 
Q 33.907614 202.688276 33.907614 200.288276 
L 33.907614 195.464526 
Q 33.907614 193.064526 31.507614 193.064526 
L 23.765114 193.064526 
Q 21.365114 193.064526 21.365114 195.464526 
z
" style="fill:#ffffff;stroke:#ffffff;stroke-linejoin:miter;"/>
    </g>
    <g clip-path="url(#p9227f3ff6f)">
     <!-- P -->
     <g transform="translate(25.428864 195.464526)rotate(-270)scale(0.08 -0.08)">
      <use xlink:href="#DejaVuSans-80"/>
     </g>
    </g>
   </g>
   <g id="text_39">
    <g id="patch_40">
     <path clip-path="url(#p9227f3ff6f)" d="M 21.365114 208.084866 
L 21.365114 212.908616 
Q 21.365114 215.308616 23.765114 215.308616 
L 31.507614 215.308616 
Q 33.907614 215.308616 33.907614 212.908616 
L 33.907614 208.084866 
Q 33.907614 205.684866 31.507614 205.684866 
L 23.765114 205.684866 
Q 21.365114 205.684866 21.365114 208.084866 
z
" style="fill:#ffffff;stroke:#ffffff;stroke-linejoin:miter;"/>
    </g>
    <g clip-path="url(#p9227f3ff6f)">
     <!-- P -->
     <g transform="translate(25.428864 208.084866)rotate(-270)scale(0.08 -0.08)">
      <use xlink:href="#DejaVuSans-80"/>
     </g>
    </g>
   </g>
   <g id="text_40">
    <g id="patch_41">
     <path clip-path="url(#p9227f3ff6f)" d="M 21.365114 220.316551 
L 21.365114 225.140301 
Q 21.365114 227.540301 23.765114 227.540301 
L 31.507614 227.540301 
Q 33.907614 227.540301 33.907614 225.140301 
L 33.907614 220.316551 
Q 33.907614 217.916551 31.507614 217.916551 
L 23.765114 217.916551 
Q 21.365114 217.916551 21.365114 220.316551 
z
" style="fill:#ffffff;stroke:#ffffff;stroke-linejoin:miter;"/>
    </g>
    <g clip-path="url(#p9227f3ff6f)">
     <!-- P -->
     <g transform="translate(25.428864 220.316551)rotate(-270)scale(0.08 -0.08)">
      <use xlink:href="#DejaVuSans-80"/>
     </g>
    </g>
   </g>
   <g id="text_41">
    <g id="patch_42">
     <path clip-path="url(#p9227f3ff6f)" d="M 21.365114 232.188936 
L 21.365114 237.012686 
Q 21.365114 239.412686 23.765114 239.412686 
L 31.507614 239.412686 
Q 33.907614 239.412686 33.907614 237.012686 
L 33.907614 232.188936 
Q 33.907614 229.788936 31.507614 229.788936 
L 23.765114 229.788936 
Q 21.365114 229.788936 21.365114 232.188936 
z
" style="fill:#ffffff;stroke:#ffffff;stroke-linejoin:miter;"/>
    </g>
    <g clip-path="url(#p9227f3ff6f)">
     <!-- P -->
     <g transform="translate(25.428864 232.188936)rotate(-270)scale(0.08 -0.08)">
      <use xlink:href="#DejaVuSans-80"/>
     </g>
    </g>
   </g>
   <g id="text_42">
    <g id="patch_43">
     <path clip-path="url(#p9227f3ff6f)" d="M 21.365114 243.731788 
L 21.365114 248.555538 
Q 21.365114 250.955538 23.765114 250.955538 
L 31.507614 250.955538 
Q 33.907614 250.955538 33.907614 248.555538 
L 33.907614 243.731788 
Q 33.907614 241.331788 31.507614 241.331788 
L 23.765114 241.331788 
Q 21.365114 241.331788 21.365114 243.731788 
z
" style="fill:#ffffff;stroke:#ffffff;stroke-linejoin:miter;"/>
    </g>
    <g clip-path="url(#p9227f3ff6f)">
     <!-- P -->
     <g transform="translate(25.428864 243.731788)rotate(-270)scale(0.08 -0.08)">
      <use xlink:href="#DejaVuSans-80"/>
     </g>
    </g>
   </g>
   <g id="text_43">
    <g id="patch_44">
     <path clip-path="url(#p9227f3ff6f)" d="M 21.365114 254.976095 
L 21.365114 259.799845 
Q 21.365114 262.199845 23.765114 262.199845 
L 31.507614 262.199845 
Q 33.907614 262.199845 33.907614 259.799845 
L 33.907614 254.976095 
Q 33.907614 252.576095 31.507614 252.576095 
L 23.765114 252.576095 
Q 21.365114 252.576095 21.365114 254.976095 
z
" style="fill:#ffffff;stroke:#ffffff;stroke-linejoin:miter;"/>
    </g>
    <g clip-path="url(#p9227f3ff6f)">
     <!-- P -->
     <g transform="translate(25.428864 254.976095)rotate(-270)scale(0.08 -0.08)">
      <use xlink:href="#DejaVuSans-80"/>
     </g>
    </g>
   </g>
   <g id="text_44">
    <g id="patch_45">
     <path clip-path="url(#p9227f3ff6f)" d="M 21.365114 265.955416 
L 21.365114 270.779166 
Q 21.365114 273.179166 23.765114 273.179166 
L 31.507614 273.179166 
Q 33.907614 273.179166 33.907614 270.779166 
L 33.907614 265.955416 
Q 33.907614 263.555416 31.507614 263.555416 
L 23.765114 263.555416 
Q 21.365114 263.555416 21.365114 265.955416 
z
" style="fill:#ffffff;stroke:#ffffff;stroke-linejoin:miter;"/>
    </g>
    <g clip-path="url(#p9227f3ff6f)">
     <!-- P -->
     <g transform="translate(25.428864 265.955416)rotate(-270)scale(0.08 -0.08)">
      <use xlink:href="#DejaVuSans-80"/>
     </g>
    </g>
   </g>
   <g id="text_45">
    <g id="patch_46">
     <path clip-path="url(#p9227f3ff6f)" d="M 21.365114 276.708521 
L 21.365114 281.532271 
Q 21.365114 283.932271 23.765114 283.932271 
L 31.507614 283.932271 
Q 33.907614 283.932271 33.907614 281.532271 
L 33.907614 276.708521 
Q 33.907614 274.308521 31.507614 274.308521 
L 23.765114 274.308521 
Q 21.365114 274.308521 21.365114 276.708521 
z
" style="fill:#ffffff;stroke:#ffffff;stroke-linejoin:miter;"/>
    </g>
    <g clip-path="url(#p9227f3ff6f)">
     <!-- P -->
     <g transform="translate(25.428864 276.708521)rotate(-270)scale(0.08 -0.08)">
      <use xlink:href="#DejaVuSans-80"/>
     </g>
    </g>
   </g>
   <g id="text_46">
    <g id="patch_47">
     <path clip-path="url(#p9227f3ff6f)" d="M 21.365114 287.286019 
L 21.365114 292.109769 
Q 21.365114 294.509769 23.765114 294.509769 
L 31.507614 294.509769 
Q 33.907614 294.509769 33.907614 292.109769 
L 33.907614 287.286019 
Q 33.907614 284.886019 31.507614 284.886019 
L 23.765114 284.886019 
Q 21.365114 284.886019 21.365114 287.286019 
z
" style="fill:#ffffff;stroke:#ffffff;stroke-linejoin:miter;"/>
    </g>
    <g clip-path="url(#p9227f3ff6f)">
     <!-- P -->
     <g transform="translate(25.428864 287.286019)rotate(-270)scale(0.08 -0.08)">
      <use xlink:href="#DejaVuSans-80"/>
     </g>
    </g>
   </g>
   <g id="text_47">
    <g id="patch_48">
     <path clip-path="url(#p9227f3ff6f)" d="M 21.365114 283.298578 
L 21.365114 317.106078 
Q 21.365114 319.506078 23.765114 319.506078 
L 31.507614 319.506078 
Q 33.907614 319.506078 33.907614 317.106078 
L 33.907614 283.298578 
Q 33.907614 280.898578 31.507614 280.898578 
L 23.765114 280.898578 
Q 21.365114 280.898578 21.365114 283.298578 
z
" style="fill:#ffffff;stroke:#ffffff;stroke-linejoin:miter;"/>
    </g>
    <g clip-path="url(#p9227f3ff6f)">
     <!-- Terminal -->
     <g transform="translate(25.428864 283.298578)rotate(-270)scale(0.08 -0.08)">
      <use xlink:href="#DejaVuSans-84"/>
      <use x="44.083984" xlink:href="#DejaVuSans-101"/>
      <use x="105.607422" xlink:href="#DejaVuSans-114"/>
      <use x="144.970703" xlink:href="#DejaVuSans-109"/>
      <use x="242.382812" xlink:href="#DejaVuSans-105"/>
      <use x="270.166016" xlink:href="#DejaVuSans-110"/>
      <use x="333.544922" xlink:href="#DejaVuSans-97"/>
      <use x="394.824219" xlink:href="#DejaVuSans-108"/>
     </g>
    </g>
   </g>
   <g id="PathCollection_1">
    <defs>
     <path d="M 0 8.660254 
C 2.296726 8.660254 4.499694 7.747755 6.123724 6.123724 
C 7.747755 4.499694 8.660254 2.296726 8.660254 -0 
C 8.660254 -2.296726 7.747755 -4.499694 6.123724 -6.123724 
C 4.499694 -7.747755 2.296726 -8.660254 0 -8.660254 
C -2.296726 -8.660254 -4.499694 -7.747755 -6.123724 -6.123724 
C -7.747755 -4.499694 -8.660254 -2.296726 -8.660254 0 
C -8.660254 2.296726 -7.747755 4.499694 -6.123724 6.123724 
C -4.499694 7.747755 -2.296726 8.660254 0 8.660254 
z
" id="C0_0_e88b80e69d"/>
    </defs>
    <g clip-path="url(#p9227f3ff6f)">
     <use style="fill:#ffffff;stroke:#ffffff;" x="27.636364" xlink:href="#C0_0_e88b80e69d" y="305.454545"/>
    </g>
    <g clip-path="url(#p9227f3ff6f)">
     <use style="fill:#ffffff;stroke:#ffffff;" x="77.884298" xlink:href="#C0_0_e88b80e69d" y="305.454545"/>
    </g>
    <g clip-path="url(#p9227f3ff6f)">
     <use style="fill:#ffffff;stroke:#ffffff;" x="128.132231" xlink:href="#C0_0_e88b80e69d" y="305.454545"/>
    </g>
    <g clip-path="url(#p9227f3ff6f)">
     <use style="fill:#ffffff;stroke:#ffffff;" x="178.380165" xlink:href="#C0_0_e88b80e69d" y="305.454545"/>
    </g>
    <g clip-path="url(#p9227f3ff6f)">
     <use style="fill:#ffffff;stroke:#ffffff;" x="228.628099" xlink:href="#C0_0_e88b80e69d" y="305.454545"/>
    </g>
    <g clip-path="url(#p9227f3ff6f)">
     <use style="fill:#ffffff;stroke:#ffffff;" x="278.876033" xlink:href="#C0_0_e88b80e69d" y="305.454545"/>
    </g>
    <g clip-path="url(#p9227f3ff6f)">
     <use style="fill:#ffffff;stroke:#ffffff;" x="329.123967" xlink:href="#C0_0_e88b80e69d" y="305.454545"/>
    </g>
    <g clip-path="url(#p9227f3ff6f)">
     <use style="fill:#ffffff;stroke:#ffffff;" x="379.371901" xlink:href="#C0_0_e88b80e69d" y="305.454545"/>
    </g>
    <g clip-path="url(#p9227f3ff6f)">
     <use style="fill:#ffffff;stroke:#ffffff;" x="429.619835" xlink:href="#C0_0_e88b80e69d" y="305.454545"/>
    </g>
    <g clip-path="url(#p9227f3ff6f)">
     <use style="fill:#ffffff;stroke:#ffffff;" x="479.867769" xlink:href="#C0_0_e88b80e69d" y="305.454545"/>
    </g>
    <g clip-path="url(#p9227f3ff6f)">
     <use style="fill:#ffffff;stroke:#ffffff;" x="530.115702" xlink:href="#C0_0_e88b80e69d" y="305.454545"/>
    </g>
    <g clip-path="url(#p9227f3ff6f)">
     <use style="fill:#ffffff;stroke:#ffffff;" x="580.363636" xlink:href="#C0_0_e88b80e69d" y="305.454545"/>
    </g>
    <g clip-path="url(#p9227f3ff6f)">
     <use style="stroke:#000000;" x="209.486029" xlink:href="#C0_0_e88b80e69d" y="14.545455"/>
    </g>
    <g clip-path="url(#p9227f3ff6f)">
     <use style="stroke:#000000;" x="77.884298" xlink:href="#C0_0_e88b80e69d" y="294.950111"/>
    </g>
    <g clip-path="url(#p9227f3ff6f)">
     <use style="stroke:#000000;" x="178.380165" xlink:href="#C0_0_e88b80e69d" y="284.445677"/>
    </g>
    <g clip-path="url(#p9227f3ff6f)">
     <use style="stroke:#000000;" x="446.369146" xlink:href="#C0_0_e88b80e69d" y="273.795115"/>
    </g>
    <g clip-path="url(#p9227f3ff6f)">
     <use style="stroke:#000000;" x="329.123967" xlink:href="#C0_0_e88b80e69d" y="294.950111"/>
    </g>
    <g clip-path="url(#p9227f3ff6f)">
     <use style="stroke:#000000;" x="379.371901" xlink:href="#C0_0_e88b80e69d" y="294.950111"/>
    </g>
    <g clip-path="url(#p9227f3ff6f)">
     <use style="stroke:#000000;" x="27.636364" xlink:href="#C0_0_e88b80e69d" y="34.021746"/>
    </g>
    <g clip-path="url(#p9227f3ff6f)">
     <use style="stroke:#000000;" x="128.132231" xlink:href="#C0_0_e88b80e69d" y="294.950111"/>
    </g>
    <g clip-path="url(#p9227f3ff6f)">
     <use style="stroke:#000000;" x="178.380165" xlink:href="#C0_0_e88b80e69d" y="294.950111"/>
    </g>
    <g clip-path="url(#p9227f3ff6f)">
     <use style="stroke:#000000;" x="228.628099" xlink:href="#C0_0_e88b80e69d" y="294.950111"/>
    </g>
    <g clip-path="url(#p9227f3ff6f)">
     <use style="stroke:#000000;" x="278.876033" xlink:href="#C0_0_e88b80e69d" y="294.950111"/>
    </g>
    <g clip-path="url(#p9227f3ff6f)">
     <use style="stroke:#000000;" x="479.867769" xlink:href="#C0_0_e88b80e69d" y="284.445677"/>
    </g>
    <g clip-path="url(#p9227f3ff6f)">
     <use style="stroke:#000000;" x="580.363636" xlink:href="#C0_0_e88b80e69d" y="294.950111"/>
    </g>
    <g clip-path="url(#p9227f3ff6f)">
     <use style="stroke:#000000;" x="27.636364" xlink:href="#C0_0_e88b80e69d" y="52.694782"/>
    </g>
    <g clip-path="url(#p9227f3ff6f)">
     <use style="stroke:#000000;" x="429.619835" xlink:href="#C0_0_e88b80e69d" y="294.950111"/>
    </g>
    <g clip-path="url(#p9227f3ff6f)">
     <use style="stroke:#000000;" x="479.867769" xlink:href="#C0_0_e88b80e69d" y="294.950111"/>
    </g>
    <g clip-path="url(#p9227f3ff6f)">
     <use style="stroke:#000000;" x="530.115702" xlink:href="#C0_0_e88b80e69d" y="294.950111"/>
    </g>
    <g clip-path="url(#p9227f3ff6f)">
     <use style="stroke:#000000;" x="27.636364" xlink:href="#C0_0_e88b80e69d" y="70.610651"/>
    </g>
    <g clip-path="url(#p9227f3ff6f)">
     <use style="stroke:#000000;" x="27.636364" xlink:href="#C0_0_e88b80e69d" y="87.812912"/>
    </g>
    <g clip-path="url(#p9227f3ff6f)">
     <use style="stroke:#000000;" x="27.636364" xlink:href="#C0_0_e88b80e69d" y="104.342792"/>
    </g>
    <g clip-path="url(#p9227f3ff6f)">
     <use style="stroke:#000000;" x="27.636364" xlink:href="#C0_0_e88b80e69d" y="120.239384"/>
    </g>
    <g clip-path="url(#p9227f3ff6f)">
     <use style="stroke:#000000;" x="27.636364" xlink:href="#C0_0_e88b80e69d" y="135.539832"/>
    </g>
    <g clip-path="url(#p9227f3ff6f)">
     <use style="stroke:#000000;" x="27.636364" xlink:href="#C0_0_e88b80e69d" y="150.279518"/>
    </g>
    <g clip-path="url(#p9227f3ff6f)">
     <use style="stroke:#000000;" x="27.636364" xlink:href="#C0_0_e88b80e69d" y="164.492251"/>
    </g>
    <g clip-path="url(#p9227f3ff6f)">
     <use style="stroke:#000000;" x="27.636364" xlink:href="#C0_0_e88b80e69d" y="178.210461"/>
    </g>
    <g clip-path="url(#p9227f3ff6f)">
     <use style="stroke:#000000;" x="27.636364" xlink:href="#C0_0_e88b80e69d" y="191.465405"/>
    </g>
    <g clip-path="url(#p9227f3ff6f)">
     <use style="stroke:#000000;" x="27.636364" xlink:href="#C0_0_e88b80e69d" y="204.287398"/>
    </g>
    <g clip-path="url(#p9227f3ff6f)">
     <use style="stroke:#000000;" x="27.636364" xlink:href="#C0_0_e88b80e69d" y="216.706085"/>
    </g>
    <g clip-path="url(#p9227f3ff6f)">
     <use style="stroke:#000000;" x="27.636364" xlink:href="#C0_0_e88b80e69d" y="228.750768"/>
    </g>
    <g clip-path="url(#p9227f3ff6f)">
     <use style="stroke:#000000;" x="27.636364" xlink:href="#C0_0_e88b80e69d" y="240.450853"/>
    </g>
    <g clip-path="url(#p9227f3ff6f)">
     <use style="stroke:#000000;" x="27.636364" xlink:href="#C0_0_e88b80e69d" y="251.836472"/>
    </g>
    <g clip-path="url(#p9227f3ff6f)">
     <use style="stroke:#000000;" x="27.636364" xlink:href="#C0_0_e88b80e69d" y="262.939468"/>
    </g>
    <g clip-path="url(#p9227f3ff6f)">
     <use style="stroke:#000000;" x="27.636364" xlink:href="#C0_0_e88b80e69d" y="273.795115"/>
    </g>
    <g clip-path="url(#p9227f3ff6f)">
     <use style="stroke:#000000;" x="27.636364" xlink:href="#C0_0_e88b80e69d" y="284.445677"/>
    </g>
    <g clip-path="url(#p9227f3ff6f)">
     <use style="stroke:#000000;" x="27.636364" xlink:href="#C0_0_e88b80e69d" y="294.950111"/>
    </g>
   </g>
   <g id="text_48">
    <g clip-path="url(#p9227f3ff6f)">
     <!-- A -->
     <g transform="translate(24.216051 308.21392)scale(0.1 -0.1)">
      <use xlink:href="#DejaVuSans-65"/>
     </g>
    </g>
   </g>
   <g id="text_49">
    <g clip-path="url(#p9227f3ff6f)">
     <!-- star -->
     <g transform="translate(68.199923 308.21392)scale(0.1 -0.1)">
      <defs>
       <path d="M 44.28125 53.078125 
L 44.28125 44.578125 
Q 40.484375 46.53125 36.375 47.5 
Q 32.28125 48.484375 27.875 48.484375 
Q 21.1875 48.484375 17.84375 46.4375 
Q 14.5 44.390625 14.5 40.28125 
Q 14.5 37.15625 16.890625 35.375 
Q 19.28125 33.59375 26.515625 31.984375 
L 29.59375 31.296875 
Q 39.15625 29.25 43.1875 25.515625 
Q 47.21875 21.78125 47.21875 15.09375 
Q 47.21875 7.46875 41.1875 3.015625 
Q 35.15625 -1.421875 24.609375 -1.421875 
Q 20.21875 -1.421875 15.453125 -0.5625 
Q 10.6875 0.296875 5.421875 2 
L 5.421875 11.28125 
Q 10.40625 8.6875 15.234375 7.390625 
Q 20.0625 6.109375 24.8125 6.109375 
Q 31.15625 6.109375 34.5625 8.28125 
Q 37.984375 10.453125 37.984375 14.40625 
Q 37.984375 18.0625 35.515625 20.015625 
Q 33.0625 21.96875 24.703125 23.78125 
L 21.578125 24.515625 
Q 13.234375 26.265625 9.515625 29.90625 
Q 5.8125 33.546875 5.8125 39.890625 
Q 5.8125 47.609375 11.28125 51.796875 
Q 16.75 56 26.8125 56 
Q 31.78125 56 36.171875 55.265625 
Q 40.578125 54.546875 44.28125 53.078125 
z
" id="DejaVuSans-115"/>
       <path d="M 18.3125 70.21875 
L 18.3125 54.6875 
L 36.8125 54.6875 
L 36.8125 47.703125 
L 18.3125 47.703125 
L 18.3125 18.015625 
Q 18.3125 11.328125 20.140625 9.421875 
Q 21.96875 7.515625 27.59375 7.515625 
L 36.8125 7.515625 
L 36.8125 0 
L 27.59375 0 
Q 17.1875 0 13.234375 3.875 
Q 9.28125 7.765625 9.28125 18.015625 
L 9.28125 47.703125 
L 2.6875 47.703125 
L 2.6875 54.6875 
L 9.28125 54.6875 
L 9.28125 70.21875 
z
" id="DejaVuSans-116"/>
      </defs>
      <use xlink:href="#DejaVuSans-115"/>
      <use x="52.099609" xlink:href="#DejaVuSans-116"/>
      <use x="91.308594" xlink:href="#DejaVuSans-97"/>
      <use x="152.587891" xlink:href="#DejaVuSans-114"/>
     </g>
    </g>
   </g>
   <g id="text_50">
    <g clip-path="url(#p9227f3ff6f)">
     <!-- is -->
     <g transform="translate(124.138481 308.21392)scale(0.1 -0.1)">
      <use xlink:href="#DejaVuSans-105"/>
      <use x="27.783203" xlink:href="#DejaVuSans-115"/>
     </g>
    </g>
   </g>
   <g id="text_51">
    <g clip-path="url(#p9227f3ff6f)">
     <!-- a -->
     <g transform="translate(175.316103 308.21392)scale(0.1 -0.1)">
      <use xlink:href="#DejaVuSans-97"/>
     </g>
    </g>
   </g>
   <g id="text_52">
    <g clip-path="url(#p9227f3ff6f)">
     <!-- source -->
     <g transform="translate(212.026537 308.21392)scale(0.1 -0.1)">
      <defs>
       <path d="M 30.609375 48.390625 
Q 23.390625 48.390625 19.1875 42.75 
Q 14.984375 37.109375 14.984375 27.296875 
Q 14.984375 17.484375 19.15625 11.84375 
Q 23.34375 6.203125 30.609375 6.203125 
Q 37.796875 6.203125 41.984375 11.859375 
Q 46.1875 17.53125 46.1875 27.296875 
Q 46.1875 37.015625 41.984375 42.703125 
Q 37.796875 48.390625 30.609375 48.390625 
z
M 30.609375 56 
Q 42.328125 56 49.015625 48.375 
Q 55.71875 40.765625 55.71875 27.296875 
Q 55.71875 13.875 49.015625 6.21875 
Q 42.328125 -1.421875 30.609375 -1.421875 
Q 18.84375 -1.421875 12.171875 6.21875 
Q 5.515625 13.875 5.515625 27.296875 
Q 5.515625 40.765625 12.171875 48.375 
Q 18.84375 56 30.609375 56 
z
" id="DejaVuSans-111"/>
       <path d="M 8.5 21.578125 
L 8.5 54.6875 
L 17.484375 54.6875 
L 17.484375 21.921875 
Q 17.484375 14.15625 20.5 10.265625 
Q 23.53125 6.390625 29.59375 6.390625 
Q 36.859375 6.390625 41.078125 11.03125 
Q 45.3125 15.671875 45.3125 23.6875 
L 45.3125 54.6875 
L 54.296875 54.6875 
L 54.296875 0 
L 45.3125 0 
L 45.3125 8.40625 
Q 42.046875 3.421875 37.71875 1 
Q 33.40625 -1.421875 27.6875 -1.421875 
Q 18.265625 -1.421875 13.375 4.4375 
Q 8.5 10.296875 8.5 21.578125 
z
M 31.109375 56 
z
" id="DejaVuSans-117"/>
       <path d="M 48.78125 52.59375 
L 48.78125 44.1875 
Q 44.96875 46.296875 41.140625 47.34375 
Q 37.3125 48.390625 33.40625 48.390625 
Q 24.65625 48.390625 19.8125 42.84375 
Q 14.984375 37.3125 14.984375 27.296875 
Q 14.984375 17.28125 19.8125 11.734375 
Q 24.65625 6.203125 33.40625 6.203125 
Q 37.3125 6.203125 41.140625 7.25 
Q 44.96875 8.296875 48.78125 10.40625 
L 48.78125 2.09375 
Q 45.015625 0.34375 40.984375 -0.53125 
Q 36.96875 -1.421875 32.421875 -1.421875 
Q 20.0625 -1.421875 12.78125 6.34375 
Q 5.515625 14.109375 5.515625 27.296875 
Q 5.515625 40.671875 12.859375 48.328125 
Q 20.21875 56 33.015625 56 
Q 37.15625 56 41.109375 55.140625 
Q 45.0625 54.296875 48.78125 52.59375 
z
" id="DejaVuSans-99"/>
      </defs>
      <use xlink:href="#DejaVuSans-115"/>
      <use x="52.099609" xlink:href="#DejaVuSans-111"/>
      <use x="113.28125" xlink:href="#DejaVuSans-117"/>
      <use x="176.660156" xlink:href="#DejaVuSans-114"/>
      <use x="215.523438" xlink:href="#DejaVuSans-99"/>
      <use x="270.503906" xlink:href="#DejaVuSans-101"/>
     </g>
    </g>
   </g>
   <g id="text_53">
    <g clip-path="url(#p9227f3ff6f)">
     <!-- of -->
     <g transform="translate(274.056502 308.21392)scale(0.1 -0.1)">
      <defs>
       <path d="M 37.109375 75.984375 
L 37.109375 68.5 
L 28.515625 68.5 
Q 23.6875 68.5 21.796875 66.546875 
Q 19.921875 64.59375 19.921875 59.515625 
L 19.921875 54.6875 
L 34.71875 54.6875 
L 34.71875 47.703125 
L 19.921875 47.703125 
L 19.921875 0 
L 10.890625 0 
L 10.890625 47.703125 
L 2.296875 47.703125 
L 2.296875 54.6875 
L 10.890625 54.6875 
L 10.890625 58.5 
Q 10.890625 67.625 15.140625 71.796875 
Q 19.390625 75.984375 28.609375 75.984375 
z
" id="DejaVuSans-102"/>
      </defs>
      <use xlink:href="#DejaVuSans-111"/>
      <use x="61.181641" xlink:href="#DejaVuSans-102"/>
     </g>
    </g>
   </g>
   <g id="text_54">
    <g clip-path="url(#p9227f3ff6f)">
     <!-- light -->
     <g transform="translate(318.042717 308.21392)scale(0.1 -0.1)">
      <defs>
       <path d="M 45.40625 27.984375 
Q 45.40625 37.75 41.375 43.109375 
Q 37.359375 48.484375 30.078125 48.484375 
Q 22.859375 48.484375 18.828125 43.109375 
Q 14.796875 37.75 14.796875 27.984375 
Q 14.796875 18.265625 18.828125 12.890625 
Q 22.859375 7.515625 30.078125 7.515625 
Q 37.359375 7.515625 41.375 12.890625 
Q 45.40625 18.265625 45.40625 27.984375 
z
M 54.390625 6.78125 
Q 54.390625 -7.171875 48.1875 -13.984375 
Q 42 -20.796875 29.203125 -20.796875 
Q 24.46875 -20.796875 20.265625 -20.09375 
Q 16.0625 -19.390625 12.109375 -17.921875 
L 12.109375 -9.1875 
Q 16.0625 -11.328125 19.921875 -12.34375 
Q 23.78125 -13.375 27.78125 -13.375 
Q 36.625 -13.375 41.015625 -8.765625 
Q 45.40625 -4.15625 45.40625 5.171875 
L 45.40625 9.625 
Q 42.625 4.78125 38.28125 2.390625 
Q 33.9375 0 27.875 0 
Q 17.828125 0 11.671875 7.65625 
Q 5.515625 15.328125 5.515625 27.984375 
Q 5.515625 40.671875 11.671875 48.328125 
Q 17.828125 56 27.875 56 
Q 33.9375 56 38.28125 53.609375 
Q 42.625 51.21875 45.40625 46.390625 
L 45.40625 54.6875 
L 54.390625 54.6875 
z
" id="DejaVuSans-103"/>
       <path d="M 54.890625 33.015625 
L 54.890625 0 
L 45.90625 0 
L 45.90625 32.71875 
Q 45.90625 40.484375 42.875 44.328125 
Q 39.84375 48.1875 33.796875 48.1875 
Q 26.515625 48.1875 22.3125 43.546875 
Q 18.109375 38.921875 18.109375 30.90625 
L 18.109375 0 
L 9.078125 0 
L 9.078125 75.984375 
L 18.109375 75.984375 
L 18.109375 46.1875 
Q 21.34375 51.125 25.703125 53.5625 
Q 30.078125 56 35.796875 56 
Q 45.21875 56 50.046875 50.171875 
Q 54.890625 44.34375 54.890625 33.015625 
z
" id="DejaVuSans-104"/>
      </defs>
      <use xlink:href="#DejaVuSans-108"/>
      <use x="27.783203" xlink:href="#DejaVuSans-105"/>
      <use x="55.566406" xlink:href="#DejaVuSans-103"/>
      <use x="119.042969" xlink:href="#DejaVuSans-104"/>
      <use x="182.421875" xlink:href="#DejaVuSans-116"/>
     </g>
    </g>
   </g>
   <g id="text_55">
    <g clip-path="url(#p9227f3ff6f)">
     <!-- energy -->
     <g transform="translate(361.948463 308.21392)scale(0.1 -0.1)">
      <defs>
       <path d="M 32.171875 -5.078125 
Q 28.375 -14.84375 24.75 -17.8125 
Q 21.140625 -20.796875 15.09375 -20.796875 
L 7.90625 -20.796875 
L 7.90625 -13.28125 
L 13.1875 -13.28125 
Q 16.890625 -13.28125 18.9375 -11.515625 
Q 21 -9.765625 23.484375 -3.21875 
L 25.09375 0.875 
L 2.984375 54.6875 
L 12.5 54.6875 
L 29.59375 11.921875 
L 46.6875 54.6875 
L 56.203125 54.6875 
z
" id="DejaVuSans-121"/>
      </defs>
      <use xlink:href="#DejaVuSans-101"/>
      <use x="61.523438" xlink:href="#DejaVuSans-110"/>
      <use x="124.902344" xlink:href="#DejaVuSans-101"/>
      <use x="186.425781" xlink:href="#DejaVuSans-114"/>
      <use x="225.789062" xlink:href="#DejaVuSans-103"/>
      <use x="289.265625" xlink:href="#DejaVuSans-121"/>
     </g>
    </g>
   </g>
   <g id="text_56">
    <g clip-path="url(#p9227f3ff6f)">
     <!-- through -->
     <g transform="translate(409.976866 308.21392)scale(0.1 -0.1)">
      <use xlink:href="#DejaVuSans-116"/>
      <use x="39.208984" xlink:href="#DejaVuSans-104"/>
      <use x="102.587891" xlink:href="#DejaVuSans-114"/>
      <use x="141.451172" xlink:href="#DejaVuSans-111"/>
      <use x="202.632812" xlink:href="#DejaVuSans-117"/>
      <use x="266.011719" xlink:href="#DejaVuSans-103"/>
      <use x="329.488281" xlink:href="#DejaVuSans-104"/>
     </g>
    </g>
   </g>
   <g id="text_57">
    <g clip-path="url(#p9227f3ff6f)">
     <!-- nuclear -->
     <g transform="translate(461.195894 308.21392)scale(0.1 -0.1)">
      <use xlink:href="#DejaVuSans-110"/>
      <use x="63.378906" xlink:href="#DejaVuSans-117"/>
      <use x="126.757812" xlink:href="#DejaVuSans-99"/>
      <use x="181.738281" xlink:href="#DejaVuSans-108"/>
      <use x="209.521484" xlink:href="#DejaVuSans-101"/>
      <use x="271.044922" xlink:href="#DejaVuSans-97"/>
      <use x="332.324219" xlink:href="#DejaVuSans-114"/>
     </g>
    </g>
   </g>
   <g id="text_58">
    <g clip-path="url(#p9227f3ff6f)">
     <!-- reactions -->
     <g transform="translate(507.100859 308.21392)scale(0.1 -0.1)">
      <use xlink:href="#DejaVuSans-114"/>
      <use x="38.863281" xlink:href="#DejaVuSans-101"/>
      <use x="100.386719" xlink:href="#DejaVuSans-97"/>
      <use x="161.666016" xlink:href="#DejaVuSans-99"/>
      <use x="216.646484" xlink:href="#DejaVuSans-116"/>
      <use x="255.855469" xlink:href="#DejaVuSans-105"/>
      <use x="283.638672" xlink:href="#DejaVuSans-111"/>
      <use x="344.820312" xlink:href="#DejaVuSans-110"/>
      <use x="408.199219" xlink:href="#DejaVuSans-115"/>
     </g>
    </g>
   </g>
   <g id="text_59">
    <g clip-path="url(#p9227f3ff6f)">
     <!-- . -->
     <g transform="translate(578.774574 308.21392)scale(0.1 -0.1)">
      <defs>
       <path d="M 10.6875 12.40625 
L 21 12.40625 
L 21 0 
L 10.6875 0 
z
" id="DejaVuSans-46"/>
      </defs>
      <use xlink:href="#DejaVuSans-46"/>
     </g>
    </g>
   </g>
  </g>
 </g>
 <defs>
  <clipPath id="p9227f3ff6f">
   <rect height="320" width="608" x="0" y="0"/>
  </clipPath>
 </defs>
</svg>
