<?xml version="1.0" encoding="utf-8" standalone="no"?>
<!DOCTYPE svg PUBLIC "-//W3C//DTD SVG 1.1//EN"
  "http://www.w3.org/Graphics/SVG/1.1/DTD/svg11.dtd">
<!-- Created with matplotlib (https://matplotlib.org/) -->
<svg height="213.333333pt" version="1.1" viewBox="0 0 405.333333 213.333333" width="405.333333pt" xmlns="http://www.w3.org/2000/svg" xmlns:xlink="http://www.w3.org/1999/xlink">
 <metadata>
  <rdf:RDF xmlns:cc="http://creativecommons.org/ns#" xmlns:dc="http://purl.org/dc/elements/1.1/" xmlns:rdf="http://www.w3.org/1999/02/22-rdf-syntax-ns#">
   <cc:Work>
    <dc:type rdf:resource="http://purl.org/dc/dcmitype/StillImage"/>
    <dc:date>2021-05-19T11:42:19.379194</dc:date>
    <dc:format>image/svg+xml</dc:format>
    <dc:creator>
     <cc:Agent>
      <dc:title>Matplotlib v3.3.4, https://matplotlib.org/</dc:title>
     </cc:Agent>
    </dc:creator>
   </cc:Work>
  </rdf:RDF>
 </metadata>
 <defs>
  <style type="text/css">*{stroke-linecap:butt;stroke-linejoin:round;}</style>
 </defs>
 <g id="figure_1">
  <g id="patch_1">
   <path d="M 0 213.333333 
L 405.333333 213.333333 
L 405.333333 0 
L 0 0 
z
" style="fill:#ffffff;"/>
  </g>
  <g id="axes_1">
   <g id="LineCollection_1">
    <path clip-path="url(#pbbfd28d127)" d="M 90.805195 9.69697 
L 71.064935 196.633407 
" style="fill:none;stroke:#000000;"/>
    <path clip-path="url(#pbbfd28d127)" d="M 90.805195 9.69697 
L 255.307359 189.630451 
" style="fill:none;stroke:#000000;"/>
    <path clip-path="url(#pbbfd28d127)" d="M 90.805195 9.69697 
L 18.424242 22.681164 
" style="fill:none;stroke:#000000;"/>
    <path clip-path="url(#pbbfd28d127)" d="M 90.805195 9.69697 
L 18.424242 196.633407 
" style="fill:none;stroke:#000000;stroke-dasharray:3.7,1.6;stroke-dashoffset:0;"/>
    <path clip-path="url(#pbbfd28d127)" d="M 71.064935 196.633407 
L 71.064935 203.636364 
" style="fill:none;stroke:#000000;"/>
    <path clip-path="url(#pbbfd28d127)" d="M 255.307359 189.630451 
L 123.705628 196.633407 
" style="fill:none;stroke:#000000;"/>
    <path clip-path="url(#pbbfd28d127)" d="M 255.307359 189.630451 
L 176.34632 196.633407 
" style="fill:none;stroke:#000000;"/>
    <path clip-path="url(#pbbfd28d127)" d="M 255.307359 189.630451 
L 228.987013 196.633407 
" style="fill:none;stroke:#000000;"/>
    <path clip-path="url(#pbbfd28d127)" d="M 255.307359 189.630451 
L 281.627706 196.633407 
" style="fill:none;stroke:#000000;"/>
    <path clip-path="url(#pbbfd28d127)" d="M 255.307359 189.630451 
L 334.268398 196.633407 
" style="fill:none;stroke:#000000;"/>
    <path clip-path="url(#pbbfd28d127)" d="M 255.307359 189.630451 
L 386.909091 196.633407 
" style="fill:none;stroke:#000000;"/>
    <path clip-path="url(#pbbfd28d127)" d="M 18.424242 22.681164 
L 18.424242 35.129855 
" style="fill:none;stroke:#000000;"/>
    <path clip-path="url(#pbbfd28d127)" d="M 123.705628 196.633407 
L 123.705628 203.636364 
" style="fill:none;stroke:#000000;"/>
    <path clip-path="url(#pbbfd28d127)" d="M 176.34632 196.633407 
L 176.34632 203.636364 
" style="fill:none;stroke:#000000;"/>
    <path clip-path="url(#pbbfd28d127)" d="M 228.987013 196.633407 
L 228.987013 203.636364 
" style="fill:none;stroke:#000000;"/>
    <path clip-path="url(#pbbfd28d127)" d="M 281.627706 196.633407 
L 281.627706 203.636364 
" style="fill:none;stroke:#000000;"/>
    <path clip-path="url(#pbbfd28d127)" d="M 334.268398 196.633407 
L 334.268398 203.636364 
" style="fill:none;stroke:#000000;"/>
    <path clip-path="url(#pbbfd28d127)" d="M 386.909091 196.633407 
L 386.909091 203.636364 
" style="fill:none;stroke:#000000;"/>
    <path clip-path="url(#pbbfd28d127)" d="M 18.424242 35.129855 
L 18.424242 47.073768 
" style="fill:none;stroke:#000000;"/>
    <path clip-path="url(#pbbfd28d127)" d="M 18.424242 47.073768 
L 18.424242 58.541941 
" style="fill:none;stroke:#000000;"/>
    <path clip-path="url(#pbbfd28d127)" d="M 18.424242 58.541941 
L 18.424242 69.561861 
" style="fill:none;stroke:#000000;"/>
    <path clip-path="url(#pbbfd28d127)" d="M 18.424242 69.561861 
L 18.424242 80.159589 
" style="fill:none;stroke:#000000;"/>
    <path clip-path="url(#pbbfd28d127)" d="M 18.424242 80.159589 
L 18.424242 90.359888 
" style="fill:none;stroke:#000000;"/>
    <path clip-path="url(#pbbfd28d127)" d="M 18.424242 90.359888 
L 18.424242 100.186345 
" style="fill:none;stroke:#000000;"/>
    <path clip-path="url(#pbbfd28d127)" d="M 18.424242 100.186345 
L 18.424242 109.661501 
" style="fill:none;stroke:#000000;"/>
    <path clip-path="url(#pbbfd28d127)" d="M 18.424242 109.661501 
L 18.424242 118.806974 
" style="fill:none;stroke:#000000;"/>
    <path clip-path="url(#pbbfd28d127)" d="M 18.424242 118.806974 
L 18.424242 127.643603 
" style="fill:none;stroke:#000000;"/>
    <path clip-path="url(#pbbfd28d127)" d="M 18.424242 127.643603 
L 18.424242 136.191599 
" style="fill:none;stroke:#000000;"/>
    <path clip-path="url(#pbbfd28d127)" d="M 18.424242 136.191599 
L 18.424242 144.470723 
" style="fill:none;stroke:#000000;"/>
    <path clip-path="url(#pbbfd28d127)" d="M 18.424242 144.470723 
L 18.424242 152.500512 
" style="fill:none;stroke:#000000;"/>
    <path clip-path="url(#pbbfd28d127)" d="M 18.424242 152.500512 
L 18.424242 160.300569 
" style="fill:none;stroke:#000000;"/>
    <path clip-path="url(#pbbfd28d127)" d="M 18.424242 160.300569 
L 18.424242 167.890981 
" style="fill:none;stroke:#000000;"/>
    <path clip-path="url(#pbbfd28d127)" d="M 18.424242 167.890981 
L 18.424242 175.292978 
" style="fill:none;stroke:#000000;"/>
    <path clip-path="url(#pbbfd28d127)" d="M 18.424242 175.292978 
L 18.424242 182.530076 
" style="fill:none;stroke:#000000;"/>
    <path clip-path="url(#pbbfd28d127)" d="M 18.424242 182.530076 
L 18.424242 189.630451 
" style="fill:none;stroke:#000000;"/>
    <path clip-path="url(#pbbfd28d127)" d="M 18.424242 189.630451 
L 18.424242 196.633407 
" style="fill:none;stroke:#000000;"/>
    <path clip-path="url(#pbbfd28d127)" d="M 18.424242 196.633407 
L 18.424242 203.636364 
" style="fill:none;stroke:#000000;"/>
   </g>
   <g id="text_1">
    <g id="patch_2">
     <path clip-path="url(#pbbfd28d127)" d="M 86.930039 106.111667 
L 87.413239 101.535859 
Q 87.665275 99.14913 85.278545 98.897094 
L 77.578856 98.084016 
Q 75.192126 97.83198 74.940091 100.21871 
L 74.456891 104.794518 
Q 74.204855 107.181248 76.591585 107.433283 
L 84.291274 108.246361 
Q 86.678003 108.498397 86.930039 106.111667 
z
" style="fill:#ffffff;stroke:#ffffff;stroke-linejoin:miter;"/>
    </g>
    <g clip-path="url(#pbbfd28d127)">
     <!-- F -->
     <g transform="translate(82.888759 105.684913)rotate(-83.971976)scale(0.08 -0.08)">
      <defs>
       <path d="M 9.8125 72.90625 
L 51.703125 72.90625 
L 51.703125 64.59375 
L 19.671875 64.59375 
L 19.671875 43.109375 
L 48.578125 43.109375 
L 48.578125 34.8125 
L 19.671875 34.8125 
L 19.671875 0 
L 9.8125 0 
z
" id="DejaVuSans-70"/>
      </defs>
      <use xlink:href="#DejaVuSans-70"/>
     </g>
    </g>
   </g>
   <g id="text_2">
    <g id="patch_3">
     <path clip-path="url(#pbbfd28d127)" d="M 166.58152 101.87576 
L 170.274091 105.914717 
Q 171.893492 107.686028 173.664803 106.066627 
L 179.379124 100.842372 
Q 181.150435 99.222972 179.531034 97.451661 
L 175.838463 93.412704 
Q 174.219062 91.641393 172.447752 93.260794 
L 166.73343 98.485049 
Q 164.962119 100.104449 166.58152 101.87576 
z
" style="fill:#ffffff;stroke:#ffffff;stroke-linejoin:miter;"/>
    </g>
    <g clip-path="url(#pbbfd28d127)">
     <!-- A -->
     <g transform="translate(169.580755 99.133743)rotate(-312.434765)scale(0.08 -0.08)">
      <defs>
       <path d="M 34.1875 63.1875 
L 20.796875 26.90625 
L 47.609375 26.90625 
z
M 28.609375 72.90625 
L 39.796875 72.90625 
L 67.578125 0 
L 57.328125 0 
L 50.6875 18.703125 
L 17.828125 18.703125 
L 11.1875 0 
L 0.78125 0 
z
" id="DejaVuSans-65"/>
      </defs>
      <use xlink:href="#DejaVuSans-65"/>
     </g>
    </g>
   </g>
   <g id="text_3">
    <g id="patch_4">
     <path clip-path="url(#pbbfd28d127)" d="M 53.348043 22.787646 
L 58.096004 21.935924 
Q 60.458296 21.51216 60.034532 19.149868 
L 58.667451 11.529015 
Q 58.243686 9.166723 55.881394 9.590488 
L 51.133433 10.44221 
Q 48.771141 10.865974 49.194905 13.228266 
L 50.561987 20.849119 
Q 50.985751 23.211411 53.348043 22.787646 
z
" style="fill:#ffffff;stroke:#ffffff;stroke-linejoin:miter;"/>
    </g>
    <g clip-path="url(#pbbfd28d127)">
     <!-- P -->
     <g transform="translate(52.630513 18.787745)rotate(-10.169944)scale(0.08 -0.08)">
      <defs>
       <path d="M 19.671875 64.796875 
L 19.671875 37.40625 
L 32.078125 37.40625 
Q 38.96875 37.40625 42.71875 40.96875 
Q 46.484375 44.53125 46.484375 51.125 
Q 46.484375 57.671875 42.71875 61.234375 
Q 38.96875 64.796875 32.078125 64.796875 
z
M 9.8125 72.90625 
L 32.078125 72.90625 
Q 44.34375 72.90625 50.609375 67.359375 
Q 56.890625 61.8125 56.890625 51.125 
Q 56.890625 40.328125 50.609375 34.8125 
Q 44.34375 29.296875 32.078125 29.296875 
L 19.671875 29.296875 
L 19.671875 0 
L 9.8125 0 
z
" id="DejaVuSans-80"/>
      </defs>
      <use xlink:href="#DejaVuSans-80"/>
     </g>
    </g>
   </g>
   <g id="text_4">
    <g id="patch_5">
     <path clip-path="url(#pbbfd28d127)" d="M 59.474903 107.98123 
L 61.450881 102.87792 
Q 62.317459 100.639831 60.07937 99.773253 
L 52.859202 96.977636 
Q 50.621113 96.111058 49.754535 98.349147 
L 47.778556 103.452457 
Q 46.911978 105.690546 49.150067 106.557124 
L 56.370236 109.352741 
Q 58.608325 110.219319 59.474903 107.98123 
z
" style="fill:#ffffff;stroke:#ffffff;stroke-linejoin:miter;"/>
    </g>
    <g clip-path="url(#pbbfd28d127)">
     <!-- A -->
     <g transform="translate(55.685305 106.513914)rotate(-68.83382)scale(0.08 -0.08)">
      <use xlink:href="#DejaVuSans-65"/>
     </g>
    </g>
   </g>
   <g id="text_5">
    <g id="patch_6">
     <path clip-path="url(#pbbfd28d127)" d="M 64.793685 183.231136 
L 64.793685 217.038636 
Q 64.793685 219.438636 67.193685 219.438636 
L 74.936185 219.438636 
Q 77.336185 219.438636 77.336185 217.038636 
L 77.336185 183.231136 
Q 77.336185 180.831136 74.936185 180.831136 
L 67.193685 180.831136 
Q 64.793685 180.831136 64.793685 183.231136 
z
" style="fill:#ffffff;stroke:#ffffff;stroke-linejoin:miter;"/>
    </g>
    <g clip-path="url(#pbbfd28d127)">
     <!-- Terminal -->
     <g transform="translate(68.857435 183.231136)rotate(-270)scale(0.08 -0.08)">
      <defs>
       <path d="M -0.296875 72.90625 
L 61.375 72.90625 
L 61.375 64.59375 
L 35.5 64.59375 
L 35.5 0 
L 25.59375 0 
L 25.59375 64.59375 
L -0.296875 64.59375 
z
" id="DejaVuSans-84"/>
       <path d="M 56.203125 29.59375 
L 56.203125 25.203125 
L 14.890625 25.203125 
Q 15.484375 15.921875 20.484375 11.0625 
Q 25.484375 6.203125 34.421875 6.203125 
Q 39.59375 6.203125 44.453125 7.46875 
Q 49.3125 8.734375 54.109375 11.28125 
L 54.109375 2.78125 
Q 49.265625 0.734375 44.1875 -0.34375 
Q 39.109375 -1.421875 33.890625 -1.421875 
Q 20.796875 -1.421875 13.15625 6.1875 
Q 5.515625 13.8125 5.515625 26.8125 
Q 5.515625 40.234375 12.765625 48.109375 
Q 20.015625 56 32.328125 56 
Q 43.359375 56 49.78125 48.890625 
Q 56.203125 41.796875 56.203125 29.59375 
z
M 47.21875 32.234375 
Q 47.125 39.59375 43.09375 43.984375 
Q 39.0625 48.390625 32.421875 48.390625 
Q 24.90625 48.390625 20.390625 44.140625 
Q 15.875 39.890625 15.1875 32.171875 
z
" id="DejaVuSans-101"/>
       <path d="M 41.109375 46.296875 
Q 39.59375 47.171875 37.8125 47.578125 
Q 36.03125 48 33.890625 48 
Q 26.265625 48 22.1875 43.046875 
Q 18.109375 38.09375 18.109375 28.8125 
L 18.109375 0 
L 9.078125 0 
L 9.078125 54.6875 
L 18.109375 54.6875 
L 18.109375 46.1875 
Q 20.953125 51.171875 25.484375 53.578125 
Q 30.03125 56 36.53125 56 
Q 37.453125 56 38.578125 55.875 
Q 39.703125 55.765625 41.0625 55.515625 
z
" id="DejaVuSans-114"/>
       <path d="M 52 44.1875 
Q 55.375 50.25 60.0625 53.125 
Q 64.75 56 71.09375 56 
Q 79.640625 56 84.28125 50.015625 
Q 88.921875 44.046875 88.921875 33.015625 
L 88.921875 0 
L 79.890625 0 
L 79.890625 32.71875 
Q 79.890625 40.578125 77.09375 44.375 
Q 74.3125 48.1875 68.609375 48.1875 
Q 61.625 48.1875 57.5625 43.546875 
Q 53.515625 38.921875 53.515625 30.90625 
L 53.515625 0 
L 44.484375 0 
L 44.484375 32.71875 
Q 44.484375 40.625 41.703125 44.40625 
Q 38.921875 48.1875 33.109375 48.1875 
Q 26.21875 48.1875 22.15625 43.53125 
Q 18.109375 38.875 18.109375 30.90625 
L 18.109375 0 
L 9.078125 0 
L 9.078125 54.6875 
L 18.109375 54.6875 
L 18.109375 46.1875 
Q 21.1875 51.21875 25.484375 53.609375 
Q 29.78125 56 35.6875 56 
Q 41.65625 56 45.828125 52.96875 
Q 50 49.953125 52 44.1875 
z
" id="DejaVuSans-109"/>
       <path d="M 9.421875 54.6875 
L 18.40625 54.6875 
L 18.40625 0 
L 9.421875 0 
z
M 9.421875 75.984375 
L 18.40625 75.984375 
L 18.40625 64.59375 
L 9.421875 64.59375 
z
" id="DejaVuSans-105"/>
       <path d="M 54.890625 33.015625 
L 54.890625 0 
L 45.90625 0 
L 45.90625 32.71875 
Q 45.90625 40.484375 42.875 44.328125 
Q 39.84375 48.1875 33.796875 48.1875 
Q 26.515625 48.1875 22.3125 43.546875 
Q 18.109375 38.921875 18.109375 30.90625 
L 18.109375 0 
L 9.078125 0 
L 9.078125 54.6875 
L 18.109375 54.6875 
L 18.109375 46.1875 
Q 21.34375 51.125 25.703125 53.5625 
Q 30.078125 56 35.796875 56 
Q 45.21875 56 50.046875 50.171875 
Q 54.890625 44.34375 54.890625 33.015625 
z
" id="DejaVuSans-110"/>
       <path d="M 34.28125 27.484375 
Q 23.390625 27.484375 19.1875 25 
Q 14.984375 22.515625 14.984375 16.5 
Q 14.984375 11.71875 18.140625 8.90625 
Q 21.296875 6.109375 26.703125 6.109375 
Q 34.1875 6.109375 38.703125 11.40625 
Q 43.21875 16.703125 43.21875 25.484375 
L 43.21875 27.484375 
z
M 52.203125 31.203125 
L 52.203125 0 
L 43.21875 0 
L 43.21875 8.296875 
Q 40.140625 3.328125 35.546875 0.953125 
Q 30.953125 -1.421875 24.3125 -1.421875 
Q 15.921875 -1.421875 10.953125 3.296875 
Q 6 8.015625 6 15.921875 
Q 6 25.140625 12.171875 29.828125 
Q 18.359375 34.515625 30.609375 34.515625 
L 43.21875 34.515625 
L 43.21875 35.40625 
Q 43.21875 41.609375 39.140625 45 
Q 35.0625 48.390625 27.6875 48.390625 
Q 23 48.390625 18.546875 47.265625 
Q 14.109375 46.140625 10.015625 43.890625 
L 10.015625 52.203125 
Q 14.9375 54.109375 19.578125 55.046875 
Q 24.21875 56 28.609375 56 
Q 40.484375 56 46.34375 49.84375 
Q 52.203125 43.703125 52.203125 31.203125 
z
" id="DejaVuSans-97"/>
       <path d="M 9.421875 75.984375 
L 18.40625 75.984375 
L 18.40625 0 
L 9.421875 0 
z
" id="DejaVuSans-108"/>
      </defs>
      <use xlink:href="#DejaVuSans-84"/>
      <use x="44.083984" xlink:href="#DejaVuSans-101"/>
      <use x="105.607422" xlink:href="#DejaVuSans-114"/>
      <use x="144.970703" xlink:href="#DejaVuSans-109"/>
      <use x="242.382812" xlink:href="#DejaVuSans-105"/>
      <use x="270.166016" xlink:href="#DejaVuSans-110"/>
      <use x="333.544922" xlink:href="#DejaVuSans-97"/>
      <use x="394.824219" xlink:href="#DejaVuSans-108"/>
     </g>
    </g>
   </g>
   <g id="text_6">
    <g id="patch_7">
     <path clip-path="url(#pbbfd28d127)" d="M 187.315807 199.528626 
L 192.363665 199.260013 
Q 194.760274 199.132481 194.632743 196.735872 
L 194.221321 189.004311 
Q 194.09379 186.607702 191.69718 186.735233 
L 186.649322 187.003846 
Q 184.252713 187.131377 184.380244 189.527987 
L 184.791666 197.259548 
Q 184.919197 199.656157 187.315807 199.528626 
z
" style="fill:#ffffff;stroke:#ffffff;stroke-linejoin:miter;"/>
    </g>
    <g clip-path="url(#pbbfd28d127)">
     <!-- E -->
     <g transform="translate(187.099867 195.470617)rotate(-3.046022)scale(0.08 -0.08)">
      <defs>
       <path d="M 9.8125 72.90625 
L 55.90625 72.90625 
L 55.90625 64.59375 
L 19.671875 64.59375 
L 19.671875 43.015625 
L 54.390625 43.015625 
L 54.390625 34.71875 
L 19.671875 34.71875 
L 19.671875 8.296875 
L 56.78125 8.296875 
L 56.78125 0 
L 9.8125 0 
z
" id="DejaVuSans-69"/>
      </defs>
      <use xlink:href="#DejaVuSans-69"/>
     </g>
    </g>
   </g>
   <g id="text_7">
    <g id="patch_8">
     <path clip-path="url(#pbbfd28d127)" d="M 213.863237 199.601945 
L 218.898473 199.155376 
Q 221.289089 198.943355 221.077068 196.552738 
L 220.39308 188.84051 
Q 220.18106 186.449894 217.790443 186.661914 
L 212.755207 187.108483 
Q 210.364591 187.320504 210.576611 189.71112 
L 211.260599 197.423349 
Q 211.47262 199.813965 213.863237 199.601945 
z
" style="fill:#ffffff;stroke:#ffffff;stroke-linejoin:miter;"/>
    </g>
    <g clip-path="url(#pbbfd28d127)">
     <!-- E -->
     <g transform="translate(213.504237 195.554083)rotate(-5.068231)scale(0.08 -0.08)">
      <use xlink:href="#DejaVuSans-69"/>
     </g>
    </g>
   </g>
   <g id="text_8">
    <g id="patch_9">
     <path clip-path="url(#pbbfd28d127)" d="M 241.060438 199.910506 
L 246.458874 198.474164 
Q 248.778184 197.857074 248.161094 195.537764 
L 246.170335 188.055573 
Q 245.553245 185.736263 243.233935 186.353353 
L 237.835499 187.789694 
Q 235.516188 188.406785 236.133279 190.726095 
L 238.124037 198.208286 
Q 238.741127 200.527596 241.060438 199.910506 
z
" style="fill:#ffffff;stroke:#ffffff;stroke-linejoin:miter;"/>
    </g>
    <g clip-path="url(#pbbfd28d127)">
     <!-- C -->
     <g transform="translate(240.015563 195.983382)rotate(-14.899296)scale(0.08 -0.08)">
      <defs>
       <path d="M 64.40625 67.28125 
L 64.40625 56.890625 
Q 59.421875 61.53125 53.78125 63.8125 
Q 48.140625 66.109375 41.796875 66.109375 
Q 29.296875 66.109375 22.65625 58.46875 
Q 16.015625 50.828125 16.015625 36.375 
Q 16.015625 21.96875 22.65625 14.328125 
Q 29.296875 6.6875 41.796875 6.6875 
Q 48.140625 6.6875 53.78125 8.984375 
Q 59.421875 11.28125 64.40625 15.921875 
L 64.40625 5.609375 
Q 59.234375 2.09375 53.4375 0.328125 
Q 47.65625 -1.421875 41.21875 -1.421875 
Q 24.65625 -1.421875 15.125 8.703125 
Q 5.609375 18.84375 5.609375 36.375 
Q 5.609375 53.953125 15.125 64.078125 
Q 24.65625 74.21875 41.21875 74.21875 
Q 47.75 74.21875 53.53125 72.484375 
Q 59.328125 70.75 64.40625 67.28125 
z
" id="DejaVuSans-67"/>
      </defs>
      <use xlink:href="#DejaVuSans-67"/>
     </g>
    </g>
   </g>
   <g id="text_9">
    <g id="patch_10">
     <path clip-path="url(#pbbfd28d127)" d="M 264.155845 198.474164 
L 269.554281 199.910506 
Q 271.873591 200.527596 272.490681 198.208286 
L 274.48144 190.726095 
Q 275.09853 188.406785 272.77922 187.789694 
L 267.380784 186.353353 
Q 265.061474 185.736263 264.444384 188.055573 
L 262.453625 195.537764 
Q 261.836535 197.857074 264.155845 198.474164 
z
" style="fill:#ffffff;stroke:#ffffff;stroke-linejoin:miter;"/>
    </g>
    <g clip-path="url(#pbbfd28d127)">
     <!-- C -->
     <g transform="translate(265.20072 194.547041)rotate(-345.100704)scale(0.08 -0.08)">
      <use xlink:href="#DejaVuSans-67"/>
     </g>
    </g>
   </g>
   <g id="text_10">
    <g id="patch_11">
     <path clip-path="url(#pbbfd28d127)" d="M 291.716246 199.155376 
L 296.751482 199.601945 
Q 299.142099 199.813965 299.354119 197.423349 
L 300.038107 189.71112 
Q 300.250128 187.320504 297.859512 187.108483 
L 292.824276 186.661914 
Q 290.433659 186.449894 290.221638 188.84051 
L 289.53765 196.552738 
Q 289.32563 198.943355 291.716246 199.155376 
z
" style="fill:#ffffff;stroke:#ffffff;stroke-linejoin:miter;"/>
    </g>
    <g clip-path="url(#pbbfd28d127)">
     <!-- E -->
     <g transform="translate(292.075246 195.107514)rotate(-354.931769)scale(0.08 -0.08)">
      <use xlink:href="#DejaVuSans-69"/>
     </g>
    </g>
   </g>
   <g id="text_11">
    <g id="patch_12">
     <path clip-path="url(#pbbfd28d127)" d="M 317.851619 199.238758 
L 323.698347 199.549881 
Q 326.094956 199.677412 326.222488 197.280803 
L 326.633909 189.549242 
Q 326.76144 187.152633 324.364831 187.025101 
L 318.518103 186.713978 
Q 316.121494 186.586447 315.993963 188.983056 
L 315.582541 196.714617 
Q 315.45501 199.111226 317.851619 199.238758 
z
" style="fill:#ffffff;stroke:#ffffff;stroke-linejoin:miter;"/>
    </g>
    <g clip-path="url(#pbbfd28d127)">
     <!-- U -->
     <g transform="translate(318.067559 195.180749)rotate(-356.953978)scale(0.08 -0.08)">
      <defs>
       <path d="M 8.6875 72.90625 
L 18.609375 72.90625 
L 18.609375 28.609375 
Q 18.609375 16.890625 22.84375 11.734375 
Q 27.09375 6.59375 36.625 6.59375 
Q 46.09375 6.59375 50.34375 11.734375 
Q 54.59375 16.890625 54.59375 28.609375 
L 54.59375 72.90625 
L 64.5 72.90625 
L 64.5 27.390625 
Q 64.5 13.140625 57.4375 5.859375 
Q 50.390625 -1.421875 36.625 -1.421875 
Q 22.796875 -1.421875 15.734375 5.859375 
Q 8.6875 13.140625 8.6875 27.390625 
z
" id="DejaVuSans-85"/>
      </defs>
      <use xlink:href="#DejaVuSans-85"/>
     </g>
    </g>
   </g>
   <g id="text_12">
    <g id="patch_13">
     <path clip-path="url(#pbbfd28d127)" d="M 12.152992 26.493635 
L 12.152992 31.317385 
Q 12.152992 33.717385 14.552992 33.717385 
L 22.295492 33.717385 
Q 24.695492 33.717385 24.695492 31.317385 
L 24.695492 26.493635 
Q 24.695492 24.093635 22.295492 24.093635 
L 14.552992 24.093635 
Q 12.152992 24.093635 12.152992 26.493635 
z
" style="fill:#ffffff;stroke:#ffffff;stroke-linejoin:miter;"/>
    </g>
    <g clip-path="url(#pbbfd28d127)">
     <!-- P -->
     <g transform="translate(16.216742 26.493635)rotate(-270)scale(0.08 -0.08)">
      <use xlink:href="#DejaVuSans-80"/>
     </g>
    </g>
   </g>
   <g id="text_13">
    <g id="patch_14">
     <path clip-path="url(#pbbfd28d127)" d="M 117.434378 183.231136 
L 117.434378 217.038636 
Q 117.434378 219.438636 119.834378 219.438636 
L 127.576878 219.438636 
Q 129.976878 219.438636 129.976878 217.038636 
L 129.976878 183.231136 
Q 129.976878 180.831136 127.576878 180.831136 
L 119.834378 180.831136 
Q 117.434378 180.831136 117.434378 183.231136 
z
" style="fill:#ffffff;stroke:#ffffff;stroke-linejoin:miter;"/>
    </g>
    <g clip-path="url(#pbbfd28d127)">
     <!-- Terminal -->
     <g transform="translate(121.498128 183.231136)rotate(-270)scale(0.08 -0.08)">
      <use xlink:href="#DejaVuSans-84"/>
      <use x="44.083984" xlink:href="#DejaVuSans-101"/>
      <use x="105.607422" xlink:href="#DejaVuSans-114"/>
      <use x="144.970703" xlink:href="#DejaVuSans-109"/>
      <use x="242.382812" xlink:href="#DejaVuSans-105"/>
      <use x="270.166016" xlink:href="#DejaVuSans-110"/>
      <use x="333.544922" xlink:href="#DejaVuSans-97"/>
      <use x="394.824219" xlink:href="#DejaVuSans-108"/>
     </g>
    </g>
   </g>
   <g id="text_14">
    <g id="patch_15">
     <path clip-path="url(#pbbfd28d127)" d="M 170.07507 183.231136 
L 170.07507 217.038636 
Q 170.07507 219.438636 172.47507 219.438636 
L 180.21757 219.438636 
Q 182.61757 219.438636 182.61757 217.038636 
L 182.61757 183.231136 
Q 182.61757 180.831136 180.21757 180.831136 
L 172.47507 180.831136 
Q 170.07507 180.831136 170.07507 183.231136 
z
" style="fill:#ffffff;stroke:#ffffff;stroke-linejoin:miter;"/>
    </g>
    <g clip-path="url(#pbbfd28d127)">
     <!-- Terminal -->
     <g transform="translate(174.13882 183.231136)rotate(-270)scale(0.08 -0.08)">
      <use xlink:href="#DejaVuSans-84"/>
      <use x="44.083984" xlink:href="#DejaVuSans-101"/>
      <use x="105.607422" xlink:href="#DejaVuSans-114"/>
      <use x="144.970703" xlink:href="#DejaVuSans-109"/>
      <use x="242.382812" xlink:href="#DejaVuSans-105"/>
      <use x="270.166016" xlink:href="#DejaVuSans-110"/>
      <use x="333.544922" xlink:href="#DejaVuSans-97"/>
      <use x="394.824219" xlink:href="#DejaVuSans-108"/>
     </g>
    </g>
   </g>
   <g id="text_15">
    <g id="patch_16">
     <path clip-path="url(#pbbfd28d127)" d="M 222.715763 183.231136 
L 222.715763 217.038636 
Q 222.715763 219.438636 225.115763 219.438636 
L 232.858263 219.438636 
Q 235.258263 219.438636 235.258263 217.038636 
L 235.258263 183.231136 
Q 235.258263 180.831136 232.858263 180.831136 
L 225.115763 180.831136 
Q 222.715763 180.831136 222.715763 183.231136 
z
" style="fill:#ffffff;stroke:#ffffff;stroke-linejoin:miter;"/>
    </g>
    <g clip-path="url(#pbbfd28d127)">
     <!-- Terminal -->
     <g transform="translate(226.779513 183.231136)rotate(-270)scale(0.08 -0.08)">
      <use xlink:href="#DejaVuSans-84"/>
      <use x="44.083984" xlink:href="#DejaVuSans-101"/>
      <use x="105.607422" xlink:href="#DejaVuSans-114"/>
      <use x="144.970703" xlink:href="#DejaVuSans-109"/>
      <use x="242.382812" xlink:href="#DejaVuSans-105"/>
      <use x="270.166016" xlink:href="#DejaVuSans-110"/>
      <use x="333.544922" xlink:href="#DejaVuSans-97"/>
      <use x="394.824219" xlink:href="#DejaVuSans-108"/>
     </g>
    </g>
   </g>
   <g id="text_16">
    <g id="patch_17">
     <path clip-path="url(#pbbfd28d127)" d="M 275.356456 183.231136 
L 275.356456 217.038636 
Q 275.356456 219.438636 277.756456 219.438636 
L 285.498956 219.438636 
Q 287.898956 219.438636 287.898956 217.038636 
L 287.898956 183.231136 
Q 287.898956 180.831136 285.498956 180.831136 
L 277.756456 180.831136 
Q 275.356456 180.831136 275.356456 183.231136 
z
" style="fill:#ffffff;stroke:#ffffff;stroke-linejoin:miter;"/>
    </g>
    <g clip-path="url(#pbbfd28d127)">
     <!-- Terminal -->
     <g transform="translate(279.420206 183.231136)rotate(-270)scale(0.08 -0.08)">
      <use xlink:href="#DejaVuSans-84"/>
      <use x="44.083984" xlink:href="#DejaVuSans-101"/>
      <use x="105.607422" xlink:href="#DejaVuSans-114"/>
      <use x="144.970703" xlink:href="#DejaVuSans-109"/>
      <use x="242.382812" xlink:href="#DejaVuSans-105"/>
      <use x="270.166016" xlink:href="#DejaVuSans-110"/>
      <use x="333.544922" xlink:href="#DejaVuSans-97"/>
      <use x="394.824219" xlink:href="#DejaVuSans-108"/>
     </g>
    </g>
   </g>
   <g id="text_17">
    <g id="patch_18">
     <path clip-path="url(#pbbfd28d127)" d="M 327.997148 183.231136 
L 327.997148 217.038636 
Q 327.997148 219.438636 330.397148 219.438636 
L 338.139648 219.438636 
Q 340.539648 219.438636 340.539648 217.038636 
L 340.539648 183.231136 
Q 340.539648 180.831136 338.139648 180.831136 
L 330.397148 180.831136 
Q 327.997148 180.831136 327.997148 183.231136 
z
" style="fill:#ffffff;stroke:#ffffff;stroke-linejoin:miter;"/>
    </g>
    <g clip-path="url(#pbbfd28d127)">
     <!-- Terminal -->
     <g transform="translate(332.060898 183.231136)rotate(-270)scale(0.08 -0.08)">
      <use xlink:href="#DejaVuSans-84"/>
      <use x="44.083984" xlink:href="#DejaVuSans-101"/>
      <use x="105.607422" xlink:href="#DejaVuSans-114"/>
      <use x="144.970703" xlink:href="#DejaVuSans-109"/>
      <use x="242.382812" xlink:href="#DejaVuSans-105"/>
      <use x="270.166016" xlink:href="#DejaVuSans-110"/>
      <use x="333.544922" xlink:href="#DejaVuSans-97"/>
      <use x="394.824219" xlink:href="#DejaVuSans-108"/>
     </g>
    </g>
   </g>
   <g id="text_18">
    <g id="patch_19">
     <path clip-path="url(#pbbfd28d127)" d="M 380.637841 183.231136 
L 380.637841 217.038636 
Q 380.637841 219.438636 383.037841 219.438636 
L 390.780341 219.438636 
Q 393.180341 219.438636 393.180341 217.038636 
L 393.180341 183.231136 
Q 393.180341 180.831136 390.780341 180.831136 
L 383.037841 180.831136 
Q 380.637841 180.831136 380.637841 183.231136 
z
" style="fill:#ffffff;stroke:#ffffff;stroke-linejoin:miter;"/>
    </g>
    <g clip-path="url(#pbbfd28d127)">
     <!-- Terminal -->
     <g transform="translate(384.701591 183.231136)rotate(-270)scale(0.08 -0.08)">
      <use xlink:href="#DejaVuSans-84"/>
      <use x="44.083984" xlink:href="#DejaVuSans-101"/>
      <use x="105.607422" xlink:href="#DejaVuSans-114"/>
      <use x="144.970703" xlink:href="#DejaVuSans-109"/>
      <use x="242.382812" xlink:href="#DejaVuSans-105"/>
      <use x="270.166016" xlink:href="#DejaVuSans-110"/>
      <use x="333.544922" xlink:href="#DejaVuSans-97"/>
      <use x="394.824219" xlink:href="#DejaVuSans-108"/>
     </g>
    </g>
   </g>
   <g id="text_19">
    <g id="patch_20">
     <path clip-path="url(#pbbfd28d127)" d="M 12.152992 38.689936 
L 12.152992 43.513686 
Q 12.152992 45.913686 14.552992 45.913686 
L 22.295492 45.913686 
Q 24.695492 45.913686 24.695492 43.513686 
L 24.695492 38.689936 
Q 24.695492 36.289936 22.295492 36.289936 
L 14.552992 36.289936 
Q 12.152992 36.289936 12.152992 38.689936 
z
" style="fill:#ffffff;stroke:#ffffff;stroke-linejoin:miter;"/>
    </g>
    <g clip-path="url(#pbbfd28d127)">
     <!-- P -->
     <g transform="translate(16.216742 38.689936)rotate(-270)scale(0.08 -0.08)">
      <use xlink:href="#DejaVuSans-80"/>
     </g>
    </g>
   </g>
   <g id="text_20">
    <g id="patch_21">
     <path clip-path="url(#pbbfd28d127)" d="M 12.152992 50.395979 
L 12.152992 55.219729 
Q 12.152992 57.619729 14.552992 57.619729 
L 22.295492 57.619729 
Q 24.695492 57.619729 24.695492 55.219729 
L 24.695492 50.395979 
Q 24.695492 47.995979 22.295492 47.995979 
L 14.552992 47.995979 
Q 12.152992 47.995979 12.152992 50.395979 
z
" style="fill:#ffffff;stroke:#ffffff;stroke-linejoin:miter;"/>
    </g>
    <g clip-path="url(#pbbfd28d127)">
     <!-- P -->
     <g transform="translate(16.216742 50.395979)rotate(-270)scale(0.08 -0.08)">
      <use xlink:href="#DejaVuSans-80"/>
     </g>
    </g>
   </g>
   <g id="text_21">
    <g id="patch_22">
     <path clip-path="url(#pbbfd28d127)" d="M 12.152992 61.640026 
L 12.152992 66.463776 
Q 12.152992 68.863776 14.552992 68.863776 
L 22.295492 68.863776 
Q 24.695492 68.863776 24.695492 66.463776 
L 24.695492 61.640026 
Q 24.695492 59.240026 22.295492 59.240026 
L 14.552992 59.240026 
Q 12.152992 59.240026 12.152992 61.640026 
z
" style="fill:#ffffff;stroke:#ffffff;stroke-linejoin:miter;"/>
    </g>
    <g clip-path="url(#pbbfd28d127)">
     <!-- P -->
     <g transform="translate(16.216742 61.640026)rotate(-270)scale(0.08 -0.08)">
      <use xlink:href="#DejaVuSans-80"/>
     </g>
    </g>
   </g>
   <g id="text_22">
    <g id="patch_23">
     <path clip-path="url(#pbbfd28d127)" d="M 12.152992 72.44885 
L 12.152992 77.2726 
Q 12.152992 79.6726 14.552992 79.6726 
L 22.295492 79.6726 
Q 24.695492 79.6726 24.695492 77.2726 
L 24.695492 72.44885 
Q 24.695492 70.04885 22.295492 70.04885 
L 14.552992 70.04885 
Q 12.152992 70.04885 12.152992 72.44885 
z
" style="fill:#ffffff;stroke:#ffffff;stroke-linejoin:miter;"/>
    </g>
    <g clip-path="url(#pbbfd28d127)">
     <!-- P -->
     <g transform="translate(16.216742 72.44885)rotate(-270)scale(0.08 -0.08)">
      <use xlink:href="#DejaVuSans-80"/>
     </g>
    </g>
   </g>
   <g id="text_23">
    <g id="patch_24">
     <path clip-path="url(#pbbfd28d127)" d="M 12.152992 82.847864 
L 12.152992 87.671614 
Q 12.152992 90.071614 14.552992 90.071614 
L 22.295492 90.071614 
Q 24.695492 90.071614 24.695492 87.671614 
L 24.695492 82.847864 
Q 24.695492 80.447864 22.295492 80.447864 
L 14.552992 80.447864 
Q 12.152992 80.447864 12.152992 82.847864 
z
" style="fill:#ffffff;stroke:#ffffff;stroke-linejoin:miter;"/>
    </g>
    <g clip-path="url(#pbbfd28d127)">
     <!-- P -->
     <g transform="translate(16.216742 82.847864)rotate(-270)scale(0.08 -0.08)">
      <use xlink:href="#DejaVuSans-80"/>
     </g>
    </g>
   </g>
   <g id="text_24">
    <g id="patch_25">
     <path clip-path="url(#pbbfd28d127)" d="M 12.152992 92.861242 
L 12.152992 97.684992 
Q 12.152992 100.084992 14.552992 100.084992 
L 22.295492 100.084992 
Q 24.695492 100.084992 24.695492 97.684992 
L 24.695492 92.861242 
Q 24.695492 90.461242 22.295492 90.461242 
L 14.552992 90.461242 
Q 12.152992 90.461242 12.152992 92.861242 
z
" style="fill:#ffffff;stroke:#ffffff;stroke-linejoin:miter;"/>
    </g>
    <g clip-path="url(#pbbfd28d127)">
     <!-- P -->
     <g transform="translate(16.216742 92.861242)rotate(-270)scale(0.08 -0.08)">
      <use xlink:href="#DejaVuSans-80"/>
     </g>
    </g>
   </g>
   <g id="text_25">
    <g id="patch_26">
     <path clip-path="url(#pbbfd28d127)" d="M 12.152992 102.512048 
L 12.152992 107.335798 
Q 12.152992 109.735798 14.552992 109.735798 
L 22.295492 109.735798 
Q 24.695492 109.735798 24.695492 107.335798 
L 24.695492 102.512048 
Q 24.695492 100.112048 22.295492 100.112048 
L 14.552992 100.112048 
Q 12.152992 100.112048 12.152992 102.512048 
z
" style="fill:#ffffff;stroke:#ffffff;stroke-linejoin:miter;"/>
    </g>
    <g clip-path="url(#pbbfd28d127)">
     <!-- P -->
     <g transform="translate(16.216742 102.512048)rotate(-270)scale(0.08 -0.08)">
      <use xlink:href="#DejaVuSans-80"/>
     </g>
    </g>
   </g>
   <g id="text_26">
    <g id="patch_27">
     <path clip-path="url(#pbbfd28d127)" d="M 12.152992 111.822362 
L 12.152992 116.646112 
Q 12.152992 119.046112 14.552992 119.046112 
L 22.295492 119.046112 
Q 24.695492 119.046112 24.695492 116.646112 
L 24.695492 111.822362 
Q 24.695492 109.422362 22.295492 109.422362 
L 14.552992 109.422362 
Q 12.152992 109.422362 12.152992 111.822362 
z
" style="fill:#ffffff;stroke:#ffffff;stroke-linejoin:miter;"/>
    </g>
    <g clip-path="url(#pbbfd28d127)">
     <!-- P -->
     <g transform="translate(16.216742 111.822362)rotate(-270)scale(0.08 -0.08)">
      <use xlink:href="#DejaVuSans-80"/>
     </g>
    </g>
   </g>
   <g id="text_27">
    <g id="patch_28">
     <path clip-path="url(#pbbfd28d127)" d="M 12.152992 120.813414 
L 12.152992 125.637164 
Q 12.152992 128.037164 14.552992 128.037164 
L 22.295492 128.037164 
Q 24.695492 128.037164 24.695492 125.637164 
L 24.695492 120.813414 
Q 24.695492 118.413414 22.295492 118.413414 
L 14.552992 118.413414 
Q 12.152992 118.413414 12.152992 120.813414 
z
" style="fill:#ffffff;stroke:#ffffff;stroke-linejoin:miter;"/>
    </g>
    <g clip-path="url(#pbbfd28d127)">
     <!-- P -->
     <g transform="translate(16.216742 120.813414)rotate(-270)scale(0.08 -0.08)">
      <use xlink:href="#DejaVuSans-80"/>
     </g>
    </g>
   </g>
   <g id="text_28">
    <g id="patch_29">
     <path clip-path="url(#pbbfd28d127)" d="M 12.152992 129.505726 
L 12.152992 134.329476 
Q 12.152992 136.729476 14.552992 136.729476 
L 22.295492 136.729476 
Q 24.695492 136.729476 24.695492 134.329476 
L 24.695492 129.505726 
Q 24.695492 127.105726 22.295492 127.105726 
L 14.552992 127.105726 
Q 12.152992 127.105726 12.152992 129.505726 
z
" style="fill:#ffffff;stroke:#ffffff;stroke-linejoin:miter;"/>
    </g>
    <g clip-path="url(#pbbfd28d127)">
     <!-- P -->
     <g transform="translate(16.216742 129.505726)rotate(-270)scale(0.08 -0.08)">
      <use xlink:href="#DejaVuSans-80"/>
     </g>
    </g>
   </g>
   <g id="text_29">
    <g id="patch_30">
     <path clip-path="url(#pbbfd28d127)" d="M 12.152992 137.919286 
L 12.152992 142.743036 
Q 12.152992 145.143036 14.552992 145.143036 
L 22.295492 145.143036 
Q 24.695492 145.143036 24.695492 142.743036 
L 24.695492 137.919286 
Q 24.695492 135.519286 22.295492 135.519286 
L 14.552992 135.519286 
Q 12.152992 135.519286 12.152992 137.919286 
z
" style="fill:#ffffff;stroke:#ffffff;stroke-linejoin:miter;"/>
    </g>
    <g clip-path="url(#pbbfd28d127)">
     <!-- P -->
     <g transform="translate(16.216742 137.919286)rotate(-270)scale(0.08 -0.08)">
      <use xlink:href="#DejaVuSans-80"/>
     </g>
    </g>
   </g>
   <g id="text_30">
    <g id="patch_31">
     <path clip-path="url(#pbbfd28d127)" d="M 12.152992 146.073743 
L 12.152992 150.897493 
Q 12.152992 153.297493 14.552992 153.297493 
L 22.295492 153.297493 
Q 24.695492 153.297493 24.695492 150.897493 
L 24.695492 146.073743 
Q 24.695492 143.673743 22.295492 143.673743 
L 14.552992 143.673743 
Q 12.152992 143.673743 12.152992 146.073743 
z
" style="fill:#ffffff;stroke:#ffffff;stroke-linejoin:miter;"/>
    </g>
    <g clip-path="url(#pbbfd28d127)">
     <!-- P -->
     <g transform="translate(16.216742 146.073743)rotate(-270)scale(0.08 -0.08)">
      <use xlink:href="#DejaVuSans-80"/>
     </g>
    </g>
   </g>
   <g id="text_31">
    <g id="patch_32">
     <path clip-path="url(#pbbfd28d127)" d="M 12.152992 153.988665 
L 12.152992 158.812415 
Q 12.152992 161.212415 14.552992 161.212415 
L 22.295492 161.212415 
Q 24.695492 161.212415 24.695492 158.812415 
L 24.695492 153.988665 
Q 24.695492 151.588665 22.295492 151.588665 
L 14.552992 151.588665 
Q 12.152992 151.588665 12.152992 153.988665 
z
" style="fill:#ffffff;stroke:#ffffff;stroke-linejoin:miter;"/>
    </g>
    <g clip-path="url(#pbbfd28d127)">
     <!-- P -->
     <g transform="translate(16.216742 153.988665)rotate(-270)scale(0.08 -0.08)">
      <use xlink:href="#DejaVuSans-80"/>
     </g>
    </g>
   </g>
   <g id="text_32">
    <g id="patch_33">
     <path clip-path="url(#pbbfd28d127)" d="M 12.152992 161.6839 
L 12.152992 166.50765 
Q 12.152992 168.90765 14.552992 168.90765 
L 22.295492 168.90765 
Q 24.695492 168.90765 24.695492 166.50765 
L 24.695492 161.6839 
Q 24.695492 159.2839 22.295492 159.2839 
L 14.552992 159.2839 
Q 12.152992 159.2839 12.152992 161.6839 
z
" style="fill:#ffffff;stroke:#ffffff;stroke-linejoin:miter;"/>
    </g>
    <g clip-path="url(#pbbfd28d127)">
     <!-- P -->
     <g transform="translate(16.216742 161.6839)rotate(-270)scale(0.08 -0.08)">
      <use xlink:href="#DejaVuSans-80"/>
     </g>
    </g>
   </g>
   <g id="text_33">
    <g id="patch_34">
     <path clip-path="url(#pbbfd28d127)" d="M 12.152992 169.180105 
L 12.152992 174.003855 
Q 12.152992 176.403855 14.552992 176.403855 
L 22.295492 176.403855 
Q 24.695492 176.403855 24.695492 174.003855 
L 24.695492 169.180105 
Q 24.695492 166.780105 22.295492 166.780105 
L 14.552992 166.780105 
Q 12.152992 166.780105 12.152992 169.180105 
z
" style="fill:#ffffff;stroke:#ffffff;stroke-linejoin:miter;"/>
    </g>
    <g clip-path="url(#pbbfd28d127)">
     <!-- P -->
     <g transform="translate(16.216742 169.180105)rotate(-270)scale(0.08 -0.08)">
      <use xlink:href="#DejaVuSans-80"/>
     </g>
    </g>
   </g>
   <g id="text_34">
    <g id="patch_35">
     <path clip-path="url(#pbbfd28d127)" d="M 12.152992 176.499652 
L 12.152992 181.323402 
Q 12.152992 183.723402 14.552992 183.723402 
L 22.295492 183.723402 
Q 24.695492 183.723402 24.695492 181.323402 
L 24.695492 176.499652 
Q 24.695492 174.099652 22.295492 174.099652 
L 14.552992 174.099652 
Q 12.152992 174.099652 12.152992 176.499652 
z
" style="fill:#ffffff;stroke:#ffffff;stroke-linejoin:miter;"/>
    </g>
    <g clip-path="url(#pbbfd28d127)">
     <!-- P -->
     <g transform="translate(16.216742 176.499652)rotate(-270)scale(0.08 -0.08)">
      <use xlink:href="#DejaVuSans-80"/>
     </g>
    </g>
   </g>
   <g id="text_35">
    <g id="patch_36">
     <path clip-path="url(#pbbfd28d127)" d="M 12.152992 183.668389 
L 12.152992 188.492139 
Q 12.152992 190.892139 14.552992 190.892139 
L 22.295492 190.892139 
Q 24.695492 190.892139 24.695492 188.492139 
L 24.695492 183.668389 
Q 24.695492 181.268389 22.295492 181.268389 
L 14.552992 181.268389 
Q 12.152992 181.268389 12.152992 183.668389 
z
" style="fill:#ffffff;stroke:#ffffff;stroke-linejoin:miter;"/>
    </g>
    <g clip-path="url(#pbbfd28d127)">
     <!-- P -->
     <g transform="translate(16.216742 183.668389)rotate(-270)scale(0.08 -0.08)">
      <use xlink:href="#DejaVuSans-80"/>
     </g>
    </g>
   </g>
   <g id="text_36">
    <g id="patch_37">
     <path clip-path="url(#pbbfd28d127)" d="M 12.152992 190.720054 
L 12.152992 195.543804 
Q 12.152992 197.943804 14.552992 197.943804 
L 22.295492 197.943804 
Q 24.695492 197.943804 24.695492 195.543804 
L 24.695492 190.720054 
Q 24.695492 188.320054 22.295492 188.320054 
L 14.552992 188.320054 
Q 12.152992 188.320054 12.152992 190.720054 
z
" style="fill:#ffffff;stroke:#ffffff;stroke-linejoin:miter;"/>
    </g>
    <g clip-path="url(#pbbfd28d127)">
     <!-- P -->
     <g transform="translate(16.216742 190.720054)rotate(-270)scale(0.08 -0.08)">
      <use xlink:href="#DejaVuSans-80"/>
     </g>
    </g>
   </g>
   <g id="text_37">
    <g id="patch_38">
     <path clip-path="url(#pbbfd28d127)" d="M 12.152992 183.231136 
L 12.152992 217.038636 
Q 12.152992 219.438636 14.552992 219.438636 
L 22.295492 219.438636 
Q 24.695492 219.438636 24.695492 217.038636 
L 24.695492 183.231136 
Q 24.695492 180.831136 22.295492 180.831136 
L 14.552992 180.831136 
Q 12.152992 180.831136 12.152992 183.231136 
z
" style="fill:#ffffff;stroke:#ffffff;stroke-linejoin:miter;"/>
    </g>
    <g clip-path="url(#pbbfd28d127)">
     <!-- Terminal -->
     <g transform="translate(16.216742 183.231136)rotate(-270)scale(0.08 -0.08)">
      <use xlink:href="#DejaVuSans-84"/>
      <use x="44.083984" xlink:href="#DejaVuSans-101"/>
      <use x="105.607422" xlink:href="#DejaVuSans-114"/>
      <use x="144.970703" xlink:href="#DejaVuSans-109"/>
      <use x="242.382812" xlink:href="#DejaVuSans-105"/>
      <use x="270.166016" xlink:href="#DejaVuSans-110"/>
      <use x="333.544922" xlink:href="#DejaVuSans-97"/>
      <use x="394.824219" xlink:href="#DejaVuSans-108"/>
     </g>
    </g>
   </g>
   <g id="PathCollection_1">
    <defs>
     <path d="M 0 8.660254 
C 2.296726 8.660254 4.499694 7.747755 6.123724 6.123724 
C 7.747755 4.499694 8.660254 2.296726 8.660254 -0 
C 8.660254 -2.296726 7.747755 -4.499694 6.123724 -6.123724 
C 4.499694 -7.747755 2.296726 -8.660254 0 -8.660254 
C -2.296726 -8.660254 -4.499694 -7.747755 -6.123724 -6.123724 
C -7.747755 -4.499694 -8.660254 -2.296726 -8.660254 0 
C -8.660254 2.296726 -7.747755 4.499694 -6.123724 6.123724 
C -4.499694 7.747755 -2.296726 8.660254 0 8.660254 
z
" id="C0_0_95d366f2aa"/>
    </defs>
    <g clip-path="url(#pbbfd28d127)">
     <use style="fill:#ffffff;stroke:#ffffff;" x="18.424242" xlink:href="#C0_0_95d366f2aa" y="203.636364"/>
    </g>
    <g clip-path="url(#pbbfd28d127)">
     <use style="fill:#ffffff;stroke:#ffffff;" x="71.064935" xlink:href="#C0_0_95d366f2aa" y="203.636364"/>
    </g>
    <g clip-path="url(#pbbfd28d127)">
     <use style="fill:#ffffff;stroke:#ffffff;" x="123.705628" xlink:href="#C0_0_95d366f2aa" y="203.636364"/>
    </g>
    <g clip-path="url(#pbbfd28d127)">
     <use style="fill:#ffffff;stroke:#ffffff;" x="176.34632" xlink:href="#C0_0_95d366f2aa" y="203.636364"/>
    </g>
    <g clip-path="url(#pbbfd28d127)">
     <use style="fill:#ffffff;stroke:#ffffff;" x="228.987013" xlink:href="#C0_0_95d366f2aa" y="203.636364"/>
    </g>
    <g clip-path="url(#pbbfd28d127)">
     <use style="fill:#ffffff;stroke:#ffffff;" x="281.627706" xlink:href="#C0_0_95d366f2aa" y="203.636364"/>
    </g>
    <g clip-path="url(#pbbfd28d127)">
     <use style="fill:#ffffff;stroke:#ffffff;" x="334.268398" xlink:href="#C0_0_95d366f2aa" y="203.636364"/>
    </g>
    <g clip-path="url(#pbbfd28d127)">
     <use style="fill:#ffffff;stroke:#ffffff;" x="386.909091" xlink:href="#C0_0_95d366f2aa" y="203.636364"/>
    </g>
    <g clip-path="url(#pbbfd28d127)">
     <use style="stroke:#000000;" x="90.805195" xlink:href="#C0_0_95d366f2aa" y="9.69697"/>
    </g>
    <g clip-path="url(#pbbfd28d127)">
     <use style="stroke:#000000;" x="71.064935" xlink:href="#C0_0_95d366f2aa" y="196.633407"/>
    </g>
    <g clip-path="url(#pbbfd28d127)">
     <use style="stroke:#000000;" x="255.307359" xlink:href="#C0_0_95d366f2aa" y="189.630451"/>
    </g>
    <g clip-path="url(#pbbfd28d127)">
     <use style="stroke:#000000;" x="18.424242" xlink:href="#C0_0_95d366f2aa" y="22.681164"/>
    </g>
    <g clip-path="url(#pbbfd28d127)">
     <use style="stroke:#000000;" x="123.705628" xlink:href="#C0_0_95d366f2aa" y="196.633407"/>
    </g>
    <g clip-path="url(#pbbfd28d127)">
     <use style="stroke:#000000;" x="176.34632" xlink:href="#C0_0_95d366f2aa" y="196.633407"/>
    </g>
    <g clip-path="url(#pbbfd28d127)">
     <use style="stroke:#000000;" x="228.987013" xlink:href="#C0_0_95d366f2aa" y="196.633407"/>
    </g>
    <g clip-path="url(#pbbfd28d127)">
     <use style="stroke:#000000;" x="281.627706" xlink:href="#C0_0_95d366f2aa" y="196.633407"/>
    </g>
    <g clip-path="url(#pbbfd28d127)">
     <use style="stroke:#000000;" x="334.268398" xlink:href="#C0_0_95d366f2aa" y="196.633407"/>
    </g>
    <g clip-path="url(#pbbfd28d127)">
     <use style="stroke:#000000;" x="386.909091" xlink:href="#C0_0_95d366f2aa" y="196.633407"/>
    </g>
    <g clip-path="url(#pbbfd28d127)">
     <use style="stroke:#000000;" x="18.424242" xlink:href="#C0_0_95d366f2aa" y="35.129855"/>
    </g>
    <g clip-path="url(#pbbfd28d127)">
     <use style="stroke:#000000;" x="18.424242" xlink:href="#C0_0_95d366f2aa" y="47.073768"/>
    </g>
    <g clip-path="url(#pbbfd28d127)">
     <use style="stroke:#000000;" x="18.424242" xlink:href="#C0_0_95d366f2aa" y="58.541941"/>
    </g>
    <g clip-path="url(#pbbfd28d127)">
     <use style="stroke:#000000;" x="18.424242" xlink:href="#C0_0_95d366f2aa" y="69.561861"/>
    </g>
    <g clip-path="url(#pbbfd28d127)">
     <use style="stroke:#000000;" x="18.424242" xlink:href="#C0_0_95d366f2aa" y="80.159589"/>
    </g>
    <g clip-path="url(#pbbfd28d127)">
     <use style="stroke:#000000;" x="18.424242" xlink:href="#C0_0_95d366f2aa" y="90.359888"/>
    </g>
    <g clip-path="url(#pbbfd28d127)">
     <use style="stroke:#000000;" x="18.424242" xlink:href="#C0_0_95d366f2aa" y="100.186345"/>
    </g>
    <g clip-path="url(#pbbfd28d127)">
     <use style="stroke:#000000;" x="18.424242" xlink:href="#C0_0_95d366f2aa" y="109.661501"/>
    </g>
    <g clip-path="url(#pbbfd28d127)">
     <use style="stroke:#000000;" x="18.424242" xlink:href="#C0_0_95d366f2aa" y="118.806974"/>
    </g>
    <g clip-path="url(#pbbfd28d127)">
     <use style="stroke:#000000;" x="18.424242" xlink:href="#C0_0_95d366f2aa" y="127.643603"/>
    </g>
    <g clip-path="url(#pbbfd28d127)">
     <use style="stroke:#000000;" x="18.424242" xlink:href="#C0_0_95d366f2aa" y="136.191599"/>
    </g>
    <g clip-path="url(#pbbfd28d127)">
     <use style="stroke:#000000;" x="18.424242" xlink:href="#C0_0_95d366f2aa" y="144.470723"/>
    </g>
    <g clip-path="url(#pbbfd28d127)">
     <use style="stroke:#000000;" x="18.424242" xlink:href="#C0_0_95d366f2aa" y="152.500512"/>
    </g>
    <g clip-path="url(#pbbfd28d127)">
     <use style="stroke:#000000;" x="18.424242" xlink:href="#C0_0_95d366f2aa" y="160.300569"/>
    </g>
    <g clip-path="url(#pbbfd28d127)">
     <use style="stroke:#000000;" x="18.424242" xlink:href="#C0_0_95d366f2aa" y="167.890981"/>
    </g>
    <g clip-path="url(#pbbfd28d127)">
     <use style="stroke:#000000;" x="18.424242" xlink:href="#C0_0_95d366f2aa" y="175.292978"/>
    </g>
    <g clip-path="url(#pbbfd28d127)">
     <use style="stroke:#000000;" x="18.424242" xlink:href="#C0_0_95d366f2aa" y="182.530076"/>
    </g>
    <g clip-path="url(#pbbfd28d127)">
     <use style="stroke:#000000;" x="18.424242" xlink:href="#C0_0_95d366f2aa" y="189.630451"/>
    </g>
    <g clip-path="url(#pbbfd28d127)">
     <use style="stroke:#000000;" x="18.424242" xlink:href="#C0_0_95d366f2aa" y="196.633407"/>
    </g>
   </g>
   <g id="text_38">
    <g clip-path="url(#pbbfd28d127)">
     <!-- What -->
     <g transform="translate(5.287524 206.395739)scale(0.1 -0.1)">
      <defs>
       <path d="M 3.328125 72.90625 
L 13.28125 72.90625 
L 28.609375 11.28125 
L 43.890625 72.90625 
L 54.984375 72.90625 
L 70.3125 11.28125 
L 85.59375 72.90625 
L 95.609375 72.90625 
L 77.296875 0 
L 64.890625 0 
L 49.515625 63.28125 
L 33.984375 0 
L 21.578125 0 
z
" id="DejaVuSans-87"/>
       <path d="M 54.890625 33.015625 
L 54.890625 0 
L 45.90625 0 
L 45.90625 32.71875 
Q 45.90625 40.484375 42.875 44.328125 
Q 39.84375 48.1875 33.796875 48.1875 
Q 26.515625 48.1875 22.3125 43.546875 
Q 18.109375 38.921875 18.109375 30.90625 
L 18.109375 0 
L 9.078125 0 
L 9.078125 75.984375 
L 18.109375 75.984375 
L 18.109375 46.1875 
Q 21.34375 51.125 25.703125 53.5625 
Q 30.078125 56 35.796875 56 
Q 45.21875 56 50.046875 50.171875 
Q 54.890625 44.34375 54.890625 33.015625 
z
" id="DejaVuSans-104"/>
       <path d="M 18.3125 70.21875 
L 18.3125 54.6875 
L 36.8125 54.6875 
L 36.8125 47.703125 
L 18.3125 47.703125 
L 18.3125 18.015625 
Q 18.3125 11.328125 20.140625 9.421875 
Q 21.96875 7.515625 27.59375 7.515625 
L 36.8125 7.515625 
L 36.8125 0 
L 27.59375 0 
Q 17.1875 0 13.234375 3.875 
Q 9.28125 7.765625 9.28125 18.015625 
L 9.28125 47.703125 
L 2.6875 47.703125 
L 2.6875 54.6875 
L 9.28125 54.6875 
L 9.28125 70.21875 
z
" id="DejaVuSans-116"/>
      </defs>
      <use xlink:href="#DejaVuSans-87"/>
      <use x="98.876953" xlink:href="#DejaVuSans-104"/>
      <use x="162.255859" xlink:href="#DejaVuSans-97"/>
      <use x="223.535156" xlink:href="#DejaVuSans-116"/>
     </g>
    </g>
   </g>
   <g id="text_39">
    <g clip-path="url(#pbbfd28d127)">
     <!-- countries -->
     <g transform="translate(47.832904 206.395739)scale(0.1 -0.1)">
      <defs>
       <path d="M 48.78125 52.59375 
L 48.78125 44.1875 
Q 44.96875 46.296875 41.140625 47.34375 
Q 37.3125 48.390625 33.40625 48.390625 
Q 24.65625 48.390625 19.8125 42.84375 
Q 14.984375 37.3125 14.984375 27.296875 
Q 14.984375 17.28125 19.8125 11.734375 
Q 24.65625 6.203125 33.40625 6.203125 
Q 37.3125 6.203125 41.140625 7.25 
Q 44.96875 8.296875 48.78125 10.40625 
L 48.78125 2.09375 
Q 45.015625 0.34375 40.984375 -0.53125 
Q 36.96875 -1.421875 32.421875 -1.421875 
Q 20.0625 -1.421875 12.78125 6.34375 
Q 5.515625 14.109375 5.515625 27.296875 
Q 5.515625 40.671875 12.859375 48.328125 
Q 20.21875 56 33.015625 56 
Q 37.15625 56 41.109375 55.140625 
Q 45.0625 54.296875 48.78125 52.59375 
z
" id="DejaVuSans-99"/>
       <path d="M 30.609375 48.390625 
Q 23.390625 48.390625 19.1875 42.75 
Q 14.984375 37.109375 14.984375 27.296875 
Q 14.984375 17.484375 19.15625 11.84375 
Q 23.34375 6.203125 30.609375 6.203125 
Q 37.796875 6.203125 41.984375 11.859375 
Q 46.1875 17.53125 46.1875 27.296875 
Q 46.1875 37.015625 41.984375 42.703125 
Q 37.796875 48.390625 30.609375 48.390625 
z
M 30.609375 56 
Q 42.328125 56 49.015625 48.375 
Q 55.71875 40.765625 55.71875 27.296875 
Q 55.71875 13.875 49.015625 6.21875 
Q 42.328125 -1.421875 30.609375 -1.421875 
Q 18.84375 -1.421875 12.171875 6.21875 
Q 5.515625 13.875 5.515625 27.296875 
Q 5.515625 40.765625 12.171875 48.375 
Q 18.84375 56 30.609375 56 
z
" id="DejaVuSans-111"/>
       <path d="M 8.5 21.578125 
L 8.5 54.6875 
L 17.484375 54.6875 
L 17.484375 21.921875 
Q 17.484375 14.15625 20.5 10.265625 
Q 23.53125 6.390625 29.59375 6.390625 
Q 36.859375 6.390625 41.078125 11.03125 
Q 45.3125 15.671875 45.3125 23.6875 
L 45.3125 54.6875 
L 54.296875 54.6875 
L 54.296875 0 
L 45.3125 0 
L 45.3125 8.40625 
Q 42.046875 3.421875 37.71875 1 
Q 33.40625 -1.421875 27.6875 -1.421875 
Q 18.265625 -1.421875 13.375 4.4375 
Q 8.5 10.296875 8.5 21.578125 
z
M 31.109375 56 
z
" id="DejaVuSans-117"/>
       <path d="M 44.28125 53.078125 
L 44.28125 44.578125 
Q 40.484375 46.53125 36.375 47.5 
Q 32.28125 48.484375 27.875 48.484375 
Q 21.1875 48.484375 17.84375 46.4375 
Q 14.5 44.390625 14.5 40.28125 
Q 14.5 37.15625 16.890625 35.375 
Q 19.28125 33.59375 26.515625 31.984375 
L 29.59375 31.296875 
Q 39.15625 29.25 43.1875 25.515625 
Q 47.21875 21.78125 47.21875 15.09375 
Q 47.21875 7.46875 41.1875 3.015625 
Q 35.15625 -1.421875 24.609375 -1.421875 
Q 20.21875 -1.421875 15.453125 -0.5625 
Q 10.6875 0.296875 5.421875 2 
L 5.421875 11.28125 
Q 10.40625 8.6875 15.234375 7.390625 
Q 20.0625 6.109375 24.8125 6.109375 
Q 31.15625 6.109375 34.5625 8.28125 
Q 37.984375 10.453125 37.984375 14.40625 
Q 37.984375 18.0625 35.515625 20.015625 
Q 33.0625 21.96875 24.703125 23.78125 
L 21.578125 24.515625 
Q 13.234375 26.265625 9.515625 29.90625 
Q 5.8125 33.546875 5.8125 39.890625 
Q 5.8125 47.609375 11.28125 51.796875 
Q 16.75 56 26.8125 56 
Q 31.78125 56 36.171875 55.265625 
Q 40.578125 54.546875 44.28125 53.078125 
z
" id="DejaVuSans-115"/>
      </defs>
      <use xlink:href="#DejaVuSans-99"/>
      <use x="54.980469" xlink:href="#DejaVuSans-111"/>
      <use x="116.162109" xlink:href="#DejaVuSans-117"/>
      <use x="179.541016" xlink:href="#DejaVuSans-110"/>
      <use x="242.919922" xlink:href="#DejaVuSans-116"/>
      <use x="282.128906" xlink:href="#DejaVuSans-114"/>
      <use x="323.242188" xlink:href="#DejaVuSans-105"/>
      <use x="351.025391" xlink:href="#DejaVuSans-101"/>
      <use x="412.548828" xlink:href="#DejaVuSans-115"/>
     </g>
    </g>
   </g>
   <g id="text_40">
    <g clip-path="url(#pbbfd28d127)">
     <!-- around -->
     <g transform="translate(106.127503 206.395739)scale(0.1 -0.1)">
      <defs>
       <path d="M 45.40625 46.390625 
L 45.40625 75.984375 
L 54.390625 75.984375 
L 54.390625 0 
L 45.40625 0 
L 45.40625 8.203125 
Q 42.578125 3.328125 38.25 0.953125 
Q 33.9375 -1.421875 27.875 -1.421875 
Q 17.96875 -1.421875 11.734375 6.484375 
Q 5.515625 14.40625 5.515625 27.296875 
Q 5.515625 40.1875 11.734375 48.09375 
Q 17.96875 56 27.875 56 
Q 33.9375 56 38.25 53.625 
Q 42.578125 51.265625 45.40625 46.390625 
z
M 14.796875 27.296875 
Q 14.796875 17.390625 18.875 11.75 
Q 22.953125 6.109375 30.078125 6.109375 
Q 37.203125 6.109375 41.296875 11.75 
Q 45.40625 17.390625 45.40625 27.296875 
Q 45.40625 37.203125 41.296875 42.84375 
Q 37.203125 48.484375 30.078125 48.484375 
Q 22.953125 48.484375 18.875 42.84375 
Q 14.796875 37.203125 14.796875 27.296875 
z
" id="DejaVuSans-100"/>
      </defs>
      <use xlink:href="#DejaVuSans-97"/>
      <use x="61.279297" xlink:href="#DejaVuSans-114"/>
      <use x="100.142578" xlink:href="#DejaVuSans-111"/>
      <use x="161.324219" xlink:href="#DejaVuSans-117"/>
      <use x="224.703125" xlink:href="#DejaVuSans-110"/>
      <use x="288.082031" xlink:href="#DejaVuSans-100"/>
     </g>
    </g>
   </g>
   <g id="text_41">
    <g clip-path="url(#pbbfd28d127)">
     <!-- the -->
     <g transform="translate(168.140852 206.395739)scale(0.1 -0.1)">
      <use xlink:href="#DejaVuSans-116"/>
      <use x="39.208984" xlink:href="#DejaVuSans-104"/>
      <use x="102.587891" xlink:href="#DejaVuSans-101"/>
     </g>
    </g>
   </g>
   <g id="text_42">
    <g clip-path="url(#pbbfd28d127)">
     <!-- world -->
     <g transform="translate(215.219825 206.395739)scale(0.1 -0.1)">
      <defs>
       <path d="M 4.203125 54.6875 
L 13.1875 54.6875 
L 24.421875 12.015625 
L 35.59375 54.6875 
L 46.1875 54.6875 
L 57.421875 12.015625 
L 68.609375 54.6875 
L 77.59375 54.6875 
L 63.28125 0 
L 52.6875 0 
L 40.921875 44.828125 
L 29.109375 0 
L 18.5 0 
z
" id="DejaVuSans-119"/>
      </defs>
      <use xlink:href="#DejaVuSans-119"/>
      <use x="81.787109" xlink:href="#DejaVuSans-111"/>
      <use x="142.96875" xlink:href="#DejaVuSans-114"/>
      <use x="184.082031" xlink:href="#DejaVuSans-108"/>
      <use x="211.865234" xlink:href="#DejaVuSans-100"/>
     </g>
    </g>
   </g>
   <g id="text_43">
    <g clip-path="url(#pbbfd28d127)">
     <!-- speak -->
     <g transform="translate(266.812862 206.395739)scale(0.1 -0.1)">
      <defs>
       <path d="M 18.109375 8.203125 
L 18.109375 -20.796875 
L 9.078125 -20.796875 
L 9.078125 54.6875 
L 18.109375 54.6875 
L 18.109375 46.390625 
Q 20.953125 51.265625 25.265625 53.625 
Q 29.59375 56 35.59375 56 
Q 45.5625 56 51.78125 48.09375 
Q 58.015625 40.1875 58.015625 27.296875 
Q 58.015625 14.40625 51.78125 6.484375 
Q 45.5625 -1.421875 35.59375 -1.421875 
Q 29.59375 -1.421875 25.265625 0.953125 
Q 20.953125 3.328125 18.109375 8.203125 
z
M 48.6875 27.296875 
Q 48.6875 37.203125 44.609375 42.84375 
Q 40.53125 48.484375 33.40625 48.484375 
Q 26.265625 48.484375 22.1875 42.84375 
Q 18.109375 37.203125 18.109375 27.296875 
Q 18.109375 17.390625 22.1875 11.75 
Q 26.265625 6.109375 33.40625 6.109375 
Q 40.53125 6.109375 44.609375 11.75 
Q 48.6875 17.390625 48.6875 27.296875 
z
" id="DejaVuSans-112"/>
       <path d="M 9.078125 75.984375 
L 18.109375 75.984375 
L 18.109375 31.109375 
L 44.921875 54.6875 
L 56.390625 54.6875 
L 27.390625 29.109375 
L 57.625 0 
L 45.90625 0 
L 18.109375 26.703125 
L 18.109375 0 
L 9.078125 0 
z
" id="DejaVuSans-107"/>
      </defs>
      <use xlink:href="#DejaVuSans-115"/>
      <use x="52.099609" xlink:href="#DejaVuSans-112"/>
      <use x="115.576172" xlink:href="#DejaVuSans-101"/>
      <use x="177.099609" xlink:href="#DejaVuSans-97"/>
      <use x="238.378906" xlink:href="#DejaVuSans-107"/>
     </g>
    </g>
   </g>
   <g id="text_44">
    <g clip-path="url(#pbbfd28d127)">
     <!-- french -->
     <g transform="translate(318.401992 206.395739)scale(0.1 -0.1)">
      <defs>
       <path d="M 37.109375 75.984375 
L 37.109375 68.5 
L 28.515625 68.5 
Q 23.6875 68.5 21.796875 66.546875 
Q 19.921875 64.59375 19.921875 59.515625 
L 19.921875 54.6875 
L 34.71875 54.6875 
L 34.71875 47.703125 
L 19.921875 47.703125 
L 19.921875 0 
L 10.890625 0 
L 10.890625 47.703125 
L 2.296875 47.703125 
L 2.296875 54.6875 
L 10.890625 54.6875 
L 10.890625 58.5 
Q 10.890625 67.625 15.140625 71.796875 
Q 19.390625 75.984375 28.609375 75.984375 
z
" id="DejaVuSans-102"/>
      </defs>
      <use xlink:href="#DejaVuSans-102"/>
      <use x="35.205078" xlink:href="#DejaVuSans-114"/>
      <use x="74.068359" xlink:href="#DejaVuSans-101"/>
      <use x="135.591797" xlink:href="#DejaVuSans-110"/>
      <use x="198.970703" xlink:href="#DejaVuSans-99"/>
      <use x="253.951172" xlink:href="#DejaVuSans-104"/>
     </g>
    </g>
   </g>
   <g id="text_45">
    <g clip-path="url(#pbbfd28d127)">
     <!-- ? -->
     <g transform="translate(384.255185 206.395739)scale(0.1 -0.1)">
      <defs>
       <path d="M 19.09375 12.40625 
L 29 12.40625 
L 29 0 
L 19.09375 0 
z
M 28.71875 19.578125 
L 19.390625 19.578125 
L 19.390625 27.09375 
Q 19.390625 32.03125 20.75 35.203125 
Q 22.125 38.375 26.515625 42.578125 
L 30.90625 46.921875 
Q 33.6875 49.515625 34.9375 51.8125 
Q 36.1875 54.109375 36.1875 56.5 
Q 36.1875 60.84375 32.984375 63.53125 
Q 29.78125 66.21875 24.515625 66.21875 
Q 20.65625 66.21875 16.28125 64.5 
Q 11.921875 62.796875 7.171875 59.515625 
L 7.171875 68.703125 
Q 11.765625 71.484375 16.46875 72.84375 
Q 21.1875 74.21875 26.21875 74.21875 
Q 35.203125 74.21875 40.640625 69.484375 
Q 46.09375 64.75 46.09375 56.984375 
Q 46.09375 53.265625 44.328125 49.921875 
Q 42.578125 46.578125 38.1875 42.390625 
L 33.890625 38.1875 
Q 31.59375 35.890625 30.640625 34.59375 
Q 29.6875 33.296875 29.296875 32.078125 
Q 29 31.0625 28.859375 29.59375 
Q 28.71875 28.125 28.71875 25.59375 
z
" id="DejaVuSans-63"/>
      </defs>
      <use xlink:href="#DejaVuSans-63"/>
     </g>
    </g>
   </g>
  </g>
 </g>
 <defs>
  <clipPath id="pbbfd28d127">
   <rect height="213.333333" width="405.333333" x="0" y="0"/>
  </clipPath>
 </defs>
</svg>
