<?xml version="1.0" encoding="utf-8" standalone="no"?>
<!DOCTYPE svg PUBLIC "-//W3C//DTD SVG 1.1//EN"
  "http://www.w3.org/Graphics/SVG/1.1/DTD/svg11.dtd">
<!-- Created with matplotlib (https://matplotlib.org/) -->
<svg height="320pt" version="1.1" viewBox="0 0 608 320" width="608pt" xmlns="http://www.w3.org/2000/svg" xmlns:xlink="http://www.w3.org/1999/xlink">
 <metadata>
  <rdf:RDF xmlns:cc="http://creativecommons.org/ns#" xmlns:dc="http://purl.org/dc/elements/1.1/" xmlns:rdf="http://www.w3.org/1999/02/22-rdf-syntax-ns#">
   <cc:Work>
    <dc:type rdf:resource="http://purl.org/dc/dcmitype/StillImage"/>
    <dc:date>2021-05-19T11:42:10.280599</dc:date>
    <dc:format>image/svg+xml</dc:format>
    <dc:creator>
     <cc:Agent>
      <dc:title>Matplotlib v3.3.4, https://matplotlib.org/</dc:title>
     </cc:Agent>
    </dc:creator>
   </cc:Work>
  </rdf:RDF>
 </metadata>
 <defs>
  <style type="text/css">*{stroke-linecap:butt;stroke-linejoin:round;}</style>
 </defs>
 <g id="figure_1">
  <g id="patch_1">
   <path d="M 0 320 
L 608 320 
L 608 0 
L 0 0 
z
" style="fill:#ffffff;"/>
  </g>
  <g id="axes_1">
   <g id="LineCollection_1">
    <path clip-path="url(#pa0a254e7ec)" d="M 178.380165 14.545455 
L 77.884298 294.950111 
" style="fill:none;stroke:#000000;"/>
    <path clip-path="url(#pa0a254e7ec)" d="M 178.380165 14.545455 
L 253.752066 284.445677 
" style="fill:none;stroke:#000000;"/>
    <path clip-path="url(#pa0a254e7ec)" d="M 178.380165 14.545455 
L 504.991736 284.445677 
" style="fill:none;stroke:#000000;"/>
    <path clip-path="url(#pa0a254e7ec)" d="M 178.380165 14.545455 
L 27.636364 34.021746 
" style="fill:none;stroke:#000000;"/>
    <path clip-path="url(#pa0a254e7ec)" d="M 178.380165 14.545455 
L 27.636364 294.950111 
" style="fill:none;stroke:#000000;stroke-dasharray:3.7,1.6;stroke-dashoffset:0;"/>
    <path clip-path="url(#pa0a254e7ec)" d="M 77.884298 294.950111 
L 77.884298 305.454545 
" style="fill:none;stroke:#000000;"/>
    <path clip-path="url(#pa0a254e7ec)" d="M 253.752066 284.445677 
L 128.132231 294.950111 
" style="fill:none;stroke:#000000;"/>
    <path clip-path="url(#pa0a254e7ec)" d="M 253.752066 284.445677 
L 178.380165 294.950111 
" style="fill:none;stroke:#000000;"/>
    <path clip-path="url(#pa0a254e7ec)" d="M 253.752066 284.445677 
L 228.628099 294.950111 
" style="fill:none;stroke:#000000;"/>
    <path clip-path="url(#pa0a254e7ec)" d="M 253.752066 284.445677 
L 278.876033 294.950111 
" style="fill:none;stroke:#000000;"/>
    <path clip-path="url(#pa0a254e7ec)" d="M 253.752066 284.445677 
L 329.123967 294.950111 
" style="fill:none;stroke:#000000;"/>
    <path clip-path="url(#pa0a254e7ec)" d="M 253.752066 284.445677 
L 379.371901 294.950111 
" style="fill:none;stroke:#000000;"/>
    <path clip-path="url(#pa0a254e7ec)" d="M 504.991736 284.445677 
L 429.619835 294.950111 
" style="fill:none;stroke:#000000;"/>
    <path clip-path="url(#pa0a254e7ec)" d="M 504.991736 284.445677 
L 479.867769 294.950111 
" style="fill:none;stroke:#000000;"/>
    <path clip-path="url(#pa0a254e7ec)" d="M 504.991736 284.445677 
L 530.115702 294.950111 
" style="fill:none;stroke:#000000;"/>
    <path clip-path="url(#pa0a254e7ec)" d="M 504.991736 284.445677 
L 580.363636 294.950111 
" style="fill:none;stroke:#000000;"/>
    <path clip-path="url(#pa0a254e7ec)" d="M 27.636364 34.021746 
L 27.636364 52.694782 
" style="fill:none;stroke:#000000;"/>
    <path clip-path="url(#pa0a254e7ec)" d="M 128.132231 294.950111 
L 128.132231 305.454545 
" style="fill:none;stroke:#000000;"/>
    <path clip-path="url(#pa0a254e7ec)" d="M 178.380165 294.950111 
L 178.380165 305.454545 
" style="fill:none;stroke:#000000;"/>
    <path clip-path="url(#pa0a254e7ec)" d="M 228.628099 294.950111 
L 228.628099 305.454545 
" style="fill:none;stroke:#000000;"/>
    <path clip-path="url(#pa0a254e7ec)" d="M 278.876033 294.950111 
L 278.876033 305.454545 
" style="fill:none;stroke:#000000;"/>
    <path clip-path="url(#pa0a254e7ec)" d="M 329.123967 294.950111 
L 329.123967 305.454545 
" style="fill:none;stroke:#000000;"/>
    <path clip-path="url(#pa0a254e7ec)" d="M 379.371901 294.950111 
L 379.371901 305.454545 
" style="fill:none;stroke:#000000;"/>
    <path clip-path="url(#pa0a254e7ec)" d="M 429.619835 294.950111 
L 429.619835 305.454545 
" style="fill:none;stroke:#000000;"/>
    <path clip-path="url(#pa0a254e7ec)" d="M 479.867769 294.950111 
L 479.867769 305.454545 
" style="fill:none;stroke:#000000;"/>
    <path clip-path="url(#pa0a254e7ec)" d="M 530.115702 294.950111 
L 530.115702 305.454545 
" style="fill:none;stroke:#000000;"/>
    <path clip-path="url(#pa0a254e7ec)" d="M 580.363636 294.950111 
L 580.363636 305.454545 
" style="fill:none;stroke:#000000;"/>
    <path clip-path="url(#pa0a254e7ec)" d="M 27.636364 52.694782 
L 27.636364 70.610651 
" style="fill:none;stroke:#000000;"/>
    <path clip-path="url(#pa0a254e7ec)" d="M 27.636364 70.610651 
L 27.636364 87.812912 
" style="fill:none;stroke:#000000;"/>
    <path clip-path="url(#pa0a254e7ec)" d="M 27.636364 87.812912 
L 27.636364 104.342792 
" style="fill:none;stroke:#000000;"/>
    <path clip-path="url(#pa0a254e7ec)" d="M 27.636364 104.342792 
L 27.636364 120.239384 
" style="fill:none;stroke:#000000;"/>
    <path clip-path="url(#pa0a254e7ec)" d="M 27.636364 120.239384 
L 27.636364 135.539832 
" style="fill:none;stroke:#000000;"/>
    <path clip-path="url(#pa0a254e7ec)" d="M 27.636364 135.539832 
L 27.636364 150.279518 
" style="fill:none;stroke:#000000;"/>
    <path clip-path="url(#pa0a254e7ec)" d="M 27.636364 150.279518 
L 27.636364 164.492251 
" style="fill:none;stroke:#000000;"/>
    <path clip-path="url(#pa0a254e7ec)" d="M 27.636364 164.492251 
L 27.636364 178.210461 
" style="fill:none;stroke:#000000;"/>
    <path clip-path="url(#pa0a254e7ec)" d="M 27.636364 178.210461 
L 27.636364 191.465405 
" style="fill:none;stroke:#000000;"/>
    <path clip-path="url(#pa0a254e7ec)" d="M 27.636364 191.465405 
L 27.636364 204.287398 
" style="fill:none;stroke:#000000;"/>
    <path clip-path="url(#pa0a254e7ec)" d="M 27.636364 204.287398 
L 27.636364 216.706085 
" style="fill:none;stroke:#000000;"/>
    <path clip-path="url(#pa0a254e7ec)" d="M 27.636364 216.706085 
L 27.636364 228.750768 
" style="fill:none;stroke:#000000;"/>
    <path clip-path="url(#pa0a254e7ec)" d="M 27.636364 228.750768 
L 27.636364 240.450853 
" style="fill:none;stroke:#000000;"/>
    <path clip-path="url(#pa0a254e7ec)" d="M 27.636364 240.450853 
L 27.636364 251.836472 
" style="fill:none;stroke:#000000;"/>
    <path clip-path="url(#pa0a254e7ec)" d="M 27.636364 251.836472 
L 27.636364 262.939468 
" style="fill:none;stroke:#000000;"/>
    <path clip-path="url(#pa0a254e7ec)" d="M 27.636364 262.939468 
L 27.636364 273.795115 
" style="fill:none;stroke:#000000;"/>
    <path clip-path="url(#pa0a254e7ec)" d="M 27.636364 273.795115 
L 27.636364 284.445677 
" style="fill:none;stroke:#000000;"/>
    <path clip-path="url(#pa0a254e7ec)" d="M 27.636364 284.445677 
L 27.636364 294.950111 
" style="fill:none;stroke:#000000;"/>
    <path clip-path="url(#pa0a254e7ec)" d="M 27.636364 294.950111 
L 27.636364 305.454545 
" style="fill:none;stroke:#000000;"/>
   </g>
   <g id="text_1">
    <g id="patch_2">
     <path clip-path="url(#pa0a254e7ec)" d="M 133.259594 159.029326 
L 134.811974 154.697857 
Q 135.621691 152.438575 133.362409 151.628857 
L 126.073869 149.016675 
Q 123.814587 148.206958 123.004869 150.46624 
L 121.452489 154.797708 
Q 120.642771 157.056991 122.902054 157.866708 
L 130.190594 160.478891 
Q 132.449876 161.288608 133.259594 159.029326 
z
" style="fill:#ffffff;stroke:#ffffff;stroke-linejoin:miter;"/>
    </g>
    <g clip-path="url(#pa0a254e7ec)">
     <!-- F -->
     <g transform="translate(129.434111 157.658288)rotate(-70.282531)scale(0.08 -0.08)">
      <defs>
       <path d="M 9.8125 72.90625 
L 51.703125 72.90625 
L 51.703125 64.59375 
L 19.671875 64.59375 
L 19.671875 43.109375 
L 48.578125 43.109375 
L 48.578125 34.8125 
L 19.671875 34.8125 
L 19.671875 0 
L 9.8125 0 
z
" id="DejaVuSans-70"/>
      </defs>
      <use xlink:href="#DejaVuSans-70"/>
     </g>
    </g>
   </g>
   <g id="text_2">
    <g id="patch_3">
     <path clip-path="url(#pa0a254e7ec)" d="M 209.290004 148.546911 
L 210.761928 153.817745 
Q 211.40745 156.129304 213.719009 155.483782 
L 221.176192 153.401301 
Q 223.48775 152.755779 222.842228 150.44422 
L 221.370303 145.173386 
Q 220.724781 142.861828 218.413223 143.50735 
L 210.95604 145.589831 
Q 208.644482 146.235353 209.290004 148.546911 
z
" style="fill:#ffffff;stroke:#ffffff;stroke-linejoin:miter;"/>
    </g>
    <g clip-path="url(#pa0a254e7ec)">
     <!-- A -->
     <g transform="translate(213.204001 147.453894)rotate(-285.602837)scale(0.08 -0.08)">
      <defs>
       <path d="M 34.1875 63.1875 
L 20.796875 26.90625 
L 47.609375 26.90625 
z
M 28.609375 72.90625 
L 39.796875 72.90625 
L 67.578125 0 
L 57.328125 0 
L 50.6875 18.703125 
L 17.828125 18.703125 
L 11.1875 0 
L 0.78125 0 
z
" id="DejaVuSans-65"/>
      </defs>
      <use xlink:href="#DejaVuSans-65"/>
     </g>
    </g>
   </g>
   <g id="text_3">
    <g id="patch_4">
     <path clip-path="url(#pa0a254e7ec)" d="M 335.581853 152.586786 
L 339.800367 156.072816 
Q 341.650423 157.601636 343.179243 155.75158 
L 348.111283 149.783222 
Q 349.640103 147.933166 347.790047 146.404346 
L 343.571534 142.918316 
Q 341.721478 141.389495 340.192657 143.239551 
L 335.260618 149.207909 
Q 333.731797 151.057965 335.581853 152.586786 
z
" style="fill:#ffffff;stroke:#ffffff;stroke-linejoin:miter;"/>
    </g>
    <g clip-path="url(#pa0a254e7ec)">
     <!-- A -->
     <g transform="translate(338.170497 149.454217)rotate(-320.43088)scale(0.08 -0.08)">
      <use xlink:href="#DejaVuSans-65"/>
     </g>
    </g>
   </g>
   <g id="text_4">
    <g id="patch_5">
     <path clip-path="url(#pa0a254e7ec)" d="M 101.419846 30.812202 
L 106.203832 30.194105 
Q 108.584047 29.886578 108.27652 27.506363 
L 107.284426 19.827687 
Q 106.976899 17.447472 104.596683 17.754999 
L 99.812697 18.373096 
Q 97.432482 18.680623 97.740008 21.060838 
L 98.732103 28.739514 
Q 99.03963 31.119729 101.419846 30.812202 
z
" style="fill:#ffffff;stroke:#ffffff;stroke-linejoin:miter;"/>
    </g>
    <g clip-path="url(#pa0a254e7ec)">
     <!-- P -->
     <g transform="translate(100.899132 26.781952)rotate(-7.361905)scale(0.08 -0.08)">
      <defs>
       <path d="M 19.671875 64.796875 
L 19.671875 37.40625 
L 32.078125 37.40625 
Q 38.96875 37.40625 42.71875 40.96875 
Q 46.484375 44.53125 46.484375 51.125 
Q 46.484375 57.671875 42.71875 61.234375 
Q 38.96875 64.796875 32.078125 64.796875 
z
M 9.8125 72.90625 
L 32.078125 72.90625 
Q 44.34375 72.90625 50.609375 67.359375 
Q 56.890625 61.8125 56.890625 51.125 
Q 56.890625 40.328125 50.609375 34.8125 
Q 44.34375 29.296875 32.078125 29.296875 
L 19.671875 29.296875 
L 19.671875 0 
L 9.8125 0 
z
" id="DejaVuSans-80"/>
      </defs>
      <use xlink:href="#DejaVuSans-80"/>
     </g>
    </g>
   </g>
   <g id="text_5">
    <g id="patch_6">
     <path clip-path="url(#pa0a254e7ec)" d="M 107.236284 160.127326 
L 109.827552 155.307203 
Q 110.96397 153.193308 108.850074 152.05689 
L 102.030558 148.390761 
Q 99.916662 147.254343 98.780245 149.368239 
L 96.188976 154.188362 
Q 95.052559 156.302258 97.166455 157.438675 
L 103.985971 161.104805 
Q 106.099867 162.241222 107.236284 160.127326 
z
" style="fill:#ffffff;stroke:#ffffff;stroke-linejoin:miter;"/>
    </g>
    <g clip-path="url(#pa0a254e7ec)">
     <!-- A -->
     <g transform="translate(103.656974 158.203112)rotate(-61.737801)scale(0.08 -0.08)">
      <use xlink:href="#DejaVuSans-65"/>
     </g>
    </g>
   </g>
   <g id="text_6">
    <g id="patch_7">
     <path clip-path="url(#pa0a254e7ec)" d="M 71.613048 283.298578 
L 71.613048 317.106078 
Q 71.613048 319.506078 74.013048 319.506078 
L 81.755548 319.506078 
Q 84.155548 319.506078 84.155548 317.106078 
L 84.155548 283.298578 
Q 84.155548 280.898578 81.755548 280.898578 
L 74.013048 280.898578 
Q 71.613048 280.898578 71.613048 283.298578 
z
" style="fill:#ffffff;stroke:#ffffff;stroke-linejoin:miter;"/>
    </g>
    <g clip-path="url(#pa0a254e7ec)">
     <!-- Terminal -->
     <g transform="translate(75.676798 283.298578)rotate(-270)scale(0.08 -0.08)">
      <defs>
       <path d="M -0.296875 72.90625 
L 61.375 72.90625 
L 61.375 64.59375 
L 35.5 64.59375 
L 35.5 0 
L 25.59375 0 
L 25.59375 64.59375 
L -0.296875 64.59375 
z
" id="DejaVuSans-84"/>
       <path d="M 56.203125 29.59375 
L 56.203125 25.203125 
L 14.890625 25.203125 
Q 15.484375 15.921875 20.484375 11.0625 
Q 25.484375 6.203125 34.421875 6.203125 
Q 39.59375 6.203125 44.453125 7.46875 
Q 49.3125 8.734375 54.109375 11.28125 
L 54.109375 2.78125 
Q 49.265625 0.734375 44.1875 -0.34375 
Q 39.109375 -1.421875 33.890625 -1.421875 
Q 20.796875 -1.421875 13.15625 6.1875 
Q 5.515625 13.8125 5.515625 26.8125 
Q 5.515625 40.234375 12.765625 48.109375 
Q 20.015625 56 32.328125 56 
Q 43.359375 56 49.78125 48.890625 
Q 56.203125 41.796875 56.203125 29.59375 
z
M 47.21875 32.234375 
Q 47.125 39.59375 43.09375 43.984375 
Q 39.0625 48.390625 32.421875 48.390625 
Q 24.90625 48.390625 20.390625 44.140625 
Q 15.875 39.890625 15.1875 32.171875 
z
" id="DejaVuSans-101"/>
       <path d="M 41.109375 46.296875 
Q 39.59375 47.171875 37.8125 47.578125 
Q 36.03125 48 33.890625 48 
Q 26.265625 48 22.1875 43.046875 
Q 18.109375 38.09375 18.109375 28.8125 
L 18.109375 0 
L 9.078125 0 
L 9.078125 54.6875 
L 18.109375 54.6875 
L 18.109375 46.1875 
Q 20.953125 51.171875 25.484375 53.578125 
Q 30.03125 56 36.53125 56 
Q 37.453125 56 38.578125 55.875 
Q 39.703125 55.765625 41.0625 55.515625 
z
" id="DejaVuSans-114"/>
       <path d="M 52 44.1875 
Q 55.375 50.25 60.0625 53.125 
Q 64.75 56 71.09375 56 
Q 79.640625 56 84.28125 50.015625 
Q 88.921875 44.046875 88.921875 33.015625 
L 88.921875 0 
L 79.890625 0 
L 79.890625 32.71875 
Q 79.890625 40.578125 77.09375 44.375 
Q 74.3125 48.1875 68.609375 48.1875 
Q 61.625 48.1875 57.5625 43.546875 
Q 53.515625 38.921875 53.515625 30.90625 
L 53.515625 0 
L 44.484375 0 
L 44.484375 32.71875 
Q 44.484375 40.625 41.703125 44.40625 
Q 38.921875 48.1875 33.109375 48.1875 
Q 26.21875 48.1875 22.15625 43.53125 
Q 18.109375 38.875 18.109375 30.90625 
L 18.109375 0 
L 9.078125 0 
L 9.078125 54.6875 
L 18.109375 54.6875 
L 18.109375 46.1875 
Q 21.1875 51.21875 25.484375 53.609375 
Q 29.78125 56 35.6875 56 
Q 41.65625 56 45.828125 52.96875 
Q 50 49.953125 52 44.1875 
z
" id="DejaVuSans-109"/>
       <path d="M 9.421875 54.6875 
L 18.40625 54.6875 
L 18.40625 0 
L 9.421875 0 
z
M 9.421875 75.984375 
L 18.40625 75.984375 
L 18.40625 64.59375 
L 9.421875 64.59375 
z
" id="DejaVuSans-105"/>
       <path d="M 54.890625 33.015625 
L 54.890625 0 
L 45.90625 0 
L 45.90625 32.71875 
Q 45.90625 40.484375 42.875 44.328125 
Q 39.84375 48.1875 33.796875 48.1875 
Q 26.515625 48.1875 22.3125 43.546875 
Q 18.109375 38.921875 18.109375 30.90625 
L 18.109375 0 
L 9.078125 0 
L 9.078125 54.6875 
L 18.109375 54.6875 
L 18.109375 46.1875 
Q 21.34375 51.125 25.703125 53.5625 
Q 30.078125 56 35.796875 56 
Q 45.21875 56 50.046875 50.171875 
Q 54.890625 44.34375 54.890625 33.015625 
z
" id="DejaVuSans-110"/>
       <path d="M 34.28125 27.484375 
Q 23.390625 27.484375 19.1875 25 
Q 14.984375 22.515625 14.984375 16.5 
Q 14.984375 11.71875 18.140625 8.90625 
Q 21.296875 6.109375 26.703125 6.109375 
Q 34.1875 6.109375 38.703125 11.40625 
Q 43.21875 16.703125 43.21875 25.484375 
L 43.21875 27.484375 
z
M 52.203125 31.203125 
L 52.203125 0 
L 43.21875 0 
L 43.21875 8.296875 
Q 40.140625 3.328125 35.546875 0.953125 
Q 30.953125 -1.421875 24.3125 -1.421875 
Q 15.921875 -1.421875 10.953125 3.296875 
Q 6 8.015625 6 15.921875 
Q 6 25.140625 12.171875 29.828125 
Q 18.359375 34.515625 30.609375 34.515625 
L 43.21875 34.515625 
L 43.21875 35.40625 
Q 43.21875 41.609375 39.140625 45 
Q 35.0625 48.390625 27.6875 48.390625 
Q 23 48.390625 18.546875 47.265625 
Q 14.109375 46.140625 10.015625 43.890625 
L 10.015625 52.203125 
Q 14.9375 54.109375 19.578125 55.046875 
Q 24.21875 56 28.609375 56 
Q 40.484375 56 46.34375 49.84375 
Q 52.203125 43.703125 52.203125 31.203125 
z
" id="DejaVuSans-97"/>
       <path d="M 9.421875 75.984375 
L 18.40625 75.984375 
L 18.40625 0 
L 9.421875 0 
z
" id="DejaVuSans-108"/>
      </defs>
      <use xlink:href="#DejaVuSans-84"/>
      <use x="44.083984" xlink:href="#DejaVuSans-101"/>
      <use x="105.607422" xlink:href="#DejaVuSans-114"/>
      <use x="144.970703" xlink:href="#DejaVuSans-109"/>
      <use x="242.382812" xlink:href="#DejaVuSans-105"/>
      <use x="270.166016" xlink:href="#DejaVuSans-110"/>
      <use x="333.544922" xlink:href="#DejaVuSans-97"/>
      <use x="394.824219" xlink:href="#DejaVuSans-108"/>
     </g>
    </g>
   </g>
   <g id="text_7">
    <g id="patch_8">
     <path clip-path="url(#pa0a254e7ec)" d="M 188.946023 296.157949 
L 193.983441 295.736716 
Q 196.375094 295.536724 196.175102 293.145071 
L 195.52992 285.4295 
Q 195.329928 283.037847 192.938275 283.237839 
L 187.900856 283.659072 
Q 185.509203 283.859064 185.709195 286.250717 
L 186.354378 293.966289 
Q 186.55437 296.357941 188.946023 296.157949 
z
" style="fill:#ffffff;stroke:#ffffff;stroke-linejoin:miter;"/>
    </g>
    <g clip-path="url(#pa0a254e7ec)">
     <!-- E -->
     <g transform="translate(188.60739 292.108333)rotate(-4.78)scale(0.08 -0.08)">
      <defs>
       <path d="M 9.8125 72.90625 
L 55.90625 72.90625 
L 55.90625 64.59375 
L 19.671875 64.59375 
L 19.671875 43.015625 
L 54.390625 43.015625 
L 54.390625 34.71875 
L 19.671875 34.71875 
L 19.671875 8.296875 
L 56.78125 8.296875 
L 56.78125 0 
L 9.8125 0 
z
" id="DejaVuSans-69"/>
      </defs>
      <use xlink:href="#DejaVuSans-69"/>
     </g>
    </g>
   </g>
   <g id="text_8">
    <g id="patch_9">
     <path clip-path="url(#pa0a254e7ec)" d="M 214.428456 296.257993 
L 219.435067 295.560232 
Q 221.812093 295.22895 221.480811 292.851924 
L 220.412083 285.183539 
Q 220.080802 282.806513 217.703776 283.137795 
L 212.697165 283.835556 
Q 210.320139 284.166838 210.65142 286.543864 
L 211.720148 294.212249 
Q 212.05143 296.589275 214.428456 296.257993 
z
" style="fill:#ffffff;stroke:#ffffff;stroke-linejoin:miter;"/>
    </g>
    <g clip-path="url(#pa0a254e7ec)">
     <!-- E -->
     <g transform="translate(213.86752 292.233144)rotate(-7.934095)scale(0.08 -0.08)">
      <use xlink:href="#DejaVuSans-69"/>
     </g>
    </g>
   </g>
   <g id="text_9">
    <g id="patch_10">
     <path clip-path="url(#pa0a254e7ec)" d="M 241.032235 296.561218 
L 246.186139 294.406349 
Q 248.400392 293.480561 247.474604 291.266308 
L 244.487972 284.123035 
Q 243.562184 281.908782 241.347931 282.834571 
L 236.194026 284.989439 
Q 233.979773 285.915228 234.905562 288.129481 
L 237.892193 295.272753 
Q 238.817982 297.487006 241.032235 296.561218 
z
" style="fill:#ffffff;stroke:#ffffff;stroke-linejoin:miter;"/>
    </g>
    <g clip-path="url(#pa0a254e7ec)">
     <!-- C -->
     <g transform="translate(239.464663 292.81198)rotate(-22.690006)scale(0.08 -0.08)">
      <defs>
       <path d="M 64.40625 67.28125 
L 64.40625 56.890625 
Q 59.421875 61.53125 53.78125 63.8125 
Q 48.140625 66.109375 41.796875 66.109375 
Q 29.296875 66.109375 22.65625 58.46875 
Q 16.015625 50.828125 16.015625 36.375 
Q 16.015625 21.96875 22.65625 14.328125 
Q 29.296875 6.6875 41.796875 6.6875 
Q 48.140625 6.6875 53.78125 8.984375 
Q 59.421875 11.28125 64.40625 15.921875 
L 64.40625 5.609375 
Q 59.234375 2.09375 53.4375 0.328125 
Q 47.65625 -1.421875 41.21875 -1.421875 
Q 24.65625 -1.421875 15.125 8.703125 
Q 5.609375 18.84375 5.609375 36.375 
Q 5.609375 53.953125 15.125 64.078125 
Q 24.65625 74.21875 41.21875 74.21875 
Q 47.75 74.21875 53.53125 72.484375 
Q 59.328125 70.75 64.40625 67.28125 
z
" id="DejaVuSans-67"/>
      </defs>
      <use xlink:href="#DejaVuSans-67"/>
     </g>
    </g>
   </g>
   <g id="text_10">
    <g id="patch_11">
     <path clip-path="url(#pa0a254e7ec)" d="M 261.317993 294.406349 
L 266.471898 296.561218 
Q 268.686151 297.487006 269.611939 295.272753 
L 272.59857 288.129481 
Q 273.524359 285.915228 271.310106 284.989439 
L 266.156201 282.834571 
Q 263.941949 281.908782 263.01616 284.123035 
L 260.029529 291.266308 
Q 259.10374 293.480561 261.317993 294.406349 
z
" style="fill:#ffffff;stroke:#ffffff;stroke-linejoin:miter;"/>
    </g>
    <g clip-path="url(#pa0a254e7ec)">
     <!-- C -->
     <g transform="translate(262.885565 290.657111)rotate(-337.309994)scale(0.08 -0.08)">
      <use xlink:href="#DejaVuSans-67"/>
     </g>
    </g>
   </g>
   <g id="text_11">
    <g id="patch_12">
     <path clip-path="url(#pa0a254e7ec)" d="M 288.069066 295.560232 
L 293.075677 296.257993 
Q 295.452703 296.589275 295.783984 294.212249 
L 296.852712 286.543864 
Q 297.183993 284.166838 294.806967 283.835556 
L 289.800356 283.137795 
Q 287.42333 282.806513 287.092049 285.183539 
L 286.023321 292.851924 
Q 285.69204 295.22895 288.069066 295.560232 
z
" style="fill:#ffffff;stroke:#ffffff;stroke-linejoin:miter;"/>
    </g>
    <g clip-path="url(#pa0a254e7ec)">
     <!-- E -->
     <g transform="translate(288.630001 291.535382)rotate(-352.065905)scale(0.08 -0.08)">
      <use xlink:href="#DejaVuSans-69"/>
     </g>
    </g>
   </g>
   <g id="text_12">
    <g id="patch_13">
     <path clip-path="url(#pa0a254e7ec)" d="M 313.25599 295.714582 
L 318.822811 296.180084 
Q 321.214464 296.380076 321.414456 293.988423 
L 322.059638 286.272851 
Q 322.25963 283.881199 319.867977 283.681207 
L 314.301156 283.215704 
Q 311.909503 283.015712 311.709511 285.407365 
L 311.064329 293.122937 
Q 310.864337 295.51459 313.25599 295.714582 
z
" style="fill:#ffffff;stroke:#ffffff;stroke-linejoin:miter;"/>
    </g>
    <g clip-path="url(#pa0a254e7ec)">
     <!-- C -->
     <g transform="translate(313.594622 291.664965)rotate(-355.22)scale(0.08 -0.08)">
      <use xlink:href="#DejaVuSans-67"/>
     </g>
    </g>
   </g>
   <g id="text_13">
    <g id="patch_14">
     <path clip-path="url(#pa0a254e7ec)" d="M 465.418661 296.292761 
L 470.9242 295.525465 
Q 473.301226 295.194183 472.969944 292.817157 
L 471.901217 285.148772 
Q 471.569935 282.771746 469.192909 283.103028 
L 463.68737 283.870324 
Q 461.310344 284.201605 461.641626 286.578631 
L 462.710354 294.247016 
Q 463.041635 296.624042 465.418661 296.292761 
z
" style="fill:#ffffff;stroke:#ffffff;stroke-linejoin:miter;"/>
    </g>
    <g clip-path="url(#pa0a254e7ec)">
     <!-- R -->
     <g transform="translate(464.857726 292.267911)rotate(-7.934095)scale(0.08 -0.08)">
      <defs>
       <path d="M 44.390625 34.1875 
Q 47.5625 33.109375 50.5625 29.59375 
Q 53.5625 26.078125 56.59375 19.921875 
L 66.609375 0 
L 56 0 
L 46.6875 18.703125 
Q 43.0625 26.03125 39.671875 28.421875 
Q 36.28125 30.8125 30.421875 30.8125 
L 19.671875 30.8125 
L 19.671875 0 
L 9.8125 0 
L 9.8125 72.90625 
L 32.078125 72.90625 
Q 44.578125 72.90625 50.734375 67.671875 
Q 56.890625 62.453125 56.890625 51.90625 
Q 56.890625 45.015625 53.6875 40.46875 
Q 50.484375 35.9375 44.390625 34.1875 
z
M 19.671875 64.796875 
L 19.671875 38.921875 
L 32.078125 38.921875 
Q 39.203125 38.921875 42.84375 42.21875 
Q 46.484375 45.515625 46.484375 51.90625 
Q 46.484375 58.296875 42.84375 61.546875 
Q 39.203125 64.796875 32.078125 64.796875 
z
" id="DejaVuSans-82"/>
      </defs>
      <use xlink:href="#DejaVuSans-82"/>
     </g>
    </g>
   </g>
   <g id="text_14">
    <g id="patch_15">
     <path clip-path="url(#pa0a254e7ec)" d="M 492.516971 296.458754 
L 497.180741 294.508812 
Q 499.394994 293.583024 498.469206 291.368771 
L 495.482574 284.225499 
Q 494.556786 282.011246 492.342533 282.937034 
L 487.678763 284.886976 
Q 485.46451 285.812764 486.390298 288.027017 
L 489.37693 295.170289 
Q 490.302718 297.384542 492.516971 296.458754 
z
" style="fill:#ffffff;stroke:#ffffff;stroke-linejoin:miter;"/>
    </g>
    <g clip-path="url(#pa0a254e7ec)">
     <!-- E -->
     <g transform="translate(490.949399 292.709516)rotate(-22.690006)scale(0.08 -0.08)">
      <use xlink:href="#DejaVuSans-69"/>
     </g>
    </g>
   </g>
   <g id="text_15">
    <g id="patch_16">
     <path clip-path="url(#pa0a254e7ec)" d="M 512.557663 294.406349 
L 517.711567 296.561218 
Q 519.92582 297.487006 520.851608 295.272753 
L 523.83824 288.129481 
Q 524.764028 285.915228 522.549775 284.989439 
L 517.395871 282.834571 
Q 515.181618 281.908782 514.25583 284.123035 
L 511.269198 291.266308 
Q 510.34341 293.480561 512.557663 294.406349 
z
" style="fill:#ffffff;stroke:#ffffff;stroke-linejoin:miter;"/>
    </g>
    <g clip-path="url(#pa0a254e7ec)">
     <!-- C -->
     <g transform="translate(514.125234 290.657111)rotate(-337.309994)scale(0.08 -0.08)">
      <use xlink:href="#DejaVuSans-67"/>
     </g>
    </g>
   </g>
   <g id="text_16">
    <g id="patch_17">
     <path clip-path="url(#pa0a254e7ec)" d="M 538.912564 295.505018 
L 544.711517 296.313207 
Q 547.088543 296.644488 547.419825 294.267462 
L 548.488552 286.599078 
Q 548.819834 284.222052 546.442808 283.89077 
L 540.643855 283.082581 
Q 538.266829 282.7513 537.935547 285.128326 
L 536.86682 292.796711 
Q 536.535538 295.173737 538.912564 295.505018 
z
" style="fill:#ffffff;stroke:#ffffff;stroke-linejoin:miter;"/>
    </g>
    <g clip-path="url(#pa0a254e7ec)">
     <!-- U -->
     <g transform="translate(539.4735 291.480168)rotate(-352.065905)scale(0.08 -0.08)">
      <defs>
       <path d="M 8.6875 72.90625 
L 18.609375 72.90625 
L 18.609375 28.609375 
Q 18.609375 16.890625 22.84375 11.734375 
Q 27.09375 6.59375 36.625 6.59375 
Q 46.09375 6.59375 50.34375 11.734375 
Q 54.59375 16.890625 54.59375 28.609375 
L 54.59375 72.90625 
L 64.5 72.90625 
L 64.5 27.390625 
Q 64.5 13.140625 57.4375 5.859375 
Q 50.390625 -1.421875 36.625 -1.421875 
Q 22.796875 -1.421875 15.734375 5.859375 
Q 8.6875 13.140625 8.6875 27.390625 
z
" id="DejaVuSans-85"/>
      </defs>
      <use xlink:href="#DejaVuSans-85"/>
     </g>
    </g>
   </g>
   <g id="text_17">
    <g id="patch_18">
     <path clip-path="url(#pa0a254e7ec)" d="M 21.365114 40.946389 
L 21.365114 45.770139 
Q 21.365114 48.170139 23.765114 48.170139 
L 31.507614 48.170139 
Q 33.907614 48.170139 33.907614 45.770139 
L 33.907614 40.946389 
Q 33.907614 38.546389 31.507614 38.546389 
L 23.765114 38.546389 
Q 21.365114 38.546389 21.365114 40.946389 
z
" style="fill:#ffffff;stroke:#ffffff;stroke-linejoin:miter;"/>
    </g>
    <g clip-path="url(#pa0a254e7ec)">
     <!-- P -->
     <g transform="translate(25.428864 40.946389)rotate(-270)scale(0.08 -0.08)">
      <use xlink:href="#DejaVuSans-80"/>
     </g>
    </g>
   </g>
   <g id="text_18">
    <g id="patch_19">
     <path clip-path="url(#pa0a254e7ec)" d="M 121.860981 283.298578 
L 121.860981 317.106078 
Q 121.860981 319.506078 124.260981 319.506078 
L 132.003481 319.506078 
Q 134.403481 319.506078 134.403481 317.106078 
L 134.403481 283.298578 
Q 134.403481 280.898578 132.003481 280.898578 
L 124.260981 280.898578 
Q 121.860981 280.898578 121.860981 283.298578 
z
" style="fill:#ffffff;stroke:#ffffff;stroke-linejoin:miter;"/>
    </g>
    <g clip-path="url(#pa0a254e7ec)">
     <!-- Terminal -->
     <g transform="translate(125.924731 283.298578)rotate(-270)scale(0.08 -0.08)">
      <use xlink:href="#DejaVuSans-84"/>
      <use x="44.083984" xlink:href="#DejaVuSans-101"/>
      <use x="105.607422" xlink:href="#DejaVuSans-114"/>
      <use x="144.970703" xlink:href="#DejaVuSans-109"/>
      <use x="242.382812" xlink:href="#DejaVuSans-105"/>
      <use x="270.166016" xlink:href="#DejaVuSans-110"/>
      <use x="333.544922" xlink:href="#DejaVuSans-97"/>
      <use x="394.824219" xlink:href="#DejaVuSans-108"/>
     </g>
    </g>
   </g>
   <g id="text_19">
    <g id="patch_20">
     <path clip-path="url(#pa0a254e7ec)" d="M 172.108915 283.298578 
L 172.108915 317.106078 
Q 172.108915 319.506078 174.508915 319.506078 
L 182.251415 319.506078 
Q 184.651415 319.506078 184.651415 317.106078 
L 184.651415 283.298578 
Q 184.651415 280.898578 182.251415 280.898578 
L 174.508915 280.898578 
Q 172.108915 280.898578 172.108915 283.298578 
z
" style="fill:#ffffff;stroke:#ffffff;stroke-linejoin:miter;"/>
    </g>
    <g clip-path="url(#pa0a254e7ec)">
     <!-- Terminal -->
     <g transform="translate(176.172665 283.298578)rotate(-270)scale(0.08 -0.08)">
      <use xlink:href="#DejaVuSans-84"/>
      <use x="44.083984" xlink:href="#DejaVuSans-101"/>
      <use x="105.607422" xlink:href="#DejaVuSans-114"/>
      <use x="144.970703" xlink:href="#DejaVuSans-109"/>
      <use x="242.382812" xlink:href="#DejaVuSans-105"/>
      <use x="270.166016" xlink:href="#DejaVuSans-110"/>
      <use x="333.544922" xlink:href="#DejaVuSans-97"/>
      <use x="394.824219" xlink:href="#DejaVuSans-108"/>
     </g>
    </g>
   </g>
   <g id="text_20">
    <g id="patch_21">
     <path clip-path="url(#pa0a254e7ec)" d="M 222.356849 283.298578 
L 222.356849 317.106078 
Q 222.356849 319.506078 224.756849 319.506078 
L 232.499349 319.506078 
Q 234.899349 319.506078 234.899349 317.106078 
L 234.899349 283.298578 
Q 234.899349 280.898578 232.499349 280.898578 
L 224.756849 280.898578 
Q 222.356849 280.898578 222.356849 283.298578 
z
" style="fill:#ffffff;stroke:#ffffff;stroke-linejoin:miter;"/>
    </g>
    <g clip-path="url(#pa0a254e7ec)">
     <!-- Terminal -->
     <g transform="translate(226.420599 283.298578)rotate(-270)scale(0.08 -0.08)">
      <use xlink:href="#DejaVuSans-84"/>
      <use x="44.083984" xlink:href="#DejaVuSans-101"/>
      <use x="105.607422" xlink:href="#DejaVuSans-114"/>
      <use x="144.970703" xlink:href="#DejaVuSans-109"/>
      <use x="242.382812" xlink:href="#DejaVuSans-105"/>
      <use x="270.166016" xlink:href="#DejaVuSans-110"/>
      <use x="333.544922" xlink:href="#DejaVuSans-97"/>
      <use x="394.824219" xlink:href="#DejaVuSans-108"/>
     </g>
    </g>
   </g>
   <g id="text_21">
    <g id="patch_22">
     <path clip-path="url(#pa0a254e7ec)" d="M 272.604783 283.298578 
L 272.604783 317.106078 
Q 272.604783 319.506078 275.004783 319.506078 
L 282.747283 319.506078 
Q 285.147283 319.506078 285.147283 317.106078 
L 285.147283 283.298578 
Q 285.147283 280.898578 282.747283 280.898578 
L 275.004783 280.898578 
Q 272.604783 280.898578 272.604783 283.298578 
z
" style="fill:#ffffff;stroke:#ffffff;stroke-linejoin:miter;"/>
    </g>
    <g clip-path="url(#pa0a254e7ec)">
     <!-- Terminal -->
     <g transform="translate(276.668533 283.298578)rotate(-270)scale(0.08 -0.08)">
      <use xlink:href="#DejaVuSans-84"/>
      <use x="44.083984" xlink:href="#DejaVuSans-101"/>
      <use x="105.607422" xlink:href="#DejaVuSans-114"/>
      <use x="144.970703" xlink:href="#DejaVuSans-109"/>
      <use x="242.382812" xlink:href="#DejaVuSans-105"/>
      <use x="270.166016" xlink:href="#DejaVuSans-110"/>
      <use x="333.544922" xlink:href="#DejaVuSans-97"/>
      <use x="394.824219" xlink:href="#DejaVuSans-108"/>
     </g>
    </g>
   </g>
   <g id="text_22">
    <g id="patch_23">
     <path clip-path="url(#pa0a254e7ec)" d="M 322.852717 283.298578 
L 322.852717 317.106078 
Q 322.852717 319.506078 325.252717 319.506078 
L 332.995217 319.506078 
Q 335.395217 319.506078 335.395217 317.106078 
L 335.395217 283.298578 
Q 335.395217 280.898578 332.995217 280.898578 
L 325.252717 280.898578 
Q 322.852717 280.898578 322.852717 283.298578 
z
" style="fill:#ffffff;stroke:#ffffff;stroke-linejoin:miter;"/>
    </g>
    <g clip-path="url(#pa0a254e7ec)">
     <!-- Terminal -->
     <g transform="translate(326.916467 283.298578)rotate(-270)scale(0.08 -0.08)">
      <use xlink:href="#DejaVuSans-84"/>
      <use x="44.083984" xlink:href="#DejaVuSans-101"/>
      <use x="105.607422" xlink:href="#DejaVuSans-114"/>
      <use x="144.970703" xlink:href="#DejaVuSans-109"/>
      <use x="242.382812" xlink:href="#DejaVuSans-105"/>
      <use x="270.166016" xlink:href="#DejaVuSans-110"/>
      <use x="333.544922" xlink:href="#DejaVuSans-97"/>
      <use x="394.824219" xlink:href="#DejaVuSans-108"/>
     </g>
    </g>
   </g>
   <g id="text_23">
    <g id="patch_24">
     <path clip-path="url(#pa0a254e7ec)" d="M 373.100651 283.298578 
L 373.100651 317.106078 
Q 373.100651 319.506078 375.500651 319.506078 
L 383.243151 319.506078 
Q 385.643151 319.506078 385.643151 317.106078 
L 385.643151 283.298578 
Q 385.643151 280.898578 383.243151 280.898578 
L 375.500651 280.898578 
Q 373.100651 280.898578 373.100651 283.298578 
z
" style="fill:#ffffff;stroke:#ffffff;stroke-linejoin:miter;"/>
    </g>
    <g clip-path="url(#pa0a254e7ec)">
     <!-- Terminal -->
     <g transform="translate(377.164401 283.298578)rotate(-270)scale(0.08 -0.08)">
      <use xlink:href="#DejaVuSans-84"/>
      <use x="44.083984" xlink:href="#DejaVuSans-101"/>
      <use x="105.607422" xlink:href="#DejaVuSans-114"/>
      <use x="144.970703" xlink:href="#DejaVuSans-109"/>
      <use x="242.382812" xlink:href="#DejaVuSans-105"/>
      <use x="270.166016" xlink:href="#DejaVuSans-110"/>
      <use x="333.544922" xlink:href="#DejaVuSans-97"/>
      <use x="394.824219" xlink:href="#DejaVuSans-108"/>
     </g>
    </g>
   </g>
   <g id="text_24">
    <g id="patch_25">
     <path clip-path="url(#pa0a254e7ec)" d="M 423.348585 283.298578 
L 423.348585 317.106078 
Q 423.348585 319.506078 425.748585 319.506078 
L 433.491085 319.506078 
Q 435.891085 319.506078 435.891085 317.106078 
L 435.891085 283.298578 
Q 435.891085 280.898578 433.491085 280.898578 
L 425.748585 280.898578 
Q 423.348585 280.898578 423.348585 283.298578 
z
" style="fill:#ffffff;stroke:#ffffff;stroke-linejoin:miter;"/>
    </g>
    <g clip-path="url(#pa0a254e7ec)">
     <!-- Terminal -->
     <g transform="translate(427.412335 283.298578)rotate(-270)scale(0.08 -0.08)">
      <use xlink:href="#DejaVuSans-84"/>
      <use x="44.083984" xlink:href="#DejaVuSans-101"/>
      <use x="105.607422" xlink:href="#DejaVuSans-114"/>
      <use x="144.970703" xlink:href="#DejaVuSans-109"/>
      <use x="242.382812" xlink:href="#DejaVuSans-105"/>
      <use x="270.166016" xlink:href="#DejaVuSans-110"/>
      <use x="333.544922" xlink:href="#DejaVuSans-97"/>
      <use x="394.824219" xlink:href="#DejaVuSans-108"/>
     </g>
    </g>
   </g>
   <g id="text_25">
    <g id="patch_26">
     <path clip-path="url(#pa0a254e7ec)" d="M 473.596519 283.298578 
L 473.596519 317.106078 
Q 473.596519 319.506078 475.996519 319.506078 
L 483.739019 319.506078 
Q 486.139019 319.506078 486.139019 317.106078 
L 486.139019 283.298578 
Q 486.139019 280.898578 483.739019 280.898578 
L 475.996519 280.898578 
Q 473.596519 280.898578 473.596519 283.298578 
z
" style="fill:#ffffff;stroke:#ffffff;stroke-linejoin:miter;"/>
    </g>
    <g clip-path="url(#pa0a254e7ec)">
     <!-- Terminal -->
     <g transform="translate(477.660269 283.298578)rotate(-270)scale(0.08 -0.08)">
      <use xlink:href="#DejaVuSans-84"/>
      <use x="44.083984" xlink:href="#DejaVuSans-101"/>
      <use x="105.607422" xlink:href="#DejaVuSans-114"/>
      <use x="144.970703" xlink:href="#DejaVuSans-109"/>
      <use x="242.382812" xlink:href="#DejaVuSans-105"/>
      <use x="270.166016" xlink:href="#DejaVuSans-110"/>
      <use x="333.544922" xlink:href="#DejaVuSans-97"/>
      <use x="394.824219" xlink:href="#DejaVuSans-108"/>
     </g>
    </g>
   </g>
   <g id="text_26">
    <g id="patch_27">
     <path clip-path="url(#pa0a254e7ec)" d="M 523.844452 283.298578 
L 523.844452 317.106078 
Q 523.844452 319.506078 526.244452 319.506078 
L 533.986952 319.506078 
Q 536.386952 319.506078 536.386952 317.106078 
L 536.386952 283.298578 
Q 536.386952 280.898578 533.986952 280.898578 
L 526.244452 280.898578 
Q 523.844452 280.898578 523.844452 283.298578 
z
" style="fill:#ffffff;stroke:#ffffff;stroke-linejoin:miter;"/>
    </g>
    <g clip-path="url(#pa0a254e7ec)">
     <!-- Terminal -->
     <g transform="translate(527.908202 283.298578)rotate(-270)scale(0.08 -0.08)">
      <use xlink:href="#DejaVuSans-84"/>
      <use x="44.083984" xlink:href="#DejaVuSans-101"/>
      <use x="105.607422" xlink:href="#DejaVuSans-114"/>
      <use x="144.970703" xlink:href="#DejaVuSans-109"/>
      <use x="242.382812" xlink:href="#DejaVuSans-105"/>
      <use x="270.166016" xlink:href="#DejaVuSans-110"/>
      <use x="333.544922" xlink:href="#DejaVuSans-97"/>
      <use x="394.824219" xlink:href="#DejaVuSans-108"/>
     </g>
    </g>
   </g>
   <g id="text_27">
    <g id="patch_28">
     <path clip-path="url(#pa0a254e7ec)" d="M 574.092386 283.298578 
L 574.092386 317.106078 
Q 574.092386 319.506078 576.492386 319.506078 
L 584.234886 319.506078 
Q 586.634886 319.506078 586.634886 317.106078 
L 586.634886 283.298578 
Q 586.634886 280.898578 584.234886 280.898578 
L 576.492386 280.898578 
Q 574.092386 280.898578 574.092386 283.298578 
z
" style="fill:#ffffff;stroke:#ffffff;stroke-linejoin:miter;"/>
    </g>
    <g clip-path="url(#pa0a254e7ec)">
     <!-- Terminal -->
     <g transform="translate(578.156136 283.298578)rotate(-270)scale(0.08 -0.08)">
      <use xlink:href="#DejaVuSans-84"/>
      <use x="44.083984" xlink:href="#DejaVuSans-101"/>
      <use x="105.607422" xlink:href="#DejaVuSans-114"/>
      <use x="144.970703" xlink:href="#DejaVuSans-109"/>
      <use x="242.382812" xlink:href="#DejaVuSans-105"/>
      <use x="270.166016" xlink:href="#DejaVuSans-110"/>
      <use x="333.544922" xlink:href="#DejaVuSans-97"/>
      <use x="394.824219" xlink:href="#DejaVuSans-108"/>
     </g>
    </g>
   </g>
   <g id="text_28">
    <g id="patch_29">
     <path clip-path="url(#pa0a254e7ec)" d="M 21.365114 59.240842 
L 21.365114 64.064592 
Q 21.365114 66.464592 23.765114 66.464592 
L 31.507614 66.464592 
Q 33.907614 66.464592 33.907614 64.064592 
L 33.907614 59.240842 
Q 33.907614 56.840842 31.507614 56.840842 
L 23.765114 56.840842 
Q 21.365114 56.840842 21.365114 59.240842 
z
" style="fill:#ffffff;stroke:#ffffff;stroke-linejoin:miter;"/>
    </g>
    <g clip-path="url(#pa0a254e7ec)">
     <!-- P -->
     <g transform="translate(25.428864 59.240842)rotate(-270)scale(0.08 -0.08)">
      <use xlink:href="#DejaVuSans-80"/>
     </g>
    </g>
   </g>
   <g id="text_29">
    <g id="patch_30">
     <path clip-path="url(#pa0a254e7ec)" d="M 21.365114 76.799907 
L 21.365114 81.623657 
Q 21.365114 84.023657 23.765114 84.023657 
L 31.507614 84.023657 
Q 33.907614 84.023657 33.907614 81.623657 
L 33.907614 76.799907 
Q 33.907614 74.399907 31.507614 74.399907 
L 23.765114 74.399907 
Q 21.365114 74.399907 21.365114 76.799907 
z
" style="fill:#ffffff;stroke:#ffffff;stroke-linejoin:miter;"/>
    </g>
    <g clip-path="url(#pa0a254e7ec)">
     <!-- P -->
     <g transform="translate(25.428864 76.799907)rotate(-270)scale(0.08 -0.08)">
      <use xlink:href="#DejaVuSans-80"/>
     </g>
    </g>
   </g>
   <g id="text_30">
    <g id="patch_31">
     <path clip-path="url(#pa0a254e7ec)" d="M 21.365114 93.665977 
L 21.365114 98.489727 
Q 21.365114 100.889727 23.765114 100.889727 
L 31.507614 100.889727 
Q 33.907614 100.889727 33.907614 98.489727 
L 33.907614 93.665977 
Q 33.907614 91.265977 31.507614 91.265977 
L 23.765114 91.265977 
Q 21.365114 91.265977 21.365114 93.665977 
z
" style="fill:#ffffff;stroke:#ffffff;stroke-linejoin:miter;"/>
    </g>
    <g clip-path="url(#pa0a254e7ec)">
     <!-- P -->
     <g transform="translate(25.428864 93.665977)rotate(-270)scale(0.08 -0.08)">
      <use xlink:href="#DejaVuSans-80"/>
     </g>
    </g>
   </g>
   <g id="text_31">
    <g id="patch_32">
     <path clip-path="url(#pa0a254e7ec)" d="M 21.365114 109.879213 
L 21.365114 114.702963 
Q 21.365114 117.102963 23.765114 117.102963 
L 31.507614 117.102963 
Q 33.907614 117.102963 33.907614 114.702963 
L 33.907614 109.879213 
Q 33.907614 107.479213 31.507614 107.479213 
L 23.765114 107.479213 
Q 21.365114 107.479213 21.365114 109.879213 
z
" style="fill:#ffffff;stroke:#ffffff;stroke-linejoin:miter;"/>
    </g>
    <g clip-path="url(#pa0a254e7ec)">
     <!-- P -->
     <g transform="translate(25.428864 109.879213)rotate(-270)scale(0.08 -0.08)">
      <use xlink:href="#DejaVuSans-80"/>
     </g>
    </g>
   </g>
   <g id="text_32">
    <g id="patch_33">
     <path clip-path="url(#pa0a254e7ec)" d="M 21.365114 125.477733 
L 21.365114 130.301483 
Q 21.365114 132.701483 23.765114 132.701483 
L 31.507614 132.701483 
Q 33.907614 132.701483 33.907614 130.301483 
L 33.907614 125.477733 
Q 33.907614 123.077733 31.507614 123.077733 
L 23.765114 123.077733 
Q 21.365114 123.077733 21.365114 125.477733 
z
" style="fill:#ffffff;stroke:#ffffff;stroke-linejoin:miter;"/>
    </g>
    <g clip-path="url(#pa0a254e7ec)">
     <!-- P -->
     <g transform="translate(25.428864 125.477733)rotate(-270)scale(0.08 -0.08)">
      <use xlink:href="#DejaVuSans-80"/>
     </g>
    </g>
   </g>
   <g id="text_33">
    <g id="patch_34">
     <path clip-path="url(#pa0a254e7ec)" d="M 21.365114 140.4978 
L 21.365114 145.32155 
Q 21.365114 147.72155 23.765114 147.72155 
L 31.507614 147.72155 
Q 33.907614 147.72155 33.907614 145.32155 
L 33.907614 140.4978 
Q 33.907614 138.0978 31.507614 138.0978 
L 23.765114 138.0978 
Q 21.365114 138.0978 21.365114 140.4978 
z
" style="fill:#ffffff;stroke:#ffffff;stroke-linejoin:miter;"/>
    </g>
    <g clip-path="url(#pa0a254e7ec)">
     <!-- P -->
     <g transform="translate(25.428864 140.4978)rotate(-270)scale(0.08 -0.08)">
      <use xlink:href="#DejaVuSans-80"/>
     </g>
    </g>
   </g>
   <g id="text_34">
    <g id="patch_35">
     <path clip-path="url(#pa0a254e7ec)" d="M 21.365114 154.974009 
L 21.365114 159.797759 
Q 21.365114 162.197759 23.765114 162.197759 
L 31.507614 162.197759 
Q 33.907614 162.197759 33.907614 159.797759 
L 33.907614 154.974009 
Q 33.907614 152.574009 31.507614 152.574009 
L 23.765114 152.574009 
Q 21.365114 152.574009 21.365114 154.974009 
z
" style="fill:#ffffff;stroke:#ffffff;stroke-linejoin:miter;"/>
    </g>
    <g clip-path="url(#pa0a254e7ec)">
     <!-- P -->
     <g transform="translate(25.428864 154.974009)rotate(-270)scale(0.08 -0.08)">
      <use xlink:href="#DejaVuSans-80"/>
     </g>
    </g>
   </g>
   <g id="text_35">
    <g id="patch_36">
     <path clip-path="url(#pa0a254e7ec)" d="M 21.365114 168.939481 
L 21.365114 173.763231 
Q 21.365114 176.163231 23.765114 176.163231 
L 31.507614 176.163231 
Q 33.907614 176.163231 33.907614 173.763231 
L 33.907614 168.939481 
Q 33.907614 166.539481 31.507614 166.539481 
L 23.765114 166.539481 
Q 21.365114 166.539481 21.365114 168.939481 
z
" style="fill:#ffffff;stroke:#ffffff;stroke-linejoin:miter;"/>
    </g>
    <g clip-path="url(#pa0a254e7ec)">
     <!-- P -->
     <g transform="translate(25.428864 168.939481)rotate(-270)scale(0.08 -0.08)">
      <use xlink:href="#DejaVuSans-80"/>
     </g>
    </g>
   </g>
   <g id="text_36">
    <g id="patch_37">
     <path clip-path="url(#pa0a254e7ec)" d="M 21.365114 182.426058 
L 21.365114 187.249808 
Q 21.365114 189.649808 23.765114 189.649808 
L 31.507614 189.649808 
Q 33.907614 189.649808 33.907614 187.249808 
L 33.907614 182.426058 
Q 33.907614 180.026058 31.507614 180.026058 
L 23.765114 180.026058 
Q 21.365114 180.026058 21.365114 182.426058 
z
" style="fill:#ffffff;stroke:#ffffff;stroke-linejoin:miter;"/>
    </g>
    <g clip-path="url(#pa0a254e7ec)">
     <!-- P -->
     <g transform="translate(25.428864 182.426058)rotate(-270)scale(0.08 -0.08)">
      <use xlink:href="#DejaVuSans-80"/>
     </g>
    </g>
   </g>
   <g id="text_37">
    <g id="patch_38">
     <path clip-path="url(#pa0a254e7ec)" d="M 21.365114 195.464526 
L 21.365114 200.288276 
Q 21.365114 202.688276 23.765114 202.688276 
L 31.507614 202.688276 
Q 33.907614 202.688276 33.907614 200.288276 
L 33.907614 195.464526 
Q 33.907614 193.064526 31.507614 193.064526 
L 23.765114 193.064526 
Q 21.365114 193.064526 21.365114 195.464526 
z
" style="fill:#ffffff;stroke:#ffffff;stroke-linejoin:miter;"/>
    </g>
    <g clip-path="url(#pa0a254e7ec)">
     <!-- P -->
     <g transform="translate(25.428864 195.464526)rotate(-270)scale(0.08 -0.08)">
      <use xlink:href="#DejaVuSans-80"/>
     </g>
    </g>
   </g>
   <g id="text_38">
    <g id="patch_39">
     <path clip-path="url(#pa0a254e7ec)" d="M 21.365114 208.084866 
L 21.365114 212.908616 
Q 21.365114 215.308616 23.765114 215.308616 
L 31.507614 215.308616 
Q 33.907614 215.308616 33.907614 212.908616 
L 33.907614 208.084866 
Q 33.907614 205.684866 31.507614 205.684866 
L 23.765114 205.684866 
Q 21.365114 205.684866 21.365114 208.084866 
z
" style="fill:#ffffff;stroke:#ffffff;stroke-linejoin:miter;"/>
    </g>
    <g clip-path="url(#pa0a254e7ec)">
     <!-- P -->
     <g transform="translate(25.428864 208.084866)rotate(-270)scale(0.08 -0.08)">
      <use xlink:href="#DejaVuSans-80"/>
     </g>
    </g>
   </g>
   <g id="text_39">
    <g id="patch_40">
     <path clip-path="url(#pa0a254e7ec)" d="M 21.365114 220.316551 
L 21.365114 225.140301 
Q 21.365114 227.540301 23.765114 227.540301 
L 31.507614 227.540301 
Q 33.907614 227.540301 33.907614 225.140301 
L 33.907614 220.316551 
Q 33.907614 217.916551 31.507614 217.916551 
L 23.765114 217.916551 
Q 21.365114 217.916551 21.365114 220.316551 
z
" style="fill:#ffffff;stroke:#ffffff;stroke-linejoin:miter;"/>
    </g>
    <g clip-path="url(#pa0a254e7ec)">
     <!-- P -->
     <g transform="translate(25.428864 220.316551)rotate(-270)scale(0.08 -0.08)">
      <use xlink:href="#DejaVuSans-80"/>
     </g>
    </g>
   </g>
   <g id="text_40">
    <g id="patch_41">
     <path clip-path="url(#pa0a254e7ec)" d="M 21.365114 232.188936 
L 21.365114 237.012686 
Q 21.365114 239.412686 23.765114 239.412686 
L 31.507614 239.412686 
Q 33.907614 239.412686 33.907614 237.012686 
L 33.907614 232.188936 
Q 33.907614 229.788936 31.507614 229.788936 
L 23.765114 229.788936 
Q 21.365114 229.788936 21.365114 232.188936 
z
" style="fill:#ffffff;stroke:#ffffff;stroke-linejoin:miter;"/>
    </g>
    <g clip-path="url(#pa0a254e7ec)">
     <!-- P -->
     <g transform="translate(25.428864 232.188936)rotate(-270)scale(0.08 -0.08)">
      <use xlink:href="#DejaVuSans-80"/>
     </g>
    </g>
   </g>
   <g id="text_41">
    <g id="patch_42">
     <path clip-path="url(#pa0a254e7ec)" d="M 21.365114 243.731788 
L 21.365114 248.555538 
Q 21.365114 250.955538 23.765114 250.955538 
L 31.507614 250.955538 
Q 33.907614 250.955538 33.907614 248.555538 
L 33.907614 243.731788 
Q 33.907614 241.331788 31.507614 241.331788 
L 23.765114 241.331788 
Q 21.365114 241.331788 21.365114 243.731788 
z
" style="fill:#ffffff;stroke:#ffffff;stroke-linejoin:miter;"/>
    </g>
    <g clip-path="url(#pa0a254e7ec)">
     <!-- P -->
     <g transform="translate(25.428864 243.731788)rotate(-270)scale(0.08 -0.08)">
      <use xlink:href="#DejaVuSans-80"/>
     </g>
    </g>
   </g>
   <g id="text_42">
    <g id="patch_43">
     <path clip-path="url(#pa0a254e7ec)" d="M 21.365114 254.976095 
L 21.365114 259.799845 
Q 21.365114 262.199845 23.765114 262.199845 
L 31.507614 262.199845 
Q 33.907614 262.199845 33.907614 259.799845 
L 33.907614 254.976095 
Q 33.907614 252.576095 31.507614 252.576095 
L 23.765114 252.576095 
Q 21.365114 252.576095 21.365114 254.976095 
z
" style="fill:#ffffff;stroke:#ffffff;stroke-linejoin:miter;"/>
    </g>
    <g clip-path="url(#pa0a254e7ec)">
     <!-- P -->
     <g transform="translate(25.428864 254.976095)rotate(-270)scale(0.08 -0.08)">
      <use xlink:href="#DejaVuSans-80"/>
     </g>
    </g>
   </g>
   <g id="text_43">
    <g id="patch_44">
     <path clip-path="url(#pa0a254e7ec)" d="M 21.365114 265.955416 
L 21.365114 270.779166 
Q 21.365114 273.179166 23.765114 273.179166 
L 31.507614 273.179166 
Q 33.907614 273.179166 33.907614 270.779166 
L 33.907614 265.955416 
Q 33.907614 263.555416 31.507614 263.555416 
L 23.765114 263.555416 
Q 21.365114 263.555416 21.365114 265.955416 
z
" style="fill:#ffffff;stroke:#ffffff;stroke-linejoin:miter;"/>
    </g>
    <g clip-path="url(#pa0a254e7ec)">
     <!-- P -->
     <g transform="translate(25.428864 265.955416)rotate(-270)scale(0.08 -0.08)">
      <use xlink:href="#DejaVuSans-80"/>
     </g>
    </g>
   </g>
   <g id="text_44">
    <g id="patch_45">
     <path clip-path="url(#pa0a254e7ec)" d="M 21.365114 276.708521 
L 21.365114 281.532271 
Q 21.365114 283.932271 23.765114 283.932271 
L 31.507614 283.932271 
Q 33.907614 283.932271 33.907614 281.532271 
L 33.907614 276.708521 
Q 33.907614 274.308521 31.507614 274.308521 
L 23.765114 274.308521 
Q 21.365114 274.308521 21.365114 276.708521 
z
" style="fill:#ffffff;stroke:#ffffff;stroke-linejoin:miter;"/>
    </g>
    <g clip-path="url(#pa0a254e7ec)">
     <!-- P -->
     <g transform="translate(25.428864 276.708521)rotate(-270)scale(0.08 -0.08)">
      <use xlink:href="#DejaVuSans-80"/>
     </g>
    </g>
   </g>
   <g id="text_45">
    <g id="patch_46">
     <path clip-path="url(#pa0a254e7ec)" d="M 21.365114 287.286019 
L 21.365114 292.109769 
Q 21.365114 294.509769 23.765114 294.509769 
L 31.507614 294.509769 
Q 33.907614 294.509769 33.907614 292.109769 
L 33.907614 287.286019 
Q 33.907614 284.886019 31.507614 284.886019 
L 23.765114 284.886019 
Q 21.365114 284.886019 21.365114 287.286019 
z
" style="fill:#ffffff;stroke:#ffffff;stroke-linejoin:miter;"/>
    </g>
    <g clip-path="url(#pa0a254e7ec)">
     <!-- P -->
     <g transform="translate(25.428864 287.286019)rotate(-270)scale(0.08 -0.08)">
      <use xlink:href="#DejaVuSans-80"/>
     </g>
    </g>
   </g>
   <g id="text_46">
    <g id="patch_47">
     <path clip-path="url(#pa0a254e7ec)" d="M 21.365114 283.298578 
L 21.365114 317.106078 
Q 21.365114 319.506078 23.765114 319.506078 
L 31.507614 319.506078 
Q 33.907614 319.506078 33.907614 317.106078 
L 33.907614 283.298578 
Q 33.907614 280.898578 31.507614 280.898578 
L 23.765114 280.898578 
Q 21.365114 280.898578 21.365114 283.298578 
z
" style="fill:#ffffff;stroke:#ffffff;stroke-linejoin:miter;"/>
    </g>
    <g clip-path="url(#pa0a254e7ec)">
     <!-- Terminal -->
     <g transform="translate(25.428864 283.298578)rotate(-270)scale(0.08 -0.08)">
      <use xlink:href="#DejaVuSans-84"/>
      <use x="44.083984" xlink:href="#DejaVuSans-101"/>
      <use x="105.607422" xlink:href="#DejaVuSans-114"/>
      <use x="144.970703" xlink:href="#DejaVuSans-109"/>
      <use x="242.382812" xlink:href="#DejaVuSans-105"/>
      <use x="270.166016" xlink:href="#DejaVuSans-110"/>
      <use x="333.544922" xlink:href="#DejaVuSans-97"/>
      <use x="394.824219" xlink:href="#DejaVuSans-108"/>
     </g>
    </g>
   </g>
   <g id="PathCollection_1">
    <defs>
     <path d="M 0 8.660254 
C 2.296726 8.660254 4.499694 7.747755 6.123724 6.123724 
C 7.747755 4.499694 8.660254 2.296726 8.660254 -0 
C 8.660254 -2.296726 7.747755 -4.499694 6.123724 -6.123724 
C 4.499694 -7.747755 2.296726 -8.660254 0 -8.660254 
C -2.296726 -8.660254 -4.499694 -7.747755 -6.123724 -6.123724 
C -7.747755 -4.499694 -8.660254 -2.296726 -8.660254 0 
C -8.660254 2.296726 -7.747755 4.499694 -6.123724 6.123724 
C -4.499694 7.747755 -2.296726 8.660254 0 8.660254 
z
" id="C0_0_79e9916c5e"/>
    </defs>
    <g clip-path="url(#pa0a254e7ec)">
     <use style="fill:#ffffff;stroke:#ffffff;" x="27.636364" xlink:href="#C0_0_79e9916c5e" y="305.454545"/>
    </g>
    <g clip-path="url(#pa0a254e7ec)">
     <use style="fill:#ffffff;stroke:#ffffff;" x="77.884298" xlink:href="#C0_0_79e9916c5e" y="305.454545"/>
    </g>
    <g clip-path="url(#pa0a254e7ec)">
     <use style="fill:#ffffff;stroke:#ffffff;" x="128.132231" xlink:href="#C0_0_79e9916c5e" y="305.454545"/>
    </g>
    <g clip-path="url(#pa0a254e7ec)">
     <use style="fill:#ffffff;stroke:#ffffff;" x="178.380165" xlink:href="#C0_0_79e9916c5e" y="305.454545"/>
    </g>
    <g clip-path="url(#pa0a254e7ec)">
     <use style="fill:#ffffff;stroke:#ffffff;" x="228.628099" xlink:href="#C0_0_79e9916c5e" y="305.454545"/>
    </g>
    <g clip-path="url(#pa0a254e7ec)">
     <use style="fill:#ffffff;stroke:#ffffff;" x="278.876033" xlink:href="#C0_0_79e9916c5e" y="305.454545"/>
    </g>
    <g clip-path="url(#pa0a254e7ec)">
     <use style="fill:#ffffff;stroke:#ffffff;" x="329.123967" xlink:href="#C0_0_79e9916c5e" y="305.454545"/>
    </g>
    <g clip-path="url(#pa0a254e7ec)">
     <use style="fill:#ffffff;stroke:#ffffff;" x="379.371901" xlink:href="#C0_0_79e9916c5e" y="305.454545"/>
    </g>
    <g clip-path="url(#pa0a254e7ec)">
     <use style="fill:#ffffff;stroke:#ffffff;" x="429.619835" xlink:href="#C0_0_79e9916c5e" y="305.454545"/>
    </g>
    <g clip-path="url(#pa0a254e7ec)">
     <use style="fill:#ffffff;stroke:#ffffff;" x="479.867769" xlink:href="#C0_0_79e9916c5e" y="305.454545"/>
    </g>
    <g clip-path="url(#pa0a254e7ec)">
     <use style="fill:#ffffff;stroke:#ffffff;" x="530.115702" xlink:href="#C0_0_79e9916c5e" y="305.454545"/>
    </g>
    <g clip-path="url(#pa0a254e7ec)">
     <use style="fill:#ffffff;stroke:#ffffff;" x="580.363636" xlink:href="#C0_0_79e9916c5e" y="305.454545"/>
    </g>
    <g clip-path="url(#pa0a254e7ec)">
     <use style="stroke:#000000;" x="178.380165" xlink:href="#C0_0_79e9916c5e" y="14.545455"/>
    </g>
    <g clip-path="url(#pa0a254e7ec)">
     <use style="stroke:#000000;" x="77.884298" xlink:href="#C0_0_79e9916c5e" y="294.950111"/>
    </g>
    <g clip-path="url(#pa0a254e7ec)">
     <use style="stroke:#000000;" x="253.752066" xlink:href="#C0_0_79e9916c5e" y="284.445677"/>
    </g>
    <g clip-path="url(#pa0a254e7ec)">
     <use style="stroke:#000000;" x="504.991736" xlink:href="#C0_0_79e9916c5e" y="284.445677"/>
    </g>
    <g clip-path="url(#pa0a254e7ec)">
     <use style="stroke:#000000;" x="27.636364" xlink:href="#C0_0_79e9916c5e" y="34.021746"/>
    </g>
    <g clip-path="url(#pa0a254e7ec)">
     <use style="stroke:#000000;" x="128.132231" xlink:href="#C0_0_79e9916c5e" y="294.950111"/>
    </g>
    <g clip-path="url(#pa0a254e7ec)">
     <use style="stroke:#000000;" x="178.380165" xlink:href="#C0_0_79e9916c5e" y="294.950111"/>
    </g>
    <g clip-path="url(#pa0a254e7ec)">
     <use style="stroke:#000000;" x="228.628099" xlink:href="#C0_0_79e9916c5e" y="294.950111"/>
    </g>
    <g clip-path="url(#pa0a254e7ec)">
     <use style="stroke:#000000;" x="278.876033" xlink:href="#C0_0_79e9916c5e" y="294.950111"/>
    </g>
    <g clip-path="url(#pa0a254e7ec)">
     <use style="stroke:#000000;" x="329.123967" xlink:href="#C0_0_79e9916c5e" y="294.950111"/>
    </g>
    <g clip-path="url(#pa0a254e7ec)">
     <use style="stroke:#000000;" x="379.371901" xlink:href="#C0_0_79e9916c5e" y="294.950111"/>
    </g>
    <g clip-path="url(#pa0a254e7ec)">
     <use style="stroke:#000000;" x="429.619835" xlink:href="#C0_0_79e9916c5e" y="294.950111"/>
    </g>
    <g clip-path="url(#pa0a254e7ec)">
     <use style="stroke:#000000;" x="479.867769" xlink:href="#C0_0_79e9916c5e" y="294.950111"/>
    </g>
    <g clip-path="url(#pa0a254e7ec)">
     <use style="stroke:#000000;" x="530.115702" xlink:href="#C0_0_79e9916c5e" y="294.950111"/>
    </g>
    <g clip-path="url(#pa0a254e7ec)">
     <use style="stroke:#000000;" x="580.363636" xlink:href="#C0_0_79e9916c5e" y="294.950111"/>
    </g>
    <g clip-path="url(#pa0a254e7ec)">
     <use style="stroke:#000000;" x="27.636364" xlink:href="#C0_0_79e9916c5e" y="52.694782"/>
    </g>
    <g clip-path="url(#pa0a254e7ec)">
     <use style="stroke:#000000;" x="27.636364" xlink:href="#C0_0_79e9916c5e" y="70.610651"/>
    </g>
    <g clip-path="url(#pa0a254e7ec)">
     <use style="stroke:#000000;" x="27.636364" xlink:href="#C0_0_79e9916c5e" y="87.812912"/>
    </g>
    <g clip-path="url(#pa0a254e7ec)">
     <use style="stroke:#000000;" x="27.636364" xlink:href="#C0_0_79e9916c5e" y="104.342792"/>
    </g>
    <g clip-path="url(#pa0a254e7ec)">
     <use style="stroke:#000000;" x="27.636364" xlink:href="#C0_0_79e9916c5e" y="120.239384"/>
    </g>
    <g clip-path="url(#pa0a254e7ec)">
     <use style="stroke:#000000;" x="27.636364" xlink:href="#C0_0_79e9916c5e" y="135.539832"/>
    </g>
    <g clip-path="url(#pa0a254e7ec)">
     <use style="stroke:#000000;" x="27.636364" xlink:href="#C0_0_79e9916c5e" y="150.279518"/>
    </g>
    <g clip-path="url(#pa0a254e7ec)">
     <use style="stroke:#000000;" x="27.636364" xlink:href="#C0_0_79e9916c5e" y="164.492251"/>
    </g>
    <g clip-path="url(#pa0a254e7ec)">
     <use style="stroke:#000000;" x="27.636364" xlink:href="#C0_0_79e9916c5e" y="178.210461"/>
    </g>
    <g clip-path="url(#pa0a254e7ec)">
     <use style="stroke:#000000;" x="27.636364" xlink:href="#C0_0_79e9916c5e" y="191.465405"/>
    </g>
    <g clip-path="url(#pa0a254e7ec)">
     <use style="stroke:#000000;" x="27.636364" xlink:href="#C0_0_79e9916c5e" y="204.287398"/>
    </g>
    <g clip-path="url(#pa0a254e7ec)">
     <use style="stroke:#000000;" x="27.636364" xlink:href="#C0_0_79e9916c5e" y="216.706085"/>
    </g>
    <g clip-path="url(#pa0a254e7ec)">
     <use style="stroke:#000000;" x="27.636364" xlink:href="#C0_0_79e9916c5e" y="228.750768"/>
    </g>
    <g clip-path="url(#pa0a254e7ec)">
     <use style="stroke:#000000;" x="27.636364" xlink:href="#C0_0_79e9916c5e" y="240.450853"/>
    </g>
    <g clip-path="url(#pa0a254e7ec)">
     <use style="stroke:#000000;" x="27.636364" xlink:href="#C0_0_79e9916c5e" y="251.836472"/>
    </g>
    <g clip-path="url(#pa0a254e7ec)">
     <use style="stroke:#000000;" x="27.636364" xlink:href="#C0_0_79e9916c5e" y="262.939468"/>
    </g>
    <g clip-path="url(#pa0a254e7ec)">
     <use style="stroke:#000000;" x="27.636364" xlink:href="#C0_0_79e9916c5e" y="273.795115"/>
    </g>
    <g clip-path="url(#pa0a254e7ec)">
     <use style="stroke:#000000;" x="27.636364" xlink:href="#C0_0_79e9916c5e" y="284.445677"/>
    </g>
    <g clip-path="url(#pa0a254e7ec)">
     <use style="stroke:#000000;" x="27.636364" xlink:href="#C0_0_79e9916c5e" y="294.950111"/>
    </g>
   </g>
   <g id="text_47">
    <g clip-path="url(#pa0a254e7ec)">
     <!-- Earth -->
     <g transform="translate(14.228551 308.21392)scale(0.1 -0.1)">
      <defs>
       <path d="M 18.3125 70.21875 
L 18.3125 54.6875 
L 36.8125 54.6875 
L 36.8125 47.703125 
L 18.3125 47.703125 
L 18.3125 18.015625 
Q 18.3125 11.328125 20.140625 9.421875 
Q 21.96875 7.515625 27.59375 7.515625 
L 36.8125 7.515625 
L 36.8125 0 
L 27.59375 0 
Q 17.1875 0 13.234375 3.875 
Q 9.28125 7.765625 9.28125 18.015625 
L 9.28125 47.703125 
L 2.6875 47.703125 
L 2.6875 54.6875 
L 9.28125 54.6875 
L 9.28125 70.21875 
z
" id="DejaVuSans-116"/>
       <path d="M 54.890625 33.015625 
L 54.890625 0 
L 45.90625 0 
L 45.90625 32.71875 
Q 45.90625 40.484375 42.875 44.328125 
Q 39.84375 48.1875 33.796875 48.1875 
Q 26.515625 48.1875 22.3125 43.546875 
Q 18.109375 38.921875 18.109375 30.90625 
L 18.109375 0 
L 9.078125 0 
L 9.078125 75.984375 
L 18.109375 75.984375 
L 18.109375 46.1875 
Q 21.34375 51.125 25.703125 53.5625 
Q 30.078125 56 35.796875 56 
Q 45.21875 56 50.046875 50.171875 
Q 54.890625 44.34375 54.890625 33.015625 
z
" id="DejaVuSans-104"/>
      </defs>
      <use xlink:href="#DejaVuSans-69"/>
      <use x="63.183594" xlink:href="#DejaVuSans-97"/>
      <use x="124.462891" xlink:href="#DejaVuSans-114"/>
      <use x="165.576172" xlink:href="#DejaVuSans-116"/>
      <use x="204.785156" xlink:href="#DejaVuSans-104"/>
     </g>
    </g>
   </g>
   <g id="text_48">
    <g clip-path="url(#pa0a254e7ec)">
     <!-- is -->
     <g transform="translate(73.890548 308.21392)scale(0.1 -0.1)">
      <defs>
       <path d="M 44.28125 53.078125 
L 44.28125 44.578125 
Q 40.484375 46.53125 36.375 47.5 
Q 32.28125 48.484375 27.875 48.484375 
Q 21.1875 48.484375 17.84375 46.4375 
Q 14.5 44.390625 14.5 40.28125 
Q 14.5 37.15625 16.890625 35.375 
Q 19.28125 33.59375 26.515625 31.984375 
L 29.59375 31.296875 
Q 39.15625 29.25 43.1875 25.515625 
Q 47.21875 21.78125 47.21875 15.09375 
Q 47.21875 7.46875 41.1875 3.015625 
Q 35.15625 -1.421875 24.609375 -1.421875 
Q 20.21875 -1.421875 15.453125 -0.5625 
Q 10.6875 0.296875 5.421875 2 
L 5.421875 11.28125 
Q 10.40625 8.6875 15.234375 7.390625 
Q 20.0625 6.109375 24.8125 6.109375 
Q 31.15625 6.109375 34.5625 8.28125 
Q 37.984375 10.453125 37.984375 14.40625 
Q 37.984375 18.0625 35.515625 20.015625 
Q 33.0625 21.96875 24.703125 23.78125 
L 21.578125 24.515625 
Q 13.234375 26.265625 9.515625 29.90625 
Q 5.8125 33.546875 5.8125 39.890625 
Q 5.8125 47.609375 11.28125 51.796875 
Q 16.75 56 26.8125 56 
Q 31.78125 56 36.171875 55.265625 
Q 40.578125 54.546875 44.28125 53.078125 
z
" id="DejaVuSans-115"/>
      </defs>
      <use xlink:href="#DejaVuSans-105"/>
      <use x="27.783203" xlink:href="#DejaVuSans-115"/>
     </g>
    </g>
   </g>
   <g id="text_49">
    <g clip-path="url(#pa0a254e7ec)">
     <!-- the -->
     <g transform="translate(119.926763 308.21392)scale(0.1 -0.1)">
      <use xlink:href="#DejaVuSans-116"/>
      <use x="39.208984" xlink:href="#DejaVuSans-104"/>
      <use x="102.587891" xlink:href="#DejaVuSans-101"/>
     </g>
    </g>
   </g>
   <g id="text_50">
    <g clip-path="url(#pa0a254e7ec)">
     <!-- planet -->
     <g transform="translate(162.547353 308.21392)scale(0.1 -0.1)">
      <defs>
       <path d="M 18.109375 8.203125 
L 18.109375 -20.796875 
L 9.078125 -20.796875 
L 9.078125 54.6875 
L 18.109375 54.6875 
L 18.109375 46.390625 
Q 20.953125 51.265625 25.265625 53.625 
Q 29.59375 56 35.59375 56 
Q 45.5625 56 51.78125 48.09375 
Q 58.015625 40.1875 58.015625 27.296875 
Q 58.015625 14.40625 51.78125 6.484375 
Q 45.5625 -1.421875 35.59375 -1.421875 
Q 29.59375 -1.421875 25.265625 0.953125 
Q 20.953125 3.328125 18.109375 8.203125 
z
M 48.6875 27.296875 
Q 48.6875 37.203125 44.609375 42.84375 
Q 40.53125 48.484375 33.40625 48.484375 
Q 26.265625 48.484375 22.1875 42.84375 
Q 18.109375 37.203125 18.109375 27.296875 
Q 18.109375 17.390625 22.1875 11.75 
Q 26.265625 6.109375 33.40625 6.109375 
Q 40.53125 6.109375 44.609375 11.75 
Q 48.6875 17.390625 48.6875 27.296875 
z
" id="DejaVuSans-112"/>
      </defs>
      <use xlink:href="#DejaVuSans-112"/>
      <use x="63.476562" xlink:href="#DejaVuSans-108"/>
      <use x="91.259766" xlink:href="#DejaVuSans-97"/>
      <use x="152.539062" xlink:href="#DejaVuSans-110"/>
      <use x="215.917969" xlink:href="#DejaVuSans-101"/>
      <use x="277.441406" xlink:href="#DejaVuSans-116"/>
     </g>
    </g>
   </g>
   <g id="text_51">
    <g clip-path="url(#pa0a254e7ec)">
     <!-- that -->
     <g transform="translate(218.474974 308.21392)scale(0.1 -0.1)">
      <use xlink:href="#DejaVuSans-116"/>
      <use x="39.208984" xlink:href="#DejaVuSans-104"/>
      <use x="102.587891" xlink:href="#DejaVuSans-97"/>
      <use x="163.867188" xlink:href="#DejaVuSans-116"/>
     </g>
    </g>
   </g>
   <g id="text_52">
    <g clip-path="url(#pa0a254e7ec)">
     <!-- is -->
     <g transform="translate(274.882283 308.21392)scale(0.1 -0.1)">
      <use xlink:href="#DejaVuSans-105"/>
      <use x="27.783203" xlink:href="#DejaVuSans-115"/>
     </g>
    </g>
   </g>
   <g id="text_53">
    <g clip-path="url(#pa0a254e7ec)">
     <!-- third -->
     <g transform="translate(317.463811 308.21392)scale(0.1 -0.1)">
      <defs>
       <path d="M 45.40625 46.390625 
L 45.40625 75.984375 
L 54.390625 75.984375 
L 54.390625 0 
L 45.40625 0 
L 45.40625 8.203125 
Q 42.578125 3.328125 38.25 0.953125 
Q 33.9375 -1.421875 27.875 -1.421875 
Q 17.96875 -1.421875 11.734375 6.484375 
Q 5.515625 14.40625 5.515625 27.296875 
Q 5.515625 40.1875 11.734375 48.09375 
Q 17.96875 56 27.875 56 
Q 33.9375 56 38.25 53.625 
Q 42.578125 51.265625 45.40625 46.390625 
z
M 14.796875 27.296875 
Q 14.796875 17.390625 18.875 11.75 
Q 22.953125 6.109375 30.078125 6.109375 
Q 37.203125 6.109375 41.296875 11.75 
Q 45.40625 17.390625 45.40625 27.296875 
Q 45.40625 37.203125 41.296875 42.84375 
Q 37.203125 48.484375 30.078125 48.484375 
Q 22.953125 48.484375 18.875 42.84375 
Q 14.796875 37.203125 14.796875 27.296875 
z
" id="DejaVuSans-100"/>
      </defs>
      <use xlink:href="#DejaVuSans-116"/>
      <use x="39.208984" xlink:href="#DejaVuSans-104"/>
      <use x="102.587891" xlink:href="#DejaVuSans-105"/>
      <use x="130.371094" xlink:href="#DejaVuSans-114"/>
      <use x="169.734375" xlink:href="#DejaVuSans-100"/>
     </g>
    </g>
   </g>
   <g id="text_54">
    <g clip-path="url(#pa0a254e7ec)">
     <!-- closest -->
     <g transform="translate(361.928151 308.21392)scale(0.1 -0.1)">
      <defs>
       <path d="M 48.78125 52.59375 
L 48.78125 44.1875 
Q 44.96875 46.296875 41.140625 47.34375 
Q 37.3125 48.390625 33.40625 48.390625 
Q 24.65625 48.390625 19.8125 42.84375 
Q 14.984375 37.3125 14.984375 27.296875 
Q 14.984375 17.28125 19.8125 11.734375 
Q 24.65625 6.203125 33.40625 6.203125 
Q 37.3125 6.203125 41.140625 7.25 
Q 44.96875 8.296875 48.78125 10.40625 
L 48.78125 2.09375 
Q 45.015625 0.34375 40.984375 -0.53125 
Q 36.96875 -1.421875 32.421875 -1.421875 
Q 20.0625 -1.421875 12.78125 6.34375 
Q 5.515625 14.109375 5.515625 27.296875 
Q 5.515625 40.671875 12.859375 48.328125 
Q 20.21875 56 33.015625 56 
Q 37.15625 56 41.109375 55.140625 
Q 45.0625 54.296875 48.78125 52.59375 
z
" id="DejaVuSans-99"/>
       <path d="M 30.609375 48.390625 
Q 23.390625 48.390625 19.1875 42.75 
Q 14.984375 37.109375 14.984375 27.296875 
Q 14.984375 17.484375 19.15625 11.84375 
Q 23.34375 6.203125 30.609375 6.203125 
Q 37.796875 6.203125 41.984375 11.859375 
Q 46.1875 17.53125 46.1875 27.296875 
Q 46.1875 37.015625 41.984375 42.703125 
Q 37.796875 48.390625 30.609375 48.390625 
z
M 30.609375 56 
Q 42.328125 56 49.015625 48.375 
Q 55.71875 40.765625 55.71875 27.296875 
Q 55.71875 13.875 49.015625 6.21875 
Q 42.328125 -1.421875 30.609375 -1.421875 
Q 18.84375 -1.421875 12.171875 6.21875 
Q 5.515625 13.875 5.515625 27.296875 
Q 5.515625 40.765625 12.171875 48.375 
Q 18.84375 56 30.609375 56 
z
" id="DejaVuSans-111"/>
      </defs>
      <use xlink:href="#DejaVuSans-99"/>
      <use x="54.980469" xlink:href="#DejaVuSans-108"/>
      <use x="82.763672" xlink:href="#DejaVuSans-111"/>
      <use x="143.945312" xlink:href="#DejaVuSans-115"/>
      <use x="196.044922" xlink:href="#DejaVuSans-101"/>
      <use x="257.568359" xlink:href="#DejaVuSans-115"/>
      <use x="309.667969" xlink:href="#DejaVuSans-116"/>
     </g>
    </g>
   </g>
   <g id="text_55">
    <g clip-path="url(#pa0a254e7ec)">
     <!-- to -->
     <g transform="translate(424.600303 308.21392)scale(0.1 -0.1)">
      <use xlink:href="#DejaVuSans-116"/>
      <use x="39.208984" xlink:href="#DejaVuSans-111"/>
     </g>
    </g>
   </g>
   <g id="text_56">
    <g clip-path="url(#pa0a254e7ec)">
     <!-- the -->
     <g transform="translate(471.6623 308.21392)scale(0.1 -0.1)">
      <use xlink:href="#DejaVuSans-116"/>
      <use x="39.208984" xlink:href="#DejaVuSans-104"/>
      <use x="102.587891" xlink:href="#DejaVuSans-101"/>
     </g>
    </g>
   </g>
   <g id="text_57">
    <g clip-path="url(#pa0a254e7ec)">
     <!-- Sun -->
     <g transform="translate(520.603984 308.21392)scale(0.1 -0.1)">
      <defs>
       <path d="M 53.515625 70.515625 
L 53.515625 60.890625 
Q 47.90625 63.578125 42.921875 64.890625 
Q 37.9375 66.21875 33.296875 66.21875 
Q 25.25 66.21875 20.875 63.09375 
Q 16.5 59.96875 16.5 54.203125 
Q 16.5 49.359375 19.40625 46.890625 
Q 22.3125 44.4375 30.421875 42.921875 
L 36.375 41.703125 
Q 47.40625 39.59375 52.65625 34.296875 
Q 57.90625 29 57.90625 20.125 
Q 57.90625 9.515625 50.796875 4.046875 
Q 43.703125 -1.421875 29.984375 -1.421875 
Q 24.8125 -1.421875 18.96875 -0.25 
Q 13.140625 0.921875 6.890625 3.21875 
L 6.890625 13.375 
Q 12.890625 10.015625 18.65625 8.296875 
Q 24.421875 6.59375 29.984375 6.59375 
Q 38.421875 6.59375 43.015625 9.90625 
Q 47.609375 13.234375 47.609375 19.390625 
Q 47.609375 24.75 44.3125 27.78125 
Q 41.015625 30.8125 33.5 32.328125 
L 27.484375 33.5 
Q 16.453125 35.6875 11.515625 40.375 
Q 6.59375 45.0625 6.59375 53.421875 
Q 6.59375 63.09375 13.40625 68.65625 
Q 20.21875 74.21875 32.171875 74.21875 
Q 37.3125 74.21875 42.625 73.28125 
Q 47.953125 72.359375 53.515625 70.515625 
z
" id="DejaVuSans-83"/>
       <path d="M 8.5 21.578125 
L 8.5 54.6875 
L 17.484375 54.6875 
L 17.484375 21.921875 
Q 17.484375 14.15625 20.5 10.265625 
Q 23.53125 6.390625 29.59375 6.390625 
Q 36.859375 6.390625 41.078125 11.03125 
Q 45.3125 15.671875 45.3125 23.6875 
L 45.3125 54.6875 
L 54.296875 54.6875 
L 54.296875 0 
L 45.3125 0 
L 45.3125 8.40625 
Q 42.046875 3.421875 37.71875 1 
Q 33.40625 -1.421875 27.6875 -1.421875 
Q 18.265625 -1.421875 13.375 4.4375 
Q 8.5 10.296875 8.5 21.578125 
z
M 31.109375 56 
z
" id="DejaVuSans-117"/>
      </defs>
      <use xlink:href="#DejaVuSans-83"/>
      <use x="63.476562" xlink:href="#DejaVuSans-117"/>
      <use x="126.855469" xlink:href="#DejaVuSans-110"/>
     </g>
    </g>
   </g>
   <g id="text_58">
    <g clip-path="url(#pa0a254e7ec)">
     <!-- . -->
     <g transform="translate(578.774574 308.21392)scale(0.1 -0.1)">
      <defs>
       <path d="M 10.6875 12.40625 
L 21 12.40625 
L 21 0 
L 10.6875 0 
z
" id="DejaVuSans-46"/>
      </defs>
      <use xlink:href="#DejaVuSans-46"/>
     </g>
    </g>
   </g>
  </g>
 </g>
 <defs>
  <clipPath id="pa0a254e7ec">
   <rect height="320" width="608" x="0" y="0"/>
  </clipPath>
 </defs>
</svg>
