<?xml version="1.0" encoding="utf-8" standalone="no"?>
<!DOCTYPE svg PUBLIC "-//W3C//DTD SVG 1.1//EN"
  "http://www.w3.org/Graphics/SVG/1.1/DTD/svg11.dtd">
<!-- Created with matplotlib (https://matplotlib.org/) -->
<svg height="400pt" version="1.1" viewBox="0 0 760 400" width="760pt" xmlns="http://www.w3.org/2000/svg" xmlns:xlink="http://www.w3.org/1999/xlink">
 <metadata>
  <rdf:RDF xmlns:cc="http://creativecommons.org/ns#" xmlns:dc="http://purl.org/dc/elements/1.1/" xmlns:rdf="http://www.w3.org/1999/02/22-rdf-syntax-ns#">
   <cc:Work>
    <dc:type rdf:resource="http://purl.org/dc/dcmitype/StillImage"/>
    <dc:date>2021-05-19T11:42:18.416469</dc:date>
    <dc:format>image/svg+xml</dc:format>
    <dc:creator>
     <cc:Agent>
      <dc:title>Matplotlib v3.3.4, https://matplotlib.org/</dc:title>
     </cc:Agent>
    </dc:creator>
   </cc:Work>
  </rdf:RDF>
 </metadata>
 <defs>
  <style type="text/css">*{stroke-linecap:butt;stroke-linejoin:round;}</style>
 </defs>
 <g id="figure_1">
  <g id="patch_1">
   <path d="M 0 400 
L 760 400 
L 760 0 
L 0 0 
z
" style="fill:#ffffff;"/>
  </g>
  <g id="axes_1">
   <g id="LineCollection_1">
    <path clip-path="url(#p555a1c8ffe)" d="M 325.714286 18.181818 
L 83.896104 368.687639 
" style="fill:none;stroke:#000000;"/>
    <path clip-path="url(#p555a1c8ffe)" d="M 325.714286 18.181818 
L 182.597403 355.557096 
" style="fill:none;stroke:#000000;"/>
    <path clip-path="url(#p555a1c8ffe)" d="M 325.714286 18.181818 
L 281.298701 368.687639 
" style="fill:none;stroke:#000000;"/>
    <path clip-path="url(#p555a1c8ffe)" d="M 325.714286 18.181818 
L 330.649351 368.687639 
" style="fill:none;stroke:#000000;"/>
    <path clip-path="url(#p555a1c8ffe)" d="M 325.714286 18.181818 
L 380 368.687639 
" style="fill:none;stroke:#000000;"/>
    <path clip-path="url(#p555a1c8ffe)" d="M 325.714286 18.181818 
L 528.051948 355.557096 
" style="fill:none;stroke:#000000;"/>
    <path clip-path="url(#p555a1c8ffe)" d="M 325.714286 18.181818 
L 725.454545 368.687639 
" style="fill:none;stroke:#000000;"/>
    <path clip-path="url(#p555a1c8ffe)" d="M 325.714286 18.181818 
L 676.103896 42.527183 
" style="fill:none;stroke:#000000;"/>
    <path clip-path="url(#p555a1c8ffe)" d="M 325.714286 18.181818 
L 34.545455 368.687639 
" style="fill:none;stroke:#000000;stroke-dasharray:3.7,1.6;stroke-dashoffset:0;"/>
    <path clip-path="url(#p555a1c8ffe)" d="M 83.896104 368.687639 
L 83.896104 381.818182 
" style="fill:none;stroke:#000000;"/>
    <path clip-path="url(#p555a1c8ffe)" d="M 182.597403 355.557096 
L 133.246753 368.687639 
" style="fill:none;stroke:#000000;"/>
    <path clip-path="url(#p555a1c8ffe)" d="M 182.597403 355.557096 
L 182.597403 368.687639 
" style="fill:none;stroke:#000000;"/>
    <path clip-path="url(#p555a1c8ffe)" d="M 182.597403 355.557096 
L 231.948052 368.687639 
" style="fill:none;stroke:#000000;"/>
    <path clip-path="url(#p555a1c8ffe)" d="M 281.298701 368.687639 
L 281.298701 381.818182 
" style="fill:none;stroke:#000000;"/>
    <path clip-path="url(#p555a1c8ffe)" d="M 330.649351 368.687639 
L 330.649351 381.818182 
" style="fill:none;stroke:#000000;"/>
    <path clip-path="url(#p555a1c8ffe)" d="M 380 368.687639 
L 380 381.818182 
" style="fill:none;stroke:#000000;"/>
    <path clip-path="url(#p555a1c8ffe)" d="M 528.051948 355.557096 
L 429.350649 368.687639 
" style="fill:none;stroke:#000000;"/>
    <path clip-path="url(#p555a1c8ffe)" d="M 528.051948 355.557096 
L 478.701299 368.687639 
" style="fill:none;stroke:#000000;"/>
    <path clip-path="url(#p555a1c8ffe)" d="M 528.051948 355.557096 
L 528.051948 368.687639 
" style="fill:none;stroke:#000000;"/>
    <path clip-path="url(#p555a1c8ffe)" d="M 528.051948 355.557096 
L 577.402597 368.687639 
" style="fill:none;stroke:#000000;"/>
    <path clip-path="url(#p555a1c8ffe)" d="M 528.051948 355.557096 
L 626.753247 368.687639 
" style="fill:none;stroke:#000000;"/>
    <path clip-path="url(#p555a1c8ffe)" d="M 725.454545 368.687639 
L 725.454545 381.818182 
" style="fill:none;stroke:#000000;"/>
    <path clip-path="url(#p555a1c8ffe)" d="M 676.103896 42.527183 
L 676.103896 65.868478 
" style="fill:none;stroke:#000000;"/>
    <path clip-path="url(#p555a1c8ffe)" d="M 133.246753 368.687639 
L 133.246753 381.818182 
" style="fill:none;stroke:#000000;"/>
    <path clip-path="url(#p555a1c8ffe)" d="M 182.597403 368.687639 
L 182.597403 381.818182 
" style="fill:none;stroke:#000000;"/>
    <path clip-path="url(#p555a1c8ffe)" d="M 231.948052 368.687639 
L 231.948052 381.818182 
" style="fill:none;stroke:#000000;"/>
    <path clip-path="url(#p555a1c8ffe)" d="M 429.350649 368.687639 
L 429.350649 381.818182 
" style="fill:none;stroke:#000000;"/>
    <path clip-path="url(#p555a1c8ffe)" d="M 478.701299 368.687639 
L 478.701299 381.818182 
" style="fill:none;stroke:#000000;"/>
    <path clip-path="url(#p555a1c8ffe)" d="M 528.051948 368.687639 
L 528.051948 381.818182 
" style="fill:none;stroke:#000000;"/>
    <path clip-path="url(#p555a1c8ffe)" d="M 577.402597 368.687639 
L 577.402597 381.818182 
" style="fill:none;stroke:#000000;"/>
    <path clip-path="url(#p555a1c8ffe)" d="M 626.753247 368.687639 
L 626.753247 381.818182 
" style="fill:none;stroke:#000000;"/>
    <path clip-path="url(#p555a1c8ffe)" d="M 34.545455 368.687639 
L 34.545455 381.818182 
" style="fill:none;stroke:#000000;"/>
    <path clip-path="url(#p555a1c8ffe)" d="M 676.103896 65.868478 
L 676.103896 88.263314 
" style="fill:none;stroke:#000000;"/>
    <path clip-path="url(#p555a1c8ffe)" d="M 676.103896 88.263314 
L 676.103896 109.76614 
" style="fill:none;stroke:#000000;"/>
    <path clip-path="url(#p555a1c8ffe)" d="M 676.103896 109.76614 
L 676.103896 130.42849 
" style="fill:none;stroke:#000000;"/>
    <path clip-path="url(#p555a1c8ffe)" d="M 676.103896 130.42849 
L 676.103896 150.29923 
" style="fill:none;stroke:#000000;"/>
    <path clip-path="url(#p555a1c8ffe)" d="M 676.103896 150.29923 
L 676.103896 169.42479 
" style="fill:none;stroke:#000000;"/>
    <path clip-path="url(#p555a1c8ffe)" d="M 676.103896 169.42479 
L 676.103896 187.849397 
" style="fill:none;stroke:#000000;"/>
    <path clip-path="url(#p555a1c8ffe)" d="M 676.103896 187.849397 
L 676.103896 205.615314 
" style="fill:none;stroke:#000000;"/>
    <path clip-path="url(#p555a1c8ffe)" d="M 676.103896 205.615314 
L 676.103896 222.763076 
" style="fill:none;stroke:#000000;"/>
    <path clip-path="url(#p555a1c8ffe)" d="M 676.103896 222.763076 
L 676.103896 239.331756 
" style="fill:none;stroke:#000000;"/>
    <path clip-path="url(#p555a1c8ffe)" d="M 676.103896 239.331756 
L 676.103896 255.359248 
" style="fill:none;stroke:#000000;"/>
    <path clip-path="url(#p555a1c8ffe)" d="M 676.103896 255.359248 
L 676.103896 270.882606 
" style="fill:none;stroke:#000000;"/>
    <path clip-path="url(#p555a1c8ffe)" d="M 676.103896 270.882606 
L 676.103896 285.93846 
" style="fill:none;stroke:#000000;"/>
    <path clip-path="url(#p555a1c8ffe)" d="M 676.103896 285.93846 
L 676.103896 300.563566 
" style="fill:none;stroke:#000000;"/>
    <path clip-path="url(#p555a1c8ffe)" d="M 676.103896 300.563566 
L 676.103896 314.79559 
" style="fill:none;stroke:#000000;"/>
    <path clip-path="url(#p555a1c8ffe)" d="M 676.103896 314.79559 
L 676.103896 328.674334 
" style="fill:none;stroke:#000000;"/>
    <path clip-path="url(#p555a1c8ffe)" d="M 676.103896 328.674334 
L 676.103896 342.243893 
" style="fill:none;stroke:#000000;"/>
    <path clip-path="url(#p555a1c8ffe)" d="M 676.103896 342.243893 
L 676.103896 355.557096 
" style="fill:none;stroke:#000000;"/>
    <path clip-path="url(#p555a1c8ffe)" d="M 676.103896 355.557096 
L 676.103896 368.687639 
" style="fill:none;stroke:#000000;"/>
    <path clip-path="url(#p555a1c8ffe)" d="M 676.103896 368.687639 
L 676.103896 381.818182 
" style="fill:none;stroke:#000000;"/>
   </g>
   <g id="text_1">
    <g id="patch_2">
     <path clip-path="url(#p555a1c8ffe)" d="M 208.660678 198.889699 
L 211.273618 195.102346 
Q 212.636521 193.126872 210.661048 191.763969 
L 204.288088 187.367188 
Q 202.312615 186.004285 200.949712 187.979758 
L 198.336771 191.767111 
Q 196.973868 193.742585 198.949342 195.105488 
L 205.322302 199.50227 
Q 207.297775 200.865172 208.660678 198.889699 
z
" style="fill:#ffffff;stroke:#ffffff;stroke-linejoin:miter;"/>
    </g>
    <g clip-path="url(#p555a1c8ffe)">
     <!-- F -->
     <g transform="translate(205.315749 196.581992)rotate(-55.397739)scale(0.08 -0.08)">
      <defs>
       <path d="M 9.8125 72.90625 
L 51.703125 72.90625 
L 51.703125 64.59375 
L 19.671875 64.59375 
L 19.671875 43.109375 
L 48.578125 43.109375 
L 48.578125 34.8125 
L 19.671875 34.8125 
L 19.671875 0 
L 9.8125 0 
z
" id="DejaVuSans-70"/>
      </defs>
      <use xlink:href="#DejaVuSans-70"/>
     </g>
    </g>
   </g>
   <g id="text_2">
    <g id="patch_3">
     <path clip-path="url(#p555a1c8ffe)" d="M 258.860551 191.837493 
L 260.997683 186.799544 
Q 261.934935 184.59012 259.725511 183.652867 
L 252.597815 180.62925 
Q 250.388391 179.691997 249.451138 181.901422 
L 247.314006 186.93937 
Q 246.376753 189.148795 248.586177 190.086048 
L 255.713873 193.109664 
Q 257.923298 194.046917 258.860551 191.837493 
z
" style="fill:#ffffff;stroke:#ffffff;stroke-linejoin:miter;"/>
    </g>
    <g clip-path="url(#p555a1c8ffe)">
     <!-- A -->
     <g transform="translate(255.119489 190.250509)rotate(-67.013014)scale(0.08 -0.08)">
      <defs>
       <path d="M 34.1875 63.1875 
L 20.796875 26.90625 
L 47.609375 26.90625 
z
M 28.609375 72.90625 
L 39.796875 72.90625 
L 67.578125 0 
L 57.328125 0 
L 50.6875 18.703125 
L 17.828125 18.703125 
L 11.1875 0 
L 0.78125 0 
z
" id="DejaVuSans-65"/>
      </defs>
      <use xlink:href="#DejaVuSans-65"/>
     </g>
    </g>
   </g>
   <g id="text_3">
    <g id="patch_4">
     <path clip-path="url(#p555a1c8ffe)" d="M 309.359966 197.127383 
L 310.096017 191.318833 
Q 310.397729 188.937873 308.016769 188.636161 
L 300.335693 187.662826 
Q 297.954733 187.361115 297.653021 189.742074 
L 296.91697 195.550625 
Q 296.615258 197.931584 298.996218 198.233296 
L 306.677294 199.206631 
Q 309.058254 199.508343 309.359966 197.127383 
z
" style="fill:#ffffff;stroke:#ffffff;stroke-linejoin:miter;"/>
    </g>
    <g clip-path="url(#p555a1c8ffe)">
     <!-- U -->
     <g transform="translate(305.328455 196.616516)rotate(-82.778054)scale(0.08 -0.08)">
      <defs>
       <path d="M 8.6875 72.90625 
L 18.609375 72.90625 
L 18.609375 28.609375 
Q 18.609375 16.890625 22.84375 11.734375 
Q 27.09375 6.59375 36.625 6.59375 
Q 46.09375 6.59375 50.34375 11.734375 
Q 54.59375 16.890625 54.59375 28.609375 
L 54.59375 72.90625 
L 64.5 72.90625 
L 64.5 27.390625 
Q 64.5 13.140625 57.4375 5.859375 
Q 50.390625 -1.421875 36.625 -1.421875 
Q 22.796875 -1.421875 15.734375 5.859375 
Q 8.6875 13.140625 8.6875 27.390625 
z
" id="DejaVuSans-85"/>
      </defs>
      <use xlink:href="#DejaVuSans-85"/>
     </g>
    </g>
   </g>
   <g id="text_4">
    <g id="patch_5">
     <path clip-path="url(#p555a1c8ffe)" d="M 321.872668 190.787039 
L 321.949712 196.258997 
Q 321.9835 198.658759 324.383262 198.624971 
L 332.124995 198.515968 
Q 334.524757 198.48218 334.490969 196.082418 
L 334.413925 190.61046 
Q 334.380136 188.210698 331.980374 188.244486 
L 324.238641 188.353489 
Q 321.838879 188.387277 321.872668 190.787039 
z
" style="fill:#ffffff;stroke:#ffffff;stroke-linejoin:miter;"/>
    </g>
    <g clip-path="url(#p555a1c8ffe)">
     <!-- A -->
     <g transform="translate(325.936015 190.729828)rotate(-270.806662)scale(0.08 -0.08)">
      <use xlink:href="#DejaVuSans-65"/>
     </g>
    </g>
   </g>
   <g id="text_5">
    <g id="patch_6">
     <path clip-path="url(#p555a1c8ffe)" d="M 346.290636 192.011107 
L 347.028927 196.778023 
Q 347.396255 199.149746 349.767978 198.782418 
L 357.419255 197.597402 
Q 359.790978 197.230073 359.42365 194.85835 
L 358.685359 190.091434 
Q 358.318031 187.719711 355.946308 188.087039 
L 348.29503 189.272056 
Q 345.923307 189.639384 346.290636 192.011107 
z
" style="fill:#ffffff;stroke:#ffffff;stroke-linejoin:miter;"/>
    </g>
    <g clip-path="url(#p555a1c8ffe)">
     <!-- P -->
     <g transform="translate(350.306506 191.389136)rotate(-278.803919)scale(0.08 -0.08)">
      <defs>
       <path d="M 19.671875 64.796875 
L 19.671875 37.40625 
L 32.078125 37.40625 
Q 38.96875 37.40625 42.71875 40.96875 
Q 46.484375 44.53125 46.484375 51.125 
Q 46.484375 57.671875 42.71875 61.234375 
Q 38.96875 64.796875 32.078125 64.796875 
z
M 9.8125 72.90625 
L 32.078125 72.90625 
Q 44.34375 72.90625 50.609375 67.359375 
Q 56.890625 61.8125 56.890625 51.125 
Q 56.890625 40.328125 50.609375 34.8125 
Q 44.34375 29.296875 32.078125 29.296875 
L 19.671875 29.296875 
L 19.671875 0 
L 9.8125 0 
z
" id="DejaVuSans-80"/>
      </defs>
      <use xlink:href="#DejaVuSans-80"/>
     </g>
    </g>
   </g>
   <g id="text_6">
    <g id="patch_7">
     <path clip-path="url(#p555a1c8ffe)" d="M 420.097608 187.74838 
L 422.912291 192.441546 
Q 424.146688 194.499765 426.204906 193.265368 
L 432.844805 189.283151 
Q 434.903023 188.048753 433.668626 185.990535 
L 430.853943 181.297368 
Q 429.619546 179.239149 427.561327 180.473547 
L 420.921429 184.455764 
Q 418.86321 185.690161 420.097608 187.74838 
z
" style="fill:#ffffff;stroke:#ffffff;stroke-linejoin:miter;"/>
    </g>
    <g clip-path="url(#p555a1c8ffe)">
     <!-- A -->
     <g transform="translate(423.582643 185.658262)rotate(-300.952828)scale(0.08 -0.08)">
      <use xlink:href="#DejaVuSans-65"/>
     </g>
    </g>
   </g>
   <g id="text_7">
    <g id="patch_8">
     <path clip-path="url(#p555a1c8ffe)" d="M 519.248707 196.21998 
L 523.65104 200.080095 
Q 525.455583 201.662379 527.037867 199.857836 
L 532.142383 194.036305 
Q 533.724668 192.231762 531.920125 190.649478 
L 527.517792 186.789363 
Q 525.713248 185.207078 524.130964 187.011621 
L 519.026448 192.833152 
Q 517.444163 194.637695 519.248707 196.21998 
z
" style="fill:#ffffff;stroke:#ffffff;stroke-linejoin:miter;"/>
    </g>
    <g clip-path="url(#p555a1c8ffe)">
     <!-- U -->
     <g transform="translate(521.927877 193.164475)rotate(-318.754617)scale(0.08 -0.08)">
      <use xlink:href="#DejaVuSans-85"/>
     </g>
    </g>
   </g>
   <g id="text_8">
    <g id="patch_9">
     <path clip-path="url(#p555a1c8ffe)" d="M 498.068333 36.443492 
L 502.880481 36.777844 
Q 505.274709 36.944197 505.441062 34.549969 
L 505.977724 26.82609 
Q 506.144077 24.431863 503.749849 24.26551 
L 498.9377 23.931157 
Q 496.543473 23.764805 496.37712 26.159032 
L 495.840458 33.882911 
Q 495.674105 36.277139 498.068333 36.443492 
z
" style="fill:#ffffff;stroke:#ffffff;stroke-linejoin:miter;"/>
    </g>
    <g clip-path="url(#p555a1c8ffe)">
     <!-- P -->
     <g transform="translate(498.350007 32.389515)rotate(-356.025429)scale(0.08 -0.08)">
      <use xlink:href="#DejaVuSans-80"/>
     </g>
    </g>
   </g>
   <g id="text_9">
    <g id="patch_10">
     <path clip-path="url(#p555a1c8ffe)" d="M 183.20535 199.546771 
L 186.702239 195.337255 
Q 188.235822 193.491145 186.389712 191.957562 
L 180.434083 187.010159 
Q 178.587973 185.476576 177.05439 187.322686 
L 173.557501 191.532202 
Q 172.023918 193.378313 173.870028 194.911896 
L 179.825657 199.859298 
Q 181.671767 201.392881 183.20535 199.546771 
z
" style="fill:#ffffff;stroke:#ffffff;stroke-linejoin:miter;"/>
    </g>
    <g clip-path="url(#p555a1c8ffe)">
     <!-- A -->
     <g transform="translate(180.079463 196.950064)rotate(-50.283235)scale(0.08 -0.08)">
      <use xlink:href="#DejaVuSans-65"/>
     </g>
    </g>
   </g>
   <g id="text_10">
    <g id="patch_11">
     <path clip-path="url(#p555a1c8ffe)" d="M 77.624854 358.34916 
L 77.624854 392.15666 
Q 77.624854 394.55666 80.024854 394.55666 
L 87.767354 394.55666 
Q 90.167354 394.55666 90.167354 392.15666 
L 90.167354 358.34916 
Q 90.167354 355.94916 87.767354 355.94916 
L 80.024854 355.94916 
Q 77.624854 355.94916 77.624854 358.34916 
z
" style="fill:#ffffff;stroke:#ffffff;stroke-linejoin:miter;"/>
    </g>
    <g clip-path="url(#p555a1c8ffe)">
     <!-- Terminal -->
     <g transform="translate(81.688604 358.34916)rotate(-270)scale(0.08 -0.08)">
      <defs>
       <path d="M -0.296875 72.90625 
L 61.375 72.90625 
L 61.375 64.59375 
L 35.5 64.59375 
L 35.5 0 
L 25.59375 0 
L 25.59375 64.59375 
L -0.296875 64.59375 
z
" id="DejaVuSans-84"/>
       <path d="M 56.203125 29.59375 
L 56.203125 25.203125 
L 14.890625 25.203125 
Q 15.484375 15.921875 20.484375 11.0625 
Q 25.484375 6.203125 34.421875 6.203125 
Q 39.59375 6.203125 44.453125 7.46875 
Q 49.3125 8.734375 54.109375 11.28125 
L 54.109375 2.78125 
Q 49.265625 0.734375 44.1875 -0.34375 
Q 39.109375 -1.421875 33.890625 -1.421875 
Q 20.796875 -1.421875 13.15625 6.1875 
Q 5.515625 13.8125 5.515625 26.8125 
Q 5.515625 40.234375 12.765625 48.109375 
Q 20.015625 56 32.328125 56 
Q 43.359375 56 49.78125 48.890625 
Q 56.203125 41.796875 56.203125 29.59375 
z
M 47.21875 32.234375 
Q 47.125 39.59375 43.09375 43.984375 
Q 39.0625 48.390625 32.421875 48.390625 
Q 24.90625 48.390625 20.390625 44.140625 
Q 15.875 39.890625 15.1875 32.171875 
z
" id="DejaVuSans-101"/>
       <path d="M 41.109375 46.296875 
Q 39.59375 47.171875 37.8125 47.578125 
Q 36.03125 48 33.890625 48 
Q 26.265625 48 22.1875 43.046875 
Q 18.109375 38.09375 18.109375 28.8125 
L 18.109375 0 
L 9.078125 0 
L 9.078125 54.6875 
L 18.109375 54.6875 
L 18.109375 46.1875 
Q 20.953125 51.171875 25.484375 53.578125 
Q 30.03125 56 36.53125 56 
Q 37.453125 56 38.578125 55.875 
Q 39.703125 55.765625 41.0625 55.515625 
z
" id="DejaVuSans-114"/>
       <path d="M 52 44.1875 
Q 55.375 50.25 60.0625 53.125 
Q 64.75 56 71.09375 56 
Q 79.640625 56 84.28125 50.015625 
Q 88.921875 44.046875 88.921875 33.015625 
L 88.921875 0 
L 79.890625 0 
L 79.890625 32.71875 
Q 79.890625 40.578125 77.09375 44.375 
Q 74.3125 48.1875 68.609375 48.1875 
Q 61.625 48.1875 57.5625 43.546875 
Q 53.515625 38.921875 53.515625 30.90625 
L 53.515625 0 
L 44.484375 0 
L 44.484375 32.71875 
Q 44.484375 40.625 41.703125 44.40625 
Q 38.921875 48.1875 33.109375 48.1875 
Q 26.21875 48.1875 22.15625 43.53125 
Q 18.109375 38.875 18.109375 30.90625 
L 18.109375 0 
L 9.078125 0 
L 9.078125 54.6875 
L 18.109375 54.6875 
L 18.109375 46.1875 
Q 21.1875 51.21875 25.484375 53.609375 
Q 29.78125 56 35.6875 56 
Q 41.65625 56 45.828125 52.96875 
Q 50 49.953125 52 44.1875 
z
" id="DejaVuSans-109"/>
       <path d="M 9.421875 54.6875 
L 18.40625 54.6875 
L 18.40625 0 
L 9.421875 0 
z
M 9.421875 75.984375 
L 18.40625 75.984375 
L 18.40625 64.59375 
L 9.421875 64.59375 
z
" id="DejaVuSans-105"/>
       <path d="M 54.890625 33.015625 
L 54.890625 0 
L 45.90625 0 
L 45.90625 32.71875 
Q 45.90625 40.484375 42.875 44.328125 
Q 39.84375 48.1875 33.796875 48.1875 
Q 26.515625 48.1875 22.3125 43.546875 
Q 18.109375 38.921875 18.109375 30.90625 
L 18.109375 0 
L 9.078125 0 
L 9.078125 54.6875 
L 18.109375 54.6875 
L 18.109375 46.1875 
Q 21.34375 51.125 25.703125 53.5625 
Q 30.078125 56 35.796875 56 
Q 45.21875 56 50.046875 50.171875 
Q 54.890625 44.34375 54.890625 33.015625 
z
" id="DejaVuSans-110"/>
       <path d="M 34.28125 27.484375 
Q 23.390625 27.484375 19.1875 25 
Q 14.984375 22.515625 14.984375 16.5 
Q 14.984375 11.71875 18.140625 8.90625 
Q 21.296875 6.109375 26.703125 6.109375 
Q 34.1875 6.109375 38.703125 11.40625 
Q 43.21875 16.703125 43.21875 25.484375 
L 43.21875 27.484375 
z
M 52.203125 31.203125 
L 52.203125 0 
L 43.21875 0 
L 43.21875 8.296875 
Q 40.140625 3.328125 35.546875 0.953125 
Q 30.953125 -1.421875 24.3125 -1.421875 
Q 15.921875 -1.421875 10.953125 3.296875 
Q 6 8.015625 6 15.921875 
Q 6 25.140625 12.171875 29.828125 
Q 18.359375 34.515625 30.609375 34.515625 
L 43.21875 34.515625 
L 43.21875 35.40625 
Q 43.21875 41.609375 39.140625 45 
Q 35.0625 48.390625 27.6875 48.390625 
Q 23 48.390625 18.546875 47.265625 
Q 14.109375 46.140625 10.015625 43.890625 
L 10.015625 52.203125 
Q 14.9375 54.109375 19.578125 55.046875 
Q 24.21875 56 28.609375 56 
Q 40.484375 56 46.34375 49.84375 
Q 52.203125 43.703125 52.203125 31.203125 
z
" id="DejaVuSans-97"/>
       <path d="M 9.421875 75.984375 
L 18.40625 75.984375 
L 18.40625 0 
L 9.421875 0 
z
" id="DejaVuSans-108"/>
      </defs>
      <use xlink:href="#DejaVuSans-84"/>
      <use x="44.083984" xlink:href="#DejaVuSans-101"/>
      <use x="105.607422" xlink:href="#DejaVuSans-114"/>
      <use x="144.970703" xlink:href="#DejaVuSans-109"/>
      <use x="242.382812" xlink:href="#DejaVuSans-105"/>
      <use x="270.166016" xlink:href="#DejaVuSans-110"/>
      <use x="333.544922" xlink:href="#DejaVuSans-97"/>
      <use x="394.824219" xlink:href="#DejaVuSans-108"/>
     </g>
    </g>
   </g>
   <g id="text_11">
    <g id="patch_12">
     <path clip-path="url(#p555a1c8ffe)" d="M 157.092024 368.832647 
L 161.977071 367.5329 
Q 164.296381 366.91581 163.679291 364.5965 
L 161.688532 357.114309 
Q 161.071442 354.794999 158.752132 355.412089 
L 153.867085 356.711835 
Q 151.547775 357.328925 152.164865 359.648235 
L 154.155624 367.130427 
Q 154.772714 369.449737 157.092024 368.832647 
z
" style="fill:#ffffff;stroke:#ffffff;stroke-linejoin:miter;"/>
    </g>
    <g clip-path="url(#p555a1c8ffe)">
     <!-- E -->
     <g transform="translate(156.047149 364.905523)rotate(-14.899296)scale(0.08 -0.08)">
      <defs>
       <path d="M 9.8125 72.90625 
L 55.90625 72.90625 
L 55.90625 64.59375 
L 19.671875 64.59375 
L 19.671875 43.015625 
L 54.390625 43.015625 
L 54.390625 34.71875 
L 19.671875 34.71875 
L 19.671875 8.296875 
L 56.78125 8.296875 
L 56.78125 0 
L 9.8125 0 
z
" id="DejaVuSans-69"/>
      </defs>
      <use xlink:href="#DejaVuSans-69"/>
     </g>
    </g>
   </g>
   <g id="text_12">
    <g id="patch_13">
     <path clip-path="url(#p555a1c8ffe)" d="M 176.326153 359.594868 
L 176.326153 364.649868 
Q 176.326153 367.049868 178.726153 367.049868 
L 186.468653 367.049868 
Q 188.868653 367.049868 188.868653 364.649868 
L 188.868653 359.594868 
Q 188.868653 357.194868 186.468653 357.194868 
L 178.726153 357.194868 
Q 176.326153 357.194868 176.326153 359.594868 
z
" style="fill:#ffffff;stroke:#ffffff;stroke-linejoin:miter;"/>
    </g>
    <g clip-path="url(#p555a1c8ffe)">
     <!-- E -->
     <g transform="translate(180.389903 359.594868)rotate(-270)scale(0.08 -0.08)">
      <use xlink:href="#DejaVuSans-69"/>
     </g>
    </g>
   </g>
   <g id="text_13">
    <g id="patch_14">
     <path clip-path="url(#p555a1c8ffe)" d="M 202.96104 367.464603 
L 208.359476 368.900944 
Q 210.678786 369.518035 211.295876 367.198724 
L 213.286635 359.716533 
Q 213.903725 357.397223 211.584415 356.780133 
L 206.185979 355.343791 
Q 203.866669 354.726701 203.249578 357.046011 
L 201.25882 364.528202 
Q 200.64173 366.847512 202.96104 367.464603 
z
" style="fill:#ffffff;stroke:#ffffff;stroke-linejoin:miter;"/>
    </g>
    <g clip-path="url(#p555a1c8ffe)">
     <!-- C -->
     <g transform="translate(204.005915 363.537479)rotate(-345.100704)scale(0.08 -0.08)">
      <defs>
       <path d="M 64.40625 67.28125 
L 64.40625 56.890625 
Q 59.421875 61.53125 53.78125 63.8125 
Q 48.140625 66.109375 41.796875 66.109375 
Q 29.296875 66.109375 22.65625 58.46875 
Q 16.015625 50.828125 16.015625 36.375 
Q 16.015625 21.96875 22.65625 14.328125 
Q 29.296875 6.6875 41.796875 6.6875 
Q 48.140625 6.6875 53.78125 8.984375 
Q 59.421875 11.28125 64.40625 15.921875 
L 64.40625 5.609375 
Q 59.234375 2.09375 53.4375 0.328125 
Q 47.65625 -1.421875 41.21875 -1.421875 
Q 24.65625 -1.421875 15.125 8.703125 
Q 5.609375 18.84375 5.609375 36.375 
Q 5.609375 53.953125 15.125 64.078125 
Q 24.65625 74.21875 41.21875 74.21875 
Q 47.75 74.21875 53.53125 72.484375 
Q 59.328125 70.75 64.40625 67.28125 
z
" id="DejaVuSans-67"/>
      </defs>
      <use xlink:href="#DejaVuSans-67"/>
     </g>
    </g>
   </g>
   <g id="text_14">
    <g id="patch_15">
     <path clip-path="url(#p555a1c8ffe)" d="M 275.027451 358.34916 
L 275.027451 392.15666 
Q 275.027451 394.55666 277.427451 394.55666 
L 285.169951 394.55666 
Q 287.569951 394.55666 287.569951 392.15666 
L 287.569951 358.34916 
Q 287.569951 355.94916 285.169951 355.94916 
L 277.427451 355.94916 
Q 275.027451 355.94916 275.027451 358.34916 
z
" style="fill:#ffffff;stroke:#ffffff;stroke-linejoin:miter;"/>
    </g>
    <g clip-path="url(#p555a1c8ffe)">
     <!-- Terminal -->
     <g transform="translate(279.091201 358.34916)rotate(-270)scale(0.08 -0.08)">
      <use xlink:href="#DejaVuSans-84"/>
      <use x="44.083984" xlink:href="#DejaVuSans-101"/>
      <use x="105.607422" xlink:href="#DejaVuSans-114"/>
      <use x="144.970703" xlink:href="#DejaVuSans-109"/>
      <use x="242.382812" xlink:href="#DejaVuSans-105"/>
      <use x="270.166016" xlink:href="#DejaVuSans-110"/>
      <use x="333.544922" xlink:href="#DejaVuSans-97"/>
      <use x="394.824219" xlink:href="#DejaVuSans-108"/>
     </g>
    </g>
   </g>
   <g id="text_15">
    <g id="patch_16">
     <path clip-path="url(#p555a1c8ffe)" d="M 324.378101 358.34916 
L 324.378101 392.15666 
Q 324.378101 394.55666 326.778101 394.55666 
L 334.520601 394.55666 
Q 336.920601 394.55666 336.920601 392.15666 
L 336.920601 358.34916 
Q 336.920601 355.94916 334.520601 355.94916 
L 326.778101 355.94916 
Q 324.378101 355.94916 324.378101 358.34916 
z
" style="fill:#ffffff;stroke:#ffffff;stroke-linejoin:miter;"/>
    </g>
    <g clip-path="url(#p555a1c8ffe)">
     <!-- Terminal -->
     <g transform="translate(328.441851 358.34916)rotate(-270)scale(0.08 -0.08)">
      <use xlink:href="#DejaVuSans-84"/>
      <use x="44.083984" xlink:href="#DejaVuSans-101"/>
      <use x="105.607422" xlink:href="#DejaVuSans-114"/>
      <use x="144.970703" xlink:href="#DejaVuSans-109"/>
      <use x="242.382812" xlink:href="#DejaVuSans-105"/>
      <use x="270.166016" xlink:href="#DejaVuSans-110"/>
      <use x="333.544922" xlink:href="#DejaVuSans-97"/>
      <use x="394.824219" xlink:href="#DejaVuSans-108"/>
     </g>
    </g>
   </g>
   <g id="text_16">
    <g id="patch_17">
     <path clip-path="url(#p555a1c8ffe)" d="M 373.72875 358.34916 
L 373.72875 392.15666 
Q 373.72875 394.55666 376.12875 394.55666 
L 383.87125 394.55666 
Q 386.27125 394.55666 386.27125 392.15666 
L 386.27125 358.34916 
Q 386.27125 355.94916 383.87125 355.94916 
L 376.12875 355.94916 
Q 373.72875 355.94916 373.72875 358.34916 
z
" style="fill:#ffffff;stroke:#ffffff;stroke-linejoin:miter;"/>
    </g>
    <g clip-path="url(#p555a1c8ffe)">
     <!-- Terminal -->
     <g transform="translate(377.7925 358.34916)rotate(-270)scale(0.08 -0.08)">
      <use xlink:href="#DejaVuSans-84"/>
      <use x="44.083984" xlink:href="#DejaVuSans-101"/>
      <use x="105.607422" xlink:href="#DejaVuSans-114"/>
      <use x="144.970703" xlink:href="#DejaVuSans-109"/>
      <use x="242.382812" xlink:href="#DejaVuSans-105"/>
      <use x="270.166016" xlink:href="#DejaVuSans-110"/>
      <use x="333.544922" xlink:href="#DejaVuSans-97"/>
      <use x="394.824219" xlink:href="#DejaVuSans-108"/>
     </g>
    </g>
   </g>
   <g id="text_17">
    <g id="patch_18">
     <path clip-path="url(#p555a1c8ffe)" d="M 477.02287 368.672155 
L 482.033724 368.005545 
Q 484.412764 367.689054 484.096273 365.310013 
L 483.075259 357.63513 
Q 482.758768 355.25609 480.379728 355.572581 
L 475.368874 356.23919 
Q 472.989833 356.555681 473.306324 358.934722 
L 474.327338 366.609605 
Q 474.643829 368.988646 477.02287 368.672155 
z
" style="fill:#ffffff;stroke:#ffffff;stroke-linejoin:miter;"/>
    </g>
    <g clip-path="url(#p555a1c8ffe)">
     <!-- E -->
     <g transform="translate(476.486978 364.643894)rotate(-7.577743)scale(0.08 -0.08)">
      <use xlink:href="#DejaVuSans-69"/>
     </g>
    </g>
   </g>
   <g id="text_18">
    <g id="patch_19">
     <path clip-path="url(#p555a1c8ffe)" d="M 502.546569 368.832647 
L 507.431616 367.5329 
Q 509.750927 366.91581 509.133836 364.5965 
L 507.143078 357.114309 
Q 506.525988 354.794999 504.206677 355.412089 
L 499.32163 356.711835 
Q 497.00232 357.328925 497.61941 359.648235 
L 499.610169 367.130427 
Q 500.227259 369.449737 502.546569 368.832647 
z
" style="fill:#ffffff;stroke:#ffffff;stroke-linejoin:miter;"/>
    </g>
    <g clip-path="url(#p555a1c8ffe)">
     <!-- E -->
     <g transform="translate(501.501694 364.905523)rotate(-14.899296)scale(0.08 -0.08)">
      <use xlink:href="#DejaVuSans-69"/>
     </g>
    </g>
   </g>
   <g id="text_19">
    <g id="patch_20">
     <path clip-path="url(#p555a1c8ffe)" d="M 521.780698 359.329243 
L 521.780698 364.915493 
Q 521.780698 367.315493 524.180698 367.315493 
L 531.923198 367.315493 
Q 534.323198 367.315493 534.323198 364.915493 
L 534.323198 359.329243 
Q 534.323198 356.929243 531.923198 356.929243 
L 524.180698 356.929243 
Q 521.780698 356.929243 521.780698 359.329243 
z
" style="fill:#ffffff;stroke:#ffffff;stroke-linejoin:miter;"/>
    </g>
    <g clip-path="url(#p555a1c8ffe)">
     <!-- C -->
     <g transform="translate(525.844448 359.329243)rotate(-270)scale(0.08 -0.08)">
      <use xlink:href="#DejaVuSans-67"/>
     </g>
    </g>
   </g>
   <g id="text_20">
    <g id="patch_21">
     <path clip-path="url(#p555a1c8ffe)" d="M 548.67228 367.5329 
L 553.557327 368.832647 
Q 555.876637 369.449737 556.493727 367.130427 
L 558.484486 359.648235 
Q 559.101576 357.328925 556.782266 356.711835 
L 551.897219 355.412089 
Q 549.577909 354.794999 548.960818 357.114309 
L 546.97006 364.5965 
Q 546.35297 366.91581 548.67228 367.5329 
z
" style="fill:#ffffff;stroke:#ffffff;stroke-linejoin:miter;"/>
    </g>
    <g clip-path="url(#p555a1c8ffe)">
     <!-- E -->
     <g transform="translate(549.717155 363.605777)rotate(-345.100704)scale(0.08 -0.08)">
      <use xlink:href="#DejaVuSans-69"/>
     </g>
    </g>
   </g>
   <g id="text_21">
    <g id="patch_22">
     <path clip-path="url(#p555a1c8ffe)" d="M 573.806867 367.970517 
L 579.344332 368.707183 
Q 581.723372 369.023674 582.039863 366.644634 
L 583.060877 358.96975 
Q 583.377368 356.59071 580.998328 356.274219 
L 575.460863 355.537552 
Q 573.081823 355.221061 572.765332 357.600102 
L 571.744318 365.274985 
Q 571.427827 367.654026 573.806867 367.970517 
z
" style="fill:#ffffff;stroke:#ffffff;stroke-linejoin:miter;"/>
    </g>
    <g clip-path="url(#p555a1c8ffe)">
     <!-- C -->
     <g transform="translate(574.342759 363.942256)rotate(-352.422257)scale(0.08 -0.08)">
      <use xlink:href="#DejaVuSans-67"/>
     </g>
    </g>
   </g>
   <g id="text_22">
    <g id="patch_23">
     <path clip-path="url(#p555a1c8ffe)" d="M 719.183295 358.34916 
L 719.183295 392.15666 
Q 719.183295 394.55666 721.583295 394.55666 
L 729.325795 394.55666 
Q 731.725795 394.55666 731.725795 392.15666 
L 731.725795 358.34916 
Q 731.725795 355.94916 729.325795 355.94916 
L 721.583295 355.94916 
Q 719.183295 355.94916 719.183295 358.34916 
z
" style="fill:#ffffff;stroke:#ffffff;stroke-linejoin:miter;"/>
    </g>
    <g clip-path="url(#p555a1c8ffe)">
     <!-- Terminal -->
     <g transform="translate(723.247045 358.34916)rotate(-270)scale(0.08 -0.08)">
      <use xlink:href="#DejaVuSans-84"/>
      <use x="44.083984" xlink:href="#DejaVuSans-101"/>
      <use x="105.607422" xlink:href="#DejaVuSans-114"/>
      <use x="144.970703" xlink:href="#DejaVuSans-109"/>
      <use x="242.382812" xlink:href="#DejaVuSans-105"/>
      <use x="270.166016" xlink:href="#DejaVuSans-110"/>
      <use x="333.544922" xlink:href="#DejaVuSans-97"/>
      <use x="394.824219" xlink:href="#DejaVuSans-108"/>
     </g>
    </g>
   </g>
   <g id="text_23">
    <g id="patch_24">
     <path clip-path="url(#p555a1c8ffe)" d="M 669.832646 51.785955 
L 669.832646 56.609705 
Q 669.832646 59.009705 672.232646 59.009705 
L 679.975146 59.009705 
Q 682.375146 59.009705 682.375146 56.609705 
L 682.375146 51.785955 
Q 682.375146 49.385955 679.975146 49.385955 
L 672.232646 49.385955 
Q 669.832646 49.385955 669.832646 51.785955 
z
" style="fill:#ffffff;stroke:#ffffff;stroke-linejoin:miter;"/>
    </g>
    <g clip-path="url(#p555a1c8ffe)">
     <!-- P -->
     <g transform="translate(673.896396 51.785955)rotate(-270)scale(0.08 -0.08)">
      <use xlink:href="#DejaVuSans-80"/>
     </g>
    </g>
   </g>
   <g id="text_24">
    <g id="patch_25">
     <path clip-path="url(#p555a1c8ffe)" d="M 126.975503 358.34916 
L 126.975503 392.15666 
Q 126.975503 394.55666 129.375503 394.55666 
L 137.118003 394.55666 
Q 139.518003 394.55666 139.518003 392.15666 
L 139.518003 358.34916 
Q 139.518003 355.94916 137.118003 355.94916 
L 129.375503 355.94916 
Q 126.975503 355.94916 126.975503 358.34916 
z
" style="fill:#ffffff;stroke:#ffffff;stroke-linejoin:miter;"/>
    </g>
    <g clip-path="url(#p555a1c8ffe)">
     <!-- Terminal -->
     <g transform="translate(131.039253 358.34916)rotate(-270)scale(0.08 -0.08)">
      <use xlink:href="#DejaVuSans-84"/>
      <use x="44.083984" xlink:href="#DejaVuSans-101"/>
      <use x="105.607422" xlink:href="#DejaVuSans-114"/>
      <use x="144.970703" xlink:href="#DejaVuSans-109"/>
      <use x="242.382812" xlink:href="#DejaVuSans-105"/>
      <use x="270.166016" xlink:href="#DejaVuSans-110"/>
      <use x="333.544922" xlink:href="#DejaVuSans-97"/>
      <use x="394.824219" xlink:href="#DejaVuSans-108"/>
     </g>
    </g>
   </g>
   <g id="text_25">
    <g id="patch_26">
     <path clip-path="url(#p555a1c8ffe)" d="M 176.326153 358.34916 
L 176.326153 392.15666 
Q 176.326153 394.55666 178.726153 394.55666 
L 186.468653 394.55666 
Q 188.868653 394.55666 188.868653 392.15666 
L 188.868653 358.34916 
Q 188.868653 355.94916 186.468653 355.94916 
L 178.726153 355.94916 
Q 176.326153 355.94916 176.326153 358.34916 
z
" style="fill:#ffffff;stroke:#ffffff;stroke-linejoin:miter;"/>
    </g>
    <g clip-path="url(#p555a1c8ffe)">
     <!-- Terminal -->
     <g transform="translate(180.389903 358.34916)rotate(-270)scale(0.08 -0.08)">
      <use xlink:href="#DejaVuSans-84"/>
      <use x="44.083984" xlink:href="#DejaVuSans-101"/>
      <use x="105.607422" xlink:href="#DejaVuSans-114"/>
      <use x="144.970703" xlink:href="#DejaVuSans-109"/>
      <use x="242.382812" xlink:href="#DejaVuSans-105"/>
      <use x="270.166016" xlink:href="#DejaVuSans-110"/>
      <use x="333.544922" xlink:href="#DejaVuSans-97"/>
      <use x="394.824219" xlink:href="#DejaVuSans-108"/>
     </g>
    </g>
   </g>
   <g id="text_26">
    <g id="patch_27">
     <path clip-path="url(#p555a1c8ffe)" d="M 225.676802 358.34916 
L 225.676802 392.15666 
Q 225.676802 394.55666 228.076802 394.55666 
L 235.819302 394.55666 
Q 238.219302 394.55666 238.219302 392.15666 
L 238.219302 358.34916 
Q 238.219302 355.94916 235.819302 355.94916 
L 228.076802 355.94916 
Q 225.676802 355.94916 225.676802 358.34916 
z
" style="fill:#ffffff;stroke:#ffffff;stroke-linejoin:miter;"/>
    </g>
    <g clip-path="url(#p555a1c8ffe)">
     <!-- Terminal -->
     <g transform="translate(229.740552 358.34916)rotate(-270)scale(0.08 -0.08)">
      <use xlink:href="#DejaVuSans-84"/>
      <use x="44.083984" xlink:href="#DejaVuSans-101"/>
      <use x="105.607422" xlink:href="#DejaVuSans-114"/>
      <use x="144.970703" xlink:href="#DejaVuSans-109"/>
      <use x="242.382812" xlink:href="#DejaVuSans-105"/>
      <use x="270.166016" xlink:href="#DejaVuSans-110"/>
      <use x="333.544922" xlink:href="#DejaVuSans-97"/>
      <use x="394.824219" xlink:href="#DejaVuSans-108"/>
     </g>
    </g>
   </g>
   <g id="text_27">
    <g id="patch_28">
     <path clip-path="url(#p555a1c8ffe)" d="M 423.079399 358.34916 
L 423.079399 392.15666 
Q 423.079399 394.55666 425.479399 394.55666 
L 433.221899 394.55666 
Q 435.621899 394.55666 435.621899 392.15666 
L 435.621899 358.34916 
Q 435.621899 355.94916 433.221899 355.94916 
L 425.479399 355.94916 
Q 423.079399 355.94916 423.079399 358.34916 
z
" style="fill:#ffffff;stroke:#ffffff;stroke-linejoin:miter;"/>
    </g>
    <g clip-path="url(#p555a1c8ffe)">
     <!-- Terminal -->
     <g transform="translate(427.143149 358.34916)rotate(-270)scale(0.08 -0.08)">
      <use xlink:href="#DejaVuSans-84"/>
      <use x="44.083984" xlink:href="#DejaVuSans-101"/>
      <use x="105.607422" xlink:href="#DejaVuSans-114"/>
      <use x="144.970703" xlink:href="#DejaVuSans-109"/>
      <use x="242.382812" xlink:href="#DejaVuSans-105"/>
      <use x="270.166016" xlink:href="#DejaVuSans-110"/>
      <use x="333.544922" xlink:href="#DejaVuSans-97"/>
      <use x="394.824219" xlink:href="#DejaVuSans-108"/>
     </g>
    </g>
   </g>
   <g id="text_28">
    <g id="patch_29">
     <path clip-path="url(#p555a1c8ffe)" d="M 472.430049 358.34916 
L 472.430049 392.15666 
Q 472.430049 394.55666 474.830049 394.55666 
L 482.572549 394.55666 
Q 484.972549 394.55666 484.972549 392.15666 
L 484.972549 358.34916 
Q 484.972549 355.94916 482.572549 355.94916 
L 474.830049 355.94916 
Q 472.430049 355.94916 472.430049 358.34916 
z
" style="fill:#ffffff;stroke:#ffffff;stroke-linejoin:miter;"/>
    </g>
    <g clip-path="url(#p555a1c8ffe)">
     <!-- Terminal -->
     <g transform="translate(476.493799 358.34916)rotate(-270)scale(0.08 -0.08)">
      <use xlink:href="#DejaVuSans-84"/>
      <use x="44.083984" xlink:href="#DejaVuSans-101"/>
      <use x="105.607422" xlink:href="#DejaVuSans-114"/>
      <use x="144.970703" xlink:href="#DejaVuSans-109"/>
      <use x="242.382812" xlink:href="#DejaVuSans-105"/>
      <use x="270.166016" xlink:href="#DejaVuSans-110"/>
      <use x="333.544922" xlink:href="#DejaVuSans-97"/>
      <use x="394.824219" xlink:href="#DejaVuSans-108"/>
     </g>
    </g>
   </g>
   <g id="text_29">
    <g id="patch_30">
     <path clip-path="url(#p555a1c8ffe)" d="M 521.780698 358.34916 
L 521.780698 392.15666 
Q 521.780698 394.55666 524.180698 394.55666 
L 531.923198 394.55666 
Q 534.323198 394.55666 534.323198 392.15666 
L 534.323198 358.34916 
Q 534.323198 355.94916 531.923198 355.94916 
L 524.180698 355.94916 
Q 521.780698 355.94916 521.780698 358.34916 
z
" style="fill:#ffffff;stroke:#ffffff;stroke-linejoin:miter;"/>
    </g>
    <g clip-path="url(#p555a1c8ffe)">
     <!-- Terminal -->
     <g transform="translate(525.844448 358.34916)rotate(-270)scale(0.08 -0.08)">
      <use xlink:href="#DejaVuSans-84"/>
      <use x="44.083984" xlink:href="#DejaVuSans-101"/>
      <use x="105.607422" xlink:href="#DejaVuSans-114"/>
      <use x="144.970703" xlink:href="#DejaVuSans-109"/>
      <use x="242.382812" xlink:href="#DejaVuSans-105"/>
      <use x="270.166016" xlink:href="#DejaVuSans-110"/>
      <use x="333.544922" xlink:href="#DejaVuSans-97"/>
      <use x="394.824219" xlink:href="#DejaVuSans-108"/>
     </g>
    </g>
   </g>
   <g id="text_30">
    <g id="patch_31">
     <path clip-path="url(#p555a1c8ffe)" d="M 571.131347 358.34916 
L 571.131347 392.15666 
Q 571.131347 394.55666 573.531347 394.55666 
L 581.273847 394.55666 
Q 583.673847 394.55666 583.673847 392.15666 
L 583.673847 358.34916 
Q 583.673847 355.94916 581.273847 355.94916 
L 573.531347 355.94916 
Q 571.131347 355.94916 571.131347 358.34916 
z
" style="fill:#ffffff;stroke:#ffffff;stroke-linejoin:miter;"/>
    </g>
    <g clip-path="url(#p555a1c8ffe)">
     <!-- Terminal -->
     <g transform="translate(575.195097 358.34916)rotate(-270)scale(0.08 -0.08)">
      <use xlink:href="#DejaVuSans-84"/>
      <use x="44.083984" xlink:href="#DejaVuSans-101"/>
      <use x="105.607422" xlink:href="#DejaVuSans-114"/>
      <use x="144.970703" xlink:href="#DejaVuSans-109"/>
      <use x="242.382812" xlink:href="#DejaVuSans-105"/>
      <use x="270.166016" xlink:href="#DejaVuSans-110"/>
      <use x="333.544922" xlink:href="#DejaVuSans-97"/>
      <use x="394.824219" xlink:href="#DejaVuSans-108"/>
     </g>
    </g>
   </g>
   <g id="text_31">
    <g id="patch_32">
     <path clip-path="url(#p555a1c8ffe)" d="M 620.481997 358.34916 
L 620.481997 392.15666 
Q 620.481997 394.55666 622.881997 394.55666 
L 630.624497 394.55666 
Q 633.024497 394.55666 633.024497 392.15666 
L 633.024497 358.34916 
Q 633.024497 355.94916 630.624497 355.94916 
L 622.881997 355.94916 
Q 620.481997 355.94916 620.481997 358.34916 
z
" style="fill:#ffffff;stroke:#ffffff;stroke-linejoin:miter;"/>
    </g>
    <g clip-path="url(#p555a1c8ffe)">
     <!-- Terminal -->
     <g transform="translate(624.545747 358.34916)rotate(-270)scale(0.08 -0.08)">
      <use xlink:href="#DejaVuSans-84"/>
      <use x="44.083984" xlink:href="#DejaVuSans-101"/>
      <use x="105.607422" xlink:href="#DejaVuSans-114"/>
      <use x="144.970703" xlink:href="#DejaVuSans-109"/>
      <use x="242.382812" xlink:href="#DejaVuSans-105"/>
      <use x="270.166016" xlink:href="#DejaVuSans-110"/>
      <use x="333.544922" xlink:href="#DejaVuSans-97"/>
      <use x="394.824219" xlink:href="#DejaVuSans-108"/>
     </g>
    </g>
   </g>
   <g id="text_32">
    <g id="patch_33">
     <path clip-path="url(#p555a1c8ffe)" d="M 28.274205 358.34916 
L 28.274205 392.15666 
Q 28.274205 394.55666 30.674205 394.55666 
L 38.416705 394.55666 
Q 40.816705 394.55666 40.816705 392.15666 
L 40.816705 358.34916 
Q 40.816705 355.94916 38.416705 355.94916 
L 30.674205 355.94916 
Q 28.274205 355.94916 28.274205 358.34916 
z
" style="fill:#ffffff;stroke:#ffffff;stroke-linejoin:miter;"/>
    </g>
    <g clip-path="url(#p555a1c8ffe)">
     <!-- Terminal -->
     <g transform="translate(32.337955 358.34916)rotate(-270)scale(0.08 -0.08)">
      <use xlink:href="#DejaVuSans-84"/>
      <use x="44.083984" xlink:href="#DejaVuSans-101"/>
      <use x="105.607422" xlink:href="#DejaVuSans-114"/>
      <use x="144.970703" xlink:href="#DejaVuSans-109"/>
      <use x="242.382812" xlink:href="#DejaVuSans-105"/>
      <use x="270.166016" xlink:href="#DejaVuSans-110"/>
      <use x="333.544922" xlink:href="#DejaVuSans-97"/>
      <use x="394.824219" xlink:href="#DejaVuSans-108"/>
     </g>
    </g>
   </g>
   <g id="text_33">
    <g id="patch_34">
     <path clip-path="url(#p555a1c8ffe)" d="M 669.832646 74.654021 
L 669.832646 79.477771 
Q 669.832646 81.877771 672.232646 81.877771 
L 679.975146 81.877771 
Q 682.375146 81.877771 682.375146 79.477771 
L 682.375146 74.654021 
Q 682.375146 72.254021 679.975146 72.254021 
L 672.232646 72.254021 
Q 669.832646 72.254021 669.832646 74.654021 
z
" style="fill:#ffffff;stroke:#ffffff;stroke-linejoin:miter;"/>
    </g>
    <g clip-path="url(#p555a1c8ffe)">
     <!-- P -->
     <g transform="translate(673.896396 74.654021)rotate(-270)scale(0.08 -0.08)">
      <use xlink:href="#DejaVuSans-80"/>
     </g>
    </g>
   </g>
   <g id="text_34">
    <g id="patch_35">
     <path clip-path="url(#p555a1c8ffe)" d="M 669.832646 96.602852 
L 669.832646 101.426602 
Q 669.832646 103.826602 672.232646 103.826602 
L 679.975146 103.826602 
Q 682.375146 103.826602 682.375146 101.426602 
L 682.375146 96.602852 
Q 682.375146 94.202852 679.975146 94.202852 
L 672.232646 94.202852 
Q 669.832646 94.202852 669.832646 96.602852 
z
" style="fill:#ffffff;stroke:#ffffff;stroke-linejoin:miter;"/>
    </g>
    <g clip-path="url(#p555a1c8ffe)">
     <!-- P -->
     <g transform="translate(673.896396 96.602852)rotate(-270)scale(0.08 -0.08)">
      <use xlink:href="#DejaVuSans-80"/>
     </g>
    </g>
   </g>
   <g id="text_35">
    <g id="patch_36">
     <path clip-path="url(#p555a1c8ffe)" d="M 669.832646 117.68544 
L 669.832646 122.50919 
Q 669.832646 124.90919 672.232646 124.90919 
L 679.975146 124.90919 
Q 682.375146 124.90919 682.375146 122.50919 
L 682.375146 117.68544 
Q 682.375146 115.28544 679.975146 115.28544 
L 672.232646 115.28544 
Q 669.832646 115.28544 669.832646 117.68544 
z
" style="fill:#ffffff;stroke:#ffffff;stroke-linejoin:miter;"/>
    </g>
    <g clip-path="url(#p555a1c8ffe)">
     <!-- P -->
     <g transform="translate(673.896396 117.68544)rotate(-270)scale(0.08 -0.08)">
      <use xlink:href="#DejaVuSans-80"/>
     </g>
    </g>
   </g>
   <g id="text_36">
    <g id="patch_37">
     <path clip-path="url(#p555a1c8ffe)" d="M 669.832646 137.951985 
L 669.832646 142.775735 
Q 669.832646 145.175735 672.232646 145.175735 
L 679.975146 145.175735 
Q 682.375146 145.175735 682.375146 142.775735 
L 682.375146 137.951985 
Q 682.375146 135.551985 679.975146 135.551985 
L 672.232646 135.551985 
Q 669.832646 135.551985 669.832646 137.951985 
z
" style="fill:#ffffff;stroke:#ffffff;stroke-linejoin:miter;"/>
    </g>
    <g clip-path="url(#p555a1c8ffe)">
     <!-- P -->
     <g transform="translate(673.896396 137.951985)rotate(-270)scale(0.08 -0.08)">
      <use xlink:href="#DejaVuSans-80"/>
     </g>
    </g>
   </g>
   <g id="text_37">
    <g id="patch_38">
     <path clip-path="url(#p555a1c8ffe)" d="M 669.832646 157.450135 
L 669.832646 162.273885 
Q 669.832646 164.673885 672.232646 164.673885 
L 679.975146 164.673885 
Q 682.375146 164.673885 682.375146 162.273885 
L 682.375146 157.450135 
Q 682.375146 155.050135 679.975146 155.050135 
L 672.232646 155.050135 
Q 669.832646 155.050135 669.832646 157.450135 
z
" style="fill:#ffffff;stroke:#ffffff;stroke-linejoin:miter;"/>
    </g>
    <g clip-path="url(#p555a1c8ffe)">
     <!-- P -->
     <g transform="translate(673.896396 157.450135)rotate(-270)scale(0.08 -0.08)">
      <use xlink:href="#DejaVuSans-80"/>
     </g>
    </g>
   </g>
   <g id="text_38">
    <g id="patch_39">
     <path clip-path="url(#p555a1c8ffe)" d="M 669.832646 176.225219 
L 669.832646 181.048969 
Q 669.832646 183.448969 672.232646 183.448969 
L 679.975146 183.448969 
Q 682.375146 183.448969 682.375146 181.048969 
L 682.375146 176.225219 
Q 682.375146 173.825219 679.975146 173.825219 
L 672.232646 173.825219 
Q 669.832646 173.825219 669.832646 176.225219 
z
" style="fill:#ffffff;stroke:#ffffff;stroke-linejoin:miter;"/>
    </g>
    <g clip-path="url(#p555a1c8ffe)">
     <!-- P -->
     <g transform="translate(673.896396 176.225219)rotate(-270)scale(0.08 -0.08)">
      <use xlink:href="#DejaVuSans-80"/>
     </g>
    </g>
   </g>
   <g id="text_39">
    <g id="patch_40">
     <path clip-path="url(#p555a1c8ffe)" d="M 669.832646 194.320481 
L 669.832646 199.144231 
Q 669.832646 201.544231 672.232646 201.544231 
L 679.975146 201.544231 
Q 682.375146 201.544231 682.375146 199.144231 
L 682.375146 194.320481 
Q 682.375146 191.920481 679.975146 191.920481 
L 672.232646 191.920481 
Q 669.832646 191.920481 669.832646 194.320481 
z
" style="fill:#ffffff;stroke:#ffffff;stroke-linejoin:miter;"/>
    </g>
    <g clip-path="url(#p555a1c8ffe)">
     <!-- P -->
     <g transform="translate(673.896396 194.320481)rotate(-270)scale(0.08 -0.08)">
      <use xlink:href="#DejaVuSans-80"/>
     </g>
    </g>
   </g>
   <g id="text_40">
    <g id="patch_41">
     <path clip-path="url(#p555a1c8ffe)" d="M 669.832646 211.77732 
L 669.832646 216.60107 
Q 669.832646 219.00107 672.232646 219.00107 
L 679.975146 219.00107 
Q 682.375146 219.00107 682.375146 216.60107 
L 682.375146 211.77732 
Q 682.375146 209.37732 679.975146 209.37732 
L 672.232646 209.37732 
Q 669.832646 209.37732 669.832646 211.77732 
z
" style="fill:#ffffff;stroke:#ffffff;stroke-linejoin:miter;"/>
    </g>
    <g clip-path="url(#p555a1c8ffe)">
     <!-- P -->
     <g transform="translate(673.896396 211.77732)rotate(-270)scale(0.08 -0.08)">
      <use xlink:href="#DejaVuSans-80"/>
     </g>
    </g>
   </g>
   <g id="text_41">
    <g id="patch_42">
     <path clip-path="url(#p555a1c8ffe)" d="M 669.832646 228.635541 
L 669.832646 233.459291 
Q 669.832646 235.859291 672.232646 235.859291 
L 679.975146 235.859291 
Q 682.375146 235.859291 682.375146 233.459291 
L 682.375146 228.635541 
Q 682.375146 226.235541 679.975146 226.235541 
L 672.232646 226.235541 
Q 669.832646 226.235541 669.832646 228.635541 
z
" style="fill:#ffffff;stroke:#ffffff;stroke-linejoin:miter;"/>
    </g>
    <g clip-path="url(#p555a1c8ffe)">
     <!-- P -->
     <g transform="translate(673.896396 228.635541)rotate(-270)scale(0.08 -0.08)">
      <use xlink:href="#DejaVuSans-80"/>
     </g>
    </g>
   </g>
   <g id="text_42">
    <g id="patch_43">
     <path clip-path="url(#p555a1c8ffe)" d="M 669.832646 244.933627 
L 669.832646 249.757377 
Q 669.832646 252.157377 672.232646 252.157377 
L 679.975146 252.157377 
Q 682.375146 252.157377 682.375146 249.757377 
L 682.375146 244.933627 
Q 682.375146 242.533627 679.975146 242.533627 
L 672.232646 242.533627 
Q 669.832646 242.533627 669.832646 244.933627 
z
" style="fill:#ffffff;stroke:#ffffff;stroke-linejoin:miter;"/>
    </g>
    <g clip-path="url(#p555a1c8ffe)">
     <!-- P -->
     <g transform="translate(673.896396 244.933627)rotate(-270)scale(0.08 -0.08)">
      <use xlink:href="#DejaVuSans-80"/>
     </g>
    </g>
   </g>
   <g id="text_43">
    <g id="patch_44">
     <path clip-path="url(#p555a1c8ffe)" d="M 669.832646 260.709052 
L 669.832646 265.532802 
Q 669.832646 267.932802 672.232646 267.932802 
L 679.975146 267.932802 
Q 682.375146 267.932802 682.375146 265.532802 
L 682.375146 260.709052 
Q 682.375146 258.309052 679.975146 258.309052 
L 672.232646 258.309052 
Q 669.832646 258.309052 669.832646 260.709052 
z
" style="fill:#ffffff;stroke:#ffffff;stroke-linejoin:miter;"/>
    </g>
    <g clip-path="url(#p555a1c8ffe)">
     <!-- P -->
     <g transform="translate(673.896396 260.709052)rotate(-270)scale(0.08 -0.08)">
      <use xlink:href="#DejaVuSans-80"/>
     </g>
    </g>
   </g>
   <g id="text_44">
    <g id="patch_45">
     <path clip-path="url(#p555a1c8ffe)" d="M 669.832646 275.998658 
L 669.832646 280.822408 
Q 669.832646 283.222408 672.232646 283.222408 
L 679.975146 283.222408 
Q 682.375146 283.222408 682.375146 280.822408 
L 682.375146 275.998658 
Q 682.375146 273.598658 679.975146 273.598658 
L 672.232646 273.598658 
Q 669.832646 273.598658 669.832646 275.998658 
z
" style="fill:#ffffff;stroke:#ffffff;stroke-linejoin:miter;"/>
    </g>
    <g clip-path="url(#p555a1c8ffe)">
     <!-- P -->
     <g transform="translate(673.896396 275.998658)rotate(-270)scale(0.08 -0.08)">
      <use xlink:href="#DejaVuSans-80"/>
     </g>
    </g>
   </g>
   <g id="text_45">
    <g id="patch_46">
     <path clip-path="url(#p555a1c8ffe)" d="M 669.832646 290.839138 
L 669.832646 295.662888 
Q 669.832646 298.062888 672.232646 298.062888 
L 679.975146 298.062888 
Q 682.375146 298.062888 682.375146 295.662888 
L 682.375146 290.839138 
Q 682.375146 288.439138 679.975146 288.439138 
L 672.232646 288.439138 
Q 669.832646 288.439138 669.832646 290.839138 
z
" style="fill:#ffffff;stroke:#ffffff;stroke-linejoin:miter;"/>
    </g>
    <g clip-path="url(#p555a1c8ffe)">
     <!-- P -->
     <g transform="translate(673.896396 290.839138)rotate(-270)scale(0.08 -0.08)">
      <use xlink:href="#DejaVuSans-80"/>
     </g>
    </g>
   </g>
   <g id="text_46">
    <g id="patch_47">
     <path clip-path="url(#p555a1c8ffe)" d="M 669.832646 305.267703 
L 669.832646 310.091453 
Q 669.832646 312.491453 672.232646 312.491453 
L 679.975146 312.491453 
Q 682.375146 312.491453 682.375146 310.091453 
L 682.375146 305.267703 
Q 682.375146 302.867703 679.975146 302.867703 
L 672.232646 302.867703 
Q 669.832646 302.867703 669.832646 305.267703 
z
" style="fill:#ffffff;stroke:#ffffff;stroke-linejoin:miter;"/>
    </g>
    <g clip-path="url(#p555a1c8ffe)">
     <!-- P -->
     <g transform="translate(673.896396 305.267703)rotate(-270)scale(0.08 -0.08)">
      <use xlink:href="#DejaVuSans-80"/>
     </g>
    </g>
   </g>
   <g id="text_47">
    <g id="patch_48">
     <path clip-path="url(#p555a1c8ffe)" d="M 669.832646 319.323087 
L 669.832646 324.146837 
Q 669.832646 326.546837 672.232646 326.546837 
L 679.975146 326.546837 
Q 682.375146 326.546837 682.375146 324.146837 
L 682.375146 319.323087 
Q 682.375146 316.923087 679.975146 316.923087 
L 672.232646 316.923087 
Q 669.832646 316.923087 669.832646 319.323087 
z
" style="fill:#ffffff;stroke:#ffffff;stroke-linejoin:miter;"/>
    </g>
    <g clip-path="url(#p555a1c8ffe)">
     <!-- P -->
     <g transform="translate(673.896396 319.323087)rotate(-270)scale(0.08 -0.08)">
      <use xlink:href="#DejaVuSans-80"/>
     </g>
    </g>
   </g>
   <g id="text_48">
    <g id="patch_49">
     <path clip-path="url(#p555a1c8ffe)" d="M 669.832646 333.047239 
L 669.832646 337.870989 
Q 669.832646 340.270989 672.232646 340.270989 
L 679.975146 340.270989 
Q 682.375146 340.270989 682.375146 337.870989 
L 682.375146 333.047239 
Q 682.375146 330.647239 679.975146 330.647239 
L 672.232646 330.647239 
Q 669.832646 330.647239 669.832646 333.047239 
z
" style="fill:#ffffff;stroke:#ffffff;stroke-linejoin:miter;"/>
    </g>
    <g clip-path="url(#p555a1c8ffe)">
     <!-- P -->
     <g transform="translate(673.896396 333.047239)rotate(-270)scale(0.08 -0.08)">
      <use xlink:href="#DejaVuSans-80"/>
     </g>
    </g>
   </g>
   <g id="text_49">
    <g id="patch_50">
     <path clip-path="url(#p555a1c8ffe)" d="M 669.832646 346.48862 
L 669.832646 351.31237 
Q 669.832646 353.71237 672.232646 353.71237 
L 679.975146 353.71237 
Q 682.375146 353.71237 682.375146 351.31237 
L 682.375146 346.48862 
Q 682.375146 344.08862 679.975146 344.08862 
L 672.232646 344.08862 
Q 669.832646 344.08862 669.832646 346.48862 
z
" style="fill:#ffffff;stroke:#ffffff;stroke-linejoin:miter;"/>
    </g>
    <g clip-path="url(#p555a1c8ffe)">
     <!-- P -->
     <g transform="translate(673.896396 346.48862)rotate(-270)scale(0.08 -0.08)">
      <use xlink:href="#DejaVuSans-80"/>
     </g>
    </g>
   </g>
   <g id="text_50">
    <g id="patch_51">
     <path clip-path="url(#p555a1c8ffe)" d="M 669.832646 359.710493 
L 669.832646 364.534243 
Q 669.832646 366.934243 672.232646 366.934243 
L 679.975146 366.934243 
Q 682.375146 366.934243 682.375146 364.534243 
L 682.375146 359.710493 
Q 682.375146 357.310493 679.975146 357.310493 
L 672.232646 357.310493 
Q 669.832646 357.310493 669.832646 359.710493 
z
" style="fill:#ffffff;stroke:#ffffff;stroke-linejoin:miter;"/>
    </g>
    <g clip-path="url(#p555a1c8ffe)">
     <!-- P -->
     <g transform="translate(673.896396 359.710493)rotate(-270)scale(0.08 -0.08)">
      <use xlink:href="#DejaVuSans-80"/>
     </g>
    </g>
   </g>
   <g id="text_51">
    <g id="patch_52">
     <path clip-path="url(#p555a1c8ffe)" d="M 669.832646 358.34916 
L 669.832646 392.15666 
Q 669.832646 394.55666 672.232646 394.55666 
L 679.975146 394.55666 
Q 682.375146 394.55666 682.375146 392.15666 
L 682.375146 358.34916 
Q 682.375146 355.94916 679.975146 355.94916 
L 672.232646 355.94916 
Q 669.832646 355.94916 669.832646 358.34916 
z
" style="fill:#ffffff;stroke:#ffffff;stroke-linejoin:miter;"/>
    </g>
    <g clip-path="url(#p555a1c8ffe)">
     <!-- Terminal -->
     <g transform="translate(673.896396 358.34916)rotate(-270)scale(0.08 -0.08)">
      <use xlink:href="#DejaVuSans-84"/>
      <use x="44.083984" xlink:href="#DejaVuSans-101"/>
      <use x="105.607422" xlink:href="#DejaVuSans-114"/>
      <use x="144.970703" xlink:href="#DejaVuSans-109"/>
      <use x="242.382812" xlink:href="#DejaVuSans-105"/>
      <use x="270.166016" xlink:href="#DejaVuSans-110"/>
      <use x="333.544922" xlink:href="#DejaVuSans-97"/>
      <use x="394.824219" xlink:href="#DejaVuSans-108"/>
     </g>
    </g>
   </g>
   <g id="PathCollection_1">
    <defs>
     <path d="M 0 8.660254 
C 2.296726 8.660254 4.499694 7.747755 6.123724 6.123724 
C 7.747755 4.499694 8.660254 2.296726 8.660254 -0 
C 8.660254 -2.296726 7.747755 -4.499694 6.123724 -6.123724 
C 4.499694 -7.747755 2.296726 -8.660254 0 -8.660254 
C -2.296726 -8.660254 -4.499694 -7.747755 -6.123724 -6.123724 
C -7.747755 -4.499694 -8.660254 -2.296726 -8.660254 0 
C -8.660254 2.296726 -7.747755 4.499694 -6.123724 6.123724 
C -4.499694 7.747755 -2.296726 8.660254 0 8.660254 
z
" id="C0_0_ecc7832655"/>
    </defs>
    <g clip-path="url(#p555a1c8ffe)">
     <use style="fill:#ffffff;stroke:#ffffff;" x="34.545455" xlink:href="#C0_0_ecc7832655" y="381.818182"/>
    </g>
    <g clip-path="url(#p555a1c8ffe)">
     <use style="fill:#ffffff;stroke:#ffffff;" x="83.896104" xlink:href="#C0_0_ecc7832655" y="381.818182"/>
    </g>
    <g clip-path="url(#p555a1c8ffe)">
     <use style="fill:#ffffff;stroke:#ffffff;" x="133.246753" xlink:href="#C0_0_ecc7832655" y="381.818182"/>
    </g>
    <g clip-path="url(#p555a1c8ffe)">
     <use style="fill:#ffffff;stroke:#ffffff;" x="182.597403" xlink:href="#C0_0_ecc7832655" y="381.818182"/>
    </g>
    <g clip-path="url(#p555a1c8ffe)">
     <use style="fill:#ffffff;stroke:#ffffff;" x="231.948052" xlink:href="#C0_0_ecc7832655" y="381.818182"/>
    </g>
    <g clip-path="url(#p555a1c8ffe)">
     <use style="fill:#ffffff;stroke:#ffffff;" x="281.298701" xlink:href="#C0_0_ecc7832655" y="381.818182"/>
    </g>
    <g clip-path="url(#p555a1c8ffe)">
     <use style="fill:#ffffff;stroke:#ffffff;" x="330.649351" xlink:href="#C0_0_ecc7832655" y="381.818182"/>
    </g>
    <g clip-path="url(#p555a1c8ffe)">
     <use style="fill:#ffffff;stroke:#ffffff;" x="380" xlink:href="#C0_0_ecc7832655" y="381.818182"/>
    </g>
    <g clip-path="url(#p555a1c8ffe)">
     <use style="fill:#ffffff;stroke:#ffffff;" x="429.350649" xlink:href="#C0_0_ecc7832655" y="381.818182"/>
    </g>
    <g clip-path="url(#p555a1c8ffe)">
     <use style="fill:#ffffff;stroke:#ffffff;" x="478.701299" xlink:href="#C0_0_ecc7832655" y="381.818182"/>
    </g>
    <g clip-path="url(#p555a1c8ffe)">
     <use style="fill:#ffffff;stroke:#ffffff;" x="528.051948" xlink:href="#C0_0_ecc7832655" y="381.818182"/>
    </g>
    <g clip-path="url(#p555a1c8ffe)">
     <use style="fill:#ffffff;stroke:#ffffff;" x="577.402597" xlink:href="#C0_0_ecc7832655" y="381.818182"/>
    </g>
    <g clip-path="url(#p555a1c8ffe)">
     <use style="fill:#ffffff;stroke:#ffffff;" x="626.753247" xlink:href="#C0_0_ecc7832655" y="381.818182"/>
    </g>
    <g clip-path="url(#p555a1c8ffe)">
     <use style="fill:#ffffff;stroke:#ffffff;" x="676.103896" xlink:href="#C0_0_ecc7832655" y="381.818182"/>
    </g>
    <g clip-path="url(#p555a1c8ffe)">
     <use style="fill:#ffffff;stroke:#ffffff;" x="725.454545" xlink:href="#C0_0_ecc7832655" y="381.818182"/>
    </g>
    <g clip-path="url(#p555a1c8ffe)">
     <use style="stroke:#000000;" x="325.714286" xlink:href="#C0_0_ecc7832655" y="18.181818"/>
    </g>
    <g clip-path="url(#p555a1c8ffe)">
     <use style="stroke:#000000;" x="83.896104" xlink:href="#C0_0_ecc7832655" y="368.687639"/>
    </g>
    <g clip-path="url(#p555a1c8ffe)">
     <use style="stroke:#000000;" x="182.597403" xlink:href="#C0_0_ecc7832655" y="355.557096"/>
    </g>
    <g clip-path="url(#p555a1c8ffe)">
     <use style="stroke:#000000;" x="281.298701" xlink:href="#C0_0_ecc7832655" y="368.687639"/>
    </g>
    <g clip-path="url(#p555a1c8ffe)">
     <use style="stroke:#000000;" x="330.649351" xlink:href="#C0_0_ecc7832655" y="368.687639"/>
    </g>
    <g clip-path="url(#p555a1c8ffe)">
     <use style="stroke:#000000;" x="380" xlink:href="#C0_0_ecc7832655" y="368.687639"/>
    </g>
    <g clip-path="url(#p555a1c8ffe)">
     <use style="stroke:#000000;" x="528.051948" xlink:href="#C0_0_ecc7832655" y="355.557096"/>
    </g>
    <g clip-path="url(#p555a1c8ffe)">
     <use style="stroke:#000000;" x="725.454545" xlink:href="#C0_0_ecc7832655" y="368.687639"/>
    </g>
    <g clip-path="url(#p555a1c8ffe)">
     <use style="stroke:#000000;" x="676.103896" xlink:href="#C0_0_ecc7832655" y="42.527183"/>
    </g>
    <g clip-path="url(#p555a1c8ffe)">
     <use style="stroke:#000000;" x="133.246753" xlink:href="#C0_0_ecc7832655" y="368.687639"/>
    </g>
    <g clip-path="url(#p555a1c8ffe)">
     <use style="stroke:#000000;" x="182.597403" xlink:href="#C0_0_ecc7832655" y="368.687639"/>
    </g>
    <g clip-path="url(#p555a1c8ffe)">
     <use style="stroke:#000000;" x="231.948052" xlink:href="#C0_0_ecc7832655" y="368.687639"/>
    </g>
    <g clip-path="url(#p555a1c8ffe)">
     <use style="stroke:#000000;" x="429.350649" xlink:href="#C0_0_ecc7832655" y="368.687639"/>
    </g>
    <g clip-path="url(#p555a1c8ffe)">
     <use style="stroke:#000000;" x="478.701299" xlink:href="#C0_0_ecc7832655" y="368.687639"/>
    </g>
    <g clip-path="url(#p555a1c8ffe)">
     <use style="stroke:#000000;" x="528.051948" xlink:href="#C0_0_ecc7832655" y="368.687639"/>
    </g>
    <g clip-path="url(#p555a1c8ffe)">
     <use style="stroke:#000000;" x="577.402597" xlink:href="#C0_0_ecc7832655" y="368.687639"/>
    </g>
    <g clip-path="url(#p555a1c8ffe)">
     <use style="stroke:#000000;" x="626.753247" xlink:href="#C0_0_ecc7832655" y="368.687639"/>
    </g>
    <g clip-path="url(#p555a1c8ffe)">
     <use style="stroke:#000000;" x="34.545455" xlink:href="#C0_0_ecc7832655" y="368.687639"/>
    </g>
    <g clip-path="url(#p555a1c8ffe)">
     <use style="stroke:#000000;" x="676.103896" xlink:href="#C0_0_ecc7832655" y="65.868478"/>
    </g>
    <g clip-path="url(#p555a1c8ffe)">
     <use style="stroke:#000000;" x="676.103896" xlink:href="#C0_0_ecc7832655" y="88.263314"/>
    </g>
    <g clip-path="url(#p555a1c8ffe)">
     <use style="stroke:#000000;" x="676.103896" xlink:href="#C0_0_ecc7832655" y="109.76614"/>
    </g>
    <g clip-path="url(#p555a1c8ffe)">
     <use style="stroke:#000000;" x="676.103896" xlink:href="#C0_0_ecc7832655" y="130.42849"/>
    </g>
    <g clip-path="url(#p555a1c8ffe)">
     <use style="stroke:#000000;" x="676.103896" xlink:href="#C0_0_ecc7832655" y="150.29923"/>
    </g>
    <g clip-path="url(#p555a1c8ffe)">
     <use style="stroke:#000000;" x="676.103896" xlink:href="#C0_0_ecc7832655" y="169.42479"/>
    </g>
    <g clip-path="url(#p555a1c8ffe)">
     <use style="stroke:#000000;" x="676.103896" xlink:href="#C0_0_ecc7832655" y="187.849397"/>
    </g>
    <g clip-path="url(#p555a1c8ffe)">
     <use style="stroke:#000000;" x="676.103896" xlink:href="#C0_0_ecc7832655" y="205.615314"/>
    </g>
    <g clip-path="url(#p555a1c8ffe)">
     <use style="stroke:#000000;" x="676.103896" xlink:href="#C0_0_ecc7832655" y="222.763076"/>
    </g>
    <g clip-path="url(#p555a1c8ffe)">
     <use style="stroke:#000000;" x="676.103896" xlink:href="#C0_0_ecc7832655" y="239.331756"/>
    </g>
    <g clip-path="url(#p555a1c8ffe)">
     <use style="stroke:#000000;" x="676.103896" xlink:href="#C0_0_ecc7832655" y="255.359248"/>
    </g>
    <g clip-path="url(#p555a1c8ffe)">
     <use style="stroke:#000000;" x="676.103896" xlink:href="#C0_0_ecc7832655" y="270.882606"/>
    </g>
    <g clip-path="url(#p555a1c8ffe)">
     <use style="stroke:#000000;" x="676.103896" xlink:href="#C0_0_ecc7832655" y="285.93846"/>
    </g>
    <g clip-path="url(#p555a1c8ffe)">
     <use style="stroke:#000000;" x="676.103896" xlink:href="#C0_0_ecc7832655" y="300.563566"/>
    </g>
    <g clip-path="url(#p555a1c8ffe)">
     <use style="stroke:#000000;" x="676.103896" xlink:href="#C0_0_ecc7832655" y="314.79559"/>
    </g>
    <g clip-path="url(#p555a1c8ffe)">
     <use style="stroke:#000000;" x="676.103896" xlink:href="#C0_0_ecc7832655" y="328.674334"/>
    </g>
    <g clip-path="url(#p555a1c8ffe)">
     <use style="stroke:#000000;" x="676.103896" xlink:href="#C0_0_ecc7832655" y="342.243893"/>
    </g>
    <g clip-path="url(#p555a1c8ffe)">
     <use style="stroke:#000000;" x="676.103896" xlink:href="#C0_0_ecc7832655" y="355.557096"/>
    </g>
    <g clip-path="url(#p555a1c8ffe)">
     <use style="stroke:#000000;" x="676.103896" xlink:href="#C0_0_ecc7832655" y="368.687639"/>
    </g>
   </g>
   <g id="text_52">
    <g clip-path="url(#p555a1c8ffe)">
     <!-- The -->
     <g transform="translate(25.246236 384.577557)scale(0.1 -0.1)">
      <defs>
       <path d="M 54.890625 33.015625 
L 54.890625 0 
L 45.90625 0 
L 45.90625 32.71875 
Q 45.90625 40.484375 42.875 44.328125 
Q 39.84375 48.1875 33.796875 48.1875 
Q 26.515625 48.1875 22.3125 43.546875 
Q 18.109375 38.921875 18.109375 30.90625 
L 18.109375 0 
L 9.078125 0 
L 9.078125 75.984375 
L 18.109375 75.984375 
L 18.109375 46.1875 
Q 21.34375 51.125 25.703125 53.5625 
Q 30.078125 56 35.796875 56 
Q 45.21875 56 50.046875 50.171875 
Q 54.890625 44.34375 54.890625 33.015625 
z
" id="DejaVuSans-104"/>
      </defs>
      <use xlink:href="#DejaVuSans-84"/>
      <use x="61.083984" xlink:href="#DejaVuSans-104"/>
      <use x="124.462891" xlink:href="#DejaVuSans-101"/>
     </g>
    </g>
   </g>
   <g id="text_53">
    <g clip-path="url(#p555a1c8ffe)">
     <!-- trophy -->
     <g transform="translate(67.63126 384.577557)scale(0.1 -0.1)">
      <defs>
       <path d="M 18.3125 70.21875 
L 18.3125 54.6875 
L 36.8125 54.6875 
L 36.8125 47.703125 
L 18.3125 47.703125 
L 18.3125 18.015625 
Q 18.3125 11.328125 20.140625 9.421875 
Q 21.96875 7.515625 27.59375 7.515625 
L 36.8125 7.515625 
L 36.8125 0 
L 27.59375 0 
Q 17.1875 0 13.234375 3.875 
Q 9.28125 7.765625 9.28125 18.015625 
L 9.28125 47.703125 
L 2.6875 47.703125 
L 2.6875 54.6875 
L 9.28125 54.6875 
L 9.28125 70.21875 
z
" id="DejaVuSans-116"/>
       <path d="M 30.609375 48.390625 
Q 23.390625 48.390625 19.1875 42.75 
Q 14.984375 37.109375 14.984375 27.296875 
Q 14.984375 17.484375 19.15625 11.84375 
Q 23.34375 6.203125 30.609375 6.203125 
Q 37.796875 6.203125 41.984375 11.859375 
Q 46.1875 17.53125 46.1875 27.296875 
Q 46.1875 37.015625 41.984375 42.703125 
Q 37.796875 48.390625 30.609375 48.390625 
z
M 30.609375 56 
Q 42.328125 56 49.015625 48.375 
Q 55.71875 40.765625 55.71875 27.296875 
Q 55.71875 13.875 49.015625 6.21875 
Q 42.328125 -1.421875 30.609375 -1.421875 
Q 18.84375 -1.421875 12.171875 6.21875 
Q 5.515625 13.875 5.515625 27.296875 
Q 5.515625 40.765625 12.171875 48.375 
Q 18.84375 56 30.609375 56 
z
" id="DejaVuSans-111"/>
       <path d="M 18.109375 8.203125 
L 18.109375 -20.796875 
L 9.078125 -20.796875 
L 9.078125 54.6875 
L 18.109375 54.6875 
L 18.109375 46.390625 
Q 20.953125 51.265625 25.265625 53.625 
Q 29.59375 56 35.59375 56 
Q 45.5625 56 51.78125 48.09375 
Q 58.015625 40.1875 58.015625 27.296875 
Q 58.015625 14.40625 51.78125 6.484375 
Q 45.5625 -1.421875 35.59375 -1.421875 
Q 29.59375 -1.421875 25.265625 0.953125 
Q 20.953125 3.328125 18.109375 8.203125 
z
M 48.6875 27.296875 
Q 48.6875 37.203125 44.609375 42.84375 
Q 40.53125 48.484375 33.40625 48.484375 
Q 26.265625 48.484375 22.1875 42.84375 
Q 18.109375 37.203125 18.109375 27.296875 
Q 18.109375 17.390625 22.1875 11.75 
Q 26.265625 6.109375 33.40625 6.109375 
Q 40.53125 6.109375 44.609375 11.75 
Q 48.6875 17.390625 48.6875 27.296875 
z
" id="DejaVuSans-112"/>
       <path d="M 32.171875 -5.078125 
Q 28.375 -14.84375 24.75 -17.8125 
Q 21.140625 -20.796875 15.09375 -20.796875 
L 7.90625 -20.796875 
L 7.90625 -13.28125 
L 13.1875 -13.28125 
Q 16.890625 -13.28125 18.9375 -11.515625 
Q 21 -9.765625 23.484375 -3.21875 
L 25.09375 0.875 
L 2.984375 54.6875 
L 12.5 54.6875 
L 29.59375 11.921875 
L 46.6875 54.6875 
L 56.203125 54.6875 
z
" id="DejaVuSans-121"/>
      </defs>
      <use xlink:href="#DejaVuSans-116"/>
      <use x="39.208984" xlink:href="#DejaVuSans-114"/>
      <use x="78.072266" xlink:href="#DejaVuSans-111"/>
      <use x="139.253906" xlink:href="#DejaVuSans-112"/>
      <use x="202.730469" xlink:href="#DejaVuSans-104"/>
      <use x="266.109375" xlink:href="#DejaVuSans-121"/>
     </g>
    </g>
   </g>
   <g id="text_54">
    <g clip-path="url(#p555a1c8ffe)">
     <!-- does -->
     <g transform="translate(121.331909 384.577557)scale(0.1 -0.1)">
      <defs>
       <path d="M 45.40625 46.390625 
L 45.40625 75.984375 
L 54.390625 75.984375 
L 54.390625 0 
L 45.40625 0 
L 45.40625 8.203125 
Q 42.578125 3.328125 38.25 0.953125 
Q 33.9375 -1.421875 27.875 -1.421875 
Q 17.96875 -1.421875 11.734375 6.484375 
Q 5.515625 14.40625 5.515625 27.296875 
Q 5.515625 40.1875 11.734375 48.09375 
Q 17.96875 56 27.875 56 
Q 33.9375 56 38.25 53.625 
Q 42.578125 51.265625 45.40625 46.390625 
z
M 14.796875 27.296875 
Q 14.796875 17.390625 18.875 11.75 
Q 22.953125 6.109375 30.078125 6.109375 
Q 37.203125 6.109375 41.296875 11.75 
Q 45.40625 17.390625 45.40625 27.296875 
Q 45.40625 37.203125 41.296875 42.84375 
Q 37.203125 48.484375 30.078125 48.484375 
Q 22.953125 48.484375 18.875 42.84375 
Q 14.796875 37.203125 14.796875 27.296875 
z
" id="DejaVuSans-100"/>
       <path d="M 44.28125 53.078125 
L 44.28125 44.578125 
Q 40.484375 46.53125 36.375 47.5 
Q 32.28125 48.484375 27.875 48.484375 
Q 21.1875 48.484375 17.84375 46.4375 
Q 14.5 44.390625 14.5 40.28125 
Q 14.5 37.15625 16.890625 35.375 
Q 19.28125 33.59375 26.515625 31.984375 
L 29.59375 31.296875 
Q 39.15625 29.25 43.1875 25.515625 
Q 47.21875 21.78125 47.21875 15.09375 
Q 47.21875 7.46875 41.1875 3.015625 
Q 35.15625 -1.421875 24.609375 -1.421875 
Q 20.21875 -1.421875 15.453125 -0.5625 
Q 10.6875 0.296875 5.421875 2 
L 5.421875 11.28125 
Q 10.40625 8.6875 15.234375 7.390625 
Q 20.0625 6.109375 24.8125 6.109375 
Q 31.15625 6.109375 34.5625 8.28125 
Q 37.984375 10.453125 37.984375 14.40625 
Q 37.984375 18.0625 35.515625 20.015625 
Q 33.0625 21.96875 24.703125 23.78125 
L 21.578125 24.515625 
Q 13.234375 26.265625 9.515625 29.90625 
Q 5.8125 33.546875 5.8125 39.890625 
Q 5.8125 47.609375 11.28125 51.796875 
Q 16.75 56 26.8125 56 
Q 31.78125 56 36.171875 55.265625 
Q 40.578125 54.546875 44.28125 53.078125 
z
" id="DejaVuSans-115"/>
      </defs>
      <use xlink:href="#DejaVuSans-100"/>
      <use x="63.476562" xlink:href="#DejaVuSans-111"/>
      <use x="124.658203" xlink:href="#DejaVuSans-101"/>
      <use x="186.181641" xlink:href="#DejaVuSans-115"/>
     </g>
    </g>
   </g>
   <g id="text_55">
    <g clip-path="url(#p555a1c8ffe)">
     <!-- n't -->
     <g transform="translate(176.094278 384.577557)scale(0.1 -0.1)">
      <defs>
       <path d="M 17.921875 72.90625 
L 17.921875 45.796875 
L 9.625 45.796875 
L 9.625 72.90625 
z
" id="DejaVuSans-39"/>
      </defs>
      <use xlink:href="#DejaVuSans-110"/>
      <use x="63.378906" xlink:href="#DejaVuSans-39"/>
      <use x="90.869141" xlink:href="#DejaVuSans-116"/>
     </g>
    </g>
   </g>
   <g id="text_56">
    <g clip-path="url(#p555a1c8ffe)">
     <!-- fit -->
     <g transform="translate(226.838677 384.577557)scale(0.1 -0.1)">
      <defs>
       <path d="M 37.109375 75.984375 
L 37.109375 68.5 
L 28.515625 68.5 
Q 23.6875 68.5 21.796875 66.546875 
Q 19.921875 64.59375 19.921875 59.515625 
L 19.921875 54.6875 
L 34.71875 54.6875 
L 34.71875 47.703125 
L 19.921875 47.703125 
L 19.921875 0 
L 10.890625 0 
L 10.890625 47.703125 
L 2.296875 47.703125 
L 2.296875 54.6875 
L 10.890625 54.6875 
L 10.890625 58.5 
Q 10.890625 67.625 15.140625 71.796875 
Q 19.390625 75.984375 28.609375 75.984375 
z
" id="DejaVuSans-102"/>
      </defs>
      <use xlink:href="#DejaVuSans-102"/>
      <use x="35.205078" xlink:href="#DejaVuSans-105"/>
      <use x="62.988281" xlink:href="#DejaVuSans-116"/>
     </g>
    </g>
   </g>
   <g id="text_57">
    <g clip-path="url(#p555a1c8ffe)">
     <!-- into -->
     <g transform="translate(271.721358 384.577557)scale(0.1 -0.1)">
      <use xlink:href="#DejaVuSans-105"/>
      <use x="27.783203" xlink:href="#DejaVuSans-110"/>
      <use x="91.162109" xlink:href="#DejaVuSans-116"/>
      <use x="130.371094" xlink:href="#DejaVuSans-111"/>
     </g>
    </g>
   </g>
   <g id="text_58">
    <g clip-path="url(#p555a1c8ffe)">
     <!-- the -->
     <g transform="translate(322.443882 384.577557)scale(0.1 -0.1)">
      <use xlink:href="#DejaVuSans-116"/>
      <use x="39.208984" xlink:href="#DejaVuSans-104"/>
      <use x="102.587891" xlink:href="#DejaVuSans-101"/>
     </g>
    </g>
   </g>
   <g id="text_59">
    <g clip-path="url(#p555a1c8ffe)">
     <!-- brown -->
     <g transform="translate(364.565625 384.577557)scale(0.1 -0.1)">
      <defs>
       <path d="M 48.6875 27.296875 
Q 48.6875 37.203125 44.609375 42.84375 
Q 40.53125 48.484375 33.40625 48.484375 
Q 26.265625 48.484375 22.1875 42.84375 
Q 18.109375 37.203125 18.109375 27.296875 
Q 18.109375 17.390625 22.1875 11.75 
Q 26.265625 6.109375 33.40625 6.109375 
Q 40.53125 6.109375 44.609375 11.75 
Q 48.6875 17.390625 48.6875 27.296875 
z
M 18.109375 46.390625 
Q 20.953125 51.265625 25.265625 53.625 
Q 29.59375 56 35.59375 56 
Q 45.5625 56 51.78125 48.09375 
Q 58.015625 40.1875 58.015625 27.296875 
Q 58.015625 14.40625 51.78125 6.484375 
Q 45.5625 -1.421875 35.59375 -1.421875 
Q 29.59375 -1.421875 25.265625 0.953125 
Q 20.953125 3.328125 18.109375 8.203125 
L 18.109375 0 
L 9.078125 0 
L 9.078125 75.984375 
L 18.109375 75.984375 
z
" id="DejaVuSans-98"/>
       <path d="M 4.203125 54.6875 
L 13.1875 54.6875 
L 24.421875 12.015625 
L 35.59375 54.6875 
L 46.1875 54.6875 
L 57.421875 12.015625 
L 68.609375 54.6875 
L 77.59375 54.6875 
L 63.28125 0 
L 52.6875 0 
L 40.921875 44.828125 
L 29.109375 0 
L 18.5 0 
z
" id="DejaVuSans-119"/>
      </defs>
      <use xlink:href="#DejaVuSans-98"/>
      <use x="63.476562" xlink:href="#DejaVuSans-114"/>
      <use x="102.339844" xlink:href="#DejaVuSans-111"/>
      <use x="163.521484" xlink:href="#DejaVuSans-119"/>
      <use x="245.308594" xlink:href="#DejaVuSans-110"/>
     </g>
    </g>
   </g>
   <g id="text_60">
    <g clip-path="url(#p555a1c8ffe)">
     <!-- suitcase -->
     <g transform="translate(408.733462 384.577557)scale(0.1 -0.1)">
      <defs>
       <path d="M 8.5 21.578125 
L 8.5 54.6875 
L 17.484375 54.6875 
L 17.484375 21.921875 
Q 17.484375 14.15625 20.5 10.265625 
Q 23.53125 6.390625 29.59375 6.390625 
Q 36.859375 6.390625 41.078125 11.03125 
Q 45.3125 15.671875 45.3125 23.6875 
L 45.3125 54.6875 
L 54.296875 54.6875 
L 54.296875 0 
L 45.3125 0 
L 45.3125 8.40625 
Q 42.046875 3.421875 37.71875 1 
Q 33.40625 -1.421875 27.6875 -1.421875 
Q 18.265625 -1.421875 13.375 4.4375 
Q 8.5 10.296875 8.5 21.578125 
z
M 31.109375 56 
z
" id="DejaVuSans-117"/>
       <path d="M 48.78125 52.59375 
L 48.78125 44.1875 
Q 44.96875 46.296875 41.140625 47.34375 
Q 37.3125 48.390625 33.40625 48.390625 
Q 24.65625 48.390625 19.8125 42.84375 
Q 14.984375 37.3125 14.984375 27.296875 
Q 14.984375 17.28125 19.8125 11.734375 
Q 24.65625 6.203125 33.40625 6.203125 
Q 37.3125 6.203125 41.140625 7.25 
Q 44.96875 8.296875 48.78125 10.40625 
L 48.78125 2.09375 
Q 45.015625 0.34375 40.984375 -0.53125 
Q 36.96875 -1.421875 32.421875 -1.421875 
Q 20.0625 -1.421875 12.78125 6.34375 
Q 5.515625 14.109375 5.515625 27.296875 
Q 5.515625 40.671875 12.859375 48.328125 
Q 20.21875 56 33.015625 56 
Q 37.15625 56 41.109375 55.140625 
Q 45.0625 54.296875 48.78125 52.59375 
z
" id="DejaVuSans-99"/>
      </defs>
      <use xlink:href="#DejaVuSans-115"/>
      <use x="52.099609" xlink:href="#DejaVuSans-117"/>
      <use x="115.478516" xlink:href="#DejaVuSans-105"/>
      <use x="143.261719" xlink:href="#DejaVuSans-116"/>
      <use x="182.470703" xlink:href="#DejaVuSans-99"/>
      <use x="237.451172" xlink:href="#DejaVuSans-97"/>
      <use x="298.730469" xlink:href="#DejaVuSans-115"/>
      <use x="350.830078" xlink:href="#DejaVuSans-101"/>
     </g>
    </g>
   </g>
   <g id="text_61">
    <g clip-path="url(#p555a1c8ffe)">
     <!-- because -->
     <g transform="translate(457.787236 384.577557)scale(0.1 -0.1)">
      <use xlink:href="#DejaVuSans-98"/>
      <use x="63.476562" xlink:href="#DejaVuSans-101"/>
      <use x="125" xlink:href="#DejaVuSans-99"/>
      <use x="179.980469" xlink:href="#DejaVuSans-97"/>
      <use x="241.259766" xlink:href="#DejaVuSans-117"/>
      <use x="304.638672" xlink:href="#DejaVuSans-115"/>
      <use x="356.738281" xlink:href="#DejaVuSans-101"/>
     </g>
    </g>
   </g>
   <g id="text_62">
    <g clip-path="url(#p555a1c8ffe)">
     <!-- it -->
     <g transform="translate(524.702729 384.577557)scale(0.1 -0.1)">
      <use xlink:href="#DejaVuSans-105"/>
      <use x="27.783203" xlink:href="#DejaVuSans-116"/>
     </g>
    </g>
   </g>
   <g id="text_63">
    <g clip-path="url(#p555a1c8ffe)">
     <!-- 's -->
     <g transform="translate(573.423691 384.577557)scale(0.1 -0.1)">
      <use xlink:href="#DejaVuSans-39"/>
      <use x="27.490234" xlink:href="#DejaVuSans-115"/>
     </g>
    </g>
   </g>
   <g id="text_64">
    <g clip-path="url(#p555a1c8ffe)">
     <!-- too -->
     <g transform="translate(618.674341 384.577557)scale(0.1 -0.1)">
      <use xlink:href="#DejaVuSans-116"/>
      <use x="39.208984" xlink:href="#DejaVuSans-111"/>
      <use x="100.390625" xlink:href="#DejaVuSans-111"/>
     </g>
    </g>
   </g>
   <g id="text_65">
    <g clip-path="url(#p555a1c8ffe)">
     <!-- small -->
     <g transform="translate(662.786709 384.577557)scale(0.1 -0.1)">
      <use xlink:href="#DejaVuSans-115"/>
      <use x="52.099609" xlink:href="#DejaVuSans-109"/>
      <use x="149.511719" xlink:href="#DejaVuSans-97"/>
      <use x="210.791016" xlink:href="#DejaVuSans-108"/>
      <use x="238.574219" xlink:href="#DejaVuSans-108"/>
     </g>
    </g>
   </g>
   <g id="text_66">
    <g clip-path="url(#p555a1c8ffe)">
     <!-- . -->
     <g transform="translate(723.865483 384.577557)scale(0.1 -0.1)">
      <defs>
       <path d="M 10.6875 12.40625 
L 21 12.40625 
L 21 0 
L 10.6875 0 
z
" id="DejaVuSans-46"/>
      </defs>
      <use xlink:href="#DejaVuSans-46"/>
     </g>
    </g>
   </g>
  </g>
 </g>
 <defs>
  <clipPath id="p555a1c8ffe">
   <rect height="400" width="760" x="0" y="0"/>
  </clipPath>
 </defs>
</svg>
