<?xml version="1.0" encoding="utf-8" standalone="no"?>
<!DOCTYPE svg PUBLIC "-//W3C//DTD SVG 1.1//EN"
  "http://www.w3.org/Graphics/SVG/1.1/DTD/svg11.dtd">
<!-- Created with matplotlib (https://matplotlib.org/) -->
<svg height="240pt" version="1.1" viewBox="0 0 456 240" width="456pt" xmlns="http://www.w3.org/2000/svg" xmlns:xlink="http://www.w3.org/1999/xlink">
 <metadata>
  <rdf:RDF xmlns:cc="http://creativecommons.org/ns#" xmlns:dc="http://purl.org/dc/elements/1.1/" xmlns:rdf="http://www.w3.org/1999/02/22-rdf-syntax-ns#">
   <cc:Work>
    <dc:type rdf:resource="http://purl.org/dc/dcmitype/StillImage"/>
    <dc:date>2021-05-19T11:41:53.152437</dc:date>
    <dc:format>image/svg+xml</dc:format>
    <dc:creator>
     <cc:Agent>
      <dc:title>Matplotlib v3.3.4, https://matplotlib.org/</dc:title>
     </cc:Agent>
    </dc:creator>
   </cc:Work>
  </rdf:RDF>
 </metadata>
 <defs>
  <style type="text/css">*{stroke-linecap:butt;stroke-linejoin:round;}</style>
 </defs>
 <g id="figure_1">
  <g id="patch_1">
   <path d="M 0 240 
L 456 240 
L 456 0 
L 0 0 
z
" style="fill:#ffffff;"/>
  </g>
  <g id="axes_1">
   <g id="LineCollection_1">
    <path clip-path="url(#p79a25b10a8)" d="M 160.636364 10.909091 
L 72.545455 221.212583 
" style="fill:none;stroke:#000000;"/>
    <path clip-path="url(#p79a25b10a8)" d="M 160.636364 10.909091 
L 253.909091 213.334258 
" style="fill:none;stroke:#000000;"/>
    <path clip-path="url(#p79a25b10a8)" d="M 160.636364 10.909091 
L 435.272727 221.212583 
" style="fill:none;stroke:#000000;"/>
    <path clip-path="url(#p79a25b10a8)" d="M 160.636364 10.909091 
L 20.727273 25.51631 
" style="fill:none;stroke:#000000;"/>
    <path clip-path="url(#p79a25b10a8)" d="M 160.636364 10.909091 
L 20.727273 221.212583 
" style="fill:none;stroke:#000000;stroke-dasharray:3.7,1.6;stroke-dashoffset:0;"/>
    <path clip-path="url(#p79a25b10a8)" d="M 72.545455 221.212583 
L 72.545455 229.090909 
" style="fill:none;stroke:#000000;"/>
    <path clip-path="url(#p79a25b10a8)" d="M 253.909091 213.334258 
L 124.363636 221.212583 
" style="fill:none;stroke:#000000;"/>
    <path clip-path="url(#p79a25b10a8)" d="M 253.909091 213.334258 
L 176.181818 221.212583 
" style="fill:none;stroke:#000000;"/>
    <path clip-path="url(#p79a25b10a8)" d="M 253.909091 213.334258 
L 228 221.212583 
" style="fill:none;stroke:#000000;"/>
    <path clip-path="url(#p79a25b10a8)" d="M 253.909091 213.334258 
L 279.818182 221.212583 
" style="fill:none;stroke:#000000;"/>
    <path clip-path="url(#p79a25b10a8)" d="M 253.909091 213.334258 
L 331.636364 221.212583 
" style="fill:none;stroke:#000000;"/>
    <path clip-path="url(#p79a25b10a8)" d="M 253.909091 213.334258 
L 383.454545 221.212583 
" style="fill:none;stroke:#000000;"/>
    <path clip-path="url(#p79a25b10a8)" d="M 435.272727 221.212583 
L 435.272727 229.090909 
" style="fill:none;stroke:#000000;"/>
    <path clip-path="url(#p79a25b10a8)" d="M 20.727273 25.51631 
L 20.727273 39.521087 
" style="fill:none;stroke:#000000;"/>
    <path clip-path="url(#p79a25b10a8)" d="M 124.363636 221.212583 
L 124.363636 229.090909 
" style="fill:none;stroke:#000000;"/>
    <path clip-path="url(#p79a25b10a8)" d="M 176.181818 221.212583 
L 176.181818 229.090909 
" style="fill:none;stroke:#000000;"/>
    <path clip-path="url(#p79a25b10a8)" d="M 228 221.212583 
L 228 229.090909 
" style="fill:none;stroke:#000000;"/>
    <path clip-path="url(#p79a25b10a8)" d="M 279.818182 221.212583 
L 279.818182 229.090909 
" style="fill:none;stroke:#000000;"/>
    <path clip-path="url(#p79a25b10a8)" d="M 331.636364 221.212583 
L 331.636364 229.090909 
" style="fill:none;stroke:#000000;"/>
    <path clip-path="url(#p79a25b10a8)" d="M 383.454545 221.212583 
L 383.454545 229.090909 
" style="fill:none;stroke:#000000;"/>
    <path clip-path="url(#p79a25b10a8)" d="M 20.727273 39.521087 
L 20.727273 52.957988 
" style="fill:none;stroke:#000000;"/>
    <path clip-path="url(#p79a25b10a8)" d="M 20.727273 52.957988 
L 20.727273 65.859684 
" style="fill:none;stroke:#000000;"/>
    <path clip-path="url(#p79a25b10a8)" d="M 20.727273 65.859684 
L 20.727273 78.257094 
" style="fill:none;stroke:#000000;"/>
    <path clip-path="url(#p79a25b10a8)" d="M 20.727273 78.257094 
L 20.727273 90.179538 
" style="fill:none;stroke:#000000;"/>
    <path clip-path="url(#p79a25b10a8)" d="M 20.727273 90.179538 
L 20.727273 101.654874 
" style="fill:none;stroke:#000000;"/>
    <path clip-path="url(#p79a25b10a8)" d="M 20.727273 101.654874 
L 20.727273 112.709638 
" style="fill:none;stroke:#000000;"/>
    <path clip-path="url(#p79a25b10a8)" d="M 20.727273 112.709638 
L 20.727273 123.369188 
" style="fill:none;stroke:#000000;"/>
    <path clip-path="url(#p79a25b10a8)" d="M 20.727273 123.369188 
L 20.727273 133.657846 
" style="fill:none;stroke:#000000;"/>
    <path clip-path="url(#p79a25b10a8)" d="M 20.727273 133.657846 
L 20.727273 143.599054 
" style="fill:none;stroke:#000000;"/>
    <path clip-path="url(#p79a25b10a8)" d="M 20.727273 143.599054 
L 20.727273 153.215549 
" style="fill:none;stroke:#000000;"/>
    <path clip-path="url(#p79a25b10a8)" d="M 20.727273 153.215549 
L 20.727273 162.529564 
" style="fill:none;stroke:#000000;"/>
    <path clip-path="url(#p79a25b10a8)" d="M 20.727273 162.529564 
L 20.727273 171.563076 
" style="fill:none;stroke:#000000;"/>
    <path clip-path="url(#p79a25b10a8)" d="M 20.727273 171.563076 
L 20.727273 180.33814 
" style="fill:none;stroke:#000000;"/>
    <path clip-path="url(#p79a25b10a8)" d="M 20.727273 180.33814 
L 20.727273 188.877354 
" style="fill:none;stroke:#000000;"/>
    <path clip-path="url(#p79a25b10a8)" d="M 20.727273 188.877354 
L 20.727273 197.204601 
" style="fill:none;stroke:#000000;"/>
    <path clip-path="url(#p79a25b10a8)" d="M 20.727273 197.204601 
L 20.727273 205.346336 
" style="fill:none;stroke:#000000;"/>
    <path clip-path="url(#p79a25b10a8)" d="M 20.727273 205.346336 
L 20.727273 213.334258 
" style="fill:none;stroke:#000000;"/>
    <path clip-path="url(#p79a25b10a8)" d="M 20.727273 213.334258 
L 20.727273 221.212583 
" style="fill:none;stroke:#000000;"/>
    <path clip-path="url(#p79a25b10a8)" d="M 20.727273 221.212583 
L 20.727273 229.090909 
" style="fill:none;stroke:#000000;"/>
   </g>
   <g id="text_1">
    <g id="patch_2">
     <path clip-path="url(#p79a25b10a8)" d="M 121.486362 120.605723 
L 123.264057 116.361751 
Q 124.191298 114.148106 121.977653 113.220865 
L 114.836342 110.229547 
Q 112.622697 109.302306 111.695456 111.515951 
L 109.917761 115.759924 
Q 108.99052 117.973569 111.204165 118.90081 
L 118.345476 121.892127 
Q 120.559121 122.819368 121.486362 120.605723 
z
" style="fill:#ffffff;stroke:#ffffff;stroke-linejoin:miter;"/>
    </g>
    <g clip-path="url(#p79a25b10a8)">
     <!-- F -->
     <g transform="translate(117.738154 119.035692)rotate(-67.272401)scale(0.08 -0.08)">
      <defs>
       <path d="M 9.8125 72.90625 
L 51.703125 72.90625 
L 51.703125 64.59375 
L 19.671875 64.59375 
L 19.671875 43.109375 
L 48.578125 43.109375 
L 48.578125 34.8125 
L 19.671875 34.8125 
L 19.671875 0 
L 9.8125 0 
z
" id="DejaVuSans-70"/>
      </defs>
      <use xlink:href="#DejaVuSans-70"/>
     </g>
    </g>
   </g>
   <g id="text_2">
    <g id="patch_3">
     <path clip-path="url(#p79a25b10a8)" d="M 200.43195 112.26099 
L 202.722123 117.231238 
Q 203.726493 119.410972 205.906227 118.406602 
L 212.93814 115.166463 
Q 215.117874 114.162093 214.113504 111.982359 
L 211.823332 107.012111 
Q 210.818962 104.832377 208.639228 105.836747 
L 201.607314 109.076886 
Q 199.42758 110.081256 200.43195 112.26099 
z
" style="fill:#ffffff;stroke:#ffffff;stroke-linejoin:miter;"/>
    </g>
    <g clip-path="url(#p79a25b10a8)">
     <!-- A -->
     <g transform="translate(204.12274 110.560361)rotate(-294.739132)scale(0.08 -0.08)">
      <defs>
       <path d="M 34.1875 63.1875 
L 20.796875 26.90625 
L 47.609375 26.90625 
z
M 28.609375 72.90625 
L 39.796875 72.90625 
L 67.578125 0 
L 57.328125 0 
L 50.6875 18.703125 
L 17.828125 18.703125 
L 11.1875 0 
L 0.78125 0 
z
" id="DejaVuSans-65"/>
      </defs>
      <use xlink:href="#DejaVuSans-65"/>
     </g>
    </g>
   </g>
   <g id="text_3">
    <g id="patch_4">
     <path clip-path="url(#p79a25b10a8)" d="M 291.817478 119.260093 
L 296.466095 122.819783 
Q 298.371591 124.278921 299.830729 122.373425 
L 304.53797 116.226216 
Q 305.997109 114.32072 304.091613 112.861581 
L 299.442996 109.301891 
Q 297.5375 107.842753 296.078362 109.748249 
L 291.371121 115.895459 
Q 289.911982 117.800955 291.817478 119.260093 
z
" style="fill:#ffffff;stroke:#ffffff;stroke-linejoin:miter;"/>
    </g>
    <g clip-path="url(#p79a25b10a8)">
     <!-- U -->
     <g transform="translate(294.288134 116.033652)rotate(-322.556822)scale(0.08 -0.08)">
      <defs>
       <path d="M 8.6875 72.90625 
L 18.609375 72.90625 
L 18.609375 28.609375 
Q 18.609375 16.890625 22.84375 11.734375 
Q 27.09375 6.59375 36.625 6.59375 
Q 46.09375 6.59375 50.34375 11.734375 
Q 54.59375 16.890625 54.59375 28.609375 
L 54.59375 72.90625 
L 64.5 72.90625 
L 64.5 27.390625 
Q 64.5 13.140625 57.4375 5.859375 
Q 50.390625 -1.421875 36.625 -1.421875 
Q 22.796875 -1.421875 15.734375 5.859375 
Q 8.6875 13.140625 8.6875 27.390625 
z
" id="DejaVuSans-85"/>
      </defs>
      <use xlink:href="#DejaVuSans-85"/>
     </g>
    </g>
   </g>
   <g id="text_4">
    <g id="patch_5">
     <path clip-path="url(#p79a25b10a8)" d="M 88.934193 24.700498 
L 93.731865 24.199597 
Q 96.118891 23.950379 95.869673 21.563354 
L 95.065687 13.86271 
Q 94.816469 11.475685 92.429444 11.724902 
L 87.631771 12.225804 
Q 85.244746 12.475021 85.493963 14.862047 
L 86.29795 22.56269 
Q 86.547167 24.949716 88.934193 24.700498 
z
" style="fill:#ffffff;stroke:#ffffff;stroke-linejoin:miter;"/>
    </g>
    <g clip-path="url(#p79a25b10a8)">
     <!-- P -->
     <g transform="translate(88.51221 20.658717)rotate(-5.960376)scale(0.08 -0.08)">
      <defs>
       <path d="M 19.671875 64.796875 
L 19.671875 37.40625 
L 32.078125 37.40625 
Q 38.96875 37.40625 42.71875 40.96875 
Q 46.484375 44.53125 46.484375 51.125 
Q 46.484375 57.671875 42.71875 61.234375 
Q 38.96875 64.796875 32.078125 64.796875 
z
M 9.8125 72.90625 
L 32.078125 72.90625 
Q 44.34375 72.90625 50.609375 67.359375 
Q 56.890625 61.8125 56.890625 51.125 
Q 56.890625 40.328125 50.609375 34.8125 
Q 44.34375 29.296875 32.078125 29.296875 
L 19.671875 29.296875 
L 19.671875 0 
L 9.8125 0 
z
" id="DejaVuSans-80"/>
      </defs>
      <use xlink:href="#DejaVuSans-80"/>
     </g>
    </g>
   </g>
   <g id="text_5">
    <g id="patch_6">
     <path clip-path="url(#p79a25b10a8)" d="M 94.387573 121.812622 
L 97.41877 117.256296 
Q 98.748121 115.25809 96.749915 113.92874 
L 90.30362 109.640198 
Q 88.305415 108.310847 86.976064 110.309053 
L 83.944866 114.865378 
Q 82.615516 116.863584 84.613721 118.192935 
L 91.060016 122.481476 
Q 93.058222 123.810827 94.387573 121.812622 
z
" style="fill:#ffffff;stroke:#ffffff;stroke-linejoin:miter;"/>
    </g>
    <g clip-path="url(#p79a25b10a8)">
     <!-- A -->
     <g transform="translate(91.004153 119.561726)rotate(-56.365277)scale(0.08 -0.08)">
      <use xlink:href="#DejaVuSans-65"/>
     </g>
    </g>
   </g>
   <g id="text_6">
    <g id="patch_7">
     <path clip-path="url(#p79a25b10a8)" d="M 66.274205 208.247996 
L 66.274205 242.055496 
Q 66.274205 244.455496 68.674205 244.455496 
L 76.416705 244.455496 
Q 78.816705 244.455496 78.816705 242.055496 
L 78.816705 208.247996 
Q 78.816705 205.847996 76.416705 205.847996 
L 68.674205 205.847996 
Q 66.274205 205.847996 66.274205 208.247996 
z
" style="fill:#ffffff;stroke:#ffffff;stroke-linejoin:miter;"/>
    </g>
    <g clip-path="url(#p79a25b10a8)">
     <!-- Terminal -->
     <g transform="translate(70.337955 208.247996)rotate(-270)scale(0.08 -0.08)">
      <defs>
       <path d="M -0.296875 72.90625 
L 61.375 72.90625 
L 61.375 64.59375 
L 35.5 64.59375 
L 35.5 0 
L 25.59375 0 
L 25.59375 64.59375 
L -0.296875 64.59375 
z
" id="DejaVuSans-84"/>
       <path d="M 56.203125 29.59375 
L 56.203125 25.203125 
L 14.890625 25.203125 
Q 15.484375 15.921875 20.484375 11.0625 
Q 25.484375 6.203125 34.421875 6.203125 
Q 39.59375 6.203125 44.453125 7.46875 
Q 49.3125 8.734375 54.109375 11.28125 
L 54.109375 2.78125 
Q 49.265625 0.734375 44.1875 -0.34375 
Q 39.109375 -1.421875 33.890625 -1.421875 
Q 20.796875 -1.421875 13.15625 6.1875 
Q 5.515625 13.8125 5.515625 26.8125 
Q 5.515625 40.234375 12.765625 48.109375 
Q 20.015625 56 32.328125 56 
Q 43.359375 56 49.78125 48.890625 
Q 56.203125 41.796875 56.203125 29.59375 
z
M 47.21875 32.234375 
Q 47.125 39.59375 43.09375 43.984375 
Q 39.0625 48.390625 32.421875 48.390625 
Q 24.90625 48.390625 20.390625 44.140625 
Q 15.875 39.890625 15.1875 32.171875 
z
" id="DejaVuSans-101"/>
       <path d="M 41.109375 46.296875 
Q 39.59375 47.171875 37.8125 47.578125 
Q 36.03125 48 33.890625 48 
Q 26.265625 48 22.1875 43.046875 
Q 18.109375 38.09375 18.109375 28.8125 
L 18.109375 0 
L 9.078125 0 
L 9.078125 54.6875 
L 18.109375 54.6875 
L 18.109375 46.1875 
Q 20.953125 51.171875 25.484375 53.578125 
Q 30.03125 56 36.53125 56 
Q 37.453125 56 38.578125 55.875 
Q 39.703125 55.765625 41.0625 55.515625 
z
" id="DejaVuSans-114"/>
       <path d="M 52 44.1875 
Q 55.375 50.25 60.0625 53.125 
Q 64.75 56 71.09375 56 
Q 79.640625 56 84.28125 50.015625 
Q 88.921875 44.046875 88.921875 33.015625 
L 88.921875 0 
L 79.890625 0 
L 79.890625 32.71875 
Q 79.890625 40.578125 77.09375 44.375 
Q 74.3125 48.1875 68.609375 48.1875 
Q 61.625 48.1875 57.5625 43.546875 
Q 53.515625 38.921875 53.515625 30.90625 
L 53.515625 0 
L 44.484375 0 
L 44.484375 32.71875 
Q 44.484375 40.625 41.703125 44.40625 
Q 38.921875 48.1875 33.109375 48.1875 
Q 26.21875 48.1875 22.15625 43.53125 
Q 18.109375 38.875 18.109375 30.90625 
L 18.109375 0 
L 9.078125 0 
L 9.078125 54.6875 
L 18.109375 54.6875 
L 18.109375 46.1875 
Q 21.1875 51.21875 25.484375 53.609375 
Q 29.78125 56 35.6875 56 
Q 41.65625 56 45.828125 52.96875 
Q 50 49.953125 52 44.1875 
z
" id="DejaVuSans-109"/>
       <path d="M 9.421875 54.6875 
L 18.40625 54.6875 
L 18.40625 0 
L 9.421875 0 
z
M 9.421875 75.984375 
L 18.40625 75.984375 
L 18.40625 64.59375 
L 9.421875 64.59375 
z
" id="DejaVuSans-105"/>
       <path d="M 54.890625 33.015625 
L 54.890625 0 
L 45.90625 0 
L 45.90625 32.71875 
Q 45.90625 40.484375 42.875 44.328125 
Q 39.84375 48.1875 33.796875 48.1875 
Q 26.515625 48.1875 22.3125 43.546875 
Q 18.109375 38.921875 18.109375 30.90625 
L 18.109375 0 
L 9.078125 0 
L 9.078125 54.6875 
L 18.109375 54.6875 
L 18.109375 46.1875 
Q 21.34375 51.125 25.703125 53.5625 
Q 30.078125 56 35.796875 56 
Q 45.21875 56 50.046875 50.171875 
Q 54.890625 44.34375 54.890625 33.015625 
z
" id="DejaVuSans-110"/>
       <path d="M 34.28125 27.484375 
Q 23.390625 27.484375 19.1875 25 
Q 14.984375 22.515625 14.984375 16.5 
Q 14.984375 11.71875 18.140625 8.90625 
Q 21.296875 6.109375 26.703125 6.109375 
Q 34.1875 6.109375 38.703125 11.40625 
Q 43.21875 16.703125 43.21875 25.484375 
L 43.21875 27.484375 
z
M 52.203125 31.203125 
L 52.203125 0 
L 43.21875 0 
L 43.21875 8.296875 
Q 40.140625 3.328125 35.546875 0.953125 
Q 30.953125 -1.421875 24.3125 -1.421875 
Q 15.921875 -1.421875 10.953125 3.296875 
Q 6 8.015625 6 15.921875 
Q 6 25.140625 12.171875 29.828125 
Q 18.359375 34.515625 30.609375 34.515625 
L 43.21875 34.515625 
L 43.21875 35.40625 
Q 43.21875 41.609375 39.140625 45 
Q 35.0625 48.390625 27.6875 48.390625 
Q 23 48.390625 18.546875 47.265625 
Q 14.109375 46.140625 10.015625 43.890625 
L 10.015625 52.203125 
Q 14.9375 54.109375 19.578125 55.046875 
Q 24.21875 56 28.609375 56 
Q 40.484375 56 46.34375 49.84375 
Q 52.203125 43.703125 52.203125 31.203125 
z
" id="DejaVuSans-97"/>
       <path d="M 9.421875 75.984375 
L 18.40625 75.984375 
L 18.40625 0 
L 9.421875 0 
z
" id="DejaVuSans-108"/>
      </defs>
      <use xlink:href="#DejaVuSans-84"/>
      <use x="44.083984" xlink:href="#DejaVuSans-101"/>
      <use x="105.607422" xlink:href="#DejaVuSans-114"/>
      <use x="144.970703" xlink:href="#DejaVuSans-109"/>
      <use x="242.382812" xlink:href="#DejaVuSans-105"/>
      <use x="270.166016" xlink:href="#DejaVuSans-110"/>
      <use x="333.544922" xlink:href="#DejaVuSans-97"/>
      <use x="394.824219" xlink:href="#DejaVuSans-108"/>
     </g>
    </g>
   </g>
   <g id="text_7">
    <g id="patch_8">
     <path clip-path="url(#p79a25b10a8)" d="M 186.994208 223.686532 
L 192.039886 223.379679 
Q 194.43546 223.233992 194.289773 220.838418 
L 193.81978 213.110196 
Q 193.674093 210.714622 191.278519 210.860309 
L 186.232841 211.167162 
Q 183.837267 211.31285 183.982954 213.708424 
L 184.452947 221.436646 
Q 184.598634 223.83222 186.994208 223.686532 
z
" style="fill:#ffffff;stroke:#ffffff;stroke-linejoin:miter;"/>
    </g>
    <g clip-path="url(#p79a25b10a8)">
     <!-- E -->
     <g transform="translate(186.747527 219.630277)rotate(-3.480165)scale(0.08 -0.08)">
      <defs>
       <path d="M 9.8125 72.90625 
L 55.90625 72.90625 
L 55.90625 64.59375 
L 19.671875 64.59375 
L 19.671875 43.015625 
L 54.390625 43.015625 
L 54.390625 34.71875 
L 19.671875 34.71875 
L 19.671875 8.296875 
L 56.78125 8.296875 
L 56.78125 0 
L 9.8125 0 
z
" id="DejaVuSans-69"/>
      </defs>
      <use xlink:href="#DejaVuSans-69"/>
     </g>
    </g>
   </g>
   <g id="text_8">
    <g id="patch_9">
     <path clip-path="url(#p79a25b10a8)" d="M 213.163243 223.767581 
L 218.192475 223.257825 
Q 220.580241 223.015804 220.338221 220.628038 
L 219.557452 212.925006 
Q 219.315432 210.53724 216.927666 210.779261 
L 211.898434 211.289016 
Q 209.510668 211.531037 209.752688 213.918803 
L 210.533457 221.621835 
Q 210.775477 224.009601 213.163243 223.767581 
z
" style="fill:#ffffff;stroke:#ffffff;stroke-linejoin:miter;"/>
    </g>
    <g clip-path="url(#p79a25b10a8)">
     <!-- E -->
     <g transform="translate(212.753447 219.724546)rotate(-5.787653)scale(0.08 -0.08)">
      <use xlink:href="#DejaVuSans-69"/>
     </g>
    </g>
   </g>
   <g id="text_9">
    <g id="patch_10">
     <path clip-path="url(#p79a25b10a8)" d="M 240.106686 224.086002 
L 245.451311 222.460831 
Q 247.747502 221.762615 247.049286 219.466424 
L 244.796812 212.058815 
Q 244.098596 209.762624 241.802405 210.46084 
L 236.45778 212.08601 
Q 234.161589 212.784226 234.859805 215.080418 
L 237.112279 222.488026 
Q 237.810495 224.784218 240.106686 224.086002 
z
" style="fill:#ffffff;stroke:#ffffff;stroke-linejoin:miter;"/>
    </g>
    <g clip-path="url(#p79a25b10a8)">
     <!-- C -->
     <g transform="translate(238.924447 220.198023)rotate(-16.913244)scale(0.08 -0.08)">
      <defs>
       <path d="M 64.40625 67.28125 
L 64.40625 56.890625 
Q 59.421875 61.53125 53.78125 63.8125 
Q 48.140625 66.109375 41.796875 66.109375 
Q 29.296875 66.109375 22.65625 58.46875 
Q 16.015625 50.828125 16.015625 36.375 
Q 16.015625 21.96875 22.65625 14.328125 
Q 29.296875 6.6875 41.796875 6.6875 
Q 48.140625 6.6875 53.78125 8.984375 
Q 59.421875 11.28125 64.40625 15.921875 
L 64.40625 5.609375 
Q 59.234375 2.09375 53.4375 0.328125 
Q 47.65625 -1.421875 41.21875 -1.421875 
Q 24.65625 -1.421875 15.125 8.703125 
Q 5.609375 18.84375 5.609375 36.375 
Q 5.609375 53.953125 15.125 64.078125 
Q 24.65625 74.21875 41.21875 74.21875 
Q 47.75 74.21875 53.53125 72.484375 
Q 59.328125 70.75 64.40625 67.28125 
z
" id="DejaVuSans-67"/>
      </defs>
      <use xlink:href="#DejaVuSans-67"/>
     </g>
    </g>
   </g>
   <g id="text_10">
    <g id="patch_11">
     <path clip-path="url(#p79a25b10a8)" d="M 262.621007 222.538107 
L 267.45736 224.008725 
Q 269.753551 224.706941 270.451767 222.41075 
L 272.704241 215.003141 
Q 273.402457 212.70695 271.106266 212.008734 
L 266.269913 210.538116 
Q 263.973722 209.8399 263.275506 212.136091 
L 261.023032 219.5437 
Q 260.324816 221.839891 262.621007 222.538107 
z
" style="fill:#ffffff;stroke:#ffffff;stroke-linejoin:miter;"/>
    </g>
    <g clip-path="url(#p79a25b10a8)">
     <!-- E -->
     <g transform="translate(263.803247 218.650129)rotate(-343.086756)scale(0.08 -0.08)">
      <use xlink:href="#DejaVuSans-69"/>
     </g>
    </g>
   </g>
   <g id="text_11">
    <g id="patch_12">
     <path clip-path="url(#p79a25b10a8)" d="M 289.625707 223.257825 
L 294.654939 223.767581 
Q 297.042704 224.009601 297.284725 221.621835 
L 298.065493 213.918803 
Q 298.307514 211.531037 295.919748 211.289016 
L 290.890516 210.779261 
Q 288.50275 210.53724 288.26073 212.925006 
L 287.479961 220.628038 
Q 287.237941 223.015804 289.625707 223.257825 
z
" style="fill:#ffffff;stroke:#ffffff;stroke-linejoin:miter;"/>
    </g>
    <g clip-path="url(#p79a25b10a8)">
     <!-- E -->
     <g transform="translate(290.035503 219.21479)rotate(-354.212347)scale(0.08 -0.08)">
      <use xlink:href="#DejaVuSans-69"/>
     </g>
    </g>
   </g>
   <g id="text_12">
    <g id="patch_13">
     <path clip-path="url(#p79a25b10a8)" d="M 315.51316 223.363555 
L 321.089109 223.702657 
Q 323.484683 223.848344 323.63037 221.45277 
L 324.100363 213.724548 
Q 324.24605 211.328974 321.850476 211.183287 
L 316.274528 210.844185 
Q 313.878954 210.698497 313.733266 213.094071 
L 313.263273 220.822293 
Q 313.117586 223.217867 315.51316 223.363555 
z
" style="fill:#ffffff;stroke:#ffffff;stroke-linejoin:miter;"/>
    </g>
    <g clip-path="url(#p79a25b10a8)">
     <!-- C -->
     <g transform="translate(315.759842 219.307299)rotate(-356.519835)scale(0.08 -0.08)">
      <use xlink:href="#DejaVuSans-67"/>
     </g>
    </g>
   </g>
   <g id="text_13">
    <g id="patch_14">
     <path clip-path="url(#p79a25b10a8)" d="M 429.001477 208.247996 
L 429.001477 242.055496 
Q 429.001477 244.455496 431.401477 244.455496 
L 439.143977 244.455496 
Q 441.543977 244.455496 441.543977 242.055496 
L 441.543977 208.247996 
Q 441.543977 205.847996 439.143977 205.847996 
L 431.401477 205.847996 
Q 429.001477 205.847996 429.001477 208.247996 
z
" style="fill:#ffffff;stroke:#ffffff;stroke-linejoin:miter;"/>
    </g>
    <g clip-path="url(#p79a25b10a8)">
     <!-- Terminal -->
     <g transform="translate(433.065227 208.247996)rotate(-270)scale(0.08 -0.08)">
      <use xlink:href="#DejaVuSans-84"/>
      <use x="44.083984" xlink:href="#DejaVuSans-101"/>
      <use x="105.607422" xlink:href="#DejaVuSans-114"/>
      <use x="144.970703" xlink:href="#DejaVuSans-109"/>
      <use x="242.382812" xlink:href="#DejaVuSans-105"/>
      <use x="270.166016" xlink:href="#DejaVuSans-110"/>
      <use x="333.544922" xlink:href="#DejaVuSans-97"/>
      <use x="394.824219" xlink:href="#DejaVuSans-108"/>
     </g>
    </g>
   </g>
   <g id="text_14">
    <g id="patch_15">
     <path clip-path="url(#p79a25b10a8)" d="M 14.456023 30.106823 
L 14.456023 34.930573 
Q 14.456023 37.330573 16.856023 37.330573 
L 24.598523 37.330573 
Q 26.998523 37.330573 26.998523 34.930573 
L 26.998523 30.106823 
Q 26.998523 27.706823 24.598523 27.706823 
L 16.856023 27.706823 
Q 14.456023 27.706823 14.456023 30.106823 
z
" style="fill:#ffffff;stroke:#ffffff;stroke-linejoin:miter;"/>
    </g>
    <g clip-path="url(#p79a25b10a8)">
     <!-- P -->
     <g transform="translate(18.519773 30.106823)rotate(-270)scale(0.08 -0.08)">
      <use xlink:href="#DejaVuSans-80"/>
     </g>
    </g>
   </g>
   <g id="text_15">
    <g id="patch_16">
     <path clip-path="url(#p79a25b10a8)" d="M 118.092386 208.247996 
L 118.092386 242.055496 
Q 118.092386 244.455496 120.492386 244.455496 
L 128.234886 244.455496 
Q 130.634886 244.455496 130.634886 242.055496 
L 130.634886 208.247996 
Q 130.634886 205.847996 128.234886 205.847996 
L 120.492386 205.847996 
Q 118.092386 205.847996 118.092386 208.247996 
z
" style="fill:#ffffff;stroke:#ffffff;stroke-linejoin:miter;"/>
    </g>
    <g clip-path="url(#p79a25b10a8)">
     <!-- Terminal -->
     <g transform="translate(122.156136 208.247996)rotate(-270)scale(0.08 -0.08)">
      <use xlink:href="#DejaVuSans-84"/>
      <use x="44.083984" xlink:href="#DejaVuSans-101"/>
      <use x="105.607422" xlink:href="#DejaVuSans-114"/>
      <use x="144.970703" xlink:href="#DejaVuSans-109"/>
      <use x="242.382812" xlink:href="#DejaVuSans-105"/>
      <use x="270.166016" xlink:href="#DejaVuSans-110"/>
      <use x="333.544922" xlink:href="#DejaVuSans-97"/>
      <use x="394.824219" xlink:href="#DejaVuSans-108"/>
     </g>
    </g>
   </g>
   <g id="text_16">
    <g id="patch_17">
     <path clip-path="url(#p79a25b10a8)" d="M 169.910568 208.247996 
L 169.910568 242.055496 
Q 169.910568 244.455496 172.310568 244.455496 
L 180.053068 244.455496 
Q 182.453068 244.455496 182.453068 242.055496 
L 182.453068 208.247996 
Q 182.453068 205.847996 180.053068 205.847996 
L 172.310568 205.847996 
Q 169.910568 205.847996 169.910568 208.247996 
z
" style="fill:#ffffff;stroke:#ffffff;stroke-linejoin:miter;"/>
    </g>
    <g clip-path="url(#p79a25b10a8)">
     <!-- Terminal -->
     <g transform="translate(173.974318 208.247996)rotate(-270)scale(0.08 -0.08)">
      <use xlink:href="#DejaVuSans-84"/>
      <use x="44.083984" xlink:href="#DejaVuSans-101"/>
      <use x="105.607422" xlink:href="#DejaVuSans-114"/>
      <use x="144.970703" xlink:href="#DejaVuSans-109"/>
      <use x="242.382812" xlink:href="#DejaVuSans-105"/>
      <use x="270.166016" xlink:href="#DejaVuSans-110"/>
      <use x="333.544922" xlink:href="#DejaVuSans-97"/>
      <use x="394.824219" xlink:href="#DejaVuSans-108"/>
     </g>
    </g>
   </g>
   <g id="text_17">
    <g id="patch_18">
     <path clip-path="url(#p79a25b10a8)" d="M 221.72875 208.247996 
L 221.72875 242.055496 
Q 221.72875 244.455496 224.12875 244.455496 
L 231.87125 244.455496 
Q 234.27125 244.455496 234.27125 242.055496 
L 234.27125 208.247996 
Q 234.27125 205.847996 231.87125 205.847996 
L 224.12875 205.847996 
Q 221.72875 205.847996 221.72875 208.247996 
z
" style="fill:#ffffff;stroke:#ffffff;stroke-linejoin:miter;"/>
    </g>
    <g clip-path="url(#p79a25b10a8)">
     <!-- Terminal -->
     <g transform="translate(225.7925 208.247996)rotate(-270)scale(0.08 -0.08)">
      <use xlink:href="#DejaVuSans-84"/>
      <use x="44.083984" xlink:href="#DejaVuSans-101"/>
      <use x="105.607422" xlink:href="#DejaVuSans-114"/>
      <use x="144.970703" xlink:href="#DejaVuSans-109"/>
      <use x="242.382812" xlink:href="#DejaVuSans-105"/>
      <use x="270.166016" xlink:href="#DejaVuSans-110"/>
      <use x="333.544922" xlink:href="#DejaVuSans-97"/>
      <use x="394.824219" xlink:href="#DejaVuSans-108"/>
     </g>
    </g>
   </g>
   <g id="text_18">
    <g id="patch_19">
     <path clip-path="url(#p79a25b10a8)" d="M 273.546932 208.247996 
L 273.546932 242.055496 
Q 273.546932 244.455496 275.946932 244.455496 
L 283.689432 244.455496 
Q 286.089432 244.455496 286.089432 242.055496 
L 286.089432 208.247996 
Q 286.089432 205.847996 283.689432 205.847996 
L 275.946932 205.847996 
Q 273.546932 205.847996 273.546932 208.247996 
z
" style="fill:#ffffff;stroke:#ffffff;stroke-linejoin:miter;"/>
    </g>
    <g clip-path="url(#p79a25b10a8)">
     <!-- Terminal -->
     <g transform="translate(277.610682 208.247996)rotate(-270)scale(0.08 -0.08)">
      <use xlink:href="#DejaVuSans-84"/>
      <use x="44.083984" xlink:href="#DejaVuSans-101"/>
      <use x="105.607422" xlink:href="#DejaVuSans-114"/>
      <use x="144.970703" xlink:href="#DejaVuSans-109"/>
      <use x="242.382812" xlink:href="#DejaVuSans-105"/>
      <use x="270.166016" xlink:href="#DejaVuSans-110"/>
      <use x="333.544922" xlink:href="#DejaVuSans-97"/>
      <use x="394.824219" xlink:href="#DejaVuSans-108"/>
     </g>
    </g>
   </g>
   <g id="text_19">
    <g id="patch_20">
     <path clip-path="url(#p79a25b10a8)" d="M 325.365114 208.247996 
L 325.365114 242.055496 
Q 325.365114 244.455496 327.765114 244.455496 
L 335.507614 244.455496 
Q 337.907614 244.455496 337.907614 242.055496 
L 337.907614 208.247996 
Q 337.907614 205.847996 335.507614 205.847996 
L 327.765114 205.847996 
Q 325.365114 205.847996 325.365114 208.247996 
z
" style="fill:#ffffff;stroke:#ffffff;stroke-linejoin:miter;"/>
    </g>
    <g clip-path="url(#p79a25b10a8)">
     <!-- Terminal -->
     <g transform="translate(329.428864 208.247996)rotate(-270)scale(0.08 -0.08)">
      <use xlink:href="#DejaVuSans-84"/>
      <use x="44.083984" xlink:href="#DejaVuSans-101"/>
      <use x="105.607422" xlink:href="#DejaVuSans-114"/>
      <use x="144.970703" xlink:href="#DejaVuSans-109"/>
      <use x="242.382812" xlink:href="#DejaVuSans-105"/>
      <use x="270.166016" xlink:href="#DejaVuSans-110"/>
      <use x="333.544922" xlink:href="#DejaVuSans-97"/>
      <use x="394.824219" xlink:href="#DejaVuSans-108"/>
     </g>
    </g>
   </g>
   <g id="text_20">
    <g id="patch_21">
     <path clip-path="url(#p79a25b10a8)" d="M 377.183295 208.247996 
L 377.183295 242.055496 
Q 377.183295 244.455496 379.583295 244.455496 
L 387.325795 244.455496 
Q 389.725795 244.455496 389.725795 242.055496 
L 389.725795 208.247996 
Q 389.725795 205.847996 387.325795 205.847996 
L 379.583295 205.847996 
Q 377.183295 205.847996 377.183295 208.247996 
z
" style="fill:#ffffff;stroke:#ffffff;stroke-linejoin:miter;"/>
    </g>
    <g clip-path="url(#p79a25b10a8)">
     <!-- Terminal -->
     <g transform="translate(381.247045 208.247996)rotate(-270)scale(0.08 -0.08)">
      <use xlink:href="#DejaVuSans-84"/>
      <use x="44.083984" xlink:href="#DejaVuSans-101"/>
      <use x="105.607422" xlink:href="#DejaVuSans-114"/>
      <use x="144.970703" xlink:href="#DejaVuSans-109"/>
      <use x="242.382812" xlink:href="#DejaVuSans-105"/>
      <use x="270.166016" xlink:href="#DejaVuSans-110"/>
      <use x="333.544922" xlink:href="#DejaVuSans-97"/>
      <use x="394.824219" xlink:href="#DejaVuSans-108"/>
     </g>
    </g>
   </g>
   <g id="text_21">
    <g id="patch_22">
     <path clip-path="url(#p79a25b10a8)" d="M 14.456023 43.827663 
L 14.456023 48.651413 
Q 14.456023 51.051413 16.856023 51.051413 
L 24.598523 51.051413 
Q 26.998523 51.051413 26.998523 48.651413 
L 26.998523 43.827663 
Q 26.998523 41.427663 24.598523 41.427663 
L 16.856023 41.427663 
Q 14.456023 41.427663 14.456023 43.827663 
z
" style="fill:#ffffff;stroke:#ffffff;stroke-linejoin:miter;"/>
    </g>
    <g clip-path="url(#p79a25b10a8)">
     <!-- P -->
     <g transform="translate(18.519773 43.827663)rotate(-270)scale(0.08 -0.08)">
      <use xlink:href="#DejaVuSans-80"/>
     </g>
    </g>
   </g>
   <g id="text_22">
    <g id="patch_23">
     <path clip-path="url(#p79a25b10a8)" d="M 14.456023 56.996961 
L 14.456023 61.820711 
Q 14.456023 64.220711 16.856023 64.220711 
L 24.598523 64.220711 
Q 26.998523 64.220711 26.998523 61.820711 
L 26.998523 56.996961 
Q 26.998523 54.596961 24.598523 54.596961 
L 16.856023 54.596961 
Q 14.456023 54.596961 14.456023 56.996961 
z
" style="fill:#ffffff;stroke:#ffffff;stroke-linejoin:miter;"/>
    </g>
    <g clip-path="url(#p79a25b10a8)">
     <!-- P -->
     <g transform="translate(18.519773 56.996961)rotate(-270)scale(0.08 -0.08)">
      <use xlink:href="#DejaVuSans-80"/>
     </g>
    </g>
   </g>
   <g id="text_23">
    <g id="patch_24">
     <path clip-path="url(#p79a25b10a8)" d="M 14.456023 69.646514 
L 14.456023 74.470264 
Q 14.456023 76.870264 16.856023 76.870264 
L 24.598523 76.870264 
Q 26.998523 76.870264 26.998523 74.470264 
L 26.998523 69.646514 
Q 26.998523 67.246514 24.598523 67.246514 
L 16.856023 67.246514 
Q 14.456023 67.246514 14.456023 69.646514 
z
" style="fill:#ffffff;stroke:#ffffff;stroke-linejoin:miter;"/>
    </g>
    <g clip-path="url(#p79a25b10a8)">
     <!-- P -->
     <g transform="translate(18.519773 69.646514)rotate(-270)scale(0.08 -0.08)">
      <use xlink:href="#DejaVuSans-80"/>
     </g>
    </g>
   </g>
   <g id="text_24">
    <g id="patch_25">
     <path clip-path="url(#p79a25b10a8)" d="M 14.456023 81.806441 
L 14.456023 86.630191 
Q 14.456023 89.030191 16.856023 89.030191 
L 24.598523 89.030191 
Q 26.998523 89.030191 26.998523 86.630191 
L 26.998523 81.806441 
Q 26.998523 79.406441 24.598523 79.406441 
L 16.856023 79.406441 
Q 14.456023 79.406441 14.456023 81.806441 
z
" style="fill:#ffffff;stroke:#ffffff;stroke-linejoin:miter;"/>
    </g>
    <g clip-path="url(#p79a25b10a8)">
     <!-- P -->
     <g transform="translate(18.519773 81.806441)rotate(-270)scale(0.08 -0.08)">
      <use xlink:href="#DejaVuSans-80"/>
     </g>
    </g>
   </g>
   <g id="text_25">
    <g id="patch_26">
     <path clip-path="url(#p79a25b10a8)" d="M 14.456023 93.505331 
L 14.456023 98.329081 
Q 14.456023 100.729081 16.856023 100.729081 
L 24.598523 100.729081 
Q 26.998523 100.729081 26.998523 98.329081 
L 26.998523 93.505331 
Q 26.998523 91.105331 24.598523 91.105331 
L 16.856023 91.105331 
Q 14.456023 91.105331 14.456023 93.505331 
z
" style="fill:#ffffff;stroke:#ffffff;stroke-linejoin:miter;"/>
    </g>
    <g clip-path="url(#p79a25b10a8)">
     <!-- P -->
     <g transform="translate(18.519773 93.505331)rotate(-270)scale(0.08 -0.08)">
      <use xlink:href="#DejaVuSans-80"/>
     </g>
    </g>
   </g>
   <g id="text_26">
    <g id="patch_27">
     <path clip-path="url(#p79a25b10a8)" d="M 14.456023 104.770381 
L 14.456023 109.594131 
Q 14.456023 111.994131 16.856023 111.994131 
L 24.598523 111.994131 
Q 26.998523 111.994131 26.998523 109.594131 
L 26.998523 104.770381 
Q 26.998523 102.370381 24.598523 102.370381 
L 16.856023 102.370381 
Q 14.456023 102.370381 14.456023 104.770381 
z
" style="fill:#ffffff;stroke:#ffffff;stroke-linejoin:miter;"/>
    </g>
    <g clip-path="url(#p79a25b10a8)">
     <!-- P -->
     <g transform="translate(18.519773 104.770381)rotate(-270)scale(0.08 -0.08)">
      <use xlink:href="#DejaVuSans-80"/>
     </g>
    </g>
   </g>
   <g id="text_27">
    <g id="patch_28">
     <path clip-path="url(#p79a25b10a8)" d="M 14.456023 115.627538 
L 14.456023 120.451288 
Q 14.456023 122.851288 16.856023 122.851288 
L 24.598523 122.851288 
Q 26.998523 122.851288 26.998523 120.451288 
L 26.998523 115.627538 
Q 26.998523 113.227538 24.598523 113.227538 
L 16.856023 113.227538 
Q 14.456023 113.227538 14.456023 115.627538 
z
" style="fill:#ffffff;stroke:#ffffff;stroke-linejoin:miter;"/>
    </g>
    <g clip-path="url(#p79a25b10a8)">
     <!-- P -->
     <g transform="translate(18.519773 115.627538)rotate(-270)scale(0.08 -0.08)">
      <use xlink:href="#DejaVuSans-80"/>
     </g>
    </g>
   </g>
   <g id="text_28">
    <g id="patch_29">
     <path clip-path="url(#p79a25b10a8)" d="M 14.456023 126.101642 
L 14.456023 130.925392 
Q 14.456023 133.325392 16.856023 133.325392 
L 24.598523 133.325392 
Q 26.998523 133.325392 26.998523 130.925392 
L 26.998523 126.101642 
Q 26.998523 123.701642 24.598523 123.701642 
L 16.856023 123.701642 
Q 14.456023 123.701642 14.456023 126.101642 
z
" style="fill:#ffffff;stroke:#ffffff;stroke-linejoin:miter;"/>
    </g>
    <g clip-path="url(#p79a25b10a8)">
     <!-- P -->
     <g transform="translate(18.519773 126.101642)rotate(-270)scale(0.08 -0.08)">
      <use xlink:href="#DejaVuSans-80"/>
     </g>
    </g>
   </g>
   <g id="text_29">
    <g id="patch_30">
     <path clip-path="url(#p79a25b10a8)" d="M 14.456023 136.216575 
L 14.456023 141.040325 
Q 14.456023 143.440325 16.856023 143.440325 
L 24.598523 143.440325 
Q 26.998523 143.440325 26.998523 141.040325 
L 26.998523 136.216575 
Q 26.998523 133.816575 24.598523 133.816575 
L 16.856023 133.816575 
Q 14.456023 133.816575 14.456023 136.216575 
z
" style="fill:#ffffff;stroke:#ffffff;stroke-linejoin:miter;"/>
    </g>
    <g clip-path="url(#p79a25b10a8)">
     <!-- P -->
     <g transform="translate(18.519773 136.216575)rotate(-270)scale(0.08 -0.08)">
      <use xlink:href="#DejaVuSans-80"/>
     </g>
    </g>
   </g>
   <g id="text_30">
    <g id="patch_31">
     <path clip-path="url(#p79a25b10a8)" d="M 14.456023 145.995426 
L 14.456023 150.819176 
Q 14.456023 153.219176 16.856023 153.219176 
L 24.598523 153.219176 
Q 26.998523 153.219176 26.998523 150.819176 
L 26.998523 145.995426 
Q 26.998523 143.595426 24.598523 143.595426 
L 16.856023 143.595426 
Q 14.456023 143.595426 14.456023 145.995426 
z
" style="fill:#ffffff;stroke:#ffffff;stroke-linejoin:miter;"/>
    </g>
    <g clip-path="url(#p79a25b10a8)">
     <!-- P -->
     <g transform="translate(18.519773 145.995426)rotate(-270)scale(0.08 -0.08)">
      <use xlink:href="#DejaVuSans-80"/>
     </g>
    </g>
   </g>
   <g id="text_31">
    <g id="patch_32">
     <path clip-path="url(#p79a25b10a8)" d="M 14.456023 155.460681 
L 14.456023 160.284431 
Q 14.456023 162.684431 16.856023 162.684431 
L 24.598523 162.684431 
Q 26.998523 162.684431 26.998523 160.284431 
L 26.998523 155.460681 
Q 26.998523 153.060681 24.598523 153.060681 
L 16.856023 153.060681 
Q 14.456023 153.060681 14.456023 155.460681 
z
" style="fill:#ffffff;stroke:#ffffff;stroke-linejoin:miter;"/>
    </g>
    <g clip-path="url(#p79a25b10a8)">
     <!-- P -->
     <g transform="translate(18.519773 155.460681)rotate(-270)scale(0.08 -0.08)">
      <use xlink:href="#DejaVuSans-80"/>
     </g>
    </g>
   </g>
   <g id="text_32">
    <g id="patch_33">
     <path clip-path="url(#p79a25b10a8)" d="M 14.456023 164.634445 
L 14.456023 169.458195 
Q 14.456023 171.858195 16.856023 171.858195 
L 24.598523 171.858195 
Q 26.998523 171.858195 26.998523 169.458195 
L 26.998523 164.634445 
Q 26.998523 162.234445 24.598523 162.234445 
L 16.856023 162.234445 
Q 14.456023 162.234445 14.456023 164.634445 
z
" style="fill:#ffffff;stroke:#ffffff;stroke-linejoin:miter;"/>
    </g>
    <g clip-path="url(#p79a25b10a8)">
     <!-- P -->
     <g transform="translate(18.519773 164.634445)rotate(-270)scale(0.08 -0.08)">
      <use xlink:href="#DejaVuSans-80"/>
     </g>
    </g>
   </g>
   <g id="text_33">
    <g id="patch_34">
     <path clip-path="url(#p79a25b10a8)" d="M 14.456023 173.538733 
L 14.456023 178.362483 
Q 14.456023 180.762483 16.856023 180.762483 
L 24.598523 180.762483 
Q 26.998523 180.762483 26.998523 178.362483 
L 26.998523 173.538733 
Q 26.998523 171.138733 24.598523 171.138733 
L 16.856023 171.138733 
Q 14.456023 171.138733 14.456023 173.538733 
z
" style="fill:#ffffff;stroke:#ffffff;stroke-linejoin:miter;"/>
    </g>
    <g clip-path="url(#p79a25b10a8)">
     <!-- P -->
     <g transform="translate(18.519773 173.538733)rotate(-270)scale(0.08 -0.08)">
      <use xlink:href="#DejaVuSans-80"/>
     </g>
    </g>
   </g>
   <g id="text_34">
    <g id="patch_35">
     <path clip-path="url(#p79a25b10a8)" d="M 14.456023 182.195872 
L 14.456023 187.019622 
Q 14.456023 189.419622 16.856023 189.419622 
L 24.598523 189.419622 
Q 26.998523 189.419622 26.998523 187.019622 
L 26.998523 182.195872 
Q 26.998523 179.795872 24.598523 179.795872 
L 16.856023 179.795872 
Q 14.456023 179.795872 14.456023 182.195872 
z
" style="fill:#ffffff;stroke:#ffffff;stroke-linejoin:miter;"/>
    </g>
    <g clip-path="url(#p79a25b10a8)">
     <!-- P -->
     <g transform="translate(18.519773 182.195872)rotate(-270)scale(0.08 -0.08)">
      <use xlink:href="#DejaVuSans-80"/>
     </g>
    </g>
   </g>
   <g id="text_35">
    <g id="patch_36">
     <path clip-path="url(#p79a25b10a8)" d="M 14.456023 190.629102 
L 14.456023 195.452852 
Q 14.456023 197.852852 16.856023 197.852852 
L 24.598523 197.852852 
Q 26.998523 197.852852 26.998523 195.452852 
L 26.998523 190.629102 
Q 26.998523 188.229102 24.598523 188.229102 
L 16.856023 188.229102 
Q 14.456023 188.229102 14.456023 190.629102 
z
" style="fill:#ffffff;stroke:#ffffff;stroke-linejoin:miter;"/>
    </g>
    <g clip-path="url(#p79a25b10a8)">
     <!-- P -->
     <g transform="translate(18.519773 190.629102)rotate(-270)scale(0.08 -0.08)">
      <use xlink:href="#DejaVuSans-80"/>
     </g>
    </g>
   </g>
   <g id="text_36">
    <g id="patch_37">
     <path clip-path="url(#p79a25b10a8)" d="M 14.456023 198.863593 
L 14.456023 203.687343 
Q 14.456023 206.087343 16.856023 206.087343 
L 24.598523 206.087343 
Q 26.998523 206.087343 26.998523 203.687343 
L 26.998523 198.863593 
Q 26.998523 196.463593 24.598523 196.463593 
L 16.856023 196.463593 
Q 14.456023 196.463593 14.456023 198.863593 
z
" style="fill:#ffffff;stroke:#ffffff;stroke-linejoin:miter;"/>
    </g>
    <g clip-path="url(#p79a25b10a8)">
     <!-- P -->
     <g transform="translate(18.519773 198.863593)rotate(-270)scale(0.08 -0.08)">
      <use xlink:href="#DejaVuSans-80"/>
     </g>
    </g>
   </g>
   <g id="text_37">
    <g id="patch_38">
     <path clip-path="url(#p79a25b10a8)" d="M 14.456023 206.928422 
L 14.456023 211.752172 
Q 14.456023 214.152172 16.856023 214.152172 
L 24.598523 214.152172 
Q 26.998523 214.152172 26.998523 211.752172 
L 26.998523 206.928422 
Q 26.998523 204.528422 24.598523 204.528422 
L 16.856023 204.528422 
Q 14.456023 204.528422 14.456023 206.928422 
z
" style="fill:#ffffff;stroke:#ffffff;stroke-linejoin:miter;"/>
    </g>
    <g clip-path="url(#p79a25b10a8)">
     <!-- P -->
     <g transform="translate(18.519773 206.928422)rotate(-270)scale(0.08 -0.08)">
      <use xlink:href="#DejaVuSans-80"/>
     </g>
    </g>
   </g>
   <g id="text_38">
    <g id="patch_39">
     <path clip-path="url(#p79a25b10a8)" d="M 14.456023 214.861546 
L 14.456023 219.685296 
Q 14.456023 222.085296 16.856023 222.085296 
L 24.598523 222.085296 
Q 26.998523 222.085296 26.998523 219.685296 
L 26.998523 214.861546 
Q 26.998523 212.461546 24.598523 212.461546 
L 16.856023 212.461546 
Q 14.456023 212.461546 14.456023 214.861546 
z
" style="fill:#ffffff;stroke:#ffffff;stroke-linejoin:miter;"/>
    </g>
    <g clip-path="url(#p79a25b10a8)">
     <!-- P -->
     <g transform="translate(18.519773 214.861546)rotate(-270)scale(0.08 -0.08)">
      <use xlink:href="#DejaVuSans-80"/>
     </g>
    </g>
   </g>
   <g id="text_39">
    <g id="patch_40">
     <path clip-path="url(#p79a25b10a8)" d="M 14.456023 208.247996 
L 14.456023 242.055496 
Q 14.456023 244.455496 16.856023 244.455496 
L 24.598523 244.455496 
Q 26.998523 244.455496 26.998523 242.055496 
L 26.998523 208.247996 
Q 26.998523 205.847996 24.598523 205.847996 
L 16.856023 205.847996 
Q 14.456023 205.847996 14.456023 208.247996 
z
" style="fill:#ffffff;stroke:#ffffff;stroke-linejoin:miter;"/>
    </g>
    <g clip-path="url(#p79a25b10a8)">
     <!-- Terminal -->
     <g transform="translate(18.519773 208.247996)rotate(-270)scale(0.08 -0.08)">
      <use xlink:href="#DejaVuSans-84"/>
      <use x="44.083984" xlink:href="#DejaVuSans-101"/>
      <use x="105.607422" xlink:href="#DejaVuSans-114"/>
      <use x="144.970703" xlink:href="#DejaVuSans-109"/>
      <use x="242.382812" xlink:href="#DejaVuSans-105"/>
      <use x="270.166016" xlink:href="#DejaVuSans-110"/>
      <use x="333.544922" xlink:href="#DejaVuSans-97"/>
      <use x="394.824219" xlink:href="#DejaVuSans-108"/>
     </g>
    </g>
   </g>
   <g id="PathCollection_1">
    <defs>
     <path d="M 0 8.660254 
C 2.296726 8.660254 4.499694 7.747755 6.123724 6.123724 
C 7.747755 4.499694 8.660254 2.296726 8.660254 -0 
C 8.660254 -2.296726 7.747755 -4.499694 6.123724 -6.123724 
C 4.499694 -7.747755 2.296726 -8.660254 0 -8.660254 
C -2.296726 -8.660254 -4.499694 -7.747755 -6.123724 -6.123724 
C -7.747755 -4.499694 -8.660254 -2.296726 -8.660254 0 
C -8.660254 2.296726 -7.747755 4.499694 -6.123724 6.123724 
C -4.499694 7.747755 -2.296726 8.660254 0 8.660254 
z
" id="C0_0_5ae662162c"/>
    </defs>
    <g clip-path="url(#p79a25b10a8)">
     <use style="fill:#ffffff;stroke:#ffffff;" x="20.727273" xlink:href="#C0_0_5ae662162c" y="229.090909"/>
    </g>
    <g clip-path="url(#p79a25b10a8)">
     <use style="fill:#ffffff;stroke:#ffffff;" x="72.545455" xlink:href="#C0_0_5ae662162c" y="229.090909"/>
    </g>
    <g clip-path="url(#p79a25b10a8)">
     <use style="fill:#ffffff;stroke:#ffffff;" x="124.363636" xlink:href="#C0_0_5ae662162c" y="229.090909"/>
    </g>
    <g clip-path="url(#p79a25b10a8)">
     <use style="fill:#ffffff;stroke:#ffffff;" x="176.181818" xlink:href="#C0_0_5ae662162c" y="229.090909"/>
    </g>
    <g clip-path="url(#p79a25b10a8)">
     <use style="fill:#ffffff;stroke:#ffffff;" x="228" xlink:href="#C0_0_5ae662162c" y="229.090909"/>
    </g>
    <g clip-path="url(#p79a25b10a8)">
     <use style="fill:#ffffff;stroke:#ffffff;" x="279.818182" xlink:href="#C0_0_5ae662162c" y="229.090909"/>
    </g>
    <g clip-path="url(#p79a25b10a8)">
     <use style="fill:#ffffff;stroke:#ffffff;" x="331.636364" xlink:href="#C0_0_5ae662162c" y="229.090909"/>
    </g>
    <g clip-path="url(#p79a25b10a8)">
     <use style="fill:#ffffff;stroke:#ffffff;" x="383.454545" xlink:href="#C0_0_5ae662162c" y="229.090909"/>
    </g>
    <g clip-path="url(#p79a25b10a8)">
     <use style="fill:#ffffff;stroke:#ffffff;" x="435.272727" xlink:href="#C0_0_5ae662162c" y="229.090909"/>
    </g>
    <g clip-path="url(#p79a25b10a8)">
     <use style="stroke:#000000;" x="160.636364" xlink:href="#C0_0_5ae662162c" y="10.909091"/>
    </g>
    <g clip-path="url(#p79a25b10a8)">
     <use style="stroke:#000000;" x="72.545455" xlink:href="#C0_0_5ae662162c" y="221.212583"/>
    </g>
    <g clip-path="url(#p79a25b10a8)">
     <use style="stroke:#000000;" x="253.909091" xlink:href="#C0_0_5ae662162c" y="213.334258"/>
    </g>
    <g clip-path="url(#p79a25b10a8)">
     <use style="stroke:#000000;" x="435.272727" xlink:href="#C0_0_5ae662162c" y="221.212583"/>
    </g>
    <g clip-path="url(#p79a25b10a8)">
     <use style="stroke:#000000;" x="20.727273" xlink:href="#C0_0_5ae662162c" y="25.51631"/>
    </g>
    <g clip-path="url(#p79a25b10a8)">
     <use style="stroke:#000000;" x="124.363636" xlink:href="#C0_0_5ae662162c" y="221.212583"/>
    </g>
    <g clip-path="url(#p79a25b10a8)">
     <use style="stroke:#000000;" x="176.181818" xlink:href="#C0_0_5ae662162c" y="221.212583"/>
    </g>
    <g clip-path="url(#p79a25b10a8)">
     <use style="stroke:#000000;" x="228" xlink:href="#C0_0_5ae662162c" y="221.212583"/>
    </g>
    <g clip-path="url(#p79a25b10a8)">
     <use style="stroke:#000000;" x="279.818182" xlink:href="#C0_0_5ae662162c" y="221.212583"/>
    </g>
    <g clip-path="url(#p79a25b10a8)">
     <use style="stroke:#000000;" x="331.636364" xlink:href="#C0_0_5ae662162c" y="221.212583"/>
    </g>
    <g clip-path="url(#p79a25b10a8)">
     <use style="stroke:#000000;" x="383.454545" xlink:href="#C0_0_5ae662162c" y="221.212583"/>
    </g>
    <g clip-path="url(#p79a25b10a8)">
     <use style="stroke:#000000;" x="20.727273" xlink:href="#C0_0_5ae662162c" y="39.521087"/>
    </g>
    <g clip-path="url(#p79a25b10a8)">
     <use style="stroke:#000000;" x="20.727273" xlink:href="#C0_0_5ae662162c" y="52.957988"/>
    </g>
    <g clip-path="url(#p79a25b10a8)">
     <use style="stroke:#000000;" x="20.727273" xlink:href="#C0_0_5ae662162c" y="65.859684"/>
    </g>
    <g clip-path="url(#p79a25b10a8)">
     <use style="stroke:#000000;" x="20.727273" xlink:href="#C0_0_5ae662162c" y="78.257094"/>
    </g>
    <g clip-path="url(#p79a25b10a8)">
     <use style="stroke:#000000;" x="20.727273" xlink:href="#C0_0_5ae662162c" y="90.179538"/>
    </g>
    <g clip-path="url(#p79a25b10a8)">
     <use style="stroke:#000000;" x="20.727273" xlink:href="#C0_0_5ae662162c" y="101.654874"/>
    </g>
    <g clip-path="url(#p79a25b10a8)">
     <use style="stroke:#000000;" x="20.727273" xlink:href="#C0_0_5ae662162c" y="112.709638"/>
    </g>
    <g clip-path="url(#p79a25b10a8)">
     <use style="stroke:#000000;" x="20.727273" xlink:href="#C0_0_5ae662162c" y="123.369188"/>
    </g>
    <g clip-path="url(#p79a25b10a8)">
     <use style="stroke:#000000;" x="20.727273" xlink:href="#C0_0_5ae662162c" y="133.657846"/>
    </g>
    <g clip-path="url(#p79a25b10a8)">
     <use style="stroke:#000000;" x="20.727273" xlink:href="#C0_0_5ae662162c" y="143.599054"/>
    </g>
    <g clip-path="url(#p79a25b10a8)">
     <use style="stroke:#000000;" x="20.727273" xlink:href="#C0_0_5ae662162c" y="153.215549"/>
    </g>
    <g clip-path="url(#p79a25b10a8)">
     <use style="stroke:#000000;" x="20.727273" xlink:href="#C0_0_5ae662162c" y="162.529564"/>
    </g>
    <g clip-path="url(#p79a25b10a8)">
     <use style="stroke:#000000;" x="20.727273" xlink:href="#C0_0_5ae662162c" y="171.563076"/>
    </g>
    <g clip-path="url(#p79a25b10a8)">
     <use style="stroke:#000000;" x="20.727273" xlink:href="#C0_0_5ae662162c" y="180.33814"/>
    </g>
    <g clip-path="url(#p79a25b10a8)">
     <use style="stroke:#000000;" x="20.727273" xlink:href="#C0_0_5ae662162c" y="188.877354"/>
    </g>
    <g clip-path="url(#p79a25b10a8)">
     <use style="stroke:#000000;" x="20.727273" xlink:href="#C0_0_5ae662162c" y="197.204601"/>
    </g>
    <g clip-path="url(#p79a25b10a8)">
     <use style="stroke:#000000;" x="20.727273" xlink:href="#C0_0_5ae662162c" y="205.346336"/>
    </g>
    <g clip-path="url(#p79a25b10a8)">
     <use style="stroke:#000000;" x="20.727273" xlink:href="#C0_0_5ae662162c" y="213.334258"/>
    </g>
    <g clip-path="url(#p79a25b10a8)">
     <use style="stroke:#000000;" x="20.727273" xlink:href="#C0_0_5ae662162c" y="221.212583"/>
    </g>
   </g>
   <g id="text_40">
    <g clip-path="url(#p79a25b10a8)">
     <!-- Conductor -->
     <g transform="translate(-5.159446 231.850284)scale(0.1 -0.1)">
      <defs>
       <path d="M 30.609375 48.390625 
Q 23.390625 48.390625 19.1875 42.75 
Q 14.984375 37.109375 14.984375 27.296875 
Q 14.984375 17.484375 19.15625 11.84375 
Q 23.34375 6.203125 30.609375 6.203125 
Q 37.796875 6.203125 41.984375 11.859375 
Q 46.1875 17.53125 46.1875 27.296875 
Q 46.1875 37.015625 41.984375 42.703125 
Q 37.796875 48.390625 30.609375 48.390625 
z
M 30.609375 56 
Q 42.328125 56 49.015625 48.375 
Q 55.71875 40.765625 55.71875 27.296875 
Q 55.71875 13.875 49.015625 6.21875 
Q 42.328125 -1.421875 30.609375 -1.421875 
Q 18.84375 -1.421875 12.171875 6.21875 
Q 5.515625 13.875 5.515625 27.296875 
Q 5.515625 40.765625 12.171875 48.375 
Q 18.84375 56 30.609375 56 
z
" id="DejaVuSans-111"/>
       <path d="M 45.40625 46.390625 
L 45.40625 75.984375 
L 54.390625 75.984375 
L 54.390625 0 
L 45.40625 0 
L 45.40625 8.203125 
Q 42.578125 3.328125 38.25 0.953125 
Q 33.9375 -1.421875 27.875 -1.421875 
Q 17.96875 -1.421875 11.734375 6.484375 
Q 5.515625 14.40625 5.515625 27.296875 
Q 5.515625 40.1875 11.734375 48.09375 
Q 17.96875 56 27.875 56 
Q 33.9375 56 38.25 53.625 
Q 42.578125 51.265625 45.40625 46.390625 
z
M 14.796875 27.296875 
Q 14.796875 17.390625 18.875 11.75 
Q 22.953125 6.109375 30.078125 6.109375 
Q 37.203125 6.109375 41.296875 11.75 
Q 45.40625 17.390625 45.40625 27.296875 
Q 45.40625 37.203125 41.296875 42.84375 
Q 37.203125 48.484375 30.078125 48.484375 
Q 22.953125 48.484375 18.875 42.84375 
Q 14.796875 37.203125 14.796875 27.296875 
z
" id="DejaVuSans-100"/>
       <path d="M 8.5 21.578125 
L 8.5 54.6875 
L 17.484375 54.6875 
L 17.484375 21.921875 
Q 17.484375 14.15625 20.5 10.265625 
Q 23.53125 6.390625 29.59375 6.390625 
Q 36.859375 6.390625 41.078125 11.03125 
Q 45.3125 15.671875 45.3125 23.6875 
L 45.3125 54.6875 
L 54.296875 54.6875 
L 54.296875 0 
L 45.3125 0 
L 45.3125 8.40625 
Q 42.046875 3.421875 37.71875 1 
Q 33.40625 -1.421875 27.6875 -1.421875 
Q 18.265625 -1.421875 13.375 4.4375 
Q 8.5 10.296875 8.5 21.578125 
z
M 31.109375 56 
z
" id="DejaVuSans-117"/>
       <path d="M 48.78125 52.59375 
L 48.78125 44.1875 
Q 44.96875 46.296875 41.140625 47.34375 
Q 37.3125 48.390625 33.40625 48.390625 
Q 24.65625 48.390625 19.8125 42.84375 
Q 14.984375 37.3125 14.984375 27.296875 
Q 14.984375 17.28125 19.8125 11.734375 
Q 24.65625 6.203125 33.40625 6.203125 
Q 37.3125 6.203125 41.140625 7.25 
Q 44.96875 8.296875 48.78125 10.40625 
L 48.78125 2.09375 
Q 45.015625 0.34375 40.984375 -0.53125 
Q 36.96875 -1.421875 32.421875 -1.421875 
Q 20.0625 -1.421875 12.78125 6.34375 
Q 5.515625 14.109375 5.515625 27.296875 
Q 5.515625 40.671875 12.859375 48.328125 
Q 20.21875 56 33.015625 56 
Q 37.15625 56 41.109375 55.140625 
Q 45.0625 54.296875 48.78125 52.59375 
z
" id="DejaVuSans-99"/>
       <path d="M 18.3125 70.21875 
L 18.3125 54.6875 
L 36.8125 54.6875 
L 36.8125 47.703125 
L 18.3125 47.703125 
L 18.3125 18.015625 
Q 18.3125 11.328125 20.140625 9.421875 
Q 21.96875 7.515625 27.59375 7.515625 
L 36.8125 7.515625 
L 36.8125 0 
L 27.59375 0 
Q 17.1875 0 13.234375 3.875 
Q 9.28125 7.765625 9.28125 18.015625 
L 9.28125 47.703125 
L 2.6875 47.703125 
L 2.6875 54.6875 
L 9.28125 54.6875 
L 9.28125 70.21875 
z
" id="DejaVuSans-116"/>
      </defs>
      <use xlink:href="#DejaVuSans-67"/>
      <use x="69.824219" xlink:href="#DejaVuSans-111"/>
      <use x="131.005859" xlink:href="#DejaVuSans-110"/>
      <use x="194.384766" xlink:href="#DejaVuSans-100"/>
      <use x="257.861328" xlink:href="#DejaVuSans-117"/>
      <use x="321.240234" xlink:href="#DejaVuSans-99"/>
      <use x="376.220703" xlink:href="#DejaVuSans-116"/>
      <use x="415.429688" xlink:href="#DejaVuSans-111"/>
      <use x="476.611328" xlink:href="#DejaVuSans-114"/>
     </g>
    </g>
   </g>
   <g id="text_41">
    <g clip-path="url(#p79a25b10a8)">
     <!-- is -->
     <g transform="translate(68.551705 231.850284)scale(0.1 -0.1)">
      <defs>
       <path d="M 44.28125 53.078125 
L 44.28125 44.578125 
Q 40.484375 46.53125 36.375 47.5 
Q 32.28125 48.484375 27.875 48.484375 
Q 21.1875 48.484375 17.84375 46.4375 
Q 14.5 44.390625 14.5 40.28125 
Q 14.5 37.15625 16.890625 35.375 
Q 19.28125 33.59375 26.515625 31.984375 
L 29.59375 31.296875 
Q 39.15625 29.25 43.1875 25.515625 
Q 47.21875 21.78125 47.21875 15.09375 
Q 47.21875 7.46875 41.1875 3.015625 
Q 35.15625 -1.421875 24.609375 -1.421875 
Q 20.21875 -1.421875 15.453125 -0.5625 
Q 10.6875 0.296875 5.421875 2 
L 5.421875 11.28125 
Q 10.40625 8.6875 15.234375 7.390625 
Q 20.0625 6.109375 24.8125 6.109375 
Q 31.15625 6.109375 34.5625 8.28125 
Q 37.984375 10.453125 37.984375 14.40625 
Q 37.984375 18.0625 35.515625 20.015625 
Q 33.0625 21.96875 24.703125 23.78125 
L 21.578125 24.515625 
Q 13.234375 26.265625 9.515625 29.90625 
Q 5.8125 33.546875 5.8125 39.890625 
Q 5.8125 47.609375 11.28125 51.796875 
Q 16.75 56 26.8125 56 
Q 31.78125 56 36.171875 55.265625 
Q 40.578125 54.546875 44.28125 53.078125 
z
" id="DejaVuSans-115"/>
      </defs>
      <use xlink:href="#DejaVuSans-105"/>
      <use x="27.783203" xlink:href="#DejaVuSans-115"/>
     </g>
    </g>
   </g>
   <g id="text_42">
    <g clip-path="url(#p79a25b10a8)">
     <!-- a -->
     <g transform="translate(121.299574 231.850284)scale(0.1 -0.1)">
      <use xlink:href="#DejaVuSans-97"/>
     </g>
    </g>
   </g>
   <g id="text_43">
    <g clip-path="url(#p79a25b10a8)">
     <!-- person -->
     <g transform="translate(159.042756 231.850284)scale(0.1 -0.1)">
      <defs>
       <path d="M 18.109375 8.203125 
L 18.109375 -20.796875 
L 9.078125 -20.796875 
L 9.078125 54.6875 
L 18.109375 54.6875 
L 18.109375 46.390625 
Q 20.953125 51.265625 25.265625 53.625 
Q 29.59375 56 35.59375 56 
Q 45.5625 56 51.78125 48.09375 
Q 58.015625 40.1875 58.015625 27.296875 
Q 58.015625 14.40625 51.78125 6.484375 
Q 45.5625 -1.421875 35.59375 -1.421875 
Q 29.59375 -1.421875 25.265625 0.953125 
Q 20.953125 3.328125 18.109375 8.203125 
z
M 48.6875 27.296875 
Q 48.6875 37.203125 44.609375 42.84375 
Q 40.53125 48.484375 33.40625 48.484375 
Q 26.265625 48.484375 22.1875 42.84375 
Q 18.109375 37.203125 18.109375 27.296875 
Q 18.109375 17.390625 22.1875 11.75 
Q 26.265625 6.109375 33.40625 6.109375 
Q 40.53125 6.109375 44.609375 11.75 
Q 48.6875 17.390625 48.6875 27.296875 
z
" id="DejaVuSans-112"/>
      </defs>
      <use xlink:href="#DejaVuSans-112"/>
      <use x="63.476562" xlink:href="#DejaVuSans-101"/>
      <use x="125" xlink:href="#DejaVuSans-114"/>
      <use x="166.113281" xlink:href="#DejaVuSans-115"/>
      <use x="218.212891" xlink:href="#DejaVuSans-111"/>
      <use x="279.394531" xlink:href="#DejaVuSans-110"/>
     </g>
    </g>
   </g>
   <g id="text_44">
    <g clip-path="url(#p79a25b10a8)">
     <!-- who -->
     <g transform="translate(217.682812 231.850284)scale(0.1 -0.1)">
      <defs>
       <path d="M 4.203125 54.6875 
L 13.1875 54.6875 
L 24.421875 12.015625 
L 35.59375 54.6875 
L 46.1875 54.6875 
L 57.421875 12.015625 
L 68.609375 54.6875 
L 77.59375 54.6875 
L 63.28125 0 
L 52.6875 0 
L 40.921875 44.828125 
L 29.109375 0 
L 18.5 0 
z
" id="DejaVuSans-119"/>
       <path d="M 54.890625 33.015625 
L 54.890625 0 
L 45.90625 0 
L 45.90625 32.71875 
Q 45.90625 40.484375 42.875 44.328125 
Q 39.84375 48.1875 33.796875 48.1875 
Q 26.515625 48.1875 22.3125 43.546875 
Q 18.109375 38.921875 18.109375 30.90625 
L 18.109375 0 
L 9.078125 0 
L 9.078125 75.984375 
L 18.109375 75.984375 
L 18.109375 46.1875 
Q 21.34375 51.125 25.703125 53.5625 
Q 30.078125 56 35.796875 56 
Q 45.21875 56 50.046875 50.171875 
Q 54.890625 44.34375 54.890625 33.015625 
z
" id="DejaVuSans-104"/>
      </defs>
      <use xlink:href="#DejaVuSans-119"/>
      <use x="81.787109" xlink:href="#DejaVuSans-104"/>
      <use x="145.166016" xlink:href="#DejaVuSans-111"/>
     </g>
    </g>
   </g>
   <g id="text_45">
    <g clip-path="url(#p79a25b10a8)">
     <!-- conducts -->
     <g transform="translate(257.183807 231.850284)scale(0.1 -0.1)">
      <use xlink:href="#DejaVuSans-99"/>
      <use x="54.980469" xlink:href="#DejaVuSans-111"/>
      <use x="116.162109" xlink:href="#DejaVuSans-110"/>
      <use x="179.541016" xlink:href="#DejaVuSans-100"/>
      <use x="243.017578" xlink:href="#DejaVuSans-117"/>
      <use x="306.396484" xlink:href="#DejaVuSans-99"/>
      <use x="361.376953" xlink:href="#DejaVuSans-116"/>
      <use x="400.585938" xlink:href="#DejaVuSans-115"/>
     </g>
    </g>
   </g>
   <g id="text_46">
    <g clip-path="url(#p79a25b10a8)">
     <!-- an -->
     <g transform="translate(325.403551 231.850284)scale(0.1 -0.1)">
      <use xlink:href="#DejaVuSans-97"/>
      <use x="61.279297" xlink:href="#DejaVuSans-110"/>
     </g>
    </g>
   </g>
   <g id="text_47">
    <g clip-path="url(#p79a25b10a8)">
     <!-- orchestra -->
     <g transform="translate(359.773295 231.850284)scale(0.1 -0.1)">
      <use xlink:href="#DejaVuSans-111"/>
      <use x="61.181641" xlink:href="#DejaVuSans-114"/>
      <use x="100.044922" xlink:href="#DejaVuSans-99"/>
      <use x="155.025391" xlink:href="#DejaVuSans-104"/>
      <use x="218.404297" xlink:href="#DejaVuSans-101"/>
      <use x="279.927734" xlink:href="#DejaVuSans-115"/>
      <use x="332.027344" xlink:href="#DejaVuSans-116"/>
      <use x="371.236328" xlink:href="#DejaVuSans-114"/>
      <use x="412.349609" xlink:href="#DejaVuSans-97"/>
     </g>
    </g>
   </g>
   <g id="text_48">
    <g clip-path="url(#p79a25b10a8)">
     <!-- . -->
     <g transform="translate(433.683665 231.850284)scale(0.1 -0.1)">
      <defs>
       <path d="M 10.6875 12.40625 
L 21 12.40625 
L 21 0 
L 10.6875 0 
z
" id="DejaVuSans-46"/>
      </defs>
      <use xlink:href="#DejaVuSans-46"/>
     </g>
    </g>
   </g>
  </g>
 </g>
 <defs>
  <clipPath id="p79a25b10a8">
   <rect height="240" width="456" x="0" y="0"/>
  </clipPath>
 </defs>
</svg>
