<?xml version="1.0" encoding="utf-8" standalone="no"?>
<!DOCTYPE svg PUBLIC "-//W3C//DTD SVG 1.1//EN"
  "http://www.w3.org/Graphics/SVG/1.1/DTD/svg11.dtd">
<!-- Created with matplotlib (https://matplotlib.org/) -->
<svg height="266.666667pt" version="1.1" viewBox="0 0 506.666667 266.666667" width="506.666667pt" xmlns="http://www.w3.org/2000/svg" xmlns:xlink="http://www.w3.org/1999/xlink">
 <metadata>
  <rdf:RDF xmlns:cc="http://creativecommons.org/ns#" xmlns:dc="http://purl.org/dc/elements/1.1/" xmlns:rdf="http://www.w3.org/1999/02/22-rdf-syntax-ns#">
   <cc:Work>
    <dc:type rdf:resource="http://purl.org/dc/dcmitype/StillImage"/>
    <dc:date>2021-05-19T11:42:30.471080</dc:date>
    <dc:format>image/svg+xml</dc:format>
    <dc:creator>
     <cc:Agent>
      <dc:title>Matplotlib v3.3.4, https://matplotlib.org/</dc:title>
     </cc:Agent>
    </dc:creator>
   </cc:Work>
  </rdf:RDF>
 </metadata>
 <defs>
  <style type="text/css">*{stroke-linecap:butt;stroke-linejoin:round;}</style>
 </defs>
 <g id="figure_1">
  <g id="patch_1">
   <path d="M 0 266.666667 
L 506.666667 266.666667 
L 506.666667 0 
L 0 0 
z
" style="fill:#ffffff;"/>
  </g>
  <g id="axes_1">
   <g id="LineCollection_1">
    <path clip-path="url(#p4176a67e31)" d="M 185.095398 12.121212 
L 74.208754 245.791759 
" style="fill:none;stroke:#000000;"/>
    <path clip-path="url(#p4176a67e31)" d="M 185.095398 12.121212 
L 176.565657 237.038064 
" style="fill:none;stroke:#000000;"/>
    <path clip-path="url(#p4176a67e31)" d="M 185.095398 12.121212 
L 330.10101 228.162595 
" style="fill:none;stroke:#000000;"/>
    <path clip-path="url(#p4176a67e31)" d="M 185.095398 12.121212 
L 483.636364 245.791759 
" style="fill:none;stroke:#000000;"/>
    <path clip-path="url(#p4176a67e31)" d="M 185.095398 12.121212 
L 23.030303 28.351455 
" style="fill:none;stroke:#000000;"/>
    <path clip-path="url(#p4176a67e31)" d="M 185.095398 12.121212 
L 23.030303 245.791759 
" style="fill:none;stroke:#000000;stroke-dasharray:3.7,1.6;stroke-dashoffset:0;"/>
    <path clip-path="url(#p4176a67e31)" d="M 74.208754 245.791759 
L 74.208754 254.545455 
" style="fill:none;stroke:#000000;"/>
    <path clip-path="url(#p4176a67e31)" d="M 176.565657 237.038064 
L 125.387205 245.791759 
" style="fill:none;stroke:#000000;"/>
    <path clip-path="url(#p4176a67e31)" d="M 176.565657 237.038064 
L 176.565657 245.791759 
" style="fill:none;stroke:#000000;"/>
    <path clip-path="url(#p4176a67e31)" d="M 176.565657 237.038064 
L 227.744108 245.791759 
" style="fill:none;stroke:#000000;"/>
    <path clip-path="url(#p4176a67e31)" d="M 330.10101 228.162595 
L 278.922559 245.791759 
" style="fill:none;stroke:#000000;"/>
    <path clip-path="url(#p4176a67e31)" d="M 330.10101 228.162595 
L 381.279461 237.038064 
" style="fill:none;stroke:#000000;"/>
    <path clip-path="url(#p4176a67e31)" d="M 483.636364 245.791759 
L 483.636364 254.545455 
" style="fill:none;stroke:#000000;"/>
    <path clip-path="url(#p4176a67e31)" d="M 23.030303 28.351455 
L 23.030303 43.912319 
" style="fill:none;stroke:#000000;"/>
    <path clip-path="url(#p4176a67e31)" d="M 125.387205 245.791759 
L 125.387205 254.545455 
" style="fill:none;stroke:#000000;"/>
    <path clip-path="url(#p4176a67e31)" d="M 176.565657 245.791759 
L 176.565657 254.545455 
" style="fill:none;stroke:#000000;"/>
    <path clip-path="url(#p4176a67e31)" d="M 227.744108 245.791759 
L 227.744108 254.545455 
" style="fill:none;stroke:#000000;"/>
    <path clip-path="url(#p4176a67e31)" d="M 278.922559 245.791759 
L 278.922559 254.545455 
" style="fill:none;stroke:#000000;"/>
    <path clip-path="url(#p4176a67e31)" d="M 381.279461 237.038064 
L 330.10101 245.791759 
" style="fill:none;stroke:#000000;"/>
    <path clip-path="url(#p4176a67e31)" d="M 381.279461 237.038064 
L 381.279461 245.791759 
" style="fill:none;stroke:#000000;"/>
    <path clip-path="url(#p4176a67e31)" d="M 381.279461 237.038064 
L 432.457912 245.791759 
" style="fill:none;stroke:#000000;"/>
    <path clip-path="url(#p4176a67e31)" d="M 23.030303 43.912319 
L 23.030303 58.842209 
" style="fill:none;stroke:#000000;"/>
    <path clip-path="url(#p4176a67e31)" d="M 330.10101 245.791759 
L 330.10101 254.545455 
" style="fill:none;stroke:#000000;"/>
    <path clip-path="url(#p4176a67e31)" d="M 381.279461 245.791759 
L 381.279461 254.545455 
" style="fill:none;stroke:#000000;"/>
    <path clip-path="url(#p4176a67e31)" d="M 432.457912 245.791759 
L 432.457912 254.545455 
" style="fill:none;stroke:#000000;"/>
    <path clip-path="url(#p4176a67e31)" d="M 23.030303 58.842209 
L 23.030303 73.177427 
" style="fill:none;stroke:#000000;"/>
    <path clip-path="url(#p4176a67e31)" d="M 23.030303 73.177427 
L 23.030303 86.952327 
" style="fill:none;stroke:#000000;"/>
    <path clip-path="url(#p4176a67e31)" d="M 23.030303 86.952327 
L 23.030303 100.199487 
" style="fill:none;stroke:#000000;"/>
    <path clip-path="url(#p4176a67e31)" d="M 23.030303 100.199487 
L 23.030303 112.94986 
" style="fill:none;stroke:#000000;"/>
    <path clip-path="url(#p4176a67e31)" d="M 23.030303 112.94986 
L 23.030303 125.232932 
" style="fill:none;stroke:#000000;"/>
    <path clip-path="url(#p4176a67e31)" d="M 23.030303 125.232932 
L 23.030303 137.076876 
" style="fill:none;stroke:#000000;"/>
    <path clip-path="url(#p4176a67e31)" d="M 23.030303 137.076876 
L 23.030303 148.508717 
" style="fill:none;stroke:#000000;"/>
    <path clip-path="url(#p4176a67e31)" d="M 23.030303 148.508717 
L 23.030303 159.554504 
" style="fill:none;stroke:#000000;"/>
    <path clip-path="url(#p4176a67e31)" d="M 23.030303 159.554504 
L 23.030303 170.239498 
" style="fill:none;stroke:#000000;"/>
    <path clip-path="url(#p4176a67e31)" d="M 23.030303 170.239498 
L 23.030303 180.588404 
" style="fill:none;stroke:#000000;"/>
    <path clip-path="url(#p4176a67e31)" d="M 23.030303 180.588404 
L 23.030303 190.62564 
" style="fill:none;stroke:#000000;"/>
    <path clip-path="url(#p4176a67e31)" d="M 23.030303 190.62564 
L 23.030303 200.375711 
" style="fill:none;stroke:#000000;"/>
    <path clip-path="url(#p4176a67e31)" d="M 23.030303 200.375711 
L 23.030303 209.863727 
" style="fill:none;stroke:#000000;"/>
    <path clip-path="url(#p4176a67e31)" d="M 23.030303 209.863727 
L 23.030303 219.116223 
" style="fill:none;stroke:#000000;"/>
    <path clip-path="url(#p4176a67e31)" d="M 23.030303 219.116223 
L 23.030303 228.162595 
" style="fill:none;stroke:#000000;"/>
    <path clip-path="url(#p4176a67e31)" d="M 23.030303 228.162595 
L 23.030303 237.038064 
" style="fill:none;stroke:#000000;"/>
    <path clip-path="url(#p4176a67e31)" d="M 23.030303 237.038064 
L 23.030303 245.791759 
" style="fill:none;stroke:#000000;"/>
    <path clip-path="url(#p4176a67e31)" d="M 23.030303 245.791759 
L 23.030303 254.545455 
" style="fill:none;stroke:#000000;"/>
   </g>
   <g id="text_1">
    <g id="patch_2">
     <path clip-path="url(#p4176a67e31)" d="M 134.331436 133.723565 
L 136.304082 129.566623 
Q 137.33301 127.398373 135.164759 126.369446 
L 128.169894 123.050083 
Q 126.001644 122.021156 124.972717 124.189406 
L 123.00007 128.346349 
Q 121.971143 130.514599 124.139393 131.543526 
L 131.134259 134.862888 
Q 133.302509 135.891815 134.331436 133.723565 
z
" style="fill:#ffffff;stroke:#ffffff;stroke-linejoin:miter;"/>
    </g>
    <g clip-path="url(#p4176a67e31)">
     <!-- F -->
     <g transform="translate(130.660092 131.981355)rotate(-64.613665)scale(0.08 -0.08)">
      <defs>
       <path d="M 9.8125 72.90625 
L 51.703125 72.90625 
L 51.703125 64.59375 
L 19.671875 64.59375 
L 19.671875 43.109375 
L 48.578125 43.109375 
L 48.578125 34.8125 
L 19.671875 34.8125 
L 19.671875 0 
L 9.8125 0 
z
" id="DejaVuSans-70"/>
      </defs>
      <use xlink:href="#DejaVuSans-70"/>
     </g>
    </g>
   </g>
   <g id="text_2">
    <g id="patch_3">
     <path clip-path="url(#p4176a67e31)" d="M 186.993578 127.551583 
L 187.200968 122.083014 
Q 187.29192 119.684738 184.893644 119.593785 
L 177.156705 119.30037 
Q 174.758429 119.209418 174.667477 121.607694 
L 174.460087 127.076263 
Q 174.369135 129.474539 176.767411 129.565491 
L 184.50435 129.858906 
Q 186.902626 129.949858 186.993578 127.551583 
z
" style="fill:#ffffff;stroke:#ffffff;stroke-linejoin:miter;"/>
    </g>
    <g clip-path="url(#p4176a67e31)">
     <!-- A -->
     <g transform="translate(182.932747 127.39758)rotate(-87.828157)scale(0.08 -0.08)">
      <defs>
       <path d="M 34.1875 63.1875 
L 20.796875 26.90625 
L 47.609375 26.90625 
z
M 28.609375 72.90625 
L 39.796875 72.90625 
L 67.578125 0 
L 57.328125 0 
L 50.6875 18.703125 
L 17.828125 18.703125 
L 11.1875 0 
L 0.78125 0 
z
" id="DejaVuSans-65"/>
      </defs>
      <use xlink:href="#DejaVuSans-65"/>
     </g>
    </g>
   </g>
   <g id="text_3">
    <g id="patch_4">
     <path clip-path="url(#p4176a67e31)" d="M 250.975921 121.528398 
L 253.806307 125.745342 
Q 255.143826 127.738089 257.136574 126.40057 
L 263.56526 122.085676 
Q 265.558007 120.748157 264.220488 118.75541 
L 261.390101 114.538466 
Q 260.052582 112.545718 258.059835 113.883238 
L 251.631149 118.198131 
Q 249.638402 119.535651 250.975921 121.528398 
z
" style="fill:#ffffff;stroke:#ffffff;stroke-linejoin:miter;"/>
    </g>
    <g clip-path="url(#p4176a67e31)">
     <!-- S -->
     <g transform="translate(254.350099 119.263671)rotate(-303.869263)scale(0.08 -0.08)">
      <defs>
       <path d="M 53.515625 70.515625 
L 53.515625 60.890625 
Q 47.90625 63.578125 42.921875 64.890625 
Q 37.9375 66.21875 33.296875 66.21875 
Q 25.25 66.21875 20.875 63.09375 
Q 16.5 59.96875 16.5 54.203125 
Q 16.5 49.359375 19.40625 46.890625 
Q 22.3125 44.4375 30.421875 42.921875 
L 36.375 41.703125 
Q 47.40625 39.59375 52.65625 34.296875 
Q 57.90625 29 57.90625 20.125 
Q 57.90625 9.515625 50.796875 4.046875 
Q 43.703125 -1.421875 29.984375 -1.421875 
Q 24.8125 -1.421875 18.96875 -0.25 
Q 13.140625 0.921875 6.890625 3.21875 
L 6.890625 13.375 
Q 12.890625 10.015625 18.65625 8.296875 
Q 24.421875 6.59375 29.984375 6.59375 
Q 38.421875 6.59375 43.015625 9.90625 
Q 47.609375 13.234375 47.609375 19.390625 
Q 47.609375 24.75 44.3125 27.78125 
Q 41.015625 30.8125 33.5 32.328125 
L 27.484375 33.5 
Q 16.453125 35.6875 11.515625 40.375 
Q 6.59375 45.0625 6.59375 53.421875 
Q 6.59375 63.09375 13.40625 68.65625 
Q 20.21875 74.21875 32.171875 74.21875 
Q 37.3125 74.21875 42.625 73.28125 
Q 47.953125 72.359375 53.515625 70.515625 
z
" id="DejaVuSans-83"/>
      </defs>
      <use xlink:href="#DejaVuSans-83"/>
     </g>
    </g>
   </g>
   <g id="text_4">
    <g id="patch_5">
     <path clip-path="url(#p4176a67e31)" d="M 328.195243 132.090502 
L 332.805861 135.699272 
Q 334.695782 137.178529 336.175039 135.288609 
L 340.947183 129.191647 
Q 342.42644 127.301726 340.536519 125.822469 
L 335.925901 122.213699 
Q 334.03598 120.734442 332.556723 122.624363 
L 327.784579 128.721325 
Q 326.305323 130.611245 328.195243 132.090502 
z
" style="fill:#ffffff;stroke:#ffffff;stroke-linejoin:miter;"/>
    </g>
    <g clip-path="url(#p4176a67e31)">
     <!-- U -->
     <g transform="translate(330.699964 128.890434)rotate(-321.949412)scale(0.08 -0.08)">
      <defs>
       <path d="M 8.6875 72.90625 
L 18.609375 72.90625 
L 18.609375 28.609375 
Q 18.609375 16.890625 22.84375 11.734375 
Q 27.09375 6.59375 36.625 6.59375 
Q 46.09375 6.59375 50.34375 11.734375 
Q 54.59375 16.890625 54.59375 28.609375 
L 54.59375 72.90625 
L 64.5 72.90625 
L 64.5 27.390625 
Q 64.5 13.140625 57.4375 5.859375 
Q 50.390625 -1.421875 36.625 -1.421875 
Q 22.796875 -1.421875 15.734375 5.859375 
Q 8.6875 13.140625 8.6875 27.390625 
z
" id="DejaVuSans-85"/>
      </defs>
      <use xlink:href="#DejaVuSans-85"/>
     </g>
    </g>
   </g>
   <g id="text_5">
    <g id="patch_6">
     <path clip-path="url(#p4176a67e31)" d="M 102.287898 26.716709 
L 107.087639 26.236032 
Q 109.475693 25.996877 109.236538 23.608822 
L 108.465014 15.904858 
Q 108.225858 13.516804 105.837804 13.755959 
L 101.038063 14.236636 
Q 98.650008 14.475791 98.889163 16.863846 
L 99.660688 24.567809 
Q 99.899843 26.955864 102.287898 26.716709 
z
" style="fill:#ffffff;stroke:#ffffff;stroke-linejoin:miter;"/>
    </g>
    <g clip-path="url(#p4176a67e31)">
     <!-- P -->
     <g transform="translate(101.882953 22.673185)rotate(-5.718901)scale(0.08 -0.08)">
      <defs>
       <path d="M 19.671875 64.796875 
L 19.671875 37.40625 
L 32.078125 37.40625 
Q 38.96875 37.40625 42.71875 40.96875 
Q 46.484375 44.53125 46.484375 51.125 
Q 46.484375 57.671875 42.71875 61.234375 
Q 38.96875 64.796875 32.078125 64.796875 
z
M 9.8125 72.90625 
L 32.078125 72.90625 
Q 44.34375 72.90625 50.609375 67.359375 
Q 56.890625 61.8125 56.890625 51.125 
Q 56.890625 40.328125 50.609375 34.8125 
Q 44.34375 29.296875 32.078125 29.296875 
L 19.671875 29.296875 
L 19.671875 0 
L 9.8125 0 
z
" id="DejaVuSans-80"/>
      </defs>
      <use xlink:href="#DejaVuSans-80"/>
     </g>
    </g>
   </g>
   <g id="text_6">
    <g id="patch_7">
     <path clip-path="url(#p4176a67e31)" d="M 107.656589 134.778916 
L 110.775403 130.282111 
Q 112.143179 128.310008 110.171077 126.942232 
L 103.808992 122.529729 
Q 101.836889 121.161953 100.469113 123.134056 
L 97.350298 127.630861 
Q 95.982522 129.602963 97.954625 130.970739 
L 104.31671 135.383242 
Q 106.288812 136.751018 107.656589 134.778916 
z
" style="fill:#ffffff;stroke:#ffffff;stroke-linejoin:miter;"/>
    </g>
    <g clip-path="url(#p4176a67e31)">
     <!-- A -->
     <g transform="translate(104.317367 132.462957)rotate(-55.256279)scale(0.08 -0.08)">
      <use xlink:href="#DejaVuSans-65"/>
     </g>
    </g>
   </g>
   <g id="text_7">
    <g id="patch_8">
     <path clip-path="url(#p4176a67e31)" d="M 67.937504 233.264857 
L 67.937504 267.072357 
Q 67.937504 269.472357 70.337504 269.472357 
L 78.080004 269.472357 
Q 80.480004 269.472357 80.480004 267.072357 
L 80.480004 233.264857 
Q 80.480004 230.864857 78.080004 230.864857 
L 70.337504 230.864857 
Q 67.937504 230.864857 67.937504 233.264857 
z
" style="fill:#ffffff;stroke:#ffffff;stroke-linejoin:miter;"/>
    </g>
    <g clip-path="url(#p4176a67e31)">
     <!-- Terminal -->
     <g transform="translate(72.001254 233.264857)rotate(-270)scale(0.08 -0.08)">
      <defs>
       <path d="M -0.296875 72.90625 
L 61.375 72.90625 
L 61.375 64.59375 
L 35.5 64.59375 
L 35.5 0 
L 25.59375 0 
L 25.59375 64.59375 
L -0.296875 64.59375 
z
" id="DejaVuSans-84"/>
       <path d="M 56.203125 29.59375 
L 56.203125 25.203125 
L 14.890625 25.203125 
Q 15.484375 15.921875 20.484375 11.0625 
Q 25.484375 6.203125 34.421875 6.203125 
Q 39.59375 6.203125 44.453125 7.46875 
Q 49.3125 8.734375 54.109375 11.28125 
L 54.109375 2.78125 
Q 49.265625 0.734375 44.1875 -0.34375 
Q 39.109375 -1.421875 33.890625 -1.421875 
Q 20.796875 -1.421875 13.15625 6.1875 
Q 5.515625 13.8125 5.515625 26.8125 
Q 5.515625 40.234375 12.765625 48.109375 
Q 20.015625 56 32.328125 56 
Q 43.359375 56 49.78125 48.890625 
Q 56.203125 41.796875 56.203125 29.59375 
z
M 47.21875 32.234375 
Q 47.125 39.59375 43.09375 43.984375 
Q 39.0625 48.390625 32.421875 48.390625 
Q 24.90625 48.390625 20.390625 44.140625 
Q 15.875 39.890625 15.1875 32.171875 
z
" id="DejaVuSans-101"/>
       <path d="M 41.109375 46.296875 
Q 39.59375 47.171875 37.8125 47.578125 
Q 36.03125 48 33.890625 48 
Q 26.265625 48 22.1875 43.046875 
Q 18.109375 38.09375 18.109375 28.8125 
L 18.109375 0 
L 9.078125 0 
L 9.078125 54.6875 
L 18.109375 54.6875 
L 18.109375 46.1875 
Q 20.953125 51.171875 25.484375 53.578125 
Q 30.03125 56 36.53125 56 
Q 37.453125 56 38.578125 55.875 
Q 39.703125 55.765625 41.0625 55.515625 
z
" id="DejaVuSans-114"/>
       <path d="M 52 44.1875 
Q 55.375 50.25 60.0625 53.125 
Q 64.75 56 71.09375 56 
Q 79.640625 56 84.28125 50.015625 
Q 88.921875 44.046875 88.921875 33.015625 
L 88.921875 0 
L 79.890625 0 
L 79.890625 32.71875 
Q 79.890625 40.578125 77.09375 44.375 
Q 74.3125 48.1875 68.609375 48.1875 
Q 61.625 48.1875 57.5625 43.546875 
Q 53.515625 38.921875 53.515625 30.90625 
L 53.515625 0 
L 44.484375 0 
L 44.484375 32.71875 
Q 44.484375 40.625 41.703125 44.40625 
Q 38.921875 48.1875 33.109375 48.1875 
Q 26.21875 48.1875 22.15625 43.53125 
Q 18.109375 38.875 18.109375 30.90625 
L 18.109375 0 
L 9.078125 0 
L 9.078125 54.6875 
L 18.109375 54.6875 
L 18.109375 46.1875 
Q 21.1875 51.21875 25.484375 53.609375 
Q 29.78125 56 35.6875 56 
Q 41.65625 56 45.828125 52.96875 
Q 50 49.953125 52 44.1875 
z
" id="DejaVuSans-109"/>
       <path d="M 9.421875 54.6875 
L 18.40625 54.6875 
L 18.40625 0 
L 9.421875 0 
z
M 9.421875 75.984375 
L 18.40625 75.984375 
L 18.40625 64.59375 
L 9.421875 64.59375 
z
" id="DejaVuSans-105"/>
       <path d="M 54.890625 33.015625 
L 54.890625 0 
L 45.90625 0 
L 45.90625 32.71875 
Q 45.90625 40.484375 42.875 44.328125 
Q 39.84375 48.1875 33.796875 48.1875 
Q 26.515625 48.1875 22.3125 43.546875 
Q 18.109375 38.921875 18.109375 30.90625 
L 18.109375 0 
L 9.078125 0 
L 9.078125 54.6875 
L 18.109375 54.6875 
L 18.109375 46.1875 
Q 21.34375 51.125 25.703125 53.5625 
Q 30.078125 56 35.796875 56 
Q 45.21875 56 50.046875 50.171875 
Q 54.890625 44.34375 54.890625 33.015625 
z
" id="DejaVuSans-110"/>
       <path d="M 34.28125 27.484375 
Q 23.390625 27.484375 19.1875 25 
Q 14.984375 22.515625 14.984375 16.5 
Q 14.984375 11.71875 18.140625 8.90625 
Q 21.296875 6.109375 26.703125 6.109375 
Q 34.1875 6.109375 38.703125 11.40625 
Q 43.21875 16.703125 43.21875 25.484375 
L 43.21875 27.484375 
z
M 52.203125 31.203125 
L 52.203125 0 
L 43.21875 0 
L 43.21875 8.296875 
Q 40.140625 3.328125 35.546875 0.953125 
Q 30.953125 -1.421875 24.3125 -1.421875 
Q 15.921875 -1.421875 10.953125 3.296875 
Q 6 8.015625 6 15.921875 
Q 6 25.140625 12.171875 29.828125 
Q 18.359375 34.515625 30.609375 34.515625 
L 43.21875 34.515625 
L 43.21875 35.40625 
Q 43.21875 41.609375 39.140625 45 
Q 35.0625 48.390625 27.6875 48.390625 
Q 23 48.390625 18.546875 47.265625 
Q 14.109375 46.140625 10.015625 43.890625 
L 10.015625 52.203125 
Q 14.9375 54.109375 19.578125 55.046875 
Q 24.21875 56 28.609375 56 
Q 40.484375 56 46.34375 49.84375 
Q 52.203125 43.703125 52.203125 31.203125 
z
" id="DejaVuSans-97"/>
       <path d="M 9.421875 75.984375 
L 18.40625 75.984375 
L 18.40625 0 
L 9.421875 0 
z
" id="DejaVuSans-108"/>
      </defs>
      <use xlink:href="#DejaVuSans-84"/>
      <use x="44.083984" xlink:href="#DejaVuSans-101"/>
      <use x="105.607422" xlink:href="#DejaVuSans-114"/>
      <use x="144.970703" xlink:href="#DejaVuSans-109"/>
      <use x="242.382812" xlink:href="#DejaVuSans-105"/>
      <use x="270.166016" xlink:href="#DejaVuSans-110"/>
      <use x="333.544922" xlink:href="#DejaVuSans-97"/>
      <use x="394.824219" xlink:href="#DejaVuSans-108"/>
     </g>
    </g>
   </g>
   <g id="text_8">
    <g id="patch_9">
     <path clip-path="url(#p4176a67e31)" d="M 149.542407 248.022514 
L 154.525048 247.17027 
Q 156.890693 246.765644 156.486067 244.399999 
L 155.180726 236.768329 
Q 154.7761 234.402683 152.410455 234.807309 
L 147.427814 235.659553 
Q 145.062169 236.064179 145.466795 238.429825 
L 146.772136 246.061495 
Q 147.176762 248.42714 149.542407 248.022514 
z
" style="fill:#ffffff;stroke:#ffffff;stroke-linejoin:miter;"/>
    </g>
    <g clip-path="url(#p4176a67e31)">
     <!-- E -->
     <g transform="translate(148.857282 244.016935)rotate(-9.706094)scale(0.08 -0.08)">
      <defs>
       <path d="M 9.8125 72.90625 
L 55.90625 72.90625 
L 55.90625 64.59375 
L 19.671875 64.59375 
L 19.671875 43.015625 
L 54.390625 43.015625 
L 54.390625 34.71875 
L 19.671875 34.71875 
L 19.671875 8.296875 
L 56.78125 8.296875 
L 56.78125 0 
L 9.8125 0 
z
" id="DejaVuSans-69"/>
      </defs>
      <use xlink:href="#DejaVuSans-69"/>
     </g>
    </g>
   </g>
   <g id="text_9">
    <g id="patch_10">
     <path clip-path="url(#p4176a67e31)" d="M 170.294407 238.887412 
L 170.294407 243.942412 
Q 170.294407 246.342412 172.694407 246.342412 
L 180.436907 246.342412 
Q 182.836907 246.342412 182.836907 243.942412 
L 182.836907 238.887412 
Q 182.836907 236.487412 180.436907 236.487412 
L 172.694407 236.487412 
Q 170.294407 236.487412 170.294407 238.887412 
z
" style="fill:#ffffff;stroke:#ffffff;stroke-linejoin:miter;"/>
    </g>
    <g clip-path="url(#p4176a67e31)">
     <!-- E -->
     <g transform="translate(174.358157 238.887412)rotate(-270)scale(0.08 -0.08)">
      <use xlink:href="#DejaVuSans-69"/>
     </g>
    </g>
   </g>
   <g id="text_10">
    <g id="patch_11">
     <path clip-path="url(#p4176a67e31)" d="M 198.344443 247.125488 
L 203.850729 248.067297 
Q 206.216374 248.471923 206.621 246.106278 
L 207.926341 238.474607 
Q 208.330967 236.108962 205.965322 235.704336 
L 200.459036 234.762527 
Q 198.09339 234.3579 197.688764 236.723546 
L 196.383424 244.355216 
Q 195.978797 246.720861 198.344443 247.125488 
z
" style="fill:#ffffff;stroke:#ffffff;stroke-linejoin:miter;"/>
    </g>
    <g clip-path="url(#p4176a67e31)">
     <!-- C -->
     <g transform="translate(199.029567 243.119908)rotate(-350.293906)scale(0.08 -0.08)">
      <defs>
       <path d="M 64.40625 67.28125 
L 64.40625 56.890625 
Q 59.421875 61.53125 53.78125 63.8125 
Q 48.140625 66.109375 41.796875 66.109375 
Q 29.296875 66.109375 22.65625 58.46875 
Q 16.015625 50.828125 16.015625 36.375 
Q 16.015625 21.96875 22.65625 14.328125 
Q 29.296875 6.6875 41.796875 6.6875 
Q 48.140625 6.6875 53.78125 8.984375 
Q 59.421875 11.28125 64.40625 15.921875 
L 64.40625 5.609375 
Q 59.234375 2.09375 53.4375 0.328125 
Q 47.65625 -1.421875 41.21875 -1.421875 
Q 24.65625 -1.421875 15.125 8.703125 
Q 5.609375 18.84375 5.609375 36.375 
Q 5.609375 53.953125 15.125 64.078125 
Q 24.65625 74.21875 41.21875 74.21875 
Q 47.75 74.21875 53.53125 72.484375 
Q 59.328125 70.75 64.40625 67.28125 
z
" id="DejaVuSans-67"/>
      </defs>
      <use xlink:href="#DejaVuSans-67"/>
     </g>
    </g>
   </g>
   <g id="text_11">
    <g id="patch_12">
     <path clip-path="url(#p4176a67e31)" d="M 303.91339 243.816187 
L 309.19507 241.996835 
Q 311.464219 241.215193 310.682578 238.946045 
L 308.16097 231.625676 
Q 307.379328 229.356527 305.110179 230.138168 
L 299.828499 231.95752 
Q 297.55935 232.739161 298.340992 235.00831 
L 300.862599 242.328679 
Q 301.644241 244.597828 303.91339 243.816187 
z
" style="fill:#ffffff;stroke:#ffffff;stroke-linejoin:miter;"/>
    </g>
    <g clip-path="url(#p4176a67e31)">
     <!-- C -->
     <g transform="translate(302.589892 239.973998)rotate(-19.007016)scale(0.08 -0.08)">
      <use xlink:href="#DejaVuSans-67"/>
     </g>
    </g>
   </g>
   <g id="text_12">
    <g id="patch_13">
     <path clip-path="url(#p4176a67e31)" d="M 351.922649 238.311803 
L 357.314666 239.246898 
Q 359.67937 239.656989 360.089462 237.292285 
L 361.412435 229.663652 
Q 361.822527 227.298948 359.457823 226.888856 
L 354.065805 225.953762 
Q 351.701101 225.54367 351.291009 227.908374 
L 349.968036 235.537008 
Q 349.557945 237.901712 351.922649 238.311803 
z
" style="fill:#ffffff;stroke:#ffffff;stroke-linejoin:miter;"/>
    </g>
    <g clip-path="url(#p4176a67e31)">
     <!-- A -->
     <g transform="translate(352.617028 234.307818)rotate(-350.161505)scale(0.08 -0.08)">
      <use xlink:href="#DejaVuSans-65"/>
     </g>
    </g>
   </g>
   <g id="text_13">
    <g id="patch_14">
     <path clip-path="url(#p4176a67e31)" d="M 477.365114 233.264857 
L 477.365114 267.072357 
Q 477.365114 269.472357 479.765114 269.472357 
L 487.507614 269.472357 
Q 489.907614 269.472357 489.907614 267.072357 
L 489.907614 233.264857 
Q 489.907614 230.864857 487.507614 230.864857 
L 479.765114 230.864857 
Q 477.365114 230.864857 477.365114 233.264857 
z
" style="fill:#ffffff;stroke:#ffffff;stroke-linejoin:miter;"/>
    </g>
    <g clip-path="url(#p4176a67e31)">
     <!-- Terminal -->
     <g transform="translate(481.428864 233.264857)rotate(-270)scale(0.08 -0.08)">
      <use xlink:href="#DejaVuSans-84"/>
      <use x="44.083984" xlink:href="#DejaVuSans-101"/>
      <use x="105.607422" xlink:href="#DejaVuSans-114"/>
      <use x="144.970703" xlink:href="#DejaVuSans-109"/>
      <use x="242.382812" xlink:href="#DejaVuSans-105"/>
      <use x="270.166016" xlink:href="#DejaVuSans-110"/>
      <use x="333.544922" xlink:href="#DejaVuSans-97"/>
      <use x="394.824219" xlink:href="#DejaVuSans-108"/>
     </g>
    </g>
   </g>
   <g id="text_14">
    <g id="patch_15">
     <path clip-path="url(#p4176a67e31)" d="M 16.759053 33.720012 
L 16.759053 38.543762 
Q 16.759053 40.943762 19.159053 40.943762 
L 26.901553 40.943762 
Q 29.301553 40.943762 29.301553 38.543762 
L 29.301553 33.720012 
Q 29.301553 31.320012 26.901553 31.320012 
L 19.159053 31.320012 
Q 16.759053 31.320012 16.759053 33.720012 
z
" style="fill:#ffffff;stroke:#ffffff;stroke-linejoin:miter;"/>
    </g>
    <g clip-path="url(#p4176a67e31)">
     <!-- P -->
     <g transform="translate(20.822803 33.720012)rotate(-270)scale(0.08 -0.08)">
      <use xlink:href="#DejaVuSans-80"/>
     </g>
    </g>
   </g>
   <g id="text_15">
    <g id="patch_16">
     <path clip-path="url(#p4176a67e31)" d="M 119.115955 233.264857 
L 119.115955 267.072357 
Q 119.115955 269.472357 121.515955 269.472357 
L 129.258455 269.472357 
Q 131.658455 269.472357 131.658455 267.072357 
L 131.658455 233.264857 
Q 131.658455 230.864857 129.258455 230.864857 
L 121.515955 230.864857 
Q 119.115955 230.864857 119.115955 233.264857 
z
" style="fill:#ffffff;stroke:#ffffff;stroke-linejoin:miter;"/>
    </g>
    <g clip-path="url(#p4176a67e31)">
     <!-- Terminal -->
     <g transform="translate(123.179705 233.264857)rotate(-270)scale(0.08 -0.08)">
      <use xlink:href="#DejaVuSans-84"/>
      <use x="44.083984" xlink:href="#DejaVuSans-101"/>
      <use x="105.607422" xlink:href="#DejaVuSans-114"/>
      <use x="144.970703" xlink:href="#DejaVuSans-109"/>
      <use x="242.382812" xlink:href="#DejaVuSans-105"/>
      <use x="270.166016" xlink:href="#DejaVuSans-110"/>
      <use x="333.544922" xlink:href="#DejaVuSans-97"/>
      <use x="394.824219" xlink:href="#DejaVuSans-108"/>
     </g>
    </g>
   </g>
   <g id="text_16">
    <g id="patch_17">
     <path clip-path="url(#p4176a67e31)" d="M 170.294407 233.264857 
L 170.294407 267.072357 
Q 170.294407 269.472357 172.694407 269.472357 
L 180.436907 269.472357 
Q 182.836907 269.472357 182.836907 267.072357 
L 182.836907 233.264857 
Q 182.836907 230.864857 180.436907 230.864857 
L 172.694407 230.864857 
Q 170.294407 230.864857 170.294407 233.264857 
z
" style="fill:#ffffff;stroke:#ffffff;stroke-linejoin:miter;"/>
    </g>
    <g clip-path="url(#p4176a67e31)">
     <!-- Terminal -->
     <g transform="translate(174.358157 233.264857)rotate(-270)scale(0.08 -0.08)">
      <use xlink:href="#DejaVuSans-84"/>
      <use x="44.083984" xlink:href="#DejaVuSans-101"/>
      <use x="105.607422" xlink:href="#DejaVuSans-114"/>
      <use x="144.970703" xlink:href="#DejaVuSans-109"/>
      <use x="242.382812" xlink:href="#DejaVuSans-105"/>
      <use x="270.166016" xlink:href="#DejaVuSans-110"/>
      <use x="333.544922" xlink:href="#DejaVuSans-97"/>
      <use x="394.824219" xlink:href="#DejaVuSans-108"/>
     </g>
    </g>
   </g>
   <g id="text_17">
    <g id="patch_18">
     <path clip-path="url(#p4176a67e31)" d="M 221.472858 233.264857 
L 221.472858 267.072357 
Q 221.472858 269.472357 223.872858 269.472357 
L 231.615358 269.472357 
Q 234.015358 269.472357 234.015358 267.072357 
L 234.015358 233.264857 
Q 234.015358 230.864857 231.615358 230.864857 
L 223.872858 230.864857 
Q 221.472858 230.864857 221.472858 233.264857 
z
" style="fill:#ffffff;stroke:#ffffff;stroke-linejoin:miter;"/>
    </g>
    <g clip-path="url(#p4176a67e31)">
     <!-- Terminal -->
     <g transform="translate(225.536608 233.264857)rotate(-270)scale(0.08 -0.08)">
      <use xlink:href="#DejaVuSans-84"/>
      <use x="44.083984" xlink:href="#DejaVuSans-101"/>
      <use x="105.607422" xlink:href="#DejaVuSans-114"/>
      <use x="144.970703" xlink:href="#DejaVuSans-109"/>
      <use x="242.382812" xlink:href="#DejaVuSans-105"/>
      <use x="270.166016" xlink:href="#DejaVuSans-110"/>
      <use x="333.544922" xlink:href="#DejaVuSans-97"/>
      <use x="394.824219" xlink:href="#DejaVuSans-108"/>
     </g>
    </g>
   </g>
   <g id="text_18">
    <g id="patch_19">
     <path clip-path="url(#p4176a67e31)" d="M 272.651309 233.264857 
L 272.651309 267.072357 
Q 272.651309 269.472357 275.051309 269.472357 
L 282.793809 269.472357 
Q 285.193809 269.472357 285.193809 267.072357 
L 285.193809 233.264857 
Q 285.193809 230.864857 282.793809 230.864857 
L 275.051309 230.864857 
Q 272.651309 230.864857 272.651309 233.264857 
z
" style="fill:#ffffff;stroke:#ffffff;stroke-linejoin:miter;"/>
    </g>
    <g clip-path="url(#p4176a67e31)">
     <!-- Terminal -->
     <g transform="translate(276.715059 233.264857)rotate(-270)scale(0.08 -0.08)">
      <use xlink:href="#DejaVuSans-84"/>
      <use x="44.083984" xlink:href="#DejaVuSans-101"/>
      <use x="105.607422" xlink:href="#DejaVuSans-114"/>
      <use x="144.970703" xlink:href="#DejaVuSans-109"/>
      <use x="242.382812" xlink:href="#DejaVuSans-105"/>
      <use x="270.166016" xlink:href="#DejaVuSans-110"/>
      <use x="333.544922" xlink:href="#DejaVuSans-97"/>
      <use x="394.824219" xlink:href="#DejaVuSans-108"/>
     </g>
    </g>
   </g>
   <g id="text_19">
    <g id="patch_20">
     <path clip-path="url(#p4176a67e31)" d="M 354.007942 248.064979 
L 359.487122 247.127806 
Q 361.852767 246.72318 361.448141 244.357534 
L 360.1428 236.725864 
Q 359.738174 234.360219 357.372529 234.764845 
L 351.893349 235.702018 
Q 349.527704 236.106644 349.93233 238.472289 
L 351.237671 246.10396 
Q 351.642297 248.469605 354.007942 248.064979 
z
" style="fill:#ffffff;stroke:#ffffff;stroke-linejoin:miter;"/>
    </g>
    <g clip-path="url(#p4176a67e31)">
     <!-- R -->
     <g transform="translate(353.322818 244.059399)rotate(-9.706094)scale(0.08 -0.08)">
      <defs>
       <path d="M 44.390625 34.1875 
Q 47.5625 33.109375 50.5625 29.59375 
Q 53.5625 26.078125 56.59375 19.921875 
L 66.609375 0 
L 56 0 
L 46.6875 18.703125 
Q 43.0625 26.03125 39.671875 28.421875 
Q 36.28125 30.8125 30.421875 30.8125 
L 19.671875 30.8125 
L 19.671875 0 
L 9.8125 0 
L 9.8125 72.90625 
L 32.078125 72.90625 
Q 44.578125 72.90625 50.734375 67.671875 
Q 56.890625 62.453125 56.890625 51.90625 
Q 56.890625 45.015625 53.6875 40.46875 
Q 50.484375 35.9375 44.390625 34.1875 
z
M 19.671875 64.796875 
L 19.671875 38.921875 
L 32.078125 38.921875 
Q 39.203125 38.921875 42.84375 42.21875 
Q 46.484375 45.515625 46.484375 51.90625 
Q 46.484375 58.296875 42.84375 61.546875 
Q 39.203125 64.796875 32.078125 64.796875 
z
" id="DejaVuSans-82"/>
      </defs>
      <use xlink:href="#DejaVuSans-82"/>
     </g>
    </g>
   </g>
   <g id="text_20">
    <g id="patch_21">
     <path clip-path="url(#p4176a67e31)" d="M 375.008211 239.186162 
L 375.008211 243.643662 
Q 375.008211 246.043662 377.408211 246.043662 
L 385.150711 246.043662 
Q 387.550711 246.043662 387.550711 243.643662 
L 387.550711 239.186162 
Q 387.550711 236.786162 385.150711 236.786162 
L 377.408211 236.786162 
Q 375.008211 236.786162 375.008211 239.186162 
z
" style="fill:#ffffff;stroke:#ffffff;stroke-linejoin:miter;"/>
    </g>
    <g clip-path="url(#p4176a67e31)">
     <!-- L -->
     <g transform="translate(379.071961 239.186162)rotate(-270)scale(0.08 -0.08)">
      <defs>
       <path d="M 9.8125 72.90625 
L 19.671875 72.90625 
L 19.671875 8.296875 
L 55.171875 8.296875 
L 55.171875 0 
L 9.8125 0 
z
" id="DejaVuSans-76"/>
      </defs>
      <use xlink:href="#DejaVuSans-76"/>
     </g>
    </g>
   </g>
   <g id="text_21">
    <g id="patch_22">
     <path clip-path="url(#p4176a67e31)" d="M 403.058247 247.125488 
L 408.564533 248.067297 
Q 410.930179 248.471923 411.334805 246.106278 
L 412.640145 238.474607 
Q 413.044772 236.108962 410.679126 235.704336 
L 405.17284 234.762527 
Q 402.807195 234.3579 402.402569 236.723546 
L 401.097228 244.355216 
Q 400.692602 246.720861 403.058247 247.125488 
z
" style="fill:#ffffff;stroke:#ffffff;stroke-linejoin:miter;"/>
    </g>
    <g clip-path="url(#p4176a67e31)">
     <!-- C -->
     <g transform="translate(403.743372 243.119908)rotate(-350.293906)scale(0.08 -0.08)">
      <use xlink:href="#DejaVuSans-67"/>
     </g>
    </g>
   </g>
   <g id="text_22">
    <g id="patch_23">
     <path clip-path="url(#p4176a67e31)" d="M 16.759053 48.965389 
L 16.759053 53.789139 
Q 16.759053 56.189139 19.159053 56.189139 
L 26.901553 56.189139 
Q 29.301553 56.189139 29.301553 53.789139 
L 29.301553 48.965389 
Q 29.301553 46.565389 26.901553 46.565389 
L 19.159053 46.565389 
Q 16.759053 46.565389 16.759053 48.965389 
z
" style="fill:#ffffff;stroke:#ffffff;stroke-linejoin:miter;"/>
    </g>
    <g clip-path="url(#p4176a67e31)">
     <!-- P -->
     <g transform="translate(20.822803 48.965389)rotate(-270)scale(0.08 -0.08)">
      <use xlink:href="#DejaVuSans-80"/>
     </g>
    </g>
   </g>
   <g id="text_23">
    <g id="patch_24">
     <path clip-path="url(#p4176a67e31)" d="M 323.82976 233.264857 
L 323.82976 267.072357 
Q 323.82976 269.472357 326.22976 269.472357 
L 333.97226 269.472357 
Q 336.37226 269.472357 336.37226 267.072357 
L 336.37226 233.264857 
Q 336.37226 230.864857 333.97226 230.864857 
L 326.22976 230.864857 
Q 323.82976 230.864857 323.82976 233.264857 
z
" style="fill:#ffffff;stroke:#ffffff;stroke-linejoin:miter;"/>
    </g>
    <g clip-path="url(#p4176a67e31)">
     <!-- Terminal -->
     <g transform="translate(327.89351 233.264857)rotate(-270)scale(0.08 -0.08)">
      <use xlink:href="#DejaVuSans-84"/>
      <use x="44.083984" xlink:href="#DejaVuSans-101"/>
      <use x="105.607422" xlink:href="#DejaVuSans-114"/>
      <use x="144.970703" xlink:href="#DejaVuSans-109"/>
      <use x="242.382812" xlink:href="#DejaVuSans-105"/>
      <use x="270.166016" xlink:href="#DejaVuSans-110"/>
      <use x="333.544922" xlink:href="#DejaVuSans-97"/>
      <use x="394.824219" xlink:href="#DejaVuSans-108"/>
     </g>
    </g>
   </g>
   <g id="text_24">
    <g id="patch_25">
     <path clip-path="url(#p4176a67e31)" d="M 375.008211 233.264857 
L 375.008211 267.072357 
Q 375.008211 269.472357 377.408211 269.472357 
L 385.150711 269.472357 
Q 387.550711 269.472357 387.550711 267.072357 
L 387.550711 233.264857 
Q 387.550711 230.864857 385.150711 230.864857 
L 377.408211 230.864857 
Q 375.008211 230.864857 375.008211 233.264857 
z
" style="fill:#ffffff;stroke:#ffffff;stroke-linejoin:miter;"/>
    </g>
    <g clip-path="url(#p4176a67e31)">
     <!-- Terminal -->
     <g transform="translate(379.071961 233.264857)rotate(-270)scale(0.08 -0.08)">
      <use xlink:href="#DejaVuSans-84"/>
      <use x="44.083984" xlink:href="#DejaVuSans-101"/>
      <use x="105.607422" xlink:href="#DejaVuSans-114"/>
      <use x="144.970703" xlink:href="#DejaVuSans-109"/>
      <use x="242.382812" xlink:href="#DejaVuSans-105"/>
      <use x="270.166016" xlink:href="#DejaVuSans-110"/>
      <use x="333.544922" xlink:href="#DejaVuSans-97"/>
      <use x="394.824219" xlink:href="#DejaVuSans-108"/>
     </g>
    </g>
   </g>
   <g id="text_25">
    <g id="patch_26">
     <path clip-path="url(#p4176a67e31)" d="M 426.186662 233.264857 
L 426.186662 267.072357 
Q 426.186662 269.472357 428.586662 269.472357 
L 436.329162 269.472357 
Q 438.729162 269.472357 438.729162 267.072357 
L 438.729162 233.264857 
Q 438.729162 230.864857 436.329162 230.864857 
L 428.586662 230.864857 
Q 426.186662 230.864857 426.186662 233.264857 
z
" style="fill:#ffffff;stroke:#ffffff;stroke-linejoin:miter;"/>
    </g>
    <g clip-path="url(#p4176a67e31)">
     <!-- Terminal -->
     <g transform="translate(430.250412 233.264857)rotate(-270)scale(0.08 -0.08)">
      <use xlink:href="#DejaVuSans-84"/>
      <use x="44.083984" xlink:href="#DejaVuSans-101"/>
      <use x="105.607422" xlink:href="#DejaVuSans-114"/>
      <use x="144.970703" xlink:href="#DejaVuSans-109"/>
      <use x="242.382812" xlink:href="#DejaVuSans-105"/>
      <use x="270.166016" xlink:href="#DejaVuSans-110"/>
      <use x="333.544922" xlink:href="#DejaVuSans-97"/>
      <use x="394.824219" xlink:href="#DejaVuSans-108"/>
     </g>
    </g>
   </g>
   <g id="text_26">
    <g id="patch_27">
     <path clip-path="url(#p4176a67e31)" d="M 16.759053 63.597943 
L 16.759053 68.421693 
Q 16.759053 70.821693 19.159053 70.821693 
L 26.901553 70.821693 
Q 29.301553 70.821693 29.301553 68.421693 
L 29.301553 63.597943 
Q 29.301553 61.197943 26.901553 61.197943 
L 19.159053 61.197943 
Q 16.759053 61.197943 16.759053 63.597943 
z
" style="fill:#ffffff;stroke:#ffffff;stroke-linejoin:miter;"/>
    </g>
    <g clip-path="url(#p4176a67e31)">
     <!-- P -->
     <g transform="translate(20.822803 63.597943)rotate(-270)scale(0.08 -0.08)">
      <use xlink:href="#DejaVuSans-80"/>
     </g>
    </g>
   </g>
   <g id="text_27">
    <g id="patch_28">
     <path clip-path="url(#p4176a67e31)" d="M 16.759053 77.653002 
L 16.759053 82.476752 
Q 16.759053 84.876752 19.159053 84.876752 
L 26.901553 84.876752 
Q 29.301553 84.876752 29.301553 82.476752 
L 29.301553 77.653002 
Q 29.301553 75.253002 26.901553 75.253002 
L 19.159053 75.253002 
Q 16.759053 75.253002 16.759053 77.653002 
z
" style="fill:#ffffff;stroke:#ffffff;stroke-linejoin:miter;"/>
    </g>
    <g clip-path="url(#p4176a67e31)">
     <!-- P -->
     <g transform="translate(20.822803 77.653002)rotate(-270)scale(0.08 -0.08)">
      <use xlink:href="#DejaVuSans-80"/>
     </g>
    </g>
   </g>
   <g id="text_28">
    <g id="patch_29">
     <path clip-path="url(#p4176a67e31)" d="M 16.759053 91.164032 
L 16.759053 95.987782 
Q 16.759053 98.387782 19.159053 98.387782 
L 26.901553 98.387782 
Q 29.301553 98.387782 29.301553 95.987782 
L 29.301553 91.164032 
Q 29.301553 88.764032 26.901553 88.764032 
L 19.159053 88.764032 
Q 16.759053 88.764032 16.759053 91.164032 
z
" style="fill:#ffffff;stroke:#ffffff;stroke-linejoin:miter;"/>
    </g>
    <g clip-path="url(#p4176a67e31)">
     <!-- P -->
     <g transform="translate(20.822803 91.164032)rotate(-270)scale(0.08 -0.08)">
      <use xlink:href="#DejaVuSans-80"/>
     </g>
    </g>
   </g>
   <g id="text_29">
    <g id="patch_30">
     <path clip-path="url(#p4176a67e31)" d="M 16.759053 104.162798 
L 16.759053 108.986548 
Q 16.759053 111.386548 19.159053 111.386548 
L 26.901553 111.386548 
Q 29.301553 111.386548 29.301553 108.986548 
L 29.301553 104.162798 
Q 29.301553 101.762798 26.901553 101.762798 
L 19.159053 101.762798 
Q 16.759053 101.762798 16.759053 104.162798 
z
" style="fill:#ffffff;stroke:#ffffff;stroke-linejoin:miter;"/>
    </g>
    <g clip-path="url(#p4176a67e31)">
     <!-- P -->
     <g transform="translate(20.822803 104.162798)rotate(-270)scale(0.08 -0.08)">
      <use xlink:href="#DejaVuSans-80"/>
     </g>
    </g>
   </g>
   <g id="text_30">
    <g id="patch_31">
     <path clip-path="url(#p4176a67e31)" d="M 16.759053 116.679521 
L 16.759053 121.503271 
Q 16.759053 123.903271 19.159053 123.903271 
L 26.901553 123.903271 
Q 29.301553 123.903271 29.301553 121.503271 
L 29.301553 116.679521 
Q 29.301553 114.279521 26.901553 114.279521 
L 19.159053 114.279521 
Q 16.759053 114.279521 16.759053 116.679521 
z
" style="fill:#ffffff;stroke:#ffffff;stroke-linejoin:miter;"/>
    </g>
    <g clip-path="url(#p4176a67e31)">
     <!-- P -->
     <g transform="translate(20.822803 116.679521)rotate(-270)scale(0.08 -0.08)">
      <use xlink:href="#DejaVuSans-80"/>
     </g>
    </g>
   </g>
   <g id="text_31">
    <g id="patch_32">
     <path clip-path="url(#p4176a67e31)" d="M 16.759053 128.743029 
L 16.759053 133.566779 
Q 16.759053 135.966779 19.159053 135.966779 
L 26.901553 135.966779 
Q 29.301553 135.966779 29.301553 133.566779 
L 29.301553 128.743029 
Q 29.301553 126.343029 26.901553 126.343029 
L 19.159053 126.343029 
Q 16.759053 126.343029 16.759053 128.743029 
z
" style="fill:#ffffff;stroke:#ffffff;stroke-linejoin:miter;"/>
    </g>
    <g clip-path="url(#p4176a67e31)">
     <!-- P -->
     <g transform="translate(20.822803 128.743029)rotate(-270)scale(0.08 -0.08)">
      <use xlink:href="#DejaVuSans-80"/>
     </g>
    </g>
   </g>
   <g id="text_32">
    <g id="patch_33">
     <path clip-path="url(#p4176a67e31)" d="M 16.759053 140.380922 
L 16.759053 145.204672 
Q 16.759053 147.604672 19.159053 147.604672 
L 26.901553 147.604672 
Q 29.301553 147.604672 29.301553 145.204672 
L 29.301553 140.380922 
Q 29.301553 137.980922 26.901553 137.980922 
L 19.159053 137.980922 
Q 16.759053 137.980922 16.759053 140.380922 
z
" style="fill:#ffffff;stroke:#ffffff;stroke-linejoin:miter;"/>
    </g>
    <g clip-path="url(#p4176a67e31)">
     <!-- P -->
     <g transform="translate(20.822803 140.380922)rotate(-270)scale(0.08 -0.08)">
      <use xlink:href="#DejaVuSans-80"/>
     </g>
    </g>
   </g>
   <g id="text_33">
    <g id="patch_34">
     <path clip-path="url(#p4176a67e31)" d="M 16.759053 151.619736 
L 16.759053 156.443486 
Q 16.759053 158.843486 19.159053 158.843486 
L 26.901553 158.843486 
Q 29.301553 158.843486 29.301553 156.443486 
L 29.301553 151.619736 
Q 29.301553 149.219736 26.901553 149.219736 
L 19.159053 149.219736 
Q 16.759053 149.219736 16.759053 151.619736 
z
" style="fill:#ffffff;stroke:#ffffff;stroke-linejoin:miter;"/>
    </g>
    <g clip-path="url(#p4176a67e31)">
     <!-- P -->
     <g transform="translate(20.822803 151.619736)rotate(-270)scale(0.08 -0.08)">
      <use xlink:href="#DejaVuSans-80"/>
     </g>
    </g>
   </g>
   <g id="text_34">
    <g id="patch_35">
     <path clip-path="url(#p4176a67e31)" d="M 16.759053 162.485126 
L 16.759053 167.308876 
Q 16.759053 169.708876 19.159053 169.708876 
L 26.901553 169.708876 
Q 29.301553 169.708876 29.301553 167.308876 
L 29.301553 162.485126 
Q 29.301553 160.085126 26.901553 160.085126 
L 19.159053 160.085126 
Q 16.759053 160.085126 16.759053 162.485126 
z
" style="fill:#ffffff;stroke:#ffffff;stroke-linejoin:miter;"/>
    </g>
    <g clip-path="url(#p4176a67e31)">
     <!-- P -->
     <g transform="translate(20.822803 162.485126)rotate(-270)scale(0.08 -0.08)">
      <use xlink:href="#DejaVuSans-80"/>
     </g>
    </g>
   </g>
   <g id="text_35">
    <g id="patch_36">
     <path clip-path="url(#p4176a67e31)" d="M 16.759053 173.002076 
L 16.759053 177.825826 
Q 16.759053 180.225826 19.159053 180.225826 
L 26.901553 180.225826 
Q 29.301553 180.225826 29.301553 177.825826 
L 29.301553 173.002076 
Q 29.301553 170.602076 26.901553 170.602076 
L 19.159053 170.602076 
Q 16.759053 170.602076 16.759053 173.002076 
z
" style="fill:#ffffff;stroke:#ffffff;stroke-linejoin:miter;"/>
    </g>
    <g clip-path="url(#p4176a67e31)">
     <!-- P -->
     <g transform="translate(20.822803 173.002076)rotate(-270)scale(0.08 -0.08)">
      <use xlink:href="#DejaVuSans-80"/>
     </g>
    </g>
   </g>
   <g id="text_36">
    <g id="patch_37">
     <path clip-path="url(#p4176a67e31)" d="M 16.759053 183.195147 
L 16.759053 188.018897 
Q 16.759053 190.418897 19.159053 190.418897 
L 26.901553 190.418897 
Q 29.301553 190.418897 29.301553 188.018897 
L 29.301553 183.195147 
Q 29.301553 180.795147 26.901553 180.795147 
L 19.159053 180.795147 
Q 16.759053 180.795147 16.759053 183.195147 
z
" style="fill:#ffffff;stroke:#ffffff;stroke-linejoin:miter;"/>
    </g>
    <g clip-path="url(#p4176a67e31)">
     <!-- P -->
     <g transform="translate(20.822803 183.195147)rotate(-270)scale(0.08 -0.08)">
      <use xlink:href="#DejaVuSans-80"/>
     </g>
    </g>
   </g>
   <g id="text_37">
    <g id="patch_38">
     <path clip-path="url(#p4176a67e31)" d="M 16.759053 193.088801 
L 16.759053 197.912551 
Q 16.759053 200.312551 19.159053 200.312551 
L 26.901553 200.312551 
Q 29.301553 200.312551 29.301553 197.912551 
L 29.301553 193.088801 
Q 29.301553 190.688801 26.901553 190.688801 
L 19.159053 190.688801 
Q 16.759053 190.688801 16.759053 193.088801 
z
" style="fill:#ffffff;stroke:#ffffff;stroke-linejoin:miter;"/>
    </g>
    <g clip-path="url(#p4176a67e31)">
     <!-- P -->
     <g transform="translate(20.822803 193.088801)rotate(-270)scale(0.08 -0.08)">
      <use xlink:href="#DejaVuSans-80"/>
     </g>
    </g>
   </g>
   <g id="text_38">
    <g id="patch_39">
     <path clip-path="url(#p4176a67e31)" d="M 16.759053 202.707844 
L 16.759053 207.531594 
Q 16.759053 209.931594 19.159053 209.931594 
L 26.901553 209.931594 
Q 29.301553 209.931594 29.301553 207.531594 
L 29.301553 202.707844 
Q 29.301553 200.307844 26.901553 200.307844 
L 19.159053 200.307844 
Q 16.759053 200.307844 16.759053 202.707844 
z
" style="fill:#ffffff;stroke:#ffffff;stroke-linejoin:miter;"/>
    </g>
    <g clip-path="url(#p4176a67e31)">
     <!-- P -->
     <g transform="translate(20.822803 202.707844)rotate(-270)scale(0.08 -0.08)">
      <use xlink:href="#DejaVuSans-80"/>
     </g>
    </g>
   </g>
   <g id="text_39">
    <g id="patch_40">
     <path clip-path="url(#p4176a67e31)" d="M 16.759053 212.0781 
L 16.759053 216.90185 
Q 16.759053 219.30185 19.159053 219.30185 
L 26.901553 219.30185 
Q 29.301553 219.30185 29.301553 216.90185 
L 29.301553 212.0781 
Q 29.301553 209.6781 26.901553 209.6781 
L 19.159053 209.6781 
Q 16.759053 209.6781 16.759053 212.0781 
z
" style="fill:#ffffff;stroke:#ffffff;stroke-linejoin:miter;"/>
    </g>
    <g clip-path="url(#p4176a67e31)">
     <!-- P -->
     <g transform="translate(20.822803 212.0781)rotate(-270)scale(0.08 -0.08)">
      <use xlink:href="#DejaVuSans-80"/>
     </g>
    </g>
   </g>
   <g id="text_40">
    <g id="patch_41">
     <path clip-path="url(#p4176a67e31)" d="M 16.759053 221.227534 
L 16.759053 226.051284 
Q 16.759053 228.451284 19.159053 228.451284 
L 26.901553 228.451284 
Q 29.301553 228.451284 29.301553 226.051284 
L 29.301553 221.227534 
Q 29.301553 218.827534 26.901553 218.827534 
L 19.159053 218.827534 
Q 16.759053 218.827534 16.759053 221.227534 
z
" style="fill:#ffffff;stroke:#ffffff;stroke-linejoin:miter;"/>
    </g>
    <g clip-path="url(#p4176a67e31)">
     <!-- P -->
     <g transform="translate(20.822803 221.227534)rotate(-270)scale(0.08 -0.08)">
      <use xlink:href="#DejaVuSans-80"/>
     </g>
    </g>
   </g>
   <g id="text_41">
    <g id="patch_42">
     <path clip-path="url(#p4176a67e31)" d="M 16.759053 230.188455 
L 16.759053 235.012205 
Q 16.759053 237.412205 19.159053 237.412205 
L 26.901553 237.412205 
Q 29.301553 237.412205 29.301553 235.012205 
L 29.301553 230.188455 
Q 29.301553 227.788455 26.901553 227.788455 
L 19.159053 227.788455 
Q 16.759053 227.788455 16.759053 230.188455 
z
" style="fill:#ffffff;stroke:#ffffff;stroke-linejoin:miter;"/>
    </g>
    <g clip-path="url(#p4176a67e31)">
     <!-- P -->
     <g transform="translate(20.822803 230.188455)rotate(-270)scale(0.08 -0.08)">
      <use xlink:href="#DejaVuSans-80"/>
     </g>
    </g>
   </g>
   <g id="text_42">
    <g id="patch_43">
     <path clip-path="url(#p4176a67e31)" d="M 16.759053 239.003037 
L 16.759053 243.826787 
Q 16.759053 246.226787 19.159053 246.226787 
L 26.901553 246.226787 
Q 29.301553 246.226787 29.301553 243.826787 
L 29.301553 239.003037 
Q 29.301553 236.603037 26.901553 236.603037 
L 19.159053 236.603037 
Q 16.759053 236.603037 16.759053 239.003037 
z
" style="fill:#ffffff;stroke:#ffffff;stroke-linejoin:miter;"/>
    </g>
    <g clip-path="url(#p4176a67e31)">
     <!-- P -->
     <g transform="translate(20.822803 239.003037)rotate(-270)scale(0.08 -0.08)">
      <use xlink:href="#DejaVuSans-80"/>
     </g>
    </g>
   </g>
   <g id="text_43">
    <g id="patch_44">
     <path clip-path="url(#p4176a67e31)" d="M 16.759053 233.264857 
L 16.759053 267.072357 
Q 16.759053 269.472357 19.159053 269.472357 
L 26.901553 269.472357 
Q 29.301553 269.472357 29.301553 267.072357 
L 29.301553 233.264857 
Q 29.301553 230.864857 26.901553 230.864857 
L 19.159053 230.864857 
Q 16.759053 230.864857 16.759053 233.264857 
z
" style="fill:#ffffff;stroke:#ffffff;stroke-linejoin:miter;"/>
    </g>
    <g clip-path="url(#p4176a67e31)">
     <!-- Terminal -->
     <g transform="translate(20.822803 233.264857)rotate(-270)scale(0.08 -0.08)">
      <use xlink:href="#DejaVuSans-84"/>
      <use x="44.083984" xlink:href="#DejaVuSans-101"/>
      <use x="105.607422" xlink:href="#DejaVuSans-114"/>
      <use x="144.970703" xlink:href="#DejaVuSans-109"/>
      <use x="242.382812" xlink:href="#DejaVuSans-105"/>
      <use x="270.166016" xlink:href="#DejaVuSans-110"/>
      <use x="333.544922" xlink:href="#DejaVuSans-97"/>
      <use x="394.824219" xlink:href="#DejaVuSans-108"/>
     </g>
    </g>
   </g>
   <g id="PathCollection_1">
    <defs>
     <path d="M 0 8.660254 
C 2.296726 8.660254 4.499694 7.747755 6.123724 6.123724 
C 7.747755 4.499694 8.660254 2.296726 8.660254 -0 
C 8.660254 -2.296726 7.747755 -4.499694 6.123724 -6.123724 
C 4.499694 -7.747755 2.296726 -8.660254 0 -8.660254 
C -2.296726 -8.660254 -4.499694 -7.747755 -6.123724 -6.123724 
C -7.747755 -4.499694 -8.660254 -2.296726 -8.660254 0 
C -8.660254 2.296726 -7.747755 4.499694 -6.123724 6.123724 
C -4.499694 7.747755 -2.296726 8.660254 0 8.660254 
z
" id="C0_0_4e143e8fca"/>
    </defs>
    <g clip-path="url(#p4176a67e31)">
     <use style="fill:#ffffff;stroke:#ffffff;" x="23.030303" xlink:href="#C0_0_4e143e8fca" y="254.545455"/>
    </g>
    <g clip-path="url(#p4176a67e31)">
     <use style="fill:#ffffff;stroke:#ffffff;" x="74.208754" xlink:href="#C0_0_4e143e8fca" y="254.545455"/>
    </g>
    <g clip-path="url(#p4176a67e31)">
     <use style="fill:#ffffff;stroke:#ffffff;" x="125.387205" xlink:href="#C0_0_4e143e8fca" y="254.545455"/>
    </g>
    <g clip-path="url(#p4176a67e31)">
     <use style="fill:#ffffff;stroke:#ffffff;" x="176.565657" xlink:href="#C0_0_4e143e8fca" y="254.545455"/>
    </g>
    <g clip-path="url(#p4176a67e31)">
     <use style="fill:#ffffff;stroke:#ffffff;" x="227.744108" xlink:href="#C0_0_4e143e8fca" y="254.545455"/>
    </g>
    <g clip-path="url(#p4176a67e31)">
     <use style="fill:#ffffff;stroke:#ffffff;" x="278.922559" xlink:href="#C0_0_4e143e8fca" y="254.545455"/>
    </g>
    <g clip-path="url(#p4176a67e31)">
     <use style="fill:#ffffff;stroke:#ffffff;" x="330.10101" xlink:href="#C0_0_4e143e8fca" y="254.545455"/>
    </g>
    <g clip-path="url(#p4176a67e31)">
     <use style="fill:#ffffff;stroke:#ffffff;" x="381.279461" xlink:href="#C0_0_4e143e8fca" y="254.545455"/>
    </g>
    <g clip-path="url(#p4176a67e31)">
     <use style="fill:#ffffff;stroke:#ffffff;" x="432.457912" xlink:href="#C0_0_4e143e8fca" y="254.545455"/>
    </g>
    <g clip-path="url(#p4176a67e31)">
     <use style="fill:#ffffff;stroke:#ffffff;" x="483.636364" xlink:href="#C0_0_4e143e8fca" y="254.545455"/>
    </g>
    <g clip-path="url(#p4176a67e31)">
     <use style="stroke:#000000;" x="185.095398" xlink:href="#C0_0_4e143e8fca" y="12.121212"/>
    </g>
    <g clip-path="url(#p4176a67e31)">
     <use style="stroke:#000000;" x="74.208754" xlink:href="#C0_0_4e143e8fca" y="245.791759"/>
    </g>
    <g clip-path="url(#p4176a67e31)">
     <use style="stroke:#000000;" x="176.565657" xlink:href="#C0_0_4e143e8fca" y="237.038064"/>
    </g>
    <g clip-path="url(#p4176a67e31)">
     <use style="stroke:#000000;" x="330.10101" xlink:href="#C0_0_4e143e8fca" y="228.162595"/>
    </g>
    <g clip-path="url(#p4176a67e31)">
     <use style="stroke:#000000;" x="483.636364" xlink:href="#C0_0_4e143e8fca" y="245.791759"/>
    </g>
    <g clip-path="url(#p4176a67e31)">
     <use style="stroke:#000000;" x="23.030303" xlink:href="#C0_0_4e143e8fca" y="28.351455"/>
    </g>
    <g clip-path="url(#p4176a67e31)">
     <use style="stroke:#000000;" x="125.387205" xlink:href="#C0_0_4e143e8fca" y="245.791759"/>
    </g>
    <g clip-path="url(#p4176a67e31)">
     <use style="stroke:#000000;" x="176.565657" xlink:href="#C0_0_4e143e8fca" y="245.791759"/>
    </g>
    <g clip-path="url(#p4176a67e31)">
     <use style="stroke:#000000;" x="227.744108" xlink:href="#C0_0_4e143e8fca" y="245.791759"/>
    </g>
    <g clip-path="url(#p4176a67e31)">
     <use style="stroke:#000000;" x="278.922559" xlink:href="#C0_0_4e143e8fca" y="245.791759"/>
    </g>
    <g clip-path="url(#p4176a67e31)">
     <use style="stroke:#000000;" x="381.279461" xlink:href="#C0_0_4e143e8fca" y="237.038064"/>
    </g>
    <g clip-path="url(#p4176a67e31)">
     <use style="stroke:#000000;" x="23.030303" xlink:href="#C0_0_4e143e8fca" y="43.912319"/>
    </g>
    <g clip-path="url(#p4176a67e31)">
     <use style="stroke:#000000;" x="330.10101" xlink:href="#C0_0_4e143e8fca" y="245.791759"/>
    </g>
    <g clip-path="url(#p4176a67e31)">
     <use style="stroke:#000000;" x="381.279461" xlink:href="#C0_0_4e143e8fca" y="245.791759"/>
    </g>
    <g clip-path="url(#p4176a67e31)">
     <use style="stroke:#000000;" x="432.457912" xlink:href="#C0_0_4e143e8fca" y="245.791759"/>
    </g>
    <g clip-path="url(#p4176a67e31)">
     <use style="stroke:#000000;" x="23.030303" xlink:href="#C0_0_4e143e8fca" y="58.842209"/>
    </g>
    <g clip-path="url(#p4176a67e31)">
     <use style="stroke:#000000;" x="23.030303" xlink:href="#C0_0_4e143e8fca" y="73.177427"/>
    </g>
    <g clip-path="url(#p4176a67e31)">
     <use style="stroke:#000000;" x="23.030303" xlink:href="#C0_0_4e143e8fca" y="86.952327"/>
    </g>
    <g clip-path="url(#p4176a67e31)">
     <use style="stroke:#000000;" x="23.030303" xlink:href="#C0_0_4e143e8fca" y="100.199487"/>
    </g>
    <g clip-path="url(#p4176a67e31)">
     <use style="stroke:#000000;" x="23.030303" xlink:href="#C0_0_4e143e8fca" y="112.94986"/>
    </g>
    <g clip-path="url(#p4176a67e31)">
     <use style="stroke:#000000;" x="23.030303" xlink:href="#C0_0_4e143e8fca" y="125.232932"/>
    </g>
    <g clip-path="url(#p4176a67e31)">
     <use style="stroke:#000000;" x="23.030303" xlink:href="#C0_0_4e143e8fca" y="137.076876"/>
    </g>
    <g clip-path="url(#p4176a67e31)">
     <use style="stroke:#000000;" x="23.030303" xlink:href="#C0_0_4e143e8fca" y="148.508717"/>
    </g>
    <g clip-path="url(#p4176a67e31)">
     <use style="stroke:#000000;" x="23.030303" xlink:href="#C0_0_4e143e8fca" y="159.554504"/>
    </g>
    <g clip-path="url(#p4176a67e31)">
     <use style="stroke:#000000;" x="23.030303" xlink:href="#C0_0_4e143e8fca" y="170.239498"/>
    </g>
    <g clip-path="url(#p4176a67e31)">
     <use style="stroke:#000000;" x="23.030303" xlink:href="#C0_0_4e143e8fca" y="180.588404"/>
    </g>
    <g clip-path="url(#p4176a67e31)">
     <use style="stroke:#000000;" x="23.030303" xlink:href="#C0_0_4e143e8fca" y="190.62564"/>
    </g>
    <g clip-path="url(#p4176a67e31)">
     <use style="stroke:#000000;" x="23.030303" xlink:href="#C0_0_4e143e8fca" y="200.375711"/>
    </g>
    <g clip-path="url(#p4176a67e31)">
     <use style="stroke:#000000;" x="23.030303" xlink:href="#C0_0_4e143e8fca" y="209.863727"/>
    </g>
    <g clip-path="url(#p4176a67e31)">
     <use style="stroke:#000000;" x="23.030303" xlink:href="#C0_0_4e143e8fca" y="219.116223"/>
    </g>
    <g clip-path="url(#p4176a67e31)">
     <use style="stroke:#000000;" x="23.030303" xlink:href="#C0_0_4e143e8fca" y="228.162595"/>
    </g>
    <g clip-path="url(#p4176a67e31)">
     <use style="stroke:#000000;" x="23.030303" xlink:href="#C0_0_4e143e8fca" y="237.038064"/>
    </g>
    <g clip-path="url(#p4176a67e31)">
     <use style="stroke:#000000;" x="23.030303" xlink:href="#C0_0_4e143e8fca" y="245.791759"/>
    </g>
   </g>
   <g id="text_44">
    <g clip-path="url(#p4176a67e31)">
     <!-- A -->
     <g transform="translate(19.609991 257.30483)scale(0.1 -0.1)">
      <use xlink:href="#DejaVuSans-65"/>
     </g>
    </g>
   </g>
   <g id="text_45">
    <g clip-path="url(#p4176a67e31)">
     <!-- desert -->
     <g transform="translate(58.261098 257.30483)scale(0.1 -0.1)">
      <defs>
       <path d="M 45.40625 46.390625 
L 45.40625 75.984375 
L 54.390625 75.984375 
L 54.390625 0 
L 45.40625 0 
L 45.40625 8.203125 
Q 42.578125 3.328125 38.25 0.953125 
Q 33.9375 -1.421875 27.875 -1.421875 
Q 17.96875 -1.421875 11.734375 6.484375 
Q 5.515625 14.40625 5.515625 27.296875 
Q 5.515625 40.1875 11.734375 48.09375 
Q 17.96875 56 27.875 56 
Q 33.9375 56 38.25 53.625 
Q 42.578125 51.265625 45.40625 46.390625 
z
M 14.796875 27.296875 
Q 14.796875 17.390625 18.875 11.75 
Q 22.953125 6.109375 30.078125 6.109375 
Q 37.203125 6.109375 41.296875 11.75 
Q 45.40625 17.390625 45.40625 27.296875 
Q 45.40625 37.203125 41.296875 42.84375 
Q 37.203125 48.484375 30.078125 48.484375 
Q 22.953125 48.484375 18.875 42.84375 
Q 14.796875 37.203125 14.796875 27.296875 
z
" id="DejaVuSans-100"/>
       <path d="M 44.28125 53.078125 
L 44.28125 44.578125 
Q 40.484375 46.53125 36.375 47.5 
Q 32.28125 48.484375 27.875 48.484375 
Q 21.1875 48.484375 17.84375 46.4375 
Q 14.5 44.390625 14.5 40.28125 
Q 14.5 37.15625 16.890625 35.375 
Q 19.28125 33.59375 26.515625 31.984375 
L 29.59375 31.296875 
Q 39.15625 29.25 43.1875 25.515625 
Q 47.21875 21.78125 47.21875 15.09375 
Q 47.21875 7.46875 41.1875 3.015625 
Q 35.15625 -1.421875 24.609375 -1.421875 
Q 20.21875 -1.421875 15.453125 -0.5625 
Q 10.6875 0.296875 5.421875 2 
L 5.421875 11.28125 
Q 10.40625 8.6875 15.234375 7.390625 
Q 20.0625 6.109375 24.8125 6.109375 
Q 31.15625 6.109375 34.5625 8.28125 
Q 37.984375 10.453125 37.984375 14.40625 
Q 37.984375 18.0625 35.515625 20.015625 
Q 33.0625 21.96875 24.703125 23.78125 
L 21.578125 24.515625 
Q 13.234375 26.265625 9.515625 29.90625 
Q 5.8125 33.546875 5.8125 39.890625 
Q 5.8125 47.609375 11.28125 51.796875 
Q 16.75 56 26.8125 56 
Q 31.78125 56 36.171875 55.265625 
Q 40.578125 54.546875 44.28125 53.078125 
z
" id="DejaVuSans-115"/>
       <path d="M 18.3125 70.21875 
L 18.3125 54.6875 
L 36.8125 54.6875 
L 36.8125 47.703125 
L 18.3125 47.703125 
L 18.3125 18.015625 
Q 18.3125 11.328125 20.140625 9.421875 
Q 21.96875 7.515625 27.59375 7.515625 
L 36.8125 7.515625 
L 36.8125 0 
L 27.59375 0 
Q 17.1875 0 13.234375 3.875 
Q 9.28125 7.765625 9.28125 18.015625 
L 9.28125 47.703125 
L 2.6875 47.703125 
L 2.6875 54.6875 
L 9.28125 54.6875 
L 9.28125 70.21875 
z
" id="DejaVuSans-116"/>
      </defs>
      <use xlink:href="#DejaVuSans-100"/>
      <use x="63.476562" xlink:href="#DejaVuSans-101"/>
      <use x="125" xlink:href="#DejaVuSans-115"/>
      <use x="177.099609" xlink:href="#DejaVuSans-101"/>
      <use x="238.623047" xlink:href="#DejaVuSans-114"/>
      <use x="279.736328" xlink:href="#DejaVuSans-116"/>
     </g>
    </g>
   </g>
   <g id="text_46">
    <g clip-path="url(#p4176a67e31)">
     <!-- environment -->
     <g transform="translate(93.54658 257.30483)scale(0.1 -0.1)">
      <defs>
       <path d="M 2.984375 54.6875 
L 12.5 54.6875 
L 29.59375 8.796875 
L 46.6875 54.6875 
L 56.203125 54.6875 
L 35.6875 0 
L 23.484375 0 
z
" id="DejaVuSans-118"/>
       <path d="M 30.609375 48.390625 
Q 23.390625 48.390625 19.1875 42.75 
Q 14.984375 37.109375 14.984375 27.296875 
Q 14.984375 17.484375 19.15625 11.84375 
Q 23.34375 6.203125 30.609375 6.203125 
Q 37.796875 6.203125 41.984375 11.859375 
Q 46.1875 17.53125 46.1875 27.296875 
Q 46.1875 37.015625 41.984375 42.703125 
Q 37.796875 48.390625 30.609375 48.390625 
z
M 30.609375 56 
Q 42.328125 56 49.015625 48.375 
Q 55.71875 40.765625 55.71875 27.296875 
Q 55.71875 13.875 49.015625 6.21875 
Q 42.328125 -1.421875 30.609375 -1.421875 
Q 18.84375 -1.421875 12.171875 6.21875 
Q 5.515625 13.875 5.515625 27.296875 
Q 5.515625 40.765625 12.171875 48.375 
Q 18.84375 56 30.609375 56 
z
" id="DejaVuSans-111"/>
      </defs>
      <use xlink:href="#DejaVuSans-101"/>
      <use x="61.523438" xlink:href="#DejaVuSans-110"/>
      <use x="124.902344" xlink:href="#DejaVuSans-118"/>
      <use x="184.082031" xlink:href="#DejaVuSans-105"/>
      <use x="211.865234" xlink:href="#DejaVuSans-114"/>
      <use x="250.728516" xlink:href="#DejaVuSans-111"/>
      <use x="311.910156" xlink:href="#DejaVuSans-110"/>
      <use x="375.289062" xlink:href="#DejaVuSans-109"/>
      <use x="472.701172" xlink:href="#DejaVuSans-101"/>
      <use x="534.224609" xlink:href="#DejaVuSans-110"/>
      <use x="597.603516" xlink:href="#DejaVuSans-116"/>
     </g>
    </g>
   </g>
   <g id="text_47">
    <g clip-path="url(#p4176a67e31)">
     <!-- usually -->
     <g transform="translate(158.821907 257.30483)scale(0.1 -0.1)">
      <defs>
       <path d="M 8.5 21.578125 
L 8.5 54.6875 
L 17.484375 54.6875 
L 17.484375 21.921875 
Q 17.484375 14.15625 20.5 10.265625 
Q 23.53125 6.390625 29.59375 6.390625 
Q 36.859375 6.390625 41.078125 11.03125 
Q 45.3125 15.671875 45.3125 23.6875 
L 45.3125 54.6875 
L 54.296875 54.6875 
L 54.296875 0 
L 45.3125 0 
L 45.3125 8.40625 
Q 42.046875 3.421875 37.71875 1 
Q 33.40625 -1.421875 27.6875 -1.421875 
Q 18.265625 -1.421875 13.375 4.4375 
Q 8.5 10.296875 8.5 21.578125 
z
M 31.109375 56 
z
" id="DejaVuSans-117"/>
       <path d="M 32.171875 -5.078125 
Q 28.375 -14.84375 24.75 -17.8125 
Q 21.140625 -20.796875 15.09375 -20.796875 
L 7.90625 -20.796875 
L 7.90625 -13.28125 
L 13.1875 -13.28125 
Q 16.890625 -13.28125 18.9375 -11.515625 
Q 21 -9.765625 23.484375 -3.21875 
L 25.09375 0.875 
L 2.984375 54.6875 
L 12.5 54.6875 
L 29.59375 11.921875 
L 46.6875 54.6875 
L 56.203125 54.6875 
z
" id="DejaVuSans-121"/>
      </defs>
      <use xlink:href="#DejaVuSans-117"/>
      <use x="63.378906" xlink:href="#DejaVuSans-115"/>
      <use x="115.478516" xlink:href="#DejaVuSans-117"/>
      <use x="178.857422" xlink:href="#DejaVuSans-97"/>
      <use x="240.136719" xlink:href="#DejaVuSans-108"/>
      <use x="267.919922" xlink:href="#DejaVuSans-108"/>
      <use x="295.703125" xlink:href="#DejaVuSans-121"/>
     </g>
    </g>
   </g>
   <g id="text_48">
    <g clip-path="url(#p4176a67e31)">
     <!-- has -->
     <g transform="translate(218.906608 257.30483)scale(0.1 -0.1)">
      <defs>
       <path d="M 54.890625 33.015625 
L 54.890625 0 
L 45.90625 0 
L 45.90625 32.71875 
Q 45.90625 40.484375 42.875 44.328125 
Q 39.84375 48.1875 33.796875 48.1875 
Q 26.515625 48.1875 22.3125 43.546875 
Q 18.109375 38.921875 18.109375 30.90625 
L 18.109375 0 
L 9.078125 0 
L 9.078125 75.984375 
L 18.109375 75.984375 
L 18.109375 46.1875 
Q 21.34375 51.125 25.703125 53.5625 
Q 30.078125 56 35.796875 56 
Q 45.21875 56 50.046875 50.171875 
Q 54.890625 44.34375 54.890625 33.015625 
z
" id="DejaVuSans-104"/>
      </defs>
      <use xlink:href="#DejaVuSans-104"/>
      <use x="63.378906" xlink:href="#DejaVuSans-97"/>
      <use x="124.658203" xlink:href="#DejaVuSans-115"/>
     </g>
    </g>
   </g>
   <g id="text_49">
    <g clip-path="url(#p4176a67e31)">
     <!-- a -->
     <g transform="translate(275.858496 257.30483)scale(0.1 -0.1)">
      <use xlink:href="#DejaVuSans-97"/>
     </g>
    </g>
   </g>
   <g id="text_50">
    <g clip-path="url(#p4176a67e31)">
     <!-- lot -->
     <g transform="translate(323.692416 257.30483)scale(0.1 -0.1)">
      <use xlink:href="#DejaVuSans-108"/>
      <use x="27.783203" xlink:href="#DejaVuSans-111"/>
      <use x="88.964844" xlink:href="#DejaVuSans-116"/>
     </g>
    </g>
   </g>
   <g id="text_51">
    <g clip-path="url(#p4176a67e31)">
     <!-- of -->
     <g transform="translate(376.45993 257.30483)scale(0.1 -0.1)">
      <defs>
       <path d="M 37.109375 75.984375 
L 37.109375 68.5 
L 28.515625 68.5 
Q 23.6875 68.5 21.796875 66.546875 
Q 19.921875 64.59375 19.921875 59.515625 
L 19.921875 54.6875 
L 34.71875 54.6875 
L 34.71875 47.703125 
L 19.921875 47.703125 
L 19.921875 0 
L 10.890625 0 
L 10.890625 47.703125 
L 2.296875 47.703125 
L 2.296875 54.6875 
L 10.890625 54.6875 
L 10.890625 58.5 
Q 10.890625 67.625 15.140625 71.796875 
Q 19.390625 75.984375 28.609375 75.984375 
z
" id="DejaVuSans-102"/>
      </defs>
      <use xlink:href="#DejaVuSans-111"/>
      <use x="61.181641" xlink:href="#DejaVuSans-102"/>
     </g>
    </g>
   </g>
   <g id="text_52">
    <g clip-path="url(#p4176a67e31)">
     <!-- sunlight -->
     <g transform="translate(412.434475 257.30483)scale(0.1 -0.1)">
      <defs>
       <path d="M 45.40625 27.984375 
Q 45.40625 37.75 41.375 43.109375 
Q 37.359375 48.484375 30.078125 48.484375 
Q 22.859375 48.484375 18.828125 43.109375 
Q 14.796875 37.75 14.796875 27.984375 
Q 14.796875 18.265625 18.828125 12.890625 
Q 22.859375 7.515625 30.078125 7.515625 
Q 37.359375 7.515625 41.375 12.890625 
Q 45.40625 18.265625 45.40625 27.984375 
z
M 54.390625 6.78125 
Q 54.390625 -7.171875 48.1875 -13.984375 
Q 42 -20.796875 29.203125 -20.796875 
Q 24.46875 -20.796875 20.265625 -20.09375 
Q 16.0625 -19.390625 12.109375 -17.921875 
L 12.109375 -9.1875 
Q 16.0625 -11.328125 19.921875 -12.34375 
Q 23.78125 -13.375 27.78125 -13.375 
Q 36.625 -13.375 41.015625 -8.765625 
Q 45.40625 -4.15625 45.40625 5.171875 
L 45.40625 9.625 
Q 42.625 4.78125 38.28125 2.390625 
Q 33.9375 0 27.875 0 
Q 17.828125 0 11.671875 7.65625 
Q 5.515625 15.328125 5.515625 27.984375 
Q 5.515625 40.671875 11.671875 48.328125 
Q 17.828125 56 27.875 56 
Q 33.9375 56 38.28125 53.609375 
Q 42.625 51.21875 45.40625 46.390625 
L 45.40625 54.6875 
L 54.390625 54.6875 
z
" id="DejaVuSans-103"/>
      </defs>
      <use xlink:href="#DejaVuSans-115"/>
      <use x="52.099609" xlink:href="#DejaVuSans-117"/>
      <use x="115.478516" xlink:href="#DejaVuSans-110"/>
      <use x="178.857422" xlink:href="#DejaVuSans-108"/>
      <use x="206.640625" xlink:href="#DejaVuSans-105"/>
      <use x="234.423828" xlink:href="#DejaVuSans-103"/>
      <use x="297.900391" xlink:href="#DejaVuSans-104"/>
      <use x="361.279297" xlink:href="#DejaVuSans-116"/>
     </g>
    </g>
   </g>
   <g id="text_53">
    <g clip-path="url(#p4176a67e31)">
     <!-- . -->
     <g transform="translate(482.047301 257.30483)scale(0.1 -0.1)">
      <defs>
       <path d="M 10.6875 12.40625 
L 21 12.40625 
L 21 0 
L 10.6875 0 
z
" id="DejaVuSans-46"/>
      </defs>
      <use xlink:href="#DejaVuSans-46"/>
     </g>
    </g>
   </g>
  </g>
 </g>
 <defs>
  <clipPath id="p4176a67e31">
   <rect height="266.666667" width="506.666667" x="0" y="0"/>
  </clipPath>
 </defs>
</svg>
