<?xml version="1.0" encoding="utf-8" standalone="no"?>
<!DOCTYPE svg PUBLIC "-//W3C//DTD SVG 1.1//EN"
  "http://www.w3.org/Graphics/SVG/1.1/DTD/svg11.dtd">
<!-- Created with matplotlib (https://matplotlib.org/) -->
<svg height="293.333333pt" version="1.1" viewBox="0 0 557.333333 293.333333" width="557.333333pt" xmlns="http://www.w3.org/2000/svg" xmlns:xlink="http://www.w3.org/1999/xlink">
 <metadata>
  <rdf:RDF xmlns:cc="http://creativecommons.org/ns#" xmlns:dc="http://purl.org/dc/elements/1.1/" xmlns:rdf="http://www.w3.org/1999/02/22-rdf-syntax-ns#">
   <cc:Work>
    <dc:type rdf:resource="http://purl.org/dc/dcmitype/StillImage"/>
    <dc:date>2021-05-19T11:42:06.812939</dc:date>
    <dc:format>image/svg+xml</dc:format>
    <dc:creator>
     <cc:Agent>
      <dc:title>Matplotlib v3.3.4, https://matplotlib.org/</dc:title>
     </cc:Agent>
    </dc:creator>
   </cc:Work>
  </rdf:RDF>
 </metadata>
 <defs>
  <style type="text/css">*{stroke-linecap:butt;stroke-linejoin:round;}</style>
 </defs>
 <g id="figure_1">
  <g id="patch_1">
   <path d="M 0 293.333333 
L 557.333333 293.333333 
L 557.333333 0 
L 0 0 
z
" style="fill:#ffffff;"/>
  </g>
  <g id="axes_1">
   <g id="LineCollection_1">
    <path clip-path="url(#pc55fea0a21)" d="M 205.079365 13.333333 
L 76 270.370935 
" style="fill:none;stroke:#000000;"/>
    <path clip-path="url(#pc55fea0a21)" d="M 205.079365 13.333333 
L 177.333333 260.741871 
" style="fill:none;stroke:#000000;"/>
    <path clip-path="url(#pc55fea0a21)" d="M 205.079365 13.333333 
L 422.222222 250.978855 
" style="fill:none;stroke:#000000;"/>
    <path clip-path="url(#pc55fea0a21)" d="M 205.079365 13.333333 
L 329.333333 270.370935 
" style="fill:none;stroke:#000000;"/>
    <path clip-path="url(#pc55fea0a21)" d="M 205.079365 13.333333 
L 380 270.370935 
" style="fill:none;stroke:#000000;"/>
    <path clip-path="url(#pc55fea0a21)" d="M 205.079365 13.333333 
L 25.333333 31.186601 
" style="fill:none;stroke:#000000;"/>
    <path clip-path="url(#pc55fea0a21)" d="M 205.079365 13.333333 
L 25.333333 270.370935 
" style="fill:none;stroke:#000000;stroke-dasharray:3.7,1.6;stroke-dashoffset:0;"/>
    <path clip-path="url(#pc55fea0a21)" d="M 76 270.370935 
L 76 280 
" style="fill:none;stroke:#000000;"/>
    <path clip-path="url(#pc55fea0a21)" d="M 177.333333 260.741871 
L 126.666667 270.370935 
" style="fill:none;stroke:#000000;"/>
    <path clip-path="url(#pc55fea0a21)" d="M 177.333333 260.741871 
L 177.333333 270.370935 
" style="fill:none;stroke:#000000;"/>
    <path clip-path="url(#pc55fea0a21)" d="M 177.333333 260.741871 
L 228 270.370935 
" style="fill:none;stroke:#000000;"/>
    <path clip-path="url(#pc55fea0a21)" d="M 422.222222 250.978855 
L 278.666667 270.370935 
" style="fill:none;stroke:#000000;"/>
    <path clip-path="url(#pc55fea0a21)" d="M 422.222222 250.978855 
L 456 260.741871 
" style="fill:none;stroke:#000000;"/>
    <path clip-path="url(#pc55fea0a21)" d="M 422.222222 250.978855 
L 532 270.370935 
" style="fill:none;stroke:#000000;"/>
    <path clip-path="url(#pc55fea0a21)" d="M 329.333333 270.370935 
L 329.333333 280 
" style="fill:none;stroke:#000000;"/>
    <path clip-path="url(#pc55fea0a21)" d="M 380 270.370935 
L 380 280 
" style="fill:none;stroke:#000000;"/>
    <path clip-path="url(#pc55fea0a21)" d="M 25.333333 31.186601 
L 25.333333 48.30355 
" style="fill:none;stroke:#000000;"/>
    <path clip-path="url(#pc55fea0a21)" d="M 126.666667 270.370935 
L 126.666667 280 
" style="fill:none;stroke:#000000;"/>
    <path clip-path="url(#pc55fea0a21)" d="M 177.333333 270.370935 
L 177.333333 280 
" style="fill:none;stroke:#000000;"/>
    <path clip-path="url(#pc55fea0a21)" d="M 228 270.370935 
L 228 280 
" style="fill:none;stroke:#000000;"/>
    <path clip-path="url(#pc55fea0a21)" d="M 278.666667 270.370935 
L 278.666667 280 
" style="fill:none;stroke:#000000;"/>
    <path clip-path="url(#pc55fea0a21)" d="M 456 260.741871 
L 430.666667 270.370935 
" style="fill:none;stroke:#000000;"/>
    <path clip-path="url(#pc55fea0a21)" d="M 456 260.741871 
L 481.333333 270.370935 
" style="fill:none;stroke:#000000;"/>
    <path clip-path="url(#pc55fea0a21)" d="M 532 270.370935 
L 532 280 
" style="fill:none;stroke:#000000;"/>
    <path clip-path="url(#pc55fea0a21)" d="M 25.333333 48.30355 
L 25.333333 64.72643 
" style="fill:none;stroke:#000000;"/>
    <path clip-path="url(#pc55fea0a21)" d="M 430.666667 270.370935 
L 430.666667 280 
" style="fill:none;stroke:#000000;"/>
    <path clip-path="url(#pc55fea0a21)" d="M 481.333333 270.370935 
L 481.333333 280 
" style="fill:none;stroke:#000000;"/>
    <path clip-path="url(#pc55fea0a21)" d="M 25.333333 64.72643 
L 25.333333 80.495169 
" style="fill:none;stroke:#000000;"/>
    <path clip-path="url(#pc55fea0a21)" d="M 25.333333 80.495169 
L 25.333333 95.64756 
" style="fill:none;stroke:#000000;"/>
    <path clip-path="url(#pc55fea0a21)" d="M 25.333333 95.64756 
L 25.333333 110.219435 
" style="fill:none;stroke:#000000;"/>
    <path clip-path="url(#pc55fea0a21)" d="M 25.333333 110.219435 
L 25.333333 124.244846 
" style="fill:none;stroke:#000000;"/>
    <path clip-path="url(#pc55fea0a21)" d="M 25.333333 124.244846 
L 25.333333 137.756225 
" style="fill:none;stroke:#000000;"/>
    <path clip-path="url(#pc55fea0a21)" d="M 25.333333 137.756225 
L 25.333333 150.784564 
" style="fill:none;stroke:#000000;"/>
    <path clip-path="url(#pc55fea0a21)" d="M 25.333333 150.784564 
L 25.333333 163.359589 
" style="fill:none;stroke:#000000;"/>
    <path clip-path="url(#pc55fea0a21)" d="M 25.333333 163.359589 
L 25.333333 175.509954 
" style="fill:none;stroke:#000000;"/>
    <path clip-path="url(#pc55fea0a21)" d="M 25.333333 175.509954 
L 25.333333 187.263448 
" style="fill:none;stroke:#000000;"/>
    <path clip-path="url(#pc55fea0a21)" d="M 25.333333 187.263448 
L 25.333333 198.647244 
" style="fill:none;stroke:#000000;"/>
    <path clip-path="url(#pc55fea0a21)" d="M 25.333333 198.647244 
L 25.333333 209.688204 
" style="fill:none;stroke:#000000;"/>
    <path clip-path="url(#pc55fea0a21)" d="M 25.333333 209.688204 
L 25.333333 220.413282 
" style="fill:none;stroke:#000000;"/>
    <path clip-path="url(#pc55fea0a21)" d="M 25.333333 220.413282 
L 25.333333 230.850099 
" style="fill:none;stroke:#000000;"/>
    <path clip-path="url(#pc55fea0a21)" d="M 25.333333 230.850099 
L 25.333333 241.027845 
" style="fill:none;stroke:#000000;"/>
    <path clip-path="url(#pc55fea0a21)" d="M 25.333333 241.027845 
L 25.333333 250.978855 
" style="fill:none;stroke:#000000;"/>
    <path clip-path="url(#pc55fea0a21)" d="M 25.333333 250.978855 
L 25.333333 260.741871 
" style="fill:none;stroke:#000000;"/>
    <path clip-path="url(#pc55fea0a21)" d="M 25.333333 260.741871 
L 25.333333 270.370935 
" style="fill:none;stroke:#000000;"/>
    <path clip-path="url(#pc55fea0a21)" d="M 25.333333 270.370935 
L 25.333333 280 
" style="fill:none;stroke:#000000;"/>
   </g>
   <g id="text_1">
    <g id="patch_2">
     <path clip-path="url(#pc55fea0a21)" d="M 145.111505 146.722441 
L 147.176418 142.610551 
Q 148.253471 140.4658 146.10872 139.388747 
L 139.189664 135.91413 
Q 137.044913 134.837077 135.96786 136.981828 
L 133.902947 141.093718 
Q 132.825894 143.238469 134.970645 144.315521 
L 141.889702 147.790139 
Q 144.034453 148.867192 145.111505 146.722441 
z
" style="fill:#ffffff;stroke:#ffffff;stroke-linejoin:miter;"/>
    </g>
    <g clip-path="url(#pc55fea0a21)">
     <!-- F -->
     <g transform="translate(141.47995 144.898744)rotate(-63.335073)scale(0.08 -0.08)">
      <defs>
       <path d="M 9.8125 72.90625 
L 51.703125 72.90625 
L 51.703125 64.59375 
L 19.671875 64.59375 
L 19.671875 43.109375 
L 48.578125 43.109375 
L 48.578125 34.8125 
L 19.671875 34.8125 
L 19.671875 0 
L 9.8125 0 
z
" id="DejaVuSans-70"/>
      </defs>
      <use xlink:href="#DejaVuSans-70"/>
     </g>
    </g>
   </g>
   <g id="text_2">
    <g id="patch_3">
     <path clip-path="url(#pc55fea0a21)" d="M 197.133581 140.455724 
L 197.743481 135.017316 
Q 198.010956 132.632268 195.625907 132.364792 
L 187.931641 131.501906 
Q 185.546592 131.234431 185.279117 133.61948 
L 184.669218 139.057888 
Q 184.401743 141.442936 186.786791 141.710412 
L 194.481058 142.573298 
Q 196.866106 142.840773 197.133581 140.455724 
z
" style="fill:#ffffff;stroke:#ffffff;stroke-linejoin:miter;"/>
    </g>
    <g clip-path="url(#pc55fea0a21)">
     <!-- A -->
     <g transform="translate(193.095148 140.002827)rotate(-83.601208)scale(0.08 -0.08)">
      <defs>
       <path d="M 34.1875 63.1875 
L 20.796875 26.90625 
L 47.609375 26.90625 
z
M 28.609375 72.90625 
L 39.796875 72.90625 
L 67.578125 0 
L 57.328125 0 
L 50.6875 18.703125 
L 17.828125 18.703125 
L 11.1875 0 
L 0.78125 0 
z
" id="DejaVuSans-65"/>
      </defs>
      <use xlink:href="#DejaVuSans-65"/>
     </g>
    </g>
   </g>
   <g id="text_3">
    <g id="patch_4">
     <path clip-path="url(#pc55fea0a21)" d="M 307.30822 134.511674 
L 310.73406 138.260983 
Q 312.352966 140.032746 314.124729 138.41384 
L 319.84051 133.191183 
Q 321.612273 131.572277 319.993368 129.800514 
L 316.567527 126.051205 
Q 314.948621 124.279442 313.176858 125.898348 
L 307.461077 131.121005 
Q 305.689314 132.739911 307.30822 134.511674 
z
" style="fill:#ffffff;stroke:#ffffff;stroke-linejoin:miter;"/>
    </g>
    <g clip-path="url(#pc55fea0a21)">
     <!-- S -->
     <g transform="translate(310.30822 131.770496)rotate(-312.418753)scale(0.08 -0.08)">
      <defs>
       <path d="M 53.515625 70.515625 
L 53.515625 60.890625 
Q 47.90625 63.578125 42.921875 64.890625 
Q 37.9375 66.21875 33.296875 66.21875 
Q 25.25 66.21875 20.875 63.09375 
Q 16.5 59.96875 16.5 54.203125 
Q 16.5 49.359375 19.40625 46.890625 
Q 22.3125 44.4375 30.421875 42.921875 
L 36.375 41.703125 
Q 47.40625 39.59375 52.65625 34.296875 
Q 57.90625 29 57.90625 20.125 
Q 57.90625 9.515625 50.796875 4.046875 
Q 43.703125 -1.421875 29.984375 -1.421875 
Q 24.8125 -1.421875 18.96875 -0.25 
Q 13.140625 0.921875 6.890625 3.21875 
L 6.890625 13.375 
Q 12.890625 10.015625 18.65625 8.296875 
Q 24.421875 6.59375 29.984375 6.59375 
Q 38.421875 6.59375 43.015625 9.90625 
Q 47.609375 13.234375 47.609375 19.390625 
Q 47.609375 24.75 44.3125 27.78125 
Q 41.015625 30.8125 33.5 32.328125 
L 27.484375 33.5 
Q 16.453125 35.6875 11.515625 40.375 
Q 6.59375 45.0625 6.59375 53.421875 
Q 6.59375 63.09375 13.40625 68.65625 
Q 20.21875 74.21875 32.171875 74.21875 
Q 37.3125 74.21875 42.625 73.28125 
Q 47.953125 72.359375 53.515625 70.515625 
z
" id="DejaVuSans-83"/>
      </defs>
      <use xlink:href="#DejaVuSans-83"/>
     </g>
    </g>
   </g>
   <g id="text_4">
    <g id="patch_5">
     <path clip-path="url(#pc55fea0a21)" d="M 260.350553 142.079192 
L 262.769848 147.083861 
Q 263.814383 149.244635 265.975158 148.2001 
L 272.945906 144.830386 
Q 275.106681 143.785851 274.062146 141.625077 
L 271.64285 136.620408 
Q 270.598315 134.459633 268.43754 135.504169 
L 261.466792 138.873882 
Q 259.306017 139.918417 260.350553 142.079192 
z
" style="fill:#ffffff;stroke:#ffffff;stroke-linejoin:miter;"/>
    </g>
    <g clip-path="url(#pc55fea0a21)">
     <!-- R -->
     <g transform="translate(264.009239 140.310555)rotate(-295.799483)scale(0.08 -0.08)">
      <defs>
       <path d="M 44.390625 34.1875 
Q 47.5625 33.109375 50.5625 29.59375 
Q 53.5625 26.078125 56.59375 19.921875 
L 66.609375 0 
L 56 0 
L 46.6875 18.703125 
Q 43.0625 26.03125 39.671875 28.421875 
Q 36.28125 30.8125 30.421875 30.8125 
L 19.671875 30.8125 
L 19.671875 0 
L 9.8125 0 
L 9.8125 72.90625 
L 32.078125 72.90625 
Q 44.578125 72.90625 50.734375 67.671875 
Q 56.890625 62.453125 56.890625 51.90625 
Q 56.890625 45.015625 53.6875 40.46875 
Q 50.484375 35.9375 44.390625 34.1875 
z
M 19.671875 64.796875 
L 19.671875 38.921875 
L 32.078125 38.921875 
Q 39.203125 38.921875 42.84375 42.21875 
Q 46.484375 45.515625 46.484375 51.90625 
Q 46.484375 58.296875 42.84375 61.546875 
Q 39.203125 64.796875 32.078125 64.796875 
z
" id="DejaVuSans-82"/>
      </defs>
      <use xlink:href="#DejaVuSans-82"/>
     </g>
    </g>
   </g>
   <g id="text_5">
    <g id="patch_6">
     <path clip-path="url(#pc55fea0a21)" d="M 285.783655 143.071239 
L 288.926519 147.689528 
Q 290.276776 149.673667 292.260914 148.32341 
L 298.661828 143.967425 
Q 300.645967 142.617168 299.29571 140.63303 
L 296.152846 136.01474 
Q 294.80259 134.030601 292.818451 135.380858 
L 286.417537 139.736843 
Q 284.433398 141.0871 285.783655 143.071239 
z
" style="fill:#ffffff;stroke:#ffffff;stroke-linejoin:miter;"/>
    </g>
    <g clip-path="url(#pc55fea0a21)">
     <!-- C -->
     <g transform="translate(289.143257 140.784945)rotate(-304.236285)scale(0.08 -0.08)">
      <defs>
       <path d="M 64.40625 67.28125 
L 64.40625 56.890625 
Q 59.421875 61.53125 53.78125 63.8125 
Q 48.140625 66.109375 41.796875 66.109375 
Q 29.296875 66.109375 22.65625 58.46875 
Q 16.015625 50.828125 16.015625 36.375 
Q 16.015625 21.96875 22.65625 14.328125 
Q 29.296875 6.6875 41.796875 6.6875 
Q 48.140625 6.6875 53.78125 8.984375 
Q 59.421875 11.28125 64.40625 15.921875 
L 64.40625 5.609375 
Q 59.234375 2.09375 53.4375 0.328125 
Q 47.65625 -1.421875 41.21875 -1.421875 
Q 24.65625 -1.421875 15.125 8.703125 
Q 5.609375 18.84375 5.609375 36.375 
Q 5.609375 53.953125 15.125 64.078125 
Q 24.65625 74.21875 41.21875 74.21875 
Q 47.75 74.21875 53.53125 72.484375 
Q 59.328125 70.75 64.40625 67.28125 
z
" id="DejaVuSans-67"/>
      </defs>
      <use xlink:href="#DejaVuSans-67"/>
     </g>
    </g>
   </g>
   <g id="text_6">
    <g id="patch_7">
     <path clip-path="url(#pc55fea0a21)" d="M 113.426126 28.738896 
L 118.226256 28.262123 
Q 120.614504 28.024911 120.377292 25.636662 
L 119.612034 17.932074 
Q 119.374821 15.543825 116.986573 15.781038 
L 112.186442 16.257811 
Q 109.798194 16.495024 110.035407 18.883272 
L 110.800665 26.587861 
Q 111.037877 28.976109 113.426126 28.738896 
z
" style="fill:#ffffff;stroke:#ffffff;stroke-linejoin:miter;"/>
    </g>
    <g clip-path="url(#pc55fea0a21)">
     <!-- P -->
     <g transform="translate(113.02447 24.695044)rotate(-5.672297)scale(0.08 -0.08)">
      <defs>
       <path d="M 19.671875 64.796875 
L 19.671875 37.40625 
L 32.078125 37.40625 
Q 38.96875 37.40625 42.71875 40.96875 
Q 46.484375 44.53125 46.484375 51.125 
Q 46.484375 57.671875 42.71875 61.234375 
Q 38.96875 64.796875 32.078125 64.796875 
z
M 9.8125 72.90625 
L 32.078125 72.90625 
Q 44.34375 72.90625 50.609375 67.359375 
Q 56.890625 61.8125 56.890625 51.125 
Q 56.890625 40.328125 50.609375 34.8125 
Q 44.34375 29.296875 32.078125 29.296875 
L 19.671875 29.296875 
L 19.671875 0 
L 9.8125 0 
z
" id="DejaVuSans-80"/>
      </defs>
      <use xlink:href="#DejaVuSans-80"/>
     </g>
    </g>
   </g>
   <g id="text_7">
    <g id="patch_8">
     <path clip-path="url(#pc55fea0a21)" d="M 118.77757 147.688402 
L 121.913731 143.203678 
Q 123.289115 141.236874 121.32231 139.86149 
L 114.977317 135.424445 
Q 113.010512 134.049062 111.635129 136.015866 
L 108.498967 140.50059 
Q 107.123584 142.467395 109.090388 143.842778 
L 115.435382 148.279823 
Q 117.402186 149.655207 118.77757 147.688402 
z
" style="fill:#ffffff;stroke:#ffffff;stroke-linejoin:miter;"/>
    </g>
    <g clip-path="url(#pc55fea0a21)">
     <!-- A -->
     <g transform="translate(115.447319 145.359563)rotate(-55.034961)scale(0.08 -0.08)">
      <use xlink:href="#DejaVuSans-65"/>
     </g>
    </g>
   </g>
   <g id="text_8">
    <g id="patch_9">
     <path clip-path="url(#pc55fea0a21)" d="M 69.72875 258.281718 
L 69.72875 292.089218 
Q 69.72875 294.489218 72.12875 294.489218 
L 79.87125 294.489218 
Q 82.27125 294.489218 82.27125 292.089218 
L 82.27125 258.281718 
Q 82.27125 255.881718 79.87125 255.881718 
L 72.12875 255.881718 
Q 69.72875 255.881718 69.72875 258.281718 
z
" style="fill:#ffffff;stroke:#ffffff;stroke-linejoin:miter;"/>
    </g>
    <g clip-path="url(#pc55fea0a21)">
     <!-- Terminal -->
     <g transform="translate(73.7925 258.281718)rotate(-270)scale(0.08 -0.08)">
      <defs>
       <path d="M -0.296875 72.90625 
L 61.375 72.90625 
L 61.375 64.59375 
L 35.5 64.59375 
L 35.5 0 
L 25.59375 0 
L 25.59375 64.59375 
L -0.296875 64.59375 
z
" id="DejaVuSans-84"/>
       <path d="M 56.203125 29.59375 
L 56.203125 25.203125 
L 14.890625 25.203125 
Q 15.484375 15.921875 20.484375 11.0625 
Q 25.484375 6.203125 34.421875 6.203125 
Q 39.59375 6.203125 44.453125 7.46875 
Q 49.3125 8.734375 54.109375 11.28125 
L 54.109375 2.78125 
Q 49.265625 0.734375 44.1875 -0.34375 
Q 39.109375 -1.421875 33.890625 -1.421875 
Q 20.796875 -1.421875 13.15625 6.1875 
Q 5.515625 13.8125 5.515625 26.8125 
Q 5.515625 40.234375 12.765625 48.109375 
Q 20.015625 56 32.328125 56 
Q 43.359375 56 49.78125 48.890625 
Q 56.203125 41.796875 56.203125 29.59375 
z
M 47.21875 32.234375 
Q 47.125 39.59375 43.09375 43.984375 
Q 39.0625 48.390625 32.421875 48.390625 
Q 24.90625 48.390625 20.390625 44.140625 
Q 15.875 39.890625 15.1875 32.171875 
z
" id="DejaVuSans-101"/>
       <path d="M 41.109375 46.296875 
Q 39.59375 47.171875 37.8125 47.578125 
Q 36.03125 48 33.890625 48 
Q 26.265625 48 22.1875 43.046875 
Q 18.109375 38.09375 18.109375 28.8125 
L 18.109375 0 
L 9.078125 0 
L 9.078125 54.6875 
L 18.109375 54.6875 
L 18.109375 46.1875 
Q 20.953125 51.171875 25.484375 53.578125 
Q 30.03125 56 36.53125 56 
Q 37.453125 56 38.578125 55.875 
Q 39.703125 55.765625 41.0625 55.515625 
z
" id="DejaVuSans-114"/>
       <path d="M 52 44.1875 
Q 55.375 50.25 60.0625 53.125 
Q 64.75 56 71.09375 56 
Q 79.640625 56 84.28125 50.015625 
Q 88.921875 44.046875 88.921875 33.015625 
L 88.921875 0 
L 79.890625 0 
L 79.890625 32.71875 
Q 79.890625 40.578125 77.09375 44.375 
Q 74.3125 48.1875 68.609375 48.1875 
Q 61.625 48.1875 57.5625 43.546875 
Q 53.515625 38.921875 53.515625 30.90625 
L 53.515625 0 
L 44.484375 0 
L 44.484375 32.71875 
Q 44.484375 40.625 41.703125 44.40625 
Q 38.921875 48.1875 33.109375 48.1875 
Q 26.21875 48.1875 22.15625 43.53125 
Q 18.109375 38.875 18.109375 30.90625 
L 18.109375 0 
L 9.078125 0 
L 9.078125 54.6875 
L 18.109375 54.6875 
L 18.109375 46.1875 
Q 21.1875 51.21875 25.484375 53.609375 
Q 29.78125 56 35.6875 56 
Q 41.65625 56 45.828125 52.96875 
Q 50 49.953125 52 44.1875 
z
" id="DejaVuSans-109"/>
       <path d="M 9.421875 54.6875 
L 18.40625 54.6875 
L 18.40625 0 
L 9.421875 0 
z
M 9.421875 75.984375 
L 18.40625 75.984375 
L 18.40625 64.59375 
L 9.421875 64.59375 
z
" id="DejaVuSans-105"/>
       <path d="M 54.890625 33.015625 
L 54.890625 0 
L 45.90625 0 
L 45.90625 32.71875 
Q 45.90625 40.484375 42.875 44.328125 
Q 39.84375 48.1875 33.796875 48.1875 
Q 26.515625 48.1875 22.3125 43.546875 
Q 18.109375 38.921875 18.109375 30.90625 
L 18.109375 0 
L 9.078125 0 
L 9.078125 54.6875 
L 18.109375 54.6875 
L 18.109375 46.1875 
Q 21.34375 51.125 25.703125 53.5625 
Q 30.078125 56 35.796875 56 
Q 45.21875 56 50.046875 50.171875 
Q 54.890625 44.34375 54.890625 33.015625 
z
" id="DejaVuSans-110"/>
       <path d="M 34.28125 27.484375 
Q 23.390625 27.484375 19.1875 25 
Q 14.984375 22.515625 14.984375 16.5 
Q 14.984375 11.71875 18.140625 8.90625 
Q 21.296875 6.109375 26.703125 6.109375 
Q 34.1875 6.109375 38.703125 11.40625 
Q 43.21875 16.703125 43.21875 25.484375 
L 43.21875 27.484375 
z
M 52.203125 31.203125 
L 52.203125 0 
L 43.21875 0 
L 43.21875 8.296875 
Q 40.140625 3.328125 35.546875 0.953125 
Q 30.953125 -1.421875 24.3125 -1.421875 
Q 15.921875 -1.421875 10.953125 3.296875 
Q 6 8.015625 6 15.921875 
Q 6 25.140625 12.171875 29.828125 
Q 18.359375 34.515625 30.609375 34.515625 
L 43.21875 34.515625 
L 43.21875 35.40625 
Q 43.21875 41.609375 39.140625 45 
Q 35.0625 48.390625 27.6875 48.390625 
Q 23 48.390625 18.546875 47.265625 
Q 14.109375 46.140625 10.015625 43.890625 
L 10.015625 52.203125 
Q 14.9375 54.109375 19.578125 55.046875 
Q 24.21875 56 28.609375 56 
Q 40.484375 56 46.34375 49.84375 
Q 52.203125 43.703125 52.203125 31.203125 
z
" id="DejaVuSans-97"/>
       <path d="M 9.421875 75.984375 
L 18.40625 75.984375 
L 18.40625 0 
L 9.421875 0 
z
" id="DejaVuSans-108"/>
      </defs>
      <use xlink:href="#DejaVuSans-84"/>
      <use x="44.083984" xlink:href="#DejaVuSans-101"/>
      <use x="105.607422" xlink:href="#DejaVuSans-114"/>
      <use x="144.970703" xlink:href="#DejaVuSans-109"/>
      <use x="242.382812" xlink:href="#DejaVuSans-105"/>
      <use x="270.166016" xlink:href="#DejaVuSans-110"/>
      <use x="333.544922" xlink:href="#DejaVuSans-97"/>
      <use x="394.824219" xlink:href="#DejaVuSans-108"/>
     </g>
    </g>
   </g>
   <g id="text_9">
    <g id="patch_10">
     <path clip-path="url(#pc55fea0a21)" d="M 150.687821 272.189277 
L 155.653933 271.245481 
Q 158.011731 270.797387 157.563638 268.439589 
L 156.118071 260.833234 
Q 155.669977 258.475436 153.312179 258.923529 
L 148.346067 259.867325 
Q 145.988269 260.315419 146.436362 262.673217 
L 147.881929 270.279572 
Q 148.330023 272.63737 150.687821 272.189277 
z
" style="fill:#ffffff;stroke:#ffffff;stroke-linejoin:miter;"/>
    </g>
    <g clip-path="url(#pc55fea0a21)">
     <!-- E -->
     <g transform="translate(149.929096 268.196984)rotate(-10.760584)scale(0.08 -0.08)">
      <defs>
       <path d="M 9.8125 72.90625 
L 55.90625 72.90625 
L 55.90625 64.59375 
L 19.671875 64.59375 
L 19.671875 43.015625 
L 54.390625 43.015625 
L 54.390625 34.71875 
L 19.671875 34.71875 
L 19.671875 8.296875 
L 56.78125 8.296875 
L 56.78125 0 
L 9.8125 0 
z
" id="DejaVuSans-69"/>
      </defs>
      <use xlink:href="#DejaVuSans-69"/>
     </g>
    </g>
   </g>
   <g id="text_10">
    <g id="patch_11">
     <path clip-path="url(#pc55fea0a21)" d="M 171.062083 263.028903 
L 171.062083 268.083903 
Q 171.062083 270.483903 173.462083 270.483903 
L 181.204583 270.483903 
Q 183.604583 270.483903 183.604583 268.083903 
L 183.604583 263.028903 
Q 183.604583 260.628903 181.204583 260.628903 
L 173.462083 260.628903 
Q 171.062083 260.628903 171.062083 263.028903 
z
" style="fill:#ffffff;stroke:#ffffff;stroke-linejoin:miter;"/>
    </g>
    <g clip-path="url(#pc55fea0a21)">
     <!-- E -->
     <g transform="translate(175.125833 263.028903)rotate(-270)scale(0.08 -0.08)">
      <use xlink:href="#DejaVuSans-69"/>
     </g>
    </g>
   </g>
   <g id="text_11">
    <g id="patch_12">
     <path clip-path="url(#pc55fea0a21)" d="M 198.751779 271.195887 
L 204.2398 272.238871 
Q 206.597598 272.686964 207.045692 270.329166 
L 208.491259 262.72281 
Q 208.939352 260.365012 206.581554 259.916919 
L 201.093533 258.873935 
Q 198.735735 258.425842 198.287642 260.78364 
L 196.842074 268.389995 
Q 196.393981 270.747794 198.751779 271.195887 
z
" style="fill:#ffffff;stroke:#ffffff;stroke-linejoin:miter;"/>
    </g>
    <g clip-path="url(#pc55fea0a21)">
     <!-- C -->
     <g transform="translate(199.510504 267.203594)rotate(-349.239416)scale(0.08 -0.08)">
      <use xlink:href="#DejaVuSans-67"/>
     </g>
    </g>
   </g>
   <g id="text_12">
    <g id="patch_13">
     <path clip-path="url(#pc55fea0a21)" d="M 348.515981 267.263609 
L 354.05195 266.515788 
Q 356.430348 266.194504 356.109064 263.816106 
L 355.072589 256.143295 
Q 354.751305 253.764897 352.372907 254.086181 
L 346.836939 254.834003 
Q 344.458541 255.155287 344.779824 257.533684 
L 345.8163 265.206495 
Q 346.137583 267.584893 348.515981 267.263609 
z
" style="fill:#ffffff;stroke:#ffffff;stroke-linejoin:miter;"/>
    </g>
    <g clip-path="url(#pc55fea0a21)">
     <!-- C -->
     <g transform="translate(347.971974 263.236437)rotate(-7.693183)scale(0.08 -0.08)">
      <use xlink:href="#DejaVuSans-67"/>
     </g>
    </g>
   </g>
   <g id="text_13">
    <g id="patch_14">
     <path clip-path="url(#pc55fea0a21)" d="M 434.741118 261.125228 
L 439.99842 262.644781 
Q 442.304043 263.31119 442.970452 261.005567 
L 445.120317 253.567531 
Q 445.786727 251.261907 443.481104 250.595498 
L 438.223803 249.075945 
Q 435.918179 248.409535 435.25177 250.715159 
L 433.101905 258.153195 
Q 432.435495 260.458818 434.741118 261.125228 
z
" style="fill:#ffffff;stroke:#ffffff;stroke-linejoin:miter;"/>
    </g>
    <g clip-path="url(#pc55fea0a21)">
     <!-- A -->
     <g transform="translate(435.869503 257.221279)rotate(-343.878768)scale(0.08 -0.08)">
      <use xlink:href="#DejaVuSans-65"/>
     </g>
    </g>
   </g>
   <g id="text_14">
    <g id="patch_15">
     <path clip-path="url(#pc55fea0a21)" d="M 473.137328 266.341277 
L 478.90306 267.359785 
Q 481.266469 267.777277 481.683961 265.413869 
L 483.03081 257.789415 
Q 483.448303 255.426006 481.084894 255.008513 
L 475.319162 253.990005 
Q 472.955753 253.572513 472.538261 255.935921 
L 471.191412 263.560376 
Q 470.77392 265.923784 473.137328 266.341277 
z
" style="fill:#ffffff;stroke:#ffffff;stroke-linejoin:miter;"/>
    </g>
    <g clip-path="url(#pc55fea0a21)">
     <!-- U -->
     <g transform="translate(473.844239 262.339485)rotate(-349.982135)scale(0.08 -0.08)">
      <defs>
       <path d="M 8.6875 72.90625 
L 18.609375 72.90625 
L 18.609375 28.609375 
Q 18.609375 16.890625 22.84375 11.734375 
Q 27.09375 6.59375 36.625 6.59375 
Q 46.09375 6.59375 50.34375 11.734375 
Q 54.59375 16.890625 54.59375 28.609375 
L 54.59375 72.90625 
L 64.5 72.90625 
L 64.5 27.390625 
Q 64.5 13.140625 57.4375 5.859375 
Q 50.390625 -1.421875 36.625 -1.421875 
Q 22.796875 -1.421875 15.734375 5.859375 
Q 8.6875 13.140625 8.6875 27.390625 
z
" id="DejaVuSans-85"/>
      </defs>
      <use xlink:href="#DejaVuSans-85"/>
     </g>
    </g>
   </g>
   <g id="text_15">
    <g id="patch_16">
     <path clip-path="url(#pc55fea0a21)" d="M 323.062083 258.281718 
L 323.062083 292.089218 
Q 323.062083 294.489218 325.462083 294.489218 
L 333.204583 294.489218 
Q 335.604583 294.489218 335.604583 292.089218 
L 335.604583 258.281718 
Q 335.604583 255.881718 333.204583 255.881718 
L 325.462083 255.881718 
Q 323.062083 255.881718 323.062083 258.281718 
z
" style="fill:#ffffff;stroke:#ffffff;stroke-linejoin:miter;"/>
    </g>
    <g clip-path="url(#pc55fea0a21)">
     <!-- Terminal -->
     <g transform="translate(327.125833 258.281718)rotate(-270)scale(0.08 -0.08)">
      <use xlink:href="#DejaVuSans-84"/>
      <use x="44.083984" xlink:href="#DejaVuSans-101"/>
      <use x="105.607422" xlink:href="#DejaVuSans-114"/>
      <use x="144.970703" xlink:href="#DejaVuSans-109"/>
      <use x="242.382812" xlink:href="#DejaVuSans-105"/>
      <use x="270.166016" xlink:href="#DejaVuSans-110"/>
      <use x="333.544922" xlink:href="#DejaVuSans-97"/>
      <use x="394.824219" xlink:href="#DejaVuSans-108"/>
     </g>
    </g>
   </g>
   <g id="text_16">
    <g id="patch_17">
     <path clip-path="url(#pc55fea0a21)" d="M 373.72875 258.281718 
L 373.72875 292.089218 
Q 373.72875 294.489218 376.12875 294.489218 
L 383.87125 294.489218 
Q 386.27125 294.489218 386.27125 292.089218 
L 386.27125 258.281718 
Q 386.27125 255.881718 383.87125 255.881718 
L 376.12875 255.881718 
Q 373.72875 255.881718 373.72875 258.281718 
z
" style="fill:#ffffff;stroke:#ffffff;stroke-linejoin:miter;"/>
    </g>
    <g clip-path="url(#pc55fea0a21)">
     <!-- Terminal -->
     <g transform="translate(377.7925 258.281718)rotate(-270)scale(0.08 -0.08)">
      <use xlink:href="#DejaVuSans-84"/>
      <use x="44.083984" xlink:href="#DejaVuSans-101"/>
      <use x="105.607422" xlink:href="#DejaVuSans-114"/>
      <use x="144.970703" xlink:href="#DejaVuSans-109"/>
      <use x="242.382812" xlink:href="#DejaVuSans-105"/>
      <use x="270.166016" xlink:href="#DejaVuSans-110"/>
      <use x="333.544922" xlink:href="#DejaVuSans-97"/>
      <use x="394.824219" xlink:href="#DejaVuSans-108"/>
     </g>
    </g>
   </g>
   <g id="text_17">
    <g id="patch_18">
     <path clip-path="url(#pc55fea0a21)" d="M 19.062083 37.333201 
L 19.062083 42.156951 
Q 19.062083 44.556951 21.462083 44.556951 
L 29.204583 44.556951 
Q 31.604583 44.556951 31.604583 42.156951 
L 31.604583 37.333201 
Q 31.604583 34.933201 29.204583 34.933201 
L 21.462083 34.933201 
Q 19.062083 34.933201 19.062083 37.333201 
z
" style="fill:#ffffff;stroke:#ffffff;stroke-linejoin:miter;"/>
    </g>
    <g clip-path="url(#pc55fea0a21)">
     <!-- P -->
     <g transform="translate(23.125833 37.333201)rotate(-270)scale(0.08 -0.08)">
      <use xlink:href="#DejaVuSans-80"/>
     </g>
    </g>
   </g>
   <g id="text_18">
    <g id="patch_19">
     <path clip-path="url(#pc55fea0a21)" d="M 120.395417 258.281718 
L 120.395417 292.089218 
Q 120.395417 294.489218 122.795417 294.489218 
L 130.537917 294.489218 
Q 132.937917 294.489218 132.937917 292.089218 
L 132.937917 258.281718 
Q 132.937917 255.881718 130.537917 255.881718 
L 122.795417 255.881718 
Q 120.395417 255.881718 120.395417 258.281718 
z
" style="fill:#ffffff;stroke:#ffffff;stroke-linejoin:miter;"/>
    </g>
    <g clip-path="url(#pc55fea0a21)">
     <!-- Terminal -->
     <g transform="translate(124.459167 258.281718)rotate(-270)scale(0.08 -0.08)">
      <use xlink:href="#DejaVuSans-84"/>
      <use x="44.083984" xlink:href="#DejaVuSans-101"/>
      <use x="105.607422" xlink:href="#DejaVuSans-114"/>
      <use x="144.970703" xlink:href="#DejaVuSans-109"/>
      <use x="242.382812" xlink:href="#DejaVuSans-105"/>
      <use x="270.166016" xlink:href="#DejaVuSans-110"/>
      <use x="333.544922" xlink:href="#DejaVuSans-97"/>
      <use x="394.824219" xlink:href="#DejaVuSans-108"/>
     </g>
    </g>
   </g>
   <g id="text_19">
    <g id="patch_20">
     <path clip-path="url(#pc55fea0a21)" d="M 171.062083 258.281718 
L 171.062083 292.089218 
Q 171.062083 294.489218 173.462083 294.489218 
L 181.204583 294.489218 
Q 183.604583 294.489218 183.604583 292.089218 
L 183.604583 258.281718 
Q 183.604583 255.881718 181.204583 255.881718 
L 173.462083 255.881718 
Q 171.062083 255.881718 171.062083 258.281718 
z
" style="fill:#ffffff;stroke:#ffffff;stroke-linejoin:miter;"/>
    </g>
    <g clip-path="url(#pc55fea0a21)">
     <!-- Terminal -->
     <g transform="translate(175.125833 258.281718)rotate(-270)scale(0.08 -0.08)">
      <use xlink:href="#DejaVuSans-84"/>
      <use x="44.083984" xlink:href="#DejaVuSans-101"/>
      <use x="105.607422" xlink:href="#DejaVuSans-114"/>
      <use x="144.970703" xlink:href="#DejaVuSans-109"/>
      <use x="242.382812" xlink:href="#DejaVuSans-105"/>
      <use x="270.166016" xlink:href="#DejaVuSans-110"/>
      <use x="333.544922" xlink:href="#DejaVuSans-97"/>
      <use x="394.824219" xlink:href="#DejaVuSans-108"/>
     </g>
    </g>
   </g>
   <g id="text_20">
    <g id="patch_21">
     <path clip-path="url(#pc55fea0a21)" d="M 221.72875 258.281718 
L 221.72875 292.089218 
Q 221.72875 294.489218 224.12875 294.489218 
L 231.87125 294.489218 
Q 234.27125 294.489218 234.27125 292.089218 
L 234.27125 258.281718 
Q 234.27125 255.881718 231.87125 255.881718 
L 224.12875 255.881718 
Q 221.72875 255.881718 221.72875 258.281718 
z
" style="fill:#ffffff;stroke:#ffffff;stroke-linejoin:miter;"/>
    </g>
    <g clip-path="url(#pc55fea0a21)">
     <!-- Terminal -->
     <g transform="translate(225.7925 258.281718)rotate(-270)scale(0.08 -0.08)">
      <use xlink:href="#DejaVuSans-84"/>
      <use x="44.083984" xlink:href="#DejaVuSans-101"/>
      <use x="105.607422" xlink:href="#DejaVuSans-114"/>
      <use x="144.970703" xlink:href="#DejaVuSans-109"/>
      <use x="242.382812" xlink:href="#DejaVuSans-105"/>
      <use x="270.166016" xlink:href="#DejaVuSans-110"/>
      <use x="333.544922" xlink:href="#DejaVuSans-97"/>
      <use x="394.824219" xlink:href="#DejaVuSans-108"/>
     </g>
    </g>
   </g>
   <g id="text_21">
    <g id="patch_22">
     <path clip-path="url(#pc55fea0a21)" d="M 272.395417 258.281718 
L 272.395417 292.089218 
Q 272.395417 294.489218 274.795417 294.489218 
L 282.537917 294.489218 
Q 284.937917 294.489218 284.937917 292.089218 
L 284.937917 258.281718 
Q 284.937917 255.881718 282.537917 255.881718 
L 274.795417 255.881718 
Q 272.395417 255.881718 272.395417 258.281718 
z
" style="fill:#ffffff;stroke:#ffffff;stroke-linejoin:miter;"/>
    </g>
    <g clip-path="url(#pc55fea0a21)">
     <!-- Terminal -->
     <g transform="translate(276.459167 258.281718)rotate(-270)scale(0.08 -0.08)">
      <use xlink:href="#DejaVuSans-84"/>
      <use x="44.083984" xlink:href="#DejaVuSans-101"/>
      <use x="105.607422" xlink:href="#DejaVuSans-114"/>
      <use x="144.970703" xlink:href="#DejaVuSans-109"/>
      <use x="242.382812" xlink:href="#DejaVuSans-105"/>
      <use x="270.166016" xlink:href="#DejaVuSans-110"/>
      <use x="333.544922" xlink:href="#DejaVuSans-97"/>
      <use x="394.824219" xlink:href="#DejaVuSans-108"/>
     </g>
    </g>
   </g>
   <g id="text_22">
    <g id="patch_23">
     <path clip-path="url(#pc55fea0a21)" d="M 442.963445 272.405978 
L 448.15951 270.430982 
Q 450.40292 269.578274 449.550212 267.334864 
L 446.79934 260.097529 
Q 445.946632 257.854119 443.703222 258.706827 
L 438.507157 260.681824 
Q 436.263747 261.534532 437.116455 263.777942 
L 439.867327 271.015277 
Q 440.720035 273.258687 442.963445 272.405978 
z
" style="fill:#ffffff;stroke:#ffffff;stroke-linejoin:miter;"/>
    </g>
    <g clip-path="url(#pc55fea0a21)">
     <!-- R -->
     <g transform="translate(441.519615 268.607371)rotate(-20.81153)scale(0.08 -0.08)">
      <use xlink:href="#DejaVuSans-82"/>
     </g>
    </g>
   </g>
   <g id="text_23">
    <g id="patch_24">
     <path clip-path="url(#pc55fea0a21)" d="M 463.827637 270.426097 
L 469.049408 272.410864 
Q 471.292818 273.263572 472.145526 271.020162 
L 474.896398 263.782828 
Q 475.749106 261.539417 473.505696 260.686709 
L 468.283926 258.701942 
Q 466.040516 257.849234 465.187807 260.092644 
L 462.436935 267.329978 
Q 461.584227 269.573388 463.827637 270.426097 
z
" style="fill:#ffffff;stroke:#ffffff;stroke-linejoin:miter;"/>
    </g>
    <g clip-path="url(#pc55fea0a21)">
     <!-- C -->
     <g transform="translate(465.271467 266.627489)rotate(-339.18847)scale(0.08 -0.08)">
      <use xlink:href="#DejaVuSans-67"/>
     </g>
    </g>
   </g>
   <g id="text_24">
    <g id="patch_25">
     <path clip-path="url(#pc55fea0a21)" d="M 525.72875 258.281718 
L 525.72875 292.089218 
Q 525.72875 294.489218 528.12875 294.489218 
L 535.87125 294.489218 
Q 538.27125 294.489218 538.27125 292.089218 
L 538.27125 258.281718 
Q 538.27125 255.881718 535.87125 255.881718 
L 528.12875 255.881718 
Q 525.72875 255.881718 525.72875 258.281718 
z
" style="fill:#ffffff;stroke:#ffffff;stroke-linejoin:miter;"/>
    </g>
    <g clip-path="url(#pc55fea0a21)">
     <!-- Terminal -->
     <g transform="translate(529.7925 258.281718)rotate(-270)scale(0.08 -0.08)">
      <use xlink:href="#DejaVuSans-84"/>
      <use x="44.083984" xlink:href="#DejaVuSans-101"/>
      <use x="105.607422" xlink:href="#DejaVuSans-114"/>
      <use x="144.970703" xlink:href="#DejaVuSans-109"/>
      <use x="242.382812" xlink:href="#DejaVuSans-105"/>
      <use x="270.166016" xlink:href="#DejaVuSans-110"/>
      <use x="333.544922" xlink:href="#DejaVuSans-97"/>
      <use x="394.824219" xlink:href="#DejaVuSans-108"/>
     </g>
    </g>
   </g>
   <g id="text_25">
    <g id="patch_26">
     <path clip-path="url(#pc55fea0a21)" d="M 19.062083 54.103115 
L 19.062083 58.926865 
Q 19.062083 61.326865 21.462083 61.326865 
L 29.204583 61.326865 
Q 31.604583 61.326865 31.604583 58.926865 
L 31.604583 54.103115 
Q 31.604583 51.703115 29.204583 51.703115 
L 21.462083 51.703115 
Q 19.062083 51.703115 19.062083 54.103115 
z
" style="fill:#ffffff;stroke:#ffffff;stroke-linejoin:miter;"/>
    </g>
    <g clip-path="url(#pc55fea0a21)">
     <!-- P -->
     <g transform="translate(23.125833 54.103115)rotate(-270)scale(0.08 -0.08)">
      <use xlink:href="#DejaVuSans-80"/>
     </g>
    </g>
   </g>
   <g id="text_26">
    <g id="patch_27">
     <path clip-path="url(#pc55fea0a21)" d="M 424.395417 258.281718 
L 424.395417 292.089218 
Q 424.395417 294.489218 426.795417 294.489218 
L 434.537917 294.489218 
Q 436.937917 294.489218 436.937917 292.089218 
L 436.937917 258.281718 
Q 436.937917 255.881718 434.537917 255.881718 
L 426.795417 255.881718 
Q 424.395417 255.881718 424.395417 258.281718 
z
" style="fill:#ffffff;stroke:#ffffff;stroke-linejoin:miter;"/>
    </g>
    <g clip-path="url(#pc55fea0a21)">
     <!-- Terminal -->
     <g transform="translate(428.459167 258.281718)rotate(-270)scale(0.08 -0.08)">
      <use xlink:href="#DejaVuSans-84"/>
      <use x="44.083984" xlink:href="#DejaVuSans-101"/>
      <use x="105.607422" xlink:href="#DejaVuSans-114"/>
      <use x="144.970703" xlink:href="#DejaVuSans-109"/>
      <use x="242.382812" xlink:href="#DejaVuSans-105"/>
      <use x="270.166016" xlink:href="#DejaVuSans-110"/>
      <use x="333.544922" xlink:href="#DejaVuSans-97"/>
      <use x="394.824219" xlink:href="#DejaVuSans-108"/>
     </g>
    </g>
   </g>
   <g id="text_27">
    <g id="patch_28">
     <path clip-path="url(#pc55fea0a21)" d="M 475.062083 258.281718 
L 475.062083 292.089218 
Q 475.062083 294.489218 477.462083 294.489218 
L 485.204583 294.489218 
Q 487.604583 294.489218 487.604583 292.089218 
L 487.604583 258.281718 
Q 487.604583 255.881718 485.204583 255.881718 
L 477.462083 255.881718 
Q 475.062083 255.881718 475.062083 258.281718 
z
" style="fill:#ffffff;stroke:#ffffff;stroke-linejoin:miter;"/>
    </g>
    <g clip-path="url(#pc55fea0a21)">
     <!-- Terminal -->
     <g transform="translate(479.125833 258.281718)rotate(-270)scale(0.08 -0.08)">
      <use xlink:href="#DejaVuSans-84"/>
      <use x="44.083984" xlink:href="#DejaVuSans-101"/>
      <use x="105.607422" xlink:href="#DejaVuSans-114"/>
      <use x="144.970703" xlink:href="#DejaVuSans-109"/>
      <use x="242.382812" xlink:href="#DejaVuSans-105"/>
      <use x="270.166016" xlink:href="#DejaVuSans-110"/>
      <use x="333.544922" xlink:href="#DejaVuSans-97"/>
      <use x="394.824219" xlink:href="#DejaVuSans-108"/>
     </g>
    </g>
   </g>
   <g id="text_28">
    <g id="patch_29">
     <path clip-path="url(#pc55fea0a21)" d="M 19.062083 70.198925 
L 19.062083 75.022675 
Q 19.062083 77.422675 21.462083 77.422675 
L 29.204583 77.422675 
Q 31.604583 77.422675 31.604583 75.022675 
L 31.604583 70.198925 
Q 31.604583 67.798925 29.204583 67.798925 
L 21.462083 67.798925 
Q 19.062083 67.798925 19.062083 70.198925 
z
" style="fill:#ffffff;stroke:#ffffff;stroke-linejoin:miter;"/>
    </g>
    <g clip-path="url(#pc55fea0a21)">
     <!-- P -->
     <g transform="translate(23.125833 70.198925)rotate(-270)scale(0.08 -0.08)">
      <use xlink:href="#DejaVuSans-80"/>
     </g>
    </g>
   </g>
   <g id="text_29">
    <g id="patch_30">
     <path clip-path="url(#pc55fea0a21)" d="M 19.062083 85.659489 
L 19.062083 90.483239 
Q 19.062083 92.883239 21.462083 92.883239 
L 29.204583 92.883239 
Q 31.604583 92.883239 31.604583 90.483239 
L 31.604583 85.659489 
Q 31.604583 83.259489 29.204583 83.259489 
L 21.462083 83.259489 
Q 19.062083 83.259489 19.062083 85.659489 
z
" style="fill:#ffffff;stroke:#ffffff;stroke-linejoin:miter;"/>
    </g>
    <g clip-path="url(#pc55fea0a21)">
     <!-- P -->
     <g transform="translate(23.125833 85.659489)rotate(-270)scale(0.08 -0.08)">
      <use xlink:href="#DejaVuSans-80"/>
     </g>
    </g>
   </g>
   <g id="text_30">
    <g id="patch_31">
     <path clip-path="url(#pc55fea0a21)" d="M 19.062083 100.521623 
L 19.062083 105.345373 
Q 19.062083 107.745373 21.462083 107.745373 
L 29.204583 107.745373 
Q 31.604583 107.745373 31.604583 105.345373 
L 31.604583 100.521623 
Q 31.604583 98.121623 29.204583 98.121623 
L 21.462083 98.121623 
Q 19.062083 98.121623 19.062083 100.521623 
z
" style="fill:#ffffff;stroke:#ffffff;stroke-linejoin:miter;"/>
    </g>
    <g clip-path="url(#pc55fea0a21)">
     <!-- P -->
     <g transform="translate(23.125833 100.521623)rotate(-270)scale(0.08 -0.08)">
      <use xlink:href="#DejaVuSans-80"/>
     </g>
    </g>
   </g>
   <g id="text_31">
    <g id="patch_32">
     <path clip-path="url(#pc55fea0a21)" d="M 19.062083 114.820266 
L 19.062083 119.644016 
Q 19.062083 122.044016 21.462083 122.044016 
L 29.204583 122.044016 
Q 31.604583 122.044016 31.604583 119.644016 
L 31.604583 114.820266 
Q 31.604583 112.420266 29.204583 112.420266 
L 21.462083 112.420266 
Q 19.062083 112.420266 19.062083 114.820266 
z
" style="fill:#ffffff;stroke:#ffffff;stroke-linejoin:miter;"/>
    </g>
    <g clip-path="url(#pc55fea0a21)">
     <!-- P -->
     <g transform="translate(23.125833 114.820266)rotate(-270)scale(0.08 -0.08)">
      <use xlink:href="#DejaVuSans-80"/>
     </g>
    </g>
   </g>
   <g id="text_32">
    <g id="patch_33">
     <path clip-path="url(#pc55fea0a21)" d="M 19.062083 128.58866 
L 19.062083 133.41241 
Q 19.062083 135.81241 21.462083 135.81241 
L 29.204583 135.81241 
Q 31.604583 135.81241 31.604583 133.41241 
L 31.604583 128.58866 
Q 31.604583 126.18866 29.204583 126.18866 
L 21.462083 126.18866 
Q 19.062083 126.18866 19.062083 128.58866 
z
" style="fill:#ffffff;stroke:#ffffff;stroke-linejoin:miter;"/>
    </g>
    <g clip-path="url(#pc55fea0a21)">
     <!-- P -->
     <g transform="translate(23.125833 128.58866)rotate(-270)scale(0.08 -0.08)">
      <use xlink:href="#DejaVuSans-80"/>
     </g>
    </g>
   </g>
   <g id="text_33">
    <g id="patch_34">
     <path clip-path="url(#pc55fea0a21)" d="M 19.062083 141.858519 
L 19.062083 146.682269 
Q 19.062083 149.082269 21.462083 149.082269 
L 29.204583 149.082269 
Q 31.604583 149.082269 31.604583 146.682269 
L 31.604583 141.858519 
Q 31.604583 139.458519 29.204583 139.458519 
L 21.462083 139.458519 
Q 19.062083 139.458519 19.062083 141.858519 
z
" style="fill:#ffffff;stroke:#ffffff;stroke-linejoin:miter;"/>
    </g>
    <g clip-path="url(#pc55fea0a21)">
     <!-- P -->
     <g transform="translate(23.125833 141.858519)rotate(-270)scale(0.08 -0.08)">
      <use xlink:href="#DejaVuSans-80"/>
     </g>
    </g>
   </g>
   <g id="text_34">
    <g id="patch_35">
     <path clip-path="url(#pc55fea0a21)" d="M 19.062083 154.660201 
L 19.062083 159.483951 
Q 19.062083 161.883951 21.462083 161.883951 
L 29.204583 161.883951 
Q 31.604583 161.883951 31.604583 159.483951 
L 31.604583 154.660201 
Q 31.604583 152.260201 29.204583 152.260201 
L 21.462083 152.260201 
Q 19.062083 152.260201 19.062083 154.660201 
z
" style="fill:#ffffff;stroke:#ffffff;stroke-linejoin:miter;"/>
    </g>
    <g clip-path="url(#pc55fea0a21)">
     <!-- P -->
     <g transform="translate(23.125833 154.660201)rotate(-270)scale(0.08 -0.08)">
      <use xlink:href="#DejaVuSans-80"/>
     </g>
    </g>
   </g>
   <g id="text_35">
    <g id="patch_36">
     <path clip-path="url(#pc55fea0a21)" d="M 19.062083 167.022897 
L 19.062083 171.846647 
Q 19.062083 174.246647 21.462083 174.246647 
L 29.204583 174.246647 
Q 31.604583 174.246647 31.604583 171.846647 
L 31.604583 167.022897 
Q 31.604583 164.622897 29.204583 164.622897 
L 21.462083 164.622897 
Q 19.062083 164.622897 19.062083 167.022897 
z
" style="fill:#ffffff;stroke:#ffffff;stroke-linejoin:miter;"/>
    </g>
    <g clip-path="url(#pc55fea0a21)">
     <!-- P -->
     <g transform="translate(23.125833 167.022897)rotate(-270)scale(0.08 -0.08)">
      <use xlink:href="#DejaVuSans-80"/>
     </g>
    </g>
   </g>
   <g id="text_36">
    <g id="patch_37">
     <path clip-path="url(#pc55fea0a21)" d="M 19.062083 178.974826 
L 19.062083 183.798576 
Q 19.062083 186.198576 21.462083 186.198576 
L 29.204583 186.198576 
Q 31.604583 186.198576 31.604583 183.798576 
L 31.604583 178.974826 
Q 31.604583 176.574826 29.204583 176.574826 
L 21.462083 176.574826 
Q 19.062083 176.574826 19.062083 178.974826 
z
" style="fill:#ffffff;stroke:#ffffff;stroke-linejoin:miter;"/>
    </g>
    <g clip-path="url(#pc55fea0a21)">
     <!-- P -->
     <g transform="translate(23.125833 178.974826)rotate(-270)scale(0.08 -0.08)">
      <use xlink:href="#DejaVuSans-80"/>
     </g>
    </g>
   </g>
   <g id="text_37">
    <g id="patch_38">
     <path clip-path="url(#pc55fea0a21)" d="M 19.062083 190.543471 
L 19.062083 195.367221 
Q 19.062083 197.767221 21.462083 197.767221 
L 29.204583 197.767221 
Q 31.604583 197.767221 31.604583 195.367221 
L 31.604583 190.543471 
Q 31.604583 188.143471 29.204583 188.143471 
L 21.462083 188.143471 
Q 19.062083 188.143471 19.062083 190.543471 
z
" style="fill:#ffffff;stroke:#ffffff;stroke-linejoin:miter;"/>
    </g>
    <g clip-path="url(#pc55fea0a21)">
     <!-- P -->
     <g transform="translate(23.125833 190.543471)rotate(-270)scale(0.08 -0.08)">
      <use xlink:href="#DejaVuSans-80"/>
     </g>
    </g>
   </g>
   <g id="text_38">
    <g id="patch_39">
     <path clip-path="url(#pc55fea0a21)" d="M 19.062083 201.755849 
L 19.062083 206.579599 
Q 19.062083 208.979599 21.462083 208.979599 
L 29.204583 208.979599 
Q 31.604583 208.979599 31.604583 206.579599 
L 31.604583 201.755849 
Q 31.604583 199.355849 29.204583 199.355849 
L 21.462083 199.355849 
Q 19.062083 199.355849 19.062083 201.755849 
z
" style="fill:#ffffff;stroke:#ffffff;stroke-linejoin:miter;"/>
    </g>
    <g clip-path="url(#pc55fea0a21)">
     <!-- P -->
     <g transform="translate(23.125833 201.755849)rotate(-270)scale(0.08 -0.08)">
      <use xlink:href="#DejaVuSans-80"/>
     </g>
    </g>
   </g>
   <g id="text_39">
    <g id="patch_40">
     <path clip-path="url(#pc55fea0a21)" d="M 19.062083 212.638868 
L 19.062083 217.462618 
Q 19.062083 219.862618 21.462083 219.862618 
L 29.204583 219.862618 
Q 31.604583 219.862618 31.604583 217.462618 
L 31.604583 212.638868 
Q 31.604583 210.238868 29.204583 210.238868 
L 21.462083 210.238868 
Q 19.062083 210.238868 19.062083 212.638868 
z
" style="fill:#ffffff;stroke:#ffffff;stroke-linejoin:miter;"/>
    </g>
    <g clip-path="url(#pc55fea0a21)">
     <!-- P -->
     <g transform="translate(23.125833 212.638868)rotate(-270)scale(0.08 -0.08)">
      <use xlink:href="#DejaVuSans-80"/>
     </g>
    </g>
   </g>
   <g id="text_40">
    <g id="patch_41">
     <path clip-path="url(#pc55fea0a21)" d="M 19.062083 223.219816 
L 19.062083 228.043566 
Q 19.062083 230.443566 21.462083 230.443566 
L 29.204583 230.443566 
Q 31.604583 230.443566 31.604583 228.043566 
L 31.604583 223.219816 
Q 31.604583 220.819816 29.204583 220.819816 
L 21.462083 220.819816 
Q 19.062083 220.819816 19.062083 223.219816 
z
" style="fill:#ffffff;stroke:#ffffff;stroke-linejoin:miter;"/>
    </g>
    <g clip-path="url(#pc55fea0a21)">
     <!-- P -->
     <g transform="translate(23.125833 223.219816)rotate(-270)scale(0.08 -0.08)">
      <use xlink:href="#DejaVuSans-80"/>
     </g>
    </g>
   </g>
   <g id="text_41">
    <g id="patch_42">
     <path clip-path="url(#pc55fea0a21)" d="M 19.062083 233.527097 
L 19.062083 238.350847 
Q 19.062083 240.750847 21.462083 240.750847 
L 29.204583 240.750847 
Q 31.604583 240.750847 31.604583 238.350847 
L 31.604583 233.527097 
Q 31.604583 231.127097 29.204583 231.127097 
L 21.462083 231.127097 
Q 19.062083 231.127097 19.062083 233.527097 
z
" style="fill:#ffffff;stroke:#ffffff;stroke-linejoin:miter;"/>
    </g>
    <g clip-path="url(#pc55fea0a21)">
     <!-- P -->
     <g transform="translate(23.125833 233.527097)rotate(-270)scale(0.08 -0.08)">
      <use xlink:href="#DejaVuSans-80"/>
     </g>
    </g>
   </g>
   <g id="text_42">
    <g id="patch_43">
     <path clip-path="url(#pc55fea0a21)" d="M 19.062083 243.591475 
L 19.062083 248.415225 
Q 19.062083 250.815225 21.462083 250.815225 
L 29.204583 250.815225 
Q 31.604583 250.815225 31.604583 248.415225 
L 31.604583 243.591475 
Q 31.604583 241.191475 29.204583 241.191475 
L 21.462083 241.191475 
Q 19.062083 241.191475 19.062083 243.591475 
z
" style="fill:#ffffff;stroke:#ffffff;stroke-linejoin:miter;"/>
    </g>
    <g clip-path="url(#pc55fea0a21)">
     <!-- P -->
     <g transform="translate(23.125833 243.591475)rotate(-270)scale(0.08 -0.08)">
      <use xlink:href="#DejaVuSans-80"/>
     </g>
    </g>
   </g>
   <g id="text_43">
    <g id="patch_44">
     <path clip-path="url(#pc55fea0a21)" d="M 19.062083 253.448488 
L 19.062083 258.272238 
Q 19.062083 260.672238 21.462083 260.672238 
L 29.204583 260.672238 
Q 31.604583 260.672238 31.604583 258.272238 
L 31.604583 253.448488 
Q 31.604583 251.048488 29.204583 251.048488 
L 21.462083 251.048488 
Q 19.062083 251.048488 19.062083 253.448488 
z
" style="fill:#ffffff;stroke:#ffffff;stroke-linejoin:miter;"/>
    </g>
    <g clip-path="url(#pc55fea0a21)">
     <!-- P -->
     <g transform="translate(23.125833 253.448488)rotate(-270)scale(0.08 -0.08)">
      <use xlink:href="#DejaVuSans-80"/>
     </g>
    </g>
   </g>
   <g id="text_44">
    <g id="patch_45">
     <path clip-path="url(#pc55fea0a21)" d="M 19.062083 263.144528 
L 19.062083 267.968278 
Q 19.062083 270.368278 21.462083 270.368278 
L 29.204583 270.368278 
Q 31.604583 270.368278 31.604583 267.968278 
L 31.604583 263.144528 
Q 31.604583 260.744528 29.204583 260.744528 
L 21.462083 260.744528 
Q 19.062083 260.744528 19.062083 263.144528 
z
" style="fill:#ffffff;stroke:#ffffff;stroke-linejoin:miter;"/>
    </g>
    <g clip-path="url(#pc55fea0a21)">
     <!-- P -->
     <g transform="translate(23.125833 263.144528)rotate(-270)scale(0.08 -0.08)">
      <use xlink:href="#DejaVuSans-80"/>
     </g>
    </g>
   </g>
   <g id="text_45">
    <g id="patch_46">
     <path clip-path="url(#pc55fea0a21)" d="M 19.062083 258.281718 
L 19.062083 292.089218 
Q 19.062083 294.489218 21.462083 294.489218 
L 29.204583 294.489218 
Q 31.604583 294.489218 31.604583 292.089218 
L 31.604583 258.281718 
Q 31.604583 255.881718 29.204583 255.881718 
L 21.462083 255.881718 
Q 19.062083 255.881718 19.062083 258.281718 
z
" style="fill:#ffffff;stroke:#ffffff;stroke-linejoin:miter;"/>
    </g>
    <g clip-path="url(#pc55fea0a21)">
     <!-- Terminal -->
     <g transform="translate(23.125833 258.281718)rotate(-270)scale(0.08 -0.08)">
      <use xlink:href="#DejaVuSans-84"/>
      <use x="44.083984" xlink:href="#DejaVuSans-101"/>
      <use x="105.607422" xlink:href="#DejaVuSans-114"/>
      <use x="144.970703" xlink:href="#DejaVuSans-109"/>
      <use x="242.382812" xlink:href="#DejaVuSans-105"/>
      <use x="270.166016" xlink:href="#DejaVuSans-110"/>
      <use x="333.544922" xlink:href="#DejaVuSans-97"/>
      <use x="394.824219" xlink:href="#DejaVuSans-108"/>
     </g>
    </g>
   </g>
   <g id="PathCollection_1">
    <defs>
     <path d="M 0 8.660254 
C 2.296726 8.660254 4.499694 7.747755 6.123724 6.123724 
C 7.747755 4.499694 8.660254 2.296726 8.660254 -0 
C 8.660254 -2.296726 7.747755 -4.499694 6.123724 -6.123724 
C 4.499694 -7.747755 2.296726 -8.660254 0 -8.660254 
C -2.296726 -8.660254 -4.499694 -7.747755 -6.123724 -6.123724 
C -7.747755 -4.499694 -8.660254 -2.296726 -8.660254 0 
C -8.660254 2.296726 -7.747755 4.499694 -6.123724 6.123724 
C -4.499694 7.747755 -2.296726 8.660254 0 8.660254 
z
" id="C0_0_99a93ac0ba"/>
    </defs>
    <g clip-path="url(#pc55fea0a21)">
     <use style="fill:#ffffff;stroke:#ffffff;" x="25.333333" xlink:href="#C0_0_99a93ac0ba" y="280"/>
    </g>
    <g clip-path="url(#pc55fea0a21)">
     <use style="fill:#ffffff;stroke:#ffffff;" x="76" xlink:href="#C0_0_99a93ac0ba" y="280"/>
    </g>
    <g clip-path="url(#pc55fea0a21)">
     <use style="fill:#ffffff;stroke:#ffffff;" x="126.666667" xlink:href="#C0_0_99a93ac0ba" y="280"/>
    </g>
    <g clip-path="url(#pc55fea0a21)">
     <use style="fill:#ffffff;stroke:#ffffff;" x="177.333333" xlink:href="#C0_0_99a93ac0ba" y="280"/>
    </g>
    <g clip-path="url(#pc55fea0a21)">
     <use style="fill:#ffffff;stroke:#ffffff;" x="228" xlink:href="#C0_0_99a93ac0ba" y="280"/>
    </g>
    <g clip-path="url(#pc55fea0a21)">
     <use style="fill:#ffffff;stroke:#ffffff;" x="278.666667" xlink:href="#C0_0_99a93ac0ba" y="280"/>
    </g>
    <g clip-path="url(#pc55fea0a21)">
     <use style="fill:#ffffff;stroke:#ffffff;" x="329.333333" xlink:href="#C0_0_99a93ac0ba" y="280"/>
    </g>
    <g clip-path="url(#pc55fea0a21)">
     <use style="fill:#ffffff;stroke:#ffffff;" x="380" xlink:href="#C0_0_99a93ac0ba" y="280"/>
    </g>
    <g clip-path="url(#pc55fea0a21)">
     <use style="fill:#ffffff;stroke:#ffffff;" x="430.666667" xlink:href="#C0_0_99a93ac0ba" y="280"/>
    </g>
    <g clip-path="url(#pc55fea0a21)">
     <use style="fill:#ffffff;stroke:#ffffff;" x="481.333333" xlink:href="#C0_0_99a93ac0ba" y="280"/>
    </g>
    <g clip-path="url(#pc55fea0a21)">
     <use style="fill:#ffffff;stroke:#ffffff;" x="532" xlink:href="#C0_0_99a93ac0ba" y="280"/>
    </g>
    <g clip-path="url(#pc55fea0a21)">
     <use style="stroke:#000000;" x="205.079365" xlink:href="#C0_0_99a93ac0ba" y="13.333333"/>
    </g>
    <g clip-path="url(#pc55fea0a21)">
     <use style="stroke:#000000;" x="76" xlink:href="#C0_0_99a93ac0ba" y="270.370935"/>
    </g>
    <g clip-path="url(#pc55fea0a21)">
     <use style="stroke:#000000;" x="177.333333" xlink:href="#C0_0_99a93ac0ba" y="260.741871"/>
    </g>
    <g clip-path="url(#pc55fea0a21)">
     <use style="stroke:#000000;" x="422.222222" xlink:href="#C0_0_99a93ac0ba" y="250.978855"/>
    </g>
    <g clip-path="url(#pc55fea0a21)">
     <use style="stroke:#000000;" x="329.333333" xlink:href="#C0_0_99a93ac0ba" y="270.370935"/>
    </g>
    <g clip-path="url(#pc55fea0a21)">
     <use style="stroke:#000000;" x="380" xlink:href="#C0_0_99a93ac0ba" y="270.370935"/>
    </g>
    <g clip-path="url(#pc55fea0a21)">
     <use style="stroke:#000000;" x="25.333333" xlink:href="#C0_0_99a93ac0ba" y="31.186601"/>
    </g>
    <g clip-path="url(#pc55fea0a21)">
     <use style="stroke:#000000;" x="126.666667" xlink:href="#C0_0_99a93ac0ba" y="270.370935"/>
    </g>
    <g clip-path="url(#pc55fea0a21)">
     <use style="stroke:#000000;" x="177.333333" xlink:href="#C0_0_99a93ac0ba" y="270.370935"/>
    </g>
    <g clip-path="url(#pc55fea0a21)">
     <use style="stroke:#000000;" x="228" xlink:href="#C0_0_99a93ac0ba" y="270.370935"/>
    </g>
    <g clip-path="url(#pc55fea0a21)">
     <use style="stroke:#000000;" x="278.666667" xlink:href="#C0_0_99a93ac0ba" y="270.370935"/>
    </g>
    <g clip-path="url(#pc55fea0a21)">
     <use style="stroke:#000000;" x="456" xlink:href="#C0_0_99a93ac0ba" y="260.741871"/>
    </g>
    <g clip-path="url(#pc55fea0a21)">
     <use style="stroke:#000000;" x="532" xlink:href="#C0_0_99a93ac0ba" y="270.370935"/>
    </g>
    <g clip-path="url(#pc55fea0a21)">
     <use style="stroke:#000000;" x="25.333333" xlink:href="#C0_0_99a93ac0ba" y="48.30355"/>
    </g>
    <g clip-path="url(#pc55fea0a21)">
     <use style="stroke:#000000;" x="430.666667" xlink:href="#C0_0_99a93ac0ba" y="270.370935"/>
    </g>
    <g clip-path="url(#pc55fea0a21)">
     <use style="stroke:#000000;" x="481.333333" xlink:href="#C0_0_99a93ac0ba" y="270.370935"/>
    </g>
    <g clip-path="url(#pc55fea0a21)">
     <use style="stroke:#000000;" x="25.333333" xlink:href="#C0_0_99a93ac0ba" y="64.72643"/>
    </g>
    <g clip-path="url(#pc55fea0a21)">
     <use style="stroke:#000000;" x="25.333333" xlink:href="#C0_0_99a93ac0ba" y="80.495169"/>
    </g>
    <g clip-path="url(#pc55fea0a21)">
     <use style="stroke:#000000;" x="25.333333" xlink:href="#C0_0_99a93ac0ba" y="95.64756"/>
    </g>
    <g clip-path="url(#pc55fea0a21)">
     <use style="stroke:#000000;" x="25.333333" xlink:href="#C0_0_99a93ac0ba" y="110.219435"/>
    </g>
    <g clip-path="url(#pc55fea0a21)">
     <use style="stroke:#000000;" x="25.333333" xlink:href="#C0_0_99a93ac0ba" y="124.244846"/>
    </g>
    <g clip-path="url(#pc55fea0a21)">
     <use style="stroke:#000000;" x="25.333333" xlink:href="#C0_0_99a93ac0ba" y="137.756225"/>
    </g>
    <g clip-path="url(#pc55fea0a21)">
     <use style="stroke:#000000;" x="25.333333" xlink:href="#C0_0_99a93ac0ba" y="150.784564"/>
    </g>
    <g clip-path="url(#pc55fea0a21)">
     <use style="stroke:#000000;" x="25.333333" xlink:href="#C0_0_99a93ac0ba" y="163.359589"/>
    </g>
    <g clip-path="url(#pc55fea0a21)">
     <use style="stroke:#000000;" x="25.333333" xlink:href="#C0_0_99a93ac0ba" y="175.509954"/>
    </g>
    <g clip-path="url(#pc55fea0a21)">
     <use style="stroke:#000000;" x="25.333333" xlink:href="#C0_0_99a93ac0ba" y="187.263448"/>
    </g>
    <g clip-path="url(#pc55fea0a21)">
     <use style="stroke:#000000;" x="25.333333" xlink:href="#C0_0_99a93ac0ba" y="198.647244"/>
    </g>
    <g clip-path="url(#pc55fea0a21)">
     <use style="stroke:#000000;" x="25.333333" xlink:href="#C0_0_99a93ac0ba" y="209.688204"/>
    </g>
    <g clip-path="url(#pc55fea0a21)">
     <use style="stroke:#000000;" x="25.333333" xlink:href="#C0_0_99a93ac0ba" y="220.413282"/>
    </g>
    <g clip-path="url(#pc55fea0a21)">
     <use style="stroke:#000000;" x="25.333333" xlink:href="#C0_0_99a93ac0ba" y="230.850099"/>
    </g>
    <g clip-path="url(#pc55fea0a21)">
     <use style="stroke:#000000;" x="25.333333" xlink:href="#C0_0_99a93ac0ba" y="241.027845"/>
    </g>
    <g clip-path="url(#pc55fea0a21)">
     <use style="stroke:#000000;" x="25.333333" xlink:href="#C0_0_99a93ac0ba" y="250.978855"/>
    </g>
    <g clip-path="url(#pc55fea0a21)">
     <use style="stroke:#000000;" x="25.333333" xlink:href="#C0_0_99a93ac0ba" y="260.741871"/>
    </g>
    <g clip-path="url(#pc55fea0a21)">
     <use style="stroke:#000000;" x="25.333333" xlink:href="#C0_0_99a93ac0ba" y="270.370935"/>
    </g>
   </g>
   <g id="text_46">
    <g clip-path="url(#pc55fea0a21)">
     <!-- A -->
     <g transform="translate(21.913021 282.759375)scale(0.1 -0.1)">
      <use xlink:href="#DejaVuSans-65"/>
     </g>
    </g>
   </g>
   <g id="text_47">
    <g clip-path="url(#pc55fea0a21)">
     <!-- reflector -->
     <g transform="translate(54.930469 282.759375)scale(0.1 -0.1)">
      <defs>
       <path d="M 37.109375 75.984375 
L 37.109375 68.5 
L 28.515625 68.5 
Q 23.6875 68.5 21.796875 66.546875 
Q 19.921875 64.59375 19.921875 59.515625 
L 19.921875 54.6875 
L 34.71875 54.6875 
L 34.71875 47.703125 
L 19.921875 47.703125 
L 19.921875 0 
L 10.890625 0 
L 10.890625 47.703125 
L 2.296875 47.703125 
L 2.296875 54.6875 
L 10.890625 54.6875 
L 10.890625 58.5 
Q 10.890625 67.625 15.140625 71.796875 
Q 19.390625 75.984375 28.609375 75.984375 
z
" id="DejaVuSans-102"/>
       <path d="M 48.78125 52.59375 
L 48.78125 44.1875 
Q 44.96875 46.296875 41.140625 47.34375 
Q 37.3125 48.390625 33.40625 48.390625 
Q 24.65625 48.390625 19.8125 42.84375 
Q 14.984375 37.3125 14.984375 27.296875 
Q 14.984375 17.28125 19.8125 11.734375 
Q 24.65625 6.203125 33.40625 6.203125 
Q 37.3125 6.203125 41.140625 7.25 
Q 44.96875 8.296875 48.78125 10.40625 
L 48.78125 2.09375 
Q 45.015625 0.34375 40.984375 -0.53125 
Q 36.96875 -1.421875 32.421875 -1.421875 
Q 20.0625 -1.421875 12.78125 6.34375 
Q 5.515625 14.109375 5.515625 27.296875 
Q 5.515625 40.671875 12.859375 48.328125 
Q 20.21875 56 33.015625 56 
Q 37.15625 56 41.109375 55.140625 
Q 45.0625 54.296875 48.78125 52.59375 
z
" id="DejaVuSans-99"/>
       <path d="M 18.3125 70.21875 
L 18.3125 54.6875 
L 36.8125 54.6875 
L 36.8125 47.703125 
L 18.3125 47.703125 
L 18.3125 18.015625 
Q 18.3125 11.328125 20.140625 9.421875 
Q 21.96875 7.515625 27.59375 7.515625 
L 36.8125 7.515625 
L 36.8125 0 
L 27.59375 0 
Q 17.1875 0 13.234375 3.875 
Q 9.28125 7.765625 9.28125 18.015625 
L 9.28125 47.703125 
L 2.6875 47.703125 
L 2.6875 54.6875 
L 9.28125 54.6875 
L 9.28125 70.21875 
z
" id="DejaVuSans-116"/>
       <path d="M 30.609375 48.390625 
Q 23.390625 48.390625 19.1875 42.75 
Q 14.984375 37.109375 14.984375 27.296875 
Q 14.984375 17.484375 19.15625 11.84375 
Q 23.34375 6.203125 30.609375 6.203125 
Q 37.796875 6.203125 41.984375 11.859375 
Q 46.1875 17.53125 46.1875 27.296875 
Q 46.1875 37.015625 41.984375 42.703125 
Q 37.796875 48.390625 30.609375 48.390625 
z
M 30.609375 56 
Q 42.328125 56 49.015625 48.375 
Q 55.71875 40.765625 55.71875 27.296875 
Q 55.71875 13.875 49.015625 6.21875 
Q 42.328125 -1.421875 30.609375 -1.421875 
Q 18.84375 -1.421875 12.171875 6.21875 
Q 5.515625 13.875 5.515625 27.296875 
Q 5.515625 40.765625 12.171875 48.375 
Q 18.84375 56 30.609375 56 
z
" id="DejaVuSans-111"/>
      </defs>
      <use xlink:href="#DejaVuSans-114"/>
      <use x="38.863281" xlink:href="#DejaVuSans-101"/>
      <use x="100.386719" xlink:href="#DejaVuSans-102"/>
      <use x="135.591797" xlink:href="#DejaVuSans-108"/>
      <use x="163.375" xlink:href="#DejaVuSans-101"/>
      <use x="224.898438" xlink:href="#DejaVuSans-99"/>
      <use x="279.878906" xlink:href="#DejaVuSans-116"/>
      <use x="319.087891" xlink:href="#DejaVuSans-111"/>
      <use x="380.269531" xlink:href="#DejaVuSans-114"/>
     </g>
    </g>
   </g>
   <g id="text_48">
    <g clip-path="url(#pc55fea0a21)">
     <!-- is -->
     <g transform="translate(122.672917 282.759375)scale(0.1 -0.1)">
      <defs>
       <path d="M 44.28125 53.078125 
L 44.28125 44.578125 
Q 40.484375 46.53125 36.375 47.5 
Q 32.28125 48.484375 27.875 48.484375 
Q 21.1875 48.484375 17.84375 46.4375 
Q 14.5 44.390625 14.5 40.28125 
Q 14.5 37.15625 16.890625 35.375 
Q 19.28125 33.59375 26.515625 31.984375 
L 29.59375 31.296875 
Q 39.15625 29.25 43.1875 25.515625 
Q 47.21875 21.78125 47.21875 15.09375 
Q 47.21875 7.46875 41.1875 3.015625 
Q 35.15625 -1.421875 24.609375 -1.421875 
Q 20.21875 -1.421875 15.453125 -0.5625 
Q 10.6875 0.296875 5.421875 2 
L 5.421875 11.28125 
Q 10.40625 8.6875 15.234375 7.390625 
Q 20.0625 6.109375 24.8125 6.109375 
Q 31.15625 6.109375 34.5625 8.28125 
Q 37.984375 10.453125 37.984375 14.40625 
Q 37.984375 18.0625 35.515625 20.015625 
Q 33.0625 21.96875 24.703125 23.78125 
L 21.578125 24.515625 
Q 13.234375 26.265625 9.515625 29.90625 
Q 5.8125 33.546875 5.8125 39.890625 
Q 5.8125 47.609375 11.28125 51.796875 
Q 16.75 56 26.8125 56 
Q 31.78125 56 36.171875 55.265625 
Q 40.578125 54.546875 44.28125 53.078125 
z
" id="DejaVuSans-115"/>
      </defs>
      <use xlink:href="#DejaVuSans-105"/>
      <use x="27.783203" xlink:href="#DejaVuSans-115"/>
     </g>
    </g>
   </g>
   <g id="text_49">
    <g clip-path="url(#pc55fea0a21)">
     <!-- used -->
     <g transform="translate(165.309115 282.759375)scale(0.1 -0.1)">
      <defs>
       <path d="M 8.5 21.578125 
L 8.5 54.6875 
L 17.484375 54.6875 
L 17.484375 21.921875 
Q 17.484375 14.15625 20.5 10.265625 
Q 23.53125 6.390625 29.59375 6.390625 
Q 36.859375 6.390625 41.078125 11.03125 
Q 45.3125 15.671875 45.3125 23.6875 
L 45.3125 54.6875 
L 54.296875 54.6875 
L 54.296875 0 
L 45.3125 0 
L 45.3125 8.40625 
Q 42.046875 3.421875 37.71875 1 
Q 33.40625 -1.421875 27.6875 -1.421875 
Q 18.265625 -1.421875 13.375 4.4375 
Q 8.5 10.296875 8.5 21.578125 
z
M 31.109375 56 
z
" id="DejaVuSans-117"/>
       <path d="M 45.40625 46.390625 
L 45.40625 75.984375 
L 54.390625 75.984375 
L 54.390625 0 
L 45.40625 0 
L 45.40625 8.203125 
Q 42.578125 3.328125 38.25 0.953125 
Q 33.9375 -1.421875 27.875 -1.421875 
Q 17.96875 -1.421875 11.734375 6.484375 
Q 5.515625 14.40625 5.515625 27.296875 
Q 5.515625 40.1875 11.734375 48.09375 
Q 17.96875 56 27.875 56 
Q 33.9375 56 38.25 53.625 
Q 42.578125 51.265625 45.40625 46.390625 
z
M 14.796875 27.296875 
Q 14.796875 17.390625 18.875 11.75 
Q 22.953125 6.109375 30.078125 6.109375 
Q 37.203125 6.109375 41.296875 11.75 
Q 45.40625 17.390625 45.40625 27.296875 
Q 45.40625 37.203125 41.296875 42.84375 
Q 37.203125 48.484375 30.078125 48.484375 
Q 22.953125 48.484375 18.875 42.84375 
Q 14.796875 37.203125 14.796875 27.296875 
z
" id="DejaVuSans-100"/>
      </defs>
      <use xlink:href="#DejaVuSans-117"/>
      <use x="63.378906" xlink:href="#DejaVuSans-115"/>
      <use x="115.478516" xlink:href="#DejaVuSans-101"/>
      <use x="177.001953" xlink:href="#DejaVuSans-100"/>
     </g>
    </g>
   </g>
   <g id="text_50">
    <g clip-path="url(#pc55fea0a21)">
     <!-- to -->
     <g transform="translate(222.980469 282.759375)scale(0.1 -0.1)">
      <use xlink:href="#DejaVuSans-116"/>
      <use x="39.208984" xlink:href="#DejaVuSans-111"/>
     </g>
    </g>
   </g>
   <g id="text_51">
    <g clip-path="url(#pc55fea0a21)">
     <!-- reflect -->
     <g transform="translate(262.711979 282.759375)scale(0.1 -0.1)">
      <use xlink:href="#DejaVuSans-114"/>
      <use x="38.863281" xlink:href="#DejaVuSans-101"/>
      <use x="100.386719" xlink:href="#DejaVuSans-102"/>
      <use x="135.591797" xlink:href="#DejaVuSans-108"/>
      <use x="163.375" xlink:href="#DejaVuSans-101"/>
      <use x="224.898438" xlink:href="#DejaVuSans-99"/>
      <use x="279.878906" xlink:href="#DejaVuSans-116"/>
     </g>
    </g>
   </g>
   <g id="text_52">
    <g clip-path="url(#pc55fea0a21)">
     <!-- light -->
     <g transform="translate(318.252083 282.759375)scale(0.1 -0.1)">
      <defs>
       <path d="M 45.40625 27.984375 
Q 45.40625 37.75 41.375 43.109375 
Q 37.359375 48.484375 30.078125 48.484375 
Q 22.859375 48.484375 18.828125 43.109375 
Q 14.796875 37.75 14.796875 27.984375 
Q 14.796875 18.265625 18.828125 12.890625 
Q 22.859375 7.515625 30.078125 7.515625 
Q 37.359375 7.515625 41.375 12.890625 
Q 45.40625 18.265625 45.40625 27.984375 
z
M 54.390625 6.78125 
Q 54.390625 -7.171875 48.1875 -13.984375 
Q 42 -20.796875 29.203125 -20.796875 
Q 24.46875 -20.796875 20.265625 -20.09375 
Q 16.0625 -19.390625 12.109375 -17.921875 
L 12.109375 -9.1875 
Q 16.0625 -11.328125 19.921875 -12.34375 
Q 23.78125 -13.375 27.78125 -13.375 
Q 36.625 -13.375 41.015625 -8.765625 
Q 45.40625 -4.15625 45.40625 5.171875 
L 45.40625 9.625 
Q 42.625 4.78125 38.28125 2.390625 
Q 33.9375 0 27.875 0 
Q 17.828125 0 11.671875 7.65625 
Q 5.515625 15.328125 5.515625 27.984375 
Q 5.515625 40.671875 11.671875 48.328125 
Q 17.828125 56 27.875 56 
Q 33.9375 56 38.28125 53.609375 
Q 42.625 51.21875 45.40625 46.390625 
L 45.40625 54.6875 
L 54.390625 54.6875 
z
" id="DejaVuSans-103"/>
       <path d="M 54.890625 33.015625 
L 54.890625 0 
L 45.90625 0 
L 45.90625 32.71875 
Q 45.90625 40.484375 42.875 44.328125 
Q 39.84375 48.1875 33.796875 48.1875 
Q 26.515625 48.1875 22.3125 43.546875 
Q 18.109375 38.921875 18.109375 30.90625 
L 18.109375 0 
L 9.078125 0 
L 9.078125 75.984375 
L 18.109375 75.984375 
L 18.109375 46.1875 
Q 21.34375 51.125 25.703125 53.5625 
Q 30.078125 56 35.796875 56 
Q 45.21875 56 50.046875 50.171875 
Q 54.890625 44.34375 54.890625 33.015625 
z
" id="DejaVuSans-104"/>
      </defs>
      <use xlink:href="#DejaVuSans-108"/>
      <use x="27.783203" xlink:href="#DejaVuSans-105"/>
      <use x="55.566406" xlink:href="#DejaVuSans-103"/>
      <use x="119.042969" xlink:href="#DejaVuSans-104"/>
      <use x="182.421875" xlink:href="#DejaVuSans-116"/>
     </g>
    </g>
   </g>
   <g id="text_53">
    <g clip-path="url(#pc55fea0a21)">
     <!-- especially -->
     <g transform="translate(355.128125 282.759375)scale(0.1 -0.1)">
      <defs>
       <path d="M 18.109375 8.203125 
L 18.109375 -20.796875 
L 9.078125 -20.796875 
L 9.078125 54.6875 
L 18.109375 54.6875 
L 18.109375 46.390625 
Q 20.953125 51.265625 25.265625 53.625 
Q 29.59375 56 35.59375 56 
Q 45.5625 56 51.78125 48.09375 
Q 58.015625 40.1875 58.015625 27.296875 
Q 58.015625 14.40625 51.78125 6.484375 
Q 45.5625 -1.421875 35.59375 -1.421875 
Q 29.59375 -1.421875 25.265625 0.953125 
Q 20.953125 3.328125 18.109375 8.203125 
z
M 48.6875 27.296875 
Q 48.6875 37.203125 44.609375 42.84375 
Q 40.53125 48.484375 33.40625 48.484375 
Q 26.265625 48.484375 22.1875 42.84375 
Q 18.109375 37.203125 18.109375 27.296875 
Q 18.109375 17.390625 22.1875 11.75 
Q 26.265625 6.109375 33.40625 6.109375 
Q 40.53125 6.109375 44.609375 11.75 
Q 48.6875 17.390625 48.6875 27.296875 
z
" id="DejaVuSans-112"/>
       <path d="M 32.171875 -5.078125 
Q 28.375 -14.84375 24.75 -17.8125 
Q 21.140625 -20.796875 15.09375 -20.796875 
L 7.90625 -20.796875 
L 7.90625 -13.28125 
L 13.1875 -13.28125 
Q 16.890625 -13.28125 18.9375 -11.515625 
Q 21 -9.765625 23.484375 -3.21875 
L 25.09375 0.875 
L 2.984375 54.6875 
L 12.5 54.6875 
L 29.59375 11.921875 
L 46.6875 54.6875 
L 56.203125 54.6875 
z
" id="DejaVuSans-121"/>
      </defs>
      <use xlink:href="#DejaVuSans-101"/>
      <use x="61.523438" xlink:href="#DejaVuSans-115"/>
      <use x="113.623047" xlink:href="#DejaVuSans-112"/>
      <use x="177.099609" xlink:href="#DejaVuSans-101"/>
      <use x="238.623047" xlink:href="#DejaVuSans-99"/>
      <use x="293.603516" xlink:href="#DejaVuSans-105"/>
      <use x="321.386719" xlink:href="#DejaVuSans-97"/>
      <use x="382.666016" xlink:href="#DejaVuSans-108"/>
      <use x="410.449219" xlink:href="#DejaVuSans-108"/>
      <use x="438.232422" xlink:href="#DejaVuSans-121"/>
     </g>
    </g>
   </g>
   <g id="text_54">
    <g clip-path="url(#pc55fea0a21)">
     <!-- on -->
     <g transform="translate(424.438542 282.759375)scale(0.1 -0.1)">
      <use xlink:href="#DejaVuSans-111"/>
      <use x="61.181641" xlink:href="#DejaVuSans-110"/>
     </g>
    </g>
   </g>
   <g id="text_55">
    <g clip-path="url(#pc55fea0a21)">
     <!-- vehicles -->
     <g transform="translate(460.920052 282.759375)scale(0.1 -0.1)">
      <defs>
       <path d="M 2.984375 54.6875 
L 12.5 54.6875 
L 29.59375 8.796875 
L 46.6875 54.6875 
L 56.203125 54.6875 
L 35.6875 0 
L 23.484375 0 
z
" id="DejaVuSans-118"/>
      </defs>
      <use xlink:href="#DejaVuSans-118"/>
      <use x="59.179688" xlink:href="#DejaVuSans-101"/>
      <use x="120.703125" xlink:href="#DejaVuSans-104"/>
      <use x="184.082031" xlink:href="#DejaVuSans-105"/>
      <use x="211.865234" xlink:href="#DejaVuSans-99"/>
      <use x="266.845703" xlink:href="#DejaVuSans-108"/>
      <use x="294.628906" xlink:href="#DejaVuSans-101"/>
      <use x="356.152344" xlink:href="#DejaVuSans-115"/>
     </g>
    </g>
   </g>
   <g id="text_56">
    <g clip-path="url(#pc55fea0a21)">
     <!-- . -->
     <g transform="translate(530.410937 282.759375)scale(0.1 -0.1)">
      <defs>
       <path d="M 10.6875 12.40625 
L 21 12.40625 
L 21 0 
L 10.6875 0 
z
" id="DejaVuSans-46"/>
      </defs>
      <use xlink:href="#DejaVuSans-46"/>
     </g>
    </g>
   </g>
  </g>
 </g>
 <defs>
  <clipPath id="pc55fea0a21">
   <rect height="293.333333" width="557.333333" x="0" y="0"/>
  </clipPath>
 </defs>
</svg>
