<?xml version="1.0" encoding="utf-8" standalone="no"?>
<!DOCTYPE svg PUBLIC "-//W3C//DTD SVG 1.1//EN"
  "http://www.w3.org/Graphics/SVG/1.1/DTD/svg11.dtd">
<!-- Created with matplotlib (https://matplotlib.org/) -->
<svg height="426.666667pt" version="1.1" viewBox="0 0 810.666667 426.666667" width="810.666667pt" xmlns="http://www.w3.org/2000/svg" xmlns:xlink="http://www.w3.org/1999/xlink">
 <metadata>
  <rdf:RDF xmlns:cc="http://creativecommons.org/ns#" xmlns:dc="http://purl.org/dc/elements/1.1/" xmlns:rdf="http://www.w3.org/1999/02/22-rdf-syntax-ns#">
   <cc:Work>
    <dc:type rdf:resource="http://purl.org/dc/dcmitype/StillImage"/>
    <dc:date>2021-05-19T11:42:04.096503</dc:date>
    <dc:format>image/svg+xml</dc:format>
    <dc:creator>
     <cc:Agent>
      <dc:title>Matplotlib v3.3.4, https://matplotlib.org/</dc:title>
     </cc:Agent>
    </dc:creator>
   </cc:Work>
  </rdf:RDF>
 </metadata>
 <defs>
  <style type="text/css">*{stroke-linecap:butt;stroke-linejoin:round;}</style>
 </defs>
 <g id="figure_1">
  <g id="patch_1">
   <path d="M 0 426.666667 
L 810.666667 426.666667 
L 810.666667 0 
L 0 0 
z
" style="fill:#ffffff;"/>
  </g>
  <g id="axes_1">
   <g id="LineCollection_1">
    <path clip-path="url(#p4515facc3b)" d="M 325.494949 19.393939 
L 85.979798 393.266815 
" style="fill:none;stroke:#000000;"/>
    <path clip-path="url(#p4515facc3b)" d="M 325.494949 19.393939 
L 184.242424 379.260903 
" style="fill:none;stroke:#000000;"/>
    <path clip-path="url(#p4515facc3b)" d="M 325.494949 19.393939 
L 571.151515 365.060153 
" style="fill:none;stroke:#000000;"/>
    <path clip-path="url(#p4515facc3b)" d="M 325.494949 19.393939 
L 331.636364 393.266815 
" style="fill:none;stroke:#000000;"/>
    <path clip-path="url(#p4515facc3b)" d="M 325.494949 19.393939 
L 380.767677 393.266815 
" style="fill:none;stroke:#000000;"/>
    <path clip-path="url(#p4515facc3b)" d="M 325.494949 19.393939 
L 626.424242 393.266815 
" style="fill:none;stroke:#000000;"/>
    <path clip-path="url(#p4515facc3b)" d="M 325.494949 19.393939 
L 675.555556 393.266815 
" style="fill:none;stroke:#000000;"/>
    <path clip-path="url(#p4515facc3b)" d="M 325.494949 19.393939 
L 36.848485 45.362329 
" style="fill:none;stroke:#000000;"/>
    <path clip-path="url(#p4515facc3b)" d="M 325.494949 19.393939 
L 36.848485 393.266815 
" style="fill:none;stroke:#000000;stroke-dasharray:3.7,1.6;stroke-dashoffset:0;"/>
    <path clip-path="url(#p4515facc3b)" d="M 85.979798 393.266815 
L 85.979798 407.272727 
" style="fill:none;stroke:#000000;"/>
    <path clip-path="url(#p4515facc3b)" d="M 184.242424 379.260903 
L 135.111111 393.266815 
" style="fill:none;stroke:#000000;"/>
    <path clip-path="url(#p4515facc3b)" d="M 184.242424 379.260903 
L 184.242424 393.266815 
" style="fill:none;stroke:#000000;"/>
    <path clip-path="url(#p4515facc3b)" d="M 184.242424 379.260903 
L 233.373737 393.266815 
" style="fill:none;stroke:#000000;"/>
    <path clip-path="url(#p4515facc3b)" d="M 571.151515 365.060153 
L 282.505051 393.266815 
" style="fill:none;stroke:#000000;"/>
    <path clip-path="url(#p4515facc3b)" d="M 571.151515 365.060153 
L 503.59596 379.260903 
" style="fill:none;stroke:#000000;"/>
    <path clip-path="url(#p4515facc3b)" d="M 571.151515 365.060153 
L 724.686869 393.266815 
" style="fill:none;stroke:#000000;"/>
    <path clip-path="url(#p4515facc3b)" d="M 571.151515 365.060153 
L 773.818182 393.266815 
" style="fill:none;stroke:#000000;"/>
    <path clip-path="url(#p4515facc3b)" d="M 331.636364 393.266815 
L 331.636364 407.272727 
" style="fill:none;stroke:#000000;"/>
    <path clip-path="url(#p4515facc3b)" d="M 380.767677 393.266815 
L 380.767677 407.272727 
" style="fill:none;stroke:#000000;"/>
    <path clip-path="url(#p4515facc3b)" d="M 626.424242 393.266815 
L 626.424242 407.272727 
" style="fill:none;stroke:#000000;"/>
    <path clip-path="url(#p4515facc3b)" d="M 675.555556 393.266815 
L 675.555556 407.272727 
" style="fill:none;stroke:#000000;"/>
    <path clip-path="url(#p4515facc3b)" d="M 36.848485 45.362329 
L 36.848485 70.25971 
" style="fill:none;stroke:#000000;"/>
    <path clip-path="url(#p4515facc3b)" d="M 135.111111 393.266815 
L 135.111111 407.272727 
" style="fill:none;stroke:#000000;"/>
    <path clip-path="url(#p4515facc3b)" d="M 184.242424 393.266815 
L 184.242424 407.272727 
" style="fill:none;stroke:#000000;"/>
    <path clip-path="url(#p4515facc3b)" d="M 233.373737 393.266815 
L 233.373737 407.272727 
" style="fill:none;stroke:#000000;"/>
    <path clip-path="url(#p4515facc3b)" d="M 282.505051 393.266815 
L 282.505051 407.272727 
" style="fill:none;stroke:#000000;"/>
    <path clip-path="url(#p4515facc3b)" d="M 503.59596 379.260903 
L 429.89899 393.266815 
" style="fill:none;stroke:#000000;"/>
    <path clip-path="url(#p4515facc3b)" d="M 503.59596 379.260903 
L 479.030303 393.266815 
" style="fill:none;stroke:#000000;"/>
    <path clip-path="url(#p4515facc3b)" d="M 503.59596 379.260903 
L 528.161616 393.266815 
" style="fill:none;stroke:#000000;"/>
    <path clip-path="url(#p4515facc3b)" d="M 503.59596 379.260903 
L 577.292929 393.266815 
" style="fill:none;stroke:#000000;"/>
    <path clip-path="url(#p4515facc3b)" d="M 724.686869 393.266815 
L 724.686869 407.272727 
" style="fill:none;stroke:#000000;"/>
    <path clip-path="url(#p4515facc3b)" d="M 773.818182 393.266815 
L 773.818182 407.272727 
" style="fill:none;stroke:#000000;"/>
    <path clip-path="url(#p4515facc3b)" d="M 36.848485 70.25971 
L 36.848485 94.147535 
" style="fill:none;stroke:#000000;"/>
    <path clip-path="url(#p4515facc3b)" d="M 429.89899 393.266815 
L 429.89899 407.272727 
" style="fill:none;stroke:#000000;"/>
    <path clip-path="url(#p4515facc3b)" d="M 479.030303 393.266815 
L 479.030303 407.272727 
" style="fill:none;stroke:#000000;"/>
    <path clip-path="url(#p4515facc3b)" d="M 528.161616 393.266815 
L 528.161616 407.272727 
" style="fill:none;stroke:#000000;"/>
    <path clip-path="url(#p4515facc3b)" d="M 577.292929 393.266815 
L 577.292929 407.272727 
" style="fill:none;stroke:#000000;"/>
    <path clip-path="url(#p4515facc3b)" d="M 36.848485 94.147535 
L 36.848485 117.083883 
" style="fill:none;stroke:#000000;"/>
    <path clip-path="url(#p4515facc3b)" d="M 36.848485 117.083883 
L 36.848485 139.123723 
" style="fill:none;stroke:#000000;"/>
    <path clip-path="url(#p4515facc3b)" d="M 36.848485 139.123723 
L 36.848485 160.319179 
" style="fill:none;stroke:#000000;"/>
    <path clip-path="url(#p4515facc3b)" d="M 36.848485 160.319179 
L 36.848485 180.719776 
" style="fill:none;stroke:#000000;"/>
    <path clip-path="url(#p4515facc3b)" d="M 36.848485 180.719776 
L 36.848485 200.37269 
" style="fill:none;stroke:#000000;"/>
    <path clip-path="url(#p4515facc3b)" d="M 36.848485 200.37269 
L 36.848485 219.323001 
" style="fill:none;stroke:#000000;"/>
    <path clip-path="url(#p4515facc3b)" d="M 36.848485 219.323001 
L 36.848485 237.613948 
" style="fill:none;stroke:#000000;"/>
    <path clip-path="url(#p4515facc3b)" d="M 36.848485 237.613948 
L 36.848485 255.287206 
" style="fill:none;stroke:#000000;"/>
    <path clip-path="url(#p4515facc3b)" d="M 36.848485 255.287206 
L 36.848485 272.383198 
" style="fill:none;stroke:#000000;"/>
    <path clip-path="url(#p4515facc3b)" d="M 36.848485 272.383198 
L 36.848485 288.941446 
" style="fill:none;stroke:#000000;"/>
    <path clip-path="url(#p4515facc3b)" d="M 36.848485 288.941446 
L 36.848485 305.001024 
" style="fill:none;stroke:#000000;"/>
    <path clip-path="url(#p4515facc3b)" d="M 36.848485 305.001024 
L 36.848485 320.601138 
" style="fill:none;stroke:#000000;"/>
    <path clip-path="url(#p4515facc3b)" d="M 36.848485 320.601138 
L 36.848485 335.781963 
" style="fill:none;stroke:#000000;"/>
    <path clip-path="url(#p4515facc3b)" d="M 36.848485 335.781963 
L 36.848485 350.585957 
" style="fill:none;stroke:#000000;"/>
    <path clip-path="url(#p4515facc3b)" d="M 36.848485 350.585957 
L 36.848485 365.060153 
" style="fill:none;stroke:#000000;"/>
    <path clip-path="url(#p4515facc3b)" d="M 36.848485 365.060153 
L 36.848485 379.260903 
" style="fill:none;stroke:#000000;"/>
    <path clip-path="url(#p4515facc3b)" d="M 36.848485 379.260903 
L 36.848485 393.266815 
" style="fill:none;stroke:#000000;"/>
    <path clip-path="url(#p4515facc3b)" d="M 36.848485 393.266815 
L 36.848485 407.272727 
" style="fill:none;stroke:#000000;"/>
   </g>
   <g id="text_1">
    <g id="patch_2">
     <path clip-path="url(#p4515facc3b)" d="M 209.776921 211.650481 
L 212.258981 207.776093 
Q 213.553616 205.755222 211.532746 204.460587 
L 205.013332 200.284038 
Q 202.992462 198.989402 201.697826 201.010273 
L 199.215767 204.884661 
Q 197.921131 206.905532 199.942002 208.200168 
L 206.461415 212.376716 
Q 208.482286 213.671352 209.776921 211.650481 
z
" style="fill:#ffffff;stroke:#ffffff;stroke-linejoin:miter;"/>
    </g>
    <g clip-path="url(#p4515facc3b)">
     <!-- F -->
     <g transform="translate(206.355124 209.458366)rotate(-57.355051)scale(0.08 -0.08)">
      <defs>
       <path d="M 9.8125 72.90625 
L 51.703125 72.90625 
L 51.703125 64.59375 
L 19.671875 64.59375 
L 19.671875 43.109375 
L 48.578125 43.109375 
L 48.578125 34.8125 
L 19.671875 34.8125 
L 19.671875 0 
L 9.8125 0 
z
" id="DejaVuSans-70"/>
      </defs>
      <use xlink:href="#DejaVuSans-70"/>
     </g>
    </g>
   </g>
   <g id="text_2">
    <g id="patch_3">
     <path clip-path="url(#p4515facc3b)" d="M 259.706588 204.165846 
L 261.706103 199.071712 
Q 262.583003 196.837647 260.348938 195.960747 
L 253.141751 193.131831 
Q 250.907686 192.254931 250.030786 194.488996 
L 248.031271 199.58313 
Q 247.154371 201.817195 249.388436 202.694095 
L 256.595623 205.523011 
Q 258.829688 206.399911 259.706588 204.165846 
z
" style="fill:#ffffff;stroke:#ffffff;stroke-linejoin:miter;"/>
    </g>
    <g clip-path="url(#p4515facc3b)">
     <!-- A -->
     <g transform="translate(255.923804 202.681053)rotate(-68.569338)scale(0.08 -0.08)">
      <defs>
       <path d="M 34.1875 63.1875 
L 20.796875 26.90625 
L 47.609375 26.90625 
z
M 28.609375 72.90625 
L 39.796875 72.90625 
L 67.578125 0 
L 57.328125 0 
L 50.6875 18.703125 
L 17.828125 18.703125 
L 11.1875 0 
L 0.78125 0 
z
" id="DejaVuSans-65"/>
      </defs>
      <use xlink:href="#DejaVuSans-65"/>
     </g>
    </g>
   </g>
   <g id="text_3">
    <g id="patch_4">
     <path clip-path="url(#p4515facc3b)" d="M 441.740363 193.790003 
L 444.682422 197.929809 
Q 446.072713 199.886104 448.029008 198.495813 
L 454.340098 194.010675 
Q 456.296393 192.620384 454.906101 190.664089 
L 451.964042 186.524283 
Q 450.573751 184.567988 448.617456 185.95828 
L 442.306367 190.443417 
Q 440.350072 191.833708 441.740363 193.790003 
z
" style="fill:#ffffff;stroke:#ffffff;stroke-linejoin:miter;"/>
    </g>
    <g clip-path="url(#p4515facc3b)">
     <!-- S -->
     <g transform="translate(445.052819 191.435922)rotate(-305.400482)scale(0.08 -0.08)">
      <defs>
       <path d="M 53.515625 70.515625 
L 53.515625 60.890625 
Q 47.90625 63.578125 42.921875 64.890625 
Q 37.9375 66.21875 33.296875 66.21875 
Q 25.25 66.21875 20.875 63.09375 
Q 16.5 59.96875 16.5 54.203125 
Q 16.5 49.359375 19.40625 46.890625 
Q 22.3125 44.4375 30.421875 42.921875 
L 36.375 41.703125 
Q 47.40625 39.59375 52.65625 34.296875 
Q 57.90625 29 57.90625 20.125 
Q 57.90625 9.515625 50.796875 4.046875 
Q 43.703125 -1.421875 29.984375 -1.421875 
Q 24.8125 -1.421875 18.96875 -0.25 
Q 13.140625 0.921875 6.890625 3.21875 
L 6.890625 13.375 
Q 12.890625 10.015625 18.65625 8.296875 
Q 24.421875 6.59375 29.984375 6.59375 
Q 38.421875 6.59375 43.015625 9.90625 
Q 47.609375 13.234375 47.609375 19.390625 
Q 47.609375 24.75 44.3125 27.78125 
Q 41.015625 30.8125 33.5 32.328125 
L 27.484375 33.5 
Q 16.453125 35.6875 11.515625 40.375 
Q 6.59375 45.0625 6.59375 53.421875 
Q 6.59375 63.09375 13.40625 68.65625 
Q 20.21875 74.21875 32.171875 74.21875 
Q 37.3125 74.21875 42.625 73.28125 
Q 47.953125 72.359375 53.515625 70.515625 
z
" id="DejaVuSans-83"/>
      </defs>
      <use xlink:href="#DejaVuSans-83"/>
     </g>
    </g>
   </g>
   <g id="text_4">
    <g id="patch_5">
     <path clip-path="url(#p4515facc3b)" d="M 322.257466 204.133063 
L 322.333039 208.733693 
Q 322.372457 211.133369 324.772133 211.093951 
L 332.513589 210.966786 
Q 334.913265 210.927367 334.873847 208.527691 
L 334.798275 203.927062 
Q 334.758856 201.527386 332.35918 201.566804 
L 324.617724 201.693969 
Q 322.218048 201.733387 322.257466 204.133063 
z
" style="fill:#ffffff;stroke:#ffffff;stroke-linejoin:miter;"/>
    </g>
    <g clip-path="url(#p4515facc3b)">
     <!-- F -->
     <g transform="translate(326.320668 204.066319)rotate(-270.941083)scale(0.08 -0.08)">
      <use xlink:href="#DejaVuSans-70"/>
     </g>
    </g>
   </g>
   <g id="text_5">
    <g id="patch_6">
     <path clip-path="url(#p4515facc3b)" d="M 346.519002 204.484447 
L 347.335983 210.010632 
Q 347.68698 212.384827 350.061175 212.03383 
L 357.720427 210.9015 
Q 360.094622 210.550503 359.743625 208.176308 
L 358.926643 202.650122 
Q 358.575646 200.275927 356.201451 200.626924 
L 348.5422 201.759255 
Q 346.168005 202.110252 346.519002 204.484447 
z
" style="fill:#ffffff;stroke:#ffffff;stroke-linejoin:miter;"/>
    </g>
    <g clip-path="url(#p4515facc3b)">
     <!-- C -->
     <g transform="translate(350.539058 203.890128)rotate(-278.409596)scale(0.08 -0.08)">
      <defs>
       <path d="M 64.40625 67.28125 
L 64.40625 56.890625 
Q 59.421875 61.53125 53.78125 63.8125 
Q 48.140625 66.109375 41.796875 66.109375 
Q 29.296875 66.109375 22.65625 58.46875 
Q 16.015625 50.828125 16.015625 36.375 
Q 16.015625 21.96875 22.65625 14.328125 
Q 29.296875 6.6875 41.796875 6.6875 
Q 48.140625 6.6875 53.78125 8.984375 
Q 59.421875 11.28125 64.40625 15.921875 
L 64.40625 5.609375 
Q 59.234375 2.09375 53.4375 0.328125 
Q 47.65625 -1.421875 41.21875 -1.421875 
Q 24.65625 -1.421875 15.125 8.703125 
Q 5.609375 18.84375 5.609375 36.375 
Q 5.609375 53.953125 15.125 64.078125 
Q 24.65625 74.21875 41.21875 74.21875 
Q 47.75 74.21875 53.53125 72.484375 
Q 59.328125 70.75 64.40625 67.28125 
z
" id="DejaVuSans-67"/>
      </defs>
      <use xlink:href="#DejaVuSans-67"/>
     </g>
    </g>
   </g>
   <g id="text_6">
    <g id="patch_7">
     <path clip-path="url(#p4515facc3b)" d="M 469.358586 208.131017 
L 472.789944 212.394118 
Q 474.294789 214.263728 476.164399 212.758884 
L 482.19584 207.904193 
Q 484.065451 206.399348 482.560606 204.529738 
L 479.129247 200.266637 
Q 477.624403 198.397026 475.754793 199.901871 
L 469.723351 204.756562 
Q 467.853741 206.261406 469.358586 208.131017 
z
" style="fill:#ffffff;stroke:#ffffff;stroke-linejoin:miter;"/>
    </g>
    <g clip-path="url(#p4515facc3b)">
     <!-- A -->
     <g transform="translate(472.524264 205.58297)rotate(-308.830497)scale(0.08 -0.08)">
      <use xlink:href="#DejaVuSans-65"/>
     </g>
    </g>
   </g>
   <g id="text_7">
    <g id="patch_8">
     <path clip-path="url(#p4515facc3b)" d="M 494.077256 208.619258 
L 497.817591 212.614023 
Q 499.457939 214.365953 501.209869 212.725605 
L 506.861668 207.433774 
Q 508.613597 205.793426 506.973249 204.041496 
L 503.232914 200.046731 
Q 501.592566 198.294801 499.840636 199.935149 
L 494.188837 205.22698 
Q 492.436908 206.867328 494.077256 208.619258 
z
" style="fill:#ffffff;stroke:#ffffff;stroke-linejoin:miter;"/>
    </g>
    <g clip-path="url(#p4515facc3b)">
     <!-- A -->
     <g transform="translate(497.043674 205.841773)rotate(-313.116055)scale(0.08 -0.08)">
      <use xlink:href="#DejaVuSans-65"/>
     </g>
    </g>
   </g>
   <g id="text_8">
    <g id="patch_9">
     <path clip-path="url(#p4515facc3b)" d="M 179.331474 38.840272 
L 184.135821 38.408044 
Q 186.526166 38.192994 186.311116 35.802648 
L 185.617356 28.091292 
Q 185.402306 25.700946 183.01196 25.915996 
L 178.207614 26.348224 
Q 175.817268 26.563275 176.032318 28.95362 
L 176.726078 36.664976 
Q 176.941128 39.055322 179.331474 38.840272 
z
" style="fill:#ffffff;stroke:#ffffff;stroke-linejoin:miter;"/>
    </g>
    <g clip-path="url(#p4515facc3b)">
     <!-- P -->
     <g transform="translate(178.967345 34.792868)rotate(-5.140836)scale(0.08 -0.08)">
      <defs>
       <path d="M 19.671875 64.796875 
L 19.671875 37.40625 
L 32.078125 37.40625 
Q 38.96875 37.40625 42.71875 40.96875 
Q 46.484375 44.53125 46.484375 51.125 
Q 46.484375 57.671875 42.71875 61.234375 
Q 38.96875 64.796875 32.078125 64.796875 
z
M 9.8125 72.90625 
L 32.078125 72.90625 
Q 44.34375 72.90625 50.609375 67.359375 
Q 56.890625 61.8125 56.890625 51.125 
Q 56.890625 40.328125 50.609375 34.8125 
Q 44.34375 29.296875 32.078125 29.296875 
L 19.671875 29.296875 
L 19.671875 0 
L 9.8125 0 
z
" id="DejaVuSans-80"/>
      </defs>
      <use xlink:href="#DejaVuSans-80"/>
     </g>
    </g>
   </g>
   <g id="text_9">
    <g id="patch_10">
     <path clip-path="url(#p4515facc3b)" d="M 184.463556 212.328664 
L 187.80785 207.996926 
Q 189.274511 206.097214 187.3748 204.630553 
L 181.246252 199.899041 
Q 179.34654 198.432379 177.879879 200.332091 
L 174.535584 204.663829 
Q 173.068923 206.56354 174.968634 208.030202 
L 181.097183 212.761713 
Q 182.996894 214.228375 184.463556 212.328664 
z
" style="fill:#ffffff;stroke:#ffffff;stroke-linejoin:miter;"/>
    </g>
    <g clip-path="url(#p4515facc3b)">
     <!-- A -->
     <g transform="translate(181.246909 209.845269)rotate(-52.330265)scale(0.08 -0.08)">
      <use xlink:href="#DejaVuSans-65"/>
     </g>
    </g>
   </g>
   <g id="text_10">
    <g id="patch_11">
     <path clip-path="url(#p4515facc3b)" d="M 79.708548 383.366021 
L 79.708548 417.173521 
Q 79.708548 419.573521 82.108548 419.573521 
L 89.851048 419.573521 
Q 92.251048 419.573521 92.251048 417.173521 
L 92.251048 383.366021 
Q 92.251048 380.966021 89.851048 380.966021 
L 82.108548 380.966021 
Q 79.708548 380.966021 79.708548 383.366021 
z
" style="fill:#ffffff;stroke:#ffffff;stroke-linejoin:miter;"/>
    </g>
    <g clip-path="url(#p4515facc3b)">
     <!-- Terminal -->
     <g transform="translate(83.772298 383.366021)rotate(-270)scale(0.08 -0.08)">
      <defs>
       <path d="M -0.296875 72.90625 
L 61.375 72.90625 
L 61.375 64.59375 
L 35.5 64.59375 
L 35.5 0 
L 25.59375 0 
L 25.59375 64.59375 
L -0.296875 64.59375 
z
" id="DejaVuSans-84"/>
       <path d="M 56.203125 29.59375 
L 56.203125 25.203125 
L 14.890625 25.203125 
Q 15.484375 15.921875 20.484375 11.0625 
Q 25.484375 6.203125 34.421875 6.203125 
Q 39.59375 6.203125 44.453125 7.46875 
Q 49.3125 8.734375 54.109375 11.28125 
L 54.109375 2.78125 
Q 49.265625 0.734375 44.1875 -0.34375 
Q 39.109375 -1.421875 33.890625 -1.421875 
Q 20.796875 -1.421875 13.15625 6.1875 
Q 5.515625 13.8125 5.515625 26.8125 
Q 5.515625 40.234375 12.765625 48.109375 
Q 20.015625 56 32.328125 56 
Q 43.359375 56 49.78125 48.890625 
Q 56.203125 41.796875 56.203125 29.59375 
z
M 47.21875 32.234375 
Q 47.125 39.59375 43.09375 43.984375 
Q 39.0625 48.390625 32.421875 48.390625 
Q 24.90625 48.390625 20.390625 44.140625 
Q 15.875 39.890625 15.1875 32.171875 
z
" id="DejaVuSans-101"/>
       <path d="M 41.109375 46.296875 
Q 39.59375 47.171875 37.8125 47.578125 
Q 36.03125 48 33.890625 48 
Q 26.265625 48 22.1875 43.046875 
Q 18.109375 38.09375 18.109375 28.8125 
L 18.109375 0 
L 9.078125 0 
L 9.078125 54.6875 
L 18.109375 54.6875 
L 18.109375 46.1875 
Q 20.953125 51.171875 25.484375 53.578125 
Q 30.03125 56 36.53125 56 
Q 37.453125 56 38.578125 55.875 
Q 39.703125 55.765625 41.0625 55.515625 
z
" id="DejaVuSans-114"/>
       <path d="M 52 44.1875 
Q 55.375 50.25 60.0625 53.125 
Q 64.75 56 71.09375 56 
Q 79.640625 56 84.28125 50.015625 
Q 88.921875 44.046875 88.921875 33.015625 
L 88.921875 0 
L 79.890625 0 
L 79.890625 32.71875 
Q 79.890625 40.578125 77.09375 44.375 
Q 74.3125 48.1875 68.609375 48.1875 
Q 61.625 48.1875 57.5625 43.546875 
Q 53.515625 38.921875 53.515625 30.90625 
L 53.515625 0 
L 44.484375 0 
L 44.484375 32.71875 
Q 44.484375 40.625 41.703125 44.40625 
Q 38.921875 48.1875 33.109375 48.1875 
Q 26.21875 48.1875 22.15625 43.53125 
Q 18.109375 38.875 18.109375 30.90625 
L 18.109375 0 
L 9.078125 0 
L 9.078125 54.6875 
L 18.109375 54.6875 
L 18.109375 46.1875 
Q 21.1875 51.21875 25.484375 53.609375 
Q 29.78125 56 35.6875 56 
Q 41.65625 56 45.828125 52.96875 
Q 50 49.953125 52 44.1875 
z
" id="DejaVuSans-109"/>
       <path d="M 9.421875 54.6875 
L 18.40625 54.6875 
L 18.40625 0 
L 9.421875 0 
z
M 9.421875 75.984375 
L 18.40625 75.984375 
L 18.40625 64.59375 
L 9.421875 64.59375 
z
" id="DejaVuSans-105"/>
       <path d="M 54.890625 33.015625 
L 54.890625 0 
L 45.90625 0 
L 45.90625 32.71875 
Q 45.90625 40.484375 42.875 44.328125 
Q 39.84375 48.1875 33.796875 48.1875 
Q 26.515625 48.1875 22.3125 43.546875 
Q 18.109375 38.921875 18.109375 30.90625 
L 18.109375 0 
L 9.078125 0 
L 9.078125 54.6875 
L 18.109375 54.6875 
L 18.109375 46.1875 
Q 21.34375 51.125 25.703125 53.5625 
Q 30.078125 56 35.796875 56 
Q 45.21875 56 50.046875 50.171875 
Q 54.890625 44.34375 54.890625 33.015625 
z
" id="DejaVuSans-110"/>
       <path d="M 34.28125 27.484375 
Q 23.390625 27.484375 19.1875 25 
Q 14.984375 22.515625 14.984375 16.5 
Q 14.984375 11.71875 18.140625 8.90625 
Q 21.296875 6.109375 26.703125 6.109375 
Q 34.1875 6.109375 38.703125 11.40625 
Q 43.21875 16.703125 43.21875 25.484375 
L 43.21875 27.484375 
z
M 52.203125 31.203125 
L 52.203125 0 
L 43.21875 0 
L 43.21875 8.296875 
Q 40.140625 3.328125 35.546875 0.953125 
Q 30.953125 -1.421875 24.3125 -1.421875 
Q 15.921875 -1.421875 10.953125 3.296875 
Q 6 8.015625 6 15.921875 
Q 6 25.140625 12.171875 29.828125 
Q 18.359375 34.515625 30.609375 34.515625 
L 43.21875 34.515625 
L 43.21875 35.40625 
Q 43.21875 41.609375 39.140625 45 
Q 35.0625 48.390625 27.6875 48.390625 
Q 23 48.390625 18.546875 47.265625 
Q 14.109375 46.140625 10.015625 43.890625 
L 10.015625 52.203125 
Q 14.9375 54.109375 19.578125 55.046875 
Q 24.21875 56 28.609375 56 
Q 40.484375 56 46.34375 49.84375 
Q 52.203125 43.703125 52.203125 31.203125 
z
" id="DejaVuSans-97"/>
       <path d="M 9.421875 75.984375 
L 18.40625 75.984375 
L 18.40625 0 
L 9.421875 0 
z
" id="DejaVuSans-108"/>
      </defs>
      <use xlink:href="#DejaVuSans-84"/>
      <use x="44.083984" xlink:href="#DejaVuSans-101"/>
      <use x="105.607422" xlink:href="#DejaVuSans-114"/>
      <use x="144.970703" xlink:href="#DejaVuSans-109"/>
      <use x="242.382812" xlink:href="#DejaVuSans-105"/>
      <use x="270.166016" xlink:href="#DejaVuSans-110"/>
      <use x="333.544922" xlink:href="#DejaVuSans-97"/>
      <use x="394.824219" xlink:href="#DejaVuSans-108"/>
     </g>
    </g>
   </g>
   <g id="text_11">
    <g id="patch_12">
     <path clip-path="url(#p4515facc3b)" d="M 158.965361 392.987752 
L 163.82669 391.601928 
Q 166.134739 390.94397 165.476781 388.635921 
L 163.354182 381.190058 
Q 162.696224 378.882008 160.388174 379.539966 
L 155.526846 380.92579 
Q 153.218796 381.583748 153.876754 383.891797 
L 155.999354 391.33766 
Q 156.657312 393.645709 158.965361 392.987752 
z
" style="fill:#ffffff;stroke:#ffffff;stroke-linejoin:miter;"/>
    </g>
    <g clip-path="url(#p4515facc3b)">
     <!-- E -->
     <g transform="translate(157.851287 389.079695)rotate(-15.911314)scale(0.08 -0.08)">
      <defs>
       <path d="M 9.8125 72.90625 
L 55.90625 72.90625 
L 55.90625 64.59375 
L 19.671875 64.59375 
L 19.671875 43.015625 
L 54.390625 43.015625 
L 54.390625 34.71875 
L 19.671875 34.71875 
L 19.671875 8.296875 
L 56.78125 8.296875 
L 56.78125 0 
L 9.8125 0 
z
" id="DejaVuSans-69"/>
      </defs>
      <use xlink:href="#DejaVuSans-69"/>
     </g>
    </g>
   </g>
   <g id="text_12">
    <g id="patch_13">
     <path clip-path="url(#p4515facc3b)" d="M 177.971174 383.736359 
L 177.971174 388.791359 
Q 177.971174 391.191359 180.371174 391.191359 
L 188.113674 391.191359 
Q 190.513674 391.191359 190.513674 388.791359 
L 190.513674 383.736359 
Q 190.513674 381.336359 188.113674 381.336359 
L 180.371174 381.336359 
Q 177.971174 381.336359 177.971174 383.736359 
z
" style="fill:#ffffff;stroke:#ffffff;stroke-linejoin:miter;"/>
    </g>
    <g clip-path="url(#p4515facc3b)">
     <!-- E -->
     <g transform="translate(182.034924 383.736359)rotate(-270)scale(0.08 -0.08)">
      <use xlink:href="#DejaVuSans-69"/>
     </g>
    </g>
   </g>
   <g id="text_13">
    <g id="patch_14">
     <path clip-path="url(#p4515facc3b)" d="M 204.402711 391.529107 
L 209.774936 393.060572 
Q 212.082985 393.71853 212.740943 391.410481 
L 214.863542 383.964618 
Q 215.5215 381.656569 213.213451 380.998611 
L 207.841226 379.467145 
Q 205.533177 378.809187 204.875219 381.117237 
L 202.752619 388.5631 
Q 202.094661 390.871149 204.402711 391.529107 
z
" style="fill:#ffffff;stroke:#ffffff;stroke-linejoin:miter;"/>
    </g>
    <g clip-path="url(#p4515facc3b)">
     <!-- C -->
     <g transform="translate(205.516784 387.621051)rotate(-344.088686)scale(0.08 -0.08)">
      <use xlink:href="#DejaVuSans-67"/>
     </g>
    </g>
   </g>
   <g id="text_14">
    <g id="patch_15">
     <path clip-path="url(#p4515facc3b)" d="M 424.658323 385.676655 
L 430.218091 385.133352 
Q 432.606713 384.899935 432.373296 382.511313 
L 431.620282 374.805518 
Q 431.386865 372.416895 428.998242 372.650313 
L 423.438475 373.193616 
Q 421.049853 373.427033 421.28327 375.815655 
L 422.036284 383.52145 
Q 422.269701 385.910072 424.658323 385.676655 
z
" style="fill:#ffffff;stroke:#ffffff;stroke-linejoin:miter;"/>
    </g>
    <g clip-path="url(#p4515facc3b)">
     <!-- C -->
     <g transform="translate(424.263094 381.63217)rotate(-5.581249)scale(0.08 -0.08)">
      <use xlink:href="#DejaVuSans-67"/>
     </g>
    </g>
   </g>
   <g id="text_15">
    <g id="patch_16">
     <path clip-path="url(#p4515facc3b)" d="M 535.986084 378.860532 
L 541.341541 377.73477 
Q 543.690211 377.24106 543.196501 374.89239 
L 541.603771 367.315483 
Q 541.11006 364.966813 538.76139 365.460523 
L 533.405934 366.586286 
Q 531.057264 367.079996 531.550974 369.428666 
L 533.143704 377.005573 
Q 533.637414 379.354243 535.986084 378.860532 
z
" style="fill:#ffffff;stroke:#ffffff;stroke-linejoin:miter;"/>
    </g>
    <g clip-path="url(#p4515facc3b)">
     <!-- A -->
     <g transform="translate(535.15012 374.883696)rotate(-11.871219)scale(0.08 -0.08)">
      <use xlink:href="#DejaVuSans-65"/>
     </g>
    </g>
   </g>
   <g id="text_16">
    <g id="patch_17">
     <path clip-path="url(#p4515facc3b)" d="M 644.038886 384.826818 
L 649.533187 385.8362 
Q 651.893683 386.269858 652.32734 383.909362 
L 653.726336 376.294303 
Q 654.159993 373.933807 651.799497 373.50015 
L 646.305197 372.490767 
Q 643.944701 372.05711 643.511044 374.417606 
L 642.112048 382.032665 
Q 641.67839 384.393161 644.038886 384.826818 
z
" style="fill:#ffffff;stroke:#ffffff;stroke-linejoin:miter;"/>
    </g>
    <g clip-path="url(#p4515facc3b)">
     <!-- C -->
     <g transform="translate(644.773167 380.829957)rotate(-349.590018)scale(0.08 -0.08)">
      <use xlink:href="#DejaVuSans-67"/>
     </g>
    </g>
   </g>
   <g id="text_17">
    <g id="patch_18">
     <path clip-path="url(#p4515facc3b)" d="M 668.720812 384.971311 
L 674.519915 385.778417 
Q 676.897003 386.109254 677.227841 383.732166 
L 678.295136 376.063582 
Q 678.625973 373.686494 676.248885 373.355657 
L 670.449782 372.548551 
Q 668.072694 372.217714 667.741856 374.594802 
L 666.674561 382.263386 
Q 666.343724 384.640474 668.720812 384.971311 
z
" style="fill:#ffffff;stroke:#ffffff;stroke-linejoin:miter;"/>
    </g>
    <g clip-path="url(#p4515facc3b)">
     <!-- U -->
     <g transform="translate(669.280995 380.946357)rotate(-352.076609)scale(0.08 -0.08)">
      <defs>
       <path d="M 8.6875 72.90625 
L 18.609375 72.90625 
L 18.609375 28.609375 
Q 18.609375 16.890625 22.84375 11.734375 
Q 27.09375 6.59375 36.625 6.59375 
Q 46.09375 6.59375 50.34375 11.734375 
Q 54.59375 16.890625 54.59375 28.609375 
L 54.59375 72.90625 
L 64.5 72.90625 
L 64.5 27.390625 
Q 64.5 13.140625 57.4375 5.859375 
Q 50.390625 -1.421875 36.625 -1.421875 
Q 22.796875 -1.421875 15.734375 5.859375 
Q 8.6875 13.140625 8.6875 27.390625 
z
" id="DejaVuSans-85"/>
      </defs>
      <use xlink:href="#DejaVuSans-85"/>
     </g>
    </g>
   </g>
   <g id="text_18">
    <g id="patch_19">
     <path clip-path="url(#p4515facc3b)" d="M 325.365114 383.366021 
L 325.365114 417.173521 
Q 325.365114 419.573521 327.765114 419.573521 
L 335.507614 419.573521 
Q 337.907614 419.573521 337.907614 417.173521 
L 337.907614 383.366021 
Q 337.907614 380.966021 335.507614 380.966021 
L 327.765114 380.966021 
Q 325.365114 380.966021 325.365114 383.366021 
z
" style="fill:#ffffff;stroke:#ffffff;stroke-linejoin:miter;"/>
    </g>
    <g clip-path="url(#p4515facc3b)">
     <!-- Terminal -->
     <g transform="translate(329.428864 383.366021)rotate(-270)scale(0.08 -0.08)">
      <use xlink:href="#DejaVuSans-84"/>
      <use x="44.083984" xlink:href="#DejaVuSans-101"/>
      <use x="105.607422" xlink:href="#DejaVuSans-114"/>
      <use x="144.970703" xlink:href="#DejaVuSans-109"/>
      <use x="242.382812" xlink:href="#DejaVuSans-105"/>
      <use x="270.166016" xlink:href="#DejaVuSans-110"/>
      <use x="333.544922" xlink:href="#DejaVuSans-97"/>
      <use x="394.824219" xlink:href="#DejaVuSans-108"/>
     </g>
    </g>
   </g>
   <g id="text_19">
    <g id="patch_20">
     <path clip-path="url(#p4515facc3b)" d="M 374.496427 383.366021 
L 374.496427 417.173521 
Q 374.496427 419.573521 376.896427 419.573521 
L 384.638927 419.573521 
Q 387.038927 419.573521 387.038927 417.173521 
L 387.038927 383.366021 
Q 387.038927 380.966021 384.638927 380.966021 
L 376.896427 380.966021 
Q 374.496427 380.966021 374.496427 383.366021 
z
" style="fill:#ffffff;stroke:#ffffff;stroke-linejoin:miter;"/>
    </g>
    <g clip-path="url(#p4515facc3b)">
     <!-- Terminal -->
     <g transform="translate(378.560177 383.366021)rotate(-270)scale(0.08 -0.08)">
      <use xlink:href="#DejaVuSans-84"/>
      <use x="44.083984" xlink:href="#DejaVuSans-101"/>
      <use x="105.607422" xlink:href="#DejaVuSans-114"/>
      <use x="144.970703" xlink:href="#DejaVuSans-109"/>
      <use x="242.382812" xlink:href="#DejaVuSans-105"/>
      <use x="270.166016" xlink:href="#DejaVuSans-110"/>
      <use x="333.544922" xlink:href="#DejaVuSans-97"/>
      <use x="394.824219" xlink:href="#DejaVuSans-108"/>
     </g>
    </g>
   </g>
   <g id="text_20">
    <g id="patch_21">
     <path clip-path="url(#p4515facc3b)" d="M 620.152992 383.366021 
L 620.152992 417.173521 
Q 620.152992 419.573521 622.552992 419.573521 
L 630.295492 419.573521 
Q 632.695492 419.573521 632.695492 417.173521 
L 632.695492 383.366021 
Q 632.695492 380.966021 630.295492 380.966021 
L 622.552992 380.966021 
Q 620.152992 380.966021 620.152992 383.366021 
z
" style="fill:#ffffff;stroke:#ffffff;stroke-linejoin:miter;"/>
    </g>
    <g clip-path="url(#p4515facc3b)">
     <!-- Terminal -->
     <g transform="translate(624.216742 383.366021)rotate(-270)scale(0.08 -0.08)">
      <use xlink:href="#DejaVuSans-84"/>
      <use x="44.083984" xlink:href="#DejaVuSans-101"/>
      <use x="105.607422" xlink:href="#DejaVuSans-114"/>
      <use x="144.970703" xlink:href="#DejaVuSans-109"/>
      <use x="242.382812" xlink:href="#DejaVuSans-105"/>
      <use x="270.166016" xlink:href="#DejaVuSans-110"/>
      <use x="333.544922" xlink:href="#DejaVuSans-97"/>
      <use x="394.824219" xlink:href="#DejaVuSans-108"/>
     </g>
    </g>
   </g>
   <g id="text_21">
    <g id="patch_22">
     <path clip-path="url(#p4515facc3b)" d="M 669.284306 383.366021 
L 669.284306 417.173521 
Q 669.284306 419.573521 671.684306 419.573521 
L 679.426806 419.573521 
Q 681.826806 419.573521 681.826806 417.173521 
L 681.826806 383.366021 
Q 681.826806 380.966021 679.426806 380.966021 
L 671.684306 380.966021 
Q 669.284306 380.966021 669.284306 383.366021 
z
" style="fill:#ffffff;stroke:#ffffff;stroke-linejoin:miter;"/>
    </g>
    <g clip-path="url(#p4515facc3b)">
     <!-- Terminal -->
     <g transform="translate(673.348056 383.366021)rotate(-270)scale(0.08 -0.08)">
      <use xlink:href="#DejaVuSans-84"/>
      <use x="44.083984" xlink:href="#DejaVuSans-101"/>
      <use x="105.607422" xlink:href="#DejaVuSans-114"/>
      <use x="144.970703" xlink:href="#DejaVuSans-109"/>
      <use x="242.382812" xlink:href="#DejaVuSans-105"/>
      <use x="270.166016" xlink:href="#DejaVuSans-110"/>
      <use x="333.544922" xlink:href="#DejaVuSans-97"/>
      <use x="394.824219" xlink:href="#DejaVuSans-108"/>
     </g>
    </g>
   </g>
   <g id="text_22">
    <g id="patch_23">
     <path clip-path="url(#p4515facc3b)" d="M 30.577235 55.399144 
L 30.577235 60.222894 
Q 30.577235 62.622894 32.977235 62.622894 
L 40.719735 62.622894 
Q 43.119735 62.622894 43.119735 60.222894 
L 43.119735 55.399144 
Q 43.119735 52.999144 40.719735 52.999144 
L 32.977235 52.999144 
Q 30.577235 52.999144 30.577235 55.399144 
z
" style="fill:#ffffff;stroke:#ffffff;stroke-linejoin:miter;"/>
    </g>
    <g clip-path="url(#p4515facc3b)">
     <!-- P -->
     <g transform="translate(34.640985 55.399144)rotate(-270)scale(0.08 -0.08)">
      <use xlink:href="#DejaVuSans-80"/>
     </g>
    </g>
   </g>
   <g id="text_23">
    <g id="patch_24">
     <path clip-path="url(#p4515facc3b)" d="M 128.839861 383.366021 
L 128.839861 417.173521 
Q 128.839861 419.573521 131.239861 419.573521 
L 138.982361 419.573521 
Q 141.382361 419.573521 141.382361 417.173521 
L 141.382361 383.366021 
Q 141.382361 380.966021 138.982361 380.966021 
L 131.239861 380.966021 
Q 128.839861 380.966021 128.839861 383.366021 
z
" style="fill:#ffffff;stroke:#ffffff;stroke-linejoin:miter;"/>
    </g>
    <g clip-path="url(#p4515facc3b)">
     <!-- Terminal -->
     <g transform="translate(132.903611 383.366021)rotate(-270)scale(0.08 -0.08)">
      <use xlink:href="#DejaVuSans-84"/>
      <use x="44.083984" xlink:href="#DejaVuSans-101"/>
      <use x="105.607422" xlink:href="#DejaVuSans-114"/>
      <use x="144.970703" xlink:href="#DejaVuSans-109"/>
      <use x="242.382812" xlink:href="#DejaVuSans-105"/>
      <use x="270.166016" xlink:href="#DejaVuSans-110"/>
      <use x="333.544922" xlink:href="#DejaVuSans-97"/>
      <use x="394.824219" xlink:href="#DejaVuSans-108"/>
     </g>
    </g>
   </g>
   <g id="text_24">
    <g id="patch_25">
     <path clip-path="url(#p4515facc3b)" d="M 177.971174 383.366021 
L 177.971174 417.173521 
Q 177.971174 419.573521 180.371174 419.573521 
L 188.113674 419.573521 
Q 190.513674 419.573521 190.513674 417.173521 
L 190.513674 383.366021 
Q 190.513674 380.966021 188.113674 380.966021 
L 180.371174 380.966021 
Q 177.971174 380.966021 177.971174 383.366021 
z
" style="fill:#ffffff;stroke:#ffffff;stroke-linejoin:miter;"/>
    </g>
    <g clip-path="url(#p4515facc3b)">
     <!-- Terminal -->
     <g transform="translate(182.034924 383.366021)rotate(-270)scale(0.08 -0.08)">
      <use xlink:href="#DejaVuSans-84"/>
      <use x="44.083984" xlink:href="#DejaVuSans-101"/>
      <use x="105.607422" xlink:href="#DejaVuSans-114"/>
      <use x="144.970703" xlink:href="#DejaVuSans-109"/>
      <use x="242.382812" xlink:href="#DejaVuSans-105"/>
      <use x="270.166016" xlink:href="#DejaVuSans-110"/>
      <use x="333.544922" xlink:href="#DejaVuSans-97"/>
      <use x="394.824219" xlink:href="#DejaVuSans-108"/>
     </g>
    </g>
   </g>
   <g id="text_25">
    <g id="patch_26">
     <path clip-path="url(#p4515facc3b)" d="M 227.102487 383.366021 
L 227.102487 417.173521 
Q 227.102487 419.573521 229.502487 419.573521 
L 237.244987 419.573521 
Q 239.644987 419.573521 239.644987 417.173521 
L 239.644987 383.366021 
Q 239.644987 380.966021 237.244987 380.966021 
L 229.502487 380.966021 
Q 227.102487 380.966021 227.102487 383.366021 
z
" style="fill:#ffffff;stroke:#ffffff;stroke-linejoin:miter;"/>
    </g>
    <g clip-path="url(#p4515facc3b)">
     <!-- Terminal -->
     <g transform="translate(231.166237 383.366021)rotate(-270)scale(0.08 -0.08)">
      <use xlink:href="#DejaVuSans-84"/>
      <use x="44.083984" xlink:href="#DejaVuSans-101"/>
      <use x="105.607422" xlink:href="#DejaVuSans-114"/>
      <use x="144.970703" xlink:href="#DejaVuSans-109"/>
      <use x="242.382812" xlink:href="#DejaVuSans-105"/>
      <use x="270.166016" xlink:href="#DejaVuSans-110"/>
      <use x="333.544922" xlink:href="#DejaVuSans-97"/>
      <use x="394.824219" xlink:href="#DejaVuSans-108"/>
     </g>
    </g>
   </g>
   <g id="text_26">
    <g id="patch_27">
     <path clip-path="url(#p4515facc3b)" d="M 276.233801 383.366021 
L 276.233801 417.173521 
Q 276.233801 419.573521 278.633801 419.573521 
L 286.376301 419.573521 
Q 288.776301 419.573521 288.776301 417.173521 
L 288.776301 383.366021 
Q 288.776301 380.966021 286.376301 380.966021 
L 278.633801 380.966021 
Q 276.233801 380.966021 276.233801 383.366021 
z
" style="fill:#ffffff;stroke:#ffffff;stroke-linejoin:miter;"/>
    </g>
    <g clip-path="url(#p4515facc3b)">
     <!-- Terminal -->
     <g transform="translate(280.297551 383.366021)rotate(-270)scale(0.08 -0.08)">
      <use xlink:href="#DejaVuSans-84"/>
      <use x="44.083984" xlink:href="#DejaVuSans-101"/>
      <use x="105.607422" xlink:href="#DejaVuSans-114"/>
      <use x="144.970703" xlink:href="#DejaVuSans-109"/>
      <use x="242.382812" xlink:href="#DejaVuSans-105"/>
      <use x="270.166016" xlink:href="#DejaVuSans-110"/>
      <use x="333.544922" xlink:href="#DejaVuSans-97"/>
      <use x="394.824219" xlink:href="#DejaVuSans-108"/>
     </g>
    </g>
   </g>
   <g id="text_27">
    <g id="patch_28">
     <path clip-path="url(#p4515facc3b)" d="M 465.187849 392.943759 
L 470.648854 391.90591 
Q 473.006652 391.457817 472.558559 389.100019 
L 471.112991 381.493663 
Q 470.664898 379.135865 468.3071 379.583958 
L 462.846095 380.621808 
Q 460.488297 381.069901 460.936391 383.427699 
L 462.381958 391.034054 
Q 462.830051 393.391853 465.187849 392.943759 
z
" style="fill:#ffffff;stroke:#ffffff;stroke-linejoin:miter;"/>
    </g>
    <g clip-path="url(#p4515facc3b)">
     <!-- R -->
     <g transform="translate(464.429125 388.951467)rotate(-10.760584)scale(0.08 -0.08)">
      <defs>
       <path d="M 44.390625 34.1875 
Q 47.5625 33.109375 50.5625 29.59375 
Q 53.5625 26.078125 56.59375 19.921875 
L 66.609375 0 
L 56 0 
L 46.6875 18.703125 
Q 43.0625 26.03125 39.671875 28.421875 
Q 36.28125 30.8125 30.421875 30.8125 
L 19.671875 30.8125 
L 19.671875 0 
L 9.8125 0 
L 9.8125 72.90625 
L 32.078125 72.90625 
Q 44.578125 72.90625 50.734375 67.671875 
Q 56.890625 62.453125 56.890625 51.90625 
Q 56.890625 45.015625 53.6875 40.46875 
Q 50.484375 35.9375 44.390625 34.1875 
z
M 19.671875 64.796875 
L 19.671875 38.921875 
L 32.078125 38.921875 
Q 39.203125 38.921875 42.84375 42.21875 
Q 46.484375 45.515625 46.484375 51.90625 
Q 46.484375 58.296875 42.84375 61.546875 
Q 39.203125 64.796875 32.078125 64.796875 
z
" id="DejaVuSans-82"/>
      </defs>
      <use xlink:href="#DejaVuSans-82"/>
     </g>
    </g>
   </g>
   <g id="text_28">
    <g id="patch_29">
     <path clip-path="url(#p4515facc3b)" d="M 491.992802 393.09527 
L 496.845713 390.328421 
Q 498.930651 389.139711 497.74194 387.054773 
L 493.907109 380.328676 
Q 492.718399 378.243737 490.633461 379.432448 
L 485.78055 382.199296 
Q 483.695612 383.388007 484.884323 385.472945 
L 488.719153 392.199042 
Q 489.907864 394.28398 491.992802 393.09527 
z
" style="fill:#ffffff;stroke:#ffffff;stroke-linejoin:miter;"/>
    </g>
    <g clip-path="url(#p4515facc3b)">
     <!-- C -->
     <g transform="translate(489.980042 389.564992)rotate(-29.68928)scale(0.08 -0.08)">
      <use xlink:href="#DejaVuSans-67"/>
     </g>
    </g>
   </g>
   <g id="text_29">
    <g id="patch_30">
     <path clip-path="url(#p4515facc3b)" d="M 510.346207 390.328421 
L 515.199117 393.09527 
Q 517.284055 394.28398 518.472766 392.199042 
L 522.307596 385.472945 
Q 523.496307 383.388007 521.411369 382.199296 
L 516.558459 379.432448 
Q 514.47352 378.243737 513.28481 380.328676 
L 509.449979 387.054773 
Q 508.261269 389.139711 510.346207 390.328421 
z
" style="fill:#ffffff;stroke:#ffffff;stroke-linejoin:miter;"/>
    </g>
    <g clip-path="url(#p4515facc3b)">
     <!-- C -->
     <g transform="translate(512.358966 386.798143)rotate(-330.31072)scale(0.08 -0.08)">
      <use xlink:href="#DejaVuSans-67"/>
     </g>
    </g>
   </g>
   <g id="text_30">
    <g id="patch_31">
     <path clip-path="url(#p4515facc3b)" d="M 536.529557 391.903343 
L 542.017578 392.946327 
Q 544.375376 393.39442 544.823469 391.036622 
L 546.269037 383.430266 
Q 546.71713 381.072468 544.359332 380.624375 
L 538.871311 379.581391 
Q 536.513513 379.133298 536.06542 381.491096 
L 534.619852 389.097451 
Q 534.171759 391.45525 536.529557 391.903343 
z
" style="fill:#ffffff;stroke:#ffffff;stroke-linejoin:miter;"/>
    </g>
    <g clip-path="url(#p4515facc3b)">
     <!-- C -->
     <g transform="translate(537.288282 387.91105)rotate(-349.239416)scale(0.08 -0.08)">
      <use xlink:href="#DejaVuSans-67"/>
     </g>
    </g>
   </g>
   <g id="text_31">
    <g id="patch_32">
     <path clip-path="url(#p4515facc3b)" d="M 718.415619 383.366021 
L 718.415619 417.173521 
Q 718.415619 419.573521 720.815619 419.573521 
L 728.558119 419.573521 
Q 730.958119 419.573521 730.958119 417.173521 
L 730.958119 383.366021 
Q 730.958119 380.966021 728.558119 380.966021 
L 720.815619 380.966021 
Q 718.415619 380.966021 718.415619 383.366021 
z
" style="fill:#ffffff;stroke:#ffffff;stroke-linejoin:miter;"/>
    </g>
    <g clip-path="url(#p4515facc3b)">
     <!-- Terminal -->
     <g transform="translate(722.479369 383.366021)rotate(-270)scale(0.08 -0.08)">
      <use xlink:href="#DejaVuSans-84"/>
      <use x="44.083984" xlink:href="#DejaVuSans-101"/>
      <use x="105.607422" xlink:href="#DejaVuSans-114"/>
      <use x="144.970703" xlink:href="#DejaVuSans-109"/>
      <use x="242.382812" xlink:href="#DejaVuSans-105"/>
      <use x="270.166016" xlink:href="#DejaVuSans-110"/>
      <use x="333.544922" xlink:href="#DejaVuSans-97"/>
      <use x="394.824219" xlink:href="#DejaVuSans-108"/>
     </g>
    </g>
   </g>
   <g id="text_32">
    <g id="patch_33">
     <path clip-path="url(#p4515facc3b)" d="M 767.546932 383.366021 
L 767.546932 417.173521 
Q 767.546932 419.573521 769.946932 419.573521 
L 777.689432 419.573521 
Q 780.089432 419.573521 780.089432 417.173521 
L 780.089432 383.366021 
Q 780.089432 380.966021 777.689432 380.966021 
L 769.946932 380.966021 
Q 767.546932 380.966021 767.546932 383.366021 
z
" style="fill:#ffffff;stroke:#ffffff;stroke-linejoin:miter;"/>
    </g>
    <g clip-path="url(#p4515facc3b)">
     <!-- Terminal -->
     <g transform="translate(771.610682 383.366021)rotate(-270)scale(0.08 -0.08)">
      <use xlink:href="#DejaVuSans-84"/>
      <use x="44.083984" xlink:href="#DejaVuSans-101"/>
      <use x="105.607422" xlink:href="#DejaVuSans-114"/>
      <use x="144.970703" xlink:href="#DejaVuSans-109"/>
      <use x="242.382812" xlink:href="#DejaVuSans-105"/>
      <use x="270.166016" xlink:href="#DejaVuSans-110"/>
      <use x="333.544922" xlink:href="#DejaVuSans-97"/>
      <use x="394.824219" xlink:href="#DejaVuSans-108"/>
     </g>
    </g>
   </g>
   <g id="text_33">
    <g id="patch_34">
     <path clip-path="url(#p4515facc3b)" d="M 30.577235 79.791747 
L 30.577235 84.615497 
Q 30.577235 87.015497 32.977235 87.015497 
L 40.719735 87.015497 
Q 43.119735 87.015497 43.119735 84.615497 
L 43.119735 79.791747 
Q 43.119735 77.391747 40.719735 77.391747 
L 32.977235 77.391747 
Q 30.577235 77.391747 30.577235 79.791747 
z
" style="fill:#ffffff;stroke:#ffffff;stroke-linejoin:miter;"/>
    </g>
    <g clip-path="url(#p4515facc3b)">
     <!-- P -->
     <g transform="translate(34.640985 79.791747)rotate(-270)scale(0.08 -0.08)">
      <use xlink:href="#DejaVuSans-80"/>
     </g>
    </g>
   </g>
   <g id="text_34">
    <g id="patch_35">
     <path clip-path="url(#p4515facc3b)" d="M 423.62774 383.366021 
L 423.62774 417.173521 
Q 423.62774 419.573521 426.02774 419.573521 
L 433.77024 419.573521 
Q 436.17024 419.573521 436.17024 417.173521 
L 436.17024 383.366021 
Q 436.17024 380.966021 433.77024 380.966021 
L 426.02774 380.966021 
Q 423.62774 380.966021 423.62774 383.366021 
z
" style="fill:#ffffff;stroke:#ffffff;stroke-linejoin:miter;"/>
    </g>
    <g clip-path="url(#p4515facc3b)">
     <!-- Terminal -->
     <g transform="translate(427.69149 383.366021)rotate(-270)scale(0.08 -0.08)">
      <use xlink:href="#DejaVuSans-84"/>
      <use x="44.083984" xlink:href="#DejaVuSans-101"/>
      <use x="105.607422" xlink:href="#DejaVuSans-114"/>
      <use x="144.970703" xlink:href="#DejaVuSans-109"/>
      <use x="242.382812" xlink:href="#DejaVuSans-105"/>
      <use x="270.166016" xlink:href="#DejaVuSans-110"/>
      <use x="333.544922" xlink:href="#DejaVuSans-97"/>
      <use x="394.824219" xlink:href="#DejaVuSans-108"/>
     </g>
    </g>
   </g>
   <g id="text_35">
    <g id="patch_36">
     <path clip-path="url(#p4515facc3b)" d="M 472.759053 383.366021 
L 472.759053 417.173521 
Q 472.759053 419.573521 475.159053 419.573521 
L 482.901553 419.573521 
Q 485.301553 419.573521 485.301553 417.173521 
L 485.301553 383.366021 
Q 485.301553 380.966021 482.901553 380.966021 
L 475.159053 380.966021 
Q 472.759053 380.966021 472.759053 383.366021 
z
" style="fill:#ffffff;stroke:#ffffff;stroke-linejoin:miter;"/>
    </g>
    <g clip-path="url(#p4515facc3b)">
     <!-- Terminal -->
     <g transform="translate(476.822803 383.366021)rotate(-270)scale(0.08 -0.08)">
      <use xlink:href="#DejaVuSans-84"/>
      <use x="44.083984" xlink:href="#DejaVuSans-101"/>
      <use x="105.607422" xlink:href="#DejaVuSans-114"/>
      <use x="144.970703" xlink:href="#DejaVuSans-109"/>
      <use x="242.382812" xlink:href="#DejaVuSans-105"/>
      <use x="270.166016" xlink:href="#DejaVuSans-110"/>
      <use x="333.544922" xlink:href="#DejaVuSans-97"/>
      <use x="394.824219" xlink:href="#DejaVuSans-108"/>
     </g>
    </g>
   </g>
   <g id="text_36">
    <g id="patch_37">
     <path clip-path="url(#p4515facc3b)" d="M 521.890366 383.366021 
L 521.890366 417.173521 
Q 521.890366 419.573521 524.290366 419.573521 
L 532.032866 419.573521 
Q 534.432866 419.573521 534.432866 417.173521 
L 534.432866 383.366021 
Q 534.432866 380.966021 532.032866 380.966021 
L 524.290366 380.966021 
Q 521.890366 380.966021 521.890366 383.366021 
z
" style="fill:#ffffff;stroke:#ffffff;stroke-linejoin:miter;"/>
    </g>
    <g clip-path="url(#p4515facc3b)">
     <!-- Terminal -->
     <g transform="translate(525.954116 383.366021)rotate(-270)scale(0.08 -0.08)">
      <use xlink:href="#DejaVuSans-84"/>
      <use x="44.083984" xlink:href="#DejaVuSans-101"/>
      <use x="105.607422" xlink:href="#DejaVuSans-114"/>
      <use x="144.970703" xlink:href="#DejaVuSans-109"/>
      <use x="242.382812" xlink:href="#DejaVuSans-105"/>
      <use x="270.166016" xlink:href="#DejaVuSans-110"/>
      <use x="333.544922" xlink:href="#DejaVuSans-97"/>
      <use x="394.824219" xlink:href="#DejaVuSans-108"/>
     </g>
    </g>
   </g>
   <g id="text_37">
    <g id="patch_38">
     <path clip-path="url(#p4515facc3b)" d="M 571.021679 383.366021 
L 571.021679 417.173521 
Q 571.021679 419.573521 573.421679 419.573521 
L 581.164179 419.573521 
Q 583.564179 419.573521 583.564179 417.173521 
L 583.564179 383.366021 
Q 583.564179 380.966021 581.164179 380.966021 
L 573.421679 380.966021 
Q 571.021679 380.966021 571.021679 383.366021 
z
" style="fill:#ffffff;stroke:#ffffff;stroke-linejoin:miter;"/>
    </g>
    <g clip-path="url(#p4515facc3b)">
     <!-- Terminal -->
     <g transform="translate(575.085429 383.366021)rotate(-270)scale(0.08 -0.08)">
      <use xlink:href="#DejaVuSans-84"/>
      <use x="44.083984" xlink:href="#DejaVuSans-101"/>
      <use x="105.607422" xlink:href="#DejaVuSans-114"/>
      <use x="144.970703" xlink:href="#DejaVuSans-109"/>
      <use x="242.382812" xlink:href="#DejaVuSans-105"/>
      <use x="270.166016" xlink:href="#DejaVuSans-110"/>
      <use x="333.544922" xlink:href="#DejaVuSans-97"/>
      <use x="394.824219" xlink:href="#DejaVuSans-108"/>
     </g>
    </g>
   </g>
   <g id="text_38">
    <g id="patch_39">
     <path clip-path="url(#p4515facc3b)" d="M 30.577235 103.203834 
L 30.577235 108.027584 
Q 30.577235 110.427584 32.977235 110.427584 
L 40.719735 110.427584 
Q 43.119735 110.427584 43.119735 108.027584 
L 43.119735 103.203834 
Q 43.119735 100.803834 40.719735 100.803834 
L 32.977235 100.803834 
Q 30.577235 100.803834 30.577235 103.203834 
z
" style="fill:#ffffff;stroke:#ffffff;stroke-linejoin:miter;"/>
    </g>
    <g clip-path="url(#p4515facc3b)">
     <!-- P -->
     <g transform="translate(34.640985 103.203834)rotate(-270)scale(0.08 -0.08)">
      <use xlink:href="#DejaVuSans-80"/>
     </g>
    </g>
   </g>
   <g id="text_39">
    <g id="patch_40">
     <path clip-path="url(#p4515facc3b)" d="M 30.577235 125.691928 
L 30.577235 130.515678 
Q 30.577235 132.915678 32.977235 132.915678 
L 40.719735 132.915678 
Q 43.119735 132.915678 43.119735 130.515678 
L 43.119735 125.691928 
Q 43.119735 123.291928 40.719735 123.291928 
L 32.977235 123.291928 
Q 30.577235 123.291928 30.577235 125.691928 
z
" style="fill:#ffffff;stroke:#ffffff;stroke-linejoin:miter;"/>
    </g>
    <g clip-path="url(#p4515facc3b)">
     <!-- P -->
     <g transform="translate(34.640985 125.691928)rotate(-270)scale(0.08 -0.08)">
      <use xlink:href="#DejaVuSans-80"/>
     </g>
    </g>
   </g>
   <g id="text_40">
    <g id="patch_41">
     <path clip-path="url(#p4515facc3b)" d="M 30.577235 147.309576 
L 30.577235 152.133326 
Q 30.577235 154.533326 32.977235 154.533326 
L 40.719735 154.533326 
Q 43.119735 154.533326 43.119735 152.133326 
L 43.119735 147.309576 
Q 43.119735 144.909576 40.719735 144.909576 
L 32.977235 144.909576 
Q 30.577235 144.909576 30.577235 147.309576 
z
" style="fill:#ffffff;stroke:#ffffff;stroke-linejoin:miter;"/>
    </g>
    <g clip-path="url(#p4515facc3b)">
     <!-- P -->
     <g transform="translate(34.640985 147.309576)rotate(-270)scale(0.08 -0.08)">
      <use xlink:href="#DejaVuSans-80"/>
     </g>
    </g>
   </g>
   <g id="text_41">
    <g id="patch_42">
     <path clip-path="url(#p4515facc3b)" d="M 30.577235 168.107602 
L 30.577235 172.931352 
Q 30.577235 175.331352 32.977235 175.331352 
L 40.719735 175.331352 
Q 43.119735 175.331352 43.119735 172.931352 
L 43.119735 168.107602 
Q 43.119735 165.707602 40.719735 165.707602 
L 32.977235 165.707602 
Q 30.577235 165.707602 30.577235 168.107602 
z
" style="fill:#ffffff;stroke:#ffffff;stroke-linejoin:miter;"/>
    </g>
    <g clip-path="url(#p4515facc3b)">
     <!-- P -->
     <g transform="translate(34.640985 168.107602)rotate(-270)scale(0.08 -0.08)">
      <use xlink:href="#DejaVuSans-80"/>
     </g>
    </g>
   </g>
   <g id="text_42">
    <g id="patch_43">
     <path clip-path="url(#p4515facc3b)" d="M 30.577235 188.134358 
L 30.577235 192.958108 
Q 30.577235 195.358108 32.977235 195.358108 
L 40.719735 195.358108 
Q 43.119735 195.358108 43.119735 192.958108 
L 43.119735 188.134358 
Q 43.119735 185.734358 40.719735 185.734358 
L 32.977235 185.734358 
Q 30.577235 185.734358 30.577235 188.134358 
z
" style="fill:#ffffff;stroke:#ffffff;stroke-linejoin:miter;"/>
    </g>
    <g clip-path="url(#p4515facc3b)">
     <!-- P -->
     <g transform="translate(34.640985 188.134358)rotate(-270)scale(0.08 -0.08)">
      <use xlink:href="#DejaVuSans-80"/>
     </g>
    </g>
   </g>
   <g id="text_43">
    <g id="patch_44">
     <path clip-path="url(#p4515facc3b)" d="M 30.577235 207.435971 
L 30.577235 212.259721 
Q 30.577235 214.659721 32.977235 214.659721 
L 40.719735 214.659721 
Q 43.119735 214.659721 43.119735 212.259721 
L 43.119735 207.435971 
Q 43.119735 205.035971 40.719735 205.035971 
L 32.977235 205.035971 
Q 30.577235 205.035971 30.577235 207.435971 
z
" style="fill:#ffffff;stroke:#ffffff;stroke-linejoin:miter;"/>
    </g>
    <g clip-path="url(#p4515facc3b)">
     <!-- P -->
     <g transform="translate(34.640985 207.435971)rotate(-270)scale(0.08 -0.08)">
      <use xlink:href="#DejaVuSans-80"/>
     </g>
    </g>
   </g>
   <g id="text_44">
    <g id="patch_45">
     <path clip-path="url(#p4515facc3b)" d="M 30.577235 226.0566 
L 30.577235 230.88035 
Q 30.577235 233.28035 32.977235 233.28035 
L 40.719735 233.28035 
Q 43.119735 233.28035 43.119735 230.88035 
L 43.119735 226.0566 
Q 43.119735 223.6566 40.719735 223.6566 
L 32.977235 223.6566 
Q 30.577235 223.6566 30.577235 226.0566 
z
" style="fill:#ffffff;stroke:#ffffff;stroke-linejoin:miter;"/>
    </g>
    <g clip-path="url(#p4515facc3b)">
     <!-- P -->
     <g transform="translate(34.640985 226.0566)rotate(-270)scale(0.08 -0.08)">
      <use xlink:href="#DejaVuSans-80"/>
     </g>
    </g>
   </g>
   <g id="text_45">
    <g id="patch_46">
     <path clip-path="url(#p4515facc3b)" d="M 30.577235 244.038702 
L 30.577235 248.862452 
Q 30.577235 251.262452 32.977235 251.262452 
L 40.719735 251.262452 
Q 43.119735 251.262452 43.119735 248.862452 
L 43.119735 244.038702 
Q 43.119735 241.638702 40.719735 241.638702 
L 32.977235 241.638702 
Q 30.577235 241.638702 30.577235 244.038702 
z
" style="fill:#ffffff;stroke:#ffffff;stroke-linejoin:miter;"/>
    </g>
    <g clip-path="url(#p4515facc3b)">
     <!-- P -->
     <g transform="translate(34.640985 244.038702)rotate(-270)scale(0.08 -0.08)">
      <use xlink:href="#DejaVuSans-80"/>
     </g>
    </g>
   </g>
   <g id="text_46">
    <g id="patch_47">
     <path clip-path="url(#p4515facc3b)" d="M 30.577235 261.423327 
L 30.577235 266.247077 
Q 30.577235 268.647077 32.977235 268.647077 
L 40.719735 268.647077 
Q 43.119735 268.647077 43.119735 266.247077 
L 43.119735 261.423327 
Q 43.119735 259.023327 40.719735 259.023327 
L 32.977235 259.023327 
Q 30.577235 259.023327 30.577235 261.423327 
z
" style="fill:#ffffff;stroke:#ffffff;stroke-linejoin:miter;"/>
    </g>
    <g clip-path="url(#p4515facc3b)">
     <!-- P -->
     <g transform="translate(34.640985 261.423327)rotate(-270)scale(0.08 -0.08)">
      <use xlink:href="#DejaVuSans-80"/>
     </g>
    </g>
   </g>
   <g id="text_47">
    <g id="patch_48">
     <path clip-path="url(#p4515facc3b)" d="M 30.577235 278.250447 
L 30.577235 283.074197 
Q 30.577235 285.474197 32.977235 285.474197 
L 40.719735 285.474197 
Q 43.119735 285.474197 43.119735 283.074197 
L 43.119735 278.250447 
Q 43.119735 275.850447 40.719735 275.850447 
L 32.977235 275.850447 
Q 30.577235 275.850447 30.577235 278.250447 
z
" style="fill:#ffffff;stroke:#ffffff;stroke-linejoin:miter;"/>
    </g>
    <g clip-path="url(#p4515facc3b)">
     <!-- P -->
     <g transform="translate(34.640985 278.250447)rotate(-270)scale(0.08 -0.08)">
      <use xlink:href="#DejaVuSans-80"/>
     </g>
    </g>
   </g>
   <g id="text_48">
    <g id="patch_49">
     <path clip-path="url(#p4515facc3b)" d="M 30.577235 294.55936 
L 30.577235 299.38311 
Q 30.577235 301.78311 32.977235 301.78311 
L 40.719735 301.78311 
Q 43.119735 301.78311 43.119735 299.38311 
L 43.119735 294.55936 
Q 43.119735 292.15936 40.719735 292.15936 
L 32.977235 292.15936 
Q 30.577235 292.15936 30.577235 294.55936 
z
" style="fill:#ffffff;stroke:#ffffff;stroke-linejoin:miter;"/>
    </g>
    <g clip-path="url(#p4515facc3b)">
     <!-- P -->
     <g transform="translate(34.640985 294.55936)rotate(-270)scale(0.08 -0.08)">
      <use xlink:href="#DejaVuSans-80"/>
     </g>
    </g>
   </g>
   <g id="text_49">
    <g id="patch_50">
     <path clip-path="url(#p4515facc3b)" d="M 30.577235 310.389206 
L 30.577235 315.212956 
Q 30.577235 317.612956 32.977235 317.612956 
L 40.719735 317.612956 
Q 43.119735 317.612956 43.119735 315.212956 
L 43.119735 310.389206 
Q 43.119735 307.989206 40.719735 307.989206 
L 32.977235 307.989206 
Q 30.577235 307.989206 30.577235 310.389206 
z
" style="fill:#ffffff;stroke:#ffffff;stroke-linejoin:miter;"/>
    </g>
    <g clip-path="url(#p4515facc3b)">
     <!-- P -->
     <g transform="translate(34.640985 310.389206)rotate(-270)scale(0.08 -0.08)">
      <use xlink:href="#DejaVuSans-80"/>
     </g>
    </g>
   </g>
   <g id="text_50">
    <g id="patch_51">
     <path clip-path="url(#p4515facc3b)" d="M 30.577235 325.779675 
L 30.577235 330.603425 
Q 30.577235 333.003425 32.977235 333.003425 
L 40.719735 333.003425 
Q 43.119735 333.003425 43.119735 330.603425 
L 43.119735 325.779675 
Q 43.119735 323.379675 40.719735 323.379675 
L 32.977235 323.379675 
Q 30.577235 323.379675 30.577235 325.779675 
z
" style="fill:#ffffff;stroke:#ffffff;stroke-linejoin:miter;"/>
    </g>
    <g clip-path="url(#p4515facc3b)">
     <!-- P -->
     <g transform="translate(34.640985 325.779675)rotate(-270)scale(0.08 -0.08)">
      <use xlink:href="#DejaVuSans-80"/>
     </g>
    </g>
   </g>
   <g id="text_51">
    <g id="patch_52">
     <path clip-path="url(#p4515facc3b)" d="M 30.577235 340.772085 
L 30.577235 345.595835 
Q 30.577235 347.995835 32.977235 347.995835 
L 40.719735 347.995835 
Q 43.119735 347.995835 43.119735 345.595835 
L 43.119735 340.772085 
Q 43.119735 338.372085 40.719735 338.372085 
L 32.977235 338.372085 
Q 30.577235 338.372085 30.577235 340.772085 
z
" style="fill:#ffffff;stroke:#ffffff;stroke-linejoin:miter;"/>
    </g>
    <g clip-path="url(#p4515facc3b)">
     <!-- P -->
     <g transform="translate(34.640985 340.772085)rotate(-270)scale(0.08 -0.08)">
      <use xlink:href="#DejaVuSans-80"/>
     </g>
    </g>
   </g>
   <g id="text_52">
    <g id="patch_53">
     <path clip-path="url(#p4515facc3b)" d="M 30.577235 355.41118 
L 30.577235 360.23493 
Q 30.577235 362.63493 32.977235 362.63493 
L 40.719735 362.63493 
Q 43.119735 362.63493 43.119735 360.23493 
L 43.119735 355.41118 
Q 43.119735 353.01118 40.719735 353.01118 
L 32.977235 353.01118 
Q 30.577235 353.01118 30.577235 355.41118 
z
" style="fill:#ffffff;stroke:#ffffff;stroke-linejoin:miter;"/>
    </g>
    <g clip-path="url(#p4515facc3b)">
     <!-- P -->
     <g transform="translate(34.640985 355.41118)rotate(-270)scale(0.08 -0.08)">
      <use xlink:href="#DejaVuSans-80"/>
     </g>
    </g>
   </g>
   <g id="text_53">
    <g id="patch_54">
     <path clip-path="url(#p4515facc3b)" d="M 30.577235 369.748653 
L 30.577235 374.572403 
Q 30.577235 376.972403 32.977235 376.972403 
L 40.719735 376.972403 
Q 43.119735 376.972403 43.119735 374.572403 
L 43.119735 369.748653 
Q 43.119735 367.348653 40.719735 367.348653 
L 32.977235 367.348653 
Q 30.577235 367.348653 30.577235 369.748653 
z
" style="fill:#ffffff;stroke:#ffffff;stroke-linejoin:miter;"/>
    </g>
    <g clip-path="url(#p4515facc3b)">
     <!-- P -->
     <g transform="translate(34.640985 369.748653)rotate(-270)scale(0.08 -0.08)">
      <use xlink:href="#DejaVuSans-80"/>
     </g>
    </g>
   </g>
   <g id="text_54">
    <g id="patch_55">
     <path clip-path="url(#p4515facc3b)" d="M 30.577235 383.851984 
L 30.577235 388.675734 
Q 30.577235 391.075734 32.977235 391.075734 
L 40.719735 391.075734 
Q 43.119735 391.075734 43.119735 388.675734 
L 43.119735 383.851984 
Q 43.119735 381.451984 40.719735 381.451984 
L 32.977235 381.451984 
Q 30.577235 381.451984 30.577235 383.851984 
z
" style="fill:#ffffff;stroke:#ffffff;stroke-linejoin:miter;"/>
    </g>
    <g clip-path="url(#p4515facc3b)">
     <!-- P -->
     <g transform="translate(34.640985 383.851984)rotate(-270)scale(0.08 -0.08)">
      <use xlink:href="#DejaVuSans-80"/>
     </g>
    </g>
   </g>
   <g id="text_55">
    <g id="patch_56">
     <path clip-path="url(#p4515facc3b)" d="M 30.577235 383.366021 
L 30.577235 417.173521 
Q 30.577235 419.573521 32.977235 419.573521 
L 40.719735 419.573521 
Q 43.119735 419.573521 43.119735 417.173521 
L 43.119735 383.366021 
Q 43.119735 380.966021 40.719735 380.966021 
L 32.977235 380.966021 
Q 30.577235 380.966021 30.577235 383.366021 
z
" style="fill:#ffffff;stroke:#ffffff;stroke-linejoin:miter;"/>
    </g>
    <g clip-path="url(#p4515facc3b)">
     <!-- Terminal -->
     <g transform="translate(34.640985 383.366021)rotate(-270)scale(0.08 -0.08)">
      <use xlink:href="#DejaVuSans-84"/>
      <use x="44.083984" xlink:href="#DejaVuSans-101"/>
      <use x="105.607422" xlink:href="#DejaVuSans-114"/>
      <use x="144.970703" xlink:href="#DejaVuSans-109"/>
      <use x="242.382812" xlink:href="#DejaVuSans-105"/>
      <use x="270.166016" xlink:href="#DejaVuSans-110"/>
      <use x="333.544922" xlink:href="#DejaVuSans-97"/>
      <use x="394.824219" xlink:href="#DejaVuSans-108"/>
     </g>
    </g>
   </g>
   <g id="PathCollection_1">
    <defs>
     <path d="M 0 8.660254 
C 2.296726 8.660254 4.499694 7.747755 6.123724 6.123724 
C 7.747755 4.499694 8.660254 2.296726 8.660254 -0 
C 8.660254 -2.296726 7.747755 -4.499694 6.123724 -6.123724 
C 4.499694 -7.747755 2.296726 -8.660254 0 -8.660254 
C -2.296726 -8.660254 -4.499694 -7.747755 -6.123724 -6.123724 
C -7.747755 -4.499694 -8.660254 -2.296726 -8.660254 0 
C -8.660254 2.296726 -7.747755 4.499694 -6.123724 6.123724 
C -4.499694 7.747755 -2.296726 8.660254 0 8.660254 
z
" id="C0_0_a7f480e8e0"/>
    </defs>
    <g clip-path="url(#p4515facc3b)">
     <use style="fill:#ffffff;stroke:#ffffff;" x="36.848485" xlink:href="#C0_0_a7f480e8e0" y="407.272727"/>
    </g>
    <g clip-path="url(#p4515facc3b)">
     <use style="fill:#ffffff;stroke:#ffffff;" x="85.979798" xlink:href="#C0_0_a7f480e8e0" y="407.272727"/>
    </g>
    <g clip-path="url(#p4515facc3b)">
     <use style="fill:#ffffff;stroke:#ffffff;" x="135.111111" xlink:href="#C0_0_a7f480e8e0" y="407.272727"/>
    </g>
    <g clip-path="url(#p4515facc3b)">
     <use style="fill:#ffffff;stroke:#ffffff;" x="184.242424" xlink:href="#C0_0_a7f480e8e0" y="407.272727"/>
    </g>
    <g clip-path="url(#p4515facc3b)">
     <use style="fill:#ffffff;stroke:#ffffff;" x="233.373737" xlink:href="#C0_0_a7f480e8e0" y="407.272727"/>
    </g>
    <g clip-path="url(#p4515facc3b)">
     <use style="fill:#ffffff;stroke:#ffffff;" x="282.505051" xlink:href="#C0_0_a7f480e8e0" y="407.272727"/>
    </g>
    <g clip-path="url(#p4515facc3b)">
     <use style="fill:#ffffff;stroke:#ffffff;" x="331.636364" xlink:href="#C0_0_a7f480e8e0" y="407.272727"/>
    </g>
    <g clip-path="url(#p4515facc3b)">
     <use style="fill:#ffffff;stroke:#ffffff;" x="380.767677" xlink:href="#C0_0_a7f480e8e0" y="407.272727"/>
    </g>
    <g clip-path="url(#p4515facc3b)">
     <use style="fill:#ffffff;stroke:#ffffff;" x="429.89899" xlink:href="#C0_0_a7f480e8e0" y="407.272727"/>
    </g>
    <g clip-path="url(#p4515facc3b)">
     <use style="fill:#ffffff;stroke:#ffffff;" x="479.030303" xlink:href="#C0_0_a7f480e8e0" y="407.272727"/>
    </g>
    <g clip-path="url(#p4515facc3b)">
     <use style="fill:#ffffff;stroke:#ffffff;" x="528.161616" xlink:href="#C0_0_a7f480e8e0" y="407.272727"/>
    </g>
    <g clip-path="url(#p4515facc3b)">
     <use style="fill:#ffffff;stroke:#ffffff;" x="577.292929" xlink:href="#C0_0_a7f480e8e0" y="407.272727"/>
    </g>
    <g clip-path="url(#p4515facc3b)">
     <use style="fill:#ffffff;stroke:#ffffff;" x="626.424242" xlink:href="#C0_0_a7f480e8e0" y="407.272727"/>
    </g>
    <g clip-path="url(#p4515facc3b)">
     <use style="fill:#ffffff;stroke:#ffffff;" x="675.555556" xlink:href="#C0_0_a7f480e8e0" y="407.272727"/>
    </g>
    <g clip-path="url(#p4515facc3b)">
     <use style="fill:#ffffff;stroke:#ffffff;" x="724.686869" xlink:href="#C0_0_a7f480e8e0" y="407.272727"/>
    </g>
    <g clip-path="url(#p4515facc3b)">
     <use style="fill:#ffffff;stroke:#ffffff;" x="773.818182" xlink:href="#C0_0_a7f480e8e0" y="407.272727"/>
    </g>
    <g clip-path="url(#p4515facc3b)">
     <use style="stroke:#000000;" x="325.494949" xlink:href="#C0_0_a7f480e8e0" y="19.393939"/>
    </g>
    <g clip-path="url(#p4515facc3b)">
     <use style="stroke:#000000;" x="85.979798" xlink:href="#C0_0_a7f480e8e0" y="393.266815"/>
    </g>
    <g clip-path="url(#p4515facc3b)">
     <use style="stroke:#000000;" x="184.242424" xlink:href="#C0_0_a7f480e8e0" y="379.260903"/>
    </g>
    <g clip-path="url(#p4515facc3b)">
     <use style="stroke:#000000;" x="571.151515" xlink:href="#C0_0_a7f480e8e0" y="365.060153"/>
    </g>
    <g clip-path="url(#p4515facc3b)">
     <use style="stroke:#000000;" x="331.636364" xlink:href="#C0_0_a7f480e8e0" y="393.266815"/>
    </g>
    <g clip-path="url(#p4515facc3b)">
     <use style="stroke:#000000;" x="380.767677" xlink:href="#C0_0_a7f480e8e0" y="393.266815"/>
    </g>
    <g clip-path="url(#p4515facc3b)">
     <use style="stroke:#000000;" x="626.424242" xlink:href="#C0_0_a7f480e8e0" y="393.266815"/>
    </g>
    <g clip-path="url(#p4515facc3b)">
     <use style="stroke:#000000;" x="675.555556" xlink:href="#C0_0_a7f480e8e0" y="393.266815"/>
    </g>
    <g clip-path="url(#p4515facc3b)">
     <use style="stroke:#000000;" x="36.848485" xlink:href="#C0_0_a7f480e8e0" y="45.362329"/>
    </g>
    <g clip-path="url(#p4515facc3b)">
     <use style="stroke:#000000;" x="135.111111" xlink:href="#C0_0_a7f480e8e0" y="393.266815"/>
    </g>
    <g clip-path="url(#p4515facc3b)">
     <use style="stroke:#000000;" x="184.242424" xlink:href="#C0_0_a7f480e8e0" y="393.266815"/>
    </g>
    <g clip-path="url(#p4515facc3b)">
     <use style="stroke:#000000;" x="233.373737" xlink:href="#C0_0_a7f480e8e0" y="393.266815"/>
    </g>
    <g clip-path="url(#p4515facc3b)">
     <use style="stroke:#000000;" x="282.505051" xlink:href="#C0_0_a7f480e8e0" y="393.266815"/>
    </g>
    <g clip-path="url(#p4515facc3b)">
     <use style="stroke:#000000;" x="503.59596" xlink:href="#C0_0_a7f480e8e0" y="379.260903"/>
    </g>
    <g clip-path="url(#p4515facc3b)">
     <use style="stroke:#000000;" x="724.686869" xlink:href="#C0_0_a7f480e8e0" y="393.266815"/>
    </g>
    <g clip-path="url(#p4515facc3b)">
     <use style="stroke:#000000;" x="773.818182" xlink:href="#C0_0_a7f480e8e0" y="393.266815"/>
    </g>
    <g clip-path="url(#p4515facc3b)">
     <use style="stroke:#000000;" x="36.848485" xlink:href="#C0_0_a7f480e8e0" y="70.25971"/>
    </g>
    <g clip-path="url(#p4515facc3b)">
     <use style="stroke:#000000;" x="429.89899" xlink:href="#C0_0_a7f480e8e0" y="393.266815"/>
    </g>
    <g clip-path="url(#p4515facc3b)">
     <use style="stroke:#000000;" x="479.030303" xlink:href="#C0_0_a7f480e8e0" y="393.266815"/>
    </g>
    <g clip-path="url(#p4515facc3b)">
     <use style="stroke:#000000;" x="528.161616" xlink:href="#C0_0_a7f480e8e0" y="393.266815"/>
    </g>
    <g clip-path="url(#p4515facc3b)">
     <use style="stroke:#000000;" x="577.292929" xlink:href="#C0_0_a7f480e8e0" y="393.266815"/>
    </g>
    <g clip-path="url(#p4515facc3b)">
     <use style="stroke:#000000;" x="36.848485" xlink:href="#C0_0_a7f480e8e0" y="94.147535"/>
    </g>
    <g clip-path="url(#p4515facc3b)">
     <use style="stroke:#000000;" x="36.848485" xlink:href="#C0_0_a7f480e8e0" y="117.083883"/>
    </g>
    <g clip-path="url(#p4515facc3b)">
     <use style="stroke:#000000;" x="36.848485" xlink:href="#C0_0_a7f480e8e0" y="139.123723"/>
    </g>
    <g clip-path="url(#p4515facc3b)">
     <use style="stroke:#000000;" x="36.848485" xlink:href="#C0_0_a7f480e8e0" y="160.319179"/>
    </g>
    <g clip-path="url(#p4515facc3b)">
     <use style="stroke:#000000;" x="36.848485" xlink:href="#C0_0_a7f480e8e0" y="180.719776"/>
    </g>
    <g clip-path="url(#p4515facc3b)">
     <use style="stroke:#000000;" x="36.848485" xlink:href="#C0_0_a7f480e8e0" y="200.37269"/>
    </g>
    <g clip-path="url(#p4515facc3b)">
     <use style="stroke:#000000;" x="36.848485" xlink:href="#C0_0_a7f480e8e0" y="219.323001"/>
    </g>
    <g clip-path="url(#p4515facc3b)">
     <use style="stroke:#000000;" x="36.848485" xlink:href="#C0_0_a7f480e8e0" y="237.613948"/>
    </g>
    <g clip-path="url(#p4515facc3b)">
     <use style="stroke:#000000;" x="36.848485" xlink:href="#C0_0_a7f480e8e0" y="255.287206"/>
    </g>
    <g clip-path="url(#p4515facc3b)">
     <use style="stroke:#000000;" x="36.848485" xlink:href="#C0_0_a7f480e8e0" y="272.383198"/>
    </g>
    <g clip-path="url(#p4515facc3b)">
     <use style="stroke:#000000;" x="36.848485" xlink:href="#C0_0_a7f480e8e0" y="288.941446"/>
    </g>
    <g clip-path="url(#p4515facc3b)">
     <use style="stroke:#000000;" x="36.848485" xlink:href="#C0_0_a7f480e8e0" y="305.001024"/>
    </g>
    <g clip-path="url(#p4515facc3b)">
     <use style="stroke:#000000;" x="36.848485" xlink:href="#C0_0_a7f480e8e0" y="320.601138"/>
    </g>
    <g clip-path="url(#p4515facc3b)">
     <use style="stroke:#000000;" x="36.848485" xlink:href="#C0_0_a7f480e8e0" y="335.781963"/>
    </g>
    <g clip-path="url(#p4515facc3b)">
     <use style="stroke:#000000;" x="36.848485" xlink:href="#C0_0_a7f480e8e0" y="350.585957"/>
    </g>
    <g clip-path="url(#p4515facc3b)">
     <use style="stroke:#000000;" x="36.848485" xlink:href="#C0_0_a7f480e8e0" y="365.060153"/>
    </g>
    <g clip-path="url(#p4515facc3b)">
     <use style="stroke:#000000;" x="36.848485" xlink:href="#C0_0_a7f480e8e0" y="379.260903"/>
    </g>
    <g clip-path="url(#p4515facc3b)">
     <use style="stroke:#000000;" x="36.848485" xlink:href="#C0_0_a7f480e8e0" y="393.266815"/>
    </g>
   </g>
   <g id="text_56">
    <g clip-path="url(#p4515facc3b)">
     <!-- A -->
     <g transform="translate(33.428172 410.032102)scale(0.1 -0.1)">
      <use xlink:href="#DejaVuSans-65"/>
     </g>
    </g>
   </g>
   <g id="text_57">
    <g clip-path="url(#p4515facc3b)">
     <!-- rainbow -->
     <g transform="translate(65.979798 410.032102)scale(0.1 -0.1)">
      <defs>
       <path d="M 48.6875 27.296875 
Q 48.6875 37.203125 44.609375 42.84375 
Q 40.53125 48.484375 33.40625 48.484375 
Q 26.265625 48.484375 22.1875 42.84375 
Q 18.109375 37.203125 18.109375 27.296875 
Q 18.109375 17.390625 22.1875 11.75 
Q 26.265625 6.109375 33.40625 6.109375 
Q 40.53125 6.109375 44.609375 11.75 
Q 48.6875 17.390625 48.6875 27.296875 
z
M 18.109375 46.390625 
Q 20.953125 51.265625 25.265625 53.625 
Q 29.59375 56 35.59375 56 
Q 45.5625 56 51.78125 48.09375 
Q 58.015625 40.1875 58.015625 27.296875 
Q 58.015625 14.40625 51.78125 6.484375 
Q 45.5625 -1.421875 35.59375 -1.421875 
Q 29.59375 -1.421875 25.265625 0.953125 
Q 20.953125 3.328125 18.109375 8.203125 
L 18.109375 0 
L 9.078125 0 
L 9.078125 75.984375 
L 18.109375 75.984375 
z
" id="DejaVuSans-98"/>
       <path d="M 30.609375 48.390625 
Q 23.390625 48.390625 19.1875 42.75 
Q 14.984375 37.109375 14.984375 27.296875 
Q 14.984375 17.484375 19.15625 11.84375 
Q 23.34375 6.203125 30.609375 6.203125 
Q 37.796875 6.203125 41.984375 11.859375 
Q 46.1875 17.53125 46.1875 27.296875 
Q 46.1875 37.015625 41.984375 42.703125 
Q 37.796875 48.390625 30.609375 48.390625 
z
M 30.609375 56 
Q 42.328125 56 49.015625 48.375 
Q 55.71875 40.765625 55.71875 27.296875 
Q 55.71875 13.875 49.015625 6.21875 
Q 42.328125 -1.421875 30.609375 -1.421875 
Q 18.84375 -1.421875 12.171875 6.21875 
Q 5.515625 13.875 5.515625 27.296875 
Q 5.515625 40.765625 12.171875 48.375 
Q 18.84375 56 30.609375 56 
z
" id="DejaVuSans-111"/>
       <path d="M 4.203125 54.6875 
L 13.1875 54.6875 
L 24.421875 12.015625 
L 35.59375 54.6875 
L 46.1875 54.6875 
L 57.421875 12.015625 
L 68.609375 54.6875 
L 77.59375 54.6875 
L 63.28125 0 
L 52.6875 0 
L 40.921875 44.828125 
L 29.109375 0 
L 18.5 0 
z
" id="DejaVuSans-119"/>
      </defs>
      <use xlink:href="#DejaVuSans-114"/>
      <use x="41.113281" xlink:href="#DejaVuSans-97"/>
      <use x="102.392578" xlink:href="#DejaVuSans-105"/>
      <use x="130.175781" xlink:href="#DejaVuSans-110"/>
      <use x="193.554688" xlink:href="#DejaVuSans-98"/>
      <use x="257.03125" xlink:href="#DejaVuSans-111"/>
      <use x="318.212891" xlink:href="#DejaVuSans-119"/>
     </g>
    </g>
   </g>
   <g id="text_58">
    <g clip-path="url(#p4515facc3b)">
     <!-- is -->
     <g transform="translate(131.117361 410.032102)scale(0.1 -0.1)">
      <defs>
       <path d="M 44.28125 53.078125 
L 44.28125 44.578125 
Q 40.484375 46.53125 36.375 47.5 
Q 32.28125 48.484375 27.875 48.484375 
Q 21.1875 48.484375 17.84375 46.4375 
Q 14.5 44.390625 14.5 40.28125 
Q 14.5 37.15625 16.890625 35.375 
Q 19.28125 33.59375 26.515625 31.984375 
L 29.59375 31.296875 
Q 39.15625 29.25 43.1875 25.515625 
Q 47.21875 21.78125 47.21875 15.09375 
Q 47.21875 7.46875 41.1875 3.015625 
Q 35.15625 -1.421875 24.609375 -1.421875 
Q 20.21875 -1.421875 15.453125 -0.5625 
Q 10.6875 0.296875 5.421875 2 
L 5.421875 11.28125 
Q 10.40625 8.6875 15.234375 7.390625 
Q 20.0625 6.109375 24.8125 6.109375 
Q 31.15625 6.109375 34.5625 8.28125 
Q 37.984375 10.453125 37.984375 14.40625 
Q 37.984375 18.0625 35.515625 20.015625 
Q 33.0625 21.96875 24.703125 23.78125 
L 21.578125 24.515625 
Q 13.234375 26.265625 9.515625 29.90625 
Q 5.8125 33.546875 5.8125 39.890625 
Q 5.8125 47.609375 11.28125 51.796875 
Q 16.75 56 26.8125 56 
Q 31.78125 56 36.171875 55.265625 
Q 40.578125 54.546875 44.28125 53.078125 
z
" id="DejaVuSans-115"/>
      </defs>
      <use xlink:href="#DejaVuSans-105"/>
      <use x="27.783203" xlink:href="#DejaVuSans-115"/>
     </g>
    </g>
   </g>
   <g id="text_59">
    <g clip-path="url(#p4515facc3b)">
     <!-- formed -->
     <g transform="translate(166.33383 410.032102)scale(0.1 -0.1)">
      <defs>
       <path d="M 37.109375 75.984375 
L 37.109375 68.5 
L 28.515625 68.5 
Q 23.6875 68.5 21.796875 66.546875 
Q 19.921875 64.59375 19.921875 59.515625 
L 19.921875 54.6875 
L 34.71875 54.6875 
L 34.71875 47.703125 
L 19.921875 47.703125 
L 19.921875 0 
L 10.890625 0 
L 10.890625 47.703125 
L 2.296875 47.703125 
L 2.296875 54.6875 
L 10.890625 54.6875 
L 10.890625 58.5 
Q 10.890625 67.625 15.140625 71.796875 
Q 19.390625 75.984375 28.609375 75.984375 
z
" id="DejaVuSans-102"/>
       <path d="M 45.40625 46.390625 
L 45.40625 75.984375 
L 54.390625 75.984375 
L 54.390625 0 
L 45.40625 0 
L 45.40625 8.203125 
Q 42.578125 3.328125 38.25 0.953125 
Q 33.9375 -1.421875 27.875 -1.421875 
Q 17.96875 -1.421875 11.734375 6.484375 
Q 5.515625 14.40625 5.515625 27.296875 
Q 5.515625 40.1875 11.734375 48.09375 
Q 17.96875 56 27.875 56 
Q 33.9375 56 38.25 53.625 
Q 42.578125 51.265625 45.40625 46.390625 
z
M 14.796875 27.296875 
Q 14.796875 17.390625 18.875 11.75 
Q 22.953125 6.109375 30.078125 6.109375 
Q 37.203125 6.109375 41.296875 11.75 
Q 45.40625 17.390625 45.40625 27.296875 
Q 45.40625 37.203125 41.296875 42.84375 
Q 37.203125 48.484375 30.078125 48.484375 
Q 22.953125 48.484375 18.875 42.84375 
Q 14.796875 37.203125 14.796875 27.296875 
z
" id="DejaVuSans-100"/>
      </defs>
      <use xlink:href="#DejaVuSans-102"/>
      <use x="35.205078" xlink:href="#DejaVuSans-111"/>
      <use x="96.386719" xlink:href="#DejaVuSans-114"/>
      <use x="135.75" xlink:href="#DejaVuSans-109"/>
      <use x="233.162109" xlink:href="#DejaVuSans-101"/>
      <use x="294.685547" xlink:href="#DejaVuSans-100"/>
     </g>
    </g>
   </g>
   <g id="text_60">
    <g clip-path="url(#p4515facc3b)">
     <!-- by -->
     <g transform="translate(227.240144 410.032102)scale(0.1 -0.1)">
      <defs>
       <path d="M 32.171875 -5.078125 
Q 28.375 -14.84375 24.75 -17.8125 
Q 21.140625 -20.796875 15.09375 -20.796875 
L 7.90625 -20.796875 
L 7.90625 -13.28125 
L 13.1875 -13.28125 
Q 16.890625 -13.28125 18.9375 -11.515625 
Q 21 -9.765625 23.484375 -3.21875 
L 25.09375 0.875 
L 2.984375 54.6875 
L 12.5 54.6875 
L 29.59375 11.921875 
L 46.6875 54.6875 
L 56.203125 54.6875 
z
" id="DejaVuSans-121"/>
      </defs>
      <use xlink:href="#DejaVuSans-98"/>
      <use x="63.476562" xlink:href="#DejaVuSans-121"/>
     </g>
    </g>
   </g>
   <g id="text_61">
    <g clip-path="url(#p4515facc3b)">
     <!-- refraction -->
     <g transform="translate(258.279269 410.032102)scale(0.1 -0.1)">
      <defs>
       <path d="M 48.78125 52.59375 
L 48.78125 44.1875 
Q 44.96875 46.296875 41.140625 47.34375 
Q 37.3125 48.390625 33.40625 48.390625 
Q 24.65625 48.390625 19.8125 42.84375 
Q 14.984375 37.3125 14.984375 27.296875 
Q 14.984375 17.28125 19.8125 11.734375 
Q 24.65625 6.203125 33.40625 6.203125 
Q 37.3125 6.203125 41.140625 7.25 
Q 44.96875 8.296875 48.78125 10.40625 
L 48.78125 2.09375 
Q 45.015625 0.34375 40.984375 -0.53125 
Q 36.96875 -1.421875 32.421875 -1.421875 
Q 20.0625 -1.421875 12.78125 6.34375 
Q 5.515625 14.109375 5.515625 27.296875 
Q 5.515625 40.671875 12.859375 48.328125 
Q 20.21875 56 33.015625 56 
Q 37.15625 56 41.109375 55.140625 
Q 45.0625 54.296875 48.78125 52.59375 
z
" id="DejaVuSans-99"/>
       <path d="M 18.3125 70.21875 
L 18.3125 54.6875 
L 36.8125 54.6875 
L 36.8125 47.703125 
L 18.3125 47.703125 
L 18.3125 18.015625 
Q 18.3125 11.328125 20.140625 9.421875 
Q 21.96875 7.515625 27.59375 7.515625 
L 36.8125 7.515625 
L 36.8125 0 
L 27.59375 0 
Q 17.1875 0 13.234375 3.875 
Q 9.28125 7.765625 9.28125 18.015625 
L 9.28125 47.703125 
L 2.6875 47.703125 
L 2.6875 54.6875 
L 9.28125 54.6875 
L 9.28125 70.21875 
z
" id="DejaVuSans-116"/>
      </defs>
      <use xlink:href="#DejaVuSans-114"/>
      <use x="38.863281" xlink:href="#DejaVuSans-101"/>
      <use x="100.386719" xlink:href="#DejaVuSans-102"/>
      <use x="135.591797" xlink:href="#DejaVuSans-114"/>
      <use x="176.705078" xlink:href="#DejaVuSans-97"/>
      <use x="237.984375" xlink:href="#DejaVuSans-99"/>
      <use x="292.964844" xlink:href="#DejaVuSans-116"/>
      <use x="332.173828" xlink:href="#DejaVuSans-105"/>
      <use x="359.957031" xlink:href="#DejaVuSans-111"/>
      <use x="421.138672" xlink:href="#DejaVuSans-110"/>
     </g>
    </g>
   </g>
   <g id="text_62">
    <g clip-path="url(#p4515facc3b)">
     <!-- of -->
     <g transform="translate(326.816832 410.032102)scale(0.1 -0.1)">
      <use xlink:href="#DejaVuSans-111"/>
      <use x="61.181641" xlink:href="#DejaVuSans-102"/>
     </g>
    </g>
   </g>
   <g id="text_63">
    <g clip-path="url(#p4515facc3b)">
     <!-- light -->
     <g transform="translate(369.686427 410.032102)scale(0.1 -0.1)">
      <defs>
       <path d="M 45.40625 27.984375 
Q 45.40625 37.75 41.375 43.109375 
Q 37.359375 48.484375 30.078125 48.484375 
Q 22.859375 48.484375 18.828125 43.109375 
Q 14.796875 37.75 14.796875 27.984375 
Q 14.796875 18.265625 18.828125 12.890625 
Q 22.859375 7.515625 30.078125 7.515625 
Q 37.359375 7.515625 41.375 12.890625 
Q 45.40625 18.265625 45.40625 27.984375 
z
M 54.390625 6.78125 
Q 54.390625 -7.171875 48.1875 -13.984375 
Q 42 -20.796875 29.203125 -20.796875 
Q 24.46875 -20.796875 20.265625 -20.09375 
Q 16.0625 -19.390625 12.109375 -17.921875 
L 12.109375 -9.1875 
Q 16.0625 -11.328125 19.921875 -12.34375 
Q 23.78125 -13.375 27.78125 -13.375 
Q 36.625 -13.375 41.015625 -8.765625 
Q 45.40625 -4.15625 45.40625 5.171875 
L 45.40625 9.625 
Q 42.625 4.78125 38.28125 2.390625 
Q 33.9375 0 27.875 0 
Q 17.828125 0 11.671875 7.65625 
Q 5.515625 15.328125 5.515625 27.984375 
Q 5.515625 40.671875 11.671875 48.328125 
Q 17.828125 56 27.875 56 
Q 33.9375 56 38.28125 53.609375 
Q 42.625 51.21875 45.40625 46.390625 
L 45.40625 54.6875 
L 54.390625 54.6875 
z
" id="DejaVuSans-103"/>
       <path d="M 54.890625 33.015625 
L 54.890625 0 
L 45.90625 0 
L 45.90625 32.71875 
Q 45.90625 40.484375 42.875 44.328125 
Q 39.84375 48.1875 33.796875 48.1875 
Q 26.515625 48.1875 22.3125 43.546875 
Q 18.109375 38.921875 18.109375 30.90625 
L 18.109375 0 
L 9.078125 0 
L 9.078125 75.984375 
L 18.109375 75.984375 
L 18.109375 46.1875 
Q 21.34375 51.125 25.703125 53.5625 
Q 30.078125 56 35.796875 56 
Q 45.21875 56 50.046875 50.171875 
Q 54.890625 44.34375 54.890625 33.015625 
z
" id="DejaVuSans-104"/>
      </defs>
      <use xlink:href="#DejaVuSans-108"/>
      <use x="27.783203" xlink:href="#DejaVuSans-105"/>
      <use x="55.566406" xlink:href="#DejaVuSans-103"/>
      <use x="119.042969" xlink:href="#DejaVuSans-104"/>
      <use x="182.421875" xlink:href="#DejaVuSans-116"/>
     </g>
    </g>
   </g>
   <g id="text_64">
    <g clip-path="url(#p4515facc3b)">
     <!-- by -->
     <g transform="translate(423.765396 410.032102)scale(0.1 -0.1)">
      <use xlink:href="#DejaVuSans-98"/>
      <use x="63.476562" xlink:href="#DejaVuSans-121"/>
     </g>
    </g>
   </g>
   <g id="text_65">
    <g clip-path="url(#p4515facc3b)">
     <!-- splitting -->
     <g transform="translate(458.820928 410.032102)scale(0.1 -0.1)">
      <defs>
       <path d="M 18.109375 8.203125 
L 18.109375 -20.796875 
L 9.078125 -20.796875 
L 9.078125 54.6875 
L 18.109375 54.6875 
L 18.109375 46.390625 
Q 20.953125 51.265625 25.265625 53.625 
Q 29.59375 56 35.59375 56 
Q 45.5625 56 51.78125 48.09375 
Q 58.015625 40.1875 58.015625 27.296875 
Q 58.015625 14.40625 51.78125 6.484375 
Q 45.5625 -1.421875 35.59375 -1.421875 
Q 29.59375 -1.421875 25.265625 0.953125 
Q 20.953125 3.328125 18.109375 8.203125 
z
M 48.6875 27.296875 
Q 48.6875 37.203125 44.609375 42.84375 
Q 40.53125 48.484375 33.40625 48.484375 
Q 26.265625 48.484375 22.1875 42.84375 
Q 18.109375 37.203125 18.109375 27.296875 
Q 18.109375 17.390625 22.1875 11.75 
Q 26.265625 6.109375 33.40625 6.109375 
Q 40.53125 6.109375 44.609375 11.75 
Q 48.6875 17.390625 48.6875 27.296875 
z
" id="DejaVuSans-112"/>
      </defs>
      <use xlink:href="#DejaVuSans-115"/>
      <use x="52.099609" xlink:href="#DejaVuSans-112"/>
      <use x="115.576172" xlink:href="#DejaVuSans-108"/>
      <use x="143.359375" xlink:href="#DejaVuSans-105"/>
      <use x="171.142578" xlink:href="#DejaVuSans-116"/>
      <use x="210.351562" xlink:href="#DejaVuSans-116"/>
      <use x="249.560547" xlink:href="#DejaVuSans-105"/>
      <use x="277.34375" xlink:href="#DejaVuSans-110"/>
      <use x="340.722656" xlink:href="#DejaVuSans-103"/>
     </g>
    </g>
   </g>
   <g id="text_66">
    <g clip-path="url(#p4515facc3b)">
     <!-- light -->
     <g transform="translate(517.080366 410.032102)scale(0.1 -0.1)">
      <use xlink:href="#DejaVuSans-108"/>
      <use x="27.783203" xlink:href="#DejaVuSans-105"/>
      <use x="55.566406" xlink:href="#DejaVuSans-103"/>
      <use x="119.042969" xlink:href="#DejaVuSans-104"/>
      <use x="182.421875" xlink:href="#DejaVuSans-116"/>
     </g>
    </g>
   </g>
   <g id="text_67">
    <g clip-path="url(#p4515facc3b)">
     <!-- into -->
     <g transform="translate(567.715586 410.032102)scale(0.1 -0.1)">
      <use xlink:href="#DejaVuSans-105"/>
      <use x="27.783203" xlink:href="#DejaVuSans-110"/>
      <use x="91.162109" xlink:href="#DejaVuSans-116"/>
      <use x="130.371094" xlink:href="#DejaVuSans-111"/>
     </g>
    </g>
   </g>
   <g id="text_68">
    <g clip-path="url(#p4515facc3b)">
     <!-- all -->
     <g transform="translate(620.582055 410.032102)scale(0.1 -0.1)">
      <use xlink:href="#DejaVuSans-97"/>
      <use x="61.279297" xlink:href="#DejaVuSans-108"/>
      <use x="89.0625" xlink:href="#DejaVuSans-108"/>
     </g>
    </g>
   </g>
   <g id="text_69">
    <g clip-path="url(#p4515facc3b)">
     <!-- different -->
     <g transform="translate(654.246962 410.032102)scale(0.1 -0.1)">
      <use xlink:href="#DejaVuSans-100"/>
      <use x="63.476562" xlink:href="#DejaVuSans-105"/>
      <use x="91.259766" xlink:href="#DejaVuSans-102"/>
      <use x="126.464844" xlink:href="#DejaVuSans-102"/>
      <use x="161.669922" xlink:href="#DejaVuSans-101"/>
      <use x="223.193359" xlink:href="#DejaVuSans-114"/>
      <use x="262.056641" xlink:href="#DejaVuSans-101"/>
      <use x="323.580078" xlink:href="#DejaVuSans-110"/>
      <use x="386.958984" xlink:href="#DejaVuSans-116"/>
     </g>
    </g>
   </g>
   <g id="text_70">
    <g clip-path="url(#p4515facc3b)">
     <!-- colors -->
     <g transform="translate(709.769681 410.032102)scale(0.1 -0.1)">
      <use xlink:href="#DejaVuSans-99"/>
      <use x="54.980469" xlink:href="#DejaVuSans-111"/>
      <use x="116.162109" xlink:href="#DejaVuSans-108"/>
      <use x="143.945312" xlink:href="#DejaVuSans-111"/>
      <use x="205.126953" xlink:href="#DejaVuSans-114"/>
      <use x="246.240234" xlink:href="#DejaVuSans-115"/>
     </g>
    </g>
   </g>
   <g id="text_71">
    <g clip-path="url(#p4515facc3b)">
     <!-- . -->
     <g transform="translate(772.229119 410.032102)scale(0.1 -0.1)">
      <defs>
       <path d="M 10.6875 12.40625 
L 21 12.40625 
L 21 0 
L 10.6875 0 
z
" id="DejaVuSans-46"/>
      </defs>
      <use xlink:href="#DejaVuSans-46"/>
     </g>
    </g>
   </g>
  </g>
 </g>
 <defs>
  <clipPath id="p4515facc3b">
   <rect height="426.666667" width="810.666667" x="0" y="0"/>
  </clipPath>
 </defs>
</svg>
