<?xml version="1.0" encoding="utf-8" standalone="no"?>
<!DOCTYPE svg PUBLIC "-//W3C//DTD SVG 1.1//EN"
  "http://www.w3.org/Graphics/SVG/1.1/DTD/svg11.dtd">
<!-- Created with matplotlib (https://matplotlib.org/) -->
<svg height="320pt" version="1.1" viewBox="0 0 608 320" width="608pt" xmlns="http://www.w3.org/2000/svg" xmlns:xlink="http://www.w3.org/1999/xlink">
 <metadata>
  <rdf:RDF xmlns:cc="http://creativecommons.org/ns#" xmlns:dc="http://purl.org/dc/elements/1.1/" xmlns:rdf="http://www.w3.org/1999/02/22-rdf-syntax-ns#">
   <cc:Work>
    <dc:type rdf:resource="http://purl.org/dc/dcmitype/StillImage"/>
    <dc:date>2021-05-19T11:41:58.741711</dc:date>
    <dc:format>image/svg+xml</dc:format>
    <dc:creator>
     <cc:Agent>
      <dc:title>Matplotlib v3.3.4, https://matplotlib.org/</dc:title>
     </cc:Agent>
    </dc:creator>
   </cc:Work>
  </rdf:RDF>
 </metadata>
 <defs>
  <style type="text/css">*{stroke-linecap:butt;stroke-linejoin:round;}</style>
 </defs>
 <g id="figure_1">
  <g id="patch_1">
   <path d="M 0 320 
L 608 320 
L 608 0 
L 0 0 
z
" style="fill:#ffffff;"/>
  </g>
  <g id="axes_1">
   <g id="LineCollection_1">
    <path clip-path="url(#pe1e913b39f)" d="M 221.449823 14.545455 
L 77.884298 208.932425 
" style="fill:none;stroke:#000000;"/>
    <path clip-path="url(#pe1e913b39f)" d="M 221.449823 14.545455 
L 178.380165 112.410304 
" style="fill:none;stroke:#000000;"/>
    <path clip-path="url(#pe1e913b39f)" d="M 221.449823 14.545455 
L 580.363636 208.932425 
" style="fill:none;stroke:#000000;"/>
    <path clip-path="url(#pe1e913b39f)" d="M 221.449823 14.545455 
L 27.636364 208.932425 
" style="fill:none;stroke:#000000;stroke-dasharray:3.7,1.6;stroke-dashoffset:0;"/>
    <path clip-path="url(#pe1e913b39f)" d="M 221.449823 14.545455 
L 278.876033 208.932425 
" style="fill:none;stroke:#000000;"/>
    <path clip-path="url(#pe1e913b39f)" d="M 221.449823 14.545455 
L 379.371901 112.410304 
" style="fill:none;stroke:#000000;"/>
    <path clip-path="url(#pe1e913b39f)" d="M 77.884298 208.932425 
L 77.884298 305.454545 
" style="fill:none;stroke:#000000;"/>
    <path clip-path="url(#pe1e913b39f)" d="M 178.380165 112.410304 
L 128.132231 208.932425 
" style="fill:none;stroke:#000000;"/>
    <path clip-path="url(#pe1e913b39f)" d="M 178.380165 112.410304 
L 178.380165 208.932425 
" style="fill:none;stroke:#000000;"/>
    <path clip-path="url(#pe1e913b39f)" d="M 178.380165 112.410304 
L 228.628099 208.932425 
" style="fill:none;stroke:#000000;"/>
    <path clip-path="url(#pe1e913b39f)" d="M 580.363636 208.932425 
L 580.363636 305.454545 
" style="fill:none;stroke:#000000;"/>
    <path clip-path="url(#pe1e913b39f)" d="M 128.132231 208.932425 
L 128.132231 305.454545 
" style="fill:none;stroke:#000000;"/>
    <path clip-path="url(#pe1e913b39f)" d="M 178.380165 208.932425 
L 178.380165 305.454545 
" style="fill:none;stroke:#000000;"/>
    <path clip-path="url(#pe1e913b39f)" d="M 228.628099 208.932425 
L 228.628099 305.454545 
" style="fill:none;stroke:#000000;"/>
    <path clip-path="url(#pe1e913b39f)" d="M 27.636364 208.932425 
L 27.636364 305.454545 
" style="fill:none;stroke:#000000;"/>
    <path clip-path="url(#pe1e913b39f)" d="M 278.876033 208.932425 
L 278.876033 305.454545 
" style="fill:none;stroke:#000000;"/>
    <path clip-path="url(#pe1e913b39f)" d="M 379.371901 112.410304 
L 329.123967 208.932425 
" style="fill:none;stroke:#000000;"/>
    <path clip-path="url(#pe1e913b39f)" d="M 379.371901 112.410304 
L 379.371901 208.932425 
" style="fill:none;stroke:#000000;"/>
    <path clip-path="url(#pe1e913b39f)" d="M 379.371901 112.410304 
L 429.619835 208.932425 
" style="fill:none;stroke:#000000;"/>
    <path clip-path="url(#pe1e913b39f)" d="M 329.123967 208.932425 
L 329.123967 305.454545 
" style="fill:none;stroke:#000000;"/>
    <path clip-path="url(#pe1e913b39f)" d="M 379.371901 208.932425 
L 379.371901 305.454545 
" style="fill:none;stroke:#000000;"/>
    <path clip-path="url(#pe1e913b39f)" d="M 429.619835 208.932425 
L 429.619835 305.454545 
" style="fill:none;stroke:#000000;"/>
   </g>
   <g id="text_1">
    <g id="patch_2">
     <path clip-path="url(#pe1e913b39f)" d="M 153.344854 117.315254 
L 156.078419 113.614022 
Q 157.504239 111.683468 155.573686 110.257648 
L 149.34564 105.657892 
Q 147.415087 104.232072 145.989267 106.162625 
L 143.255702 109.863858 
Q 141.829881 111.794411 143.760435 113.220231 
L 149.98848 117.819987 
Q 151.919033 119.245808 153.344854 117.315254 
z
" style="fill:#ffffff;stroke:#ffffff;stroke-linejoin:miter;"/>
    </g>
    <g clip-path="url(#pe1e913b39f)">
     <!-- F -->
     <g transform="translate(150.075985 114.901014)rotate(-53.552082)scale(0.08 -0.08)">
      <defs>
       <path d="M 9.8125 72.90625 
L 51.703125 72.90625 
L 51.703125 64.59375 
L 19.671875 64.59375 
L 19.671875 43.109375 
L 48.578125 43.109375 
L 48.578125 34.8125 
L 19.671875 34.8125 
L 19.671875 0 
L 9.8125 0 
z
" id="DejaVuSans-70"/>
      </defs>
      <use xlink:href="#DejaVuSans-70"/>
     </g>
    </g>
   </g>
   <g id="text_2">
    <g id="patch_3">
     <path clip-path="url(#pe1e913b39f)" d="M 204.552777 68.508447 
L 206.757155 63.499558 
Q 207.7239 61.302877 205.527219 60.336133 
L 198.440636 57.217375 
Q 196.243955 56.250631 195.277211 58.447312 
L 193.072833 63.456201 
Q 192.106089 65.652882 194.302769 66.619626 
L 201.389352 69.738383 
Q 203.586033 70.705127 204.552777 68.508447 
z
" style="fill:#ffffff;stroke:#ffffff;stroke-linejoin:miter;"/>
    </g>
    <g clip-path="url(#pe1e913b39f)">
     <!-- A -->
     <g transform="translate(200.833293 66.871527)rotate(-66.24603)scale(0.08 -0.08)">
      <defs>
       <path d="M 34.1875 63.1875 
L 20.796875 26.90625 
L 47.609375 26.90625 
z
M 28.609375 72.90625 
L 39.796875 72.90625 
L 67.578125 0 
L 57.328125 0 
L 50.6875 18.703125 
L 17.828125 18.703125 
L 11.1875 0 
L 0.78125 0 
z
" id="DejaVuSans-65"/>
      </defs>
      <use xlink:href="#DejaVuSans-65"/>
     </g>
    </g>
   </g>
   <g id="text_3">
    <g id="patch_4">
     <path clip-path="url(#pe1e913b39f)" d="M 395.345931 115.859176 
L 400.494333 118.64754 
Q 402.604695 119.790508 403.747662 117.680146 
L 407.434923 110.872032 
Q 408.57789 108.761671 406.467529 107.618703 
L 401.319126 104.830339 
Q 399.208764 103.687372 398.065797 105.797733 
L 394.378537 112.605847 
Q 393.235569 114.716209 395.345931 115.859176 
z
" style="fill:#ffffff;stroke:#ffffff;stroke-linejoin:miter;"/>
    </g>
    <g clip-path="url(#pe1e913b39f)">
     <!-- U -->
     <g transform="translate(397.281236 112.285851)rotate(-331.560117)scale(0.08 -0.08)">
      <defs>
       <path d="M 8.6875 72.90625 
L 18.609375 72.90625 
L 18.609375 28.609375 
Q 18.609375 16.890625 22.84375 11.734375 
Q 27.09375 6.59375 36.625 6.59375 
Q 46.09375 6.59375 50.34375 11.734375 
Q 54.59375 16.890625 54.59375 28.609375 
L 54.59375 72.90625 
L 64.5 72.90625 
L 64.5 27.390625 
Q 64.5 13.140625 57.4375 5.859375 
Q 50.390625 -1.421875 36.625 -1.421875 
Q 22.796875 -1.421875 15.734375 5.859375 
Q 8.6875 13.140625 8.6875 27.390625 
z
" id="DejaVuSans-85"/>
      </defs>
      <use xlink:href="#DejaVuSans-85"/>
     </g>
    </g>
   </g>
   <g id="text_4">
    <g id="patch_5">
     <path clip-path="url(#pe1e913b39f)" d="M 127.052123 118.104504 
L 130.916043 114.22915 
Q 132.610591 112.529588 130.911029 110.835041 
L 125.428173 105.368361 
Q 123.728611 103.673814 122.034064 105.373375 
L 118.170143 109.24873 
Q 116.475596 110.948291 118.175157 112.642838 
L 123.658014 118.109519 
Q 125.357575 119.804066 127.052123 118.104504 
z
" style="fill:#ffffff;stroke:#ffffff;stroke-linejoin:miter;"/>
    </g>
    <g clip-path="url(#pe1e913b39f)">
     <!-- A -->
     <g transform="translate(124.174375 115.235247)rotate(-45.084646)scale(0.08 -0.08)">
      <use xlink:href="#DejaVuSans-65"/>
     </g>
    </g>
   </g>
   <g id="text_5">
    <g id="patch_6">
     <path clip-path="url(#pe1e913b39f)" d="M 243.496828 111.309335 
L 244.800443 115.722054 
Q 245.480405 118.023717 247.782067 117.343755 
L 255.207327 115.150169 
Q 257.50899 114.470207 256.829028 112.168544 
L 255.525413 107.755825 
Q 254.845451 105.454162 252.543788 106.134124 
L 245.118528 108.32771 
Q 242.816866 109.007672 243.496828 111.309335 
z
" style="fill:#ffffff;stroke:#ffffff;stroke-linejoin:miter;"/>
    </g>
    <g clip-path="url(#pe1e913b39f)">
     <!-- F -->
     <g transform="translate(247.39407 110.158004)rotate(-286.458306)scale(0.08 -0.08)">
      <use xlink:href="#DejaVuSans-70"/>
     </g>
    </g>
   </g>
   <g id="text_6">
    <g id="patch_7">
     <path clip-path="url(#pe1e913b39f)" d="M 294.781578 67.367199 
L 299.433289 70.24988 
Q 301.473326 71.514098 302.737544 69.474061 
L 306.815965 62.892815 
Q 308.080183 60.852778 306.040145 59.588559 
L 301.388435 56.705879 
Q 299.348398 55.441661 298.08418 57.481698 
L 294.005759 64.062944 
Q 292.741541 66.102981 294.781578 67.367199 
z
" style="fill:#ffffff;stroke:#ffffff;stroke-linejoin:miter;"/>
    </g>
    <g clip-path="url(#pe1e913b39f)">
     <!-- A -->
     <g transform="translate(296.922189 63.912948)rotate(-328.213364)scale(0.08 -0.08)">
      <use xlink:href="#DejaVuSans-65"/>
     </g>
    </g>
   </g>
   <g id="text_7">
    <g id="patch_8">
     <path clip-path="url(#pe1e913b39f)" d="M 71.613048 240.289735 
L 71.613048 274.097235 
Q 71.613048 276.497235 74.013048 276.497235 
L 81.755548 276.497235 
Q 84.155548 276.497235 84.155548 274.097235 
L 84.155548 240.289735 
Q 84.155548 237.889735 81.755548 237.889735 
L 74.013048 237.889735 
Q 71.613048 237.889735 71.613048 240.289735 
z
" style="fill:#ffffff;stroke:#ffffff;stroke-linejoin:miter;"/>
    </g>
    <g clip-path="url(#pe1e913b39f)">
     <!-- Terminal -->
     <g transform="translate(75.676798 240.289735)rotate(-270)scale(0.08 -0.08)">
      <defs>
       <path d="M -0.296875 72.90625 
L 61.375 72.90625 
L 61.375 64.59375 
L 35.5 64.59375 
L 35.5 0 
L 25.59375 0 
L 25.59375 64.59375 
L -0.296875 64.59375 
z
" id="DejaVuSans-84"/>
       <path d="M 56.203125 29.59375 
L 56.203125 25.203125 
L 14.890625 25.203125 
Q 15.484375 15.921875 20.484375 11.0625 
Q 25.484375 6.203125 34.421875 6.203125 
Q 39.59375 6.203125 44.453125 7.46875 
Q 49.3125 8.734375 54.109375 11.28125 
L 54.109375 2.78125 
Q 49.265625 0.734375 44.1875 -0.34375 
Q 39.109375 -1.421875 33.890625 -1.421875 
Q 20.796875 -1.421875 13.15625 6.1875 
Q 5.515625 13.8125 5.515625 26.8125 
Q 5.515625 40.234375 12.765625 48.109375 
Q 20.015625 56 32.328125 56 
Q 43.359375 56 49.78125 48.890625 
Q 56.203125 41.796875 56.203125 29.59375 
z
M 47.21875 32.234375 
Q 47.125 39.59375 43.09375 43.984375 
Q 39.0625 48.390625 32.421875 48.390625 
Q 24.90625 48.390625 20.390625 44.140625 
Q 15.875 39.890625 15.1875 32.171875 
z
" id="DejaVuSans-101"/>
       <path d="M 41.109375 46.296875 
Q 39.59375 47.171875 37.8125 47.578125 
Q 36.03125 48 33.890625 48 
Q 26.265625 48 22.1875 43.046875 
Q 18.109375 38.09375 18.109375 28.8125 
L 18.109375 0 
L 9.078125 0 
L 9.078125 54.6875 
L 18.109375 54.6875 
L 18.109375 46.1875 
Q 20.953125 51.171875 25.484375 53.578125 
Q 30.03125 56 36.53125 56 
Q 37.453125 56 38.578125 55.875 
Q 39.703125 55.765625 41.0625 55.515625 
z
" id="DejaVuSans-114"/>
       <path d="M 52 44.1875 
Q 55.375 50.25 60.0625 53.125 
Q 64.75 56 71.09375 56 
Q 79.640625 56 84.28125 50.015625 
Q 88.921875 44.046875 88.921875 33.015625 
L 88.921875 0 
L 79.890625 0 
L 79.890625 32.71875 
Q 79.890625 40.578125 77.09375 44.375 
Q 74.3125 48.1875 68.609375 48.1875 
Q 61.625 48.1875 57.5625 43.546875 
Q 53.515625 38.921875 53.515625 30.90625 
L 53.515625 0 
L 44.484375 0 
L 44.484375 32.71875 
Q 44.484375 40.625 41.703125 44.40625 
Q 38.921875 48.1875 33.109375 48.1875 
Q 26.21875 48.1875 22.15625 43.53125 
Q 18.109375 38.875 18.109375 30.90625 
L 18.109375 0 
L 9.078125 0 
L 9.078125 54.6875 
L 18.109375 54.6875 
L 18.109375 46.1875 
Q 21.1875 51.21875 25.484375 53.609375 
Q 29.78125 56 35.6875 56 
Q 41.65625 56 45.828125 52.96875 
Q 50 49.953125 52 44.1875 
z
" id="DejaVuSans-109"/>
       <path d="M 9.421875 54.6875 
L 18.40625 54.6875 
L 18.40625 0 
L 9.421875 0 
z
M 9.421875 75.984375 
L 18.40625 75.984375 
L 18.40625 64.59375 
L 9.421875 64.59375 
z
" id="DejaVuSans-105"/>
       <path d="M 54.890625 33.015625 
L 54.890625 0 
L 45.90625 0 
L 45.90625 32.71875 
Q 45.90625 40.484375 42.875 44.328125 
Q 39.84375 48.1875 33.796875 48.1875 
Q 26.515625 48.1875 22.3125 43.546875 
Q 18.109375 38.921875 18.109375 30.90625 
L 18.109375 0 
L 9.078125 0 
L 9.078125 54.6875 
L 18.109375 54.6875 
L 18.109375 46.1875 
Q 21.34375 51.125 25.703125 53.5625 
Q 30.078125 56 35.796875 56 
Q 45.21875 56 50.046875 50.171875 
Q 54.890625 44.34375 54.890625 33.015625 
z
" id="DejaVuSans-110"/>
       <path d="M 34.28125 27.484375 
Q 23.390625 27.484375 19.1875 25 
Q 14.984375 22.515625 14.984375 16.5 
Q 14.984375 11.71875 18.140625 8.90625 
Q 21.296875 6.109375 26.703125 6.109375 
Q 34.1875 6.109375 38.703125 11.40625 
Q 43.21875 16.703125 43.21875 25.484375 
L 43.21875 27.484375 
z
M 52.203125 31.203125 
L 52.203125 0 
L 43.21875 0 
L 43.21875 8.296875 
Q 40.140625 3.328125 35.546875 0.953125 
Q 30.953125 -1.421875 24.3125 -1.421875 
Q 15.921875 -1.421875 10.953125 3.296875 
Q 6 8.015625 6 15.921875 
Q 6 25.140625 12.171875 29.828125 
Q 18.359375 34.515625 30.609375 34.515625 
L 43.21875 34.515625 
L 43.21875 35.40625 
Q 43.21875 41.609375 39.140625 45 
Q 35.0625 48.390625 27.6875 48.390625 
Q 23 48.390625 18.546875 47.265625 
Q 14.109375 46.140625 10.015625 43.890625 
L 10.015625 52.203125 
Q 14.9375 54.109375 19.578125 55.046875 
Q 24.21875 56 28.609375 56 
Q 40.484375 56 46.34375 49.84375 
Q 52.203125 43.703125 52.203125 31.203125 
z
" id="DejaVuSans-97"/>
       <path d="M 9.421875 75.984375 
L 18.40625 75.984375 
L 18.40625 0 
L 9.421875 0 
z
" id="DejaVuSans-108"/>
      </defs>
      <use xlink:href="#DejaVuSans-84"/>
      <use x="44.083984" xlink:href="#DejaVuSans-101"/>
      <use x="105.607422" xlink:href="#DejaVuSans-114"/>
      <use x="144.970703" xlink:href="#DejaVuSans-109"/>
      <use x="242.382812" xlink:href="#DejaVuSans-105"/>
      <use x="270.166016" xlink:href="#DejaVuSans-110"/>
      <use x="333.544922" xlink:href="#DejaVuSans-97"/>
      <use x="394.824219" xlink:href="#DejaVuSans-108"/>
     </g>
    </g>
   </g>
   <g id="text_8">
    <g id="patch_9">
     <path clip-path="url(#pe1e913b39f)" d="M 157.651724 165.809086 
L 159.985926 161.325279 
Q 161.094152 159.196468 158.965341 158.088242 
L 152.097709 154.513058 
Q 149.968899 153.404832 148.860672 155.533643 
L 146.526471 160.01745 
Q 145.418245 162.146261 147.547056 163.254487 
L 154.414687 166.829671 
Q 156.543498 167.937897 157.651724 165.809086 
z
" style="fill:#ffffff;stroke:#ffffff;stroke-linejoin:miter;"/>
    </g>
    <g clip-path="url(#pe1e913b39f)">
     <!-- E -->
     <g transform="translate(154.04716 163.932605)rotate(-62.499207)scale(0.08 -0.08)">
      <defs>
       <path d="M 9.8125 72.90625 
L 55.90625 72.90625 
L 55.90625 64.59375 
L 19.671875 64.59375 
L 19.671875 43.015625 
L 54.390625 43.015625 
L 54.390625 34.71875 
L 19.671875 34.71875 
L 19.671875 8.296875 
L 56.78125 8.296875 
L 56.78125 0 
L 9.8125 0 
z
" id="DejaVuSans-69"/>
      </defs>
      <use xlink:href="#DejaVuSans-69"/>
     </g>
    </g>
   </g>
   <g id="text_9">
    <g id="patch_10">
     <path clip-path="url(#pe1e913b39f)" d="M 172.108915 158.143864 
L 172.108915 163.198864 
Q 172.108915 165.598864 174.508915 165.598864 
L 182.251415 165.598864 
Q 184.651415 165.598864 184.651415 163.198864 
L 184.651415 158.143864 
Q 184.651415 155.743864 182.251415 155.743864 
L 174.508915 155.743864 
Q 172.108915 155.743864 172.108915 158.143864 
z
" style="fill:#ffffff;stroke:#ffffff;stroke-linejoin:miter;"/>
    </g>
    <g clip-path="url(#pe1e913b39f)">
     <!-- E -->
     <g transform="translate(176.172665 158.143864)rotate(-270)scale(0.08 -0.08)">
      <use xlink:href="#DejaVuSans-69"/>
     </g>
    </g>
   </g>
   <g id="text_10">
    <g id="patch_11">
     <path clip-path="url(#pe1e913b39f)" d="M 196.65175 161.089668 
L 199.231262 166.044697 
Q 200.339488 168.173507 202.468298 167.065281 
L 209.33593 163.490098 
Q 211.464741 162.381871 210.356515 160.253061 
L 207.777003 155.298032 
Q 206.668777 153.169222 204.539966 154.277448 
L 197.672334 157.852631 
Q 195.543524 158.960857 196.65175 161.089668 
z
" style="fill:#ffffff;stroke:#ffffff;stroke-linejoin:miter;"/>
    </g>
    <g clip-path="url(#pe1e913b39f)">
     <!-- C -->
     <g transform="translate(200.256314 159.213187)rotate(-297.500793)scale(0.08 -0.08)">
      <defs>
       <path d="M 64.40625 67.28125 
L 64.40625 56.890625 
Q 59.421875 61.53125 53.78125 63.8125 
Q 48.140625 66.109375 41.796875 66.109375 
Q 29.296875 66.109375 22.65625 58.46875 
Q 16.015625 50.828125 16.015625 36.375 
Q 16.015625 21.96875 22.65625 14.328125 
Q 29.296875 6.6875 41.796875 6.6875 
Q 48.140625 6.6875 53.78125 8.984375 
Q 59.421875 11.28125 64.40625 15.921875 
L 64.40625 5.609375 
Q 59.234375 2.09375 53.4375 0.328125 
Q 47.65625 -1.421875 41.21875 -1.421875 
Q 24.65625 -1.421875 15.125 8.703125 
Q 5.609375 18.84375 5.609375 36.375 
Q 5.609375 53.953125 15.125 64.078125 
Q 24.65625 74.21875 41.21875 74.21875 
Q 47.75 74.21875 53.53125 72.484375 
Q 59.328125 70.75 64.40625 67.28125 
z
" id="DejaVuSans-67"/>
      </defs>
      <use xlink:href="#DejaVuSans-67"/>
     </g>
    </g>
   </g>
   <g id="text_11">
    <g id="patch_12">
     <path clip-path="url(#pe1e913b39f)" d="M 574.092386 240.289735 
L 574.092386 274.097235 
Q 574.092386 276.497235 576.492386 276.497235 
L 584.234886 276.497235 
Q 586.634886 276.497235 586.634886 274.097235 
L 586.634886 240.289735 
Q 586.634886 237.889735 584.234886 237.889735 
L 576.492386 237.889735 
Q 574.092386 237.889735 574.092386 240.289735 
z
" style="fill:#ffffff;stroke:#ffffff;stroke-linejoin:miter;"/>
    </g>
    <g clip-path="url(#pe1e913b39f)">
     <!-- Terminal -->
     <g transform="translate(578.156136 240.289735)rotate(-270)scale(0.08 -0.08)">
      <use xlink:href="#DejaVuSans-84"/>
      <use x="44.083984" xlink:href="#DejaVuSans-101"/>
      <use x="105.607422" xlink:href="#DejaVuSans-114"/>
      <use x="144.970703" xlink:href="#DejaVuSans-109"/>
      <use x="242.382812" xlink:href="#DejaVuSans-105"/>
      <use x="270.166016" xlink:href="#DejaVuSans-110"/>
      <use x="333.544922" xlink:href="#DejaVuSans-97"/>
      <use x="394.824219" xlink:href="#DejaVuSans-108"/>
     </g>
    </g>
   </g>
   <g id="text_12">
    <g id="patch_13">
     <path clip-path="url(#pe1e913b39f)" d="M 121.860981 240.289735 
L 121.860981 274.097235 
Q 121.860981 276.497235 124.260981 276.497235 
L 132.003481 276.497235 
Q 134.403481 276.497235 134.403481 274.097235 
L 134.403481 240.289735 
Q 134.403481 237.889735 132.003481 237.889735 
L 124.260981 237.889735 
Q 121.860981 237.889735 121.860981 240.289735 
z
" style="fill:#ffffff;stroke:#ffffff;stroke-linejoin:miter;"/>
    </g>
    <g clip-path="url(#pe1e913b39f)">
     <!-- Terminal -->
     <g transform="translate(125.924731 240.289735)rotate(-270)scale(0.08 -0.08)">
      <use xlink:href="#DejaVuSans-84"/>
      <use x="44.083984" xlink:href="#DejaVuSans-101"/>
      <use x="105.607422" xlink:href="#DejaVuSans-114"/>
      <use x="144.970703" xlink:href="#DejaVuSans-109"/>
      <use x="242.382812" xlink:href="#DejaVuSans-105"/>
      <use x="270.166016" xlink:href="#DejaVuSans-110"/>
      <use x="333.544922" xlink:href="#DejaVuSans-97"/>
      <use x="394.824219" xlink:href="#DejaVuSans-108"/>
     </g>
    </g>
   </g>
   <g id="text_13">
    <g id="patch_14">
     <path clip-path="url(#pe1e913b39f)" d="M 172.108915 240.289735 
L 172.108915 274.097235 
Q 172.108915 276.497235 174.508915 276.497235 
L 182.251415 276.497235 
Q 184.651415 276.497235 184.651415 274.097235 
L 184.651415 240.289735 
Q 184.651415 237.889735 182.251415 237.889735 
L 174.508915 237.889735 
Q 172.108915 237.889735 172.108915 240.289735 
z
" style="fill:#ffffff;stroke:#ffffff;stroke-linejoin:miter;"/>
    </g>
    <g clip-path="url(#pe1e913b39f)">
     <!-- Terminal -->
     <g transform="translate(176.172665 240.289735)rotate(-270)scale(0.08 -0.08)">
      <use xlink:href="#DejaVuSans-84"/>
      <use x="44.083984" xlink:href="#DejaVuSans-101"/>
      <use x="105.607422" xlink:href="#DejaVuSans-114"/>
      <use x="144.970703" xlink:href="#DejaVuSans-109"/>
      <use x="242.382812" xlink:href="#DejaVuSans-105"/>
      <use x="270.166016" xlink:href="#DejaVuSans-110"/>
      <use x="333.544922" xlink:href="#DejaVuSans-97"/>
      <use x="394.824219" xlink:href="#DejaVuSans-108"/>
     </g>
    </g>
   </g>
   <g id="text_14">
    <g id="patch_15">
     <path clip-path="url(#pe1e913b39f)" d="M 222.356849 240.289735 
L 222.356849 274.097235 
Q 222.356849 276.497235 224.756849 276.497235 
L 232.499349 276.497235 
Q 234.899349 276.497235 234.899349 274.097235 
L 234.899349 240.289735 
Q 234.899349 237.889735 232.499349 237.889735 
L 224.756849 237.889735 
Q 222.356849 237.889735 222.356849 240.289735 
z
" style="fill:#ffffff;stroke:#ffffff;stroke-linejoin:miter;"/>
    </g>
    <g clip-path="url(#pe1e913b39f)">
     <!-- Terminal -->
     <g transform="translate(226.420599 240.289735)rotate(-270)scale(0.08 -0.08)">
      <use xlink:href="#DejaVuSans-84"/>
      <use x="44.083984" xlink:href="#DejaVuSans-101"/>
      <use x="105.607422" xlink:href="#DejaVuSans-114"/>
      <use x="144.970703" xlink:href="#DejaVuSans-109"/>
      <use x="242.382812" xlink:href="#DejaVuSans-105"/>
      <use x="270.166016" xlink:href="#DejaVuSans-110"/>
      <use x="333.544922" xlink:href="#DejaVuSans-97"/>
      <use x="394.824219" xlink:href="#DejaVuSans-108"/>
     </g>
    </g>
   </g>
   <g id="text_15">
    <g id="patch_16">
     <path clip-path="url(#pe1e913b39f)" d="M 21.365114 240.289735 
L 21.365114 274.097235 
Q 21.365114 276.497235 23.765114 276.497235 
L 31.507614 276.497235 
Q 33.907614 276.497235 33.907614 274.097235 
L 33.907614 240.289735 
Q 33.907614 237.889735 31.507614 237.889735 
L 23.765114 237.889735 
Q 21.365114 237.889735 21.365114 240.289735 
z
" style="fill:#ffffff;stroke:#ffffff;stroke-linejoin:miter;"/>
    </g>
    <g clip-path="url(#pe1e913b39f)">
     <!-- Terminal -->
     <g transform="translate(25.428864 240.289735)rotate(-270)scale(0.08 -0.08)">
      <use xlink:href="#DejaVuSans-84"/>
      <use x="44.083984" xlink:href="#DejaVuSans-101"/>
      <use x="105.607422" xlink:href="#DejaVuSans-114"/>
      <use x="144.970703" xlink:href="#DejaVuSans-109"/>
      <use x="242.382812" xlink:href="#DejaVuSans-105"/>
      <use x="270.166016" xlink:href="#DejaVuSans-110"/>
      <use x="333.544922" xlink:href="#DejaVuSans-97"/>
      <use x="394.824219" xlink:href="#DejaVuSans-108"/>
     </g>
    </g>
   </g>
   <g id="text_16">
    <g id="patch_17">
     <path clip-path="url(#pe1e913b39f)" d="M 272.604783 240.289735 
L 272.604783 274.097235 
Q 272.604783 276.497235 275.004783 276.497235 
L 282.747283 276.497235 
Q 285.147283 276.497235 285.147283 274.097235 
L 285.147283 240.289735 
Q 285.147283 237.889735 282.747283 237.889735 
L 275.004783 237.889735 
Q 272.604783 237.889735 272.604783 240.289735 
z
" style="fill:#ffffff;stroke:#ffffff;stroke-linejoin:miter;"/>
    </g>
    <g clip-path="url(#pe1e913b39f)">
     <!-- Terminal -->
     <g transform="translate(276.668533 240.289735)rotate(-270)scale(0.08 -0.08)">
      <use xlink:href="#DejaVuSans-84"/>
      <use x="44.083984" xlink:href="#DejaVuSans-101"/>
      <use x="105.607422" xlink:href="#DejaVuSans-114"/>
      <use x="144.970703" xlink:href="#DejaVuSans-109"/>
      <use x="242.382812" xlink:href="#DejaVuSans-105"/>
      <use x="270.166016" xlink:href="#DejaVuSans-110"/>
      <use x="333.544922" xlink:href="#DejaVuSans-97"/>
      <use x="394.824219" xlink:href="#DejaVuSans-108"/>
     </g>
    </g>
   </g>
   <g id="text_17">
    <g id="patch_18">
     <path clip-path="url(#pe1e913b39f)" d="M 358.527154 166.0325 
L 361.093967 161.101864 
Q 362.202193 158.973054 360.073383 157.864828 
L 353.205751 154.289644 
Q 351.07694 153.181418 349.968714 155.310228 
L 347.401901 160.240864 
Q 346.293674 162.369675 348.422485 163.477901 
L 355.290117 167.053085 
Q 357.418928 168.161311 358.527154 166.0325 
z
" style="fill:#ffffff;stroke:#ffffff;stroke-linejoin:miter;"/>
    </g>
    <g clip-path="url(#pe1e913b39f)">
     <!-- R -->
     <g transform="translate(354.92259 164.15602)rotate(-62.499207)scale(0.08 -0.08)">
      <defs>
       <path d="M 44.390625 34.1875 
Q 47.5625 33.109375 50.5625 29.59375 
Q 53.5625 26.078125 56.59375 19.921875 
L 66.609375 0 
L 56 0 
L 46.6875 18.703125 
Q 43.0625 26.03125 39.671875 28.421875 
Q 36.28125 30.8125 30.421875 30.8125 
L 19.671875 30.8125 
L 19.671875 0 
L 9.8125 0 
L 9.8125 72.90625 
L 32.078125 72.90625 
Q 44.578125 72.90625 50.734375 67.671875 
Q 56.890625 62.453125 56.890625 51.90625 
Q 56.890625 45.015625 53.6875 40.46875 
Q 50.484375 35.9375 44.390625 34.1875 
z
M 19.671875 64.796875 
L 19.671875 38.921875 
L 32.078125 38.921875 
Q 39.203125 38.921875 42.84375 42.21875 
Q 46.484375 45.515625 46.484375 51.90625 
Q 46.484375 58.296875 42.84375 61.546875 
Q 39.203125 64.796875 32.078125 64.796875 
z
" id="DejaVuSans-82"/>
      </defs>
      <use xlink:href="#DejaVuSans-82"/>
     </g>
    </g>
   </g>
   <g id="text_18">
    <g id="patch_19">
     <path clip-path="url(#pe1e913b39f)" d="M 373.100651 158.143864 
L 373.100651 163.198864 
Q 373.100651 165.598864 375.500651 165.598864 
L 383.243151 165.598864 
Q 385.643151 165.598864 385.643151 163.198864 
L 385.643151 158.143864 
Q 385.643151 155.743864 383.243151 155.743864 
L 375.500651 155.743864 
Q 373.100651 155.743864 373.100651 158.143864 
z
" style="fill:#ffffff;stroke:#ffffff;stroke-linejoin:miter;"/>
    </g>
    <g clip-path="url(#pe1e913b39f)">
     <!-- E -->
     <g transform="translate(377.164401 158.143864)rotate(-270)scale(0.08 -0.08)">
      <use xlink:href="#DejaVuSans-69"/>
     </g>
    </g>
   </g>
   <g id="text_19">
    <g id="patch_20">
     <path clip-path="url(#pe1e913b39f)" d="M 397.643485 161.089668 
L 400.222997 166.044697 
Q 401.331223 168.173507 403.460034 167.065281 
L 410.327666 163.490098 
Q 412.456476 162.381871 411.34825 160.253061 
L 408.768738 155.298032 
Q 407.660512 153.169222 405.531702 154.277448 
L 398.66407 157.852631 
Q 396.535259 158.960857 397.643485 161.089668 
z
" style="fill:#ffffff;stroke:#ffffff;stroke-linejoin:miter;"/>
    </g>
    <g clip-path="url(#pe1e913b39f)">
     <!-- C -->
     <g transform="translate(401.24805 159.213187)rotate(-297.500793)scale(0.08 -0.08)">
      <use xlink:href="#DejaVuSans-67"/>
     </g>
    </g>
   </g>
   <g id="text_20">
    <g id="patch_21">
     <path clip-path="url(#pe1e913b39f)" d="M 322.852717 240.289735 
L 322.852717 274.097235 
Q 322.852717 276.497235 325.252717 276.497235 
L 332.995217 276.497235 
Q 335.395217 276.497235 335.395217 274.097235 
L 335.395217 240.289735 
Q 335.395217 237.889735 332.995217 237.889735 
L 325.252717 237.889735 
Q 322.852717 237.889735 322.852717 240.289735 
z
" style="fill:#ffffff;stroke:#ffffff;stroke-linejoin:miter;"/>
    </g>
    <g clip-path="url(#pe1e913b39f)">
     <!-- Terminal -->
     <g transform="translate(326.916467 240.289735)rotate(-270)scale(0.08 -0.08)">
      <use xlink:href="#DejaVuSans-84"/>
      <use x="44.083984" xlink:href="#DejaVuSans-101"/>
      <use x="105.607422" xlink:href="#DejaVuSans-114"/>
      <use x="144.970703" xlink:href="#DejaVuSans-109"/>
      <use x="242.382812" xlink:href="#DejaVuSans-105"/>
      <use x="270.166016" xlink:href="#DejaVuSans-110"/>
      <use x="333.544922" xlink:href="#DejaVuSans-97"/>
      <use x="394.824219" xlink:href="#DejaVuSans-108"/>
     </g>
    </g>
   </g>
   <g id="text_21">
    <g id="patch_22">
     <path clip-path="url(#pe1e913b39f)" d="M 373.100651 240.289735 
L 373.100651 274.097235 
Q 373.100651 276.497235 375.500651 276.497235 
L 383.243151 276.497235 
Q 385.643151 276.497235 385.643151 274.097235 
L 385.643151 240.289735 
Q 385.643151 237.889735 383.243151 237.889735 
L 375.500651 237.889735 
Q 373.100651 237.889735 373.100651 240.289735 
z
" style="fill:#ffffff;stroke:#ffffff;stroke-linejoin:miter;"/>
    </g>
    <g clip-path="url(#pe1e913b39f)">
     <!-- Terminal -->
     <g transform="translate(377.164401 240.289735)rotate(-270)scale(0.08 -0.08)">
      <use xlink:href="#DejaVuSans-84"/>
      <use x="44.083984" xlink:href="#DejaVuSans-101"/>
      <use x="105.607422" xlink:href="#DejaVuSans-114"/>
      <use x="144.970703" xlink:href="#DejaVuSans-109"/>
      <use x="242.382812" xlink:href="#DejaVuSans-105"/>
      <use x="270.166016" xlink:href="#DejaVuSans-110"/>
      <use x="333.544922" xlink:href="#DejaVuSans-97"/>
      <use x="394.824219" xlink:href="#DejaVuSans-108"/>
     </g>
    </g>
   </g>
   <g id="text_22">
    <g id="patch_23">
     <path clip-path="url(#pe1e913b39f)" d="M 423.348585 240.289735 
L 423.348585 274.097235 
Q 423.348585 276.497235 425.748585 276.497235 
L 433.491085 276.497235 
Q 435.891085 276.497235 435.891085 274.097235 
L 435.891085 240.289735 
Q 435.891085 237.889735 433.491085 237.889735 
L 425.748585 237.889735 
Q 423.348585 237.889735 423.348585 240.289735 
z
" style="fill:#ffffff;stroke:#ffffff;stroke-linejoin:miter;"/>
    </g>
    <g clip-path="url(#pe1e913b39f)">
     <!-- Terminal -->
     <g transform="translate(427.412335 240.289735)rotate(-270)scale(0.08 -0.08)">
      <use xlink:href="#DejaVuSans-84"/>
      <use x="44.083984" xlink:href="#DejaVuSans-101"/>
      <use x="105.607422" xlink:href="#DejaVuSans-114"/>
      <use x="144.970703" xlink:href="#DejaVuSans-109"/>
      <use x="242.382812" xlink:href="#DejaVuSans-105"/>
      <use x="270.166016" xlink:href="#DejaVuSans-110"/>
      <use x="333.544922" xlink:href="#DejaVuSans-97"/>
      <use x="394.824219" xlink:href="#DejaVuSans-108"/>
     </g>
    </g>
   </g>
   <g id="PathCollection_1">
    <defs>
     <path d="M 0 8.660254 
C 2.296726 8.660254 4.499694 7.747755 6.123724 6.123724 
C 7.747755 4.499694 8.660254 2.296726 8.660254 -0 
C 8.660254 -2.296726 7.747755 -4.499694 6.123724 -6.123724 
C 4.499694 -7.747755 2.296726 -8.660254 0 -8.660254 
C -2.296726 -8.660254 -4.499694 -7.747755 -6.123724 -6.123724 
C -7.747755 -4.499694 -8.660254 -2.296726 -8.660254 0 
C -8.660254 2.296726 -7.747755 4.499694 -6.123724 6.123724 
C -4.499694 7.747755 -2.296726 8.660254 0 8.660254 
z
" id="C0_0_6585c2c6f1"/>
    </defs>
    <g clip-path="url(#pe1e913b39f)">
     <use style="fill:#ffffff;stroke:#ffffff;" x="27.636364" xlink:href="#C0_0_6585c2c6f1" y="305.454545"/>
    </g>
    <g clip-path="url(#pe1e913b39f)">
     <use style="fill:#ffffff;stroke:#ffffff;" x="77.884298" xlink:href="#C0_0_6585c2c6f1" y="305.454545"/>
    </g>
    <g clip-path="url(#pe1e913b39f)">
     <use style="fill:#ffffff;stroke:#ffffff;" x="128.132231" xlink:href="#C0_0_6585c2c6f1" y="305.454545"/>
    </g>
    <g clip-path="url(#pe1e913b39f)">
     <use style="fill:#ffffff;stroke:#ffffff;" x="178.380165" xlink:href="#C0_0_6585c2c6f1" y="305.454545"/>
    </g>
    <g clip-path="url(#pe1e913b39f)">
     <use style="fill:#ffffff;stroke:#ffffff;" x="228.628099" xlink:href="#C0_0_6585c2c6f1" y="305.454545"/>
    </g>
    <g clip-path="url(#pe1e913b39f)">
     <use style="fill:#ffffff;stroke:#ffffff;" x="278.876033" xlink:href="#C0_0_6585c2c6f1" y="305.454545"/>
    </g>
    <g clip-path="url(#pe1e913b39f)">
     <use style="fill:#ffffff;stroke:#ffffff;" x="329.123967" xlink:href="#C0_0_6585c2c6f1" y="305.454545"/>
    </g>
    <g clip-path="url(#pe1e913b39f)">
     <use style="fill:#ffffff;stroke:#ffffff;" x="379.371901" xlink:href="#C0_0_6585c2c6f1" y="305.454545"/>
    </g>
    <g clip-path="url(#pe1e913b39f)">
     <use style="fill:#ffffff;stroke:#ffffff;" x="429.619835" xlink:href="#C0_0_6585c2c6f1" y="305.454545"/>
    </g>
    <g clip-path="url(#pe1e913b39f)">
     <use style="fill:#ffffff;stroke:#ffffff;" x="479.867769" xlink:href="#C0_0_6585c2c6f1" y="305.454545"/>
    </g>
    <g clip-path="url(#pe1e913b39f)">
     <use style="fill:#ffffff;stroke:#ffffff;" x="530.115702" xlink:href="#C0_0_6585c2c6f1" y="305.454545"/>
    </g>
    <g clip-path="url(#pe1e913b39f)">
     <use style="fill:#ffffff;stroke:#ffffff;" x="580.363636" xlink:href="#C0_0_6585c2c6f1" y="305.454545"/>
    </g>
    <g clip-path="url(#pe1e913b39f)">
     <use style="stroke:#000000;" x="221.449823" xlink:href="#C0_0_6585c2c6f1" y="14.545455"/>
    </g>
    <g clip-path="url(#pe1e913b39f)">
     <use style="stroke:#000000;" x="77.884298" xlink:href="#C0_0_6585c2c6f1" y="208.932425"/>
    </g>
    <g clip-path="url(#pe1e913b39f)">
     <use style="stroke:#000000;" x="178.380165" xlink:href="#C0_0_6585c2c6f1" y="112.410304"/>
    </g>
    <g clip-path="url(#pe1e913b39f)">
     <use style="stroke:#000000;" x="580.363636" xlink:href="#C0_0_6585c2c6f1" y="208.932425"/>
    </g>
    <g clip-path="url(#pe1e913b39f)">
     <use style="stroke:#000000;" x="128.132231" xlink:href="#C0_0_6585c2c6f1" y="208.932425"/>
    </g>
    <g clip-path="url(#pe1e913b39f)">
     <use style="stroke:#000000;" x="178.380165" xlink:href="#C0_0_6585c2c6f1" y="208.932425"/>
    </g>
    <g clip-path="url(#pe1e913b39f)">
     <use style="stroke:#000000;" x="228.628099" xlink:href="#C0_0_6585c2c6f1" y="208.932425"/>
    </g>
    <g clip-path="url(#pe1e913b39f)">
     <use style="stroke:#000000;" x="27.636364" xlink:href="#C0_0_6585c2c6f1" y="208.932425"/>
    </g>
    <g clip-path="url(#pe1e913b39f)">
     <use style="stroke:#000000;" x="278.876033" xlink:href="#C0_0_6585c2c6f1" y="208.932425"/>
    </g>
    <g clip-path="url(#pe1e913b39f)">
     <use style="stroke:#000000;" x="379.371901" xlink:href="#C0_0_6585c2c6f1" y="112.410304"/>
    </g>
    <g clip-path="url(#pe1e913b39f)">
     <use style="stroke:#000000;" x="329.123967" xlink:href="#C0_0_6585c2c6f1" y="208.932425"/>
    </g>
    <g clip-path="url(#pe1e913b39f)">
     <use style="stroke:#000000;" x="379.371901" xlink:href="#C0_0_6585c2c6f1" y="208.932425"/>
    </g>
    <g clip-path="url(#pe1e913b39f)">
     <use style="stroke:#000000;" x="429.619835" xlink:href="#C0_0_6585c2c6f1" y="208.932425"/>
    </g>
   </g>
   <g id="text_23">
    <g clip-path="url(#pe1e913b39f)">
     <!-- An -->
     <g transform="translate(21.047301 308.21392)scale(0.1 -0.1)">
      <use xlink:href="#DejaVuSans-65"/>
      <use x="68.408203" xlink:href="#DejaVuSans-110"/>
     </g>
    </g>
   </g>
   <g id="text_24">
    <g clip-path="url(#pe1e913b39f)">
     <!-- electrical -->
     <g transform="translate(54.98586 308.21392)scale(0.1 -0.1)">
      <defs>
       <path d="M 48.78125 52.59375 
L 48.78125 44.1875 
Q 44.96875 46.296875 41.140625 47.34375 
Q 37.3125 48.390625 33.40625 48.390625 
Q 24.65625 48.390625 19.8125 42.84375 
Q 14.984375 37.3125 14.984375 27.296875 
Q 14.984375 17.28125 19.8125 11.734375 
Q 24.65625 6.203125 33.40625 6.203125 
Q 37.3125 6.203125 41.140625 7.25 
Q 44.96875 8.296875 48.78125 10.40625 
L 48.78125 2.09375 
Q 45.015625 0.34375 40.984375 -0.53125 
Q 36.96875 -1.421875 32.421875 -1.421875 
Q 20.0625 -1.421875 12.78125 6.34375 
Q 5.515625 14.109375 5.515625 27.296875 
Q 5.515625 40.671875 12.859375 48.328125 
Q 20.21875 56 33.015625 56 
Q 37.15625 56 41.109375 55.140625 
Q 45.0625 54.296875 48.78125 52.59375 
z
" id="DejaVuSans-99"/>
       <path d="M 18.3125 70.21875 
L 18.3125 54.6875 
L 36.8125 54.6875 
L 36.8125 47.703125 
L 18.3125 47.703125 
L 18.3125 18.015625 
Q 18.3125 11.328125 20.140625 9.421875 
Q 21.96875 7.515625 27.59375 7.515625 
L 36.8125 7.515625 
L 36.8125 0 
L 27.59375 0 
Q 17.1875 0 13.234375 3.875 
Q 9.28125 7.765625 9.28125 18.015625 
L 9.28125 47.703125 
L 2.6875 47.703125 
L 2.6875 54.6875 
L 9.28125 54.6875 
L 9.28125 70.21875 
z
" id="DejaVuSans-116"/>
      </defs>
      <use xlink:href="#DejaVuSans-101"/>
      <use x="61.523438" xlink:href="#DejaVuSans-108"/>
      <use x="89.306641" xlink:href="#DejaVuSans-101"/>
      <use x="150.830078" xlink:href="#DejaVuSans-99"/>
      <use x="205.810547" xlink:href="#DejaVuSans-116"/>
      <use x="245.019531" xlink:href="#DejaVuSans-114"/>
      <use x="286.132812" xlink:href="#DejaVuSans-105"/>
      <use x="313.916016" xlink:href="#DejaVuSans-99"/>
      <use x="368.896484" xlink:href="#DejaVuSans-97"/>
      <use x="430.175781" xlink:href="#DejaVuSans-108"/>
     </g>
    </g>
   </g>
   <g id="text_25">
    <g clip-path="url(#pe1e913b39f)">
     <!-- conductor -->
     <g transform="translate(102.9877 308.21392)scale(0.1 -0.1)">
      <defs>
       <path d="M 30.609375 48.390625 
Q 23.390625 48.390625 19.1875 42.75 
Q 14.984375 37.109375 14.984375 27.296875 
Q 14.984375 17.484375 19.15625 11.84375 
Q 23.34375 6.203125 30.609375 6.203125 
Q 37.796875 6.203125 41.984375 11.859375 
Q 46.1875 17.53125 46.1875 27.296875 
Q 46.1875 37.015625 41.984375 42.703125 
Q 37.796875 48.390625 30.609375 48.390625 
z
M 30.609375 56 
Q 42.328125 56 49.015625 48.375 
Q 55.71875 40.765625 55.71875 27.296875 
Q 55.71875 13.875 49.015625 6.21875 
Q 42.328125 -1.421875 30.609375 -1.421875 
Q 18.84375 -1.421875 12.171875 6.21875 
Q 5.515625 13.875 5.515625 27.296875 
Q 5.515625 40.765625 12.171875 48.375 
Q 18.84375 56 30.609375 56 
z
" id="DejaVuSans-111"/>
       <path d="M 45.40625 46.390625 
L 45.40625 75.984375 
L 54.390625 75.984375 
L 54.390625 0 
L 45.40625 0 
L 45.40625 8.203125 
Q 42.578125 3.328125 38.25 0.953125 
Q 33.9375 -1.421875 27.875 -1.421875 
Q 17.96875 -1.421875 11.734375 6.484375 
Q 5.515625 14.40625 5.515625 27.296875 
Q 5.515625 40.1875 11.734375 48.09375 
Q 17.96875 56 27.875 56 
Q 33.9375 56 38.25 53.625 
Q 42.578125 51.265625 45.40625 46.390625 
z
M 14.796875 27.296875 
Q 14.796875 17.390625 18.875 11.75 
Q 22.953125 6.109375 30.078125 6.109375 
Q 37.203125 6.109375 41.296875 11.75 
Q 45.40625 17.390625 45.40625 27.296875 
Q 45.40625 37.203125 41.296875 42.84375 
Q 37.203125 48.484375 30.078125 48.484375 
Q 22.953125 48.484375 18.875 42.84375 
Q 14.796875 37.203125 14.796875 27.296875 
z
" id="DejaVuSans-100"/>
       <path d="M 8.5 21.578125 
L 8.5 54.6875 
L 17.484375 54.6875 
L 17.484375 21.921875 
Q 17.484375 14.15625 20.5 10.265625 
Q 23.53125 6.390625 29.59375 6.390625 
Q 36.859375 6.390625 41.078125 11.03125 
Q 45.3125 15.671875 45.3125 23.6875 
L 45.3125 54.6875 
L 54.296875 54.6875 
L 54.296875 0 
L 45.3125 0 
L 45.3125 8.40625 
Q 42.046875 3.421875 37.71875 1 
Q 33.40625 -1.421875 27.6875 -1.421875 
Q 18.265625 -1.421875 13.375 4.4375 
Q 8.5 10.296875 8.5 21.578125 
z
M 31.109375 56 
z
" id="DejaVuSans-117"/>
      </defs>
      <use xlink:href="#DejaVuSans-99"/>
      <use x="54.980469" xlink:href="#DejaVuSans-111"/>
      <use x="116.162109" xlink:href="#DejaVuSans-110"/>
      <use x="179.541016" xlink:href="#DejaVuSans-100"/>
      <use x="243.017578" xlink:href="#DejaVuSans-117"/>
      <use x="306.396484" xlink:href="#DejaVuSans-99"/>
      <use x="361.376953" xlink:href="#DejaVuSans-116"/>
      <use x="400.585938" xlink:href="#DejaVuSans-111"/>
      <use x="461.767578" xlink:href="#DejaVuSans-114"/>
     </g>
    </g>
   </g>
   <g id="text_26">
    <g clip-path="url(#pe1e913b39f)">
     <!-- is -->
     <g transform="translate(174.386415 308.21392)scale(0.1 -0.1)">
      <defs>
       <path d="M 44.28125 53.078125 
L 44.28125 44.578125 
Q 40.484375 46.53125 36.375 47.5 
Q 32.28125 48.484375 27.875 48.484375 
Q 21.1875 48.484375 17.84375 46.4375 
Q 14.5 44.390625 14.5 40.28125 
Q 14.5 37.15625 16.890625 35.375 
Q 19.28125 33.59375 26.515625 31.984375 
L 29.59375 31.296875 
Q 39.15625 29.25 43.1875 25.515625 
Q 47.21875 21.78125 47.21875 15.09375 
Q 47.21875 7.46875 41.1875 3.015625 
Q 35.15625 -1.421875 24.609375 -1.421875 
Q 20.21875 -1.421875 15.453125 -0.5625 
Q 10.6875 0.296875 5.421875 2 
L 5.421875 11.28125 
Q 10.40625 8.6875 15.234375 7.390625 
Q 20.0625 6.109375 24.8125 6.109375 
Q 31.15625 6.109375 34.5625 8.28125 
Q 37.984375 10.453125 37.984375 14.40625 
Q 37.984375 18.0625 35.515625 20.015625 
Q 33.0625 21.96875 24.703125 23.78125 
L 21.578125 24.515625 
Q 13.234375 26.265625 9.515625 29.90625 
Q 5.8125 33.546875 5.8125 39.890625 
Q 5.8125 47.609375 11.28125 51.796875 
Q 16.75 56 26.8125 56 
Q 31.78125 56 36.171875 55.265625 
Q 40.578125 54.546875 44.28125 53.078125 
z
" id="DejaVuSans-115"/>
      </defs>
      <use xlink:href="#DejaVuSans-105"/>
      <use x="27.783203" xlink:href="#DejaVuSans-115"/>
     </g>
    </g>
   </g>
   <g id="text_27">
    <g clip-path="url(#pe1e913b39f)">
     <!-- a -->
     <g transform="translate(225.564037 308.21392)scale(0.1 -0.1)">
      <use xlink:href="#DejaVuSans-97"/>
     </g>
    </g>
   </g>
   <g id="text_28">
    <g clip-path="url(#pe1e913b39f)">
     <!-- vehicle -->
     <g transform="translate(261.067439 308.21392)scale(0.1 -0.1)">
      <defs>
       <path d="M 2.984375 54.6875 
L 12.5 54.6875 
L 29.59375 8.796875 
L 46.6875 54.6875 
L 56.203125 54.6875 
L 35.6875 0 
L 23.484375 0 
z
" id="DejaVuSans-118"/>
       <path d="M 54.890625 33.015625 
L 54.890625 0 
L 45.90625 0 
L 45.90625 32.71875 
Q 45.90625 40.484375 42.875 44.328125 
Q 39.84375 48.1875 33.796875 48.1875 
Q 26.515625 48.1875 22.3125 43.546875 
Q 18.109375 38.921875 18.109375 30.90625 
L 18.109375 0 
L 9.078125 0 
L 9.078125 75.984375 
L 18.109375 75.984375 
L 18.109375 46.1875 
Q 21.34375 51.125 25.703125 53.5625 
Q 30.078125 56 35.796875 56 
Q 45.21875 56 50.046875 50.171875 
Q 54.890625 44.34375 54.890625 33.015625 
z
" id="DejaVuSans-104"/>
      </defs>
      <use xlink:href="#DejaVuSans-118"/>
      <use x="59.179688" xlink:href="#DejaVuSans-101"/>
      <use x="120.703125" xlink:href="#DejaVuSans-104"/>
      <use x="184.082031" xlink:href="#DejaVuSans-105"/>
      <use x="211.865234" xlink:href="#DejaVuSans-99"/>
      <use x="266.845703" xlink:href="#DejaVuSans-108"/>
      <use x="294.628906" xlink:href="#DejaVuSans-101"/>
     </g>
    </g>
   </g>
   <g id="text_29">
    <g clip-path="url(#pe1e913b39f)">
     <!-- for -->
     <g transform="translate(322.248967 308.21392)scale(0.1 -0.1)">
      <defs>
       <path d="M 37.109375 75.984375 
L 37.109375 68.5 
L 28.515625 68.5 
Q 23.6875 68.5 21.796875 66.546875 
Q 19.921875 64.59375 19.921875 59.515625 
L 19.921875 54.6875 
L 34.71875 54.6875 
L 34.71875 47.703125 
L 19.921875 47.703125 
L 19.921875 0 
L 10.890625 0 
L 10.890625 47.703125 
L 2.296875 47.703125 
L 2.296875 54.6875 
L 10.890625 54.6875 
L 10.890625 58.5 
Q 10.890625 67.625 15.140625 71.796875 
Q 19.390625 75.984375 28.609375 75.984375 
z
" id="DejaVuSans-102"/>
      </defs>
      <use xlink:href="#DejaVuSans-102"/>
      <use x="35.205078" xlink:href="#DejaVuSans-111"/>
      <use x="96.386719" xlink:href="#DejaVuSans-114"/>
     </g>
    </g>
   </g>
   <g id="text_30">
    <g clip-path="url(#pe1e913b39f)">
     <!-- the -->
     <g transform="translate(371.166432 308.21392)scale(0.1 -0.1)">
      <use xlink:href="#DejaVuSans-116"/>
      <use x="39.208984" xlink:href="#DejaVuSans-104"/>
      <use x="102.587891" xlink:href="#DejaVuSans-101"/>
     </g>
    </g>
   </g>
   <g id="text_31">
    <g clip-path="url(#pe1e913b39f)">
     <!-- flow -->
     <g transform="translate(419.322178 308.21392)scale(0.1 -0.1)">
      <defs>
       <path d="M 4.203125 54.6875 
L 13.1875 54.6875 
L 24.421875 12.015625 
L 35.59375 54.6875 
L 46.1875 54.6875 
L 57.421875 12.015625 
L 68.609375 54.6875 
L 77.59375 54.6875 
L 63.28125 0 
L 52.6875 0 
L 40.921875 44.828125 
L 29.109375 0 
L 18.5 0 
z
" id="DejaVuSans-119"/>
      </defs>
      <use xlink:href="#DejaVuSans-102"/>
      <use x="35.205078" xlink:href="#DejaVuSans-108"/>
      <use x="62.988281" xlink:href="#DejaVuSans-111"/>
      <use x="124.169922" xlink:href="#DejaVuSans-119"/>
     </g>
    </g>
   </g>
   <g id="text_32">
    <g clip-path="url(#pe1e913b39f)">
     <!-- of -->
     <g transform="translate(475.048237 308.21392)scale(0.1 -0.1)">
      <use xlink:href="#DejaVuSans-111"/>
      <use x="61.181641" xlink:href="#DejaVuSans-102"/>
     </g>
    </g>
   </g>
   <g id="text_33">
    <g clip-path="url(#pe1e913b39f)">
     <!-- electricity -->
     <g transform="translate(505.361796 308.21392)scale(0.1 -0.1)">
      <defs>
       <path d="M 32.171875 -5.078125 
Q 28.375 -14.84375 24.75 -17.8125 
Q 21.140625 -20.796875 15.09375 -20.796875 
L 7.90625 -20.796875 
L 7.90625 -13.28125 
L 13.1875 -13.28125 
Q 16.890625 -13.28125 18.9375 -11.515625 
Q 21 -9.765625 23.484375 -3.21875 
L 25.09375 0.875 
L 2.984375 54.6875 
L 12.5 54.6875 
L 29.59375 11.921875 
L 46.6875 54.6875 
L 56.203125 54.6875 
z
" id="DejaVuSans-121"/>
      </defs>
      <use xlink:href="#DejaVuSans-101"/>
      <use x="61.523438" xlink:href="#DejaVuSans-108"/>
      <use x="89.306641" xlink:href="#DejaVuSans-101"/>
      <use x="150.830078" xlink:href="#DejaVuSans-99"/>
      <use x="205.810547" xlink:href="#DejaVuSans-116"/>
      <use x="245.019531" xlink:href="#DejaVuSans-114"/>
      <use x="286.132812" xlink:href="#DejaVuSans-105"/>
      <use x="313.916016" xlink:href="#DejaVuSans-99"/>
      <use x="368.896484" xlink:href="#DejaVuSans-105"/>
      <use x="396.679688" xlink:href="#DejaVuSans-116"/>
      <use x="435.888672" xlink:href="#DejaVuSans-121"/>
     </g>
    </g>
   </g>
   <g id="text_34">
    <g clip-path="url(#pe1e913b39f)">
     <!-- . -->
     <g transform="translate(578.774574 308.21392)scale(0.1 -0.1)">
      <defs>
       <path d="M 10.6875 12.40625 
L 21 12.40625 
L 21 0 
L 10.6875 0 
z
" id="DejaVuSans-46"/>
      </defs>
      <use xlink:href="#DejaVuSans-46"/>
     </g>
    </g>
   </g>
  </g>
 </g>
 <defs>
  <clipPath id="pe1e913b39f">
   <rect height="320" width="608" x="0" y="0"/>
  </clipPath>
 </defs>
</svg>
