<?xml version="1.0" encoding="utf-8" standalone="no"?>
<!DOCTYPE svg PUBLIC "-//W3C//DTD SVG 1.1//EN"
  "http://www.w3.org/Graphics/SVG/1.1/DTD/svg11.dtd">
<!-- Created with matplotlib (https://matplotlib.org/) -->
<svg height="373.333333pt" version="1.1" viewBox="0 0 709.333333 373.333333" width="709.333333pt" xmlns="http://www.w3.org/2000/svg" xmlns:xlink="http://www.w3.org/1999/xlink">
 <metadata>
  <rdf:RDF xmlns:cc="http://creativecommons.org/ns#" xmlns:dc="http://purl.org/dc/elements/1.1/" xmlns:rdf="http://www.w3.org/1999/02/22-rdf-syntax-ns#">
   <cc:Work>
    <dc:type rdf:resource="http://purl.org/dc/dcmitype/StillImage"/>
    <dc:date>2021-05-19T11:42:29.511469</dc:date>
    <dc:format>image/svg+xml</dc:format>
    <dc:creator>
     <cc:Agent>
      <dc:title>Matplotlib v3.3.4, https://matplotlib.org/</dc:title>
     </cc:Agent>
    </dc:creator>
   </cc:Work>
  </rdf:RDF>
 </metadata>
 <defs>
  <style type="text/css">*{stroke-linecap:butt;stroke-linejoin:round;}</style>
 </defs>
 <g id="figure_1">
  <g id="patch_1">
   <path d="M 0 373.333333 
L 709.333333 373.333333 
L 709.333333 0 
L 0 0 
z
" style="fill:#ffffff;"/>
  </g>
  <g id="axes_1">
   <g id="LineCollection_1">
    <path clip-path="url(#p41207f0f7f)" d="M 270.812743 16.969697 
L 81.846154 344.108463 
" style="fill:none;stroke:#000000;"/>
    <path clip-path="url(#p41207f0f7f)" d="M 270.812743 16.969697 
L 181.053613 331.85329 
" style="fill:none;stroke:#000000;"/>
    <path clip-path="url(#p41207f0f7f)" d="M 270.812743 16.969697 
L 412.537685 319.427634 
" style="fill:none;stroke:#000000;"/>
    <path clip-path="url(#p41207f0f7f)" d="M 270.812743 16.969697 
L 478.675991 344.108463 
" style="fill:none;stroke:#000000;"/>
    <path clip-path="url(#p41207f0f7f)" d="M 270.812743 16.969697 
L 677.090909 344.108463 
" style="fill:none;stroke:#000000;"/>
    <path clip-path="url(#p41207f0f7f)" d="M 270.812743 16.969697 
L 32.242424 39.692038 
" style="fill:none;stroke:#000000;"/>
    <path clip-path="url(#p41207f0f7f)" d="M 270.812743 16.969697 
L 32.242424 344.108463 
" style="fill:none;stroke:#000000;stroke-dasharray:3.7,1.6;stroke-dashoffset:0;"/>
    <path clip-path="url(#p41207f0f7f)" d="M 81.846154 344.108463 
L 81.846154 356.363636 
" style="fill:none;stroke:#000000;"/>
    <path clip-path="url(#p41207f0f7f)" d="M 181.053613 331.85329 
L 131.449883 344.108463 
" style="fill:none;stroke:#000000;"/>
    <path clip-path="url(#p41207f0f7f)" d="M 181.053613 331.85329 
L 181.053613 344.108463 
" style="fill:none;stroke:#000000;"/>
    <path clip-path="url(#p41207f0f7f)" d="M 181.053613 331.85329 
L 230.657343 344.108463 
" style="fill:none;stroke:#000000;"/>
    <path clip-path="url(#p41207f0f7f)" d="M 412.537685 319.427634 
L 280.261072 344.108463 
" style="fill:none;stroke:#000000;"/>
    <path clip-path="url(#p41207f0f7f)" d="M 412.537685 319.427634 
L 379.468531 331.85329 
" style="fill:none;stroke:#000000;"/>
    <path clip-path="url(#p41207f0f7f)" d="M 412.537685 319.427634 
L 577.88345 331.85329 
" style="fill:none;stroke:#000000;"/>
    <path clip-path="url(#p41207f0f7f)" d="M 478.675991 344.108463 
L 478.675991 356.363636 
" style="fill:none;stroke:#000000;"/>
    <path clip-path="url(#p41207f0f7f)" d="M 677.090909 344.108463 
L 677.090909 356.363636 
" style="fill:none;stroke:#000000;"/>
    <path clip-path="url(#p41207f0f7f)" d="M 32.242424 39.692038 
L 32.242424 61.477246 
" style="fill:none;stroke:#000000;"/>
    <path clip-path="url(#p41207f0f7f)" d="M 131.449883 344.108463 
L 131.449883 356.363636 
" style="fill:none;stroke:#000000;"/>
    <path clip-path="url(#p41207f0f7f)" d="M 181.053613 344.108463 
L 181.053613 356.363636 
" style="fill:none;stroke:#000000;"/>
    <path clip-path="url(#p41207f0f7f)" d="M 230.657343 344.108463 
L 230.657343 356.363636 
" style="fill:none;stroke:#000000;"/>
    <path clip-path="url(#p41207f0f7f)" d="M 280.261072 344.108463 
L 280.261072 356.363636 
" style="fill:none;stroke:#000000;"/>
    <path clip-path="url(#p41207f0f7f)" d="M 379.468531 331.85329 
L 329.864802 344.108463 
" style="fill:none;stroke:#000000;"/>
    <path clip-path="url(#p41207f0f7f)" d="M 379.468531 331.85329 
L 379.468531 344.108463 
" style="fill:none;stroke:#000000;"/>
    <path clip-path="url(#p41207f0f7f)" d="M 379.468531 331.85329 
L 429.072261 344.108463 
" style="fill:none;stroke:#000000;"/>
    <path clip-path="url(#p41207f0f7f)" d="M 577.88345 331.85329 
L 528.27972 344.108463 
" style="fill:none;stroke:#000000;"/>
    <path clip-path="url(#p41207f0f7f)" d="M 577.88345 331.85329 
L 577.88345 344.108463 
" style="fill:none;stroke:#000000;"/>
    <path clip-path="url(#p41207f0f7f)" d="M 577.88345 331.85329 
L 627.487179 344.108463 
" style="fill:none;stroke:#000000;"/>
    <path clip-path="url(#p41207f0f7f)" d="M 32.242424 61.477246 
L 32.242424 82.379093 
" style="fill:none;stroke:#000000;"/>
    <path clip-path="url(#p41207f0f7f)" d="M 329.864802 344.108463 
L 329.864802 356.363636 
" style="fill:none;stroke:#000000;"/>
    <path clip-path="url(#p41207f0f7f)" d="M 379.468531 344.108463 
L 379.468531 356.363636 
" style="fill:none;stroke:#000000;"/>
    <path clip-path="url(#p41207f0f7f)" d="M 429.072261 344.108463 
L 429.072261 356.363636 
" style="fill:none;stroke:#000000;"/>
    <path clip-path="url(#p41207f0f7f)" d="M 528.27972 344.108463 
L 528.27972 356.363636 
" style="fill:none;stroke:#000000;"/>
    <path clip-path="url(#p41207f0f7f)" d="M 577.88345 344.108463 
L 577.88345 356.363636 
" style="fill:none;stroke:#000000;"/>
    <path clip-path="url(#p41207f0f7f)" d="M 627.487179 344.108463 
L 627.487179 356.363636 
" style="fill:none;stroke:#000000;"/>
    <path clip-path="url(#p41207f0f7f)" d="M 32.242424 82.379093 
L 32.242424 102.448397 
" style="fill:none;stroke:#000000;"/>
    <path clip-path="url(#p41207f0f7f)" d="M 32.242424 102.448397 
L 32.242424 121.733258 
" style="fill:none;stroke:#000000;"/>
    <path clip-path="url(#p41207f0f7f)" d="M 32.242424 121.733258 
L 32.242424 140.279282 
" style="fill:none;stroke:#000000;"/>
    <path clip-path="url(#p41207f0f7f)" d="M 32.242424 140.279282 
L 32.242424 158.129804 
" style="fill:none;stroke:#000000;"/>
    <path clip-path="url(#p41207f0f7f)" d="M 32.242424 158.129804 
L 32.242424 175.326104 
" style="fill:none;stroke:#000000;"/>
    <path clip-path="url(#p41207f0f7f)" d="M 32.242424 175.326104 
L 32.242424 191.907626 
" style="fill:none;stroke:#000000;"/>
    <path clip-path="url(#p41207f0f7f)" d="M 32.242424 191.907626 
L 32.242424 207.912204 
" style="fill:none;stroke:#000000;"/>
    <path clip-path="url(#p41207f0f7f)" d="M 32.242424 207.912204 
L 32.242424 223.376306 
" style="fill:none;stroke:#000000;"/>
    <path clip-path="url(#p41207f0f7f)" d="M 32.242424 223.376306 
L 32.242424 238.335298 
" style="fill:none;stroke:#000000;"/>
    <path clip-path="url(#p41207f0f7f)" d="M 32.242424 238.335298 
L 32.242424 252.823765 
" style="fill:none;stroke:#000000;"/>
    <path clip-path="url(#p41207f0f7f)" d="M 32.242424 252.823765 
L 32.242424 266.875896 
" style="fill:none;stroke:#000000;"/>
    <path clip-path="url(#p41207f0f7f)" d="M 32.242424 266.875896 
L 32.242424 280.525995 
" style="fill:none;stroke:#000000;"/>
    <path clip-path="url(#p41207f0f7f)" d="M 32.242424 280.525995 
L 32.242424 293.809217 
" style="fill:none;stroke:#000000;"/>
    <path clip-path="url(#p41207f0f7f)" d="M 32.242424 293.809217 
L 32.242424 306.762712 
" style="fill:none;stroke:#000000;"/>
    <path clip-path="url(#p41207f0f7f)" d="M 32.242424 306.762712 
L 32.242424 319.427634 
" style="fill:none;stroke:#000000;"/>
    <path clip-path="url(#p41207f0f7f)" d="M 32.242424 319.427634 
L 32.242424 331.85329 
" style="fill:none;stroke:#000000;"/>
    <path clip-path="url(#p41207f0f7f)" d="M 32.242424 331.85329 
L 32.242424 344.108463 
" style="fill:none;stroke:#000000;"/>
    <path clip-path="url(#p41207f0f7f)" d="M 32.242424 344.108463 
L 32.242424 356.363636 
" style="fill:none;stroke:#000000;"/>
   </g>
   <g id="text_1">
    <g id="patch_2">
     <path clip-path="url(#p41207f0f7f)" d="M 180.609105 185.668017 
L 182.910579 181.683707 
Q 184.111022 179.605502 182.032816 178.405059 
L 175.32844 174.532381 
Q 173.250234 173.331938 172.049792 175.410144 
L 169.748318 179.394453 
Q 168.547875 181.472658 170.62608 182.673101 
L 177.330457 186.545779 
Q 179.408662 187.746222 180.609105 185.668017 
z
" style="fill:#ffffff;stroke:#ffffff;stroke-linejoin:miter;"/>
    </g>
    <g clip-path="url(#p41207f0f7f)">
     <!-- F -->
     <g transform="translate(177.090227 183.635392)rotate(-59.987794)scale(0.08 -0.08)">
      <defs>
       <path d="M 9.8125 72.90625 
L 51.703125 72.90625 
L 51.703125 64.59375 
L 19.671875 64.59375 
L 19.671875 43.109375 
L 48.578125 43.109375 
L 48.578125 34.8125 
L 19.671875 34.8125 
L 19.671875 0 
L 9.8125 0 
z
" id="DejaVuSans-70"/>
      </defs>
      <use xlink:href="#DejaVuSans-70"/>
     </g>
    </g>
   </g>
   <g id="text_2">
    <g id="patch_3">
     <path clip-path="url(#p41207f0f7f)" d="M 231.214083 178.762089 
L 232.714286 173.499234 
Q 233.372209 171.191175 231.06415 170.533251 
L 223.618256 168.410762 
Q 221.310197 167.752838 220.652273 170.060897 
L 219.15207 175.323753 
Q 218.494146 177.631812 220.802205 178.289736 
L 228.2481 180.412225 
Q 230.556159 181.070148 231.214083 178.762089 
z
" style="fill:#ffffff;stroke:#ffffff;stroke-linejoin:miter;"/>
    </g>
    <g clip-path="url(#p41207f0f7f)">
     <!-- A -->
     <g transform="translate(227.30601 177.648074)rotate(-74.089536)scale(0.08 -0.08)">
      <defs>
       <path d="M 34.1875 63.1875 
L 20.796875 26.90625 
L 47.609375 26.90625 
z
M 28.609375 72.90625 
L 39.796875 72.90625 
L 67.578125 0 
L 57.328125 0 
L 50.6875 18.703125 
L 17.828125 18.703125 
L 11.1875 0 
L 0.78125 0 
z
" id="DejaVuSans-65"/>
      </defs>
      <use xlink:href="#DejaVuSans-65"/>
     </g>
    </g>
   </g>
   <g id="text_3">
    <g id="patch_4">
     <path clip-path="url(#p41207f0f7f)" d="M 334.919006 168.56014 
L 337.073949 173.159045 
Q 338.092283 175.33229 340.265528 174.313957 
L 347.276509 171.02877 
Q 349.449755 170.010436 348.431421 167.837191 
L 346.276478 163.238286 
Q 345.258145 161.06504 343.084899 162.083374 
L 336.073918 165.368561 
Q 333.900673 166.386895 334.919006 168.56014 
z
" style="fill:#ffffff;stroke:#ffffff;stroke-linejoin:miter;"/>
    </g>
    <g clip-path="url(#p41207f0f7f)">
     <!-- S -->
     <g transform="translate(338.598809 166.835868)rotate(-295.106725)scale(0.08 -0.08)">
      <defs>
       <path d="M 53.515625 70.515625 
L 53.515625 60.890625 
Q 47.90625 63.578125 42.921875 64.890625 
Q 37.9375 66.21875 33.296875 66.21875 
Q 25.25 66.21875 20.875 63.09375 
Q 16.5 59.96875 16.5 54.203125 
Q 16.5 49.359375 19.40625 46.890625 
Q 22.3125 44.4375 30.421875 42.921875 
L 36.375 41.703125 
Q 47.40625 39.59375 52.65625 34.296875 
Q 57.90625 29 57.90625 20.125 
Q 57.90625 9.515625 50.796875 4.046875 
Q 43.703125 -1.421875 29.984375 -1.421875 
Q 24.8125 -1.421875 18.96875 -0.25 
Q 13.140625 0.921875 6.890625 3.21875 
L 6.890625 13.375 
Q 12.890625 10.015625 18.65625 8.296875 
Q 24.421875 6.59375 29.984375 6.59375 
Q 38.421875 6.59375 43.015625 9.90625 
Q 47.609375 13.234375 47.609375 19.390625 
Q 47.609375 24.75 44.3125 27.78125 
Q 41.015625 30.8125 33.5 32.328125 
L 27.484375 33.5 
Q 16.453125 35.6875 11.515625 40.375 
Q 6.59375 45.0625 6.59375 53.421875 
Q 6.59375 63.09375 13.40625 68.65625 
Q 20.21875 74.21875 32.171875 74.21875 
Q 37.3125 74.21875 42.625 73.28125 
Q 47.953125 72.359375 53.515625 70.515625 
z
" id="DejaVuSans-83"/>
      </defs>
      <use xlink:href="#DejaVuSans-83"/>
     </g>
    </g>
   </g>
   <g id="text_4">
    <g id="patch_5">
     <path clip-path="url(#p41207f0f7f)" d="M 368.089386 181.759011 
L 370.813095 186.045631 
Q 372.100203 188.071304 374.125876 186.784196 
L 380.660783 182.631931 
Q 382.686456 181.344823 381.399348 179.319149 
L 378.675639 175.032529 
Q 377.38853 173.006856 375.362857 174.293964 
L 368.827951 178.446229 
Q 366.802278 179.733338 368.089386 181.759011 
z
" style="fill:#ffffff;stroke:#ffffff;stroke-linejoin:miter;"/>
    </g>
    <g clip-path="url(#p41207f0f7f)">
     <!-- S -->
     <g transform="translate(371.519315 179.579642)rotate(-302.431787)scale(0.08 -0.08)">
      <use xlink:href="#DejaVuSans-83"/>
     </g>
    </g>
   </g>
   <g id="text_5">
    <g id="patch_6">
     <path clip-path="url(#p41207f0f7f)" d="M 467.738525 183.58764 
L 472.298901 187.259695 
Q 474.168227 188.764893 475.673425 186.895567 
L 480.529256 180.865044 
Q 482.034453 178.995718 480.165127 177.49052 
L 475.604751 173.818465 
Q 473.735425 172.313267 472.230227 174.182593 
L 467.374396 180.213116 
Q 465.869199 182.082442 467.738525 183.58764 
z
" style="fill:#ffffff;stroke:#ffffff;stroke-linejoin:miter;"/>
    </g>
    <g clip-path="url(#p41207f0f7f)">
     <!-- U -->
     <g transform="translate(470.287169 180.422443)rotate(-321.158676)scale(0.08 -0.08)">
      <defs>
       <path d="M 8.6875 72.90625 
L 18.609375 72.90625 
L 18.609375 28.609375 
Q 18.609375 16.890625 22.84375 11.734375 
Q 27.09375 6.59375 36.625 6.59375 
Q 46.09375 6.59375 50.34375 11.734375 
Q 54.59375 16.890625 54.59375 28.609375 
L 54.59375 72.90625 
L 64.5 72.90625 
L 64.5 27.390625 
Q 64.5 13.140625 57.4375 5.859375 
Q 50.390625 -1.421875 36.625 -1.421875 
Q 22.796875 -1.421875 15.734375 5.859375 
Q 8.6875 13.140625 8.6875 27.390625 
z
" id="DejaVuSans-85"/>
      </defs>
      <use xlink:href="#DejaVuSans-85"/>
     </g>
    </g>
   </g>
   <g id="text_6">
    <g id="patch_7">
     <path clip-path="url(#p41207f0f7f)" d="M 149.721181 34.802546 
L 154.5232 34.345184 
Q 156.912387 34.117628 156.684832 31.728441 
L 155.950729 24.020821 
Q 155.723174 21.631633 153.333986 21.859188 
L 148.531967 22.316551 
Q 146.14278 22.544106 146.370335 24.933294 
L 147.104438 32.640914 
Q 147.331993 35.030101 149.721181 34.802546 
z
" style="fill:#ffffff;stroke:#ffffff;stroke-linejoin:miter;"/>
    </g>
    <g clip-path="url(#p41207f0f7f)">
     <!-- P -->
     <g transform="translate(149.335878 30.757104)rotate(-5.440655)scale(0.08 -0.08)">
      <defs>
       <path d="M 19.671875 64.796875 
L 19.671875 37.40625 
L 32.078125 37.40625 
Q 38.96875 37.40625 42.71875 40.96875 
Q 46.484375 44.53125 46.484375 51.125 
Q 46.484375 57.671875 42.71875 61.234375 
Q 38.96875 64.796875 32.078125 64.796875 
z
M 9.8125 72.90625 
L 32.078125 72.90625 
Q 44.34375 72.90625 50.609375 67.359375 
Q 56.890625 61.8125 56.890625 51.125 
Q 56.890625 40.328125 50.609375 34.8125 
Q 44.34375 29.296875 32.078125 29.296875 
L 19.671875 29.296875 
L 19.671875 0 
L 9.8125 0 
z
" id="DejaVuSans-80"/>
      </defs>
      <use xlink:href="#DejaVuSans-80"/>
     </g>
    </g>
   </g>
   <g id="text_7">
    <g id="patch_8">
     <path clip-path="url(#p41207f0f7f)" d="M 154.982306 186.445055 
L 158.206829 182.023437 
Q 159.620965 180.084308 157.681836 178.670173 
L 151.426126 174.108112 
Q 149.486997 172.693977 148.072861 174.633105 
L 144.848338 179.054723 
Q 143.434202 180.993852 145.373331 182.407987 
L 151.629041 186.970048 
Q 153.56817 188.384183 154.982306 186.445055 
z
" style="fill:#ffffff;stroke:#ffffff;stroke-linejoin:miter;"/>
    </g>
    <g clip-path="url(#p41207f0f7f)">
     <!-- A -->
     <g transform="translate(151.698916 184.050599)rotate(-53.898099)scale(0.08 -0.08)">
      <use xlink:href="#DejaVuSans-65"/>
     </g>
    </g>
   </g>
   <g id="text_8">
    <g id="patch_9">
     <path clip-path="url(#p41207f0f7f)" d="M 75.574904 333.3323 
L 75.574904 367.1398 
Q 75.574904 369.5398 77.974904 369.5398 
L 85.717404 369.5398 
Q 88.117404 369.5398 88.117404 367.1398 
L 88.117404 333.3323 
Q 88.117404 330.9323 85.717404 330.9323 
L 77.974904 330.9323 
Q 75.574904 330.9323 75.574904 333.3323 
z
" style="fill:#ffffff;stroke:#ffffff;stroke-linejoin:miter;"/>
    </g>
    <g clip-path="url(#p41207f0f7f)">
     <!-- Terminal -->
     <g transform="translate(79.638654 333.3323)rotate(-270)scale(0.08 -0.08)">
      <defs>
       <path d="M -0.296875 72.90625 
L 61.375 72.90625 
L 61.375 64.59375 
L 35.5 64.59375 
L 35.5 0 
L 25.59375 0 
L 25.59375 64.59375 
L -0.296875 64.59375 
z
" id="DejaVuSans-84"/>
       <path d="M 56.203125 29.59375 
L 56.203125 25.203125 
L 14.890625 25.203125 
Q 15.484375 15.921875 20.484375 11.0625 
Q 25.484375 6.203125 34.421875 6.203125 
Q 39.59375 6.203125 44.453125 7.46875 
Q 49.3125 8.734375 54.109375 11.28125 
L 54.109375 2.78125 
Q 49.265625 0.734375 44.1875 -0.34375 
Q 39.109375 -1.421875 33.890625 -1.421875 
Q 20.796875 -1.421875 13.15625 6.1875 
Q 5.515625 13.8125 5.515625 26.8125 
Q 5.515625 40.234375 12.765625 48.109375 
Q 20.015625 56 32.328125 56 
Q 43.359375 56 49.78125 48.890625 
Q 56.203125 41.796875 56.203125 29.59375 
z
M 47.21875 32.234375 
Q 47.125 39.59375 43.09375 43.984375 
Q 39.0625 48.390625 32.421875 48.390625 
Q 24.90625 48.390625 20.390625 44.140625 
Q 15.875 39.890625 15.1875 32.171875 
z
" id="DejaVuSans-101"/>
       <path d="M 41.109375 46.296875 
Q 39.59375 47.171875 37.8125 47.578125 
Q 36.03125 48 33.890625 48 
Q 26.265625 48 22.1875 43.046875 
Q 18.109375 38.09375 18.109375 28.8125 
L 18.109375 0 
L 9.078125 0 
L 9.078125 54.6875 
L 18.109375 54.6875 
L 18.109375 46.1875 
Q 20.953125 51.171875 25.484375 53.578125 
Q 30.03125 56 36.53125 56 
Q 37.453125 56 38.578125 55.875 
Q 39.703125 55.765625 41.0625 55.515625 
z
" id="DejaVuSans-114"/>
       <path d="M 52 44.1875 
Q 55.375 50.25 60.0625 53.125 
Q 64.75 56 71.09375 56 
Q 79.640625 56 84.28125 50.015625 
Q 88.921875 44.046875 88.921875 33.015625 
L 88.921875 0 
L 79.890625 0 
L 79.890625 32.71875 
Q 79.890625 40.578125 77.09375 44.375 
Q 74.3125 48.1875 68.609375 48.1875 
Q 61.625 48.1875 57.5625 43.546875 
Q 53.515625 38.921875 53.515625 30.90625 
L 53.515625 0 
L 44.484375 0 
L 44.484375 32.71875 
Q 44.484375 40.625 41.703125 44.40625 
Q 38.921875 48.1875 33.109375 48.1875 
Q 26.21875 48.1875 22.15625 43.53125 
Q 18.109375 38.875 18.109375 30.90625 
L 18.109375 0 
L 9.078125 0 
L 9.078125 54.6875 
L 18.109375 54.6875 
L 18.109375 46.1875 
Q 21.1875 51.21875 25.484375 53.609375 
Q 29.78125 56 35.6875 56 
Q 41.65625 56 45.828125 52.96875 
Q 50 49.953125 52 44.1875 
z
" id="DejaVuSans-109"/>
       <path d="M 9.421875 54.6875 
L 18.40625 54.6875 
L 18.40625 0 
L 9.421875 0 
z
M 9.421875 75.984375 
L 18.40625 75.984375 
L 18.40625 64.59375 
L 9.421875 64.59375 
z
" id="DejaVuSans-105"/>
       <path d="M 54.890625 33.015625 
L 54.890625 0 
L 45.90625 0 
L 45.90625 32.71875 
Q 45.90625 40.484375 42.875 44.328125 
Q 39.84375 48.1875 33.796875 48.1875 
Q 26.515625 48.1875 22.3125 43.546875 
Q 18.109375 38.921875 18.109375 30.90625 
L 18.109375 0 
L 9.078125 0 
L 9.078125 54.6875 
L 18.109375 54.6875 
L 18.109375 46.1875 
Q 21.34375 51.125 25.703125 53.5625 
Q 30.078125 56 35.796875 56 
Q 45.21875 56 50.046875 50.171875 
Q 54.890625 44.34375 54.890625 33.015625 
z
" id="DejaVuSans-110"/>
       <path d="M 34.28125 27.484375 
Q 23.390625 27.484375 19.1875 25 
Q 14.984375 22.515625 14.984375 16.5 
Q 14.984375 11.71875 18.140625 8.90625 
Q 21.296875 6.109375 26.703125 6.109375 
Q 34.1875 6.109375 38.703125 11.40625 
Q 43.21875 16.703125 43.21875 25.484375 
L 43.21875 27.484375 
z
M 52.203125 31.203125 
L 52.203125 0 
L 43.21875 0 
L 43.21875 8.296875 
Q 40.140625 3.328125 35.546875 0.953125 
Q 30.953125 -1.421875 24.3125 -1.421875 
Q 15.921875 -1.421875 10.953125 3.296875 
Q 6 8.015625 6 15.921875 
Q 6 25.140625 12.171875 29.828125 
Q 18.359375 34.515625 30.609375 34.515625 
L 43.21875 34.515625 
L 43.21875 35.40625 
Q 43.21875 41.609375 39.140625 45 
Q 35.0625 48.390625 27.6875 48.390625 
Q 23 48.390625 18.546875 47.265625 
Q 14.109375 46.140625 10.015625 43.890625 
L 10.015625 52.203125 
Q 14.9375 54.109375 19.578125 55.046875 
Q 24.21875 56 28.609375 56 
Q 40.484375 56 46.34375 49.84375 
Q 52.203125 43.703125 52.203125 31.203125 
z
" id="DejaVuSans-97"/>
       <path d="M 9.421875 75.984375 
L 18.40625 75.984375 
L 18.40625 0 
L 9.421875 0 
z
" id="DejaVuSans-108"/>
      </defs>
      <use xlink:href="#DejaVuSans-84"/>
      <use x="44.083984" xlink:href="#DejaVuSans-101"/>
      <use x="105.607422" xlink:href="#DejaVuSans-114"/>
      <use x="144.970703" xlink:href="#DejaVuSans-109"/>
      <use x="242.382812" xlink:href="#DejaVuSans-105"/>
      <use x="270.166016" xlink:href="#DejaVuSans-110"/>
      <use x="333.544922" xlink:href="#DejaVuSans-97"/>
      <use x="394.824219" xlink:href="#DejaVuSans-108"/>
     </g>
    </g>
   </g>
   <g id="text_9">
    <g id="patch_10">
     <path clip-path="url(#p41207f0f7f)" d="M 155.302184 344.675289 
L 160.209629 343.462848 
Q 162.539573 342.887209 161.963933 340.557265 
L 160.106896 333.040768 
Q 159.531256 330.710824 157.201312 331.286464 
L 152.293868 332.498905 
Q 149.963924 333.074544 150.539563 335.404488 
L 152.3966 342.920985 
Q 152.97224 345.250929 155.302184 344.675289 
z
" style="fill:#ffffff;stroke:#ffffff;stroke-linejoin:miter;"/>
    </g>
    <g clip-path="url(#p41207f0f7f)">
     <!-- E -->
     <g transform="translate(154.327494 340.73016)rotate(-13.877676)scale(0.08 -0.08)">
      <defs>
       <path d="M 9.8125 72.90625 
L 55.90625 72.90625 
L 55.90625 64.59375 
L 19.671875 64.59375 
L 19.671875 43.015625 
L 54.390625 43.015625 
L 54.390625 34.71875 
L 19.671875 34.71875 
L 19.671875 8.296875 
L 56.78125 8.296875 
L 56.78125 0 
L 9.8125 0 
z
" id="DejaVuSans-69"/>
      </defs>
      <use xlink:href="#DejaVuSans-69"/>
     </g>
    </g>
   </g>
   <g id="text_10">
    <g id="patch_11">
     <path clip-path="url(#p41207f0f7f)" d="M 174.782363 335.453377 
L 174.782363 340.508377 
Q 174.782363 342.908377 177.182363 342.908377 
L 184.924863 342.908377 
Q 187.324863 342.908377 187.324863 340.508377 
L 187.324863 335.453377 
Q 187.324863 333.053377 184.924863 333.053377 
L 177.182363 333.053377 
Q 174.782363 333.053377 174.782363 335.453377 
z
" style="fill:#ffffff;stroke:#ffffff;stroke-linejoin:miter;"/>
    </g>
    <g clip-path="url(#p41207f0f7f)">
     <!-- E -->
     <g transform="translate(178.846113 335.453377)rotate(-270)scale(0.08 -0.08)">
      <use xlink:href="#DejaVuSans-69"/>
     </g>
    </g>
   </g>
   <g id="text_11">
    <g id="patch_12">
     <path clip-path="url(#p41207f0f7f)" d="M 201.639726 343.399138 
L 207.062913 344.738999 
Q 209.392857 345.314639 209.968497 342.984695 
L 211.825534 335.468198 
Q 212.401174 333.138254 210.07123 332.562615 
L 204.648042 331.222754 
Q 202.318098 330.647114 201.742459 332.977058 
L 199.885422 340.493555 
Q 199.309782 342.823499 201.639726 343.399138 
z
" style="fill:#ffffff;stroke:#ffffff;stroke-linejoin:miter;"/>
    </g>
    <g clip-path="url(#p41207f0f7f)">
     <!-- C -->
     <g transform="translate(202.614416 339.454009)rotate(-346.122324)scale(0.08 -0.08)">
      <defs>
       <path d="M 64.40625 67.28125 
L 64.40625 56.890625 
Q 59.421875 61.53125 53.78125 63.8125 
Q 48.140625 66.109375 41.796875 66.109375 
Q 29.296875 66.109375 22.65625 58.46875 
Q 16.015625 50.828125 16.015625 36.375 
Q 16.015625 21.96875 22.65625 14.328125 
Q 29.296875 6.6875 41.796875 6.6875 
Q 48.140625 6.6875 53.78125 8.984375 
Q 59.421875 11.28125 64.40625 15.921875 
L 64.40625 5.609375 
Q 59.234375 2.09375 53.4375 0.328125 
Q 47.65625 -1.421875 41.21875 -1.421875 
Q 24.65625 -1.421875 15.125 8.703125 
Q 5.609375 18.84375 5.609375 36.375 
Q 5.609375 53.953125 15.125 64.078125 
Q 24.65625 74.21875 41.21875 74.21875 
Q 47.75 74.21875 53.53125 72.484375 
Q 59.328125 70.75 64.40625 67.28125 
z
" id="DejaVuSans-67"/>
      </defs>
      <use xlink:href="#DejaVuSans-67"/>
     </g>
    </g>
   </g>
   <g id="text_12">
    <g id="patch_13">
     <path clip-path="url(#p41207f0f7f)" d="M 344.803909 338.445219 
L 350.295387 337.420591 
Q 352.65467 336.980384 352.214463 334.621101 
L 350.794338 327.009955 
Q 350.354131 324.650671 347.994848 325.090878 
L 342.50337 326.115505 
Q 340.144087 326.555712 340.584293 328.914996 
L 342.004419 336.526142 
Q 342.444626 338.885425 344.803909 338.445219 
z
" style="fill:#ffffff;stroke:#ffffff;stroke-linejoin:miter;"/>
    </g>
    <g clip-path="url(#p41207f0f7f)">
     <!-- C -->
     <g transform="translate(344.058538 334.450411)rotate(-10.569001)scale(0.08 -0.08)">
      <use xlink:href="#DejaVuSans-67"/>
     </g>
    </g>
   </g>
   <g id="text_13">
    <g id="patch_14">
     <path clip-path="url(#p41207f0f7f)" d="M 395.647538 332.473412 
L 400.770339 330.548532 
Q 403.016976 329.704363 402.172808 327.457726 
L 399.449484 320.20998 
Q 398.605316 317.963343 396.358678 318.807511 
L 391.235877 320.732392 
Q 388.98924 321.576561 389.833408 323.823198 
L 392.556732 331.070943 
Q 393.4009 333.317581 395.647538 332.473412 
z
" style="fill:#ffffff;stroke:#ffffff;stroke-linejoin:miter;"/>
    </g>
    <g clip-path="url(#p41207f0f7f)">
     <!-- A -->
     <g transform="translate(394.218167 328.66934)rotate(-20.593591)scale(0.08 -0.08)">
      <use xlink:href="#DejaVuSans-65"/>
     </g>
    </g>
   </g>
   <g id="text_14">
    <g id="patch_15">
     <path clip-path="url(#p41207f0f7f)" d="M 492.012055 331.689028 
L 497.469167 332.099128 
Q 499.862419 332.27898 500.04227 329.885728 
L 500.62248 322.164998 
Q 500.802331 319.771747 498.40908 319.591895 
L 492.951967 319.181796 
Q 490.558716 319.001944 490.378864 321.395196 
L 489.798655 329.115925 
Q 489.618803 331.509177 492.012055 331.689028 
z
" style="fill:#ffffff;stroke:#ffffff;stroke-linejoin:miter;"/>
    </g>
    <g clip-path="url(#p41207f0f7f)">
     <!-- A -->
     <g transform="translate(492.316585 327.636705)rotate(-355.702327)scale(0.08 -0.08)">
      <use xlink:href="#DejaVuSans-65"/>
     </g>
    </g>
   </g>
   <g id="text_15">
    <g id="patch_16">
     <path clip-path="url(#p41207f0f7f)" d="M 472.404741 333.3323 
L 472.404741 367.1398 
Q 472.404741 369.5398 474.804741 369.5398 
L 482.547241 369.5398 
Q 484.947241 369.5398 484.947241 367.1398 
L 484.947241 333.3323 
Q 484.947241 330.9323 482.547241 330.9323 
L 474.804741 330.9323 
Q 472.404741 330.9323 472.404741 333.3323 
z
" style="fill:#ffffff;stroke:#ffffff;stroke-linejoin:miter;"/>
    </g>
    <g clip-path="url(#p41207f0f7f)">
     <!-- Terminal -->
     <g transform="translate(476.468491 333.3323)rotate(-270)scale(0.08 -0.08)">
      <use xlink:href="#DejaVuSans-84"/>
      <use x="44.083984" xlink:href="#DejaVuSans-101"/>
      <use x="105.607422" xlink:href="#DejaVuSans-114"/>
      <use x="144.970703" xlink:href="#DejaVuSans-109"/>
      <use x="242.382812" xlink:href="#DejaVuSans-105"/>
      <use x="270.166016" xlink:href="#DejaVuSans-110"/>
      <use x="333.544922" xlink:href="#DejaVuSans-97"/>
      <use x="394.824219" xlink:href="#DejaVuSans-108"/>
     </g>
    </g>
   </g>
   <g id="text_16">
    <g id="patch_17">
     <path clip-path="url(#p41207f0f7f)" d="M 670.819659 333.3323 
L 670.819659 367.1398 
Q 670.819659 369.5398 673.219659 369.5398 
L 680.962159 369.5398 
Q 683.362159 369.5398 683.362159 367.1398 
L 683.362159 333.3323 
Q 683.362159 330.9323 680.962159 330.9323 
L 673.219659 330.9323 
Q 670.819659 330.9323 670.819659 333.3323 
z
" style="fill:#ffffff;stroke:#ffffff;stroke-linejoin:miter;"/>
    </g>
    <g clip-path="url(#p41207f0f7f)">
     <!-- Terminal -->
     <g transform="translate(674.883409 333.3323)rotate(-270)scale(0.08 -0.08)">
      <use xlink:href="#DejaVuSans-84"/>
      <use x="44.083984" xlink:href="#DejaVuSans-101"/>
      <use x="105.607422" xlink:href="#DejaVuSans-114"/>
      <use x="144.970703" xlink:href="#DejaVuSans-109"/>
      <use x="242.382812" xlink:href="#DejaVuSans-105"/>
      <use x="270.166016" xlink:href="#DejaVuSans-110"/>
      <use x="333.544922" xlink:href="#DejaVuSans-97"/>
      <use x="394.824219" xlink:href="#DejaVuSans-108"/>
     </g>
    </g>
   </g>
   <g id="text_17">
    <g id="patch_18">
     <path clip-path="url(#p41207f0f7f)" d="M 25.971174 48.172767 
L 25.971174 52.996517 
Q 25.971174 55.396517 28.371174 55.396517 
L 36.113674 55.396517 
Q 38.513674 55.396517 38.513674 52.996517 
L 38.513674 48.172767 
Q 38.513674 45.772767 36.113674 45.772767 
L 28.371174 45.772767 
Q 25.971174 45.772767 25.971174 48.172767 
z
" style="fill:#ffffff;stroke:#ffffff;stroke-linejoin:miter;"/>
    </g>
    <g clip-path="url(#p41207f0f7f)">
     <!-- P -->
     <g transform="translate(30.034924 48.172767)rotate(-270)scale(0.08 -0.08)">
      <use xlink:href="#DejaVuSans-80"/>
     </g>
    </g>
   </g>
   <g id="text_18">
    <g id="patch_19">
     <path clip-path="url(#p41207f0f7f)" d="M 125.178633 333.3323 
L 125.178633 367.1398 
Q 125.178633 369.5398 127.578633 369.5398 
L 135.321133 369.5398 
Q 137.721133 369.5398 137.721133 367.1398 
L 137.721133 333.3323 
Q 137.721133 330.9323 135.321133 330.9323 
L 127.578633 330.9323 
Q 125.178633 330.9323 125.178633 333.3323 
z
" style="fill:#ffffff;stroke:#ffffff;stroke-linejoin:miter;"/>
    </g>
    <g clip-path="url(#p41207f0f7f)">
     <!-- Terminal -->
     <g transform="translate(129.242383 333.3323)rotate(-270)scale(0.08 -0.08)">
      <use xlink:href="#DejaVuSans-84"/>
      <use x="44.083984" xlink:href="#DejaVuSans-101"/>
      <use x="105.607422" xlink:href="#DejaVuSans-114"/>
      <use x="144.970703" xlink:href="#DejaVuSans-109"/>
      <use x="242.382812" xlink:href="#DejaVuSans-105"/>
      <use x="270.166016" xlink:href="#DejaVuSans-110"/>
      <use x="333.544922" xlink:href="#DejaVuSans-97"/>
      <use x="394.824219" xlink:href="#DejaVuSans-108"/>
     </g>
    </g>
   </g>
   <g id="text_19">
    <g id="patch_20">
     <path clip-path="url(#p41207f0f7f)" d="M 174.782363 333.3323 
L 174.782363 367.1398 
Q 174.782363 369.5398 177.182363 369.5398 
L 184.924863 369.5398 
Q 187.324863 369.5398 187.324863 367.1398 
L 187.324863 333.3323 
Q 187.324863 330.9323 184.924863 330.9323 
L 177.182363 330.9323 
Q 174.782363 330.9323 174.782363 333.3323 
z
" style="fill:#ffffff;stroke:#ffffff;stroke-linejoin:miter;"/>
    </g>
    <g clip-path="url(#p41207f0f7f)">
     <!-- Terminal -->
     <g transform="translate(178.846113 333.3323)rotate(-270)scale(0.08 -0.08)">
      <use xlink:href="#DejaVuSans-84"/>
      <use x="44.083984" xlink:href="#DejaVuSans-101"/>
      <use x="105.607422" xlink:href="#DejaVuSans-114"/>
      <use x="144.970703" xlink:href="#DejaVuSans-109"/>
      <use x="242.382812" xlink:href="#DejaVuSans-105"/>
      <use x="270.166016" xlink:href="#DejaVuSans-110"/>
      <use x="333.544922" xlink:href="#DejaVuSans-97"/>
      <use x="394.824219" xlink:href="#DejaVuSans-108"/>
     </g>
    </g>
   </g>
   <g id="text_20">
    <g id="patch_21">
     <path clip-path="url(#p41207f0f7f)" d="M 224.386093 333.3323 
L 224.386093 367.1398 
Q 224.386093 369.5398 226.786093 369.5398 
L 234.528593 369.5398 
Q 236.928593 369.5398 236.928593 367.1398 
L 236.928593 333.3323 
Q 236.928593 330.9323 234.528593 330.9323 
L 226.786093 330.9323 
Q 224.386093 330.9323 224.386093 333.3323 
z
" style="fill:#ffffff;stroke:#ffffff;stroke-linejoin:miter;"/>
    </g>
    <g clip-path="url(#p41207f0f7f)">
     <!-- Terminal -->
     <g transform="translate(228.449843 333.3323)rotate(-270)scale(0.08 -0.08)">
      <use xlink:href="#DejaVuSans-84"/>
      <use x="44.083984" xlink:href="#DejaVuSans-101"/>
      <use x="105.607422" xlink:href="#DejaVuSans-114"/>
      <use x="144.970703" xlink:href="#DejaVuSans-109"/>
      <use x="242.382812" xlink:href="#DejaVuSans-105"/>
      <use x="270.166016" xlink:href="#DejaVuSans-110"/>
      <use x="333.544922" xlink:href="#DejaVuSans-97"/>
      <use x="394.824219" xlink:href="#DejaVuSans-108"/>
     </g>
    </g>
   </g>
   <g id="text_21">
    <g id="patch_22">
     <path clip-path="url(#p41207f0f7f)" d="M 273.989822 333.3323 
L 273.989822 367.1398 
Q 273.989822 369.5398 276.389822 369.5398 
L 284.132322 369.5398 
Q 286.532322 369.5398 286.532322 367.1398 
L 286.532322 333.3323 
Q 286.532322 330.9323 284.132322 330.9323 
L 276.389822 330.9323 
Q 273.989822 330.9323 273.989822 333.3323 
z
" style="fill:#ffffff;stroke:#ffffff;stroke-linejoin:miter;"/>
    </g>
    <g clip-path="url(#p41207f0f7f)">
     <!-- Terminal -->
     <g transform="translate(278.053572 333.3323)rotate(-270)scale(0.08 -0.08)">
      <use xlink:href="#DejaVuSans-84"/>
      <use x="44.083984" xlink:href="#DejaVuSans-101"/>
      <use x="105.607422" xlink:href="#DejaVuSans-114"/>
      <use x="144.970703" xlink:href="#DejaVuSans-109"/>
      <use x="242.382812" xlink:href="#DejaVuSans-105"/>
      <use x="270.166016" xlink:href="#DejaVuSans-110"/>
      <use x="333.544922" xlink:href="#DejaVuSans-97"/>
      <use x="394.824219" xlink:href="#DejaVuSans-108"/>
     </g>
    </g>
   </g>
   <g id="text_22">
    <g id="patch_23">
     <path clip-path="url(#p41207f0f7f)" d="M 353.47258 344.735701 
L 358.86907 343.402436 
Q 361.199014 342.826797 360.623374 340.496853 
L 358.766337 332.980356 
Q 358.190698 330.650412 355.860754 331.226052 
L 350.464264 332.559317 
Q 348.134319 333.134956 348.709959 335.4649 
L 350.566996 342.981397 
Q 351.142636 345.311341 353.47258 344.735701 
z
" style="fill:#ffffff;stroke:#ffffff;stroke-linejoin:miter;"/>
    </g>
    <g clip-path="url(#p41207f0f7f)">
     <!-- R -->
     <g transform="translate(352.49789 340.790572)rotate(-13.877676)scale(0.08 -0.08)">
      <defs>
       <path d="M 44.390625 34.1875 
Q 47.5625 33.109375 50.5625 29.59375 
Q 53.5625 26.078125 56.59375 19.921875 
L 66.609375 0 
L 56 0 
L 46.6875 18.703125 
Q 43.0625 26.03125 39.671875 28.421875 
Q 36.28125 30.8125 30.421875 30.8125 
L 19.671875 30.8125 
L 19.671875 0 
L 9.8125 0 
L 9.8125 72.90625 
L 32.078125 72.90625 
Q 44.578125 72.90625 50.734375 67.671875 
Q 56.890625 62.453125 56.890625 51.90625 
Q 56.890625 45.015625 53.6875 40.46875 
Q 50.484375 35.9375 44.390625 34.1875 
z
M 19.671875 64.796875 
L 19.671875 38.921875 
L 32.078125 38.921875 
Q 39.203125 38.921875 42.84375 42.21875 
Q 46.484375 45.515625 46.484375 51.90625 
Q 46.484375 58.296875 42.84375 61.546875 
Q 39.203125 64.796875 32.078125 64.796875 
z
" id="DejaVuSans-82"/>
      </defs>
      <use xlink:href="#DejaVuSans-82"/>
     </g>
    </g>
   </g>
   <g id="text_23">
    <g id="patch_24">
     <path clip-path="url(#p41207f0f7f)" d="M 373.197281 335.752127 
L 373.197281 340.209627 
Q 373.197281 342.609627 375.597281 342.609627 
L 383.339781 342.609627 
Q 385.739781 342.609627 385.739781 340.209627 
L 385.739781 335.752127 
Q 385.739781 333.352127 383.339781 333.352127 
L 375.597281 333.352127 
Q 373.197281 333.352127 373.197281 335.752127 
z
" style="fill:#ffffff;stroke:#ffffff;stroke-linejoin:miter;"/>
    </g>
    <g clip-path="url(#p41207f0f7f)">
     <!-- L -->
     <g transform="translate(377.261031 335.752127)rotate(-270)scale(0.08 -0.08)">
      <defs>
       <path d="M 9.8125 72.90625 
L 19.671875 72.90625 
L 19.671875 8.296875 
L 55.171875 8.296875 
L 55.171875 0 
L 9.8125 0 
z
" id="DejaVuSans-76"/>
      </defs>
      <use xlink:href="#DejaVuSans-76"/>
     </g>
    </g>
   </g>
   <g id="text_24">
    <g id="patch_25">
     <path clip-path="url(#p41207f0f7f)" d="M 400.054644 343.399138 
L 405.477832 344.738999 
Q 407.807776 345.314639 408.383415 342.984695 
L 410.240453 335.468198 
Q 410.816092 333.138254 408.486148 332.562615 
L 403.062961 331.222754 
Q 400.733017 330.647114 400.157377 332.977058 
L 398.30034 340.493555 
Q 397.7247 342.823499 400.054644 343.399138 
z
" style="fill:#ffffff;stroke:#ffffff;stroke-linejoin:miter;"/>
    </g>
    <g clip-path="url(#p41207f0f7f)">
     <!-- C -->
     <g transform="translate(401.029334 339.454009)rotate(-346.122324)scale(0.08 -0.08)">
      <use xlink:href="#DejaVuSans-67"/>
     </g>
    </g>
   </g>
   <g id="text_25">
    <g id="patch_26">
     <path clip-path="url(#p41207f0f7f)" d="M 552.132021 344.675289 
L 557.039465 343.462848 
Q 559.369409 342.887209 558.79377 340.557265 
L 556.936733 333.040768 
Q 556.361093 330.710824 554.031149 331.286464 
L 549.123705 332.498905 
Q 546.793761 333.074544 547.3694 335.404488 
L 549.226437 342.920985 
Q 549.802077 345.250929 552.132021 344.675289 
z
" style="fill:#ffffff;stroke:#ffffff;stroke-linejoin:miter;"/>
    </g>
    <g clip-path="url(#p41207f0f7f)">
     <!-- E -->
     <g transform="translate(551.157331 340.73016)rotate(-13.877676)scale(0.08 -0.08)">
      <use xlink:href="#DejaVuSans-69"/>
     </g>
    </g>
   </g>
   <g id="text_26">
    <g id="patch_27">
     <path clip-path="url(#p41207f0f7f)" d="M 571.6122 335.453377 
L 571.6122 340.508377 
Q 571.6122 342.908377 574.0122 342.908377 
L 581.7547 342.908377 
Q 584.1547 342.908377 584.1547 340.508377 
L 584.1547 335.453377 
Q 584.1547 333.053377 581.7547 333.053377 
L 574.0122 333.053377 
Q 571.6122 333.053377 571.6122 335.453377 
z
" style="fill:#ffffff;stroke:#ffffff;stroke-linejoin:miter;"/>
    </g>
    <g clip-path="url(#p41207f0f7f)">
     <!-- E -->
     <g transform="translate(575.67595 335.453377)rotate(-270)scale(0.08 -0.08)">
      <use xlink:href="#DejaVuSans-69"/>
     </g>
    </g>
   </g>
   <g id="text_27">
    <g id="patch_28">
     <path clip-path="url(#p41207f0f7f)" d="M 598.469563 343.399138 
L 603.89275 344.738999 
Q 606.222694 345.314639 606.798334 342.984695 
L 608.655371 335.468198 
Q 609.23101 333.138254 606.901066 332.562615 
L 601.477879 331.222754 
Q 599.147935 330.647114 598.572296 332.977058 
L 596.715258 340.493555 
Q 596.139619 342.823499 598.469563 343.399138 
z
" style="fill:#ffffff;stroke:#ffffff;stroke-linejoin:miter;"/>
    </g>
    <g clip-path="url(#p41207f0f7f)">
     <!-- C -->
     <g transform="translate(599.444253 339.454009)rotate(-346.122324)scale(0.08 -0.08)">
      <use xlink:href="#DejaVuSans-67"/>
     </g>
    </g>
   </g>
   <g id="text_28">
    <g id="patch_29">
     <path clip-path="url(#p41207f0f7f)" d="M 25.971174 69.516295 
L 25.971174 74.340045 
Q 25.971174 76.740045 28.371174 76.740045 
L 36.113674 76.740045 
Q 38.513674 76.740045 38.513674 74.340045 
L 38.513674 69.516295 
Q 38.513674 67.116295 36.113674 67.116295 
L 28.371174 67.116295 
Q 25.971174 67.116295 25.971174 69.516295 
z
" style="fill:#ffffff;stroke:#ffffff;stroke-linejoin:miter;"/>
    </g>
    <g clip-path="url(#p41207f0f7f)">
     <!-- P -->
     <g transform="translate(30.034924 69.516295)rotate(-270)scale(0.08 -0.08)">
      <use xlink:href="#DejaVuSans-80"/>
     </g>
    </g>
   </g>
   <g id="text_29">
    <g id="patch_30">
     <path clip-path="url(#p41207f0f7f)" d="M 323.593552 333.3323 
L 323.593552 367.1398 
Q 323.593552 369.5398 325.993552 369.5398 
L 333.736052 369.5398 
Q 336.136052 369.5398 336.136052 367.1398 
L 336.136052 333.3323 
Q 336.136052 330.9323 333.736052 330.9323 
L 325.993552 330.9323 
Q 323.593552 330.9323 323.593552 333.3323 
z
" style="fill:#ffffff;stroke:#ffffff;stroke-linejoin:miter;"/>
    </g>
    <g clip-path="url(#p41207f0f7f)">
     <!-- Terminal -->
     <g transform="translate(327.657302 333.3323)rotate(-270)scale(0.08 -0.08)">
      <use xlink:href="#DejaVuSans-84"/>
      <use x="44.083984" xlink:href="#DejaVuSans-101"/>
      <use x="105.607422" xlink:href="#DejaVuSans-114"/>
      <use x="144.970703" xlink:href="#DejaVuSans-109"/>
      <use x="242.382812" xlink:href="#DejaVuSans-105"/>
      <use x="270.166016" xlink:href="#DejaVuSans-110"/>
      <use x="333.544922" xlink:href="#DejaVuSans-97"/>
      <use x="394.824219" xlink:href="#DejaVuSans-108"/>
     </g>
    </g>
   </g>
   <g id="text_30">
    <g id="patch_31">
     <path clip-path="url(#p41207f0f7f)" d="M 373.197281 333.3323 
L 373.197281 367.1398 
Q 373.197281 369.5398 375.597281 369.5398 
L 383.339781 369.5398 
Q 385.739781 369.5398 385.739781 367.1398 
L 385.739781 333.3323 
Q 385.739781 330.9323 383.339781 330.9323 
L 375.597281 330.9323 
Q 373.197281 330.9323 373.197281 333.3323 
z
" style="fill:#ffffff;stroke:#ffffff;stroke-linejoin:miter;"/>
    </g>
    <g clip-path="url(#p41207f0f7f)">
     <!-- Terminal -->
     <g transform="translate(377.261031 333.3323)rotate(-270)scale(0.08 -0.08)">
      <use xlink:href="#DejaVuSans-84"/>
      <use x="44.083984" xlink:href="#DejaVuSans-101"/>
      <use x="105.607422" xlink:href="#DejaVuSans-114"/>
      <use x="144.970703" xlink:href="#DejaVuSans-109"/>
      <use x="242.382812" xlink:href="#DejaVuSans-105"/>
      <use x="270.166016" xlink:href="#DejaVuSans-110"/>
      <use x="333.544922" xlink:href="#DejaVuSans-97"/>
      <use x="394.824219" xlink:href="#DejaVuSans-108"/>
     </g>
    </g>
   </g>
   <g id="text_31">
    <g id="patch_32">
     <path clip-path="url(#p41207f0f7f)" d="M 422.801011 333.3323 
L 422.801011 367.1398 
Q 422.801011 369.5398 425.201011 369.5398 
L 432.943511 369.5398 
Q 435.343511 369.5398 435.343511 367.1398 
L 435.343511 333.3323 
Q 435.343511 330.9323 432.943511 330.9323 
L 425.201011 330.9323 
Q 422.801011 330.9323 422.801011 333.3323 
z
" style="fill:#ffffff;stroke:#ffffff;stroke-linejoin:miter;"/>
    </g>
    <g clip-path="url(#p41207f0f7f)">
     <!-- Terminal -->
     <g transform="translate(426.864761 333.3323)rotate(-270)scale(0.08 -0.08)">
      <use xlink:href="#DejaVuSans-84"/>
      <use x="44.083984" xlink:href="#DejaVuSans-101"/>
      <use x="105.607422" xlink:href="#DejaVuSans-114"/>
      <use x="144.970703" xlink:href="#DejaVuSans-109"/>
      <use x="242.382812" xlink:href="#DejaVuSans-105"/>
      <use x="270.166016" xlink:href="#DejaVuSans-110"/>
      <use x="333.544922" xlink:href="#DejaVuSans-97"/>
      <use x="394.824219" xlink:href="#DejaVuSans-108"/>
     </g>
    </g>
   </g>
   <g id="text_32">
    <g id="patch_33">
     <path clip-path="url(#p41207f0f7f)" d="M 522.00847 333.3323 
L 522.00847 367.1398 
Q 522.00847 369.5398 524.40847 369.5398 
L 532.15097 369.5398 
Q 534.55097 369.5398 534.55097 367.1398 
L 534.55097 333.3323 
Q 534.55097 330.9323 532.15097 330.9323 
L 524.40847 330.9323 
Q 522.00847 330.9323 522.00847 333.3323 
z
" style="fill:#ffffff;stroke:#ffffff;stroke-linejoin:miter;"/>
    </g>
    <g clip-path="url(#p41207f0f7f)">
     <!-- Terminal -->
     <g transform="translate(526.07222 333.3323)rotate(-270)scale(0.08 -0.08)">
      <use xlink:href="#DejaVuSans-84"/>
      <use x="44.083984" xlink:href="#DejaVuSans-101"/>
      <use x="105.607422" xlink:href="#DejaVuSans-114"/>
      <use x="144.970703" xlink:href="#DejaVuSans-109"/>
      <use x="242.382812" xlink:href="#DejaVuSans-105"/>
      <use x="270.166016" xlink:href="#DejaVuSans-110"/>
      <use x="333.544922" xlink:href="#DejaVuSans-97"/>
      <use x="394.824219" xlink:href="#DejaVuSans-108"/>
     </g>
    </g>
   </g>
   <g id="text_33">
    <g id="patch_34">
     <path clip-path="url(#p41207f0f7f)" d="M 571.6122 333.3323 
L 571.6122 367.1398 
Q 571.6122 369.5398 574.0122 369.5398 
L 581.7547 369.5398 
Q 584.1547 369.5398 584.1547 367.1398 
L 584.1547 333.3323 
Q 584.1547 330.9323 581.7547 330.9323 
L 574.0122 330.9323 
Q 571.6122 330.9323 571.6122 333.3323 
z
" style="fill:#ffffff;stroke:#ffffff;stroke-linejoin:miter;"/>
    </g>
    <g clip-path="url(#p41207f0f7f)">
     <!-- Terminal -->
     <g transform="translate(575.67595 333.3323)rotate(-270)scale(0.08 -0.08)">
      <use xlink:href="#DejaVuSans-84"/>
      <use x="44.083984" xlink:href="#DejaVuSans-101"/>
      <use x="105.607422" xlink:href="#DejaVuSans-114"/>
      <use x="144.970703" xlink:href="#DejaVuSans-109"/>
      <use x="242.382812" xlink:href="#DejaVuSans-105"/>
      <use x="270.166016" xlink:href="#DejaVuSans-110"/>
      <use x="333.544922" xlink:href="#DejaVuSans-97"/>
      <use x="394.824219" xlink:href="#DejaVuSans-108"/>
     </g>
    </g>
   </g>
   <g id="text_34">
    <g id="patch_35">
     <path clip-path="url(#p41207f0f7f)" d="M 621.215929 333.3323 
L 621.215929 367.1398 
Q 621.215929 369.5398 623.615929 369.5398 
L 631.358429 369.5398 
Q 633.758429 369.5398 633.758429 367.1398 
L 633.758429 333.3323 
Q 633.758429 330.9323 631.358429 330.9323 
L 623.615929 330.9323 
Q 621.215929 330.9323 621.215929 333.3323 
z
" style="fill:#ffffff;stroke:#ffffff;stroke-linejoin:miter;"/>
    </g>
    <g clip-path="url(#p41207f0f7f)">
     <!-- Terminal -->
     <g transform="translate(625.279679 333.3323)rotate(-270)scale(0.08 -0.08)">
      <use xlink:href="#DejaVuSans-84"/>
      <use x="44.083984" xlink:href="#DejaVuSans-101"/>
      <use x="105.607422" xlink:href="#DejaVuSans-114"/>
      <use x="144.970703" xlink:href="#DejaVuSans-109"/>
      <use x="242.382812" xlink:href="#DejaVuSans-105"/>
      <use x="270.166016" xlink:href="#DejaVuSans-110"/>
      <use x="333.544922" xlink:href="#DejaVuSans-97"/>
      <use x="394.824219" xlink:href="#DejaVuSans-108"/>
     </g>
    </g>
   </g>
   <g id="text_35">
    <g id="patch_36">
     <path clip-path="url(#p41207f0f7f)" d="M 25.971174 90.00187 
L 25.971174 94.82562 
Q 25.971174 97.22562 28.371174 97.22562 
L 36.113674 97.22562 
Q 38.513674 97.22562 38.513674 94.82562 
L 38.513674 90.00187 
Q 38.513674 87.60187 36.113674 87.60187 
L 28.371174 87.60187 
Q 25.971174 87.60187 25.971174 90.00187 
z
" style="fill:#ffffff;stroke:#ffffff;stroke-linejoin:miter;"/>
    </g>
    <g clip-path="url(#p41207f0f7f)">
     <!-- P -->
     <g transform="translate(30.034924 90.00187)rotate(-270)scale(0.08 -0.08)">
      <use xlink:href="#DejaVuSans-80"/>
     </g>
    </g>
   </g>
   <g id="text_36">
    <g id="patch_37">
     <path clip-path="url(#p41207f0f7f)" d="M 25.971174 109.678952 
L 25.971174 114.502702 
Q 25.971174 116.902702 28.371174 116.902702 
L 36.113674 116.902702 
Q 38.513674 116.902702 38.513674 114.502702 
L 38.513674 109.678952 
Q 38.513674 107.278952 36.113674 107.278952 
L 28.371174 107.278952 
Q 25.971174 107.278952 25.971174 109.678952 
z
" style="fill:#ffffff;stroke:#ffffff;stroke-linejoin:miter;"/>
    </g>
    <g clip-path="url(#p41207f0f7f)">
     <!-- P -->
     <g transform="translate(30.034924 109.678952)rotate(-270)scale(0.08 -0.08)">
      <use xlink:href="#DejaVuSans-80"/>
     </g>
    </g>
   </g>
   <g id="text_37">
    <g id="patch_38">
     <path clip-path="url(#p41207f0f7f)" d="M 25.971174 128.594395 
L 25.971174 133.418145 
Q 25.971174 135.818145 28.371174 135.818145 
L 36.113674 135.818145 
Q 38.513674 135.818145 38.513674 133.418145 
L 38.513674 128.594395 
Q 38.513674 126.194395 36.113674 126.194395 
L 28.371174 126.194395 
Q 25.971174 126.194395 25.971174 128.594395 
z
" style="fill:#ffffff;stroke:#ffffff;stroke-linejoin:miter;"/>
    </g>
    <g clip-path="url(#p41207f0f7f)">
     <!-- P -->
     <g transform="translate(30.034924 128.594395)rotate(-270)scale(0.08 -0.08)">
      <use xlink:href="#DejaVuSans-80"/>
     </g>
    </g>
   </g>
   <g id="text_38">
    <g id="patch_39">
     <path clip-path="url(#p41207f0f7f)" d="M 25.971174 146.792668 
L 25.971174 151.616418 
Q 25.971174 154.016418 28.371174 154.016418 
L 36.113674 154.016418 
Q 38.513674 154.016418 38.513674 151.616418 
L 38.513674 146.792668 
Q 38.513674 144.392668 36.113674 144.392668 
L 28.371174 144.392668 
Q 25.971174 144.392668 25.971174 146.792668 
z
" style="fill:#ffffff;stroke:#ffffff;stroke-linejoin:miter;"/>
    </g>
    <g clip-path="url(#p41207f0f7f)">
     <!-- P -->
     <g transform="translate(30.034924 146.792668)rotate(-270)scale(0.08 -0.08)">
      <use xlink:href="#DejaVuSans-80"/>
     </g>
    </g>
   </g>
   <g id="text_39">
    <g id="patch_40">
     <path clip-path="url(#p41207f0f7f)" d="M 25.971174 164.316079 
L 25.971174 169.139829 
Q 25.971174 171.539829 28.371174 171.539829 
L 36.113674 171.539829 
Q 38.513674 171.539829 38.513674 169.139829 
L 38.513674 164.316079 
Q 38.513674 161.916079 36.113674 161.916079 
L 28.371174 161.916079 
Q 25.971174 161.916079 25.971174 164.316079 
z
" style="fill:#ffffff;stroke:#ffffff;stroke-linejoin:miter;"/>
    </g>
    <g clip-path="url(#p41207f0f7f)">
     <!-- P -->
     <g transform="translate(30.034924 164.316079)rotate(-270)scale(0.08 -0.08)">
      <use xlink:href="#DejaVuSans-80"/>
     </g>
    </g>
   </g>
   <g id="text_40">
    <g id="patch_41">
     <path clip-path="url(#p41207f0f7f)" d="M 25.971174 181.20499 
L 25.971174 186.02874 
Q 25.971174 188.42874 28.371174 188.42874 
L 36.113674 188.42874 
Q 38.513674 188.42874 38.513674 186.02874 
L 38.513674 181.20499 
Q 38.513674 178.80499 36.113674 178.80499 
L 28.371174 178.80499 
Q 25.971174 178.80499 25.971174 181.20499 
z
" style="fill:#ffffff;stroke:#ffffff;stroke-linejoin:miter;"/>
    </g>
    <g clip-path="url(#p41207f0f7f)">
     <!-- P -->
     <g transform="translate(30.034924 181.20499)rotate(-270)scale(0.08 -0.08)">
      <use xlink:href="#DejaVuSans-80"/>
     </g>
    </g>
   </g>
   <g id="text_41">
    <g id="patch_42">
     <path clip-path="url(#p41207f0f7f)" d="M 25.971174 197.49804 
L 25.971174 202.32179 
Q 25.971174 204.72179 28.371174 204.72179 
L 36.113674 204.72179 
Q 38.513674 204.72179 38.513674 202.32179 
L 38.513674 197.49804 
Q 38.513674 195.09804 36.113674 195.09804 
L 28.371174 195.09804 
Q 25.971174 195.09804 25.971174 197.49804 
z
" style="fill:#ffffff;stroke:#ffffff;stroke-linejoin:miter;"/>
    </g>
    <g clip-path="url(#p41207f0f7f)">
     <!-- P -->
     <g transform="translate(30.034924 197.49804)rotate(-270)scale(0.08 -0.08)">
      <use xlink:href="#DejaVuSans-80"/>
     </g>
    </g>
   </g>
   <g id="text_42">
    <g id="patch_43">
     <path clip-path="url(#p41207f0f7f)" d="M 25.971174 213.23238 
L 25.971174 218.05613 
Q 25.971174 220.45613 28.371174 220.45613 
L 36.113674 220.45613 
Q 38.513674 220.45613 38.513674 218.05613 
L 38.513674 213.23238 
Q 38.513674 210.83238 36.113674 210.83238 
L 28.371174 210.83238 
Q 25.971174 210.83238 25.971174 213.23238 
z
" style="fill:#ffffff;stroke:#ffffff;stroke-linejoin:miter;"/>
    </g>
    <g clip-path="url(#p41207f0f7f)">
     <!-- P -->
     <g transform="translate(30.034924 213.23238)rotate(-270)scale(0.08 -0.08)">
      <use xlink:href="#DejaVuSans-80"/>
     </g>
    </g>
   </g>
   <g id="text_43">
    <g id="patch_44">
     <path clip-path="url(#p41207f0f7f)" d="M 25.971174 228.443927 
L 25.971174 233.267677 
Q 25.971174 235.667677 28.371174 235.667677 
L 36.113674 235.667677 
Q 38.513674 235.667677 38.513674 233.267677 
L 38.513674 228.443927 
Q 38.513674 226.043927 36.113674 226.043927 
L 28.371174 226.043927 
Q 25.971174 226.043927 25.971174 228.443927 
z
" style="fill:#ffffff;stroke:#ffffff;stroke-linejoin:miter;"/>
    </g>
    <g clip-path="url(#p41207f0f7f)">
     <!-- P -->
     <g transform="translate(30.034924 228.443927)rotate(-270)scale(0.08 -0.08)">
      <use xlink:href="#DejaVuSans-80"/>
     </g>
    </g>
   </g>
   <g id="text_44">
    <g id="patch_45">
     <path clip-path="url(#p41207f0f7f)" d="M 25.971174 243.167657 
L 25.971174 247.991407 
Q 25.971174 250.391407 28.371174 250.391407 
L 36.113674 250.391407 
Q 38.513674 250.391407 38.513674 247.991407 
L 38.513674 243.167657 
Q 38.513674 240.767657 36.113674 240.767657 
L 28.371174 240.767657 
Q 25.971174 240.767657 25.971174 243.167657 
z
" style="fill:#ffffff;stroke:#ffffff;stroke-linejoin:miter;"/>
    </g>
    <g clip-path="url(#p41207f0f7f)">
     <!-- P -->
     <g transform="translate(30.034924 243.167657)rotate(-270)scale(0.08 -0.08)">
      <use xlink:href="#DejaVuSans-80"/>
     </g>
    </g>
   </g>
   <g id="text_45">
    <g id="patch_46">
     <path clip-path="url(#p41207f0f7f)" d="M 25.971174 257.437956 
L 25.971174 262.261706 
Q 25.971174 264.661706 28.371174 264.661706 
L 36.113674 264.661706 
Q 38.513674 264.661706 38.513674 262.261706 
L 38.513674 257.437956 
Q 38.513674 255.037956 36.113674 255.037956 
L 28.371174 255.037956 
Q 25.971174 255.037956 25.971174 257.437956 
z
" style="fill:#ffffff;stroke:#ffffff;stroke-linejoin:miter;"/>
    </g>
    <g clip-path="url(#p41207f0f7f)">
     <!-- P -->
     <g transform="translate(30.034924 257.437956)rotate(-270)scale(0.08 -0.08)">
      <use xlink:href="#DejaVuSans-80"/>
     </g>
    </g>
   </g>
   <g id="text_46">
    <g id="patch_47">
     <path clip-path="url(#p41207f0f7f)" d="M 25.971174 271.289071 
L 25.971174 276.112821 
Q 25.971174 278.512821 28.371174 278.512821 
L 36.113674 278.512821 
Q 38.513674 278.512821 38.513674 276.112821 
L 38.513674 271.289071 
Q 38.513674 268.889071 36.113674 268.889071 
L 28.371174 268.889071 
Q 25.971174 268.889071 25.971174 271.289071 
z
" style="fill:#ffffff;stroke:#ffffff;stroke-linejoin:miter;"/>
    </g>
    <g clip-path="url(#p41207f0f7f)">
     <!-- P -->
     <g transform="translate(30.034924 271.289071)rotate(-270)scale(0.08 -0.08)">
      <use xlink:href="#DejaVuSans-80"/>
     </g>
    </g>
   </g>
   <g id="text_47">
    <g id="patch_48">
     <path clip-path="url(#p41207f0f7f)" d="M 25.971174 284.755731 
L 25.971174 289.579481 
Q 25.971174 291.979481 28.371174 291.979481 
L 36.113674 291.979481 
Q 38.513674 291.979481 38.513674 289.579481 
L 38.513674 284.755731 
Q 38.513674 282.355731 36.113674 282.355731 
L 28.371174 282.355731 
Q 25.971174 282.355731 25.971174 284.755731 
z
" style="fill:#ffffff;stroke:#ffffff;stroke-linejoin:miter;"/>
    </g>
    <g clip-path="url(#p41207f0f7f)">
     <!-- P -->
     <g transform="translate(30.034924 284.755731)rotate(-270)scale(0.08 -0.08)">
      <use xlink:href="#DejaVuSans-80"/>
     </g>
    </g>
   </g>
   <g id="text_48">
    <g id="patch_49">
     <path clip-path="url(#p41207f0f7f)" d="M 25.971174 297.87409 
L 25.971174 302.69784 
Q 25.971174 305.09784 28.371174 305.09784 
L 36.113674 305.09784 
Q 38.513674 305.09784 38.513674 302.69784 
L 38.513674 297.87409 
Q 38.513674 295.47409 36.113674 295.47409 
L 28.371174 295.47409 
Q 25.971174 295.47409 25.971174 297.87409 
z
" style="fill:#ffffff;stroke:#ffffff;stroke-linejoin:miter;"/>
    </g>
    <g clip-path="url(#p41207f0f7f)">
     <!-- P -->
     <g transform="translate(30.034924 297.87409)rotate(-270)scale(0.08 -0.08)">
      <use xlink:href="#DejaVuSans-80"/>
     </g>
    </g>
   </g>
   <g id="text_49">
    <g id="patch_50">
     <path clip-path="url(#p41207f0f7f)" d="M 25.971174 310.683298 
L 25.971174 315.507048 
Q 25.971174 317.907048 28.371174 317.907048 
L 36.113674 317.907048 
Q 38.513674 317.907048 38.513674 315.507048 
L 38.513674 310.683298 
Q 38.513674 308.283298 36.113674 308.283298 
L 28.371174 308.283298 
Q 25.971174 308.283298 25.971174 310.683298 
z
" style="fill:#ffffff;stroke:#ffffff;stroke-linejoin:miter;"/>
    </g>
    <g clip-path="url(#p41207f0f7f)">
     <!-- P -->
     <g transform="translate(30.034924 310.683298)rotate(-270)scale(0.08 -0.08)">
      <use xlink:href="#DejaVuSans-80"/>
     </g>
    </g>
   </g>
   <g id="text_50">
    <g id="patch_51">
     <path clip-path="url(#p41207f0f7f)" d="M 25.971174 323.228587 
L 25.971174 328.052337 
Q 25.971174 330.452337 28.371174 330.452337 
L 36.113674 330.452337 
Q 38.513674 330.452337 38.513674 328.052337 
L 38.513674 323.228587 
Q 38.513674 320.828587 36.113674 320.828587 
L 28.371174 320.828587 
Q 25.971174 320.828587 25.971174 323.228587 
z
" style="fill:#ffffff;stroke:#ffffff;stroke-linejoin:miter;"/>
    </g>
    <g clip-path="url(#p41207f0f7f)">
     <!-- P -->
     <g transform="translate(30.034924 323.228587)rotate(-270)scale(0.08 -0.08)">
      <use xlink:href="#DejaVuSans-80"/>
     </g>
    </g>
   </g>
   <g id="text_51">
    <g id="patch_52">
     <path clip-path="url(#p41207f0f7f)" d="M 25.971174 335.569002 
L 25.971174 340.392752 
Q 25.971174 342.792752 28.371174 342.792752 
L 36.113674 342.792752 
Q 38.513674 342.792752 38.513674 340.392752 
L 38.513674 335.569002 
Q 38.513674 333.169002 36.113674 333.169002 
L 28.371174 333.169002 
Q 25.971174 333.169002 25.971174 335.569002 
z
" style="fill:#ffffff;stroke:#ffffff;stroke-linejoin:miter;"/>
    </g>
    <g clip-path="url(#p41207f0f7f)">
     <!-- P -->
     <g transform="translate(30.034924 335.569002)rotate(-270)scale(0.08 -0.08)">
      <use xlink:href="#DejaVuSans-80"/>
     </g>
    </g>
   </g>
   <g id="text_52">
    <g id="patch_53">
     <path clip-path="url(#p41207f0f7f)" d="M 25.971174 333.3323 
L 25.971174 367.1398 
Q 25.971174 369.5398 28.371174 369.5398 
L 36.113674 369.5398 
Q 38.513674 369.5398 38.513674 367.1398 
L 38.513674 333.3323 
Q 38.513674 330.9323 36.113674 330.9323 
L 28.371174 330.9323 
Q 25.971174 330.9323 25.971174 333.3323 
z
" style="fill:#ffffff;stroke:#ffffff;stroke-linejoin:miter;"/>
    </g>
    <g clip-path="url(#p41207f0f7f)">
     <!-- Terminal -->
     <g transform="translate(30.034924 333.3323)rotate(-270)scale(0.08 -0.08)">
      <use xlink:href="#DejaVuSans-84"/>
      <use x="44.083984" xlink:href="#DejaVuSans-101"/>
      <use x="105.607422" xlink:href="#DejaVuSans-114"/>
      <use x="144.970703" xlink:href="#DejaVuSans-109"/>
      <use x="242.382812" xlink:href="#DejaVuSans-105"/>
      <use x="270.166016" xlink:href="#DejaVuSans-110"/>
      <use x="333.544922" xlink:href="#DejaVuSans-97"/>
      <use x="394.824219" xlink:href="#DejaVuSans-108"/>
     </g>
    </g>
   </g>
   <g id="PathCollection_1">
    <defs>
     <path d="M 0 8.660254 
C 2.296726 8.660254 4.499694 7.747755 6.123724 6.123724 
C 7.747755 4.499694 8.660254 2.296726 8.660254 -0 
C 8.660254 -2.296726 7.747755 -4.499694 6.123724 -6.123724 
C 4.499694 -7.747755 2.296726 -8.660254 0 -8.660254 
C -2.296726 -8.660254 -4.499694 -7.747755 -6.123724 -6.123724 
C -7.747755 -4.499694 -8.660254 -2.296726 -8.660254 0 
C -8.660254 2.296726 -7.747755 4.499694 -6.123724 6.123724 
C -4.499694 7.747755 -2.296726 8.660254 0 8.660254 
z
" id="C0_0_3f97dbe79a"/>
    </defs>
    <g clip-path="url(#p41207f0f7f)">
     <use style="fill:#ffffff;stroke:#ffffff;" x="32.242424" xlink:href="#C0_0_3f97dbe79a" y="356.363636"/>
    </g>
    <g clip-path="url(#p41207f0f7f)">
     <use style="fill:#ffffff;stroke:#ffffff;" x="81.846154" xlink:href="#C0_0_3f97dbe79a" y="356.363636"/>
    </g>
    <g clip-path="url(#p41207f0f7f)">
     <use style="fill:#ffffff;stroke:#ffffff;" x="131.449883" xlink:href="#C0_0_3f97dbe79a" y="356.363636"/>
    </g>
    <g clip-path="url(#p41207f0f7f)">
     <use style="fill:#ffffff;stroke:#ffffff;" x="181.053613" xlink:href="#C0_0_3f97dbe79a" y="356.363636"/>
    </g>
    <g clip-path="url(#p41207f0f7f)">
     <use style="fill:#ffffff;stroke:#ffffff;" x="230.657343" xlink:href="#C0_0_3f97dbe79a" y="356.363636"/>
    </g>
    <g clip-path="url(#p41207f0f7f)">
     <use style="fill:#ffffff;stroke:#ffffff;" x="280.261072" xlink:href="#C0_0_3f97dbe79a" y="356.363636"/>
    </g>
    <g clip-path="url(#p41207f0f7f)">
     <use style="fill:#ffffff;stroke:#ffffff;" x="329.864802" xlink:href="#C0_0_3f97dbe79a" y="356.363636"/>
    </g>
    <g clip-path="url(#p41207f0f7f)">
     <use style="fill:#ffffff;stroke:#ffffff;" x="379.468531" xlink:href="#C0_0_3f97dbe79a" y="356.363636"/>
    </g>
    <g clip-path="url(#p41207f0f7f)">
     <use style="fill:#ffffff;stroke:#ffffff;" x="429.072261" xlink:href="#C0_0_3f97dbe79a" y="356.363636"/>
    </g>
    <g clip-path="url(#p41207f0f7f)">
     <use style="fill:#ffffff;stroke:#ffffff;" x="478.675991" xlink:href="#C0_0_3f97dbe79a" y="356.363636"/>
    </g>
    <g clip-path="url(#p41207f0f7f)">
     <use style="fill:#ffffff;stroke:#ffffff;" x="528.27972" xlink:href="#C0_0_3f97dbe79a" y="356.363636"/>
    </g>
    <g clip-path="url(#p41207f0f7f)">
     <use style="fill:#ffffff;stroke:#ffffff;" x="577.88345" xlink:href="#C0_0_3f97dbe79a" y="356.363636"/>
    </g>
    <g clip-path="url(#p41207f0f7f)">
     <use style="fill:#ffffff;stroke:#ffffff;" x="627.487179" xlink:href="#C0_0_3f97dbe79a" y="356.363636"/>
    </g>
    <g clip-path="url(#p41207f0f7f)">
     <use style="fill:#ffffff;stroke:#ffffff;" x="677.090909" xlink:href="#C0_0_3f97dbe79a" y="356.363636"/>
    </g>
    <g clip-path="url(#p41207f0f7f)">
     <use style="stroke:#000000;" x="270.812743" xlink:href="#C0_0_3f97dbe79a" y="16.969697"/>
    </g>
    <g clip-path="url(#p41207f0f7f)">
     <use style="stroke:#000000;" x="81.846154" xlink:href="#C0_0_3f97dbe79a" y="344.108463"/>
    </g>
    <g clip-path="url(#p41207f0f7f)">
     <use style="stroke:#000000;" x="181.053613" xlink:href="#C0_0_3f97dbe79a" y="331.85329"/>
    </g>
    <g clip-path="url(#p41207f0f7f)">
     <use style="stroke:#000000;" x="412.537685" xlink:href="#C0_0_3f97dbe79a" y="319.427634"/>
    </g>
    <g clip-path="url(#p41207f0f7f)">
     <use style="stroke:#000000;" x="478.675991" xlink:href="#C0_0_3f97dbe79a" y="344.108463"/>
    </g>
    <g clip-path="url(#p41207f0f7f)">
     <use style="stroke:#000000;" x="677.090909" xlink:href="#C0_0_3f97dbe79a" y="344.108463"/>
    </g>
    <g clip-path="url(#p41207f0f7f)">
     <use style="stroke:#000000;" x="32.242424" xlink:href="#C0_0_3f97dbe79a" y="39.692038"/>
    </g>
    <g clip-path="url(#p41207f0f7f)">
     <use style="stroke:#000000;" x="131.449883" xlink:href="#C0_0_3f97dbe79a" y="344.108463"/>
    </g>
    <g clip-path="url(#p41207f0f7f)">
     <use style="stroke:#000000;" x="181.053613" xlink:href="#C0_0_3f97dbe79a" y="344.108463"/>
    </g>
    <g clip-path="url(#p41207f0f7f)">
     <use style="stroke:#000000;" x="230.657343" xlink:href="#C0_0_3f97dbe79a" y="344.108463"/>
    </g>
    <g clip-path="url(#p41207f0f7f)">
     <use style="stroke:#000000;" x="280.261072" xlink:href="#C0_0_3f97dbe79a" y="344.108463"/>
    </g>
    <g clip-path="url(#p41207f0f7f)">
     <use style="stroke:#000000;" x="379.468531" xlink:href="#C0_0_3f97dbe79a" y="331.85329"/>
    </g>
    <g clip-path="url(#p41207f0f7f)">
     <use style="stroke:#000000;" x="577.88345" xlink:href="#C0_0_3f97dbe79a" y="331.85329"/>
    </g>
    <g clip-path="url(#p41207f0f7f)">
     <use style="stroke:#000000;" x="32.242424" xlink:href="#C0_0_3f97dbe79a" y="61.477246"/>
    </g>
    <g clip-path="url(#p41207f0f7f)">
     <use style="stroke:#000000;" x="329.864802" xlink:href="#C0_0_3f97dbe79a" y="344.108463"/>
    </g>
    <g clip-path="url(#p41207f0f7f)">
     <use style="stroke:#000000;" x="379.468531" xlink:href="#C0_0_3f97dbe79a" y="344.108463"/>
    </g>
    <g clip-path="url(#p41207f0f7f)">
     <use style="stroke:#000000;" x="429.072261" xlink:href="#C0_0_3f97dbe79a" y="344.108463"/>
    </g>
    <g clip-path="url(#p41207f0f7f)">
     <use style="stroke:#000000;" x="528.27972" xlink:href="#C0_0_3f97dbe79a" y="344.108463"/>
    </g>
    <g clip-path="url(#p41207f0f7f)">
     <use style="stroke:#000000;" x="577.88345" xlink:href="#C0_0_3f97dbe79a" y="344.108463"/>
    </g>
    <g clip-path="url(#p41207f0f7f)">
     <use style="stroke:#000000;" x="627.487179" xlink:href="#C0_0_3f97dbe79a" y="344.108463"/>
    </g>
    <g clip-path="url(#p41207f0f7f)">
     <use style="stroke:#000000;" x="32.242424" xlink:href="#C0_0_3f97dbe79a" y="82.379093"/>
    </g>
    <g clip-path="url(#p41207f0f7f)">
     <use style="stroke:#000000;" x="32.242424" xlink:href="#C0_0_3f97dbe79a" y="102.448397"/>
    </g>
    <g clip-path="url(#p41207f0f7f)">
     <use style="stroke:#000000;" x="32.242424" xlink:href="#C0_0_3f97dbe79a" y="121.733258"/>
    </g>
    <g clip-path="url(#p41207f0f7f)">
     <use style="stroke:#000000;" x="32.242424" xlink:href="#C0_0_3f97dbe79a" y="140.279282"/>
    </g>
    <g clip-path="url(#p41207f0f7f)">
     <use style="stroke:#000000;" x="32.242424" xlink:href="#C0_0_3f97dbe79a" y="158.129804"/>
    </g>
    <g clip-path="url(#p41207f0f7f)">
     <use style="stroke:#000000;" x="32.242424" xlink:href="#C0_0_3f97dbe79a" y="175.326104"/>
    </g>
    <g clip-path="url(#p41207f0f7f)">
     <use style="stroke:#000000;" x="32.242424" xlink:href="#C0_0_3f97dbe79a" y="191.907626"/>
    </g>
    <g clip-path="url(#p41207f0f7f)">
     <use style="stroke:#000000;" x="32.242424" xlink:href="#C0_0_3f97dbe79a" y="207.912204"/>
    </g>
    <g clip-path="url(#p41207f0f7f)">
     <use style="stroke:#000000;" x="32.242424" xlink:href="#C0_0_3f97dbe79a" y="223.376306"/>
    </g>
    <g clip-path="url(#p41207f0f7f)">
     <use style="stroke:#000000;" x="32.242424" xlink:href="#C0_0_3f97dbe79a" y="238.335298"/>
    </g>
    <g clip-path="url(#p41207f0f7f)">
     <use style="stroke:#000000;" x="32.242424" xlink:href="#C0_0_3f97dbe79a" y="252.823765"/>
    </g>
    <g clip-path="url(#p41207f0f7f)">
     <use style="stroke:#000000;" x="32.242424" xlink:href="#C0_0_3f97dbe79a" y="266.875896"/>
    </g>
    <g clip-path="url(#p41207f0f7f)">
     <use style="stroke:#000000;" x="32.242424" xlink:href="#C0_0_3f97dbe79a" y="280.525995"/>
    </g>
    <g clip-path="url(#p41207f0f7f)">
     <use style="stroke:#000000;" x="32.242424" xlink:href="#C0_0_3f97dbe79a" y="293.809217"/>
    </g>
    <g clip-path="url(#p41207f0f7f)">
     <use style="stroke:#000000;" x="32.242424" xlink:href="#C0_0_3f97dbe79a" y="306.762712"/>
    </g>
    <g clip-path="url(#p41207f0f7f)">
     <use style="stroke:#000000;" x="32.242424" xlink:href="#C0_0_3f97dbe79a" y="319.427634"/>
    </g>
    <g clip-path="url(#p41207f0f7f)">
     <use style="stroke:#000000;" x="32.242424" xlink:href="#C0_0_3f97dbe79a" y="331.85329"/>
    </g>
    <g clip-path="url(#p41207f0f7f)">
     <use style="stroke:#000000;" x="32.242424" xlink:href="#C0_0_3f97dbe79a" y="344.108463"/>
    </g>
   </g>
   <g id="text_53">
    <g clip-path="url(#p41207f0f7f)">
     <!-- A -->
     <g transform="translate(28.822112 359.123011)scale(0.1 -0.1)">
      <use xlink:href="#DejaVuSans-65"/>
     </g>
    </g>
   </g>
   <g id="text_54">
    <g clip-path="url(#p41207f0f7f)">
     <!-- complete -->
     <g transform="translate(58.490685 359.123011)scale(0.1 -0.1)">
      <defs>
       <path d="M 48.78125 52.59375 
L 48.78125 44.1875 
Q 44.96875 46.296875 41.140625 47.34375 
Q 37.3125 48.390625 33.40625 48.390625 
Q 24.65625 48.390625 19.8125 42.84375 
Q 14.984375 37.3125 14.984375 27.296875 
Q 14.984375 17.28125 19.8125 11.734375 
Q 24.65625 6.203125 33.40625 6.203125 
Q 37.3125 6.203125 41.140625 7.25 
Q 44.96875 8.296875 48.78125 10.40625 
L 48.78125 2.09375 
Q 45.015625 0.34375 40.984375 -0.53125 
Q 36.96875 -1.421875 32.421875 -1.421875 
Q 20.0625 -1.421875 12.78125 6.34375 
Q 5.515625 14.109375 5.515625 27.296875 
Q 5.515625 40.671875 12.859375 48.328125 
Q 20.21875 56 33.015625 56 
Q 37.15625 56 41.109375 55.140625 
Q 45.0625 54.296875 48.78125 52.59375 
z
" id="DejaVuSans-99"/>
       <path d="M 30.609375 48.390625 
Q 23.390625 48.390625 19.1875 42.75 
Q 14.984375 37.109375 14.984375 27.296875 
Q 14.984375 17.484375 19.15625 11.84375 
Q 23.34375 6.203125 30.609375 6.203125 
Q 37.796875 6.203125 41.984375 11.859375 
Q 46.1875 17.53125 46.1875 27.296875 
Q 46.1875 37.015625 41.984375 42.703125 
Q 37.796875 48.390625 30.609375 48.390625 
z
M 30.609375 56 
Q 42.328125 56 49.015625 48.375 
Q 55.71875 40.765625 55.71875 27.296875 
Q 55.71875 13.875 49.015625 6.21875 
Q 42.328125 -1.421875 30.609375 -1.421875 
Q 18.84375 -1.421875 12.171875 6.21875 
Q 5.515625 13.875 5.515625 27.296875 
Q 5.515625 40.765625 12.171875 48.375 
Q 18.84375 56 30.609375 56 
z
" id="DejaVuSans-111"/>
       <path d="M 18.109375 8.203125 
L 18.109375 -20.796875 
L 9.078125 -20.796875 
L 9.078125 54.6875 
L 18.109375 54.6875 
L 18.109375 46.390625 
Q 20.953125 51.265625 25.265625 53.625 
Q 29.59375 56 35.59375 56 
Q 45.5625 56 51.78125 48.09375 
Q 58.015625 40.1875 58.015625 27.296875 
Q 58.015625 14.40625 51.78125 6.484375 
Q 45.5625 -1.421875 35.59375 -1.421875 
Q 29.59375 -1.421875 25.265625 0.953125 
Q 20.953125 3.328125 18.109375 8.203125 
z
M 48.6875 27.296875 
Q 48.6875 37.203125 44.609375 42.84375 
Q 40.53125 48.484375 33.40625 48.484375 
Q 26.265625 48.484375 22.1875 42.84375 
Q 18.109375 37.203125 18.109375 27.296875 
Q 18.109375 17.390625 22.1875 11.75 
Q 26.265625 6.109375 33.40625 6.109375 
Q 40.53125 6.109375 44.609375 11.75 
Q 48.6875 17.390625 48.6875 27.296875 
z
" id="DejaVuSans-112"/>
       <path d="M 18.3125 70.21875 
L 18.3125 54.6875 
L 36.8125 54.6875 
L 36.8125 47.703125 
L 18.3125 47.703125 
L 18.3125 18.015625 
Q 18.3125 11.328125 20.140625 9.421875 
Q 21.96875 7.515625 27.59375 7.515625 
L 36.8125 7.515625 
L 36.8125 0 
L 27.59375 0 
Q 17.1875 0 13.234375 3.875 
Q 9.28125 7.765625 9.28125 18.015625 
L 9.28125 47.703125 
L 2.6875 47.703125 
L 2.6875 54.6875 
L 9.28125 54.6875 
L 9.28125 70.21875 
z
" id="DejaVuSans-116"/>
      </defs>
      <use xlink:href="#DejaVuSans-99"/>
      <use x="54.980469" xlink:href="#DejaVuSans-111"/>
      <use x="116.162109" xlink:href="#DejaVuSans-109"/>
      <use x="213.574219" xlink:href="#DejaVuSans-112"/>
      <use x="277.050781" xlink:href="#DejaVuSans-108"/>
      <use x="304.833984" xlink:href="#DejaVuSans-101"/>
      <use x="366.357422" xlink:href="#DejaVuSans-116"/>
      <use x="405.566406" xlink:href="#DejaVuSans-101"/>
     </g>
    </g>
   </g>
   <g id="text_55">
    <g clip-path="url(#p41207f0f7f)">
     <!-- revolution -->
     <g transform="translate(106.276446 359.123011)scale(0.1 -0.1)">
      <defs>
       <path d="M 2.984375 54.6875 
L 12.5 54.6875 
L 29.59375 8.796875 
L 46.6875 54.6875 
L 56.203125 54.6875 
L 35.6875 0 
L 23.484375 0 
z
" id="DejaVuSans-118"/>
       <path d="M 8.5 21.578125 
L 8.5 54.6875 
L 17.484375 54.6875 
L 17.484375 21.921875 
Q 17.484375 14.15625 20.5 10.265625 
Q 23.53125 6.390625 29.59375 6.390625 
Q 36.859375 6.390625 41.078125 11.03125 
Q 45.3125 15.671875 45.3125 23.6875 
L 45.3125 54.6875 
L 54.296875 54.6875 
L 54.296875 0 
L 45.3125 0 
L 45.3125 8.40625 
Q 42.046875 3.421875 37.71875 1 
Q 33.40625 -1.421875 27.6875 -1.421875 
Q 18.265625 -1.421875 13.375 4.4375 
Q 8.5 10.296875 8.5 21.578125 
z
M 31.109375 56 
z
" id="DejaVuSans-117"/>
      </defs>
      <use xlink:href="#DejaVuSans-114"/>
      <use x="38.863281" xlink:href="#DejaVuSans-101"/>
      <use x="100.386719" xlink:href="#DejaVuSans-118"/>
      <use x="159.566406" xlink:href="#DejaVuSans-111"/>
      <use x="220.748047" xlink:href="#DejaVuSans-108"/>
      <use x="248.53125" xlink:href="#DejaVuSans-117"/>
      <use x="311.910156" xlink:href="#DejaVuSans-116"/>
      <use x="351.119141" xlink:href="#DejaVuSans-105"/>
      <use x="378.902344" xlink:href="#DejaVuSans-111"/>
      <use x="440.083984" xlink:href="#DejaVuSans-110"/>
     </g>
    </g>
   </g>
   <g id="text_56">
    <g clip-path="url(#p41207f0f7f)">
     <!-- of -->
     <g transform="translate(176.234082 359.123011)scale(0.1 -0.1)">
      <defs>
       <path d="M 37.109375 75.984375 
L 37.109375 68.5 
L 28.515625 68.5 
Q 23.6875 68.5 21.796875 66.546875 
Q 19.921875 64.59375 19.921875 59.515625 
L 19.921875 54.6875 
L 34.71875 54.6875 
L 34.71875 47.703125 
L 19.921875 47.703125 
L 19.921875 0 
L 10.890625 0 
L 10.890625 47.703125 
L 2.296875 47.703125 
L 2.296875 54.6875 
L 10.890625 54.6875 
L 10.890625 58.5 
Q 10.890625 67.625 15.140625 71.796875 
Q 19.390625 75.984375 28.609375 75.984375 
z
" id="DejaVuSans-102"/>
      </defs>
      <use xlink:href="#DejaVuSans-111"/>
      <use x="61.181641" xlink:href="#DejaVuSans-102"/>
     </g>
    </g>
   </g>
   <g id="text_57">
    <g clip-path="url(#p41207f0f7f)">
     <!-- the -->
     <g transform="translate(222.451874 359.123011)scale(0.1 -0.1)">
      <defs>
       <path d="M 54.890625 33.015625 
L 54.890625 0 
L 45.90625 0 
L 45.90625 32.71875 
Q 45.90625 40.484375 42.875 44.328125 
Q 39.84375 48.1875 33.796875 48.1875 
Q 26.515625 48.1875 22.3125 43.546875 
Q 18.109375 38.921875 18.109375 30.90625 
L 18.109375 0 
L 9.078125 0 
L 9.078125 75.984375 
L 18.109375 75.984375 
L 18.109375 46.1875 
Q 21.34375 51.125 25.703125 53.5625 
Q 30.078125 56 35.796875 56 
Q 45.21875 56 50.046875 50.171875 
Q 54.890625 44.34375 54.890625 33.015625 
z
" id="DejaVuSans-104"/>
      </defs>
      <use xlink:href="#DejaVuSans-116"/>
      <use x="39.208984" xlink:href="#DejaVuSans-104"/>
      <use x="102.587891" xlink:href="#DejaVuSans-101"/>
     </g>
    </g>
   </g>
   <g id="text_58">
    <g clip-path="url(#p41207f0f7f)">
     <!-- Earth -->
     <g transform="translate(266.85326 359.123011)scale(0.1 -0.1)">
      <use xlink:href="#DejaVuSans-69"/>
      <use x="63.183594" xlink:href="#DejaVuSans-97"/>
      <use x="124.462891" xlink:href="#DejaVuSans-114"/>
      <use x="165.576172" xlink:href="#DejaVuSans-116"/>
      <use x="204.785156" xlink:href="#DejaVuSans-104"/>
     </g>
    </g>
   </g>
   <g id="text_59">
    <g clip-path="url(#p41207f0f7f)">
     <!-- around -->
     <g transform="translate(312.286677 359.123011)scale(0.1 -0.1)">
      <defs>
       <path d="M 45.40625 46.390625 
L 45.40625 75.984375 
L 54.390625 75.984375 
L 54.390625 0 
L 45.40625 0 
L 45.40625 8.203125 
Q 42.578125 3.328125 38.25 0.953125 
Q 33.9375 -1.421875 27.875 -1.421875 
Q 17.96875 -1.421875 11.734375 6.484375 
Q 5.515625 14.40625 5.515625 27.296875 
Q 5.515625 40.1875 11.734375 48.09375 
Q 17.96875 56 27.875 56 
Q 33.9375 56 38.25 53.625 
Q 42.578125 51.265625 45.40625 46.390625 
z
M 14.796875 27.296875 
Q 14.796875 17.390625 18.875 11.75 
Q 22.953125 6.109375 30.078125 6.109375 
Q 37.203125 6.109375 41.296875 11.75 
Q 45.40625 17.390625 45.40625 27.296875 
Q 45.40625 37.203125 41.296875 42.84375 
Q 37.203125 48.484375 30.078125 48.484375 
Q 22.953125 48.484375 18.875 42.84375 
Q 14.796875 37.203125 14.796875 27.296875 
z
" id="DejaVuSans-100"/>
      </defs>
      <use xlink:href="#DejaVuSans-97"/>
      <use x="61.279297" xlink:href="#DejaVuSans-114"/>
      <use x="100.142578" xlink:href="#DejaVuSans-111"/>
      <use x="161.324219" xlink:href="#DejaVuSans-117"/>
      <use x="224.703125" xlink:href="#DejaVuSans-110"/>
      <use x="288.082031" xlink:href="#DejaVuSans-100"/>
     </g>
    </g>
   </g>
   <g id="text_60">
    <g clip-path="url(#p41207f0f7f)">
     <!-- the -->
     <g transform="translate(371.263063 359.123011)scale(0.1 -0.1)">
      <use xlink:href="#DejaVuSans-116"/>
      <use x="39.208984" xlink:href="#DejaVuSans-104"/>
      <use x="102.587891" xlink:href="#DejaVuSans-101"/>
     </g>
    </g>
   </g>
   <g id="text_61">
    <g clip-path="url(#p41207f0f7f)">
     <!-- sun -->
     <g transform="translate(420.130074 359.123011)scale(0.1 -0.1)">
      <defs>
       <path d="M 44.28125 53.078125 
L 44.28125 44.578125 
Q 40.484375 46.53125 36.375 47.5 
Q 32.28125 48.484375 27.875 48.484375 
Q 21.1875 48.484375 17.84375 46.4375 
Q 14.5 44.390625 14.5 40.28125 
Q 14.5 37.15625 16.890625 35.375 
Q 19.28125 33.59375 26.515625 31.984375 
L 29.59375 31.296875 
Q 39.15625 29.25 43.1875 25.515625 
Q 47.21875 21.78125 47.21875 15.09375 
Q 47.21875 7.46875 41.1875 3.015625 
Q 35.15625 -1.421875 24.609375 -1.421875 
Q 20.21875 -1.421875 15.453125 -0.5625 
Q 10.6875 0.296875 5.421875 2 
L 5.421875 11.28125 
Q 10.40625 8.6875 15.234375 7.390625 
Q 20.0625 6.109375 24.8125 6.109375 
Q 31.15625 6.109375 34.5625 8.28125 
Q 37.984375 10.453125 37.984375 14.40625 
Q 37.984375 18.0625 35.515625 20.015625 
Q 33.0625 21.96875 24.703125 23.78125 
L 21.578125 24.515625 
Q 13.234375 26.265625 9.515625 29.90625 
Q 5.8125 33.546875 5.8125 39.890625 
Q 5.8125 47.609375 11.28125 51.796875 
Q 16.75 56 26.8125 56 
Q 31.78125 56 36.171875 55.265625 
Q 40.578125 54.546875 44.28125 53.078125 
z
" id="DejaVuSans-115"/>
      </defs>
      <use xlink:href="#DejaVuSans-115"/>
      <use x="52.099609" xlink:href="#DejaVuSans-117"/>
      <use x="115.478516" xlink:href="#DejaVuSans-110"/>
     </g>
    </g>
   </g>
   <g id="text_62">
    <g clip-path="url(#p41207f0f7f)">
     <!-- takes -->
     <g transform="translate(465.256459 359.123011)scale(0.1 -0.1)">
      <defs>
       <path d="M 9.078125 75.984375 
L 18.109375 75.984375 
L 18.109375 31.109375 
L 44.921875 54.6875 
L 56.390625 54.6875 
L 27.390625 29.109375 
L 57.625 0 
L 45.90625 0 
L 18.109375 26.703125 
L 18.109375 0 
L 9.078125 0 
z
" id="DejaVuSans-107"/>
      </defs>
      <use xlink:href="#DejaVuSans-116"/>
      <use x="39.208984" xlink:href="#DejaVuSans-97"/>
      <use x="100.488281" xlink:href="#DejaVuSans-107"/>
      <use x="154.773438" xlink:href="#DejaVuSans-101"/>
      <use x="216.296875" xlink:href="#DejaVuSans-115"/>
     </g>
    </g>
   </g>
   <g id="text_63">
    <g clip-path="url(#p41207f0f7f)">
     <!-- one -->
     <g transform="translate(518.975033 359.123011)scale(0.1 -0.1)">
      <use xlink:href="#DejaVuSans-111"/>
      <use x="61.181641" xlink:href="#DejaVuSans-110"/>
      <use x="124.560547" xlink:href="#DejaVuSans-101"/>
     </g>
    </g>
   </g>
   <g id="text_64">
    <g clip-path="url(#p41207f0f7f)">
     <!-- Earth -->
     <g transform="translate(564.475637 359.123011)scale(0.1 -0.1)">
      <use xlink:href="#DejaVuSans-69"/>
      <use x="63.183594" xlink:href="#DejaVuSans-97"/>
      <use x="124.462891" xlink:href="#DejaVuSans-114"/>
      <use x="165.576172" xlink:href="#DejaVuSans-116"/>
      <use x="204.785156" xlink:href="#DejaVuSans-104"/>
     </g>
    </g>
   </g>
   <g id="text_65">
    <g clip-path="url(#p41207f0f7f)">
     <!-- year -->
     <g transform="translate(616.331711 359.123011)scale(0.1 -0.1)">
      <defs>
       <path d="M 32.171875 -5.078125 
Q 28.375 -14.84375 24.75 -17.8125 
Q 21.140625 -20.796875 15.09375 -20.796875 
L 7.90625 -20.796875 
L 7.90625 -13.28125 
L 13.1875 -13.28125 
Q 16.890625 -13.28125 18.9375 -11.515625 
Q 21 -9.765625 23.484375 -3.21875 
L 25.09375 0.875 
L 2.984375 54.6875 
L 12.5 54.6875 
L 29.59375 11.921875 
L 46.6875 54.6875 
L 56.203125 54.6875 
z
" id="DejaVuSans-121"/>
      </defs>
      <use xlink:href="#DejaVuSans-121"/>
      <use x="59.179688" xlink:href="#DejaVuSans-101"/>
      <use x="120.703125" xlink:href="#DejaVuSans-97"/>
      <use x="181.982422" xlink:href="#DejaVuSans-114"/>
     </g>
    </g>
   </g>
   <g id="text_66">
    <g clip-path="url(#p41207f0f7f)">
     <!-- . -->
     <g transform="translate(675.501847 359.123011)scale(0.1 -0.1)">
      <defs>
       <path d="M 10.6875 12.40625 
L 21 12.40625 
L 21 0 
L 10.6875 0 
z
" id="DejaVuSans-46"/>
      </defs>
      <use xlink:href="#DejaVuSans-46"/>
     </g>
    </g>
   </g>
  </g>
 </g>
 <defs>
  <clipPath id="p41207f0f7f">
   <rect height="373.333333" width="709.333333" x="0" y="0"/>
  </clipPath>
 </defs>
</svg>
