<?xml version="1.0" encoding="utf-8" standalone="no"?>
<!DOCTYPE svg PUBLIC "-//W3C//DTD SVG 1.1//EN"
  "http://www.w3.org/Graphics/SVG/1.1/DTD/svg11.dtd">
<!-- Created with matplotlib (https://matplotlib.org/) -->
<svg height="400pt" version="1.1" viewBox="0 0 760 400" width="760pt" xmlns="http://www.w3.org/2000/svg" xmlns:xlink="http://www.w3.org/1999/xlink">
 <metadata>
  <rdf:RDF xmlns:cc="http://creativecommons.org/ns#" xmlns:dc="http://purl.org/dc/elements/1.1/" xmlns:rdf="http://www.w3.org/1999/02/22-rdf-syntax-ns#">
   <cc:Work>
    <dc:type rdf:resource="http://purl.org/dc/dcmitype/StillImage"/>
    <dc:date>2021-05-19T11:42:24.951322</dc:date>
    <dc:format>image/svg+xml</dc:format>
    <dc:creator>
     <cc:Agent>
      <dc:title>Matplotlib v3.3.4, https://matplotlib.org/</dc:title>
     </cc:Agent>
    </dc:creator>
   </cc:Work>
  </rdf:RDF>
 </metadata>
 <defs>
  <style type="text/css">*{stroke-linecap:butt;stroke-linejoin:round;}</style>
 </defs>
 <g id="figure_1">
  <g id="patch_1">
   <path d="M 0 400 
L 760 400 
L 760 0 
L 0 0 
z
" style="fill:#ffffff;"/>
  </g>
  <g id="axes_1">
   <g id="LineCollection_1">
    <path clip-path="url(#pcae4069108)" d="M 168.761596 18.181818 
L 83.896104 368.687639 
" style="fill:none;stroke:#000000;"/>
    <path clip-path="url(#pcae4069108)" d="M 168.761596 18.181818 
L 233.798701 314.79559 
" style="fill:none;stroke:#000000;"/>
    <path clip-path="url(#pcae4069108)" d="M 168.761596 18.181818 
L 330.649351 368.687639 
" style="fill:none;stroke:#000000;"/>
    <path clip-path="url(#pcae4069108)" d="M 168.761596 18.181818 
L 429.350649 368.687639 
" style="fill:none;stroke:#000000;"/>
    <path clip-path="url(#pcae4069108)" d="M 168.761596 18.181818 
L 34.545455 42.527183 
" style="fill:none;stroke:#000000;"/>
    <path clip-path="url(#pcae4069108)" d="M 168.761596 18.181818 
L 34.545455 355.557096 
" style="fill:none;stroke:#000000;stroke-dasharray:3.7,1.6;stroke-dashoffset:0;"/>
    <path clip-path="url(#pcae4069108)" d="M 168.761596 18.181818 
L 34.545455 368.687639 
" style="fill:none;stroke:#000000;stroke-dasharray:3.7,1.6;stroke-dashoffset:0;"/>
    <path clip-path="url(#pcae4069108)" d="M 83.896104 368.687639 
L 83.896104 381.818182 
" style="fill:none;stroke:#000000;"/>
    <path clip-path="url(#pcae4069108)" d="M 233.798701 314.79559 
L 133.246753 368.687639 
" style="fill:none;stroke:#000000;"/>
    <path clip-path="url(#pcae4069108)" d="M 233.798701 314.79559 
L 182.597403 368.687639 
" style="fill:none;stroke:#000000;"/>
    <path clip-path="url(#pcae4069108)" d="M 233.798701 314.79559 
L 338.051948 328.674334 
" style="fill:none;stroke:#000000;"/>
    <path clip-path="url(#pcae4069108)" d="M 233.798701 314.79559 
L 281.298701 368.687639 
" style="fill:none;stroke:#000000;"/>
    <path clip-path="url(#pcae4069108)" d="M 330.649351 368.687639 
L 330.649351 381.818182 
" style="fill:none;stroke:#000000;"/>
    <path clip-path="url(#pcae4069108)" d="M 429.350649 368.687639 
L 429.350649 381.818182 
" style="fill:none;stroke:#000000;"/>
    <path clip-path="url(#pcae4069108)" d="M 34.545455 42.527183 
L 34.545455 65.868478 
" style="fill:none;stroke:#000000;"/>
    <path clip-path="url(#pcae4069108)" d="M 133.246753 368.687639 
L 133.246753 381.818182 
" style="fill:none;stroke:#000000;"/>
    <path clip-path="url(#pcae4069108)" d="M 182.597403 368.687639 
L 182.597403 381.818182 
" style="fill:none;stroke:#000000;"/>
    <path clip-path="url(#pcae4069108)" d="M 338.051948 328.674334 
L 231.948052 368.687639 
" style="fill:none;stroke:#000000;"/>
    <path clip-path="url(#pcae4069108)" d="M 338.051948 328.674334 
L 444.155844 342.243893 
" style="fill:none;stroke:#000000;"/>
    <path clip-path="url(#pcae4069108)" d="M 281.298701 368.687639 
L 281.298701 381.818182 
" style="fill:none;stroke:#000000;"/>
    <path clip-path="url(#pcae4069108)" d="M 34.545455 65.868478 
L 34.545455 88.263314 
" style="fill:none;stroke:#000000;"/>
    <path clip-path="url(#pcae4069108)" d="M 231.948052 368.687639 
L 231.948052 381.818182 
" style="fill:none;stroke:#000000;"/>
    <path clip-path="url(#pcae4069108)" d="M 444.155844 342.243893 
L 380 368.687639 
" style="fill:none;stroke:#000000;"/>
    <path clip-path="url(#pcae4069108)" d="M 444.155844 342.243893 
L 478.701299 368.687639 
" style="fill:none;stroke:#000000;"/>
    <path clip-path="url(#pcae4069108)" d="M 444.155844 342.243893 
L 602.077922 355.557096 
" style="fill:none;stroke:#000000;"/>
    <path clip-path="url(#pcae4069108)" d="M 444.155844 342.243893 
L 725.454545 368.687639 
" style="fill:none;stroke:#000000;"/>
    <path clip-path="url(#pcae4069108)" d="M 444.155844 342.243893 
L 34.545455 368.687639 
" style="fill:none;stroke:#000000;stroke-dasharray:3.7,1.6;stroke-dashoffset:0;"/>
    <path clip-path="url(#pcae4069108)" d="M 34.545455 88.263314 
L 34.545455 109.76614 
" style="fill:none;stroke:#000000;"/>
    <path clip-path="url(#pcae4069108)" d="M 380 368.687639 
L 380 381.818182 
" style="fill:none;stroke:#000000;"/>
    <path clip-path="url(#pcae4069108)" d="M 478.701299 368.687639 
L 478.701299 381.818182 
" style="fill:none;stroke:#000000;"/>
    <path clip-path="url(#pcae4069108)" d="M 602.077922 355.557096 
L 528.051948 368.687639 
" style="fill:none;stroke:#000000;"/>
    <path clip-path="url(#pcae4069108)" d="M 602.077922 355.557096 
L 577.402597 368.687639 
" style="fill:none;stroke:#000000;"/>
    <path clip-path="url(#pcae4069108)" d="M 602.077922 355.557096 
L 626.753247 368.687639 
" style="fill:none;stroke:#000000;"/>
    <path clip-path="url(#pcae4069108)" d="M 602.077922 355.557096 
L 676.103896 368.687639 
" style="fill:none;stroke:#000000;"/>
    <path clip-path="url(#pcae4069108)" d="M 725.454545 368.687639 
L 725.454545 381.818182 
" style="fill:none;stroke:#000000;"/>
    <path clip-path="url(#pcae4069108)" d="M 34.545455 109.76614 
L 34.545455 130.42849 
" style="fill:none;stroke:#000000;"/>
    <path clip-path="url(#pcae4069108)" d="M 528.051948 368.687639 
L 528.051948 381.818182 
" style="fill:none;stroke:#000000;"/>
    <path clip-path="url(#pcae4069108)" d="M 577.402597 368.687639 
L 577.402597 381.818182 
" style="fill:none;stroke:#000000;"/>
    <path clip-path="url(#pcae4069108)" d="M 626.753247 368.687639 
L 626.753247 381.818182 
" style="fill:none;stroke:#000000;"/>
    <path clip-path="url(#pcae4069108)" d="M 676.103896 368.687639 
L 676.103896 381.818182 
" style="fill:none;stroke:#000000;"/>
    <path clip-path="url(#pcae4069108)" d="M 34.545455 130.42849 
L 34.545455 150.29923 
" style="fill:none;stroke:#000000;"/>
    <path clip-path="url(#pcae4069108)" d="M 34.545455 150.29923 
L 34.545455 169.42479 
" style="fill:none;stroke:#000000;"/>
    <path clip-path="url(#pcae4069108)" d="M 34.545455 169.42479 
L 34.545455 187.849397 
" style="fill:none;stroke:#000000;"/>
    <path clip-path="url(#pcae4069108)" d="M 34.545455 187.849397 
L 34.545455 205.615314 
" style="fill:none;stroke:#000000;"/>
    <path clip-path="url(#pcae4069108)" d="M 34.545455 205.615314 
L 34.545455 222.763076 
" style="fill:none;stroke:#000000;"/>
    <path clip-path="url(#pcae4069108)" d="M 34.545455 222.763076 
L 34.545455 239.331756 
" style="fill:none;stroke:#000000;"/>
    <path clip-path="url(#pcae4069108)" d="M 34.545455 239.331756 
L 34.545455 255.359248 
" style="fill:none;stroke:#000000;"/>
    <path clip-path="url(#pcae4069108)" d="M 34.545455 255.359248 
L 34.545455 270.882606 
" style="fill:none;stroke:#000000;"/>
    <path clip-path="url(#pcae4069108)" d="M 34.545455 270.882606 
L 34.545455 285.93846 
" style="fill:none;stroke:#000000;"/>
    <path clip-path="url(#pcae4069108)" d="M 34.545455 285.93846 
L 34.545455 300.563566 
" style="fill:none;stroke:#000000;"/>
    <path clip-path="url(#pcae4069108)" d="M 34.545455 300.563566 
L 34.545455 314.79559 
" style="fill:none;stroke:#000000;"/>
    <path clip-path="url(#pcae4069108)" d="M 34.545455 314.79559 
L 34.545455 328.674334 
" style="fill:none;stroke:#000000;"/>
    <path clip-path="url(#pcae4069108)" d="M 34.545455 328.674334 
L 34.545455 342.243893 
" style="fill:none;stroke:#000000;"/>
    <path clip-path="url(#pcae4069108)" d="M 34.545455 342.243893 
L 34.545455 355.557096 
" style="fill:none;stroke:#000000;"/>
    <path clip-path="url(#pcae4069108)" d="M 34.545455 355.557096 
L 34.545455 368.687639 
" style="fill:none;stroke:#000000;"/>
    <path clip-path="url(#pcae4069108)" d="M 34.545455 368.687639 
L 34.545455 381.818182 
" style="fill:none;stroke:#000000;"/>
   </g>
   <g id="text_1">
    <g id="patch_2">
     <path clip-path="url(#pcae4069108)" d="M 131.882594 197.146517 
L 132.965376 192.674484 
Q 133.530152 190.341883 131.197551 189.777106 
L 123.672483 187.955115 
Q 121.339882 187.390339 120.775105 189.72294 
L 119.692324 194.194974 
Q 119.127547 196.527575 121.460148 197.092351 
L 128.985217 198.914342 
Q 131.317818 199.479118 131.882594 197.146517 
z
" style="fill:#ffffff;stroke:#ffffff;stroke-linejoin:miter;"/>
    </g>
    <g clip-path="url(#pcae4069108)">
     <!-- F -->
     <g transform="translate(127.932966 196.190222)rotate(-76.389313)scale(0.08 -0.08)">
      <defs>
       <path d="M 9.8125 72.90625 
L 51.703125 72.90625 
L 51.703125 64.59375 
L 19.671875 64.59375 
L 19.671875 43.109375 
L 48.578125 43.109375 
L 48.578125 34.8125 
L 19.671875 34.8125 
L 19.671875 0 
L 9.8125 0 
z
" id="DejaVuSans-70"/>
      </defs>
      <use xlink:href="#DejaVuSans-70"/>
     </g>
    </g>
   </g>
   <g id="text_2">
    <g id="patch_3">
     <path clip-path="url(#pcae4069108)" d="M 194.568382 165.159108 
L 195.740466 170.504618 
Q 196.254492 172.848925 198.598799 172.3349 
L 206.161633 170.676633 
Q 208.505941 170.162608 207.991915 167.8183 
L 206.819831 162.472791 
Q 206.305805 160.128483 203.961498 160.642508 
L 196.398664 162.300775 
Q 194.054356 162.814801 194.568382 165.159108 
z
" style="fill:#ffffff;stroke:#ffffff;stroke-linejoin:miter;"/>
    </g>
    <g clip-path="url(#pcae4069108)">
     <!-- A -->
     <g transform="translate(198.537831 164.288745)rotate(-282.36726)scale(0.08 -0.08)">
      <defs>
       <path d="M 34.1875 63.1875 
L 20.796875 26.90625 
L 47.609375 26.90625 
z
M 28.609375 72.90625 
L 39.796875 72.90625 
L 67.578125 0 
L 57.328125 0 
L 50.6875 18.703125 
L 17.828125 18.703125 
L 11.1875 0 
L 0.78125 0 
z
" id="DejaVuSans-65"/>
      </defs>
      <use xlink:href="#DejaVuSans-65"/>
     </g>
    </g>
   </g>
   <g id="text_3">
    <g id="patch_4">
     <path clip-path="url(#pcae4069108)" d="M 242.947375 193.758939 
L 245.076923 198.369658 
Q 246.083256 200.548486 248.262085 199.542153 
L 255.291076 196.29568 
Q 257.469904 195.289347 256.463571 193.110518 
L 254.334023 188.4998 
Q 253.32769 186.320971 251.148862 187.327304 
L 244.11987 190.573777 
Q 241.941042 191.58011 242.947375 193.758939 
z
" style="fill:#ffffff;stroke:#ffffff;stroke-linejoin:miter;"/>
    </g>
    <g clip-path="url(#pcae4069108)">
     <!-- S -->
     <g transform="translate(246.636631 192.054986)rotate(-294.790749)scale(0.08 -0.08)">
      <defs>
       <path d="M 53.515625 70.515625 
L 53.515625 60.890625 
Q 47.90625 63.578125 42.921875 64.890625 
Q 37.9375 66.21875 33.296875 66.21875 
Q 25.25 66.21875 20.875 63.09375 
Q 16.5 59.96875 16.5 54.203125 
Q 16.5 49.359375 19.40625 46.890625 
Q 22.3125 44.4375 30.421875 42.921875 
L 36.375 41.703125 
Q 47.40625 39.59375 52.65625 34.296875 
Q 57.90625 29 57.90625 20.125 
Q 57.90625 9.515625 50.796875 4.046875 
Q 43.703125 -1.421875 29.984375 -1.421875 
Q 24.8125 -1.421875 18.96875 -0.25 
Q 13.140625 0.921875 6.890625 3.21875 
L 6.890625 13.375 
Q 12.890625 10.015625 18.65625 8.296875 
Q 24.421875 6.59375 29.984375 6.59375 
Q 38.421875 6.59375 43.015625 9.90625 
Q 47.609375 13.234375 47.609375 19.390625 
Q 47.609375 24.75 44.3125 27.78125 
Q 41.015625 30.8125 33.5 32.328125 
L 27.484375 33.5 
Q 16.453125 35.6875 11.515625 40.375 
Q 6.59375 45.0625 6.59375 53.421875 
Q 6.59375 63.09375 13.40625 68.65625 
Q 20.21875 74.21875 32.171875 74.21875 
Q 37.3125 74.21875 42.625 73.28125 
Q 47.953125 72.359375 53.515625 70.515625 
z
" id="DejaVuSans-83"/>
      </defs>
      <use xlink:href="#DejaVuSans-83"/>
     </g>
    </g>
   </g>
   <g id="text_4">
    <g id="patch_5">
     <path clip-path="url(#pcae4069108)" d="M 292.584364 195.240845 
L 295.462399 199.111953 
Q 296.894332 201.037977 298.820356 199.606044 
L 305.03379 194.986569 
Q 306.959814 193.554636 305.527881 191.628612 
L 302.649845 187.757505 
Q 301.217913 185.831481 299.291889 187.263413 
L 293.078455 191.882888 
Q 291.152431 193.314821 292.584364 195.240845 
z
" style="fill:#ffffff;stroke:#ffffff;stroke-linejoin:miter;"/>
    </g>
    <g clip-path="url(#pcae4069108)">
     <!-- P -->
     <g transform="translate(295.845564 192.816255)rotate(-306.629537)scale(0.08 -0.08)">
      <defs>
       <path d="M 19.671875 64.796875 
L 19.671875 37.40625 
L 32.078125 37.40625 
Q 38.96875 37.40625 42.71875 40.96875 
Q 46.484375 44.53125 46.484375 51.125 
Q 46.484375 57.671875 42.71875 61.234375 
Q 38.96875 64.796875 32.078125 64.796875 
z
M 9.8125 72.90625 
L 32.078125 72.90625 
Q 44.34375 72.90625 50.609375 67.359375 
Q 56.890625 61.8125 56.890625 51.125 
Q 56.890625 40.328125 50.609375 34.8125 
Q 44.34375 29.296875 32.078125 29.296875 
L 19.671875 29.296875 
L 19.671875 0 
L 9.8125 0 
z
" id="DejaVuSans-80"/>
      </defs>
      <use xlink:href="#DejaVuSans-80"/>
     </g>
    </g>
   </g>
   <g id="text_5">
    <g id="patch_6">
     <path clip-path="url(#pcae4069108)" d="M 100.399648 36.955524 
L 105.145948 36.094596 
Q 107.507414 35.666252 107.07907 33.304786 
L 105.697212 25.686599 
Q 105.268868 23.325133 102.907402 23.753477 
L 98.161102 24.614405 
Q 95.799636 25.04275 96.22798 27.404215 
L 97.609838 35.022403 
Q 98.038182 37.383869 100.399648 36.955524 
z
" style="fill:#ffffff;stroke:#ffffff;stroke-linejoin:miter;"/>
    </g>
    <g clip-path="url(#pcae4069108)">
     <!-- P -->
     <g transform="translate(99.674363 32.957021)rotate(-10.281055)scale(0.08 -0.08)">
      <use xlink:href="#DejaVuSans-80"/>
     </g>
    </g>
   </g>
   <g id="text_6">
    <g id="patch_7">
     <path clip-path="url(#pcae4069108)" d="M 106.469148 191.730056 
L 108.492043 186.645161 
Q 109.379197 184.415148 107.149184 183.527995 
L 99.955069 180.666 
Q 97.725056 179.778846 96.837902 182.008859 
L 94.815007 187.093753 
Q 93.927853 189.323766 96.157866 190.21092 
L 103.351981 193.072915 
Q 105.581994 193.960069 106.469148 191.730056 
z
" style="fill:#ffffff;stroke:#ffffff;stroke-linejoin:miter;"/>
    </g>
    <g clip-path="url(#pcae4069108)">
     <!-- A -->
     <g transform="translate(102.693225 190.227901)rotate(-68.306127)scale(0.08 -0.08)">
      <use xlink:href="#DejaVuSans-65"/>
     </g>
    </g>
   </g>
   <g id="text_7">
    <g id="patch_8">
     <path clip-path="url(#pcae4069108)" d="M 106.531602 198.232645 
L 108.488571 193.122016 
Q 109.346812 190.880717 107.105513 190.022476 
L 99.874988 187.253754 
Q 97.633689 186.395513 96.775448 188.636812 
L 94.818479 193.747441 
Q 93.960238 195.98874 96.201537 196.846981 
L 103.432062 199.615703 
Q 105.673361 200.473944 106.531602 198.232645 
z
" style="fill:#ffffff;stroke:#ffffff;stroke-linejoin:miter;"/>
    </g>
    <g clip-path="url(#pcae4069108)">
     <!-- A -->
     <g transform="translate(102.736569 196.779446)rotate(-69.047093)scale(0.08 -0.08)">
      <use xlink:href="#DejaVuSans-65"/>
     </g>
    </g>
   </g>
   <g id="text_8">
    <g id="patch_9">
     <path clip-path="url(#pcae4069108)" d="M 77.624854 358.34916 
L 77.624854 392.15666 
Q 77.624854 394.55666 80.024854 394.55666 
L 87.767354 394.55666 
Q 90.167354 394.55666 90.167354 392.15666 
L 90.167354 358.34916 
Q 90.167354 355.94916 87.767354 355.94916 
L 80.024854 355.94916 
Q 77.624854 355.94916 77.624854 358.34916 
z
" style="fill:#ffffff;stroke:#ffffff;stroke-linejoin:miter;"/>
    </g>
    <g clip-path="url(#pcae4069108)">
     <!-- Terminal -->
     <g transform="translate(81.688604 358.34916)rotate(-270)scale(0.08 -0.08)">
      <defs>
       <path d="M -0.296875 72.90625 
L 61.375 72.90625 
L 61.375 64.59375 
L 35.5 64.59375 
L 35.5 0 
L 25.59375 0 
L 25.59375 64.59375 
L -0.296875 64.59375 
z
" id="DejaVuSans-84"/>
       <path d="M 56.203125 29.59375 
L 56.203125 25.203125 
L 14.890625 25.203125 
Q 15.484375 15.921875 20.484375 11.0625 
Q 25.484375 6.203125 34.421875 6.203125 
Q 39.59375 6.203125 44.453125 7.46875 
Q 49.3125 8.734375 54.109375 11.28125 
L 54.109375 2.78125 
Q 49.265625 0.734375 44.1875 -0.34375 
Q 39.109375 -1.421875 33.890625 -1.421875 
Q 20.796875 -1.421875 13.15625 6.1875 
Q 5.515625 13.8125 5.515625 26.8125 
Q 5.515625 40.234375 12.765625 48.109375 
Q 20.015625 56 32.328125 56 
Q 43.359375 56 49.78125 48.890625 
Q 56.203125 41.796875 56.203125 29.59375 
z
M 47.21875 32.234375 
Q 47.125 39.59375 43.09375 43.984375 
Q 39.0625 48.390625 32.421875 48.390625 
Q 24.90625 48.390625 20.390625 44.140625 
Q 15.875 39.890625 15.1875 32.171875 
z
" id="DejaVuSans-101"/>
       <path d="M 41.109375 46.296875 
Q 39.59375 47.171875 37.8125 47.578125 
Q 36.03125 48 33.890625 48 
Q 26.265625 48 22.1875 43.046875 
Q 18.109375 38.09375 18.109375 28.8125 
L 18.109375 0 
L 9.078125 0 
L 9.078125 54.6875 
L 18.109375 54.6875 
L 18.109375 46.1875 
Q 20.953125 51.171875 25.484375 53.578125 
Q 30.03125 56 36.53125 56 
Q 37.453125 56 38.578125 55.875 
Q 39.703125 55.765625 41.0625 55.515625 
z
" id="DejaVuSans-114"/>
       <path d="M 52 44.1875 
Q 55.375 50.25 60.0625 53.125 
Q 64.75 56 71.09375 56 
Q 79.640625 56 84.28125 50.015625 
Q 88.921875 44.046875 88.921875 33.015625 
L 88.921875 0 
L 79.890625 0 
L 79.890625 32.71875 
Q 79.890625 40.578125 77.09375 44.375 
Q 74.3125 48.1875 68.609375 48.1875 
Q 61.625 48.1875 57.5625 43.546875 
Q 53.515625 38.921875 53.515625 30.90625 
L 53.515625 0 
L 44.484375 0 
L 44.484375 32.71875 
Q 44.484375 40.625 41.703125 44.40625 
Q 38.921875 48.1875 33.109375 48.1875 
Q 26.21875 48.1875 22.15625 43.53125 
Q 18.109375 38.875 18.109375 30.90625 
L 18.109375 0 
L 9.078125 0 
L 9.078125 54.6875 
L 18.109375 54.6875 
L 18.109375 46.1875 
Q 21.1875 51.21875 25.484375 53.609375 
Q 29.78125 56 35.6875 56 
Q 41.65625 56 45.828125 52.96875 
Q 50 49.953125 52 44.1875 
z
" id="DejaVuSans-109"/>
       <path d="M 9.421875 54.6875 
L 18.40625 54.6875 
L 18.40625 0 
L 9.421875 0 
z
M 9.421875 75.984375 
L 18.40625 75.984375 
L 18.40625 64.59375 
L 9.421875 64.59375 
z
" id="DejaVuSans-105"/>
       <path d="M 54.890625 33.015625 
L 54.890625 0 
L 45.90625 0 
L 45.90625 32.71875 
Q 45.90625 40.484375 42.875 44.328125 
Q 39.84375 48.1875 33.796875 48.1875 
Q 26.515625 48.1875 22.3125 43.546875 
Q 18.109375 38.921875 18.109375 30.90625 
L 18.109375 0 
L 9.078125 0 
L 9.078125 54.6875 
L 18.109375 54.6875 
L 18.109375 46.1875 
Q 21.34375 51.125 25.703125 53.5625 
Q 30.078125 56 35.796875 56 
Q 45.21875 56 50.046875 50.171875 
Q 54.890625 44.34375 54.890625 33.015625 
z
" id="DejaVuSans-110"/>
       <path d="M 34.28125 27.484375 
Q 23.390625 27.484375 19.1875 25 
Q 14.984375 22.515625 14.984375 16.5 
Q 14.984375 11.71875 18.140625 8.90625 
Q 21.296875 6.109375 26.703125 6.109375 
Q 34.1875 6.109375 38.703125 11.40625 
Q 43.21875 16.703125 43.21875 25.484375 
L 43.21875 27.484375 
z
M 52.203125 31.203125 
L 52.203125 0 
L 43.21875 0 
L 43.21875 8.296875 
Q 40.140625 3.328125 35.546875 0.953125 
Q 30.953125 -1.421875 24.3125 -1.421875 
Q 15.921875 -1.421875 10.953125 3.296875 
Q 6 8.015625 6 15.921875 
Q 6 25.140625 12.171875 29.828125 
Q 18.359375 34.515625 30.609375 34.515625 
L 43.21875 34.515625 
L 43.21875 35.40625 
Q 43.21875 41.609375 39.140625 45 
Q 35.0625 48.390625 27.6875 48.390625 
Q 23 48.390625 18.546875 47.265625 
Q 14.109375 46.140625 10.015625 43.890625 
L 10.015625 52.203125 
Q 14.9375 54.109375 19.578125 55.046875 
Q 24.21875 56 28.609375 56 
Q 40.484375 56 46.34375 49.84375 
Q 52.203125 43.703125 52.203125 31.203125 
z
" id="DejaVuSans-97"/>
       <path d="M 9.421875 75.984375 
L 18.40625 75.984375 
L 18.40625 0 
L 9.421875 0 
z
" id="DejaVuSans-108"/>
      </defs>
      <use xlink:href="#DejaVuSans-84"/>
      <use x="44.083984" xlink:href="#DejaVuSans-101"/>
      <use x="105.607422" xlink:href="#DejaVuSans-114"/>
      <use x="144.970703" xlink:href="#DejaVuSans-109"/>
      <use x="242.382812" xlink:href="#DejaVuSans-105"/>
      <use x="270.166016" xlink:href="#DejaVuSans-110"/>
      <use x="333.544922" xlink:href="#DejaVuSans-97"/>
      <use x="394.824219" xlink:href="#DejaVuSans-108"/>
     </g>
    </g>
   </g>
   <g id="text_9">
    <g id="patch_10">
     <path clip-path="url(#pcae4069108)" d="M 184.2575 348.462994 
L 188.712921 346.075056 
Q 190.828255 344.941317 189.694516 342.825984 
L 186.037027 336.00183 
Q 184.903288 333.886496 182.787954 335.020235 
L 178.332533 337.408173 
Q 176.2172 338.541912 177.350939 340.657245 
L 181.008428 347.481399 
Q 182.142167 349.596733 184.2575 348.462994 
z
" style="fill:#ffffff;stroke:#ffffff;stroke-linejoin:miter;"/>
    </g>
    <g clip-path="url(#pcae4069108)">
     <!-- E -->
     <g transform="translate(182.33782 344.88125)rotate(-28.189628)scale(0.08 -0.08)">
      <defs>
       <path d="M 9.8125 72.90625 
L 55.90625 72.90625 
L 55.90625 64.59375 
L 19.671875 64.59375 
L 19.671875 43.015625 
L 54.390625 43.015625 
L 54.390625 34.71875 
L 19.671875 34.71875 
L 19.671875 8.296875 
L 56.78125 8.296875 
L 56.78125 0 
L 9.8125 0 
z
" id="DejaVuSans-69"/>
      </defs>
      <use xlink:href="#DejaVuSans-69"/>
     </g>
    </g>
   </g>
   <g id="text_10">
    <g id="patch_11">
     <path clip-path="url(#pcae4069108)" d="M 211.003659 347.893476 
L 214.485425 344.228735 
Q 216.13849 342.488798 214.398553 340.835734 
L 208.785445 335.502881 
Q 207.045509 333.849817 205.392445 335.589753 
L 201.910678 339.254494 
Q 200.257614 340.994431 201.997551 342.647495 
L 207.610659 347.980349 
Q 209.350595 349.633413 211.003659 347.893476 
z
" style="fill:#ffffff;stroke:#ffffff;stroke-linejoin:miter;"/>
    </g>
    <g clip-path="url(#pcae4069108)">
     <!-- E -->
     <g transform="translate(208.057548 345.09446)rotate(-46.466648)scale(0.08 -0.08)">
      <use xlink:href="#DejaVuSans-69"/>
     </g>
    </g>
   </g>
   <g id="text_11">
    <g id="patch_12">
     <path clip-path="url(#pcae4069108)" d="M 282.592367 327.617838 
L 287.60316 328.284901 
Q 289.982172 328.601608 290.298879 326.222596 
L 291.320588 318.547805 
Q 291.637294 316.168793 289.258282 315.852087 
L 284.247489 315.185023 
Q 281.868477 314.868317 281.551771 317.247328 
L 280.530062 324.922119 
Q 280.213355 327.301131 282.592367 327.617838 
z
" style="fill:#ffffff;stroke:#ffffff;stroke-linejoin:miter;"/>
    </g>
    <g clip-path="url(#pcae4069108)">
     <!-- E -->
     <g transform="translate(283.128624 323.589626)rotate(-352.417068)scale(0.08 -0.08)">
      <use xlink:href="#DejaVuSans-69"/>
     </g>
    </g>
   </g>
   <g id="text_12">
    <g id="patch_13">
     <path clip-path="url(#pcae4069108)" d="M 251.00627 343.803191 
L 254.681805 347.97334 
Q 256.268723 349.77381 258.069193 348.186891 
L 263.877582 343.067426 
Q 265.678051 341.480507 264.091132 339.680038 
L 260.415598 335.509889 
Q 258.828679 333.709419 257.02821 335.296338 
L 251.219821 340.415803 
Q 249.419352 342.002722 251.00627 343.803191 
z
" style="fill:#ffffff;stroke:#ffffff;stroke-linejoin:miter;"/>
    </g>
    <g clip-path="url(#pcae4069108)">
     <!-- R -->
     <g transform="translate(254.054877 341.116174)rotate(-311.392682)scale(0.08 -0.08)">
      <defs>
       <path d="M 44.390625 34.1875 
Q 47.5625 33.109375 50.5625 29.59375 
Q 53.5625 26.078125 56.59375 19.921875 
L 66.609375 0 
L 56 0 
L 46.6875 18.703125 
Q 43.0625 26.03125 39.671875 28.421875 
Q 36.28125 30.8125 30.421875 30.8125 
L 19.671875 30.8125 
L 19.671875 0 
L 9.8125 0 
L 9.8125 72.90625 
L 32.078125 72.90625 
Q 44.578125 72.90625 50.734375 67.671875 
Q 56.890625 62.453125 56.890625 51.90625 
Q 56.890625 45.015625 53.6875 40.46875 
Q 50.484375 35.9375 44.390625 34.1875 
z
M 19.671875 64.796875 
L 19.671875 38.921875 
L 32.078125 38.921875 
Q 39.203125 38.921875 42.84375 42.21875 
Q 46.484375 45.515625 46.484375 51.90625 
Q 46.484375 58.296875 42.84375 61.546875 
Q 39.203125 64.796875 32.078125 64.796875 
z
" id="DejaVuSans-82"/>
      </defs>
      <use xlink:href="#DejaVuSans-82"/>
     </g>
    </g>
   </g>
   <g id="text_13">
    <g id="patch_14">
     <path clip-path="url(#pcae4069108)" d="M 324.378101 358.34916 
L 324.378101 392.15666 
Q 324.378101 394.55666 326.778101 394.55666 
L 334.520601 394.55666 
Q 336.920601 394.55666 336.920601 392.15666 
L 336.920601 358.34916 
Q 336.920601 355.94916 334.520601 355.94916 
L 326.778101 355.94916 
Q 324.378101 355.94916 324.378101 358.34916 
z
" style="fill:#ffffff;stroke:#ffffff;stroke-linejoin:miter;"/>
    </g>
    <g clip-path="url(#pcae4069108)">
     <!-- Terminal -->
     <g transform="translate(328.441851 358.34916)rotate(-270)scale(0.08 -0.08)">
      <use xlink:href="#DejaVuSans-84"/>
      <use x="44.083984" xlink:href="#DejaVuSans-101"/>
      <use x="105.607422" xlink:href="#DejaVuSans-114"/>
      <use x="144.970703" xlink:href="#DejaVuSans-109"/>
      <use x="242.382812" xlink:href="#DejaVuSans-105"/>
      <use x="270.166016" xlink:href="#DejaVuSans-110"/>
      <use x="333.544922" xlink:href="#DejaVuSans-97"/>
      <use x="394.824219" xlink:href="#DejaVuSans-108"/>
     </g>
    </g>
   </g>
   <g id="text_14">
    <g id="patch_15">
     <path clip-path="url(#pcae4069108)" d="M 423.079399 358.34916 
L 423.079399 392.15666 
Q 423.079399 394.55666 425.479399 394.55666 
L 433.221899 394.55666 
Q 435.621899 394.55666 435.621899 392.15666 
L 435.621899 358.34916 
Q 435.621899 355.94916 433.221899 355.94916 
L 425.479399 355.94916 
Q 423.079399 355.94916 423.079399 358.34916 
z
" style="fill:#ffffff;stroke:#ffffff;stroke-linejoin:miter;"/>
    </g>
    <g clip-path="url(#pcae4069108)">
     <!-- Terminal -->
     <g transform="translate(427.143149 358.34916)rotate(-270)scale(0.08 -0.08)">
      <use xlink:href="#DejaVuSans-84"/>
      <use x="44.083984" xlink:href="#DejaVuSans-101"/>
      <use x="105.607422" xlink:href="#DejaVuSans-114"/>
      <use x="144.970703" xlink:href="#DejaVuSans-109"/>
      <use x="242.382812" xlink:href="#DejaVuSans-105"/>
      <use x="270.166016" xlink:href="#DejaVuSans-110"/>
      <use x="333.544922" xlink:href="#DejaVuSans-97"/>
      <use x="394.824219" xlink:href="#DejaVuSans-108"/>
     </g>
    </g>
   </g>
   <g id="text_15">
    <g id="patch_16">
     <path clip-path="url(#pcae4069108)" d="M 28.274205 51.785955 
L 28.274205 56.609705 
Q 28.274205 59.009705 30.674205 59.009705 
L 38.416705 59.009705 
Q 40.816705 59.009705 40.816705 56.609705 
L 40.816705 51.785955 
Q 40.816705 49.385955 38.416705 49.385955 
L 30.674205 49.385955 
Q 28.274205 49.385955 28.274205 51.785955 
z
" style="fill:#ffffff;stroke:#ffffff;stroke-linejoin:miter;"/>
    </g>
    <g clip-path="url(#pcae4069108)">
     <!-- P -->
     <g transform="translate(32.337955 51.785955)rotate(-270)scale(0.08 -0.08)">
      <use xlink:href="#DejaVuSans-80"/>
     </g>
    </g>
   </g>
   <g id="text_16">
    <g id="patch_17">
     <path clip-path="url(#pcae4069108)" d="M 126.975503 358.34916 
L 126.975503 392.15666 
Q 126.975503 394.55666 129.375503 394.55666 
L 137.118003 394.55666 
Q 139.518003 394.55666 139.518003 392.15666 
L 139.518003 358.34916 
Q 139.518003 355.94916 137.118003 355.94916 
L 129.375503 355.94916 
Q 126.975503 355.94916 126.975503 358.34916 
z
" style="fill:#ffffff;stroke:#ffffff;stroke-linejoin:miter;"/>
    </g>
    <g clip-path="url(#pcae4069108)">
     <!-- Terminal -->
     <g transform="translate(131.039253 358.34916)rotate(-270)scale(0.08 -0.08)">
      <use xlink:href="#DejaVuSans-84"/>
      <use x="44.083984" xlink:href="#DejaVuSans-101"/>
      <use x="105.607422" xlink:href="#DejaVuSans-114"/>
      <use x="144.970703" xlink:href="#DejaVuSans-109"/>
      <use x="242.382812" xlink:href="#DejaVuSans-105"/>
      <use x="270.166016" xlink:href="#DejaVuSans-110"/>
      <use x="333.544922" xlink:href="#DejaVuSans-97"/>
      <use x="394.824219" xlink:href="#DejaVuSans-108"/>
     </g>
    </g>
   </g>
   <g id="text_17">
    <g id="patch_18">
     <path clip-path="url(#pcae4069108)" d="M 176.326153 358.34916 
L 176.326153 392.15666 
Q 176.326153 394.55666 178.726153 394.55666 
L 186.468653 394.55666 
Q 188.868653 394.55666 188.868653 392.15666 
L 188.868653 358.34916 
Q 188.868653 355.94916 186.468653 355.94916 
L 178.726153 355.94916 
Q 176.326153 355.94916 176.326153 358.34916 
z
" style="fill:#ffffff;stroke:#ffffff;stroke-linejoin:miter;"/>
    </g>
    <g clip-path="url(#pcae4069108)">
     <!-- Terminal -->
     <g transform="translate(180.389903 358.34916)rotate(-270)scale(0.08 -0.08)">
      <use xlink:href="#DejaVuSans-84"/>
      <use x="44.083984" xlink:href="#DejaVuSans-101"/>
      <use x="105.607422" xlink:href="#DejaVuSans-114"/>
      <use x="144.970703" xlink:href="#DejaVuSans-109"/>
      <use x="242.382812" xlink:href="#DejaVuSans-105"/>
      <use x="270.166016" xlink:href="#DejaVuSans-110"/>
      <use x="333.544922" xlink:href="#DejaVuSans-97"/>
      <use x="394.824219" xlink:href="#DejaVuSans-108"/>
     </g>
    </g>
   </g>
   <g id="text_18">
    <g id="patch_19">
     <path clip-path="url(#pcae4069108)" d="M 284.599393 355.534427 
L 289.82632 353.563277 
Q 292.071945 352.71642 291.225087 350.470795 
L 288.49309 343.226314 
Q 287.646232 340.980689 285.400607 341.827547 
L 280.17368 343.798696 
Q 277.928055 344.645554 278.774913 346.891179 
L 281.50691 354.135659 
Q 282.353768 356.381284 284.599393 355.534427 
z
" style="fill:#ffffff;stroke:#ffffff;stroke-linejoin:miter;"/>
    </g>
    <g clip-path="url(#pcae4069108)">
     <!-- C -->
     <g transform="translate(283.165469 351.732069)rotate(-20.662181)scale(0.08 -0.08)">
      <defs>
       <path d="M 64.40625 67.28125 
L 64.40625 56.890625 
Q 59.421875 61.53125 53.78125 63.8125 
Q 48.140625 66.109375 41.796875 66.109375 
Q 29.296875 66.109375 22.65625 58.46875 
Q 16.015625 50.828125 16.015625 36.375 
Q 16.015625 21.96875 22.65625 14.328125 
Q 29.296875 6.6875 41.796875 6.6875 
Q 48.140625 6.6875 53.78125 8.984375 
Q 59.421875 11.28125 64.40625 15.921875 
L 64.40625 5.609375 
Q 59.234375 2.09375 53.4375 0.328125 
Q 47.65625 -1.421875 41.21875 -1.421875 
Q 24.65625 -1.421875 15.125 8.703125 
Q 5.609375 18.84375 5.609375 36.375 
Q 5.609375 53.953125 15.125 64.078125 
Q 24.65625 74.21875 41.21875 74.21875 
Q 47.75 74.21875 53.53125 72.484375 
Q 59.328125 70.75 64.40625 67.28125 
z
" id="DejaVuSans-67"/>
      </defs>
      <use xlink:href="#DejaVuSans-67"/>
     </g>
    </g>
   </g>
   <g id="text_19">
    <g id="patch_20">
     <path clip-path="url(#pcae4069108)" d="M 387.594205 341.332589 
L 393.022494 342.026809 
Q 395.403104 342.331264 395.707559 339.950653 
L 396.689743 332.270704 
Q 396.994198 329.890093 394.613587 329.585639 
L 389.185299 328.891418 
Q 386.804688 328.586964 386.500233 330.967574 
L 385.518049 338.647524 
Q 385.213595 341.028134 387.594205 341.332589 
z
" style="fill:#ffffff;stroke:#ffffff;stroke-linejoin:miter;"/>
    </g>
    <g clip-path="url(#pcae4069108)">
     <!-- A -->
     <g transform="translate(388.109717 337.30167)rotate(-352.712041)scale(0.08 -0.08)">
      <use xlink:href="#DejaVuSans-65"/>
     </g>
    </g>
   </g>
   <g id="text_20">
    <g id="patch_21">
     <path clip-path="url(#pcae4069108)" d="M 275.027451 358.34916 
L 275.027451 392.15666 
Q 275.027451 394.55666 277.427451 394.55666 
L 285.169951 394.55666 
Q 287.569951 394.55666 287.569951 392.15666 
L 287.569951 358.34916 
Q 287.569951 355.94916 285.169951 355.94916 
L 277.427451 355.94916 
Q 275.027451 355.94916 275.027451 358.34916 
z
" style="fill:#ffffff;stroke:#ffffff;stroke-linejoin:miter;"/>
    </g>
    <g clip-path="url(#pcae4069108)">
     <!-- Terminal -->
     <g transform="translate(279.091201 358.34916)rotate(-270)scale(0.08 -0.08)">
      <use xlink:href="#DejaVuSans-84"/>
      <use x="44.083984" xlink:href="#DejaVuSans-101"/>
      <use x="105.607422" xlink:href="#DejaVuSans-114"/>
      <use x="144.970703" xlink:href="#DejaVuSans-109"/>
      <use x="242.382812" xlink:href="#DejaVuSans-105"/>
      <use x="270.166016" xlink:href="#DejaVuSans-110"/>
      <use x="333.544922" xlink:href="#DejaVuSans-97"/>
      <use x="394.824219" xlink:href="#DejaVuSans-108"/>
     </g>
    </g>
   </g>
   <g id="text_21">
    <g id="patch_22">
     <path clip-path="url(#pcae4069108)" d="M 28.274205 74.654021 
L 28.274205 79.477771 
Q 28.274205 81.877771 30.674205 81.877771 
L 38.416705 81.877771 
Q 40.816705 81.877771 40.816705 79.477771 
L 40.816705 74.654021 
Q 40.816705 72.254021 38.416705 72.254021 
L 30.674205 72.254021 
Q 28.274205 72.254021 28.274205 74.654021 
z
" style="fill:#ffffff;stroke:#ffffff;stroke-linejoin:miter;"/>
    </g>
    <g clip-path="url(#pcae4069108)">
     <!-- P -->
     <g transform="translate(32.337955 74.654021)rotate(-270)scale(0.08 -0.08)">
      <use xlink:href="#DejaVuSans-80"/>
     </g>
    </g>
   </g>
   <g id="text_22">
    <g id="patch_23">
     <path clip-path="url(#pcae4069108)" d="M 225.676802 358.34916 
L 225.676802 392.15666 
Q 225.676802 394.55666 228.076802 394.55666 
L 235.819302 394.55666 
Q 238.219302 394.55666 238.219302 392.15666 
L 238.219302 358.34916 
Q 238.219302 355.94916 235.819302 355.94916 
L 228.076802 355.94916 
Q 225.676802 355.94916 225.676802 358.34916 
z
" style="fill:#ffffff;stroke:#ffffff;stroke-linejoin:miter;"/>
    </g>
    <g clip-path="url(#pcae4069108)">
     <!-- Terminal -->
     <g transform="translate(229.740552 358.34916)rotate(-270)scale(0.08 -0.08)">
      <use xlink:href="#DejaVuSans-84"/>
      <use x="44.083984" xlink:href="#DejaVuSans-101"/>
      <use x="105.607422" xlink:href="#DejaVuSans-114"/>
      <use x="144.970703" xlink:href="#DejaVuSans-109"/>
      <use x="242.382812" xlink:href="#DejaVuSans-105"/>
      <use x="270.166016" xlink:href="#DejaVuSans-110"/>
      <use x="333.544922" xlink:href="#DejaVuSans-97"/>
      <use x="394.824219" xlink:href="#DejaVuSans-108"/>
     </g>
    </g>
   </g>
   <g id="text_23">
    <g id="patch_24">
     <path clip-path="url(#pcae4069108)" d="M 412.340731 362.140523 
L 416.594784 360.387088 
Q 418.813687 359.472501 417.8991 357.253598 
L 414.948604 350.095325 
Q 414.034016 347.876422 411.815114 348.791009 
L 407.56106 350.544444 
Q 405.342157 351.459031 406.256745 353.677934 
L 409.207241 360.836207 
Q 410.121828 363.05511 412.340731 362.140523 
z
" style="fill:#ffffff;stroke:#ffffff;stroke-linejoin:miter;"/>
    </g>
    <g clip-path="url(#pcae4069108)">
     <!-- F -->
     <g transform="translate(410.792125 358.383412)rotate(-22.40047)scale(0.08 -0.08)">
      <use xlink:href="#DejaVuSans-70"/>
     </g>
    </g>
   </g>
   <g id="text_24">
    <g id="patch_25">
     <path clip-path="url(#pcae4069108)" d="M 455.701499 358.979504 
L 459.531857 361.911555 
Q 461.437607 363.370362 462.896414 361.464612 
L 467.602587 355.316585 
Q 469.061394 353.410835 467.155644 351.952028 
L 463.325286 349.019977 
Q 461.419536 347.56117 459.960729 349.46692 
L 455.254556 355.614947 
Q 453.795749 357.520697 455.701499 358.979504 
z
" style="fill:#ffffff;stroke:#ffffff;stroke-linejoin:miter;"/>
    </g>
    <g clip-path="url(#pcae4069108)">
     <!-- P -->
     <g transform="translate(458.171594 355.752633)rotate(-322.56678)scale(0.08 -0.08)">
      <use xlink:href="#DejaVuSans-80"/>
     </g>
    </g>
   </g>
   <g id="text_25">
    <g id="patch_26">
     <path clip-path="url(#pcae4069108)" d="M 519.863492 354.919721 
L 525.316649 355.379435 
Q 527.708166 355.581046 527.909777 353.189529 
L 528.56018 345.474396 
Q 528.761791 343.082879 526.370274 342.881268 
L 520.917117 342.421554 
Q 518.5256 342.219944 518.32399 344.611461 
L 517.673586 352.326594 
Q 517.471975 354.718111 519.863492 354.919721 
z
" style="fill:#ffffff;stroke:#ffffff;stroke-linejoin:miter;"/>
    </g>
    <g clip-path="url(#pcae4069108)">
     <!-- A -->
     <g transform="translate(520.204865 350.870335)rotate(-355.181225)scale(0.08 -0.08)">
      <use xlink:href="#DejaVuSans-65"/>
     </g>
    </g>
   </g>
   <g id="text_26">
    <g id="patch_27">
     <path clip-path="url(#pcae4069108)" d="M 581.303598 361.435494 
L 587.132898 361.983483 
Q 589.522363 362.208107 589.746987 359.818642 
L 590.471633 352.110127 
Q 590.696257 349.720662 588.306792 349.496038 
L 582.477492 348.948049 
Q 580.088027 348.723425 579.863403 351.112891 
L 579.138757 358.821405 
Q 578.914133 361.21087 581.303598 361.435494 
z
" style="fill:#ffffff;stroke:#ffffff;stroke-linejoin:miter;"/>
    </g>
    <g clip-path="url(#pcae4069108)">
     <!-- U -->
     <g transform="translate(581.683938 357.389582)rotate(-354.629639)scale(0.08 -0.08)">
      <defs>
       <path d="M 8.6875 72.90625 
L 18.609375 72.90625 
L 18.609375 28.609375 
Q 18.609375 16.890625 22.84375 11.734375 
Q 27.09375 6.59375 36.625 6.59375 
Q 46.09375 6.59375 50.34375 11.734375 
Q 54.59375 16.890625 54.59375 28.609375 
L 54.59375 72.90625 
L 64.5 72.90625 
L 64.5 27.390625 
Q 64.5 13.140625 57.4375 5.859375 
Q 50.390625 -1.421875 36.625 -1.421875 
Q 22.796875 -1.421875 15.734375 5.859375 
Q 8.6875 13.140625 8.6875 27.390625 
z
" id="DejaVuSans-85"/>
      </defs>
      <use xlink:href="#DejaVuSans-85"/>
     </g>
    </g>
   </g>
   <g id="text_27">
    <g id="patch_28">
     <path clip-path="url(#pcae4069108)" d="M 237.024104 361.900269 
L 242.485235 361.547708 
Q 244.880249 361.39309 244.725631 358.998075 
L 244.226827 351.27166 
Q 244.072209 348.876645 241.677195 349.031263 
L 236.216064 349.383825 
Q 233.821049 349.538443 233.975667 351.933457 
L 234.474471 359.659873 
Q 234.629089 362.054887 237.024104 361.900269 
z
" style="fill:#ffffff;stroke:#ffffff;stroke-linejoin:miter;"/>
    </g>
    <g clip-path="url(#pcae4069108)">
     <!-- A -->
     <g transform="translate(236.7623 357.844961)rotate(-3.693792)scale(0.08 -0.08)">
      <use xlink:href="#DejaVuSans-65"/>
     </g>
    </g>
   </g>
   <g id="text_28">
    <g id="patch_29">
     <path clip-path="url(#pcae4069108)" d="M 28.274205 96.602852 
L 28.274205 101.426602 
Q 28.274205 103.826602 30.674205 103.826602 
L 38.416705 103.826602 
Q 40.816705 103.826602 40.816705 101.426602 
L 40.816705 96.602852 
Q 40.816705 94.202852 38.416705 94.202852 
L 30.674205 94.202852 
Q 28.274205 94.202852 28.274205 96.602852 
z
" style="fill:#ffffff;stroke:#ffffff;stroke-linejoin:miter;"/>
    </g>
    <g clip-path="url(#pcae4069108)">
     <!-- P -->
     <g transform="translate(32.337955 96.602852)rotate(-270)scale(0.08 -0.08)">
      <use xlink:href="#DejaVuSans-80"/>
     </g>
    </g>
   </g>
   <g id="text_29">
    <g id="patch_30">
     <path clip-path="url(#pcae4069108)" d="M 373.72875 358.34916 
L 373.72875 392.15666 
Q 373.72875 394.55666 376.12875 394.55666 
L 383.87125 394.55666 
Q 386.27125 394.55666 386.27125 392.15666 
L 386.27125 358.34916 
Q 386.27125 355.94916 383.87125 355.94916 
L 376.12875 355.94916 
Q 373.72875 355.94916 373.72875 358.34916 
z
" style="fill:#ffffff;stroke:#ffffff;stroke-linejoin:miter;"/>
    </g>
    <g clip-path="url(#pcae4069108)">
     <!-- Terminal -->
     <g transform="translate(377.7925 358.34916)rotate(-270)scale(0.08 -0.08)">
      <use xlink:href="#DejaVuSans-84"/>
      <use x="44.083984" xlink:href="#DejaVuSans-101"/>
      <use x="105.607422" xlink:href="#DejaVuSans-114"/>
      <use x="144.970703" xlink:href="#DejaVuSans-109"/>
      <use x="242.382812" xlink:href="#DejaVuSans-105"/>
      <use x="270.166016" xlink:href="#DejaVuSans-110"/>
      <use x="333.544922" xlink:href="#DejaVuSans-97"/>
      <use x="394.824219" xlink:href="#DejaVuSans-108"/>
     </g>
    </g>
   </g>
   <g id="text_30">
    <g id="patch_31">
     <path clip-path="url(#pcae4069108)" d="M 472.430049 358.34916 
L 472.430049 392.15666 
Q 472.430049 394.55666 474.830049 394.55666 
L 482.572549 394.55666 
Q 484.972549 394.55666 484.972549 392.15666 
L 484.972549 358.34916 
Q 484.972549 355.94916 482.572549 355.94916 
L 474.830049 355.94916 
Q 472.430049 355.94916 472.430049 358.34916 
z
" style="fill:#ffffff;stroke:#ffffff;stroke-linejoin:miter;"/>
    </g>
    <g clip-path="url(#pcae4069108)">
     <!-- Terminal -->
     <g transform="translate(476.493799 358.34916)rotate(-270)scale(0.08 -0.08)">
      <use xlink:href="#DejaVuSans-84"/>
      <use x="44.083984" xlink:href="#DejaVuSans-101"/>
      <use x="105.607422" xlink:href="#DejaVuSans-114"/>
      <use x="144.970703" xlink:href="#DejaVuSans-109"/>
      <use x="242.382812" xlink:href="#DejaVuSans-105"/>
      <use x="270.166016" xlink:href="#DejaVuSans-110"/>
      <use x="333.544922" xlink:href="#DejaVuSans-97"/>
      <use x="394.824219" xlink:href="#DejaVuSans-108"/>
     </g>
    </g>
   </g>
   <g id="text_31">
    <g id="patch_32">
     <path clip-path="url(#pcae4069108)" d="M 563.671564 368.738662 
L 568.64887 367.8558 
Q 571.011983 367.436637 570.59282 365.073524 
L 569.240582 357.450023 
Q 568.821419 355.08691 566.458306 355.506073 
L 561.481 356.388936 
Q 559.117887 356.808099 559.53705 359.171212 
L 560.889288 366.794712 
Q 561.308451 369.157825 563.671564 368.738662 
z
" style="fill:#ffffff;stroke:#ffffff;stroke-linejoin:miter;"/>
    </g>
    <g clip-path="url(#pcae4069108)">
     <!-- E -->
     <g transform="translate(562.961825 364.73737)rotate(-10.058365)scale(0.08 -0.08)">
      <use xlink:href="#DejaVuSans-69"/>
     </g>
    </g>
   </g>
   <g id="text_32">
    <g id="patch_33">
     <path clip-path="url(#pcae4069108)" d="M 590.220509 368.970688 
L 595.15201 366.346476 
Q 597.270712 365.219045 596.143282 363.100342 
L 592.506144 356.26532 
Q 591.378713 354.146617 589.260011 355.274048 
L 584.32851 357.89826 
Q 582.209807 359.02569 583.337238 361.144393 
L 586.974376 367.979416 
Q 588.101806 370.098118 590.220509 368.970688 
z
" style="fill:#ffffff;stroke:#ffffff;stroke-linejoin:miter;"/>
    </g>
    <g clip-path="url(#pcae4069108)">
     <!-- C -->
     <g transform="translate(588.311511 365.383239)rotate(-28.018895)scale(0.08 -0.08)">
      <use xlink:href="#DejaVuSans-67"/>
     </g>
    </g>
   </g>
   <g id="text_33">
    <g id="patch_34">
     <path clip-path="url(#pcae4069108)" d="M 609.003835 366.346476 
L 613.935335 368.970688 
Q 616.054038 370.098118 617.181468 367.979416 
L 620.818606 361.144393 
Q 621.946037 359.02569 619.827334 357.89826 
L 614.895833 355.274048 
Q 612.777131 354.146617 611.6497 356.26532 
L 608.012563 363.100342 
Q 606.885132 365.219045 609.003835 366.346476 
z
" style="fill:#ffffff;stroke:#ffffff;stroke-linejoin:miter;"/>
    </g>
    <g clip-path="url(#pcae4069108)">
     <!-- C -->
     <g transform="translate(610.912833 362.759027)rotate(-331.981105)scale(0.08 -0.08)">
      <use xlink:href="#DejaVuSans-67"/>
     </g>
    </g>
   </g>
   <g id="text_34">
    <g id="patch_35">
     <path clip-path="url(#pcae4069108)" d="M 635.245432 367.809408 
L 640.745823 368.785054 
Q 643.108936 369.204217 643.528099 366.841104 
L 644.880336 359.217603 
Q 645.299499 356.85449 642.936387 356.435327 
L 637.435995 355.459682 
Q 635.072882 355.040519 634.653719 357.403632 
L 633.301482 365.027132 
Q 632.882319 367.390245 635.245432 367.809408 
z
" style="fill:#ffffff;stroke:#ffffff;stroke-linejoin:miter;"/>
    </g>
    <g clip-path="url(#pcae4069108)">
     <!-- C -->
     <g transform="translate(635.955171 363.808116)rotate(-349.941635)scale(0.08 -0.08)">
      <use xlink:href="#DejaVuSans-67"/>
     </g>
    </g>
   </g>
   <g id="text_35">
    <g id="patch_36">
     <path clip-path="url(#pcae4069108)" d="M 719.183295 358.34916 
L 719.183295 392.15666 
Q 719.183295 394.55666 721.583295 394.55666 
L 729.325795 394.55666 
Q 731.725795 394.55666 731.725795 392.15666 
L 731.725795 358.34916 
Q 731.725795 355.94916 729.325795 355.94916 
L 721.583295 355.94916 
Q 719.183295 355.94916 719.183295 358.34916 
z
" style="fill:#ffffff;stroke:#ffffff;stroke-linejoin:miter;"/>
    </g>
    <g clip-path="url(#pcae4069108)">
     <!-- Terminal -->
     <g transform="translate(723.247045 358.34916)rotate(-270)scale(0.08 -0.08)">
      <use xlink:href="#DejaVuSans-84"/>
      <use x="44.083984" xlink:href="#DejaVuSans-101"/>
      <use x="105.607422" xlink:href="#DejaVuSans-114"/>
      <use x="144.970703" xlink:href="#DejaVuSans-109"/>
      <use x="242.382812" xlink:href="#DejaVuSans-105"/>
      <use x="270.166016" xlink:href="#DejaVuSans-110"/>
      <use x="333.544922" xlink:href="#DejaVuSans-97"/>
      <use x="394.824219" xlink:href="#DejaVuSans-108"/>
     </g>
    </g>
   </g>
   <g id="text_36">
    <g id="patch_37">
     <path clip-path="url(#pcae4069108)" d="M 28.274205 117.68544 
L 28.274205 122.50919 
Q 28.274205 124.90919 30.674205 124.90919 
L 38.416705 124.90919 
Q 40.816705 124.90919 40.816705 122.50919 
L 40.816705 117.68544 
Q 40.816705 115.28544 38.416705 115.28544 
L 30.674205 115.28544 
Q 28.274205 115.28544 28.274205 117.68544 
z
" style="fill:#ffffff;stroke:#ffffff;stroke-linejoin:miter;"/>
    </g>
    <g clip-path="url(#pcae4069108)">
     <!-- P -->
     <g transform="translate(32.337955 117.68544)rotate(-270)scale(0.08 -0.08)">
      <use xlink:href="#DejaVuSans-80"/>
     </g>
    </g>
   </g>
   <g id="text_37">
    <g id="patch_38">
     <path clip-path="url(#pcae4069108)" d="M 521.780698 358.34916 
L 521.780698 392.15666 
Q 521.780698 394.55666 524.180698 394.55666 
L 531.923198 394.55666 
Q 534.323198 394.55666 534.323198 392.15666 
L 534.323198 358.34916 
Q 534.323198 355.94916 531.923198 355.94916 
L 524.180698 355.94916 
Q 521.780698 355.94916 521.780698 358.34916 
z
" style="fill:#ffffff;stroke:#ffffff;stroke-linejoin:miter;"/>
    </g>
    <g clip-path="url(#pcae4069108)">
     <!-- Terminal -->
     <g transform="translate(525.844448 358.34916)rotate(-270)scale(0.08 -0.08)">
      <use xlink:href="#DejaVuSans-84"/>
      <use x="44.083984" xlink:href="#DejaVuSans-101"/>
      <use x="105.607422" xlink:href="#DejaVuSans-114"/>
      <use x="144.970703" xlink:href="#DejaVuSans-109"/>
      <use x="242.382812" xlink:href="#DejaVuSans-105"/>
      <use x="270.166016" xlink:href="#DejaVuSans-110"/>
      <use x="333.544922" xlink:href="#DejaVuSans-97"/>
      <use x="394.824219" xlink:href="#DejaVuSans-108"/>
     </g>
    </g>
   </g>
   <g id="text_38">
    <g id="patch_39">
     <path clip-path="url(#pcae4069108)" d="M 571.131347 358.34916 
L 571.131347 392.15666 
Q 571.131347 394.55666 573.531347 394.55666 
L 581.273847 394.55666 
Q 583.673847 394.55666 583.673847 392.15666 
L 583.673847 358.34916 
Q 583.673847 355.94916 581.273847 355.94916 
L 573.531347 355.94916 
Q 571.131347 355.94916 571.131347 358.34916 
z
" style="fill:#ffffff;stroke:#ffffff;stroke-linejoin:miter;"/>
    </g>
    <g clip-path="url(#pcae4069108)">
     <!-- Terminal -->
     <g transform="translate(575.195097 358.34916)rotate(-270)scale(0.08 -0.08)">
      <use xlink:href="#DejaVuSans-84"/>
      <use x="44.083984" xlink:href="#DejaVuSans-101"/>
      <use x="105.607422" xlink:href="#DejaVuSans-114"/>
      <use x="144.970703" xlink:href="#DejaVuSans-109"/>
      <use x="242.382812" xlink:href="#DejaVuSans-105"/>
      <use x="270.166016" xlink:href="#DejaVuSans-110"/>
      <use x="333.544922" xlink:href="#DejaVuSans-97"/>
      <use x="394.824219" xlink:href="#DejaVuSans-108"/>
     </g>
    </g>
   </g>
   <g id="text_39">
    <g id="patch_40">
     <path clip-path="url(#pcae4069108)" d="M 620.481997 358.34916 
L 620.481997 392.15666 
Q 620.481997 394.55666 622.881997 394.55666 
L 630.624497 394.55666 
Q 633.024497 394.55666 633.024497 392.15666 
L 633.024497 358.34916 
Q 633.024497 355.94916 630.624497 355.94916 
L 622.881997 355.94916 
Q 620.481997 355.94916 620.481997 358.34916 
z
" style="fill:#ffffff;stroke:#ffffff;stroke-linejoin:miter;"/>
    </g>
    <g clip-path="url(#pcae4069108)">
     <!-- Terminal -->
     <g transform="translate(624.545747 358.34916)rotate(-270)scale(0.08 -0.08)">
      <use xlink:href="#DejaVuSans-84"/>
      <use x="44.083984" xlink:href="#DejaVuSans-101"/>
      <use x="105.607422" xlink:href="#DejaVuSans-114"/>
      <use x="144.970703" xlink:href="#DejaVuSans-109"/>
      <use x="242.382812" xlink:href="#DejaVuSans-105"/>
      <use x="270.166016" xlink:href="#DejaVuSans-110"/>
      <use x="333.544922" xlink:href="#DejaVuSans-97"/>
      <use x="394.824219" xlink:href="#DejaVuSans-108"/>
     </g>
    </g>
   </g>
   <g id="text_40">
    <g id="patch_41">
     <path clip-path="url(#pcae4069108)" d="M 669.832646 358.34916 
L 669.832646 392.15666 
Q 669.832646 394.55666 672.232646 394.55666 
L 679.975146 394.55666 
Q 682.375146 394.55666 682.375146 392.15666 
L 682.375146 358.34916 
Q 682.375146 355.94916 679.975146 355.94916 
L 672.232646 355.94916 
Q 669.832646 355.94916 669.832646 358.34916 
z
" style="fill:#ffffff;stroke:#ffffff;stroke-linejoin:miter;"/>
    </g>
    <g clip-path="url(#pcae4069108)">
     <!-- Terminal -->
     <g transform="translate(673.896396 358.34916)rotate(-270)scale(0.08 -0.08)">
      <use xlink:href="#DejaVuSans-84"/>
      <use x="44.083984" xlink:href="#DejaVuSans-101"/>
      <use x="105.607422" xlink:href="#DejaVuSans-114"/>
      <use x="144.970703" xlink:href="#DejaVuSans-109"/>
      <use x="242.382812" xlink:href="#DejaVuSans-105"/>
      <use x="270.166016" xlink:href="#DejaVuSans-110"/>
      <use x="333.544922" xlink:href="#DejaVuSans-97"/>
      <use x="394.824219" xlink:href="#DejaVuSans-108"/>
     </g>
    </g>
   </g>
   <g id="text_41">
    <g id="patch_42">
     <path clip-path="url(#pcae4069108)" d="M 28.274205 137.951985 
L 28.274205 142.775735 
Q 28.274205 145.175735 30.674205 145.175735 
L 38.416705 145.175735 
Q 40.816705 145.175735 40.816705 142.775735 
L 40.816705 137.951985 
Q 40.816705 135.551985 38.416705 135.551985 
L 30.674205 135.551985 
Q 28.274205 135.551985 28.274205 137.951985 
z
" style="fill:#ffffff;stroke:#ffffff;stroke-linejoin:miter;"/>
    </g>
    <g clip-path="url(#pcae4069108)">
     <!-- P -->
     <g transform="translate(32.337955 137.951985)rotate(-270)scale(0.08 -0.08)">
      <use xlink:href="#DejaVuSans-80"/>
     </g>
    </g>
   </g>
   <g id="text_42">
    <g id="patch_43">
     <path clip-path="url(#pcae4069108)" d="M 28.274205 157.450135 
L 28.274205 162.273885 
Q 28.274205 164.673885 30.674205 164.673885 
L 38.416705 164.673885 
Q 40.816705 164.673885 40.816705 162.273885 
L 40.816705 157.450135 
Q 40.816705 155.050135 38.416705 155.050135 
L 30.674205 155.050135 
Q 28.274205 155.050135 28.274205 157.450135 
z
" style="fill:#ffffff;stroke:#ffffff;stroke-linejoin:miter;"/>
    </g>
    <g clip-path="url(#pcae4069108)">
     <!-- P -->
     <g transform="translate(32.337955 157.450135)rotate(-270)scale(0.08 -0.08)">
      <use xlink:href="#DejaVuSans-80"/>
     </g>
    </g>
   </g>
   <g id="text_43">
    <g id="patch_44">
     <path clip-path="url(#pcae4069108)" d="M 28.274205 176.225219 
L 28.274205 181.048969 
Q 28.274205 183.448969 30.674205 183.448969 
L 38.416705 183.448969 
Q 40.816705 183.448969 40.816705 181.048969 
L 40.816705 176.225219 
Q 40.816705 173.825219 38.416705 173.825219 
L 30.674205 173.825219 
Q 28.274205 173.825219 28.274205 176.225219 
z
" style="fill:#ffffff;stroke:#ffffff;stroke-linejoin:miter;"/>
    </g>
    <g clip-path="url(#pcae4069108)">
     <!-- P -->
     <g transform="translate(32.337955 176.225219)rotate(-270)scale(0.08 -0.08)">
      <use xlink:href="#DejaVuSans-80"/>
     </g>
    </g>
   </g>
   <g id="text_44">
    <g id="patch_45">
     <path clip-path="url(#pcae4069108)" d="M 28.274205 194.320481 
L 28.274205 199.144231 
Q 28.274205 201.544231 30.674205 201.544231 
L 38.416705 201.544231 
Q 40.816705 201.544231 40.816705 199.144231 
L 40.816705 194.320481 
Q 40.816705 191.920481 38.416705 191.920481 
L 30.674205 191.920481 
Q 28.274205 191.920481 28.274205 194.320481 
z
" style="fill:#ffffff;stroke:#ffffff;stroke-linejoin:miter;"/>
    </g>
    <g clip-path="url(#pcae4069108)">
     <!-- P -->
     <g transform="translate(32.337955 194.320481)rotate(-270)scale(0.08 -0.08)">
      <use xlink:href="#DejaVuSans-80"/>
     </g>
    </g>
   </g>
   <g id="text_45">
    <g id="patch_46">
     <path clip-path="url(#pcae4069108)" d="M 28.274205 211.77732 
L 28.274205 216.60107 
Q 28.274205 219.00107 30.674205 219.00107 
L 38.416705 219.00107 
Q 40.816705 219.00107 40.816705 216.60107 
L 40.816705 211.77732 
Q 40.816705 209.37732 38.416705 209.37732 
L 30.674205 209.37732 
Q 28.274205 209.37732 28.274205 211.77732 
z
" style="fill:#ffffff;stroke:#ffffff;stroke-linejoin:miter;"/>
    </g>
    <g clip-path="url(#pcae4069108)">
     <!-- P -->
     <g transform="translate(32.337955 211.77732)rotate(-270)scale(0.08 -0.08)">
      <use xlink:href="#DejaVuSans-80"/>
     </g>
    </g>
   </g>
   <g id="text_46">
    <g id="patch_47">
     <path clip-path="url(#pcae4069108)" d="M 28.274205 228.635541 
L 28.274205 233.459291 
Q 28.274205 235.859291 30.674205 235.859291 
L 38.416705 235.859291 
Q 40.816705 235.859291 40.816705 233.459291 
L 40.816705 228.635541 
Q 40.816705 226.235541 38.416705 226.235541 
L 30.674205 226.235541 
Q 28.274205 226.235541 28.274205 228.635541 
z
" style="fill:#ffffff;stroke:#ffffff;stroke-linejoin:miter;"/>
    </g>
    <g clip-path="url(#pcae4069108)">
     <!-- P -->
     <g transform="translate(32.337955 228.635541)rotate(-270)scale(0.08 -0.08)">
      <use xlink:href="#DejaVuSans-80"/>
     </g>
    </g>
   </g>
   <g id="text_47">
    <g id="patch_48">
     <path clip-path="url(#pcae4069108)" d="M 28.274205 244.933627 
L 28.274205 249.757377 
Q 28.274205 252.157377 30.674205 252.157377 
L 38.416705 252.157377 
Q 40.816705 252.157377 40.816705 249.757377 
L 40.816705 244.933627 
Q 40.816705 242.533627 38.416705 242.533627 
L 30.674205 242.533627 
Q 28.274205 242.533627 28.274205 244.933627 
z
" style="fill:#ffffff;stroke:#ffffff;stroke-linejoin:miter;"/>
    </g>
    <g clip-path="url(#pcae4069108)">
     <!-- P -->
     <g transform="translate(32.337955 244.933627)rotate(-270)scale(0.08 -0.08)">
      <use xlink:href="#DejaVuSans-80"/>
     </g>
    </g>
   </g>
   <g id="text_48">
    <g id="patch_49">
     <path clip-path="url(#pcae4069108)" d="M 28.274205 260.709052 
L 28.274205 265.532802 
Q 28.274205 267.932802 30.674205 267.932802 
L 38.416705 267.932802 
Q 40.816705 267.932802 40.816705 265.532802 
L 40.816705 260.709052 
Q 40.816705 258.309052 38.416705 258.309052 
L 30.674205 258.309052 
Q 28.274205 258.309052 28.274205 260.709052 
z
" style="fill:#ffffff;stroke:#ffffff;stroke-linejoin:miter;"/>
    </g>
    <g clip-path="url(#pcae4069108)">
     <!-- P -->
     <g transform="translate(32.337955 260.709052)rotate(-270)scale(0.08 -0.08)">
      <use xlink:href="#DejaVuSans-80"/>
     </g>
    </g>
   </g>
   <g id="text_49">
    <g id="patch_50">
     <path clip-path="url(#pcae4069108)" d="M 28.274205 275.998658 
L 28.274205 280.822408 
Q 28.274205 283.222408 30.674205 283.222408 
L 38.416705 283.222408 
Q 40.816705 283.222408 40.816705 280.822408 
L 40.816705 275.998658 
Q 40.816705 273.598658 38.416705 273.598658 
L 30.674205 273.598658 
Q 28.274205 273.598658 28.274205 275.998658 
z
" style="fill:#ffffff;stroke:#ffffff;stroke-linejoin:miter;"/>
    </g>
    <g clip-path="url(#pcae4069108)">
     <!-- P -->
     <g transform="translate(32.337955 275.998658)rotate(-270)scale(0.08 -0.08)">
      <use xlink:href="#DejaVuSans-80"/>
     </g>
    </g>
   </g>
   <g id="text_50">
    <g id="patch_51">
     <path clip-path="url(#pcae4069108)" d="M 28.274205 290.839138 
L 28.274205 295.662888 
Q 28.274205 298.062888 30.674205 298.062888 
L 38.416705 298.062888 
Q 40.816705 298.062888 40.816705 295.662888 
L 40.816705 290.839138 
Q 40.816705 288.439138 38.416705 288.439138 
L 30.674205 288.439138 
Q 28.274205 288.439138 28.274205 290.839138 
z
" style="fill:#ffffff;stroke:#ffffff;stroke-linejoin:miter;"/>
    </g>
    <g clip-path="url(#pcae4069108)">
     <!-- P -->
     <g transform="translate(32.337955 290.839138)rotate(-270)scale(0.08 -0.08)">
      <use xlink:href="#DejaVuSans-80"/>
     </g>
    </g>
   </g>
   <g id="text_51">
    <g id="patch_52">
     <path clip-path="url(#pcae4069108)" d="M 28.274205 305.267703 
L 28.274205 310.091453 
Q 28.274205 312.491453 30.674205 312.491453 
L 38.416705 312.491453 
Q 40.816705 312.491453 40.816705 310.091453 
L 40.816705 305.267703 
Q 40.816705 302.867703 38.416705 302.867703 
L 30.674205 302.867703 
Q 28.274205 302.867703 28.274205 305.267703 
z
" style="fill:#ffffff;stroke:#ffffff;stroke-linejoin:miter;"/>
    </g>
    <g clip-path="url(#pcae4069108)">
     <!-- P -->
     <g transform="translate(32.337955 305.267703)rotate(-270)scale(0.08 -0.08)">
      <use xlink:href="#DejaVuSans-80"/>
     </g>
    </g>
   </g>
   <g id="text_52">
    <g id="patch_53">
     <path clip-path="url(#pcae4069108)" d="M 28.274205 319.323087 
L 28.274205 324.146837 
Q 28.274205 326.546837 30.674205 326.546837 
L 38.416705 326.546837 
Q 40.816705 326.546837 40.816705 324.146837 
L 40.816705 319.323087 
Q 40.816705 316.923087 38.416705 316.923087 
L 30.674205 316.923087 
Q 28.274205 316.923087 28.274205 319.323087 
z
" style="fill:#ffffff;stroke:#ffffff;stroke-linejoin:miter;"/>
    </g>
    <g clip-path="url(#pcae4069108)">
     <!-- P -->
     <g transform="translate(32.337955 319.323087)rotate(-270)scale(0.08 -0.08)">
      <use xlink:href="#DejaVuSans-80"/>
     </g>
    </g>
   </g>
   <g id="text_53">
    <g id="patch_54">
     <path clip-path="url(#pcae4069108)" d="M 28.274205 333.047239 
L 28.274205 337.870989 
Q 28.274205 340.270989 30.674205 340.270989 
L 38.416705 340.270989 
Q 40.816705 340.270989 40.816705 337.870989 
L 40.816705 333.047239 
Q 40.816705 330.647239 38.416705 330.647239 
L 30.674205 330.647239 
Q 28.274205 330.647239 28.274205 333.047239 
z
" style="fill:#ffffff;stroke:#ffffff;stroke-linejoin:miter;"/>
    </g>
    <g clip-path="url(#pcae4069108)">
     <!-- P -->
     <g transform="translate(32.337955 333.047239)rotate(-270)scale(0.08 -0.08)">
      <use xlink:href="#DejaVuSans-80"/>
     </g>
    </g>
   </g>
   <g id="text_54">
    <g id="patch_55">
     <path clip-path="url(#pcae4069108)" d="M 28.274205 346.36112 
L 28.274205 351.43987 
Q 28.274205 353.83987 30.674205 353.83987 
L 38.416705 353.83987 
Q 40.816705 353.83987 40.816705 351.43987 
L 40.816705 346.36112 
Q 40.816705 343.96112 38.416705 343.96112 
L 30.674205 343.96112 
Q 28.274205 343.96112 28.274205 346.36112 
z
" style="fill:#ffffff;stroke:#ffffff;stroke-linejoin:miter;"/>
    </g>
    <g clip-path="url(#pcae4069108)">
     <!-- S -->
     <g transform="translate(32.337955 346.36112)rotate(-270)scale(0.08 -0.08)">
      <use xlink:href="#DejaVuSans-83"/>
     </g>
    </g>
   </g>
   <g id="text_55">
    <g id="patch_56">
     <path clip-path="url(#pcae4069108)" d="M 28.274205 359.710493 
L 28.274205 364.534243 
Q 28.274205 366.934243 30.674205 366.934243 
L 38.416705 366.934243 
Q 40.816705 366.934243 40.816705 364.534243 
L 40.816705 359.710493 
Q 40.816705 357.310493 38.416705 357.310493 
L 30.674205 357.310493 
Q 28.274205 357.310493 28.274205 359.710493 
z
" style="fill:#ffffff;stroke:#ffffff;stroke-linejoin:miter;"/>
    </g>
    <g clip-path="url(#pcae4069108)">
     <!-- P -->
     <g transform="translate(32.337955 359.710493)rotate(-270)scale(0.08 -0.08)">
      <use xlink:href="#DejaVuSans-80"/>
     </g>
    </g>
   </g>
   <g id="text_56">
    <g id="patch_57">
     <path clip-path="url(#pcae4069108)" d="M 28.274205 358.34916 
L 28.274205 392.15666 
Q 28.274205 394.55666 30.674205 394.55666 
L 38.416705 394.55666 
Q 40.816705 394.55666 40.816705 392.15666 
L 40.816705 358.34916 
Q 40.816705 355.94916 38.416705 355.94916 
L 30.674205 355.94916 
Q 28.274205 355.94916 28.274205 358.34916 
z
" style="fill:#ffffff;stroke:#ffffff;stroke-linejoin:miter;"/>
    </g>
    <g clip-path="url(#pcae4069108)">
     <!-- Terminal -->
     <g transform="translate(32.337955 358.34916)rotate(-270)scale(0.08 -0.08)">
      <use xlink:href="#DejaVuSans-84"/>
      <use x="44.083984" xlink:href="#DejaVuSans-101"/>
      <use x="105.607422" xlink:href="#DejaVuSans-114"/>
      <use x="144.970703" xlink:href="#DejaVuSans-109"/>
      <use x="242.382812" xlink:href="#DejaVuSans-105"/>
      <use x="270.166016" xlink:href="#DejaVuSans-110"/>
      <use x="333.544922" xlink:href="#DejaVuSans-97"/>
      <use x="394.824219" xlink:href="#DejaVuSans-108"/>
     </g>
    </g>
   </g>
   <g id="PathCollection_1">
    <defs>
     <path d="M 0 8.660254 
C 2.296726 8.660254 4.499694 7.747755 6.123724 6.123724 
C 7.747755 4.499694 8.660254 2.296726 8.660254 -0 
C 8.660254 -2.296726 7.747755 -4.499694 6.123724 -6.123724 
C 4.499694 -7.747755 2.296726 -8.660254 0 -8.660254 
C -2.296726 -8.660254 -4.499694 -7.747755 -6.123724 -6.123724 
C -7.747755 -4.499694 -8.660254 -2.296726 -8.660254 0 
C -8.660254 2.296726 -7.747755 4.499694 -6.123724 6.123724 
C -4.499694 7.747755 -2.296726 8.660254 0 8.660254 
z
" id="C0_0_c1beb4177b"/>
    </defs>
    <g clip-path="url(#pcae4069108)">
     <use style="fill:#ffffff;stroke:#ffffff;" x="34.545455" xlink:href="#C0_0_c1beb4177b" y="381.818182"/>
    </g>
    <g clip-path="url(#pcae4069108)">
     <use style="fill:#ffffff;stroke:#ffffff;" x="83.896104" xlink:href="#C0_0_c1beb4177b" y="381.818182"/>
    </g>
    <g clip-path="url(#pcae4069108)">
     <use style="fill:#ffffff;stroke:#ffffff;" x="133.246753" xlink:href="#C0_0_c1beb4177b" y="381.818182"/>
    </g>
    <g clip-path="url(#pcae4069108)">
     <use style="fill:#ffffff;stroke:#ffffff;" x="182.597403" xlink:href="#C0_0_c1beb4177b" y="381.818182"/>
    </g>
    <g clip-path="url(#pcae4069108)">
     <use style="fill:#ffffff;stroke:#ffffff;" x="231.948052" xlink:href="#C0_0_c1beb4177b" y="381.818182"/>
    </g>
    <g clip-path="url(#pcae4069108)">
     <use style="fill:#ffffff;stroke:#ffffff;" x="281.298701" xlink:href="#C0_0_c1beb4177b" y="381.818182"/>
    </g>
    <g clip-path="url(#pcae4069108)">
     <use style="fill:#ffffff;stroke:#ffffff;" x="330.649351" xlink:href="#C0_0_c1beb4177b" y="381.818182"/>
    </g>
    <g clip-path="url(#pcae4069108)">
     <use style="fill:#ffffff;stroke:#ffffff;" x="380" xlink:href="#C0_0_c1beb4177b" y="381.818182"/>
    </g>
    <g clip-path="url(#pcae4069108)">
     <use style="fill:#ffffff;stroke:#ffffff;" x="429.350649" xlink:href="#C0_0_c1beb4177b" y="381.818182"/>
    </g>
    <g clip-path="url(#pcae4069108)">
     <use style="fill:#ffffff;stroke:#ffffff;" x="478.701299" xlink:href="#C0_0_c1beb4177b" y="381.818182"/>
    </g>
    <g clip-path="url(#pcae4069108)">
     <use style="fill:#ffffff;stroke:#ffffff;" x="528.051948" xlink:href="#C0_0_c1beb4177b" y="381.818182"/>
    </g>
    <g clip-path="url(#pcae4069108)">
     <use style="fill:#ffffff;stroke:#ffffff;" x="577.402597" xlink:href="#C0_0_c1beb4177b" y="381.818182"/>
    </g>
    <g clip-path="url(#pcae4069108)">
     <use style="fill:#ffffff;stroke:#ffffff;" x="626.753247" xlink:href="#C0_0_c1beb4177b" y="381.818182"/>
    </g>
    <g clip-path="url(#pcae4069108)">
     <use style="fill:#ffffff;stroke:#ffffff;" x="676.103896" xlink:href="#C0_0_c1beb4177b" y="381.818182"/>
    </g>
    <g clip-path="url(#pcae4069108)">
     <use style="fill:#ffffff;stroke:#ffffff;" x="725.454545" xlink:href="#C0_0_c1beb4177b" y="381.818182"/>
    </g>
    <g clip-path="url(#pcae4069108)">
     <use style="stroke:#000000;" x="168.761596" xlink:href="#C0_0_c1beb4177b" y="18.181818"/>
    </g>
    <g clip-path="url(#pcae4069108)">
     <use style="stroke:#000000;" x="83.896104" xlink:href="#C0_0_c1beb4177b" y="368.687639"/>
    </g>
    <g clip-path="url(#pcae4069108)">
     <use style="stroke:#000000;" x="233.798701" xlink:href="#C0_0_c1beb4177b" y="314.79559"/>
    </g>
    <g clip-path="url(#pcae4069108)">
     <use style="stroke:#000000;" x="330.649351" xlink:href="#C0_0_c1beb4177b" y="368.687639"/>
    </g>
    <g clip-path="url(#pcae4069108)">
     <use style="stroke:#000000;" x="429.350649" xlink:href="#C0_0_c1beb4177b" y="368.687639"/>
    </g>
    <g clip-path="url(#pcae4069108)">
     <use style="stroke:#000000;" x="34.545455" xlink:href="#C0_0_c1beb4177b" y="42.527183"/>
    </g>
    <g clip-path="url(#pcae4069108)">
     <use style="stroke:#000000;" x="133.246753" xlink:href="#C0_0_c1beb4177b" y="368.687639"/>
    </g>
    <g clip-path="url(#pcae4069108)">
     <use style="stroke:#000000;" x="182.597403" xlink:href="#C0_0_c1beb4177b" y="368.687639"/>
    </g>
    <g clip-path="url(#pcae4069108)">
     <use style="stroke:#000000;" x="338.051948" xlink:href="#C0_0_c1beb4177b" y="328.674334"/>
    </g>
    <g clip-path="url(#pcae4069108)">
     <use style="stroke:#000000;" x="281.298701" xlink:href="#C0_0_c1beb4177b" y="368.687639"/>
    </g>
    <g clip-path="url(#pcae4069108)">
     <use style="stroke:#000000;" x="34.545455" xlink:href="#C0_0_c1beb4177b" y="65.868478"/>
    </g>
    <g clip-path="url(#pcae4069108)">
     <use style="stroke:#000000;" x="231.948052" xlink:href="#C0_0_c1beb4177b" y="368.687639"/>
    </g>
    <g clip-path="url(#pcae4069108)">
     <use style="stroke:#000000;" x="444.155844" xlink:href="#C0_0_c1beb4177b" y="342.243893"/>
    </g>
    <g clip-path="url(#pcae4069108)">
     <use style="stroke:#000000;" x="34.545455" xlink:href="#C0_0_c1beb4177b" y="88.263314"/>
    </g>
    <g clip-path="url(#pcae4069108)">
     <use style="stroke:#000000;" x="380" xlink:href="#C0_0_c1beb4177b" y="368.687639"/>
    </g>
    <g clip-path="url(#pcae4069108)">
     <use style="stroke:#000000;" x="478.701299" xlink:href="#C0_0_c1beb4177b" y="368.687639"/>
    </g>
    <g clip-path="url(#pcae4069108)">
     <use style="stroke:#000000;" x="602.077922" xlink:href="#C0_0_c1beb4177b" y="355.557096"/>
    </g>
    <g clip-path="url(#pcae4069108)">
     <use style="stroke:#000000;" x="725.454545" xlink:href="#C0_0_c1beb4177b" y="368.687639"/>
    </g>
    <g clip-path="url(#pcae4069108)">
     <use style="stroke:#000000;" x="34.545455" xlink:href="#C0_0_c1beb4177b" y="109.76614"/>
    </g>
    <g clip-path="url(#pcae4069108)">
     <use style="stroke:#000000;" x="528.051948" xlink:href="#C0_0_c1beb4177b" y="368.687639"/>
    </g>
    <g clip-path="url(#pcae4069108)">
     <use style="stroke:#000000;" x="577.402597" xlink:href="#C0_0_c1beb4177b" y="368.687639"/>
    </g>
    <g clip-path="url(#pcae4069108)">
     <use style="stroke:#000000;" x="626.753247" xlink:href="#C0_0_c1beb4177b" y="368.687639"/>
    </g>
    <g clip-path="url(#pcae4069108)">
     <use style="stroke:#000000;" x="676.103896" xlink:href="#C0_0_c1beb4177b" y="368.687639"/>
    </g>
    <g clip-path="url(#pcae4069108)">
     <use style="stroke:#000000;" x="34.545455" xlink:href="#C0_0_c1beb4177b" y="130.42849"/>
    </g>
    <g clip-path="url(#pcae4069108)">
     <use style="stroke:#000000;" x="34.545455" xlink:href="#C0_0_c1beb4177b" y="150.29923"/>
    </g>
    <g clip-path="url(#pcae4069108)">
     <use style="stroke:#000000;" x="34.545455" xlink:href="#C0_0_c1beb4177b" y="169.42479"/>
    </g>
    <g clip-path="url(#pcae4069108)">
     <use style="stroke:#000000;" x="34.545455" xlink:href="#C0_0_c1beb4177b" y="187.849397"/>
    </g>
    <g clip-path="url(#pcae4069108)">
     <use style="stroke:#000000;" x="34.545455" xlink:href="#C0_0_c1beb4177b" y="205.615314"/>
    </g>
    <g clip-path="url(#pcae4069108)">
     <use style="stroke:#000000;" x="34.545455" xlink:href="#C0_0_c1beb4177b" y="222.763076"/>
    </g>
    <g clip-path="url(#pcae4069108)">
     <use style="stroke:#000000;" x="34.545455" xlink:href="#C0_0_c1beb4177b" y="239.331756"/>
    </g>
    <g clip-path="url(#pcae4069108)">
     <use style="stroke:#000000;" x="34.545455" xlink:href="#C0_0_c1beb4177b" y="255.359248"/>
    </g>
    <g clip-path="url(#pcae4069108)">
     <use style="stroke:#000000;" x="34.545455" xlink:href="#C0_0_c1beb4177b" y="270.882606"/>
    </g>
    <g clip-path="url(#pcae4069108)">
     <use style="stroke:#000000;" x="34.545455" xlink:href="#C0_0_c1beb4177b" y="285.93846"/>
    </g>
    <g clip-path="url(#pcae4069108)">
     <use style="stroke:#000000;" x="34.545455" xlink:href="#C0_0_c1beb4177b" y="300.563566"/>
    </g>
    <g clip-path="url(#pcae4069108)">
     <use style="stroke:#000000;" x="34.545455" xlink:href="#C0_0_c1beb4177b" y="314.79559"/>
    </g>
    <g clip-path="url(#pcae4069108)">
     <use style="stroke:#000000;" x="34.545455" xlink:href="#C0_0_c1beb4177b" y="328.674334"/>
    </g>
    <g clip-path="url(#pcae4069108)">
     <use style="stroke:#000000;" x="34.545455" xlink:href="#C0_0_c1beb4177b" y="342.243893"/>
    </g>
    <g clip-path="url(#pcae4069108)">
     <use style="stroke:#000000;" x="34.545455" xlink:href="#C0_0_c1beb4177b" y="355.557096"/>
    </g>
    <g clip-path="url(#pcae4069108)">
     <use style="stroke:#000000;" x="34.545455" xlink:href="#C0_0_c1beb4177b" y="368.687639"/>
    </g>
   </g>
   <g id="text_57">
    <g clip-path="url(#pcae4069108)">
     <!-- A -->
     <g transform="translate(31.125142 384.577557)scale(0.1 -0.1)">
      <use xlink:href="#DejaVuSans-65"/>
     </g>
    </g>
   </g>
   <g id="text_58">
    <g clip-path="url(#pcae4069108)">
     <!-- light -->
     <g transform="translate(72.814854 384.577557)scale(0.1 -0.1)">
      <defs>
       <path d="M 45.40625 27.984375 
Q 45.40625 37.75 41.375 43.109375 
Q 37.359375 48.484375 30.078125 48.484375 
Q 22.859375 48.484375 18.828125 43.109375 
Q 14.796875 37.75 14.796875 27.984375 
Q 14.796875 18.265625 18.828125 12.890625 
Q 22.859375 7.515625 30.078125 7.515625 
Q 37.359375 7.515625 41.375 12.890625 
Q 45.40625 18.265625 45.40625 27.984375 
z
M 54.390625 6.78125 
Q 54.390625 -7.171875 48.1875 -13.984375 
Q 42 -20.796875 29.203125 -20.796875 
Q 24.46875 -20.796875 20.265625 -20.09375 
Q 16.0625 -19.390625 12.109375 -17.921875 
L 12.109375 -9.1875 
Q 16.0625 -11.328125 19.921875 -12.34375 
Q 23.78125 -13.375 27.78125 -13.375 
Q 36.625 -13.375 41.015625 -8.765625 
Q 45.40625 -4.15625 45.40625 5.171875 
L 45.40625 9.625 
Q 42.625 4.78125 38.28125 2.390625 
Q 33.9375 0 27.875 0 
Q 17.828125 0 11.671875 7.65625 
Q 5.515625 15.328125 5.515625 27.984375 
Q 5.515625 40.671875 11.671875 48.328125 
Q 17.828125 56 27.875 56 
Q 33.9375 56 38.28125 53.609375 
Q 42.625 51.21875 45.40625 46.390625 
L 45.40625 54.6875 
L 54.390625 54.6875 
z
" id="DejaVuSans-103"/>
       <path d="M 54.890625 33.015625 
L 54.890625 0 
L 45.90625 0 
L 45.90625 32.71875 
Q 45.90625 40.484375 42.875 44.328125 
Q 39.84375 48.1875 33.796875 48.1875 
Q 26.515625 48.1875 22.3125 43.546875 
Q 18.109375 38.921875 18.109375 30.90625 
L 18.109375 0 
L 9.078125 0 
L 9.078125 75.984375 
L 18.109375 75.984375 
L 18.109375 46.1875 
Q 21.34375 51.125 25.703125 53.5625 
Q 30.078125 56 35.796875 56 
Q 45.21875 56 50.046875 50.171875 
Q 54.890625 44.34375 54.890625 33.015625 
z
" id="DejaVuSans-104"/>
       <path d="M 18.3125 70.21875 
L 18.3125 54.6875 
L 36.8125 54.6875 
L 36.8125 47.703125 
L 18.3125 47.703125 
L 18.3125 18.015625 
Q 18.3125 11.328125 20.140625 9.421875 
Q 21.96875 7.515625 27.59375 7.515625 
L 36.8125 7.515625 
L 36.8125 0 
L 27.59375 0 
Q 17.1875 0 13.234375 3.875 
Q 9.28125 7.765625 9.28125 18.015625 
L 9.28125 47.703125 
L 2.6875 47.703125 
L 2.6875 54.6875 
L 9.28125 54.6875 
L 9.28125 70.21875 
z
" id="DejaVuSans-116"/>
      </defs>
      <use xlink:href="#DejaVuSans-108"/>
      <use x="27.783203" xlink:href="#DejaVuSans-105"/>
      <use x="55.566406" xlink:href="#DejaVuSans-103"/>
      <use x="119.042969" xlink:href="#DejaVuSans-104"/>
      <use x="182.421875" xlink:href="#DejaVuSans-116"/>
     </g>
    </g>
   </g>
   <g id="text_59">
    <g clip-path="url(#pcae4069108)">
     <!-- bulb -->
     <g transform="translate(122.340503 384.577557)scale(0.1 -0.1)">
      <defs>
       <path d="M 48.6875 27.296875 
Q 48.6875 37.203125 44.609375 42.84375 
Q 40.53125 48.484375 33.40625 48.484375 
Q 26.265625 48.484375 22.1875 42.84375 
Q 18.109375 37.203125 18.109375 27.296875 
Q 18.109375 17.390625 22.1875 11.75 
Q 26.265625 6.109375 33.40625 6.109375 
Q 40.53125 6.109375 44.609375 11.75 
Q 48.6875 17.390625 48.6875 27.296875 
z
M 18.109375 46.390625 
Q 20.953125 51.265625 25.265625 53.625 
Q 29.59375 56 35.59375 56 
Q 45.5625 56 51.78125 48.09375 
Q 58.015625 40.1875 58.015625 27.296875 
Q 58.015625 14.40625 51.78125 6.484375 
Q 45.5625 -1.421875 35.59375 -1.421875 
Q 29.59375 -1.421875 25.265625 0.953125 
Q 20.953125 3.328125 18.109375 8.203125 
L 18.109375 0 
L 9.078125 0 
L 9.078125 75.984375 
L 18.109375 75.984375 
z
" id="DejaVuSans-98"/>
       <path d="M 8.5 21.578125 
L 8.5 54.6875 
L 17.484375 54.6875 
L 17.484375 21.921875 
Q 17.484375 14.15625 20.5 10.265625 
Q 23.53125 6.390625 29.59375 6.390625 
Q 36.859375 6.390625 41.078125 11.03125 
Q 45.3125 15.671875 45.3125 23.6875 
L 45.3125 54.6875 
L 54.296875 54.6875 
L 54.296875 0 
L 45.3125 0 
L 45.3125 8.40625 
Q 42.046875 3.421875 37.71875 1 
Q 33.40625 -1.421875 27.6875 -1.421875 
Q 18.265625 -1.421875 13.375 4.4375 
Q 8.5 10.296875 8.5 21.578125 
z
M 31.109375 56 
z
" id="DejaVuSans-117"/>
      </defs>
      <use xlink:href="#DejaVuSans-98"/>
      <use x="63.476562" xlink:href="#DejaVuSans-117"/>
      <use x="126.855469" xlink:href="#DejaVuSans-108"/>
      <use x="154.638672" xlink:href="#DejaVuSans-98"/>
     </g>
    </g>
   </g>
   <g id="text_60">
    <g clip-path="url(#pcae4069108)">
     <!-- converts -->
     <g transform="translate(160.963809 384.577557)scale(0.1 -0.1)">
      <defs>
       <path d="M 48.78125 52.59375 
L 48.78125 44.1875 
Q 44.96875 46.296875 41.140625 47.34375 
Q 37.3125 48.390625 33.40625 48.390625 
Q 24.65625 48.390625 19.8125 42.84375 
Q 14.984375 37.3125 14.984375 27.296875 
Q 14.984375 17.28125 19.8125 11.734375 
Q 24.65625 6.203125 33.40625 6.203125 
Q 37.3125 6.203125 41.140625 7.25 
Q 44.96875 8.296875 48.78125 10.40625 
L 48.78125 2.09375 
Q 45.015625 0.34375 40.984375 -0.53125 
Q 36.96875 -1.421875 32.421875 -1.421875 
Q 20.0625 -1.421875 12.78125 6.34375 
Q 5.515625 14.109375 5.515625 27.296875 
Q 5.515625 40.671875 12.859375 48.328125 
Q 20.21875 56 33.015625 56 
Q 37.15625 56 41.109375 55.140625 
Q 45.0625 54.296875 48.78125 52.59375 
z
" id="DejaVuSans-99"/>
       <path d="M 30.609375 48.390625 
Q 23.390625 48.390625 19.1875 42.75 
Q 14.984375 37.109375 14.984375 27.296875 
Q 14.984375 17.484375 19.15625 11.84375 
Q 23.34375 6.203125 30.609375 6.203125 
Q 37.796875 6.203125 41.984375 11.859375 
Q 46.1875 17.53125 46.1875 27.296875 
Q 46.1875 37.015625 41.984375 42.703125 
Q 37.796875 48.390625 30.609375 48.390625 
z
M 30.609375 56 
Q 42.328125 56 49.015625 48.375 
Q 55.71875 40.765625 55.71875 27.296875 
Q 55.71875 13.875 49.015625 6.21875 
Q 42.328125 -1.421875 30.609375 -1.421875 
Q 18.84375 -1.421875 12.171875 6.21875 
Q 5.515625 13.875 5.515625 27.296875 
Q 5.515625 40.765625 12.171875 48.375 
Q 18.84375 56 30.609375 56 
z
" id="DejaVuSans-111"/>
       <path d="M 2.984375 54.6875 
L 12.5 54.6875 
L 29.59375 8.796875 
L 46.6875 54.6875 
L 56.203125 54.6875 
L 35.6875 0 
L 23.484375 0 
z
" id="DejaVuSans-118"/>
       <path d="M 44.28125 53.078125 
L 44.28125 44.578125 
Q 40.484375 46.53125 36.375 47.5 
Q 32.28125 48.484375 27.875 48.484375 
Q 21.1875 48.484375 17.84375 46.4375 
Q 14.5 44.390625 14.5 40.28125 
Q 14.5 37.15625 16.890625 35.375 
Q 19.28125 33.59375 26.515625 31.984375 
L 29.59375 31.296875 
Q 39.15625 29.25 43.1875 25.515625 
Q 47.21875 21.78125 47.21875 15.09375 
Q 47.21875 7.46875 41.1875 3.015625 
Q 35.15625 -1.421875 24.609375 -1.421875 
Q 20.21875 -1.421875 15.453125 -0.5625 
Q 10.6875 0.296875 5.421875 2 
L 5.421875 11.28125 
Q 10.40625 8.6875 15.234375 7.390625 
Q 20.0625 6.109375 24.8125 6.109375 
Q 31.15625 6.109375 34.5625 8.28125 
Q 37.984375 10.453125 37.984375 14.40625 
Q 37.984375 18.0625 35.515625 20.015625 
Q 33.0625 21.96875 24.703125 23.78125 
L 21.578125 24.515625 
Q 13.234375 26.265625 9.515625 29.90625 
Q 5.8125 33.546875 5.8125 39.890625 
Q 5.8125 47.609375 11.28125 51.796875 
Q 16.75 56 26.8125 56 
Q 31.78125 56 36.171875 55.265625 
Q 40.578125 54.546875 44.28125 53.078125 
z
" id="DejaVuSans-115"/>
      </defs>
      <use xlink:href="#DejaVuSans-99"/>
      <use x="54.980469" xlink:href="#DejaVuSans-111"/>
      <use x="116.162109" xlink:href="#DejaVuSans-110"/>
      <use x="179.541016" xlink:href="#DejaVuSans-118"/>
      <use x="238.720703" xlink:href="#DejaVuSans-101"/>
      <use x="300.244141" xlink:href="#DejaVuSans-114"/>
      <use x="341.357422" xlink:href="#DejaVuSans-116"/>
      <use x="380.566406" xlink:href="#DejaVuSans-115"/>
     </g>
    </g>
   </g>
   <g id="text_61">
    <g clip-path="url(#pcae4069108)">
     <!-- electrical -->
     <g transform="translate(209.049614 384.577557)scale(0.1 -0.1)">
      <use xlink:href="#DejaVuSans-101"/>
      <use x="61.523438" xlink:href="#DejaVuSans-108"/>
      <use x="89.306641" xlink:href="#DejaVuSans-101"/>
      <use x="150.830078" xlink:href="#DejaVuSans-99"/>
      <use x="205.810547" xlink:href="#DejaVuSans-116"/>
      <use x="245.019531" xlink:href="#DejaVuSans-114"/>
      <use x="286.132812" xlink:href="#DejaVuSans-105"/>
      <use x="313.916016" xlink:href="#DejaVuSans-99"/>
      <use x="368.896484" xlink:href="#DejaVuSans-97"/>
      <use x="430.175781" xlink:href="#DejaVuSans-108"/>
     </g>
    </g>
   </g>
   <g id="text_62">
    <g clip-path="url(#pcae4069108)">
     <!-- energy -->
     <g transform="translate(263.875264 384.577557)scale(0.1 -0.1)">
      <defs>
       <path d="M 32.171875 -5.078125 
Q 28.375 -14.84375 24.75 -17.8125 
Q 21.140625 -20.796875 15.09375 -20.796875 
L 7.90625 -20.796875 
L 7.90625 -13.28125 
L 13.1875 -13.28125 
Q 16.890625 -13.28125 18.9375 -11.515625 
Q 21 -9.765625 23.484375 -3.21875 
L 25.09375 0.875 
L 2.984375 54.6875 
L 12.5 54.6875 
L 29.59375 11.921875 
L 46.6875 54.6875 
L 56.203125 54.6875 
z
" id="DejaVuSans-121"/>
      </defs>
      <use xlink:href="#DejaVuSans-101"/>
      <use x="61.523438" xlink:href="#DejaVuSans-110"/>
      <use x="124.902344" xlink:href="#DejaVuSans-101"/>
      <use x="186.425781" xlink:href="#DejaVuSans-114"/>
      <use x="225.789062" xlink:href="#DejaVuSans-103"/>
      <use x="289.265625" xlink:href="#DejaVuSans-121"/>
     </g>
    </g>
   </g>
   <g id="text_63">
    <g clip-path="url(#pcae4069108)">
     <!-- into -->
     <g transform="translate(321.072007 384.577557)scale(0.1 -0.1)">
      <use xlink:href="#DejaVuSans-105"/>
      <use x="27.783203" xlink:href="#DejaVuSans-110"/>
      <use x="91.162109" xlink:href="#DejaVuSans-116"/>
      <use x="130.371094" xlink:href="#DejaVuSans-111"/>
     </g>
    </g>
   </g>
   <g id="text_64">
    <g clip-path="url(#pcae4069108)">
     <!-- light -->
     <g transform="translate(368.91875 384.577557)scale(0.1 -0.1)">
      <use xlink:href="#DejaVuSans-108"/>
      <use x="27.783203" xlink:href="#DejaVuSans-105"/>
      <use x="55.566406" xlink:href="#DejaVuSans-103"/>
      <use x="119.042969" xlink:href="#DejaVuSans-104"/>
      <use x="182.421875" xlink:href="#DejaVuSans-116"/>
     </g>
    </g>
   </g>
   <g id="text_65">
    <g clip-path="url(#pcae4069108)">
     <!-- energy -->
     <g transform="translate(411.927212 384.577557)scale(0.1 -0.1)">
      <use xlink:href="#DejaVuSans-101"/>
      <use x="61.523438" xlink:href="#DejaVuSans-110"/>
      <use x="124.902344" xlink:href="#DejaVuSans-101"/>
      <use x="186.425781" xlink:href="#DejaVuSans-114"/>
      <use x="225.789062" xlink:href="#DejaVuSans-103"/>
      <use x="289.265625" xlink:href="#DejaVuSans-121"/>
     </g>
    </g>
   </g>
   <g id="text_66">
    <g clip-path="url(#pcae4069108)">
     <!-- when -->
     <g transform="translate(465.198174 384.577557)scale(0.1 -0.1)">
      <defs>
       <path d="M 4.203125 54.6875 
L 13.1875 54.6875 
L 24.421875 12.015625 
L 35.59375 54.6875 
L 46.1875 54.6875 
L 57.421875 12.015625 
L 68.609375 54.6875 
L 77.59375 54.6875 
L 63.28125 0 
L 52.6875 0 
L 40.921875 44.828125 
L 29.109375 0 
L 18.5 0 
z
" id="DejaVuSans-119"/>
      </defs>
      <use xlink:href="#DejaVuSans-119"/>
      <use x="81.787109" xlink:href="#DejaVuSans-104"/>
      <use x="145.166016" xlink:href="#DejaVuSans-101"/>
      <use x="206.689453" xlink:href="#DejaVuSans-110"/>
     </g>
    </g>
   </g>
   <g id="text_67">
    <g clip-path="url(#pcae4069108)">
     <!-- it -->
     <g transform="translate(524.702729 384.577557)scale(0.1 -0.1)">
      <use xlink:href="#DejaVuSans-105"/>
      <use x="27.783203" xlink:href="#DejaVuSans-116"/>
     </g>
    </g>
   </g>
   <g id="text_68">
    <g clip-path="url(#pcae4069108)">
     <!-- is -->
     <g transform="translate(573.408847 384.577557)scale(0.1 -0.1)">
      <use xlink:href="#DejaVuSans-105"/>
      <use x="27.783203" xlink:href="#DejaVuSans-115"/>
     </g>
    </g>
   </g>
   <g id="text_69">
    <g clip-path="url(#pcae4069108)">
     <!-- turned -->
     <g transform="translate(610.236841 384.577557)scale(0.1 -0.1)">
      <defs>
       <path d="M 45.40625 46.390625 
L 45.40625 75.984375 
L 54.390625 75.984375 
L 54.390625 0 
L 45.40625 0 
L 45.40625 8.203125 
Q 42.578125 3.328125 38.25 0.953125 
Q 33.9375 -1.421875 27.875 -1.421875 
Q 17.96875 -1.421875 11.734375 6.484375 
Q 5.515625 14.40625 5.515625 27.296875 
Q 5.515625 40.1875 11.734375 48.09375 
Q 17.96875 56 27.875 56 
Q 33.9375 56 38.25 53.625 
Q 42.578125 51.265625 45.40625 46.390625 
z
M 14.796875 27.296875 
Q 14.796875 17.390625 18.875 11.75 
Q 22.953125 6.109375 30.078125 6.109375 
Q 37.203125 6.109375 41.296875 11.75 
Q 45.40625 17.390625 45.40625 27.296875 
Q 45.40625 37.203125 41.296875 42.84375 
Q 37.203125 48.484375 30.078125 48.484375 
Q 22.953125 48.484375 18.875 42.84375 
Q 14.796875 37.203125 14.796875 27.296875 
z
" id="DejaVuSans-100"/>
      </defs>
      <use xlink:href="#DejaVuSans-116"/>
      <use x="39.208984" xlink:href="#DejaVuSans-117"/>
      <use x="102.587891" xlink:href="#DejaVuSans-114"/>
      <use x="141.951172" xlink:href="#DejaVuSans-110"/>
      <use x="205.330078" xlink:href="#DejaVuSans-101"/>
      <use x="266.853516" xlink:href="#DejaVuSans-100"/>
     </g>
    </g>
   </g>
   <g id="text_70">
    <g clip-path="url(#pcae4069108)">
     <!-- on -->
     <g transform="translate(669.875771 384.577557)scale(0.1 -0.1)">
      <use xlink:href="#DejaVuSans-111"/>
      <use x="61.181641" xlink:href="#DejaVuSans-110"/>
     </g>
    </g>
   </g>
   <g id="text_71">
    <g clip-path="url(#pcae4069108)">
     <!-- . -->
     <g transform="translate(723.865483 384.577557)scale(0.1 -0.1)">
      <defs>
       <path d="M 10.6875 12.40625 
L 21 12.40625 
L 21 0 
L 10.6875 0 
z
" id="DejaVuSans-46"/>
      </defs>
      <use xlink:href="#DejaVuSans-46"/>
     </g>
    </g>
   </g>
  </g>
 </g>
 <defs>
  <clipPath id="pcae4069108">
   <rect height="400" width="760" x="0" y="0"/>
  </clipPath>
 </defs>
</svg>
