<?xml version="1.0" encoding="utf-8" standalone="no"?>
<!DOCTYPE svg PUBLIC "-//W3C//DTD SVG 1.1//EN"
  "http://www.w3.org/Graphics/SVG/1.1/DTD/svg11.dtd">
<!-- Created with matplotlib (https://matplotlib.org/) -->
<svg height="160pt" version="1.1" viewBox="0 0 304 160" width="304pt" xmlns="http://www.w3.org/2000/svg" xmlns:xlink="http://www.w3.org/1999/xlink">
 <metadata>
  <rdf:RDF xmlns:cc="http://creativecommons.org/ns#" xmlns:dc="http://purl.org/dc/elements/1.1/" xmlns:rdf="http://www.w3.org/1999/02/22-rdf-syntax-ns#">
   <cc:Work>
    <dc:type rdf:resource="http://purl.org/dc/dcmitype/StillImage"/>
    <dc:date>2021-05-19T11:42:23.151009</dc:date>
    <dc:format>image/svg+xml</dc:format>
    <dc:creator>
     <cc:Agent>
      <dc:title>Matplotlib v3.3.4, https://matplotlib.org/</dc:title>
     </cc:Agent>
    </dc:creator>
   </cc:Work>
  </rdf:RDF>
 </metadata>
 <defs>
  <style type="text/css">*{stroke-linecap:butt;stroke-linejoin:round;}</style>
 </defs>
 <g id="figure_1">
  <g id="patch_1">
   <path d="M 0 160 
L 304 160 
L 304 0 
L 0 0 
z
" style="fill:#ffffff;"/>
  </g>
  <g id="axes_1">
   <g id="LineCollection_1">
    <path clip-path="url(#p19b2e74cb7)" d="M 76 7.272727 
L 69.090909 147.475056 
" style="fill:none;stroke:#000000;"/>
    <path clip-path="url(#p19b2e74cb7)" d="M 76 7.272727 
L 207.272727 142.222839 
" style="fill:none;stroke:#000000;"/>
    <path clip-path="url(#p19b2e74cb7)" d="M 76 7.272727 
L 13.818182 17.010873 
" style="fill:none;stroke:#000000;"/>
    <path clip-path="url(#p19b2e74cb7)" d="M 76 7.272727 
L 13.818182 147.475056 
" style="fill:none;stroke:#000000;stroke-dasharray:3.7,1.6;stroke-dashoffset:0;"/>
    <path clip-path="url(#p19b2e74cb7)" d="M 69.090909 147.475056 
L 69.090909 152.727273 
" style="fill:none;stroke:#000000;"/>
    <path clip-path="url(#p19b2e74cb7)" d="M 207.272727 142.222839 
L 124.363636 147.475056 
" style="fill:none;stroke:#000000;"/>
    <path clip-path="url(#p19b2e74cb7)" d="M 207.272727 142.222839 
L 179.636364 147.475056 
" style="fill:none;stroke:#000000;"/>
    <path clip-path="url(#p19b2e74cb7)" d="M 207.272727 142.222839 
L 234.909091 147.475056 
" style="fill:none;stroke:#000000;"/>
    <path clip-path="url(#p19b2e74cb7)" d="M 207.272727 142.222839 
L 290.181818 147.475056 
" style="fill:none;stroke:#000000;"/>
    <path clip-path="url(#p19b2e74cb7)" d="M 13.818182 17.010873 
L 13.818182 26.347391 
" style="fill:none;stroke:#000000;"/>
    <path clip-path="url(#p19b2e74cb7)" d="M 124.363636 147.475056 
L 124.363636 152.727273 
" style="fill:none;stroke:#000000;"/>
    <path clip-path="url(#p19b2e74cb7)" d="M 179.636364 147.475056 
L 179.636364 152.727273 
" style="fill:none;stroke:#000000;"/>
    <path clip-path="url(#p19b2e74cb7)" d="M 234.909091 147.475056 
L 234.909091 152.727273 
" style="fill:none;stroke:#000000;"/>
    <path clip-path="url(#p19b2e74cb7)" d="M 290.181818 147.475056 
L 290.181818 152.727273 
" style="fill:none;stroke:#000000;"/>
    <path clip-path="url(#p19b2e74cb7)" d="M 13.818182 26.347391 
L 13.818182 35.305326 
" style="fill:none;stroke:#000000;"/>
    <path clip-path="url(#p19b2e74cb7)" d="M 13.818182 35.305326 
L 13.818182 43.906456 
" style="fill:none;stroke:#000000;"/>
    <path clip-path="url(#p19b2e74cb7)" d="M 13.818182 43.906456 
L 13.818182 52.171396 
" style="fill:none;stroke:#000000;"/>
    <path clip-path="url(#p19b2e74cb7)" d="M 13.818182 52.171396 
L 13.818182 60.119692 
" style="fill:none;stroke:#000000;"/>
    <path clip-path="url(#p19b2e74cb7)" d="M 13.818182 60.119692 
L 13.818182 67.769916 
" style="fill:none;stroke:#000000;"/>
    <path clip-path="url(#p19b2e74cb7)" d="M 13.818182 67.769916 
L 13.818182 75.139759 
" style="fill:none;stroke:#000000;"/>
    <path clip-path="url(#p19b2e74cb7)" d="M 13.818182 75.139759 
L 13.818182 82.246126 
" style="fill:none;stroke:#000000;"/>
    <path clip-path="url(#p19b2e74cb7)" d="M 13.818182 82.246126 
L 13.818182 89.10523 
" style="fill:none;stroke:#000000;"/>
    <path clip-path="url(#p19b2e74cb7)" d="M 13.818182 89.10523 
L 13.818182 95.732702 
" style="fill:none;stroke:#000000;"/>
    <path clip-path="url(#p19b2e74cb7)" d="M 13.818182 95.732702 
L 13.818182 102.143699 
" style="fill:none;stroke:#000000;"/>
    <path clip-path="url(#p19b2e74cb7)" d="M 13.818182 102.143699 
L 13.818182 108.353042 
" style="fill:none;stroke:#000000;"/>
    <path clip-path="url(#p19b2e74cb7)" d="M 13.818182 108.353042 
L 13.818182 114.375384 
" style="fill:none;stroke:#000000;"/>
    <path clip-path="url(#p19b2e74cb7)" d="M 13.818182 114.375384 
L 13.818182 120.225427 
" style="fill:none;stroke:#000000;"/>
    <path clip-path="url(#p19b2e74cb7)" d="M 13.818182 120.225427 
L 13.818182 125.918236 
" style="fill:none;stroke:#000000;"/>
    <path clip-path="url(#p19b2e74cb7)" d="M 13.818182 125.918236 
L 13.818182 131.469734 
" style="fill:none;stroke:#000000;"/>
    <path clip-path="url(#p19b2e74cb7)" d="M 13.818182 131.469734 
L 13.818182 136.897557 
" style="fill:none;stroke:#000000;"/>
    <path clip-path="url(#p19b2e74cb7)" d="M 13.818182 136.897557 
L 13.818182 142.222839 
" style="fill:none;stroke:#000000;"/>
    <path clip-path="url(#p19b2e74cb7)" d="M 13.818182 142.222839 
L 13.818182 147.475056 
" style="fill:none;stroke:#000000;"/>
    <path clip-path="url(#p19b2e74cb7)" d="M 13.818182 147.475056 
L 13.818182 152.727273 
" style="fill:none;stroke:#000000;"/>
   </g>
   <g id="text_1">
    <g id="patch_2">
     <path clip-path="url(#p19b2e74cb7)" d="M 78.695868 79.980397 
L 78.92234 75.384724 
Q 79.040467 72.987633 76.643376 72.869505 
L 68.91026 72.488422 
Q 66.513169 72.370295 66.395042 74.767386 
L 66.168569 79.363059 
Q 66.050442 81.76015 68.447533 81.878277 
L 76.180649 82.259361 
Q 78.57774 82.377488 78.695868 79.980397 
z
" style="fill:#ffffff;stroke:#ffffff;stroke-linejoin:miter;"/>
    </g>
    <g clip-path="url(#p19b2e74cb7)">
     <!-- F -->
     <g transform="translate(74.637043 79.780381)rotate(-87.178779)scale(0.08 -0.08)">
      <defs>
       <path d="M 9.8125 72.90625 
L 51.703125 72.90625 
L 51.703125 64.59375 
L 19.671875 64.59375 
L 19.671875 43.109375 
L 48.578125 43.109375 
L 48.578125 34.8125 
L 19.671875 34.8125 
L 19.671875 0 
L 9.8125 0 
z
" id="DejaVuSans-70"/>
      </defs>
      <use xlink:href="#DejaVuSans-70"/>
     </g>
    </g>
   </g>
   <g id="text_2">
    <g id="patch_3">
     <path clip-path="url(#p19b2e74cb7)" d="M 135.233182 77.159196 
L 139.049008 81.081915 
Q 140.722463 82.802249 142.442797 81.128794 
L 147.992666 75.730159 
Q 149.713 74.056704 148.039545 72.33637 
L 144.223719 68.413651 
Q 142.550264 66.693317 140.82993 68.366772 
L 135.280061 73.765407 
Q 133.559728 75.438862 135.233182 77.159196 
z
" style="fill:#ffffff;stroke:#ffffff;stroke-linejoin:miter;"/>
    </g>
    <g clip-path="url(#p19b2e74cb7)">
     <!-- A -->
     <g transform="translate(138.146102 74.325653)rotate(-314.208613)scale(0.08 -0.08)">
      <defs>
       <path d="M 34.1875 63.1875 
L 20.796875 26.90625 
L 47.609375 26.90625 
z
M 28.609375 72.90625 
L 39.796875 72.90625 
L 67.578125 0 
L 57.328125 0 
L 50.6875 18.703125 
L 17.828125 18.703125 
L 11.1875 0 
L 0.78125 0 
z
" id="DejaVuSans-65"/>
      </defs>
      <use xlink:href="#DejaVuSans-65"/>
     </g>
    </g>
   </g>
   <g id="text_3">
    <g id="patch_4">
     <path clip-path="url(#p19b2e74cb7)" d="M 43.496558 18.710702 
L 48.262221 17.964363 
Q 50.633321 17.593031 50.261988 15.221931 
L 49.064055 7.572666 
Q 48.692723 5.201566 46.321624 5.572899 
L 41.555961 6.319238 
Q 39.184861 6.69057 39.556194 9.061669 
L 40.754127 16.710935 
Q 41.125459 19.082034 43.496558 18.710702 
z
" style="fill:#ffffff;stroke:#ffffff;stroke-linejoin:miter;"/>
    </g>
    <g clip-path="url(#p19b2e74cb7)">
     <!-- P -->
     <g transform="translate(42.867808 14.695887)rotate(-8.900659)scale(0.08 -0.08)">
      <defs>
       <path d="M 19.671875 64.796875 
L 19.671875 37.40625 
L 32.078125 37.40625 
Q 38.96875 37.40625 42.71875 40.96875 
Q 46.484375 44.53125 46.484375 51.125 
Q 46.484375 57.671875 42.71875 61.234375 
Q 38.96875 64.796875 32.078125 64.796875 
z
M 9.8125 72.90625 
L 32.078125 72.90625 
Q 44.34375 72.90625 50.609375 67.359375 
Q 56.890625 61.8125 56.890625 51.125 
Q 56.890625 40.328125 50.609375 34.8125 
Q 44.34375 29.296875 32.078125 29.296875 
L 19.671875 29.296875 
L 19.671875 0 
L 9.8125 0 
z
" id="DejaVuSans-80"/>
      </defs>
      <use xlink:href="#DejaVuSans-80"/>
     </g>
    </g>
   </g>
   <g id="text_4">
    <g id="patch_5">
     <path clip-path="url(#p19b2e74cb7)" d="M 49.532453 82.417716 
L 51.751162 77.415158 
Q 52.724191 75.221254 50.530287 74.248225 
L 43.452662 71.109192 
Q 41.258758 70.136163 40.285729 72.330067 
L 38.06702 77.332625 
Q 37.093991 79.526529 39.287895 80.499558 
L 46.36552 83.638591 
Q 48.559424 84.61162 49.532453 82.417716 
z
" style="fill:#ffffff;stroke:#ffffff;stroke-linejoin:miter;"/>
    </g>
    <g clip-path="url(#p19b2e74cb7)">
     <!-- A -->
     <g transform="translate(45.817671 80.770154)rotate(-66.082002)scale(0.08 -0.08)">
      <use xlink:href="#DejaVuSans-65"/>
     </g>
    </g>
   </g>
   <g id="text_5">
    <g id="patch_6">
     <path clip-path="url(#p19b2e74cb7)" d="M 62.819659 133.197414 
L 62.819659 167.004914 
Q 62.819659 169.404914 65.219659 169.404914 
L 72.962159 169.404914 
Q 75.362159 169.404914 75.362159 167.004914 
L 75.362159 133.197414 
Q 75.362159 130.797414 72.962159 130.797414 
L 65.219659 130.797414 
Q 62.819659 130.797414 62.819659 133.197414 
z
" style="fill:#ffffff;stroke:#ffffff;stroke-linejoin:miter;"/>
    </g>
    <g clip-path="url(#p19b2e74cb7)">
     <!-- Terminal -->
     <g transform="translate(66.883409 133.197414)rotate(-270)scale(0.08 -0.08)">
      <defs>
       <path d="M -0.296875 72.90625 
L 61.375 72.90625 
L 61.375 64.59375 
L 35.5 64.59375 
L 35.5 0 
L 25.59375 0 
L 25.59375 64.59375 
L -0.296875 64.59375 
z
" id="DejaVuSans-84"/>
       <path d="M 56.203125 29.59375 
L 56.203125 25.203125 
L 14.890625 25.203125 
Q 15.484375 15.921875 20.484375 11.0625 
Q 25.484375 6.203125 34.421875 6.203125 
Q 39.59375 6.203125 44.453125 7.46875 
Q 49.3125 8.734375 54.109375 11.28125 
L 54.109375 2.78125 
Q 49.265625 0.734375 44.1875 -0.34375 
Q 39.109375 -1.421875 33.890625 -1.421875 
Q 20.796875 -1.421875 13.15625 6.1875 
Q 5.515625 13.8125 5.515625 26.8125 
Q 5.515625 40.234375 12.765625 48.109375 
Q 20.015625 56 32.328125 56 
Q 43.359375 56 49.78125 48.890625 
Q 56.203125 41.796875 56.203125 29.59375 
z
M 47.21875 32.234375 
Q 47.125 39.59375 43.09375 43.984375 
Q 39.0625 48.390625 32.421875 48.390625 
Q 24.90625 48.390625 20.390625 44.140625 
Q 15.875 39.890625 15.1875 32.171875 
z
" id="DejaVuSans-101"/>
       <path d="M 41.109375 46.296875 
Q 39.59375 47.171875 37.8125 47.578125 
Q 36.03125 48 33.890625 48 
Q 26.265625 48 22.1875 43.046875 
Q 18.109375 38.09375 18.109375 28.8125 
L 18.109375 0 
L 9.078125 0 
L 9.078125 54.6875 
L 18.109375 54.6875 
L 18.109375 46.1875 
Q 20.953125 51.171875 25.484375 53.578125 
Q 30.03125 56 36.53125 56 
Q 37.453125 56 38.578125 55.875 
Q 39.703125 55.765625 41.0625 55.515625 
z
" id="DejaVuSans-114"/>
       <path d="M 52 44.1875 
Q 55.375 50.25 60.0625 53.125 
Q 64.75 56 71.09375 56 
Q 79.640625 56 84.28125 50.015625 
Q 88.921875 44.046875 88.921875 33.015625 
L 88.921875 0 
L 79.890625 0 
L 79.890625 32.71875 
Q 79.890625 40.578125 77.09375 44.375 
Q 74.3125 48.1875 68.609375 48.1875 
Q 61.625 48.1875 57.5625 43.546875 
Q 53.515625 38.921875 53.515625 30.90625 
L 53.515625 0 
L 44.484375 0 
L 44.484375 32.71875 
Q 44.484375 40.625 41.703125 44.40625 
Q 38.921875 48.1875 33.109375 48.1875 
Q 26.21875 48.1875 22.15625 43.53125 
Q 18.109375 38.875 18.109375 30.90625 
L 18.109375 0 
L 9.078125 0 
L 9.078125 54.6875 
L 18.109375 54.6875 
L 18.109375 46.1875 
Q 21.1875 51.21875 25.484375 53.609375 
Q 29.78125 56 35.6875 56 
Q 41.65625 56 45.828125 52.96875 
Q 50 49.953125 52 44.1875 
z
" id="DejaVuSans-109"/>
       <path d="M 9.421875 54.6875 
L 18.40625 54.6875 
L 18.40625 0 
L 9.421875 0 
z
M 9.421875 75.984375 
L 18.40625 75.984375 
L 18.40625 64.59375 
L 9.421875 64.59375 
z
" id="DejaVuSans-105"/>
       <path d="M 54.890625 33.015625 
L 54.890625 0 
L 45.90625 0 
L 45.90625 32.71875 
Q 45.90625 40.484375 42.875 44.328125 
Q 39.84375 48.1875 33.796875 48.1875 
Q 26.515625 48.1875 22.3125 43.546875 
Q 18.109375 38.921875 18.109375 30.90625 
L 18.109375 0 
L 9.078125 0 
L 9.078125 54.6875 
L 18.109375 54.6875 
L 18.109375 46.1875 
Q 21.34375 51.125 25.703125 53.5625 
Q 30.078125 56 35.796875 56 
Q 45.21875 56 50.046875 50.171875 
Q 54.890625 44.34375 54.890625 33.015625 
z
" id="DejaVuSans-110"/>
       <path d="M 34.28125 27.484375 
Q 23.390625 27.484375 19.1875 25 
Q 14.984375 22.515625 14.984375 16.5 
Q 14.984375 11.71875 18.140625 8.90625 
Q 21.296875 6.109375 26.703125 6.109375 
Q 34.1875 6.109375 38.703125 11.40625 
Q 43.21875 16.703125 43.21875 25.484375 
L 43.21875 27.484375 
z
M 52.203125 31.203125 
L 52.203125 0 
L 43.21875 0 
L 43.21875 8.296875 
Q 40.140625 3.328125 35.546875 0.953125 
Q 30.953125 -1.421875 24.3125 -1.421875 
Q 15.921875 -1.421875 10.953125 3.296875 
Q 6 8.015625 6 15.921875 
Q 6 25.140625 12.171875 29.828125 
Q 18.359375 34.515625 30.609375 34.515625 
L 43.21875 34.515625 
L 43.21875 35.40625 
Q 43.21875 41.609375 39.140625 45 
Q 35.0625 48.390625 27.6875 48.390625 
Q 23 48.390625 18.546875 47.265625 
Q 14.109375 46.140625 10.015625 43.890625 
L 10.015625 52.203125 
Q 14.9375 54.109375 19.578125 55.046875 
Q 24.21875 56 28.609375 56 
Q 40.484375 56 46.34375 49.84375 
Q 52.203125 43.703125 52.203125 31.203125 
z
" id="DejaVuSans-97"/>
       <path d="M 9.421875 75.984375 
L 18.40625 75.984375 
L 18.40625 0 
L 9.421875 0 
z
" id="DejaVuSans-108"/>
      </defs>
      <use xlink:href="#DejaVuSans-84"/>
      <use x="44.083984" xlink:href="#DejaVuSans-101"/>
      <use x="105.607422" xlink:href="#DejaVuSans-114"/>
      <use x="144.970703" xlink:href="#DejaVuSans-109"/>
      <use x="242.382812" xlink:href="#DejaVuSans-105"/>
      <use x="270.166016" xlink:href="#DejaVuSans-110"/>
      <use x="333.544922" xlink:href="#DejaVuSans-97"/>
      <use x="394.824219" xlink:href="#DejaVuSans-108"/>
     </g>
    </g>
   </g>
   <g id="text_6">
    <g id="patch_7">
     <path clip-path="url(#p19b2e74cb7)" d="M 163.692222 151.267446 
L 168.737109 150.947857 
Q 171.132308 150.796123 170.980574 148.400924 
L 170.491075 140.673913 
Q 170.339341 138.278715 167.944142 138.430448 
L 162.899255 138.750037 
Q 160.504056 138.901771 160.65579 141.29697 
L 161.145289 149.023981 
Q 161.297023 151.419179 163.692222 151.267446 
z
" style="fill:#ffffff;stroke:#ffffff;stroke-linejoin:miter;"/>
    </g>
    <g clip-path="url(#p19b2e74cb7)">
     <!-- E -->
     <g transform="translate(163.435302 147.211825)rotate(-3.624793)scale(0.08 -0.08)">
      <defs>
       <path d="M 9.8125 72.90625 
L 55.90625 72.90625 
L 55.90625 64.59375 
L 19.671875 64.59375 
L 19.671875 43.015625 
L 54.390625 43.015625 
L 54.390625 34.71875 
L 19.671875 34.71875 
L 19.671875 8.296875 
L 56.78125 8.296875 
L 56.78125 0 
L 9.8125 0 
z
" id="DejaVuSans-69"/>
      </defs>
      <use xlink:href="#DejaVuSans-69"/>
     </g>
    </g>
   </g>
   <g id="text_7">
    <g id="patch_8">
     <path clip-path="url(#p19b2e74cb7)" d="M 192.142366 151.481821 
L 197.108479 150.538025 
Q 199.466277 150.089931 199.018184 147.732133 
L 197.572616 140.125778 
Q 197.124523 137.76798 194.766725 138.216073 
L 189.800612 139.159869 
Q 187.442814 139.607963 187.890907 141.965761 
L 189.336475 149.572116 
Q 189.784568 151.929914 192.142366 151.481821 
z
" style="fill:#ffffff;stroke:#ffffff;stroke-linejoin:miter;"/>
    </g>
    <g clip-path="url(#p19b2e74cb7)">
     <!-- E -->
     <g transform="translate(191.383642 147.489528)rotate(-10.760584)scale(0.08 -0.08)">
      <use xlink:href="#DejaVuSans-69"/>
     </g>
    </g>
   </g>
   <g id="text_8">
    <g id="patch_9">
     <path clip-path="url(#p19b2e74cb7)" d="M 217.176022 150.488431 
L 222.664043 151.531415 
Q 225.021841 151.979508 225.469934 149.62171 
L 226.915502 142.015355 
Q 227.363595 139.657556 225.005797 139.209463 
L 219.517776 138.166479 
Q 217.159977 137.718386 216.711884 140.076184 
L 215.266317 147.68254 
Q 214.818223 150.040338 217.176022 150.488431 
z
" style="fill:#ffffff;stroke:#ffffff;stroke-linejoin:miter;"/>
    </g>
    <g clip-path="url(#p19b2e74cb7)">
     <!-- C -->
     <g transform="translate(217.934746 146.496138)rotate(-349.239416)scale(0.08 -0.08)">
      <defs>
       <path d="M 64.40625 67.28125 
L 64.40625 56.890625 
Q 59.421875 61.53125 53.78125 63.8125 
Q 48.140625 66.109375 41.796875 66.109375 
Q 29.296875 66.109375 22.65625 58.46875 
Q 16.015625 50.828125 16.015625 36.375 
Q 16.015625 21.96875 22.65625 14.328125 
Q 29.296875 6.6875 41.796875 6.6875 
Q 48.140625 6.6875 53.78125 8.984375 
Q 59.421875 11.28125 64.40625 15.921875 
L 64.40625 5.609375 
Q 59.234375 2.09375 53.4375 0.328125 
Q 47.65625 -1.421875 41.21875 -1.421875 
Q 24.65625 -1.421875 15.125 8.703125 
Q 5.609375 18.84375 5.609375 36.375 
Q 5.609375 53.953125 15.125 64.078125 
Q 24.65625 74.21875 41.21875 74.21875 
Q 47.75 74.21875 53.53125 72.484375 
Q 59.328125 70.75 64.40625 67.28125 
z
" id="DejaVuSans-67"/>
      </defs>
      <use xlink:href="#DejaVuSans-67"/>
     </g>
    </g>
   </g>
   <g id="text_9">
    <g id="patch_10">
     <path clip-path="url(#p19b2e74cb7)" d="M 245.409146 150.922568 
L 251.252433 151.292735 
Q 253.647632 151.444468 253.799365 149.04927 
L 254.288865 141.322259 
Q 254.440598 138.92706 252.045399 138.775326 
L 246.202113 138.405159 
Q 243.806914 138.253426 243.65518 140.648624 
L 243.165681 148.375635 
Q 243.013947 150.770834 245.409146 150.922568 
z
" style="fill:#ffffff;stroke:#ffffff;stroke-linejoin:miter;"/>
    </g>
    <g clip-path="url(#p19b2e74cb7)">
     <!-- U -->
     <g transform="translate(245.666066 146.866947)rotate(-356.375207)scale(0.08 -0.08)">
      <defs>
       <path d="M 8.6875 72.90625 
L 18.609375 72.90625 
L 18.609375 28.609375 
Q 18.609375 16.890625 22.84375 11.734375 
Q 27.09375 6.59375 36.625 6.59375 
Q 46.09375 6.59375 50.34375 11.734375 
Q 54.59375 16.890625 54.59375 28.609375 
L 54.59375 72.90625 
L 64.5 72.90625 
L 64.5 27.390625 
Q 64.5 13.140625 57.4375 5.859375 
Q 50.390625 -1.421875 36.625 -1.421875 
Q 22.796875 -1.421875 15.734375 5.859375 
Q 8.6875 13.140625 8.6875 27.390625 
z
" id="DejaVuSans-85"/>
      </defs>
      <use xlink:href="#DejaVuSans-85"/>
     </g>
    </g>
   </g>
   <g id="text_10">
    <g id="patch_11">
     <path clip-path="url(#p19b2e74cb7)" d="M 7.546932 19.267257 
L 7.546932 24.091007 
Q 7.546932 26.491007 9.946932 26.491007 
L 17.689432 26.491007 
Q 20.089432 26.491007 20.089432 24.091007 
L 20.089432 19.267257 
Q 20.089432 16.867257 17.689432 16.867257 
L 9.946932 16.867257 
Q 7.546932 16.867257 7.546932 19.267257 
z
" style="fill:#ffffff;stroke:#ffffff;stroke-linejoin:miter;"/>
    </g>
    <g clip-path="url(#p19b2e74cb7)">
     <!-- P -->
     <g transform="translate(11.610682 19.267257)rotate(-270)scale(0.08 -0.08)">
      <use xlink:href="#DejaVuSans-80"/>
     </g>
    </g>
   </g>
   <g id="text_11">
    <g id="patch_12">
     <path clip-path="url(#p19b2e74cb7)" d="M 118.092386 133.197414 
L 118.092386 167.004914 
Q 118.092386 169.404914 120.492386 169.404914 
L 128.234886 169.404914 
Q 130.634886 169.404914 130.634886 167.004914 
L 130.634886 133.197414 
Q 130.634886 130.797414 128.234886 130.797414 
L 120.492386 130.797414 
Q 118.092386 130.797414 118.092386 133.197414 
z
" style="fill:#ffffff;stroke:#ffffff;stroke-linejoin:miter;"/>
    </g>
    <g clip-path="url(#p19b2e74cb7)">
     <!-- Terminal -->
     <g transform="translate(122.156136 133.197414)rotate(-270)scale(0.08 -0.08)">
      <use xlink:href="#DejaVuSans-84"/>
      <use x="44.083984" xlink:href="#DejaVuSans-101"/>
      <use x="105.607422" xlink:href="#DejaVuSans-114"/>
      <use x="144.970703" xlink:href="#DejaVuSans-109"/>
      <use x="242.382812" xlink:href="#DejaVuSans-105"/>
      <use x="270.166016" xlink:href="#DejaVuSans-110"/>
      <use x="333.544922" xlink:href="#DejaVuSans-97"/>
      <use x="394.824219" xlink:href="#DejaVuSans-108"/>
     </g>
    </g>
   </g>
   <g id="text_12">
    <g id="patch_13">
     <path clip-path="url(#p19b2e74cb7)" d="M 173.365114 133.197414 
L 173.365114 167.004914 
Q 173.365114 169.404914 175.765114 169.404914 
L 183.507614 169.404914 
Q 185.907614 169.404914 185.907614 167.004914 
L 185.907614 133.197414 
Q 185.907614 130.797414 183.507614 130.797414 
L 175.765114 130.797414 
Q 173.365114 130.797414 173.365114 133.197414 
z
" style="fill:#ffffff;stroke:#ffffff;stroke-linejoin:miter;"/>
    </g>
    <g clip-path="url(#p19b2e74cb7)">
     <!-- Terminal -->
     <g transform="translate(177.428864 133.197414)rotate(-270)scale(0.08 -0.08)">
      <use xlink:href="#DejaVuSans-84"/>
      <use x="44.083984" xlink:href="#DejaVuSans-101"/>
      <use x="105.607422" xlink:href="#DejaVuSans-114"/>
      <use x="144.970703" xlink:href="#DejaVuSans-109"/>
      <use x="242.382812" xlink:href="#DejaVuSans-105"/>
      <use x="270.166016" xlink:href="#DejaVuSans-110"/>
      <use x="333.544922" xlink:href="#DejaVuSans-97"/>
      <use x="394.824219" xlink:href="#DejaVuSans-108"/>
     </g>
    </g>
   </g>
   <g id="text_13">
    <g id="patch_14">
     <path clip-path="url(#p19b2e74cb7)" d="M 228.637841 133.197414 
L 228.637841 167.004914 
Q 228.637841 169.404914 231.037841 169.404914 
L 238.780341 169.404914 
Q 241.180341 169.404914 241.180341 167.004914 
L 241.180341 133.197414 
Q 241.180341 130.797414 238.780341 130.797414 
L 231.037841 130.797414 
Q 228.637841 130.797414 228.637841 133.197414 
z
" style="fill:#ffffff;stroke:#ffffff;stroke-linejoin:miter;"/>
    </g>
    <g clip-path="url(#p19b2e74cb7)">
     <!-- Terminal -->
     <g transform="translate(232.701591 133.197414)rotate(-270)scale(0.08 -0.08)">
      <use xlink:href="#DejaVuSans-84"/>
      <use x="44.083984" xlink:href="#DejaVuSans-101"/>
      <use x="105.607422" xlink:href="#DejaVuSans-114"/>
      <use x="144.970703" xlink:href="#DejaVuSans-109"/>
      <use x="242.382812" xlink:href="#DejaVuSans-105"/>
      <use x="270.166016" xlink:href="#DejaVuSans-110"/>
      <use x="333.544922" xlink:href="#DejaVuSans-97"/>
      <use x="394.824219" xlink:href="#DejaVuSans-108"/>
     </g>
    </g>
   </g>
   <g id="text_14">
    <g id="patch_15">
     <path clip-path="url(#p19b2e74cb7)" d="M 283.910568 133.197414 
L 283.910568 167.004914 
Q 283.910568 169.404914 286.310568 169.404914 
L 294.053068 169.404914 
Q 296.453068 169.404914 296.453068 167.004914 
L 296.453068 133.197414 
Q 296.453068 130.797414 294.053068 130.797414 
L 286.310568 130.797414 
Q 283.910568 130.797414 283.910568 133.197414 
z
" style="fill:#ffffff;stroke:#ffffff;stroke-linejoin:miter;"/>
    </g>
    <g clip-path="url(#p19b2e74cb7)">
     <!-- Terminal -->
     <g transform="translate(287.974318 133.197414)rotate(-270)scale(0.08 -0.08)">
      <use xlink:href="#DejaVuSans-84"/>
      <use x="44.083984" xlink:href="#DejaVuSans-101"/>
      <use x="105.607422" xlink:href="#DejaVuSans-114"/>
      <use x="144.970703" xlink:href="#DejaVuSans-109"/>
      <use x="242.382812" xlink:href="#DejaVuSans-105"/>
      <use x="270.166016" xlink:href="#DejaVuSans-110"/>
      <use x="333.544922" xlink:href="#DejaVuSans-97"/>
      <use x="394.824219" xlink:href="#DejaVuSans-108"/>
     </g>
    </g>
   </g>
   <g id="text_15">
    <g id="patch_16">
     <path clip-path="url(#p19b2e74cb7)" d="M 7.546932 28.414483 
L 7.546932 33.238233 
Q 7.546932 35.638233 9.946932 35.638233 
L 17.689432 35.638233 
Q 20.089432 35.638233 20.089432 33.238233 
L 20.089432 28.414483 
Q 20.089432 26.014483 17.689432 26.014483 
L 9.946932 26.014483 
Q 7.546932 26.014483 7.546932 28.414483 
z
" style="fill:#ffffff;stroke:#ffffff;stroke-linejoin:miter;"/>
    </g>
    <g clip-path="url(#p19b2e74cb7)">
     <!-- P -->
     <g transform="translate(11.610682 28.414483)rotate(-270)scale(0.08 -0.08)">
      <use xlink:href="#DejaVuSans-80"/>
     </g>
    </g>
   </g>
   <g id="text_16">
    <g id="patch_17">
     <path clip-path="url(#p19b2e74cb7)" d="M 7.546932 37.194016 
L 7.546932 42.017766 
Q 7.546932 44.417766 9.946932 44.417766 
L 17.689432 44.417766 
Q 20.089432 44.417766 20.089432 42.017766 
L 20.089432 37.194016 
Q 20.089432 34.794016 17.689432 34.794016 
L 9.946932 34.794016 
Q 7.546932 34.794016 7.546932 37.194016 
z
" style="fill:#ffffff;stroke:#ffffff;stroke-linejoin:miter;"/>
    </g>
    <g clip-path="url(#p19b2e74cb7)">
     <!-- P -->
     <g transform="translate(11.610682 37.194016)rotate(-270)scale(0.08 -0.08)">
      <use xlink:href="#DejaVuSans-80"/>
     </g>
    </g>
   </g>
   <g id="text_17">
    <g id="patch_18">
     <path clip-path="url(#p19b2e74cb7)" d="M 7.546932 45.627051 
L 7.546932 50.450801 
Q 7.546932 52.850801 9.946932 52.850801 
L 17.689432 52.850801 
Q 20.089432 52.850801 20.089432 50.450801 
L 20.089432 45.627051 
Q 20.089432 43.227051 17.689432 43.227051 
L 9.946932 43.227051 
Q 7.546932 43.227051 7.546932 45.627051 
z
" style="fill:#ffffff;stroke:#ffffff;stroke-linejoin:miter;"/>
    </g>
    <g clip-path="url(#p19b2e74cb7)">
     <!-- P -->
     <g transform="translate(11.610682 45.627051)rotate(-270)scale(0.08 -0.08)">
      <use xlink:href="#DejaVuSans-80"/>
     </g>
    </g>
   </g>
   <g id="text_18">
    <g id="patch_19">
     <path clip-path="url(#p19b2e74cb7)" d="M 7.546932 53.733669 
L 7.546932 58.557419 
Q 7.546932 60.957419 9.946932 60.957419 
L 17.689432 60.957419 
Q 20.089432 60.957419 20.089432 58.557419 
L 20.089432 53.733669 
Q 20.089432 51.333669 17.689432 51.333669 
L 9.946932 51.333669 
Q 7.546932 51.333669 7.546932 53.733669 
z
" style="fill:#ffffff;stroke:#ffffff;stroke-linejoin:miter;"/>
    </g>
    <g clip-path="url(#p19b2e74cb7)">
     <!-- P -->
     <g transform="translate(11.610682 53.733669)rotate(-270)scale(0.08 -0.08)">
      <use xlink:href="#DejaVuSans-80"/>
     </g>
    </g>
   </g>
   <g id="text_19">
    <g id="patch_20">
     <path clip-path="url(#p19b2e74cb7)" d="M 7.546932 61.532929 
L 7.546932 66.356679 
Q 7.546932 68.756679 9.946932 68.756679 
L 17.689432 68.756679 
Q 20.089432 68.756679 20.089432 66.356679 
L 20.089432 61.532929 
Q 20.089432 59.132929 17.689432 59.132929 
L 9.946932 59.132929 
Q 7.546932 59.132929 7.546932 61.532929 
z
" style="fill:#ffffff;stroke:#ffffff;stroke-linejoin:miter;"/>
    </g>
    <g clip-path="url(#p19b2e74cb7)">
     <!-- P -->
     <g transform="translate(11.610682 61.532929)rotate(-270)scale(0.08 -0.08)">
      <use xlink:href="#DejaVuSans-80"/>
     </g>
    </g>
   </g>
   <g id="text_20">
    <g id="patch_21">
     <path clip-path="url(#p19b2e74cb7)" d="M 7.546932 69.042962 
L 7.546932 73.866712 
Q 7.546932 76.266712 9.946932 76.266712 
L 17.689432 76.266712 
Q 20.089432 76.266712 20.089432 73.866712 
L 20.089432 69.042962 
Q 20.089432 66.642962 17.689432 66.642962 
L 9.946932 66.642962 
Q 7.546932 66.642962 7.546932 69.042962 
z
" style="fill:#ffffff;stroke:#ffffff;stroke-linejoin:miter;"/>
    </g>
    <g clip-path="url(#p19b2e74cb7)">
     <!-- P -->
     <g transform="translate(11.610682 69.042962)rotate(-270)scale(0.08 -0.08)">
      <use xlink:href="#DejaVuSans-80"/>
     </g>
    </g>
   </g>
   <g id="text_21">
    <g id="patch_22">
     <path clip-path="url(#p19b2e74cb7)" d="M 7.546932 76.281067 
L 7.546932 81.104817 
Q 7.546932 83.504817 9.946932 83.504817 
L 17.689432 83.504817 
Q 20.089432 83.504817 20.089432 81.104817 
L 20.089432 76.281067 
Q 20.089432 73.881067 17.689432 73.881067 
L 9.946932 73.881067 
Q 7.546932 73.881067 7.546932 76.281067 
z
" style="fill:#ffffff;stroke:#ffffff;stroke-linejoin:miter;"/>
    </g>
    <g clip-path="url(#p19b2e74cb7)">
     <!-- P -->
     <g transform="translate(11.610682 76.281067)rotate(-270)scale(0.08 -0.08)">
      <use xlink:href="#DejaVuSans-80"/>
     </g>
    </g>
   </g>
   <g id="text_22">
    <g id="patch_23">
     <path clip-path="url(#p19b2e74cb7)" d="M 7.546932 83.263803 
L 7.546932 88.087553 
Q 7.546932 90.487553 9.946932 90.487553 
L 17.689432 90.487553 
Q 20.089432 90.487553 20.089432 88.087553 
L 20.089432 83.263803 
Q 20.089432 80.863803 17.689432 80.863803 
L 9.946932 80.863803 
Q 7.546932 80.863803 7.546932 83.263803 
z
" style="fill:#ffffff;stroke:#ffffff;stroke-linejoin:miter;"/>
    </g>
    <g clip-path="url(#p19b2e74cb7)">
     <!-- P -->
     <g transform="translate(11.610682 83.263803)rotate(-270)scale(0.08 -0.08)">
      <use xlink:href="#DejaVuSans-80"/>
     </g>
    </g>
   </g>
   <g id="text_23">
    <g id="patch_24">
     <path clip-path="url(#p19b2e74cb7)" d="M 7.546932 90.007091 
L 7.546932 94.830841 
Q 7.546932 97.230841 9.946932 97.230841 
L 17.689432 97.230841 
Q 20.089432 97.230841 20.089432 94.830841 
L 20.089432 90.007091 
Q 20.089432 87.607091 17.689432 87.607091 
L 9.946932 87.607091 
Q 7.546932 87.607091 7.546932 90.007091 
z
" style="fill:#ffffff;stroke:#ffffff;stroke-linejoin:miter;"/>
    </g>
    <g clip-path="url(#p19b2e74cb7)">
     <!-- P -->
     <g transform="translate(11.610682 90.007091)rotate(-270)scale(0.08 -0.08)">
      <use xlink:href="#DejaVuSans-80"/>
     </g>
    </g>
   </g>
   <g id="text_24">
    <g id="patch_25">
     <path clip-path="url(#p19b2e74cb7)" d="M 7.546932 96.526326 
L 7.546932 101.350076 
Q 7.546932 103.750076 9.946932 103.750076 
L 17.689432 103.750076 
Q 20.089432 103.750076 20.089432 101.350076 
L 20.089432 96.526326 
Q 20.089432 94.126326 17.689432 94.126326 
L 9.946932 94.126326 
Q 7.546932 94.126326 7.546932 96.526326 
z
" style="fill:#ffffff;stroke:#ffffff;stroke-linejoin:miter;"/>
    </g>
    <g clip-path="url(#p19b2e74cb7)">
     <!-- P -->
     <g transform="translate(11.610682 96.526326)rotate(-270)scale(0.08 -0.08)">
      <use xlink:href="#DejaVuSans-80"/>
     </g>
    </g>
   </g>
   <g id="text_25">
    <g id="patch_26">
     <path clip-path="url(#p19b2e74cb7)" d="M 7.546932 102.836496 
L 7.546932 107.660246 
Q 7.546932 110.060246 9.946932 110.060246 
L 17.689432 110.060246 
Q 20.089432 110.060246 20.089432 107.660246 
L 20.089432 102.836496 
Q 20.089432 100.436496 17.689432 100.436496 
L 9.946932 100.436496 
Q 7.546932 100.436496 7.546932 102.836496 
z
" style="fill:#ffffff;stroke:#ffffff;stroke-linejoin:miter;"/>
    </g>
    <g clip-path="url(#p19b2e74cb7)">
     <!-- P -->
     <g transform="translate(11.610682 102.836496)rotate(-270)scale(0.08 -0.08)">
      <use xlink:href="#DejaVuSans-80"/>
     </g>
    </g>
   </g>
   <g id="text_26">
    <g id="patch_27">
     <path clip-path="url(#p19b2e74cb7)" d="M 7.546932 108.952338 
L 7.546932 113.776088 
Q 7.546932 116.176088 9.946932 116.176088 
L 17.689432 116.176088 
Q 20.089432 116.176088 20.089432 113.776088 
L 20.089432 108.952338 
Q 20.089432 106.552338 17.689432 106.552338 
L 9.946932 106.552338 
Q 7.546932 106.552338 7.546932 108.952338 
z
" style="fill:#ffffff;stroke:#ffffff;stroke-linejoin:miter;"/>
    </g>
    <g clip-path="url(#p19b2e74cb7)">
     <!-- P -->
     <g transform="translate(11.610682 108.952338)rotate(-270)scale(0.08 -0.08)">
      <use xlink:href="#DejaVuSans-80"/>
     </g>
    </g>
   </g>
   <g id="text_27">
    <g id="patch_28">
     <path clip-path="url(#p19b2e74cb7)" d="M 7.546932 114.88853 
L 7.546932 119.71228 
Q 7.546932 122.11228 9.946932 122.11228 
L 17.689432 122.11228 
Q 20.089432 122.11228 20.089432 119.71228 
L 20.089432 114.88853 
Q 20.089432 112.48853 17.689432 112.48853 
L 9.946932 112.48853 
Q 7.546932 112.48853 7.546932 114.88853 
z
" style="fill:#ffffff;stroke:#ffffff;stroke-linejoin:miter;"/>
    </g>
    <g clip-path="url(#p19b2e74cb7)">
     <!-- P -->
     <g transform="translate(11.610682 114.88853)rotate(-270)scale(0.08 -0.08)">
      <use xlink:href="#DejaVuSans-80"/>
     </g>
    </g>
   </g>
   <g id="text_28">
    <g id="patch_29">
     <path clip-path="url(#p19b2e74cb7)" d="M 7.546932 120.659956 
L 7.546932 125.483706 
Q 7.546932 127.883706 9.946932 127.883706 
L 17.689432 127.883706 
Q 20.089432 127.883706 20.089432 125.483706 
L 20.089432 120.659956 
Q 20.089432 118.259956 17.689432 118.259956 
L 9.946932 118.259956 
Q 7.546932 118.259956 7.546932 120.659956 
z
" style="fill:#ffffff;stroke:#ffffff;stroke-linejoin:miter;"/>
    </g>
    <g clip-path="url(#p19b2e74cb7)">
     <!-- P -->
     <g transform="translate(11.610682 120.659956)rotate(-270)scale(0.08 -0.08)">
      <use xlink:href="#DejaVuSans-80"/>
     </g>
    </g>
   </g>
   <g id="text_29">
    <g id="patch_30">
     <path clip-path="url(#p19b2e74cb7)" d="M 7.546932 126.28211 
L 7.546932 131.10586 
Q 7.546932 133.50586 9.946932 133.50586 
L 17.689432 133.50586 
Q 20.089432 133.50586 20.089432 131.10586 
L 20.089432 126.28211 
Q 20.089432 123.88211 17.689432 123.88211 
L 9.946932 123.88211 
Q 7.546932 123.88211 7.546932 126.28211 
z
" style="fill:#ffffff;stroke:#ffffff;stroke-linejoin:miter;"/>
    </g>
    <g clip-path="url(#p19b2e74cb7)">
     <!-- P -->
     <g transform="translate(11.610682 126.28211)rotate(-270)scale(0.08 -0.08)">
      <use xlink:href="#DejaVuSans-80"/>
     </g>
    </g>
   </g>
   <g id="text_30">
    <g id="patch_31">
     <path clip-path="url(#p19b2e74cb7)" d="M 7.546932 131.771771 
L 7.546932 136.595521 
Q 7.546932 138.995521 9.946932 138.995521 
L 17.689432 138.995521 
Q 20.089432 138.995521 20.089432 136.595521 
L 20.089432 131.771771 
Q 20.089432 129.371771 17.689432 129.371771 
L 9.946932 129.371771 
Q 7.546932 129.371771 7.546932 131.771771 
z
" style="fill:#ffffff;stroke:#ffffff;stroke-linejoin:miter;"/>
    </g>
    <g clip-path="url(#p19b2e74cb7)">
     <!-- P -->
     <g transform="translate(11.610682 131.771771)rotate(-270)scale(0.08 -0.08)">
      <use xlink:href="#DejaVuSans-80"/>
     </g>
    </g>
   </g>
   <g id="text_31">
    <g id="patch_32">
     <path clip-path="url(#p19b2e74cb7)" d="M 7.546932 137.148323 
L 7.546932 141.972073 
Q 7.546932 144.372073 9.946932 144.372073 
L 17.689432 144.372073 
Q 20.089432 144.372073 20.089432 141.972073 
L 20.089432 137.148323 
Q 20.089432 134.748323 17.689432 134.748323 
L 9.946932 134.748323 
Q 7.546932 134.748323 7.546932 137.148323 
z
" style="fill:#ffffff;stroke:#ffffff;stroke-linejoin:miter;"/>
    </g>
    <g clip-path="url(#p19b2e74cb7)">
     <!-- P -->
     <g transform="translate(11.610682 137.148323)rotate(-270)scale(0.08 -0.08)">
      <use xlink:href="#DejaVuSans-80"/>
     </g>
    </g>
   </g>
   <g id="text_32">
    <g id="patch_33">
     <path clip-path="url(#p19b2e74cb7)" d="M 7.546932 142.437072 
L 7.546932 147.260822 
Q 7.546932 149.660822 9.946932 149.660822 
L 17.689432 149.660822 
Q 20.089432 149.660822 20.089432 147.260822 
L 20.089432 142.437072 
Q 20.089432 140.037072 17.689432 140.037072 
L 9.946932 140.037072 
Q 7.546932 140.037072 7.546932 142.437072 
z
" style="fill:#ffffff;stroke:#ffffff;stroke-linejoin:miter;"/>
    </g>
    <g clip-path="url(#p19b2e74cb7)">
     <!-- P -->
     <g transform="translate(11.610682 142.437072)rotate(-270)scale(0.08 -0.08)">
      <use xlink:href="#DejaVuSans-80"/>
     </g>
    </g>
   </g>
   <g id="text_33">
    <g id="patch_34">
     <path clip-path="url(#p19b2e74cb7)" d="M 7.546932 133.197414 
L 7.546932 167.004914 
Q 7.546932 169.404914 9.946932 169.404914 
L 17.689432 169.404914 
Q 20.089432 169.404914 20.089432 167.004914 
L 20.089432 133.197414 
Q 20.089432 130.797414 17.689432 130.797414 
L 9.946932 130.797414 
Q 7.546932 130.797414 7.546932 133.197414 
z
" style="fill:#ffffff;stroke:#ffffff;stroke-linejoin:miter;"/>
    </g>
    <g clip-path="url(#p19b2e74cb7)">
     <!-- Terminal -->
     <g transform="translate(11.610682 133.197414)rotate(-270)scale(0.08 -0.08)">
      <use xlink:href="#DejaVuSans-84"/>
      <use x="44.083984" xlink:href="#DejaVuSans-101"/>
      <use x="105.607422" xlink:href="#DejaVuSans-114"/>
      <use x="144.970703" xlink:href="#DejaVuSans-109"/>
      <use x="242.382812" xlink:href="#DejaVuSans-105"/>
      <use x="270.166016" xlink:href="#DejaVuSans-110"/>
      <use x="333.544922" xlink:href="#DejaVuSans-97"/>
      <use x="394.824219" xlink:href="#DejaVuSans-108"/>
     </g>
    </g>
   </g>
   <g id="PathCollection_1">
    <defs>
     <path d="M 0 8.660254 
C 2.296726 8.660254 4.499694 7.747755 6.123724 6.123724 
C 7.747755 4.499694 8.660254 2.296726 8.660254 -0 
C 8.660254 -2.296726 7.747755 -4.499694 6.123724 -6.123724 
C 4.499694 -7.747755 2.296726 -8.660254 0 -8.660254 
C -2.296726 -8.660254 -4.499694 -7.747755 -6.123724 -6.123724 
C -7.747755 -4.499694 -8.660254 -2.296726 -8.660254 0 
C -8.660254 2.296726 -7.747755 4.499694 -6.123724 6.123724 
C -4.499694 7.747755 -2.296726 8.660254 0 8.660254 
z
" id="C0_0_2c4b5670dc"/>
    </defs>
    <g clip-path="url(#p19b2e74cb7)">
     <use style="fill:#ffffff;stroke:#ffffff;" x="13.818182" xlink:href="#C0_0_2c4b5670dc" y="152.727273"/>
    </g>
    <g clip-path="url(#p19b2e74cb7)">
     <use style="fill:#ffffff;stroke:#ffffff;" x="69.090909" xlink:href="#C0_0_2c4b5670dc" y="152.727273"/>
    </g>
    <g clip-path="url(#p19b2e74cb7)">
     <use style="fill:#ffffff;stroke:#ffffff;" x="124.363636" xlink:href="#C0_0_2c4b5670dc" y="152.727273"/>
    </g>
    <g clip-path="url(#p19b2e74cb7)">
     <use style="fill:#ffffff;stroke:#ffffff;" x="179.636364" xlink:href="#C0_0_2c4b5670dc" y="152.727273"/>
    </g>
    <g clip-path="url(#p19b2e74cb7)">
     <use style="fill:#ffffff;stroke:#ffffff;" x="234.909091" xlink:href="#C0_0_2c4b5670dc" y="152.727273"/>
    </g>
    <g clip-path="url(#p19b2e74cb7)">
     <use style="fill:#ffffff;stroke:#ffffff;" x="290.181818" xlink:href="#C0_0_2c4b5670dc" y="152.727273"/>
    </g>
    <g clip-path="url(#p19b2e74cb7)">
     <use style="stroke:#000000;" x="76" xlink:href="#C0_0_2c4b5670dc" y="7.272727"/>
    </g>
    <g clip-path="url(#p19b2e74cb7)">
     <use style="stroke:#000000;" x="69.090909" xlink:href="#C0_0_2c4b5670dc" y="147.475056"/>
    </g>
    <g clip-path="url(#p19b2e74cb7)">
     <use style="stroke:#000000;" x="207.272727" xlink:href="#C0_0_2c4b5670dc" y="142.222839"/>
    </g>
    <g clip-path="url(#p19b2e74cb7)">
     <use style="stroke:#000000;" x="13.818182" xlink:href="#C0_0_2c4b5670dc" y="17.010873"/>
    </g>
    <g clip-path="url(#p19b2e74cb7)">
     <use style="stroke:#000000;" x="124.363636" xlink:href="#C0_0_2c4b5670dc" y="147.475056"/>
    </g>
    <g clip-path="url(#p19b2e74cb7)">
     <use style="stroke:#000000;" x="179.636364" xlink:href="#C0_0_2c4b5670dc" y="147.475056"/>
    </g>
    <g clip-path="url(#p19b2e74cb7)">
     <use style="stroke:#000000;" x="234.909091" xlink:href="#C0_0_2c4b5670dc" y="147.475056"/>
    </g>
    <g clip-path="url(#p19b2e74cb7)">
     <use style="stroke:#000000;" x="290.181818" xlink:href="#C0_0_2c4b5670dc" y="147.475056"/>
    </g>
    <g clip-path="url(#p19b2e74cb7)">
     <use style="stroke:#000000;" x="13.818182" xlink:href="#C0_0_2c4b5670dc" y="26.347391"/>
    </g>
    <g clip-path="url(#p19b2e74cb7)">
     <use style="stroke:#000000;" x="13.818182" xlink:href="#C0_0_2c4b5670dc" y="35.305326"/>
    </g>
    <g clip-path="url(#p19b2e74cb7)">
     <use style="stroke:#000000;" x="13.818182" xlink:href="#C0_0_2c4b5670dc" y="43.906456"/>
    </g>
    <g clip-path="url(#p19b2e74cb7)">
     <use style="stroke:#000000;" x="13.818182" xlink:href="#C0_0_2c4b5670dc" y="52.171396"/>
    </g>
    <g clip-path="url(#p19b2e74cb7)">
     <use style="stroke:#000000;" x="13.818182" xlink:href="#C0_0_2c4b5670dc" y="60.119692"/>
    </g>
    <g clip-path="url(#p19b2e74cb7)">
     <use style="stroke:#000000;" x="13.818182" xlink:href="#C0_0_2c4b5670dc" y="67.769916"/>
    </g>
    <g clip-path="url(#p19b2e74cb7)">
     <use style="stroke:#000000;" x="13.818182" xlink:href="#C0_0_2c4b5670dc" y="75.139759"/>
    </g>
    <g clip-path="url(#p19b2e74cb7)">
     <use style="stroke:#000000;" x="13.818182" xlink:href="#C0_0_2c4b5670dc" y="82.246126"/>
    </g>
    <g clip-path="url(#p19b2e74cb7)">
     <use style="stroke:#000000;" x="13.818182" xlink:href="#C0_0_2c4b5670dc" y="89.10523"/>
    </g>
    <g clip-path="url(#p19b2e74cb7)">
     <use style="stroke:#000000;" x="13.818182" xlink:href="#C0_0_2c4b5670dc" y="95.732702"/>
    </g>
    <g clip-path="url(#p19b2e74cb7)">
     <use style="stroke:#000000;" x="13.818182" xlink:href="#C0_0_2c4b5670dc" y="102.143699"/>
    </g>
    <g clip-path="url(#p19b2e74cb7)">
     <use style="stroke:#000000;" x="13.818182" xlink:href="#C0_0_2c4b5670dc" y="108.353042"/>
    </g>
    <g clip-path="url(#p19b2e74cb7)">
     <use style="stroke:#000000;" x="13.818182" xlink:href="#C0_0_2c4b5670dc" y="114.375384"/>
    </g>
    <g clip-path="url(#p19b2e74cb7)">
     <use style="stroke:#000000;" x="13.818182" xlink:href="#C0_0_2c4b5670dc" y="120.225427"/>
    </g>
    <g clip-path="url(#p19b2e74cb7)">
     <use style="stroke:#000000;" x="13.818182" xlink:href="#C0_0_2c4b5670dc" y="125.918236"/>
    </g>
    <g clip-path="url(#p19b2e74cb7)">
     <use style="stroke:#000000;" x="13.818182" xlink:href="#C0_0_2c4b5670dc" y="131.469734"/>
    </g>
    <g clip-path="url(#p19b2e74cb7)">
     <use style="stroke:#000000;" x="13.818182" xlink:href="#C0_0_2c4b5670dc" y="136.897557"/>
    </g>
    <g clip-path="url(#p19b2e74cb7)">
     <use style="stroke:#000000;" x="13.818182" xlink:href="#C0_0_2c4b5670dc" y="142.222839"/>
    </g>
    <g clip-path="url(#p19b2e74cb7)">
     <use style="stroke:#000000;" x="13.818182" xlink:href="#C0_0_2c4b5670dc" y="147.475056"/>
    </g>
   </g>
   <g id="text_34">
    <g clip-path="url(#p19b2e74cb7)">
     <!-- Steve -->
     <g transform="translate(-0.428693 155.486648)scale(0.1 -0.1)">
      <defs>
       <path d="M 53.515625 70.515625 
L 53.515625 60.890625 
Q 47.90625 63.578125 42.921875 64.890625 
Q 37.9375 66.21875 33.296875 66.21875 
Q 25.25 66.21875 20.875 63.09375 
Q 16.5 59.96875 16.5 54.203125 
Q 16.5 49.359375 19.40625 46.890625 
Q 22.3125 44.4375 30.421875 42.921875 
L 36.375 41.703125 
Q 47.40625 39.59375 52.65625 34.296875 
Q 57.90625 29 57.90625 20.125 
Q 57.90625 9.515625 50.796875 4.046875 
Q 43.703125 -1.421875 29.984375 -1.421875 
Q 24.8125 -1.421875 18.96875 -0.25 
Q 13.140625 0.921875 6.890625 3.21875 
L 6.890625 13.375 
Q 12.890625 10.015625 18.65625 8.296875 
Q 24.421875 6.59375 29.984375 6.59375 
Q 38.421875 6.59375 43.015625 9.90625 
Q 47.609375 13.234375 47.609375 19.390625 
Q 47.609375 24.75 44.3125 27.78125 
Q 41.015625 30.8125 33.5 32.328125 
L 27.484375 33.5 
Q 16.453125 35.6875 11.515625 40.375 
Q 6.59375 45.0625 6.59375 53.421875 
Q 6.59375 63.09375 13.40625 68.65625 
Q 20.21875 74.21875 32.171875 74.21875 
Q 37.3125 74.21875 42.625 73.28125 
Q 47.953125 72.359375 53.515625 70.515625 
z
" id="DejaVuSans-83"/>
       <path d="M 18.3125 70.21875 
L 18.3125 54.6875 
L 36.8125 54.6875 
L 36.8125 47.703125 
L 18.3125 47.703125 
L 18.3125 18.015625 
Q 18.3125 11.328125 20.140625 9.421875 
Q 21.96875 7.515625 27.59375 7.515625 
L 36.8125 7.515625 
L 36.8125 0 
L 27.59375 0 
Q 17.1875 0 13.234375 3.875 
Q 9.28125 7.765625 9.28125 18.015625 
L 9.28125 47.703125 
L 2.6875 47.703125 
L 2.6875 54.6875 
L 9.28125 54.6875 
L 9.28125 70.21875 
z
" id="DejaVuSans-116"/>
       <path d="M 2.984375 54.6875 
L 12.5 54.6875 
L 29.59375 8.796875 
L 46.6875 54.6875 
L 56.203125 54.6875 
L 35.6875 0 
L 23.484375 0 
z
" id="DejaVuSans-118"/>
      </defs>
      <use xlink:href="#DejaVuSans-83"/>
      <use x="63.476562" xlink:href="#DejaVuSans-116"/>
      <use x="102.685547" xlink:href="#DejaVuSans-101"/>
      <use x="164.208984" xlink:href="#DejaVuSans-118"/>
      <use x="223.388672" xlink:href="#DejaVuSans-101"/>
     </g>
    </g>
   </g>
   <g id="text_35">
    <g clip-path="url(#p19b2e74cb7)">
     <!-- thinks -->
     <g transform="translate(53.90419 155.486648)scale(0.1 -0.1)">
      <defs>
       <path d="M 54.890625 33.015625 
L 54.890625 0 
L 45.90625 0 
L 45.90625 32.71875 
Q 45.90625 40.484375 42.875 44.328125 
Q 39.84375 48.1875 33.796875 48.1875 
Q 26.515625 48.1875 22.3125 43.546875 
Q 18.109375 38.921875 18.109375 30.90625 
L 18.109375 0 
L 9.078125 0 
L 9.078125 75.984375 
L 18.109375 75.984375 
L 18.109375 46.1875 
Q 21.34375 51.125 25.703125 53.5625 
Q 30.078125 56 35.796875 56 
Q 45.21875 56 50.046875 50.171875 
Q 54.890625 44.34375 54.890625 33.015625 
z
" id="DejaVuSans-104"/>
       <path d="M 9.078125 75.984375 
L 18.109375 75.984375 
L 18.109375 31.109375 
L 44.921875 54.6875 
L 56.390625 54.6875 
L 27.390625 29.109375 
L 57.625 0 
L 45.90625 0 
L 18.109375 26.703125 
L 18.109375 0 
L 9.078125 0 
z
" id="DejaVuSans-107"/>
       <path d="M 44.28125 53.078125 
L 44.28125 44.578125 
Q 40.484375 46.53125 36.375 47.5 
Q 32.28125 48.484375 27.875 48.484375 
Q 21.1875 48.484375 17.84375 46.4375 
Q 14.5 44.390625 14.5 40.28125 
Q 14.5 37.15625 16.890625 35.375 
Q 19.28125 33.59375 26.515625 31.984375 
L 29.59375 31.296875 
Q 39.15625 29.25 43.1875 25.515625 
Q 47.21875 21.78125 47.21875 15.09375 
Q 47.21875 7.46875 41.1875 3.015625 
Q 35.15625 -1.421875 24.609375 -1.421875 
Q 20.21875 -1.421875 15.453125 -0.5625 
Q 10.6875 0.296875 5.421875 2 
L 5.421875 11.28125 
Q 10.40625 8.6875 15.234375 7.390625 
Q 20.0625 6.109375 24.8125 6.109375 
Q 31.15625 6.109375 34.5625 8.28125 
Q 37.984375 10.453125 37.984375 14.40625 
Q 37.984375 18.0625 35.515625 20.015625 
Q 33.0625 21.96875 24.703125 23.78125 
L 21.578125 24.515625 
Q 13.234375 26.265625 9.515625 29.90625 
Q 5.8125 33.546875 5.8125 39.890625 
Q 5.8125 47.609375 11.28125 51.796875 
Q 16.75 56 26.8125 56 
Q 31.78125 56 36.171875 55.265625 
Q 40.578125 54.546875 44.28125 53.078125 
z
" id="DejaVuSans-115"/>
      </defs>
      <use xlink:href="#DejaVuSans-116"/>
      <use x="39.208984" xlink:href="#DejaVuSans-104"/>
      <use x="102.587891" xlink:href="#DejaVuSans-105"/>
      <use x="130.371094" xlink:href="#DejaVuSans-110"/>
      <use x="193.75" xlink:href="#DejaVuSans-107"/>
      <use x="251.660156" xlink:href="#DejaVuSans-115"/>
     </g>
    </g>
   </g>
   <g id="text_36">
    <g clip-path="url(#p19b2e74cb7)">
     <!-- John -->
     <g transform="translate(113.491761 155.486648)scale(0.1 -0.1)">
      <defs>
       <path d="M 9.8125 72.90625 
L 19.671875 72.90625 
L 19.671875 5.078125 
Q 19.671875 -8.109375 14.671875 -14.0625 
Q 9.671875 -20.015625 -1.421875 -20.015625 
L -5.171875 -20.015625 
L -5.171875 -11.71875 
L -2.09375 -11.71875 
Q 4.4375 -11.71875 7.125 -8.046875 
Q 9.8125 -4.390625 9.8125 5.078125 
z
" id="DejaVuSans-74"/>
       <path d="M 30.609375 48.390625 
Q 23.390625 48.390625 19.1875 42.75 
Q 14.984375 37.109375 14.984375 27.296875 
Q 14.984375 17.484375 19.15625 11.84375 
Q 23.34375 6.203125 30.609375 6.203125 
Q 37.796875 6.203125 41.984375 11.859375 
Q 46.1875 17.53125 46.1875 27.296875 
Q 46.1875 37.015625 41.984375 42.703125 
Q 37.796875 48.390625 30.609375 48.390625 
z
M 30.609375 56 
Q 42.328125 56 49.015625 48.375 
Q 55.71875 40.765625 55.71875 27.296875 
Q 55.71875 13.875 49.015625 6.21875 
Q 42.328125 -1.421875 30.609375 -1.421875 
Q 18.84375 -1.421875 12.171875 6.21875 
Q 5.515625 13.875 5.515625 27.296875 
Q 5.515625 40.765625 12.171875 48.375 
Q 18.84375 56 30.609375 56 
z
" id="DejaVuSans-111"/>
      </defs>
      <use xlink:href="#DejaVuSans-74"/>
      <use x="29.492188" xlink:href="#DejaVuSans-111"/>
      <use x="90.673828" xlink:href="#DejaVuSans-104"/>
      <use x="154.052734" xlink:href="#DejaVuSans-110"/>
     </g>
    </g>
   </g>
   <g id="text_37">
    <g clip-path="url(#p19b2e74cb7)">
     <!-- ingested -->
     <g transform="translate(158.012145 155.486648)scale(0.1 -0.1)">
      <defs>
       <path d="M 45.40625 27.984375 
Q 45.40625 37.75 41.375 43.109375 
Q 37.359375 48.484375 30.078125 48.484375 
Q 22.859375 48.484375 18.828125 43.109375 
Q 14.796875 37.75 14.796875 27.984375 
Q 14.796875 18.265625 18.828125 12.890625 
Q 22.859375 7.515625 30.078125 7.515625 
Q 37.359375 7.515625 41.375 12.890625 
Q 45.40625 18.265625 45.40625 27.984375 
z
M 54.390625 6.78125 
Q 54.390625 -7.171875 48.1875 -13.984375 
Q 42 -20.796875 29.203125 -20.796875 
Q 24.46875 -20.796875 20.265625 -20.09375 
Q 16.0625 -19.390625 12.109375 -17.921875 
L 12.109375 -9.1875 
Q 16.0625 -11.328125 19.921875 -12.34375 
Q 23.78125 -13.375 27.78125 -13.375 
Q 36.625 -13.375 41.015625 -8.765625 
Q 45.40625 -4.15625 45.40625 5.171875 
L 45.40625 9.625 
Q 42.625 4.78125 38.28125 2.390625 
Q 33.9375 0 27.875 0 
Q 17.828125 0 11.671875 7.65625 
Q 5.515625 15.328125 5.515625 27.984375 
Q 5.515625 40.671875 11.671875 48.328125 
Q 17.828125 56 27.875 56 
Q 33.9375 56 38.28125 53.609375 
Q 42.625 51.21875 45.40625 46.390625 
L 45.40625 54.6875 
L 54.390625 54.6875 
z
" id="DejaVuSans-103"/>
       <path d="M 45.40625 46.390625 
L 45.40625 75.984375 
L 54.390625 75.984375 
L 54.390625 0 
L 45.40625 0 
L 45.40625 8.203125 
Q 42.578125 3.328125 38.25 0.953125 
Q 33.9375 -1.421875 27.875 -1.421875 
Q 17.96875 -1.421875 11.734375 6.484375 
Q 5.515625 14.40625 5.515625 27.296875 
Q 5.515625 40.1875 11.734375 48.09375 
Q 17.96875 56 27.875 56 
Q 33.9375 56 38.25 53.625 
Q 42.578125 51.265625 45.40625 46.390625 
z
M 14.796875 27.296875 
Q 14.796875 17.390625 18.875 11.75 
Q 22.953125 6.109375 30.078125 6.109375 
Q 37.203125 6.109375 41.296875 11.75 
Q 45.40625 17.390625 45.40625 27.296875 
Q 45.40625 37.203125 41.296875 42.84375 
Q 37.203125 48.484375 30.078125 48.484375 
Q 22.953125 48.484375 18.875 42.84375 
Q 14.796875 37.203125 14.796875 27.296875 
z
" id="DejaVuSans-100"/>
      </defs>
      <use xlink:href="#DejaVuSans-105"/>
      <use x="27.783203" xlink:href="#DejaVuSans-110"/>
      <use x="91.162109" xlink:href="#DejaVuSans-103"/>
      <use x="154.638672" xlink:href="#DejaVuSans-101"/>
      <use x="216.162109" xlink:href="#DejaVuSans-115"/>
      <use x="268.261719" xlink:href="#DejaVuSans-116"/>
      <use x="307.470703" xlink:href="#DejaVuSans-101"/>
      <use x="368.994141" xlink:href="#DejaVuSans-100"/>
     </g>
    </g>
   </g>
   <g id="text_38">
    <g clip-path="url(#p19b2e74cb7)">
     <!-- poison -->
     <g transform="translate(218.453622 155.486648)scale(0.1 -0.1)">
      <defs>
       <path d="M 18.109375 8.203125 
L 18.109375 -20.796875 
L 9.078125 -20.796875 
L 9.078125 54.6875 
L 18.109375 54.6875 
L 18.109375 46.390625 
Q 20.953125 51.265625 25.265625 53.625 
Q 29.59375 56 35.59375 56 
Q 45.5625 56 51.78125 48.09375 
Q 58.015625 40.1875 58.015625 27.296875 
Q 58.015625 14.40625 51.78125 6.484375 
Q 45.5625 -1.421875 35.59375 -1.421875 
Q 29.59375 -1.421875 25.265625 0.953125 
Q 20.953125 3.328125 18.109375 8.203125 
z
M 48.6875 27.296875 
Q 48.6875 37.203125 44.609375 42.84375 
Q 40.53125 48.484375 33.40625 48.484375 
Q 26.265625 48.484375 22.1875 42.84375 
Q 18.109375 37.203125 18.109375 27.296875 
Q 18.109375 17.390625 22.1875 11.75 
Q 26.265625 6.109375 33.40625 6.109375 
Q 40.53125 6.109375 44.609375 11.75 
Q 48.6875 17.390625 48.6875 27.296875 
z
" id="DejaVuSans-112"/>
      </defs>
      <use xlink:href="#DejaVuSans-112"/>
      <use x="63.476562" xlink:href="#DejaVuSans-111"/>
      <use x="124.658203" xlink:href="#DejaVuSans-105"/>
      <use x="152.441406" xlink:href="#DejaVuSans-115"/>
      <use x="204.541016" xlink:href="#DejaVuSans-111"/>
      <use x="265.722656" xlink:href="#DejaVuSans-110"/>
     </g>
    </g>
   </g>
   <g id="text_39">
    <g clip-path="url(#p19b2e74cb7)">
     <!-- . -->
     <g transform="translate(288.592756 155.486648)scale(0.1 -0.1)">
      <defs>
       <path d="M 10.6875 12.40625 
L 21 12.40625 
L 21 0 
L 10.6875 0 
z
" id="DejaVuSans-46"/>
      </defs>
      <use xlink:href="#DejaVuSans-46"/>
     </g>
    </g>
   </g>
  </g>
 </g>
 <defs>
  <clipPath id="p19b2e74cb7">
   <rect height="160" width="304" x="0" y="0"/>
  </clipPath>
 </defs>
</svg>
