<?xml version="1.0" encoding="utf-8" standalone="no"?>
<!DOCTYPE svg PUBLIC "-//W3C//DTD SVG 1.1//EN"
  "http://www.w3.org/Graphics/SVG/1.1/DTD/svg11.dtd">
<!-- Created with matplotlib (https://matplotlib.org/) -->
<svg height="400pt" version="1.1" viewBox="0 0 760 400" width="760pt" xmlns="http://www.w3.org/2000/svg" xmlns:xlink="http://www.w3.org/1999/xlink">
 <metadata>
  <rdf:RDF xmlns:cc="http://creativecommons.org/ns#" xmlns:dc="http://purl.org/dc/elements/1.1/" xmlns:rdf="http://www.w3.org/1999/02/22-rdf-syntax-ns#">
   <cc:Work>
    <dc:type rdf:resource="http://purl.org/dc/dcmitype/StillImage"/>
    <dc:date>2021-05-19T11:42:02.233813</dc:date>
    <dc:format>image/svg+xml</dc:format>
    <dc:creator>
     <cc:Agent>
      <dc:title>Matplotlib v3.3.4, https://matplotlib.org/</dc:title>
     </cc:Agent>
    </dc:creator>
   </cc:Work>
  </rdf:RDF>
 </metadata>
 <defs>
  <style type="text/css">*{stroke-linecap:butt;stroke-linejoin:round;}</style>
 </defs>
 <g id="figure_1">
  <g id="patch_1">
   <path d="M 0 400 
L 760 400 
L 760 0 
L 0 0 
z
" style="fill:#ffffff;"/>
  </g>
  <g id="axes_1">
   <g id="LineCollection_1">
    <path clip-path="url(#p77c0fa020a)" d="M 256.623377 18.181818 
L 83.896104 368.687639 
" style="fill:none;stroke:#000000;"/>
    <path clip-path="url(#p77c0fa020a)" d="M 256.623377 18.181818 
L 404.675325 355.557096 
" style="fill:none;stroke:#000000;"/>
    <path clip-path="url(#p77c0fa020a)" d="M 256.623377 18.181818 
L 725.454545 368.687639 
" style="fill:none;stroke:#000000;"/>
    <path clip-path="url(#p77c0fa020a)" d="M 256.623377 18.181818 
L 34.545455 42.527183 
" style="fill:none;stroke:#000000;"/>
    <path clip-path="url(#p77c0fa020a)" d="M 256.623377 18.181818 
L 34.545455 368.687639 
" style="fill:none;stroke:#000000;stroke-dasharray:3.7,1.6;stroke-dashoffset:0;"/>
    <path clip-path="url(#p77c0fa020a)" d="M 83.896104 368.687639 
L 83.896104 381.818182 
" style="fill:none;stroke:#000000;"/>
    <path clip-path="url(#p77c0fa020a)" d="M 404.675325 355.557096 
L 133.246753 368.687639 
" style="fill:none;stroke:#000000;"/>
    <path clip-path="url(#p77c0fa020a)" d="M 404.675325 355.557096 
L 182.597403 368.687639 
" style="fill:none;stroke:#000000;"/>
    <path clip-path="url(#p77c0fa020a)" d="M 404.675325 355.557096 
L 231.948052 368.687639 
" style="fill:none;stroke:#000000;"/>
    <path clip-path="url(#p77c0fa020a)" d="M 404.675325 355.557096 
L 281.298701 368.687639 
" style="fill:none;stroke:#000000;"/>
    <path clip-path="url(#p77c0fa020a)" d="M 404.675325 355.557096 
L 330.649351 368.687639 
" style="fill:none;stroke:#000000;"/>
    <path clip-path="url(#p77c0fa020a)" d="M 404.675325 355.557096 
L 380 368.687639 
" style="fill:none;stroke:#000000;"/>
    <path clip-path="url(#p77c0fa020a)" d="M 404.675325 355.557096 
L 429.350649 368.687639 
" style="fill:none;stroke:#000000;"/>
    <path clip-path="url(#p77c0fa020a)" d="M 404.675325 355.557096 
L 478.701299 368.687639 
" style="fill:none;stroke:#000000;"/>
    <path clip-path="url(#p77c0fa020a)" d="M 404.675325 355.557096 
L 528.051948 368.687639 
" style="fill:none;stroke:#000000;"/>
    <path clip-path="url(#p77c0fa020a)" d="M 404.675325 355.557096 
L 577.402597 368.687639 
" style="fill:none;stroke:#000000;"/>
    <path clip-path="url(#p77c0fa020a)" d="M 404.675325 355.557096 
L 626.753247 368.687639 
" style="fill:none;stroke:#000000;"/>
    <path clip-path="url(#p77c0fa020a)" d="M 404.675325 355.557096 
L 676.103896 368.687639 
" style="fill:none;stroke:#000000;"/>
    <path clip-path="url(#p77c0fa020a)" d="M 725.454545 368.687639 
L 725.454545 381.818182 
" style="fill:none;stroke:#000000;"/>
    <path clip-path="url(#p77c0fa020a)" d="M 34.545455 42.527183 
L 34.545455 65.868478 
" style="fill:none;stroke:#000000;"/>
    <path clip-path="url(#p77c0fa020a)" d="M 133.246753 368.687639 
L 133.246753 381.818182 
" style="fill:none;stroke:#000000;"/>
    <path clip-path="url(#p77c0fa020a)" d="M 182.597403 368.687639 
L 182.597403 381.818182 
" style="fill:none;stroke:#000000;"/>
    <path clip-path="url(#p77c0fa020a)" d="M 231.948052 368.687639 
L 231.948052 381.818182 
" style="fill:none;stroke:#000000;"/>
    <path clip-path="url(#p77c0fa020a)" d="M 281.298701 368.687639 
L 281.298701 381.818182 
" style="fill:none;stroke:#000000;"/>
    <path clip-path="url(#p77c0fa020a)" d="M 330.649351 368.687639 
L 330.649351 381.818182 
" style="fill:none;stroke:#000000;"/>
    <path clip-path="url(#p77c0fa020a)" d="M 380 368.687639 
L 380 381.818182 
" style="fill:none;stroke:#000000;"/>
    <path clip-path="url(#p77c0fa020a)" d="M 429.350649 368.687639 
L 429.350649 381.818182 
" style="fill:none;stroke:#000000;"/>
    <path clip-path="url(#p77c0fa020a)" d="M 478.701299 368.687639 
L 478.701299 381.818182 
" style="fill:none;stroke:#000000;"/>
    <path clip-path="url(#p77c0fa020a)" d="M 528.051948 368.687639 
L 528.051948 381.818182 
" style="fill:none;stroke:#000000;"/>
    <path clip-path="url(#p77c0fa020a)" d="M 577.402597 368.687639 
L 577.402597 381.818182 
" style="fill:none;stroke:#000000;"/>
    <path clip-path="url(#p77c0fa020a)" d="M 626.753247 368.687639 
L 626.753247 381.818182 
" style="fill:none;stroke:#000000;"/>
    <path clip-path="url(#p77c0fa020a)" d="M 676.103896 368.687639 
L 676.103896 381.818182 
" style="fill:none;stroke:#000000;"/>
    <path clip-path="url(#p77c0fa020a)" d="M 34.545455 65.868478 
L 34.545455 88.263314 
" style="fill:none;stroke:#000000;"/>
    <path clip-path="url(#p77c0fa020a)" d="M 34.545455 88.263314 
L 34.545455 109.76614 
" style="fill:none;stroke:#000000;"/>
    <path clip-path="url(#p77c0fa020a)" d="M 34.545455 109.76614 
L 34.545455 130.42849 
" style="fill:none;stroke:#000000;"/>
    <path clip-path="url(#p77c0fa020a)" d="M 34.545455 130.42849 
L 34.545455 150.29923 
" style="fill:none;stroke:#000000;"/>
    <path clip-path="url(#p77c0fa020a)" d="M 34.545455 150.29923 
L 34.545455 169.42479 
" style="fill:none;stroke:#000000;"/>
    <path clip-path="url(#p77c0fa020a)" d="M 34.545455 169.42479 
L 34.545455 187.849397 
" style="fill:none;stroke:#000000;"/>
    <path clip-path="url(#p77c0fa020a)" d="M 34.545455 187.849397 
L 34.545455 205.615314 
" style="fill:none;stroke:#000000;"/>
    <path clip-path="url(#p77c0fa020a)" d="M 34.545455 205.615314 
L 34.545455 222.763076 
" style="fill:none;stroke:#000000;"/>
    <path clip-path="url(#p77c0fa020a)" d="M 34.545455 222.763076 
L 34.545455 239.331756 
" style="fill:none;stroke:#000000;"/>
    <path clip-path="url(#p77c0fa020a)" d="M 34.545455 239.331756 
L 34.545455 255.359248 
" style="fill:none;stroke:#000000;"/>
    <path clip-path="url(#p77c0fa020a)" d="M 34.545455 255.359248 
L 34.545455 270.882606 
" style="fill:none;stroke:#000000;"/>
    <path clip-path="url(#p77c0fa020a)" d="M 34.545455 270.882606 
L 34.545455 285.93846 
" style="fill:none;stroke:#000000;"/>
    <path clip-path="url(#p77c0fa020a)" d="M 34.545455 285.93846 
L 34.545455 300.563566 
" style="fill:none;stroke:#000000;"/>
    <path clip-path="url(#p77c0fa020a)" d="M 34.545455 300.563566 
L 34.545455 314.79559 
" style="fill:none;stroke:#000000;"/>
    <path clip-path="url(#p77c0fa020a)" d="M 34.545455 314.79559 
L 34.545455 328.674334 
" style="fill:none;stroke:#000000;"/>
    <path clip-path="url(#p77c0fa020a)" d="M 34.545455 328.674334 
L 34.545455 342.243893 
" style="fill:none;stroke:#000000;"/>
    <path clip-path="url(#p77c0fa020a)" d="M 34.545455 342.243893 
L 34.545455 355.557096 
" style="fill:none;stroke:#000000;"/>
    <path clip-path="url(#p77c0fa020a)" d="M 34.545455 355.557096 
L 34.545455 368.687639 
" style="fill:none;stroke:#000000;"/>
    <path clip-path="url(#p77c0fa020a)" d="M 34.545455 368.687639 
L 34.545455 381.818182 
" style="fill:none;stroke:#000000;"/>
   </g>
   <g id="text_1">
    <g id="patch_2">
     <path clip-path="url(#p77c0fa020a)" d="M 174.868079 198.270498 
L 176.901994 194.143187 
Q 177.962879 191.990393 175.810085 190.929508 
L 168.86508 187.50705 
Q 166.712286 186.446165 165.651401 188.598959 
L 163.617486 192.72627 
Q 162.556601 194.879064 164.709396 195.939949 
L 171.6544 199.362407 
Q 173.807194 200.423292 174.868079 198.270498 
z
" style="fill:#ffffff;stroke:#ffffff;stroke-linejoin:miter;"/>
    </g>
    <g clip-path="url(#p77c0fa020a)">
     <!-- F -->
     <g transform="translate(171.222905 196.474177)rotate(-63.766185)scale(0.08 -0.08)">
      <defs>
       <path d="M 9.8125 72.90625 
L 51.703125 72.90625 
L 51.703125 64.59375 
L 19.671875 64.59375 
L 19.671875 43.109375 
L 48.578125 43.109375 
L 48.578125 34.8125 
L 19.671875 34.8125 
L 19.671875 0 
L 9.8125 0 
z
" id="DejaVuSans-70"/>
      </defs>
      <use xlink:href="#DejaVuSans-70"/>
     </g>
    </g>
   </g>
   <g id="text_2">
    <g id="patch_3">
     <path clip-path="url(#p77c0fa020a)" d="M 323.80717 186.883918 
L 326.006264 191.89513 
Q 326.97069 194.092829 329.168389 193.128402 
L 336.258258 190.017122 
Q 338.455957 189.052696 337.491531 186.854997 
L 335.292438 181.843785 
Q 334.328011 179.646086 332.130312 180.610512 
L 325.040443 183.721792 
Q 322.842744 184.686219 323.80717 186.883918 
z
" style="fill:#ffffff;stroke:#ffffff;stroke-linejoin:miter;"/>
    </g>
    <g clip-path="url(#p77c0fa020a)">
     <!-- A -->
     <g transform="translate(327.528379 185.250923)rotate(-293.693529)scale(0.08 -0.08)">
      <defs>
       <path d="M 34.1875 63.1875 
L 20.796875 26.90625 
L 47.609375 26.90625 
z
M 28.609375 72.90625 
L 39.796875 72.90625 
L 67.578125 0 
L 57.328125 0 
L 50.6875 18.703125 
L 17.828125 18.703125 
L 11.1875 0 
L 0.78125 0 
z
" id="DejaVuSans-65"/>
      </defs>
      <use xlink:href="#DejaVuSans-65"/>
     </g>
    </g>
   </g>
   <g id="text_3">
    <g id="patch_4">
     <path clip-path="url(#p77c0fa020a)" d="M 484.939198 196.704549 
L 489.628558 200.210391 
Q 491.550755 201.647457 492.987821 199.725259 
L 497.623855 193.524172 
Q 499.060921 191.601974 497.138724 190.164909 
L 492.449364 186.659067 
Q 490.527167 185.222001 489.090101 187.144198 
L 484.454067 193.345286 
Q 483.017001 195.267483 484.939198 196.704549 
z
" style="fill:#ffffff;stroke:#ffffff;stroke-linejoin:miter;"/>
    </g>
    <g clip-path="url(#p77c0fa020a)">
     <!-- U -->
     <g transform="translate(487.37248 193.449829)rotate(-323.217611)scale(0.08 -0.08)">
      <defs>
       <path d="M 8.6875 72.90625 
L 18.609375 72.90625 
L 18.609375 28.609375 
Q 18.609375 16.890625 22.84375 11.734375 
Q 27.09375 6.59375 36.625 6.59375 
Q 46.09375 6.59375 50.34375 11.734375 
Q 54.59375 16.890625 54.59375 28.609375 
L 54.59375 72.90625 
L 64.5 72.90625 
L 64.5 27.390625 
Q 64.5 13.140625 57.4375 5.859375 
Q 50.390625 -1.421875 36.625 -1.421875 
Q 22.796875 -1.421875 15.734375 5.859375 
Q 8.6875 13.140625 8.6875 27.390625 
z
" id="DejaVuSans-85"/>
      </defs>
      <use xlink:href="#DejaVuSans-85"/>
     </g>
    </g>
   </g>
   <g id="text_4">
    <g id="patch_5">
     <path clip-path="url(#p77c0fa020a)" d="M 143.870298 36.851232 
L 148.665321 36.325576 
Q 151.051028 36.064042 150.789494 33.678334 
L 149.945775 25.981943 
Q 149.684241 23.596235 147.298534 23.857769 
L 142.50351 24.383425 
Q 140.117803 24.644959 140.379337 27.030667 
L 141.223056 34.727058 
Q 141.48459 37.112766 143.870298 36.851232 
z
" style="fill:#ffffff;stroke:#ffffff;stroke-linejoin:miter;"/>
    </g>
    <g clip-path="url(#p77c0fa020a)">
     <!-- P -->
     <g transform="translate(143.427461 32.811682)rotate(-6.256087)scale(0.08 -0.08)">
      <defs>
       <path d="M 19.671875 64.796875 
L 19.671875 37.40625 
L 32.078125 37.40625 
Q 38.96875 37.40625 42.71875 40.96875 
Q 46.484375 44.53125 46.484375 51.125 
Q 46.484375 57.671875 42.71875 61.234375 
Q 38.96875 64.796875 32.078125 64.796875 
z
M 9.8125 72.90625 
L 32.078125 72.90625 
Q 44.34375 72.90625 50.609375 67.359375 
Q 56.890625 61.8125 56.890625 51.125 
Q 56.890625 40.328125 50.609375 34.8125 
Q 44.34375 29.296875 32.078125 29.296875 
L 19.671875 29.296875 
L 19.671875 0 
L 9.8125 0 
z
" id="DejaVuSans-80"/>
      </defs>
      <use xlink:href="#DejaVuSans-80"/>
     </g>
    </g>
   </g>
   <g id="text_5">
    <g id="patch_6">
     <path clip-path="url(#p77c0fa020a)" d="M 149.417402 199.10252 
L 152.34633 194.479789 
Q 153.63083 192.452461 151.603502 191.167961 
L 145.063257 187.02411 
Q 143.035929 185.739609 141.751429 187.766938 
L 138.822501 192.389668 
Q 137.538001 194.416996 139.565329 195.701496 
L 146.105574 199.845348 
Q 148.132902 201.129848 149.417402 199.10252 
z
" style="fill:#ffffff;stroke:#ffffff;stroke-linejoin:miter;"/>
    </g>
    <g clip-path="url(#p77c0fa020a)">
     <!-- A -->
     <g transform="translate(145.984671 196.927566)rotate(-57.641952)scale(0.08 -0.08)">
      <use xlink:href="#DejaVuSans-65"/>
     </g>
    </g>
   </g>
   <g id="text_6">
    <g id="patch_7">
     <path clip-path="url(#p77c0fa020a)" d="M 77.624854 358.34916 
L 77.624854 392.15666 
Q 77.624854 394.55666 80.024854 394.55666 
L 87.767354 394.55666 
Q 90.167354 394.55666 90.167354 392.15666 
L 90.167354 358.34916 
Q 90.167354 355.94916 87.767354 355.94916 
L 80.024854 355.94916 
Q 77.624854 355.94916 77.624854 358.34916 
z
" style="fill:#ffffff;stroke:#ffffff;stroke-linejoin:miter;"/>
    </g>
    <g clip-path="url(#p77c0fa020a)">
     <!-- Terminal -->
     <g transform="translate(81.688604 358.34916)rotate(-270)scale(0.08 -0.08)">
      <defs>
       <path d="M -0.296875 72.90625 
L 61.375 72.90625 
L 61.375 64.59375 
L 35.5 64.59375 
L 35.5 0 
L 25.59375 0 
L 25.59375 64.59375 
L -0.296875 64.59375 
z
" id="DejaVuSans-84"/>
       <path d="M 56.203125 29.59375 
L 56.203125 25.203125 
L 14.890625 25.203125 
Q 15.484375 15.921875 20.484375 11.0625 
Q 25.484375 6.203125 34.421875 6.203125 
Q 39.59375 6.203125 44.453125 7.46875 
Q 49.3125 8.734375 54.109375 11.28125 
L 54.109375 2.78125 
Q 49.265625 0.734375 44.1875 -0.34375 
Q 39.109375 -1.421875 33.890625 -1.421875 
Q 20.796875 -1.421875 13.15625 6.1875 
Q 5.515625 13.8125 5.515625 26.8125 
Q 5.515625 40.234375 12.765625 48.109375 
Q 20.015625 56 32.328125 56 
Q 43.359375 56 49.78125 48.890625 
Q 56.203125 41.796875 56.203125 29.59375 
z
M 47.21875 32.234375 
Q 47.125 39.59375 43.09375 43.984375 
Q 39.0625 48.390625 32.421875 48.390625 
Q 24.90625 48.390625 20.390625 44.140625 
Q 15.875 39.890625 15.1875 32.171875 
z
" id="DejaVuSans-101"/>
       <path d="M 41.109375 46.296875 
Q 39.59375 47.171875 37.8125 47.578125 
Q 36.03125 48 33.890625 48 
Q 26.265625 48 22.1875 43.046875 
Q 18.109375 38.09375 18.109375 28.8125 
L 18.109375 0 
L 9.078125 0 
L 9.078125 54.6875 
L 18.109375 54.6875 
L 18.109375 46.1875 
Q 20.953125 51.171875 25.484375 53.578125 
Q 30.03125 56 36.53125 56 
Q 37.453125 56 38.578125 55.875 
Q 39.703125 55.765625 41.0625 55.515625 
z
" id="DejaVuSans-114"/>
       <path d="M 52 44.1875 
Q 55.375 50.25 60.0625 53.125 
Q 64.75 56 71.09375 56 
Q 79.640625 56 84.28125 50.015625 
Q 88.921875 44.046875 88.921875 33.015625 
L 88.921875 0 
L 79.890625 0 
L 79.890625 32.71875 
Q 79.890625 40.578125 77.09375 44.375 
Q 74.3125 48.1875 68.609375 48.1875 
Q 61.625 48.1875 57.5625 43.546875 
Q 53.515625 38.921875 53.515625 30.90625 
L 53.515625 0 
L 44.484375 0 
L 44.484375 32.71875 
Q 44.484375 40.625 41.703125 44.40625 
Q 38.921875 48.1875 33.109375 48.1875 
Q 26.21875 48.1875 22.15625 43.53125 
Q 18.109375 38.875 18.109375 30.90625 
L 18.109375 0 
L 9.078125 0 
L 9.078125 54.6875 
L 18.109375 54.6875 
L 18.109375 46.1875 
Q 21.1875 51.21875 25.484375 53.609375 
Q 29.78125 56 35.6875 56 
Q 41.65625 56 45.828125 52.96875 
Q 50 49.953125 52 44.1875 
z
" id="DejaVuSans-109"/>
       <path d="M 9.421875 54.6875 
L 18.40625 54.6875 
L 18.40625 0 
L 9.421875 0 
z
M 9.421875 75.984375 
L 18.40625 75.984375 
L 18.40625 64.59375 
L 9.421875 64.59375 
z
" id="DejaVuSans-105"/>
       <path d="M 54.890625 33.015625 
L 54.890625 0 
L 45.90625 0 
L 45.90625 32.71875 
Q 45.90625 40.484375 42.875 44.328125 
Q 39.84375 48.1875 33.796875 48.1875 
Q 26.515625 48.1875 22.3125 43.546875 
Q 18.109375 38.921875 18.109375 30.90625 
L 18.109375 0 
L 9.078125 0 
L 9.078125 54.6875 
L 18.109375 54.6875 
L 18.109375 46.1875 
Q 21.34375 51.125 25.703125 53.5625 
Q 30.078125 56 35.796875 56 
Q 45.21875 56 50.046875 50.171875 
Q 54.890625 44.34375 54.890625 33.015625 
z
" id="DejaVuSans-110"/>
       <path d="M 34.28125 27.484375 
Q 23.390625 27.484375 19.1875 25 
Q 14.984375 22.515625 14.984375 16.5 
Q 14.984375 11.71875 18.140625 8.90625 
Q 21.296875 6.109375 26.703125 6.109375 
Q 34.1875 6.109375 38.703125 11.40625 
Q 43.21875 16.703125 43.21875 25.484375 
L 43.21875 27.484375 
z
M 52.203125 31.203125 
L 52.203125 0 
L 43.21875 0 
L 43.21875 8.296875 
Q 40.140625 3.328125 35.546875 0.953125 
Q 30.953125 -1.421875 24.3125 -1.421875 
Q 15.921875 -1.421875 10.953125 3.296875 
Q 6 8.015625 6 15.921875 
Q 6 25.140625 12.171875 29.828125 
Q 18.359375 34.515625 30.609375 34.515625 
L 43.21875 34.515625 
L 43.21875 35.40625 
Q 43.21875 41.609375 39.140625 45 
Q 35.0625 48.390625 27.6875 48.390625 
Q 23 48.390625 18.546875 47.265625 
Q 14.109375 46.140625 10.015625 43.890625 
L 10.015625 52.203125 
Q 14.9375 54.109375 19.578125 55.046875 
Q 24.21875 56 28.609375 56 
Q 40.484375 56 46.34375 49.84375 
Q 52.203125 43.703125 52.203125 31.203125 
z
" id="DejaVuSans-97"/>
       <path d="M 9.421875 75.984375 
L 18.40625 75.984375 
L 18.40625 0 
L 9.421875 0 
z
" id="DejaVuSans-108"/>
      </defs>
      <use xlink:href="#DejaVuSans-84"/>
      <use x="44.083984" xlink:href="#DejaVuSans-101"/>
      <use x="105.607422" xlink:href="#DejaVuSans-114"/>
      <use x="144.970703" xlink:href="#DejaVuSans-109"/>
      <use x="242.382812" xlink:href="#DejaVuSans-105"/>
      <use x="270.166016" xlink:href="#DejaVuSans-110"/>
      <use x="333.544922" xlink:href="#DejaVuSans-97"/>
      <use x="394.824219" xlink:href="#DejaVuSans-108"/>
     </g>
    </g>
   </g>
   <g id="text_7">
    <g id="patch_8">
     <path clip-path="url(#p77c0fa020a)" d="M 266.739513 368.508419 
L 271.788608 368.264166 
Q 274.185805 368.1482 274.069839 365.751003 
L 273.695728 358.017547 
Q 273.579762 355.62035 271.182565 355.736316 
L 266.13347 355.98057 
Q 263.736273 356.096536 263.852239 358.493732 
L 264.22635 366.227189 
Q 264.342316 368.624385 266.739513 368.508419 
z
" style="fill:#ffffff;stroke:#ffffff;stroke-linejoin:miter;"/>
    </g>
    <g clip-path="url(#p77c0fa020a)">
     <!-- E -->
     <g transform="translate(266.543156 364.449416)rotate(-2.769563)scale(0.08 -0.08)">
      <defs>
       <path d="M 9.8125 72.90625 
L 55.90625 72.90625 
L 55.90625 64.59375 
L 19.671875 64.59375 
L 19.671875 43.015625 
L 54.390625 43.015625 
L 54.390625 34.71875 
L 19.671875 34.71875 
L 19.671875 8.296875 
L 56.78125 8.296875 
L 56.78125 0 
L 9.8125 0 
z
" id="DejaVuSans-69"/>
      </defs>
      <use xlink:href="#DejaVuSans-69"/>
     </g>
    </g>
   </g>
   <g id="text_8">
    <g id="patch_9">
     <path clip-path="url(#p77c0fa020a)" d="M 291.483416 368.531865 
L 296.529604 368.233505 
Q 298.92542 368.09185 298.783765 365.696034 
L 298.326781 357.967032 
Q 298.185127 355.571216 295.789311 355.712871 
L 290.743124 356.011231 
Q 288.347308 356.152885 288.488962 358.548701 
L 288.945946 366.277703 
Q 289.087601 368.673519 291.483416 368.531865 
z
" style="fill:#ffffff;stroke:#ffffff;stroke-linejoin:miter;"/>
    </g>
    <g clip-path="url(#p77c0fa020a)">
     <!-- E -->
     <g transform="translate(291.243563 364.475199)rotate(-3.383722)scale(0.08 -0.08)">
      <use xlink:href="#DejaVuSans-69"/>
     </g>
    </g>
   </g>
   <g id="text_9">
    <g id="patch_10">
     <path clip-path="url(#p77c0fa020a)" d="M 316.001961 368.587295 
L 321.57214 368.163856 
Q 323.965235 367.981935 323.783314 365.58884 
L 323.196431 357.868615 
Q 323.014511 355.47552 320.621415 355.65744 
L 315.051237 356.080879 
Q 312.658142 356.2628 312.840062 358.655895 
L 313.426945 366.37612 
Q 313.608866 368.769215 316.001961 368.587295 
z
" style="fill:#ffffff;stroke:#ffffff;stroke-linejoin:miter;"/>
    </g>
    <g clip-path="url(#p77c0fa020a)">
     <!-- C -->
     <g transform="translate(315.693928 364.535236)rotate(-4.347203)scale(0.08 -0.08)">
      <defs>
       <path d="M 64.40625 67.28125 
L 64.40625 56.890625 
Q 59.421875 61.53125 53.78125 63.8125 
Q 48.140625 66.109375 41.796875 66.109375 
Q 29.296875 66.109375 22.65625 58.46875 
Q 16.015625 50.828125 16.015625 36.375 
Q 16.015625 21.96875 22.65625 14.328125 
Q 29.296875 6.6875 41.796875 6.6875 
Q 48.140625 6.6875 53.78125 8.984375 
Q 59.421875 11.28125 64.40625 15.921875 
L 64.40625 5.609375 
Q 59.234375 2.09375 53.4375 0.328125 
Q 47.65625 -1.421875 41.21875 -1.421875 
Q 24.65625 -1.421875 15.125 8.703125 
Q 5.609375 18.84375 5.609375 36.375 
Q 5.609375 53.953125 15.125 64.078125 
Q 24.65625 74.21875 41.21875 74.21875 
Q 47.75 74.21875 53.53125 72.484375 
Q 59.328125 70.75 64.40625 67.28125 
z
" id="DejaVuSans-67"/>
      </defs>
      <use xlink:href="#DejaVuSans-67"/>
     </g>
    </g>
   </g>
   <g id="text_10">
    <g id="patch_11">
     <path clip-path="url(#p77c0fa020a)" d="M 340.873252 368.653994 
L 346.428132 368.062807 
Q 348.814654 367.808818 348.560665 365.422296 
L 347.741285 357.723275 
Q 347.487296 355.336752 345.100774 355.590742 
L 339.545894 356.181928 
Q 337.159372 356.435917 337.413361 358.82244 
L 338.232741 366.521461 
Q 338.48673 368.907983 340.873252 368.653994 
z
" style="fill:#ffffff;stroke:#ffffff;stroke-linejoin:miter;"/>
    </g>
    <g clip-path="url(#p77c0fa020a)">
     <!-- C -->
     <g transform="translate(340.44319 364.613064)rotate(-6.074922)scale(0.08 -0.08)">
      <use xlink:href="#DejaVuSans-67"/>
     </g>
    </g>
   </g>
   <g id="text_11">
    <g id="patch_12">
     <path clip-path="url(#p77c0fa020a)" d="M 366.268966 368.738662 
L 371.246273 367.8558 
Q 373.609386 367.436637 373.190222 365.073524 
L 371.837985 357.450023 
Q 371.418822 355.08691 369.055709 355.506073 
L 364.078403 356.388936 
Q 361.71529 356.808099 362.134453 359.171212 
L 363.48669 366.794712 
Q 363.905853 369.157825 366.268966 368.738662 
z
" style="fill:#ffffff;stroke:#ffffff;stroke-linejoin:miter;"/>
    </g>
    <g clip-path="url(#p77c0fa020a)">
     <!-- E -->
     <g transform="translate(365.559227 364.73737)rotate(-10.058365)scale(0.08 -0.08)">
      <use xlink:href="#DejaVuSans-69"/>
     </g>
    </g>
   </g>
   <g id="text_12">
    <g id="patch_13">
     <path clip-path="url(#p77c0fa020a)" d="M 393.052403 368.845907 
L 397.51492 366.471256 
Q 399.633623 365.343826 398.506192 363.225123 
L 394.869055 356.390101 
Q 393.741624 354.271398 391.622921 355.398829 
L 387.160404 357.773479 
Q 385.041702 358.90091 386.169132 361.019612 
L 389.80627 367.854635 
Q 390.933701 369.973337 393.052403 368.845907 
z
" style="fill:#ffffff;stroke:#ffffff;stroke-linejoin:miter;"/>
    </g>
    <g clip-path="url(#p77c0fa020a)">
     <!-- E -->
     <g transform="translate(391.143405 365.258458)rotate(-28.018895)scale(0.08 -0.08)">
      <use xlink:href="#DejaVuSans-69"/>
     </g>
    </g>
   </g>
   <g id="text_13">
    <g id="patch_14">
     <path clip-path="url(#p77c0fa020a)" d="M 411.835729 366.471256 
L 416.298246 368.845907 
Q 418.416949 369.973337 419.544379 367.854635 
L 423.181517 361.019612 
Q 424.308948 358.90091 422.190245 357.773479 
L 417.727728 355.398829 
Q 415.609025 354.271398 414.481595 356.390101 
L 410.844457 363.225123 
Q 409.717026 365.343826 411.835729 366.471256 
z
" style="fill:#ffffff;stroke:#ffffff;stroke-linejoin:miter;"/>
    </g>
    <g clip-path="url(#p77c0fa020a)">
     <!-- E -->
     <g transform="translate(413.744727 362.883807)rotate(-331.981105)scale(0.08 -0.08)">
      <use xlink:href="#DejaVuSans-69"/>
     </g>
    </g>
   </g>
   <g id="text_14">
    <g id="patch_15">
     <path clip-path="url(#p77c0fa020a)" d="M 438.104377 367.8558 
L 443.081683 368.738662 
Q 445.444796 369.157825 445.863959 366.794712 
L 447.216197 359.171212 
Q 447.63536 356.808099 445.272247 356.388936 
L 440.29494 355.506073 
Q 437.931827 355.08691 437.512664 357.450023 
L 436.160427 365.073524 
Q 435.741264 367.436637 438.104377 367.8558 
z
" style="fill:#ffffff;stroke:#ffffff;stroke-linejoin:miter;"/>
    </g>
    <g clip-path="url(#p77c0fa020a)">
     <!-- E -->
     <g transform="translate(438.814116 363.854508)rotate(-349.941635)scale(0.08 -0.08)">
      <use xlink:href="#DejaVuSans-69"/>
     </g>
    </g>
   </g>
   <g id="text_15">
    <g id="patch_16">
     <path clip-path="url(#p77c0fa020a)" d="M 463.186651 368.090918 
L 468.213264 368.625883 
Q 470.599786 368.879872 470.853775 366.49335 
L 471.673155 358.794329 
Q 471.927144 356.407806 469.540622 356.153817 
L 464.514009 355.618852 
Q 462.127487 355.364863 461.873497 357.751386 
L 461.054117 365.450406 
Q 460.800128 367.836929 463.186651 368.090918 
z
" style="fill:#ffffff;stroke:#ffffff;stroke-linejoin:miter;"/>
    </g>
    <g clip-path="url(#p77c0fa020a)">
     <!-- E -->
     <g transform="translate(463.616713 364.049989)rotate(-353.925078)scale(0.08 -0.08)">
      <use xlink:href="#DejaVuSans-69"/>
     </g>
    </g>
   </g>
   <g id="text_16">
    <g id="patch_17">
     <path clip-path="url(#p77c0fa020a)" d="M 488.04337 368.18399 
L 493.083827 368.567161 
Q 495.476923 368.749081 495.658843 366.355986 
L 496.245726 358.635761 
Q 496.427647 356.242666 494.034552 356.060745 
L 488.994095 355.677575 
Q 486.601 355.495654 486.419079 357.88875 
L 485.832196 365.608975 
Q 485.650275 368.00207 488.04337 368.18399 
z
" style="fill:#ffffff;stroke:#ffffff;stroke-linejoin:miter;"/>
    </g>
    <g clip-path="url(#p77c0fa020a)">
     <!-- E -->
     <g transform="translate(488.351404 364.131932)rotate(-355.652797)scale(0.08 -0.08)">
      <use xlink:href="#DejaVuSans-69"/>
     </g>
    </g>
   </g>
   <g id="text_17">
    <g id="patch_18">
     <path clip-path="url(#p77c0fa020a)" d="M 512.821046 368.233505 
L 517.867233 368.531865 
Q 520.263049 368.673519 520.404703 366.277703 
L 520.861687 358.548701 
Q 521.003342 356.152885 518.607526 356.011231 
L 513.561339 355.712871 
Q 511.165523 355.571216 511.023868 357.967032 
L 510.566884 365.696034 
Q 510.42523 368.09185 512.821046 368.233505 
z
" style="fill:#ffffff;stroke:#ffffff;stroke-linejoin:miter;"/>
    </g>
    <g clip-path="url(#p77c0fa020a)">
     <!-- E -->
     <g transform="translate(513.060899 364.176839)rotate(-356.616278)scale(0.08 -0.08)">
      <use xlink:href="#DejaVuSans-69"/>
     </g>
    </g>
   </g>
   <g id="text_18">
    <g id="patch_19">
     <path clip-path="url(#p77c0fa020a)" d="M 537.296726 368.251331 
L 542.876451 368.521254 
Q 545.273648 368.63722 545.389614 366.240023 
L 545.763725 358.506567 
Q 545.879691 356.10937 543.482495 355.993404 
L 537.90277 355.723481 
Q 535.505573 355.607515 535.389607 358.004712 
L 535.015496 365.738168 
Q 534.89953 368.135365 537.296726 368.251331 
z
" style="fill:#ffffff;stroke:#ffffff;stroke-linejoin:miter;"/>
    </g>
    <g clip-path="url(#p77c0fa020a)">
     <!-- C -->
     <g transform="translate(537.493083 364.192328)rotate(-357.230437)scale(0.08 -0.08)">
      <use xlink:href="#DejaVuSans-67"/>
     </g>
    </g>
   </g>
   <g id="text_19">
    <g id="patch_20">
     <path clip-path="url(#p77c0fa020a)" d="M 719.183295 358.34916 
L 719.183295 392.15666 
Q 719.183295 394.55666 721.583295 394.55666 
L 729.325795 394.55666 
Q 731.725795 394.55666 731.725795 392.15666 
L 731.725795 358.34916 
Q 731.725795 355.94916 729.325795 355.94916 
L 721.583295 355.94916 
Q 719.183295 355.94916 719.183295 358.34916 
z
" style="fill:#ffffff;stroke:#ffffff;stroke-linejoin:miter;"/>
    </g>
    <g clip-path="url(#p77c0fa020a)">
     <!-- Terminal -->
     <g transform="translate(723.247045 358.34916)rotate(-270)scale(0.08 -0.08)">
      <use xlink:href="#DejaVuSans-84"/>
      <use x="44.083984" xlink:href="#DejaVuSans-101"/>
      <use x="105.607422" xlink:href="#DejaVuSans-114"/>
      <use x="144.970703" xlink:href="#DejaVuSans-109"/>
      <use x="242.382812" xlink:href="#DejaVuSans-105"/>
      <use x="270.166016" xlink:href="#DejaVuSans-110"/>
      <use x="333.544922" xlink:href="#DejaVuSans-97"/>
      <use x="394.824219" xlink:href="#DejaVuSans-108"/>
     </g>
    </g>
   </g>
   <g id="text_20">
    <g id="patch_21">
     <path clip-path="url(#p77c0fa020a)" d="M 28.274205 51.785955 
L 28.274205 56.609705 
Q 28.274205 59.009705 30.674205 59.009705 
L 38.416705 59.009705 
Q 40.816705 59.009705 40.816705 56.609705 
L 40.816705 51.785955 
Q 40.816705 49.385955 38.416705 49.385955 
L 30.674205 49.385955 
Q 28.274205 49.385955 28.274205 51.785955 
z
" style="fill:#ffffff;stroke:#ffffff;stroke-linejoin:miter;"/>
    </g>
    <g clip-path="url(#p77c0fa020a)">
     <!-- P -->
     <g transform="translate(32.337955 51.785955)rotate(-270)scale(0.08 -0.08)">
      <use xlink:href="#DejaVuSans-80"/>
     </g>
    </g>
   </g>
   <g id="text_21">
    <g id="patch_22">
     <path clip-path="url(#p77c0fa020a)" d="M 126.975503 358.34916 
L 126.975503 392.15666 
Q 126.975503 394.55666 129.375503 394.55666 
L 137.118003 394.55666 
Q 139.518003 394.55666 139.518003 392.15666 
L 139.518003 358.34916 
Q 139.518003 355.94916 137.118003 355.94916 
L 129.375503 355.94916 
Q 126.975503 355.94916 126.975503 358.34916 
z
" style="fill:#ffffff;stroke:#ffffff;stroke-linejoin:miter;"/>
    </g>
    <g clip-path="url(#p77c0fa020a)">
     <!-- Terminal -->
     <g transform="translate(131.039253 358.34916)rotate(-270)scale(0.08 -0.08)">
      <use xlink:href="#DejaVuSans-84"/>
      <use x="44.083984" xlink:href="#DejaVuSans-101"/>
      <use x="105.607422" xlink:href="#DejaVuSans-114"/>
      <use x="144.970703" xlink:href="#DejaVuSans-109"/>
      <use x="242.382812" xlink:href="#DejaVuSans-105"/>
      <use x="270.166016" xlink:href="#DejaVuSans-110"/>
      <use x="333.544922" xlink:href="#DejaVuSans-97"/>
      <use x="394.824219" xlink:href="#DejaVuSans-108"/>
     </g>
    </g>
   </g>
   <g id="text_22">
    <g id="patch_23">
     <path clip-path="url(#p77c0fa020a)" d="M 176.326153 358.34916 
L 176.326153 392.15666 
Q 176.326153 394.55666 178.726153 394.55666 
L 186.468653 394.55666 
Q 188.868653 394.55666 188.868653 392.15666 
L 188.868653 358.34916 
Q 188.868653 355.94916 186.468653 355.94916 
L 178.726153 355.94916 
Q 176.326153 355.94916 176.326153 358.34916 
z
" style="fill:#ffffff;stroke:#ffffff;stroke-linejoin:miter;"/>
    </g>
    <g clip-path="url(#p77c0fa020a)">
     <!-- Terminal -->
     <g transform="translate(180.389903 358.34916)rotate(-270)scale(0.08 -0.08)">
      <use xlink:href="#DejaVuSans-84"/>
      <use x="44.083984" xlink:href="#DejaVuSans-101"/>
      <use x="105.607422" xlink:href="#DejaVuSans-114"/>
      <use x="144.970703" xlink:href="#DejaVuSans-109"/>
      <use x="242.382812" xlink:href="#DejaVuSans-105"/>
      <use x="270.166016" xlink:href="#DejaVuSans-110"/>
      <use x="333.544922" xlink:href="#DejaVuSans-97"/>
      <use x="394.824219" xlink:href="#DejaVuSans-108"/>
     </g>
    </g>
   </g>
   <g id="text_23">
    <g id="patch_24">
     <path clip-path="url(#p77c0fa020a)" d="M 225.676802 358.34916 
L 225.676802 392.15666 
Q 225.676802 394.55666 228.076802 394.55666 
L 235.819302 394.55666 
Q 238.219302 394.55666 238.219302 392.15666 
L 238.219302 358.34916 
Q 238.219302 355.94916 235.819302 355.94916 
L 228.076802 355.94916 
Q 225.676802 355.94916 225.676802 358.34916 
z
" style="fill:#ffffff;stroke:#ffffff;stroke-linejoin:miter;"/>
    </g>
    <g clip-path="url(#p77c0fa020a)">
     <!-- Terminal -->
     <g transform="translate(229.740552 358.34916)rotate(-270)scale(0.08 -0.08)">
      <use xlink:href="#DejaVuSans-84"/>
      <use x="44.083984" xlink:href="#DejaVuSans-101"/>
      <use x="105.607422" xlink:href="#DejaVuSans-114"/>
      <use x="144.970703" xlink:href="#DejaVuSans-109"/>
      <use x="242.382812" xlink:href="#DejaVuSans-105"/>
      <use x="270.166016" xlink:href="#DejaVuSans-110"/>
      <use x="333.544922" xlink:href="#DejaVuSans-97"/>
      <use x="394.824219" xlink:href="#DejaVuSans-108"/>
     </g>
    </g>
   </g>
   <g id="text_24">
    <g id="patch_25">
     <path clip-path="url(#p77c0fa020a)" d="M 275.027451 358.34916 
L 275.027451 392.15666 
Q 275.027451 394.55666 277.427451 394.55666 
L 285.169951 394.55666 
Q 287.569951 394.55666 287.569951 392.15666 
L 287.569951 358.34916 
Q 287.569951 355.94916 285.169951 355.94916 
L 277.427451 355.94916 
Q 275.027451 355.94916 275.027451 358.34916 
z
" style="fill:#ffffff;stroke:#ffffff;stroke-linejoin:miter;"/>
    </g>
    <g clip-path="url(#p77c0fa020a)">
     <!-- Terminal -->
     <g transform="translate(279.091201 358.34916)rotate(-270)scale(0.08 -0.08)">
      <use xlink:href="#DejaVuSans-84"/>
      <use x="44.083984" xlink:href="#DejaVuSans-101"/>
      <use x="105.607422" xlink:href="#DejaVuSans-114"/>
      <use x="144.970703" xlink:href="#DejaVuSans-109"/>
      <use x="242.382812" xlink:href="#DejaVuSans-105"/>
      <use x="270.166016" xlink:href="#DejaVuSans-110"/>
      <use x="333.544922" xlink:href="#DejaVuSans-97"/>
      <use x="394.824219" xlink:href="#DejaVuSans-108"/>
     </g>
    </g>
   </g>
   <g id="text_25">
    <g id="patch_26">
     <path clip-path="url(#p77c0fa020a)" d="M 324.378101 358.34916 
L 324.378101 392.15666 
Q 324.378101 394.55666 326.778101 394.55666 
L 334.520601 394.55666 
Q 336.920601 394.55666 336.920601 392.15666 
L 336.920601 358.34916 
Q 336.920601 355.94916 334.520601 355.94916 
L 326.778101 355.94916 
Q 324.378101 355.94916 324.378101 358.34916 
z
" style="fill:#ffffff;stroke:#ffffff;stroke-linejoin:miter;"/>
    </g>
    <g clip-path="url(#p77c0fa020a)">
     <!-- Terminal -->
     <g transform="translate(328.441851 358.34916)rotate(-270)scale(0.08 -0.08)">
      <use xlink:href="#DejaVuSans-84"/>
      <use x="44.083984" xlink:href="#DejaVuSans-101"/>
      <use x="105.607422" xlink:href="#DejaVuSans-114"/>
      <use x="144.970703" xlink:href="#DejaVuSans-109"/>
      <use x="242.382812" xlink:href="#DejaVuSans-105"/>
      <use x="270.166016" xlink:href="#DejaVuSans-110"/>
      <use x="333.544922" xlink:href="#DejaVuSans-97"/>
      <use x="394.824219" xlink:href="#DejaVuSans-108"/>
     </g>
    </g>
   </g>
   <g id="text_26">
    <g id="patch_27">
     <path clip-path="url(#p77c0fa020a)" d="M 373.72875 358.34916 
L 373.72875 392.15666 
Q 373.72875 394.55666 376.12875 394.55666 
L 383.87125 394.55666 
Q 386.27125 394.55666 386.27125 392.15666 
L 386.27125 358.34916 
Q 386.27125 355.94916 383.87125 355.94916 
L 376.12875 355.94916 
Q 373.72875 355.94916 373.72875 358.34916 
z
" style="fill:#ffffff;stroke:#ffffff;stroke-linejoin:miter;"/>
    </g>
    <g clip-path="url(#p77c0fa020a)">
     <!-- Terminal -->
     <g transform="translate(377.7925 358.34916)rotate(-270)scale(0.08 -0.08)">
      <use xlink:href="#DejaVuSans-84"/>
      <use x="44.083984" xlink:href="#DejaVuSans-101"/>
      <use x="105.607422" xlink:href="#DejaVuSans-114"/>
      <use x="144.970703" xlink:href="#DejaVuSans-109"/>
      <use x="242.382812" xlink:href="#DejaVuSans-105"/>
      <use x="270.166016" xlink:href="#DejaVuSans-110"/>
      <use x="333.544922" xlink:href="#DejaVuSans-97"/>
      <use x="394.824219" xlink:href="#DejaVuSans-108"/>
     </g>
    </g>
   </g>
   <g id="text_27">
    <g id="patch_28">
     <path clip-path="url(#p77c0fa020a)" d="M 423.079399 358.34916 
L 423.079399 392.15666 
Q 423.079399 394.55666 425.479399 394.55666 
L 433.221899 394.55666 
Q 435.621899 394.55666 435.621899 392.15666 
L 435.621899 358.34916 
Q 435.621899 355.94916 433.221899 355.94916 
L 425.479399 355.94916 
Q 423.079399 355.94916 423.079399 358.34916 
z
" style="fill:#ffffff;stroke:#ffffff;stroke-linejoin:miter;"/>
    </g>
    <g clip-path="url(#p77c0fa020a)">
     <!-- Terminal -->
     <g transform="translate(427.143149 358.34916)rotate(-270)scale(0.08 -0.08)">
      <use xlink:href="#DejaVuSans-84"/>
      <use x="44.083984" xlink:href="#DejaVuSans-101"/>
      <use x="105.607422" xlink:href="#DejaVuSans-114"/>
      <use x="144.970703" xlink:href="#DejaVuSans-109"/>
      <use x="242.382812" xlink:href="#DejaVuSans-105"/>
      <use x="270.166016" xlink:href="#DejaVuSans-110"/>
      <use x="333.544922" xlink:href="#DejaVuSans-97"/>
      <use x="394.824219" xlink:href="#DejaVuSans-108"/>
     </g>
    </g>
   </g>
   <g id="text_28">
    <g id="patch_29">
     <path clip-path="url(#p77c0fa020a)" d="M 472.430049 358.34916 
L 472.430049 392.15666 
Q 472.430049 394.55666 474.830049 394.55666 
L 482.572549 394.55666 
Q 484.972549 394.55666 484.972549 392.15666 
L 484.972549 358.34916 
Q 484.972549 355.94916 482.572549 355.94916 
L 474.830049 355.94916 
Q 472.430049 355.94916 472.430049 358.34916 
z
" style="fill:#ffffff;stroke:#ffffff;stroke-linejoin:miter;"/>
    </g>
    <g clip-path="url(#p77c0fa020a)">
     <!-- Terminal -->
     <g transform="translate(476.493799 358.34916)rotate(-270)scale(0.08 -0.08)">
      <use xlink:href="#DejaVuSans-84"/>
      <use x="44.083984" xlink:href="#DejaVuSans-101"/>
      <use x="105.607422" xlink:href="#DejaVuSans-114"/>
      <use x="144.970703" xlink:href="#DejaVuSans-109"/>
      <use x="242.382812" xlink:href="#DejaVuSans-105"/>
      <use x="270.166016" xlink:href="#DejaVuSans-110"/>
      <use x="333.544922" xlink:href="#DejaVuSans-97"/>
      <use x="394.824219" xlink:href="#DejaVuSans-108"/>
     </g>
    </g>
   </g>
   <g id="text_29">
    <g id="patch_30">
     <path clip-path="url(#p77c0fa020a)" d="M 521.780698 358.34916 
L 521.780698 392.15666 
Q 521.780698 394.55666 524.180698 394.55666 
L 531.923198 394.55666 
Q 534.323198 394.55666 534.323198 392.15666 
L 534.323198 358.34916 
Q 534.323198 355.94916 531.923198 355.94916 
L 524.180698 355.94916 
Q 521.780698 355.94916 521.780698 358.34916 
z
" style="fill:#ffffff;stroke:#ffffff;stroke-linejoin:miter;"/>
    </g>
    <g clip-path="url(#p77c0fa020a)">
     <!-- Terminal -->
     <g transform="translate(525.844448 358.34916)rotate(-270)scale(0.08 -0.08)">
      <use xlink:href="#DejaVuSans-84"/>
      <use x="44.083984" xlink:href="#DejaVuSans-101"/>
      <use x="105.607422" xlink:href="#DejaVuSans-114"/>
      <use x="144.970703" xlink:href="#DejaVuSans-109"/>
      <use x="242.382812" xlink:href="#DejaVuSans-105"/>
      <use x="270.166016" xlink:href="#DejaVuSans-110"/>
      <use x="333.544922" xlink:href="#DejaVuSans-97"/>
      <use x="394.824219" xlink:href="#DejaVuSans-108"/>
     </g>
    </g>
   </g>
   <g id="text_30">
    <g id="patch_31">
     <path clip-path="url(#p77c0fa020a)" d="M 571.131347 358.34916 
L 571.131347 392.15666 
Q 571.131347 394.55666 573.531347 394.55666 
L 581.273847 394.55666 
Q 583.673847 394.55666 583.673847 392.15666 
L 583.673847 358.34916 
Q 583.673847 355.94916 581.273847 355.94916 
L 573.531347 355.94916 
Q 571.131347 355.94916 571.131347 358.34916 
z
" style="fill:#ffffff;stroke:#ffffff;stroke-linejoin:miter;"/>
    </g>
    <g clip-path="url(#p77c0fa020a)">
     <!-- Terminal -->
     <g transform="translate(575.195097 358.34916)rotate(-270)scale(0.08 -0.08)">
      <use xlink:href="#DejaVuSans-84"/>
      <use x="44.083984" xlink:href="#DejaVuSans-101"/>
      <use x="105.607422" xlink:href="#DejaVuSans-114"/>
      <use x="144.970703" xlink:href="#DejaVuSans-109"/>
      <use x="242.382812" xlink:href="#DejaVuSans-105"/>
      <use x="270.166016" xlink:href="#DejaVuSans-110"/>
      <use x="333.544922" xlink:href="#DejaVuSans-97"/>
      <use x="394.824219" xlink:href="#DejaVuSans-108"/>
     </g>
    </g>
   </g>
   <g id="text_31">
    <g id="patch_32">
     <path clip-path="url(#p77c0fa020a)" d="M 620.481997 358.34916 
L 620.481997 392.15666 
Q 620.481997 394.55666 622.881997 394.55666 
L 630.624497 394.55666 
Q 633.024497 394.55666 633.024497 392.15666 
L 633.024497 358.34916 
Q 633.024497 355.94916 630.624497 355.94916 
L 622.881997 355.94916 
Q 620.481997 355.94916 620.481997 358.34916 
z
" style="fill:#ffffff;stroke:#ffffff;stroke-linejoin:miter;"/>
    </g>
    <g clip-path="url(#p77c0fa020a)">
     <!-- Terminal -->
     <g transform="translate(624.545747 358.34916)rotate(-270)scale(0.08 -0.08)">
      <use xlink:href="#DejaVuSans-84"/>
      <use x="44.083984" xlink:href="#DejaVuSans-101"/>
      <use x="105.607422" xlink:href="#DejaVuSans-114"/>
      <use x="144.970703" xlink:href="#DejaVuSans-109"/>
      <use x="242.382812" xlink:href="#DejaVuSans-105"/>
      <use x="270.166016" xlink:href="#DejaVuSans-110"/>
      <use x="333.544922" xlink:href="#DejaVuSans-97"/>
      <use x="394.824219" xlink:href="#DejaVuSans-108"/>
     </g>
    </g>
   </g>
   <g id="text_32">
    <g id="patch_33">
     <path clip-path="url(#p77c0fa020a)" d="M 669.832646 358.34916 
L 669.832646 392.15666 
Q 669.832646 394.55666 672.232646 394.55666 
L 679.975146 394.55666 
Q 682.375146 394.55666 682.375146 392.15666 
L 682.375146 358.34916 
Q 682.375146 355.94916 679.975146 355.94916 
L 672.232646 355.94916 
Q 669.832646 355.94916 669.832646 358.34916 
z
" style="fill:#ffffff;stroke:#ffffff;stroke-linejoin:miter;"/>
    </g>
    <g clip-path="url(#p77c0fa020a)">
     <!-- Terminal -->
     <g transform="translate(673.896396 358.34916)rotate(-270)scale(0.08 -0.08)">
      <use xlink:href="#DejaVuSans-84"/>
      <use x="44.083984" xlink:href="#DejaVuSans-101"/>
      <use x="105.607422" xlink:href="#DejaVuSans-114"/>
      <use x="144.970703" xlink:href="#DejaVuSans-109"/>
      <use x="242.382812" xlink:href="#DejaVuSans-105"/>
      <use x="270.166016" xlink:href="#DejaVuSans-110"/>
      <use x="333.544922" xlink:href="#DejaVuSans-97"/>
      <use x="394.824219" xlink:href="#DejaVuSans-108"/>
     </g>
    </g>
   </g>
   <g id="text_33">
    <g id="patch_34">
     <path clip-path="url(#p77c0fa020a)" d="M 28.274205 74.654021 
L 28.274205 79.477771 
Q 28.274205 81.877771 30.674205 81.877771 
L 38.416705 81.877771 
Q 40.816705 81.877771 40.816705 79.477771 
L 40.816705 74.654021 
Q 40.816705 72.254021 38.416705 72.254021 
L 30.674205 72.254021 
Q 28.274205 72.254021 28.274205 74.654021 
z
" style="fill:#ffffff;stroke:#ffffff;stroke-linejoin:miter;"/>
    </g>
    <g clip-path="url(#p77c0fa020a)">
     <!-- P -->
     <g transform="translate(32.337955 74.654021)rotate(-270)scale(0.08 -0.08)">
      <use xlink:href="#DejaVuSans-80"/>
     </g>
    </g>
   </g>
   <g id="text_34">
    <g id="patch_35">
     <path clip-path="url(#p77c0fa020a)" d="M 28.274205 96.602852 
L 28.274205 101.426602 
Q 28.274205 103.826602 30.674205 103.826602 
L 38.416705 103.826602 
Q 40.816705 103.826602 40.816705 101.426602 
L 40.816705 96.602852 
Q 40.816705 94.202852 38.416705 94.202852 
L 30.674205 94.202852 
Q 28.274205 94.202852 28.274205 96.602852 
z
" style="fill:#ffffff;stroke:#ffffff;stroke-linejoin:miter;"/>
    </g>
    <g clip-path="url(#p77c0fa020a)">
     <!-- P -->
     <g transform="translate(32.337955 96.602852)rotate(-270)scale(0.08 -0.08)">
      <use xlink:href="#DejaVuSans-80"/>
     </g>
    </g>
   </g>
   <g id="text_35">
    <g id="patch_36">
     <path clip-path="url(#p77c0fa020a)" d="M 28.274205 117.68544 
L 28.274205 122.50919 
Q 28.274205 124.90919 30.674205 124.90919 
L 38.416705 124.90919 
Q 40.816705 124.90919 40.816705 122.50919 
L 40.816705 117.68544 
Q 40.816705 115.28544 38.416705 115.28544 
L 30.674205 115.28544 
Q 28.274205 115.28544 28.274205 117.68544 
z
" style="fill:#ffffff;stroke:#ffffff;stroke-linejoin:miter;"/>
    </g>
    <g clip-path="url(#p77c0fa020a)">
     <!-- P -->
     <g transform="translate(32.337955 117.68544)rotate(-270)scale(0.08 -0.08)">
      <use xlink:href="#DejaVuSans-80"/>
     </g>
    </g>
   </g>
   <g id="text_36">
    <g id="patch_37">
     <path clip-path="url(#p77c0fa020a)" d="M 28.274205 137.951985 
L 28.274205 142.775735 
Q 28.274205 145.175735 30.674205 145.175735 
L 38.416705 145.175735 
Q 40.816705 145.175735 40.816705 142.775735 
L 40.816705 137.951985 
Q 40.816705 135.551985 38.416705 135.551985 
L 30.674205 135.551985 
Q 28.274205 135.551985 28.274205 137.951985 
z
" style="fill:#ffffff;stroke:#ffffff;stroke-linejoin:miter;"/>
    </g>
    <g clip-path="url(#p77c0fa020a)">
     <!-- P -->
     <g transform="translate(32.337955 137.951985)rotate(-270)scale(0.08 -0.08)">
      <use xlink:href="#DejaVuSans-80"/>
     </g>
    </g>
   </g>
   <g id="text_37">
    <g id="patch_38">
     <path clip-path="url(#p77c0fa020a)" d="M 28.274205 157.450135 
L 28.274205 162.273885 
Q 28.274205 164.673885 30.674205 164.673885 
L 38.416705 164.673885 
Q 40.816705 164.673885 40.816705 162.273885 
L 40.816705 157.450135 
Q 40.816705 155.050135 38.416705 155.050135 
L 30.674205 155.050135 
Q 28.274205 155.050135 28.274205 157.450135 
z
" style="fill:#ffffff;stroke:#ffffff;stroke-linejoin:miter;"/>
    </g>
    <g clip-path="url(#p77c0fa020a)">
     <!-- P -->
     <g transform="translate(32.337955 157.450135)rotate(-270)scale(0.08 -0.08)">
      <use xlink:href="#DejaVuSans-80"/>
     </g>
    </g>
   </g>
   <g id="text_38">
    <g id="patch_39">
     <path clip-path="url(#p77c0fa020a)" d="M 28.274205 176.225219 
L 28.274205 181.048969 
Q 28.274205 183.448969 30.674205 183.448969 
L 38.416705 183.448969 
Q 40.816705 183.448969 40.816705 181.048969 
L 40.816705 176.225219 
Q 40.816705 173.825219 38.416705 173.825219 
L 30.674205 173.825219 
Q 28.274205 173.825219 28.274205 176.225219 
z
" style="fill:#ffffff;stroke:#ffffff;stroke-linejoin:miter;"/>
    </g>
    <g clip-path="url(#p77c0fa020a)">
     <!-- P -->
     <g transform="translate(32.337955 176.225219)rotate(-270)scale(0.08 -0.08)">
      <use xlink:href="#DejaVuSans-80"/>
     </g>
    </g>
   </g>
   <g id="text_39">
    <g id="patch_40">
     <path clip-path="url(#p77c0fa020a)" d="M 28.274205 194.320481 
L 28.274205 199.144231 
Q 28.274205 201.544231 30.674205 201.544231 
L 38.416705 201.544231 
Q 40.816705 201.544231 40.816705 199.144231 
L 40.816705 194.320481 
Q 40.816705 191.920481 38.416705 191.920481 
L 30.674205 191.920481 
Q 28.274205 191.920481 28.274205 194.320481 
z
" style="fill:#ffffff;stroke:#ffffff;stroke-linejoin:miter;"/>
    </g>
    <g clip-path="url(#p77c0fa020a)">
     <!-- P -->
     <g transform="translate(32.337955 194.320481)rotate(-270)scale(0.08 -0.08)">
      <use xlink:href="#DejaVuSans-80"/>
     </g>
    </g>
   </g>
   <g id="text_40">
    <g id="patch_41">
     <path clip-path="url(#p77c0fa020a)" d="M 28.274205 211.77732 
L 28.274205 216.60107 
Q 28.274205 219.00107 30.674205 219.00107 
L 38.416705 219.00107 
Q 40.816705 219.00107 40.816705 216.60107 
L 40.816705 211.77732 
Q 40.816705 209.37732 38.416705 209.37732 
L 30.674205 209.37732 
Q 28.274205 209.37732 28.274205 211.77732 
z
" style="fill:#ffffff;stroke:#ffffff;stroke-linejoin:miter;"/>
    </g>
    <g clip-path="url(#p77c0fa020a)">
     <!-- P -->
     <g transform="translate(32.337955 211.77732)rotate(-270)scale(0.08 -0.08)">
      <use xlink:href="#DejaVuSans-80"/>
     </g>
    </g>
   </g>
   <g id="text_41">
    <g id="patch_42">
     <path clip-path="url(#p77c0fa020a)" d="M 28.274205 228.635541 
L 28.274205 233.459291 
Q 28.274205 235.859291 30.674205 235.859291 
L 38.416705 235.859291 
Q 40.816705 235.859291 40.816705 233.459291 
L 40.816705 228.635541 
Q 40.816705 226.235541 38.416705 226.235541 
L 30.674205 226.235541 
Q 28.274205 226.235541 28.274205 228.635541 
z
" style="fill:#ffffff;stroke:#ffffff;stroke-linejoin:miter;"/>
    </g>
    <g clip-path="url(#p77c0fa020a)">
     <!-- P -->
     <g transform="translate(32.337955 228.635541)rotate(-270)scale(0.08 -0.08)">
      <use xlink:href="#DejaVuSans-80"/>
     </g>
    </g>
   </g>
   <g id="text_42">
    <g id="patch_43">
     <path clip-path="url(#p77c0fa020a)" d="M 28.274205 244.933627 
L 28.274205 249.757377 
Q 28.274205 252.157377 30.674205 252.157377 
L 38.416705 252.157377 
Q 40.816705 252.157377 40.816705 249.757377 
L 40.816705 244.933627 
Q 40.816705 242.533627 38.416705 242.533627 
L 30.674205 242.533627 
Q 28.274205 242.533627 28.274205 244.933627 
z
" style="fill:#ffffff;stroke:#ffffff;stroke-linejoin:miter;"/>
    </g>
    <g clip-path="url(#p77c0fa020a)">
     <!-- P -->
     <g transform="translate(32.337955 244.933627)rotate(-270)scale(0.08 -0.08)">
      <use xlink:href="#DejaVuSans-80"/>
     </g>
    </g>
   </g>
   <g id="text_43">
    <g id="patch_44">
     <path clip-path="url(#p77c0fa020a)" d="M 28.274205 260.709052 
L 28.274205 265.532802 
Q 28.274205 267.932802 30.674205 267.932802 
L 38.416705 267.932802 
Q 40.816705 267.932802 40.816705 265.532802 
L 40.816705 260.709052 
Q 40.816705 258.309052 38.416705 258.309052 
L 30.674205 258.309052 
Q 28.274205 258.309052 28.274205 260.709052 
z
" style="fill:#ffffff;stroke:#ffffff;stroke-linejoin:miter;"/>
    </g>
    <g clip-path="url(#p77c0fa020a)">
     <!-- P -->
     <g transform="translate(32.337955 260.709052)rotate(-270)scale(0.08 -0.08)">
      <use xlink:href="#DejaVuSans-80"/>
     </g>
    </g>
   </g>
   <g id="text_44">
    <g id="patch_45">
     <path clip-path="url(#p77c0fa020a)" d="M 28.274205 275.998658 
L 28.274205 280.822408 
Q 28.274205 283.222408 30.674205 283.222408 
L 38.416705 283.222408 
Q 40.816705 283.222408 40.816705 280.822408 
L 40.816705 275.998658 
Q 40.816705 273.598658 38.416705 273.598658 
L 30.674205 273.598658 
Q 28.274205 273.598658 28.274205 275.998658 
z
" style="fill:#ffffff;stroke:#ffffff;stroke-linejoin:miter;"/>
    </g>
    <g clip-path="url(#p77c0fa020a)">
     <!-- P -->
     <g transform="translate(32.337955 275.998658)rotate(-270)scale(0.08 -0.08)">
      <use xlink:href="#DejaVuSans-80"/>
     </g>
    </g>
   </g>
   <g id="text_45">
    <g id="patch_46">
     <path clip-path="url(#p77c0fa020a)" d="M 28.274205 290.839138 
L 28.274205 295.662888 
Q 28.274205 298.062888 30.674205 298.062888 
L 38.416705 298.062888 
Q 40.816705 298.062888 40.816705 295.662888 
L 40.816705 290.839138 
Q 40.816705 288.439138 38.416705 288.439138 
L 30.674205 288.439138 
Q 28.274205 288.439138 28.274205 290.839138 
z
" style="fill:#ffffff;stroke:#ffffff;stroke-linejoin:miter;"/>
    </g>
    <g clip-path="url(#p77c0fa020a)">
     <!-- P -->
     <g transform="translate(32.337955 290.839138)rotate(-270)scale(0.08 -0.08)">
      <use xlink:href="#DejaVuSans-80"/>
     </g>
    </g>
   </g>
   <g id="text_46">
    <g id="patch_47">
     <path clip-path="url(#p77c0fa020a)" d="M 28.274205 305.267703 
L 28.274205 310.091453 
Q 28.274205 312.491453 30.674205 312.491453 
L 38.416705 312.491453 
Q 40.816705 312.491453 40.816705 310.091453 
L 40.816705 305.267703 
Q 40.816705 302.867703 38.416705 302.867703 
L 30.674205 302.867703 
Q 28.274205 302.867703 28.274205 305.267703 
z
" style="fill:#ffffff;stroke:#ffffff;stroke-linejoin:miter;"/>
    </g>
    <g clip-path="url(#p77c0fa020a)">
     <!-- P -->
     <g transform="translate(32.337955 305.267703)rotate(-270)scale(0.08 -0.08)">
      <use xlink:href="#DejaVuSans-80"/>
     </g>
    </g>
   </g>
   <g id="text_47">
    <g id="patch_48">
     <path clip-path="url(#p77c0fa020a)" d="M 28.274205 319.323087 
L 28.274205 324.146837 
Q 28.274205 326.546837 30.674205 326.546837 
L 38.416705 326.546837 
Q 40.816705 326.546837 40.816705 324.146837 
L 40.816705 319.323087 
Q 40.816705 316.923087 38.416705 316.923087 
L 30.674205 316.923087 
Q 28.274205 316.923087 28.274205 319.323087 
z
" style="fill:#ffffff;stroke:#ffffff;stroke-linejoin:miter;"/>
    </g>
    <g clip-path="url(#p77c0fa020a)">
     <!-- P -->
     <g transform="translate(32.337955 319.323087)rotate(-270)scale(0.08 -0.08)">
      <use xlink:href="#DejaVuSans-80"/>
     </g>
    </g>
   </g>
   <g id="text_48">
    <g id="patch_49">
     <path clip-path="url(#p77c0fa020a)" d="M 28.274205 333.047239 
L 28.274205 337.870989 
Q 28.274205 340.270989 30.674205 340.270989 
L 38.416705 340.270989 
Q 40.816705 340.270989 40.816705 337.870989 
L 40.816705 333.047239 
Q 40.816705 330.647239 38.416705 330.647239 
L 30.674205 330.647239 
Q 28.274205 330.647239 28.274205 333.047239 
z
" style="fill:#ffffff;stroke:#ffffff;stroke-linejoin:miter;"/>
    </g>
    <g clip-path="url(#p77c0fa020a)">
     <!-- P -->
     <g transform="translate(32.337955 333.047239)rotate(-270)scale(0.08 -0.08)">
      <use xlink:href="#DejaVuSans-80"/>
     </g>
    </g>
   </g>
   <g id="text_49">
    <g id="patch_50">
     <path clip-path="url(#p77c0fa020a)" d="M 28.274205 346.48862 
L 28.274205 351.31237 
Q 28.274205 353.71237 30.674205 353.71237 
L 38.416705 353.71237 
Q 40.816705 353.71237 40.816705 351.31237 
L 40.816705 346.48862 
Q 40.816705 344.08862 38.416705 344.08862 
L 30.674205 344.08862 
Q 28.274205 344.08862 28.274205 346.48862 
z
" style="fill:#ffffff;stroke:#ffffff;stroke-linejoin:miter;"/>
    </g>
    <g clip-path="url(#p77c0fa020a)">
     <!-- P -->
     <g transform="translate(32.337955 346.48862)rotate(-270)scale(0.08 -0.08)">
      <use xlink:href="#DejaVuSans-80"/>
     </g>
    </g>
   </g>
   <g id="text_50">
    <g id="patch_51">
     <path clip-path="url(#p77c0fa020a)" d="M 28.274205 359.710493 
L 28.274205 364.534243 
Q 28.274205 366.934243 30.674205 366.934243 
L 38.416705 366.934243 
Q 40.816705 366.934243 40.816705 364.534243 
L 40.816705 359.710493 
Q 40.816705 357.310493 38.416705 357.310493 
L 30.674205 357.310493 
Q 28.274205 357.310493 28.274205 359.710493 
z
" style="fill:#ffffff;stroke:#ffffff;stroke-linejoin:miter;"/>
    </g>
    <g clip-path="url(#p77c0fa020a)">
     <!-- P -->
     <g transform="translate(32.337955 359.710493)rotate(-270)scale(0.08 -0.08)">
      <use xlink:href="#DejaVuSans-80"/>
     </g>
    </g>
   </g>
   <g id="text_51">
    <g id="patch_52">
     <path clip-path="url(#p77c0fa020a)" d="M 28.274205 358.34916 
L 28.274205 392.15666 
Q 28.274205 394.55666 30.674205 394.55666 
L 38.416705 394.55666 
Q 40.816705 394.55666 40.816705 392.15666 
L 40.816705 358.34916 
Q 40.816705 355.94916 38.416705 355.94916 
L 30.674205 355.94916 
Q 28.274205 355.94916 28.274205 358.34916 
z
" style="fill:#ffffff;stroke:#ffffff;stroke-linejoin:miter;"/>
    </g>
    <g clip-path="url(#p77c0fa020a)">
     <!-- Terminal -->
     <g transform="translate(32.337955 358.34916)rotate(-270)scale(0.08 -0.08)">
      <use xlink:href="#DejaVuSans-84"/>
      <use x="44.083984" xlink:href="#DejaVuSans-101"/>
      <use x="105.607422" xlink:href="#DejaVuSans-114"/>
      <use x="144.970703" xlink:href="#DejaVuSans-109"/>
      <use x="242.382812" xlink:href="#DejaVuSans-105"/>
      <use x="270.166016" xlink:href="#DejaVuSans-110"/>
      <use x="333.544922" xlink:href="#DejaVuSans-97"/>
      <use x="394.824219" xlink:href="#DejaVuSans-108"/>
     </g>
    </g>
   </g>
   <g id="PathCollection_1">
    <defs>
     <path d="M 0 8.660254 
C 2.296726 8.660254 4.499694 7.747755 6.123724 6.123724 
C 7.747755 4.499694 8.660254 2.296726 8.660254 -0 
C 8.660254 -2.296726 7.747755 -4.499694 6.123724 -6.123724 
C 4.499694 -7.747755 2.296726 -8.660254 0 -8.660254 
C -2.296726 -8.660254 -4.499694 -7.747755 -6.123724 -6.123724 
C -7.747755 -4.499694 -8.660254 -2.296726 -8.660254 0 
C -8.660254 2.296726 -7.747755 4.499694 -6.123724 6.123724 
C -4.499694 7.747755 -2.296726 8.660254 0 8.660254 
z
" id="C0_0_9bbcc0e808"/>
    </defs>
    <g clip-path="url(#p77c0fa020a)">
     <use style="fill:#ffffff;stroke:#ffffff;" x="34.545455" xlink:href="#C0_0_9bbcc0e808" y="381.818182"/>
    </g>
    <g clip-path="url(#p77c0fa020a)">
     <use style="fill:#ffffff;stroke:#ffffff;" x="83.896104" xlink:href="#C0_0_9bbcc0e808" y="381.818182"/>
    </g>
    <g clip-path="url(#p77c0fa020a)">
     <use style="fill:#ffffff;stroke:#ffffff;" x="133.246753" xlink:href="#C0_0_9bbcc0e808" y="381.818182"/>
    </g>
    <g clip-path="url(#p77c0fa020a)">
     <use style="fill:#ffffff;stroke:#ffffff;" x="182.597403" xlink:href="#C0_0_9bbcc0e808" y="381.818182"/>
    </g>
    <g clip-path="url(#p77c0fa020a)">
     <use style="fill:#ffffff;stroke:#ffffff;" x="231.948052" xlink:href="#C0_0_9bbcc0e808" y="381.818182"/>
    </g>
    <g clip-path="url(#p77c0fa020a)">
     <use style="fill:#ffffff;stroke:#ffffff;" x="281.298701" xlink:href="#C0_0_9bbcc0e808" y="381.818182"/>
    </g>
    <g clip-path="url(#p77c0fa020a)">
     <use style="fill:#ffffff;stroke:#ffffff;" x="330.649351" xlink:href="#C0_0_9bbcc0e808" y="381.818182"/>
    </g>
    <g clip-path="url(#p77c0fa020a)">
     <use style="fill:#ffffff;stroke:#ffffff;" x="380" xlink:href="#C0_0_9bbcc0e808" y="381.818182"/>
    </g>
    <g clip-path="url(#p77c0fa020a)">
     <use style="fill:#ffffff;stroke:#ffffff;" x="429.350649" xlink:href="#C0_0_9bbcc0e808" y="381.818182"/>
    </g>
    <g clip-path="url(#p77c0fa020a)">
     <use style="fill:#ffffff;stroke:#ffffff;" x="478.701299" xlink:href="#C0_0_9bbcc0e808" y="381.818182"/>
    </g>
    <g clip-path="url(#p77c0fa020a)">
     <use style="fill:#ffffff;stroke:#ffffff;" x="528.051948" xlink:href="#C0_0_9bbcc0e808" y="381.818182"/>
    </g>
    <g clip-path="url(#p77c0fa020a)">
     <use style="fill:#ffffff;stroke:#ffffff;" x="577.402597" xlink:href="#C0_0_9bbcc0e808" y="381.818182"/>
    </g>
    <g clip-path="url(#p77c0fa020a)">
     <use style="fill:#ffffff;stroke:#ffffff;" x="626.753247" xlink:href="#C0_0_9bbcc0e808" y="381.818182"/>
    </g>
    <g clip-path="url(#p77c0fa020a)">
     <use style="fill:#ffffff;stroke:#ffffff;" x="676.103896" xlink:href="#C0_0_9bbcc0e808" y="381.818182"/>
    </g>
    <g clip-path="url(#p77c0fa020a)">
     <use style="fill:#ffffff;stroke:#ffffff;" x="725.454545" xlink:href="#C0_0_9bbcc0e808" y="381.818182"/>
    </g>
    <g clip-path="url(#p77c0fa020a)">
     <use style="stroke:#000000;" x="256.623377" xlink:href="#C0_0_9bbcc0e808" y="18.181818"/>
    </g>
    <g clip-path="url(#p77c0fa020a)">
     <use style="stroke:#000000;" x="83.896104" xlink:href="#C0_0_9bbcc0e808" y="368.687639"/>
    </g>
    <g clip-path="url(#p77c0fa020a)">
     <use style="stroke:#000000;" x="404.675325" xlink:href="#C0_0_9bbcc0e808" y="355.557096"/>
    </g>
    <g clip-path="url(#p77c0fa020a)">
     <use style="stroke:#000000;" x="725.454545" xlink:href="#C0_0_9bbcc0e808" y="368.687639"/>
    </g>
    <g clip-path="url(#p77c0fa020a)">
     <use style="stroke:#000000;" x="34.545455" xlink:href="#C0_0_9bbcc0e808" y="42.527183"/>
    </g>
    <g clip-path="url(#p77c0fa020a)">
     <use style="stroke:#000000;" x="133.246753" xlink:href="#C0_0_9bbcc0e808" y="368.687639"/>
    </g>
    <g clip-path="url(#p77c0fa020a)">
     <use style="stroke:#000000;" x="182.597403" xlink:href="#C0_0_9bbcc0e808" y="368.687639"/>
    </g>
    <g clip-path="url(#p77c0fa020a)">
     <use style="stroke:#000000;" x="231.948052" xlink:href="#C0_0_9bbcc0e808" y="368.687639"/>
    </g>
    <g clip-path="url(#p77c0fa020a)">
     <use style="stroke:#000000;" x="281.298701" xlink:href="#C0_0_9bbcc0e808" y="368.687639"/>
    </g>
    <g clip-path="url(#p77c0fa020a)">
     <use style="stroke:#000000;" x="330.649351" xlink:href="#C0_0_9bbcc0e808" y="368.687639"/>
    </g>
    <g clip-path="url(#p77c0fa020a)">
     <use style="stroke:#000000;" x="380" xlink:href="#C0_0_9bbcc0e808" y="368.687639"/>
    </g>
    <g clip-path="url(#p77c0fa020a)">
     <use style="stroke:#000000;" x="429.350649" xlink:href="#C0_0_9bbcc0e808" y="368.687639"/>
    </g>
    <g clip-path="url(#p77c0fa020a)">
     <use style="stroke:#000000;" x="478.701299" xlink:href="#C0_0_9bbcc0e808" y="368.687639"/>
    </g>
    <g clip-path="url(#p77c0fa020a)">
     <use style="stroke:#000000;" x="528.051948" xlink:href="#C0_0_9bbcc0e808" y="368.687639"/>
    </g>
    <g clip-path="url(#p77c0fa020a)">
     <use style="stroke:#000000;" x="577.402597" xlink:href="#C0_0_9bbcc0e808" y="368.687639"/>
    </g>
    <g clip-path="url(#p77c0fa020a)">
     <use style="stroke:#000000;" x="626.753247" xlink:href="#C0_0_9bbcc0e808" y="368.687639"/>
    </g>
    <g clip-path="url(#p77c0fa020a)">
     <use style="stroke:#000000;" x="676.103896" xlink:href="#C0_0_9bbcc0e808" y="368.687639"/>
    </g>
    <g clip-path="url(#p77c0fa020a)">
     <use style="stroke:#000000;" x="34.545455" xlink:href="#C0_0_9bbcc0e808" y="65.868478"/>
    </g>
    <g clip-path="url(#p77c0fa020a)">
     <use style="stroke:#000000;" x="34.545455" xlink:href="#C0_0_9bbcc0e808" y="88.263314"/>
    </g>
    <g clip-path="url(#p77c0fa020a)">
     <use style="stroke:#000000;" x="34.545455" xlink:href="#C0_0_9bbcc0e808" y="109.76614"/>
    </g>
    <g clip-path="url(#p77c0fa020a)">
     <use style="stroke:#000000;" x="34.545455" xlink:href="#C0_0_9bbcc0e808" y="130.42849"/>
    </g>
    <g clip-path="url(#p77c0fa020a)">
     <use style="stroke:#000000;" x="34.545455" xlink:href="#C0_0_9bbcc0e808" y="150.29923"/>
    </g>
    <g clip-path="url(#p77c0fa020a)">
     <use style="stroke:#000000;" x="34.545455" xlink:href="#C0_0_9bbcc0e808" y="169.42479"/>
    </g>
    <g clip-path="url(#p77c0fa020a)">
     <use style="stroke:#000000;" x="34.545455" xlink:href="#C0_0_9bbcc0e808" y="187.849397"/>
    </g>
    <g clip-path="url(#p77c0fa020a)">
     <use style="stroke:#000000;" x="34.545455" xlink:href="#C0_0_9bbcc0e808" y="205.615314"/>
    </g>
    <g clip-path="url(#p77c0fa020a)">
     <use style="stroke:#000000;" x="34.545455" xlink:href="#C0_0_9bbcc0e808" y="222.763076"/>
    </g>
    <g clip-path="url(#p77c0fa020a)">
     <use style="stroke:#000000;" x="34.545455" xlink:href="#C0_0_9bbcc0e808" y="239.331756"/>
    </g>
    <g clip-path="url(#p77c0fa020a)">
     <use style="stroke:#000000;" x="34.545455" xlink:href="#C0_0_9bbcc0e808" y="255.359248"/>
    </g>
    <g clip-path="url(#p77c0fa020a)">
     <use style="stroke:#000000;" x="34.545455" xlink:href="#C0_0_9bbcc0e808" y="270.882606"/>
    </g>
    <g clip-path="url(#p77c0fa020a)">
     <use style="stroke:#000000;" x="34.545455" xlink:href="#C0_0_9bbcc0e808" y="285.93846"/>
    </g>
    <g clip-path="url(#p77c0fa020a)">
     <use style="stroke:#000000;" x="34.545455" xlink:href="#C0_0_9bbcc0e808" y="300.563566"/>
    </g>
    <g clip-path="url(#p77c0fa020a)">
     <use style="stroke:#000000;" x="34.545455" xlink:href="#C0_0_9bbcc0e808" y="314.79559"/>
    </g>
    <g clip-path="url(#p77c0fa020a)">
     <use style="stroke:#000000;" x="34.545455" xlink:href="#C0_0_9bbcc0e808" y="328.674334"/>
    </g>
    <g clip-path="url(#p77c0fa020a)">
     <use style="stroke:#000000;" x="34.545455" xlink:href="#C0_0_9bbcc0e808" y="342.243893"/>
    </g>
    <g clip-path="url(#p77c0fa020a)">
     <use style="stroke:#000000;" x="34.545455" xlink:href="#C0_0_9bbcc0e808" y="355.557096"/>
    </g>
    <g clip-path="url(#p77c0fa020a)">
     <use style="stroke:#000000;" x="34.545455" xlink:href="#C0_0_9bbcc0e808" y="368.687639"/>
    </g>
   </g>
   <g id="text_52">
    <g clip-path="url(#p77c0fa020a)">
     <!-- A -->
     <g transform="translate(31.125142 384.577557)scale(0.1 -0.1)">
      <use xlink:href="#DejaVuSans-65"/>
     </g>
    </g>
   </g>
   <g id="text_53">
    <g clip-path="url(#p77c0fa020a)">
     <!-- planet -->
     <g transform="translate(68.063291 384.577557)scale(0.1 -0.1)">
      <defs>
       <path d="M 18.109375 8.203125 
L 18.109375 -20.796875 
L 9.078125 -20.796875 
L 9.078125 54.6875 
L 18.109375 54.6875 
L 18.109375 46.390625 
Q 20.953125 51.265625 25.265625 53.625 
Q 29.59375 56 35.59375 56 
Q 45.5625 56 51.78125 48.09375 
Q 58.015625 40.1875 58.015625 27.296875 
Q 58.015625 14.40625 51.78125 6.484375 
Q 45.5625 -1.421875 35.59375 -1.421875 
Q 29.59375 -1.421875 25.265625 0.953125 
Q 20.953125 3.328125 18.109375 8.203125 
z
M 48.6875 27.296875 
Q 48.6875 37.203125 44.609375 42.84375 
Q 40.53125 48.484375 33.40625 48.484375 
Q 26.265625 48.484375 22.1875 42.84375 
Q 18.109375 37.203125 18.109375 27.296875 
Q 18.109375 17.390625 22.1875 11.75 
Q 26.265625 6.109375 33.40625 6.109375 
Q 40.53125 6.109375 44.609375 11.75 
Q 48.6875 17.390625 48.6875 27.296875 
z
" id="DejaVuSans-112"/>
       <path d="M 18.3125 70.21875 
L 18.3125 54.6875 
L 36.8125 54.6875 
L 36.8125 47.703125 
L 18.3125 47.703125 
L 18.3125 18.015625 
Q 18.3125 11.328125 20.140625 9.421875 
Q 21.96875 7.515625 27.59375 7.515625 
L 36.8125 7.515625 
L 36.8125 0 
L 27.59375 0 
Q 17.1875 0 13.234375 3.875 
Q 9.28125 7.765625 9.28125 18.015625 
L 9.28125 47.703125 
L 2.6875 47.703125 
L 2.6875 54.6875 
L 9.28125 54.6875 
L 9.28125 70.21875 
z
" id="DejaVuSans-116"/>
      </defs>
      <use xlink:href="#DejaVuSans-112"/>
      <use x="63.476562" xlink:href="#DejaVuSans-108"/>
      <use x="91.259766" xlink:href="#DejaVuSans-97"/>
      <use x="152.539062" xlink:href="#DejaVuSans-110"/>
      <use x="215.917969" xlink:href="#DejaVuSans-101"/>
      <use x="277.441406" xlink:href="#DejaVuSans-116"/>
     </g>
    </g>
   </g>
   <g id="text_54">
    <g clip-path="url(#p77c0fa020a)">
     <!-- is -->
     <g transform="translate(129.253003 384.577557)scale(0.1 -0.1)">
      <defs>
       <path d="M 44.28125 53.078125 
L 44.28125 44.578125 
Q 40.484375 46.53125 36.375 47.5 
Q 32.28125 48.484375 27.875 48.484375 
Q 21.1875 48.484375 17.84375 46.4375 
Q 14.5 44.390625 14.5 40.28125 
Q 14.5 37.15625 16.890625 35.375 
Q 19.28125 33.59375 26.515625 31.984375 
L 29.59375 31.296875 
Q 39.15625 29.25 43.1875 25.515625 
Q 47.21875 21.78125 47.21875 15.09375 
Q 47.21875 7.46875 41.1875 3.015625 
Q 35.15625 -1.421875 24.609375 -1.421875 
Q 20.21875 -1.421875 15.453125 -0.5625 
Q 10.6875 0.296875 5.421875 2 
L 5.421875 11.28125 
Q 10.40625 8.6875 15.234375 7.390625 
Q 20.0625 6.109375 24.8125 6.109375 
Q 31.15625 6.109375 34.5625 8.28125 
Q 37.984375 10.453125 37.984375 14.40625 
Q 37.984375 18.0625 35.515625 20.015625 
Q 33.0625 21.96875 24.703125 23.78125 
L 21.578125 24.515625 
Q 13.234375 26.265625 9.515625 29.90625 
Q 5.8125 33.546875 5.8125 39.890625 
Q 5.8125 47.609375 11.28125 51.796875 
Q 16.75 56 26.8125 56 
Q 31.78125 56 36.171875 55.265625 
Q 40.578125 54.546875 44.28125 53.078125 
z
" id="DejaVuSans-115"/>
      </defs>
      <use xlink:href="#DejaVuSans-105"/>
      <use x="27.783203" xlink:href="#DejaVuSans-115"/>
     </g>
    </g>
   </g>
   <g id="text_55">
    <g clip-path="url(#p77c0fa020a)">
     <!-- exposed -->
     <g transform="translate(161.559903 384.577557)scale(0.1 -0.1)">
      <defs>
       <path d="M 54.890625 54.6875 
L 35.109375 28.078125 
L 55.90625 0 
L 45.3125 0 
L 29.390625 21.484375 
L 13.484375 0 
L 2.875 0 
L 24.125 28.609375 
L 4.6875 54.6875 
L 15.28125 54.6875 
L 29.78125 35.203125 
L 44.28125 54.6875 
z
" id="DejaVuSans-120"/>
       <path d="M 30.609375 48.390625 
Q 23.390625 48.390625 19.1875 42.75 
Q 14.984375 37.109375 14.984375 27.296875 
Q 14.984375 17.484375 19.15625 11.84375 
Q 23.34375 6.203125 30.609375 6.203125 
Q 37.796875 6.203125 41.984375 11.859375 
Q 46.1875 17.53125 46.1875 27.296875 
Q 46.1875 37.015625 41.984375 42.703125 
Q 37.796875 48.390625 30.609375 48.390625 
z
M 30.609375 56 
Q 42.328125 56 49.015625 48.375 
Q 55.71875 40.765625 55.71875 27.296875 
Q 55.71875 13.875 49.015625 6.21875 
Q 42.328125 -1.421875 30.609375 -1.421875 
Q 18.84375 -1.421875 12.171875 6.21875 
Q 5.515625 13.875 5.515625 27.296875 
Q 5.515625 40.765625 12.171875 48.375 
Q 18.84375 56 30.609375 56 
z
" id="DejaVuSans-111"/>
       <path d="M 45.40625 46.390625 
L 45.40625 75.984375 
L 54.390625 75.984375 
L 54.390625 0 
L 45.40625 0 
L 45.40625 8.203125 
Q 42.578125 3.328125 38.25 0.953125 
Q 33.9375 -1.421875 27.875 -1.421875 
Q 17.96875 -1.421875 11.734375 6.484375 
Q 5.515625 14.40625 5.515625 27.296875 
Q 5.515625 40.1875 11.734375 48.09375 
Q 17.96875 56 27.875 56 
Q 33.9375 56 38.25 53.625 
Q 42.578125 51.265625 45.40625 46.390625 
z
M 14.796875 27.296875 
Q 14.796875 17.390625 18.875 11.75 
Q 22.953125 6.109375 30.078125 6.109375 
Q 37.203125 6.109375 41.296875 11.75 
Q 45.40625 17.390625 45.40625 27.296875 
Q 45.40625 37.203125 41.296875 42.84375 
Q 37.203125 48.484375 30.078125 48.484375 
Q 22.953125 48.484375 18.875 42.84375 
Q 14.796875 37.203125 14.796875 27.296875 
z
" id="DejaVuSans-100"/>
      </defs>
      <use xlink:href="#DejaVuSans-101"/>
      <use x="59.773438" xlink:href="#DejaVuSans-120"/>
      <use x="118.953125" xlink:href="#DejaVuSans-112"/>
      <use x="182.429688" xlink:href="#DejaVuSans-111"/>
      <use x="243.611328" xlink:href="#DejaVuSans-115"/>
      <use x="295.710938" xlink:href="#DejaVuSans-101"/>
      <use x="357.234375" xlink:href="#DejaVuSans-100"/>
     </g>
    </g>
   </g>
   <g id="text_56">
    <g clip-path="url(#p77c0fa020a)">
     <!-- to -->
     <g transform="translate(226.928521 384.577557)scale(0.1 -0.1)">
      <use xlink:href="#DejaVuSans-116"/>
      <use x="39.208984" xlink:href="#DejaVuSans-111"/>
     </g>
    </g>
   </g>
   <g id="text_57">
    <g clip-path="url(#p77c0fa020a)">
     <!-- the -->
     <g transform="translate(273.093233 384.577557)scale(0.1 -0.1)">
      <defs>
       <path d="M 54.890625 33.015625 
L 54.890625 0 
L 45.90625 0 
L 45.90625 32.71875 
Q 45.90625 40.484375 42.875 44.328125 
Q 39.84375 48.1875 33.796875 48.1875 
Q 26.515625 48.1875 22.3125 43.546875 
Q 18.109375 38.921875 18.109375 30.90625 
L 18.109375 0 
L 9.078125 0 
L 9.078125 75.984375 
L 18.109375 75.984375 
L 18.109375 46.1875 
Q 21.34375 51.125 25.703125 53.5625 
Q 30.078125 56 35.796875 56 
Q 45.21875 56 50.046875 50.171875 
Q 54.890625 44.34375 54.890625 33.015625 
z
" id="DejaVuSans-104"/>
      </defs>
      <use xlink:href="#DejaVuSans-116"/>
      <use x="39.208984" xlink:href="#DejaVuSans-104"/>
      <use x="102.587891" xlink:href="#DejaVuSans-101"/>
     </g>
    </g>
   </g>
   <g id="text_58">
    <g clip-path="url(#p77c0fa020a)">
     <!-- heat -->
     <g transform="translate(319.379819 384.577557)scale(0.1 -0.1)">
      <use xlink:href="#DejaVuSans-104"/>
      <use x="63.378906" xlink:href="#DejaVuSans-101"/>
      <use x="124.902344" xlink:href="#DejaVuSans-97"/>
      <use x="186.181641" xlink:href="#DejaVuSans-116"/>
     </g>
    </g>
   </g>
   <g id="text_59">
    <g clip-path="url(#p77c0fa020a)">
     <!-- of -->
     <g transform="translate(375.180469 384.577557)scale(0.1 -0.1)">
      <defs>
       <path d="M 37.109375 75.984375 
L 37.109375 68.5 
L 28.515625 68.5 
Q 23.6875 68.5 21.796875 66.546875 
Q 19.921875 64.59375 19.921875 59.515625 
L 19.921875 54.6875 
L 34.71875 54.6875 
L 34.71875 47.703125 
L 19.921875 47.703125 
L 19.921875 0 
L 10.890625 0 
L 10.890625 47.703125 
L 2.296875 47.703125 
L 2.296875 54.6875 
L 10.890625 54.6875 
L 10.890625 58.5 
Q 10.890625 67.625 15.140625 71.796875 
Q 19.390625 75.984375 28.609375 75.984375 
z
" id="DejaVuSans-102"/>
      </defs>
      <use xlink:href="#DejaVuSans-111"/>
      <use x="61.181641" xlink:href="#DejaVuSans-102"/>
     </g>
    </g>
   </g>
   <g id="text_60">
    <g clip-path="url(#p77c0fa020a)">
     <!-- the -->
     <g transform="translate(421.145181 384.577557)scale(0.1 -0.1)">
      <use xlink:href="#DejaVuSans-116"/>
      <use x="39.208984" xlink:href="#DejaVuSans-104"/>
      <use x="102.587891" xlink:href="#DejaVuSans-101"/>
     </g>
    </g>
   </g>
   <g id="text_61">
    <g clip-path="url(#p77c0fa020a)">
     <!-- star -->
     <g transform="translate(469.016924 384.577557)scale(0.1 -0.1)">
      <use xlink:href="#DejaVuSans-115"/>
      <use x="52.099609" xlink:href="#DejaVuSans-116"/>
      <use x="91.308594" xlink:href="#DejaVuSans-97"/>
      <use x="152.587891" xlink:href="#DejaVuSans-114"/>
     </g>
    </g>
   </g>
   <g id="text_62">
    <g clip-path="url(#p77c0fa020a)">
     <!-- around -->
     <g transform="translate(510.473823 384.577557)scale(0.1 -0.1)">
      <defs>
       <path d="M 8.5 21.578125 
L 8.5 54.6875 
L 17.484375 54.6875 
L 17.484375 21.921875 
Q 17.484375 14.15625 20.5 10.265625 
Q 23.53125 6.390625 29.59375 6.390625 
Q 36.859375 6.390625 41.078125 11.03125 
Q 45.3125 15.671875 45.3125 23.6875 
L 45.3125 54.6875 
L 54.296875 54.6875 
L 54.296875 0 
L 45.3125 0 
L 45.3125 8.40625 
Q 42.046875 3.421875 37.71875 1 
Q 33.40625 -1.421875 27.6875 -1.421875 
Q 18.265625 -1.421875 13.375 4.4375 
Q 8.5 10.296875 8.5 21.578125 
z
M 31.109375 56 
z
" id="DejaVuSans-117"/>
      </defs>
      <use xlink:href="#DejaVuSans-97"/>
      <use x="61.279297" xlink:href="#DejaVuSans-114"/>
      <use x="100.142578" xlink:href="#DejaVuSans-111"/>
      <use x="161.324219" xlink:href="#DejaVuSans-117"/>
      <use x="224.703125" xlink:href="#DejaVuSans-110"/>
      <use x="288.082031" xlink:href="#DejaVuSans-100"/>
     </g>
    </g>
   </g>
   <g id="text_63">
    <g clip-path="url(#p77c0fa020a)">
     <!-- which -->
     <g transform="translate(562.837754 384.577557)scale(0.1 -0.1)">
      <defs>
       <path d="M 4.203125 54.6875 
L 13.1875 54.6875 
L 24.421875 12.015625 
L 35.59375 54.6875 
L 46.1875 54.6875 
L 57.421875 12.015625 
L 68.609375 54.6875 
L 77.59375 54.6875 
L 63.28125 0 
L 52.6875 0 
L 40.921875 44.828125 
L 29.109375 0 
L 18.5 0 
z
" id="DejaVuSans-119"/>
       <path d="M 48.78125 52.59375 
L 48.78125 44.1875 
Q 44.96875 46.296875 41.140625 47.34375 
Q 37.3125 48.390625 33.40625 48.390625 
Q 24.65625 48.390625 19.8125 42.84375 
Q 14.984375 37.3125 14.984375 27.296875 
Q 14.984375 17.28125 19.8125 11.734375 
Q 24.65625 6.203125 33.40625 6.203125 
Q 37.3125 6.203125 41.140625 7.25 
Q 44.96875 8.296875 48.78125 10.40625 
L 48.78125 2.09375 
Q 45.015625 0.34375 40.984375 -0.53125 
Q 36.96875 -1.421875 32.421875 -1.421875 
Q 20.0625 -1.421875 12.78125 6.34375 
Q 5.515625 14.109375 5.515625 27.296875 
Q 5.515625 40.671875 12.859375 48.328125 
Q 20.21875 56 33.015625 56 
Q 37.15625 56 41.109375 55.140625 
Q 45.0625 54.296875 48.78125 52.59375 
z
" id="DejaVuSans-99"/>
      </defs>
      <use xlink:href="#DejaVuSans-119"/>
      <use x="81.787109" xlink:href="#DejaVuSans-104"/>
      <use x="145.166016" xlink:href="#DejaVuSans-105"/>
      <use x="172.949219" xlink:href="#DejaVuSans-99"/>
      <use x="227.929688" xlink:href="#DejaVuSans-104"/>
     </g>
    </g>
   </g>
   <g id="text_64">
    <g clip-path="url(#p77c0fa020a)">
     <!-- it -->
     <g transform="translate(623.404028 384.577557)scale(0.1 -0.1)">
      <use xlink:href="#DejaVuSans-105"/>
      <use x="27.783203" xlink:href="#DejaVuSans-116"/>
     </g>
    </g>
   </g>
   <g id="text_65">
    <g clip-path="url(#p77c0fa020a)">
     <!-- revolves -->
     <g transform="translate(655.035927 384.577557)scale(0.1 -0.1)">
      <defs>
       <path d="M 2.984375 54.6875 
L 12.5 54.6875 
L 29.59375 8.796875 
L 46.6875 54.6875 
L 56.203125 54.6875 
L 35.6875 0 
L 23.484375 0 
z
" id="DejaVuSans-118"/>
      </defs>
      <use xlink:href="#DejaVuSans-114"/>
      <use x="38.863281" xlink:href="#DejaVuSans-101"/>
      <use x="100.386719" xlink:href="#DejaVuSans-118"/>
      <use x="159.566406" xlink:href="#DejaVuSans-111"/>
      <use x="220.748047" xlink:href="#DejaVuSans-108"/>
      <use x="248.53125" xlink:href="#DejaVuSans-118"/>
      <use x="307.710938" xlink:href="#DejaVuSans-101"/>
      <use x="369.234375" xlink:href="#DejaVuSans-115"/>
     </g>
    </g>
   </g>
   <g id="text_66">
    <g clip-path="url(#p77c0fa020a)">
     <!-- . -->
     <g transform="translate(723.865483 384.577557)scale(0.1 -0.1)">
      <defs>
       <path d="M 10.6875 12.40625 
L 21 12.40625 
L 21 0 
L 10.6875 0 
z
" id="DejaVuSans-46"/>
      </defs>
      <use xlink:href="#DejaVuSans-46"/>
     </g>
    </g>
   </g>
  </g>
 </g>
 <defs>
  <clipPath id="p77c0fa020a">
   <rect height="400" width="760" x="0" y="0"/>
  </clipPath>
 </defs>
</svg>
